<svg width="512" height="512" viewBox="0 0 512 512" fill="none" xmlns="http://www.w3.org/2000/svg">
<path d="M384.674 259.934C383.77 259.933 382.89 259.645 382.16 259.112C381.431 258.579 380.889 257.827 380.614 256.967C380.339 256.106 380.344 255.18 380.629 254.322C380.914 253.464 381.464 252.719 382.199 252.194L396.8 241.775L369.28 257.655C368.339 258.176 367.237 258.323 366.192 258.065C365.148 257.808 364.24 257.166 363.649 256.268C363.058 255.369 362.828 254.281 363.005 253.22C363.182 252.16 363.753 251.205 364.604 250.547L416.017 212.147L348.16 251.29C347.674 251.598 347.131 251.806 346.564 251.899C345.996 251.992 345.415 251.97 344.856 251.833C344.297 251.696 343.772 251.448 343.311 251.102C342.851 250.757 342.465 250.322 342.177 249.824C341.889 249.326 341.705 248.775 341.636 248.203C341.566 247.632 341.613 247.053 341.773 246.5C341.934 245.947 342.204 245.433 342.568 244.988C342.933 244.542 343.383 244.175 343.893 243.908L474.274 168.636C475.215 168.104 476.323 167.95 477.374 168.204C478.425 168.457 479.34 169.101 479.935 170.003C480.529 170.906 480.76 172 480.578 173.066C480.397 174.131 479.819 175.089 478.959 175.744L427.529 214.144L469.342 189.995C470.289 189.471 471.4 189.327 472.449 189.592C473.498 189.856 474.408 190.51 474.994 191.42C475.579 192.33 475.797 193.428 475.603 194.493C475.41 195.558 474.819 196.509 473.95 197.154L459.341 207.573L461.705 206.217C462.634 205.684 463.729 205.52 464.773 205.758C465.818 205.995 466.734 206.617 467.342 207.499C467.949 208.381 468.202 209.46 468.051 210.52C467.9 211.58 467.355 212.545 466.526 213.222L448.196 228.096C448.834 228.477 449.362 229.018 449.726 229.666C450.091 230.314 450.28 231.045 450.275 231.789C450.269 232.532 450.07 233.261 449.697 233.903C449.323 234.546 448.788 235.079 448.145 235.452L416.145 253.918C415.216 254.451 414.121 254.614 413.076 254.377C412.032 254.139 411.115 253.518 410.508 252.635C409.901 251.753 409.648 250.675 409.799 249.614C409.95 248.554 410.494 247.589 411.324 246.912L418.705 240.939L386.807 259.354C386.16 259.731 385.424 259.931 384.674 259.934Z" fill="#D3E3F2"/>
<path d="M262.127 310.451C261.205 310.453 260.308 310.155 259.57 309.604C258.831 309.053 258.291 308.278 258.029 307.394C257.768 306.511 257.8 305.566 258.12 304.702C258.44 303.838 259.032 303.101 259.806 302.601L334.72 254.08L240.196 308.693C239.234 309.231 238.102 309.375 237.036 309.096C235.97 308.818 235.053 308.137 234.477 307.198C233.901 306.258 233.711 305.132 233.947 304.056C234.183 302.979 234.826 302.036 235.742 301.423L337.417 235.383L220.86 302.635C219.897 303.195 218.753 303.356 217.673 303.084C216.592 302.812 215.661 302.128 215.079 301.178C214.496 300.229 214.307 299.089 214.554 298.003C214.8 296.917 215.462 295.969 216.397 295.364L334.899 218.334L204.749 293.478C203.777 294.059 202.614 294.229 201.516 293.953C200.418 293.676 199.475 292.974 198.895 292.002C198.314 291.03 198.144 289.867 198.421 288.769C198.698 287.672 199.399 286.729 200.371 286.148L220.928 273.468L197.035 287.266C196.069 287.789 194.939 287.92 193.879 287.631C192.82 287.342 191.913 286.655 191.346 285.714C190.78 284.773 190.599 283.65 190.84 282.578C191.081 281.507 191.725 280.57 192.64 279.962L250.82 243.661L188.774 279.501C187.805 280.047 186.661 280.193 185.586 279.907C184.51 279.622 183.589 278.928 183.018 277.973C182.447 277.018 182.272 275.878 182.529 274.796C182.787 273.713 183.457 272.775 184.397 272.179L208.367 257.391L182.903 272.094C181.938 272.685 180.778 272.868 179.678 272.603C178.577 272.338 177.627 271.647 177.037 270.682C176.446 269.716 176.263 268.556 176.528 267.456C176.793 266.356 177.484 265.406 178.449 264.815L304.879 183.023L145.237 275.149C144.271 275.665 143.143 275.79 142.087 275.497C141.032 275.204 140.129 274.517 139.566 273.577C139.004 272.637 138.824 271.516 139.065 270.448C139.306 269.379 139.948 268.444 140.86 267.836L201.899 230.042L122.88 275.669C121.916 276.208 120.78 276.352 119.712 276.071C118.643 275.79 117.726 275.105 117.152 274.161C116.578 273.217 116.393 272.087 116.635 271.009C116.878 269.931 117.529 268.99 118.451 268.382L267.196 172.996L98.4832 270.404C97.5157 270.992 96.3545 271.17 95.2551 270.902C94.1556 270.633 93.2081 269.938 92.6208 268.971C92.0335 268.003 91.8546 266.842 92.1234 265.743C92.3923 264.643 93.0869 263.696 94.0544 263.108L236.271 172.518L81.1776 262.059C80.212 262.624 79.0628 262.788 77.9776 262.515C76.8924 262.241 75.9581 261.552 75.3761 260.597C74.794 259.641 74.6109 258.494 74.866 257.405C75.1212 256.315 75.7943 255.369 76.7402 254.771L224.7 159.915L66.7306 251.119C65.7614 251.665 64.6171 251.811 63.5418 251.525C62.4666 251.24 61.5453 250.546 60.9744 249.591C60.4035 248.636 60.2281 247.496 60.4856 246.414C60.7432 245.332 61.4132 244.393 62.353 243.797L148.48 190.293L58.1034 242.492C57.1385 243.022 56.0057 243.159 54.942 242.874C53.8784 242.589 52.9662 241.903 52.3964 240.961C51.8266 240.018 51.6432 238.892 51.8846 237.818C52.126 236.743 52.7735 235.804 53.6917 235.196L182.613 153.745L49.9882 230.315C49.0226 230.838 47.8924 230.968 46.8329 230.679C45.7734 230.39 44.8662 229.704 44.3 228.763C43.7338 227.822 43.5523 226.698 43.7933 225.627C44.0342 224.556 44.679 223.618 45.5936 223.01L146.611 159.795L44.2112 218.914C43.2448 219.504 42.0838 219.685 40.9836 219.419C39.8834 219.152 38.9341 218.46 38.3445 217.493C37.7549 216.527 37.5734 215.366 37.8399 214.266C38.1063 213.166 38.7989 212.216 39.7653 211.627L149.845 141.508L39.3216 205.312C38.3579 205.861 37.2186 206.012 36.1449 205.735C35.0713 205.458 34.1476 204.774 33.5697 203.828C32.9917 202.882 32.8048 201.748 33.0486 200.666C33.2924 199.584 33.9477 198.64 34.8757 198.033L161.869 115.806L37.0944 187.844C36.6164 188.137 36.0855 188.332 35.5321 188.42C34.9786 188.507 34.4133 188.484 33.8685 188.353C32.7683 188.088 31.8184 187.397 31.2277 186.432C30.637 185.467 30.4539 184.306 30.7188 183.206C30.9837 182.106 31.6747 181.156 32.64 180.565L143.624 108.885L38.016 169.882C37.0607 170.419 35.9353 170.568 34.8731 170.298C33.8109 170.028 32.8934 169.359 32.3107 168.431C31.7281 167.503 31.525 166.386 31.7436 165.312C31.9622 164.238 32.5856 163.289 33.4848 162.662L51.3365 150.545L40.6784 156.689C39.7266 157.221 38.6073 157.368 37.5503 157.101C36.4934 156.833 35.5789 156.171 34.9947 155.251C34.4105 154.33 34.2008 153.221 34.4088 152.151C34.6168 151.08 35.2266 150.13 36.113 149.495L47.2661 141.764L45.6789 142.686C44.7625 143.217 43.6811 143.389 42.6453 143.167C41.6095 142.945 40.6933 142.346 40.0748 141.486C39.4564 140.625 39.18 139.566 39.2995 138.514C39.4189 137.461 39.9256 136.491 40.721 135.791L65.7066 113.835C64.7946 113.771 63.9271 113.417 63.2319 112.823C62.5367 112.229 62.0505 111.428 61.845 110.537C61.6395 109.647 61.7256 108.713 62.0905 107.875C62.4554 107.037 63.0799 106.338 63.872 105.882L95.8634 87.4155C96.7797 86.8923 97.8572 86.7272 98.888 86.952C99.9189 87.1768 100.83 87.7756 101.445 88.6327C102.06 89.4898 102.336 90.5444 102.219 91.593C102.103 92.6415 101.601 93.6097 100.813 94.3104L78.6517 113.801L132.992 82.4235C133.945 81.8853 135.069 81.734 136.13 82.0009C137.192 82.2678 138.11 82.9325 138.695 83.8575C139.281 84.7825 139.488 85.8971 139.275 86.9707C139.061 88.0442 138.443 88.9948 137.549 89.6256L126.379 97.3653L148.292 84.7189C149.248 84.1817 150.373 84.0327 151.435 84.3028C152.497 84.5729 153.415 85.2413 153.997 86.1696C154.58 87.0979 154.783 88.2148 154.565 89.2888C154.346 90.3627 153.723 91.3114 152.823 91.9381L134.997 104.038L288.034 15.6928C288.995 15.1711 290.12 15.0384 291.176 15.322C292.232 15.6056 293.139 16.2839 293.71 17.2168C294.28 18.1497 294.471 19.2661 294.242 20.3354C294.013 21.4047 293.382 22.3454 292.48 22.9632L181.547 94.6432L302.413 24.8064C303.378 24.2157 304.538 24.0326 305.639 24.2975C306.739 24.5623 307.689 25.2534 308.279 26.2187C308.87 27.1839 309.053 28.3443 308.788 29.4445C308.523 30.5447 307.832 31.4946 306.867 32.0853L179.908 114.295L314.991 36.3008C315.955 35.7618 317.091 35.6178 318.159 35.8991C319.228 36.1805 320.145 36.8652 320.719 37.8093C321.293 38.7533 321.478 39.8831 321.235 40.9609C320.993 42.0387 320.342 42.9806 319.42 43.5883L209.254 113.766L349.867 32.5803C350.836 31.9964 351.998 31.8216 353.097 32.0945C354.196 32.3673 355.141 33.0654 355.725 34.0352C356.309 35.005 356.483 36.167 356.211 37.2656C355.938 38.3642 355.24 39.3094 354.27 39.8933L253.303 103.04L364.032 39.1595C364.997 38.6288 366.13 38.4918 367.193 38.7771C368.257 39.0625 369.169 39.748 369.739 40.6904C370.309 41.6327 370.492 42.7589 370.251 43.8334C370.009 44.9079 369.362 45.8474 368.444 46.4555L239.531 127.889L374.477 49.9797C375.446 49.4337 376.59 49.2878 377.666 49.5732C378.741 49.8586 379.662 50.5527 380.233 51.5075C380.804 52.4624 380.979 53.6025 380.722 54.6848C380.464 55.767 379.794 56.7059 378.854 57.3013L292.693 110.788L379.366 60.7659C380.332 60.2 381.481 60.0362 382.566 60.3097C383.652 60.5832 384.586 61.2721 385.168 62.228C385.75 63.1839 385.933 64.3302 385.678 65.4198C385.423 66.5095 384.75 67.4553 383.804 68.0533L235.861 162.901L401.485 67.2768C402.448 66.7547 403.575 66.6233 404.633 66.9097C405.691 67.1961 406.597 67.8784 407.166 68.8153C407.734 69.7521 407.92 70.8717 407.685 71.9419C407.451 73.0122 406.813 73.9512 405.905 74.5643L263.595 165.222L421.641 73.984C422.603 73.4546 423.733 73.3169 424.795 73.5996C425.856 73.8823 426.768 74.5636 427.34 75.5017C427.912 76.4397 428.1 77.5622 427.864 78.6354C427.629 79.7086 426.989 80.6498 426.078 81.2629L277.333 176.64L438.238 83.7376C439.207 83.1915 440.351 83.0457 441.427 83.3311C442.502 83.6165 443.423 84.3106 443.994 85.2654C444.565 86.2203 444.74 87.3603 444.483 88.4426C444.225 89.5249 443.555 90.4638 442.615 91.0592L381.551 128.853L446.404 91.4091C447.366 90.8716 448.499 90.7271 449.565 91.0059C450.631 91.2847 451.548 91.9651 452.124 92.9048C452.699 93.8444 452.889 94.9702 452.653 96.0467C452.417 97.1231 451.774 98.0665 450.859 98.6795L324.506 180.429L457.267 103.782C458.236 103.236 459.381 103.09 460.456 103.376C461.531 103.661 462.453 104.355 463.023 105.31C463.594 106.265 463.77 107.405 463.512 108.487C463.255 109.57 462.585 110.509 461.645 111.104L437.623 125.918L462.464 111.582C463.433 111.023 464.582 110.867 465.665 111.148C466.747 111.428 467.676 112.122 468.252 113.08C468.828 114.039 469.005 115.185 468.744 116.273C468.484 117.36 467.807 118.302 466.859 118.895L408.747 155.204L467.362 121.361C468.33 120.836 469.464 120.706 470.526 120.997C471.587 121.289 472.496 121.98 473.06 122.925C473.624 123.871 473.801 124.998 473.553 126.071C473.306 127.144 472.653 128.08 471.731 128.683L450.978 141.483L470.605 130.133C471.568 129.573 472.712 129.412 473.792 129.684C474.872 129.956 475.803 130.64 476.386 131.59C476.969 132.539 477.157 133.679 476.911 134.765C476.664 135.851 476.003 136.798 475.068 137.404L356.557 214.434L474.069 146.603C475.029 146.088 476.149 145.959 477.2 146.243C478.252 146.527 479.155 147.203 479.724 148.131C480.294 149.059 480.486 150.17 480.263 151.236C480.04 152.302 479.418 153.243 478.524 153.865L376.926 219.861L474.914 163.285C475.876 162.748 477.009 162.603 478.075 162.882C479.141 163.161 480.058 163.841 480.633 164.781C481.209 165.721 481.399 166.847 481.163 167.923C480.927 168.999 480.284 169.943 479.369 170.556L337.502 262.451L337.596 262.605C338.161 263.585 338.315 264.749 338.022 265.842C337.729 266.935 337.014 267.867 336.034 268.433L264.26 309.871C263.612 310.248 262.877 310.449 262.127 310.451Z" fill="#D3E3F2"/>
<path d="M155.546 90.7349C154.631 90.7379 153.74 90.4472 153.004 89.9055C152.267 89.3638 151.724 88.5998 151.455 87.7262C151.185 86.8525 151.203 85.9154 151.507 85.0529C151.81 84.1904 152.382 83.4481 153.139 82.9355L167.561 73.1477L160.734 77.0645C159.783 77.5839 158.67 77.7219 157.62 77.4505C156.571 77.1791 155.665 76.5186 155.085 75.603C154.505 74.6875 154.295 73.5856 154.498 72.521C154.701 71.4564 155.301 70.5089 156.177 69.8709L165.282 63.5819C164.377 63.6665 163.469 63.4602 162.69 62.9929C161.911 62.5255 161.301 61.8216 160.95 60.9837C160.598 60.1457 160.524 59.2175 160.737 58.3341C160.949 57.4507 161.439 56.6584 162.133 56.0725L184.252 37.4443C183.412 37.2605 182.646 36.8271 182.057 36.2009C181.467 35.5747 181.081 34.7849 180.948 33.9352C180.815 33.0854 180.942 32.2153 181.312 31.439C181.683 30.6627 182.279 30.0165 183.023 29.5851L216.815 10.0693C217.744 9.44935 218.878 9.21806 219.975 9.4251C221.072 9.63214 222.045 10.261 222.684 11.1767C223.322 12.0925 223.577 13.2221 223.392 14.3233C223.207 15.4244 222.599 16.4093 221.696 17.0667L204.45 31.5733L249.455 5.57225C250.409 5.0172 251.541 4.85331 252.613 5.11499C253.685 5.37668 254.614 6.04358 255.205 6.97566C255.795 7.90774 256.002 9.03249 255.781 10.1137C255.56 11.195 254.929 12.1486 254.02 12.7744L248.678 16.4608L264.533 7.30452C265.491 6.73716 266.632 6.56646 267.714 6.82884C268.796 7.09123 269.732 7.76591 270.323 8.70896C270.914 9.652 271.114 10.7887 270.879 11.8767C270.643 12.9646 269.992 13.9176 269.065 14.5323L254.609 24.3456L277.18 11.3152C277.665 11.0065 278.208 10.7992 278.776 10.7058C279.344 10.6124 279.925 10.6348 280.484 10.7717C281.043 10.9086 281.568 11.1572 282.029 11.5024C282.489 11.8477 282.875 12.2825 283.163 12.7807C283.451 13.2789 283.635 13.8302 283.704 14.4014C283.774 14.9726 283.727 15.552 283.566 16.1047C283.406 16.6573 283.136 17.1718 282.771 17.6173C282.407 18.0627 281.956 18.4298 281.446 18.6965L157.713 90.1547C157.055 90.538 156.307 90.7383 155.546 90.7349Z" fill="#D3E3F2"/>
<path d="M254.217 507.145C253.369 507.146 252.541 506.895 251.837 506.425C251.133 505.954 250.585 505.284 250.263 504.501C249.941 503.717 249.859 502.856 250.028 502.026C250.197 501.196 250.61 500.435 251.213 499.84L259.84 491.307L247.228 498.594C246.303 499.133 245.21 499.305 244.165 499.076C243.12 498.847 242.199 498.233 241.585 497.357C240.971 496.481 240.708 495.406 240.849 494.346C240.99 493.285 241.525 492.316 242.347 491.631L257.707 478.72L239.59 489.173C238.704 489.675 237.668 489.843 236.669 489.647C235.67 489.452 234.774 488.905 234.143 488.107C233.511 487.309 233.186 486.311 233.226 485.293C233.265 484.276 233.668 483.307 234.359 482.56L253.559 462.191L229.094 476.305C228.223 476.808 227.201 476.987 226.21 476.81C225.219 476.633 224.323 476.112 223.679 475.337C223.036 474.563 222.687 473.587 222.694 472.58C222.701 471.573 223.064 470.602 223.718 469.837L232.064 460.075L221.039 466.432C220.301 466.855 219.454 467.048 218.606 466.986C217.758 466.925 216.948 466.611 216.279 466.086C215.611 465.56 215.114 464.847 214.854 464.037C214.594 463.228 214.581 462.359 214.818 461.542L217.327 453.009L216.474 453.504C215.494 454.061 214.334 454.208 213.247 453.913C212.16 453.617 211.233 452.904 210.67 451.928C210.106 450.953 209.952 449.794 210.24 448.704C210.528 447.615 211.235 446.684 212.207 446.114L222.293 440.294C223.031 439.871 223.878 439.678 224.726 439.74C225.574 439.802 226.384 440.115 227.053 440.641C227.722 441.166 228.218 441.88 228.478 442.689C228.738 443.499 228.751 444.367 228.514 445.184L226.005 453.717L249.301 440.32C250.172 439.822 251.191 439.646 252.178 439.824C253.165 440.002 254.059 440.523 254.7 441.294C255.342 442.065 255.692 443.038 255.687 444.041C255.683 445.044 255.326 446.014 254.677 446.78L246.315 456.568L274.475 440.354C275.361 439.853 276.397 439.685 277.396 439.88C278.395 440.076 279.291 440.622 279.922 441.421C280.554 442.219 280.879 443.217 280.839 444.234C280.8 445.251 280.397 446.221 279.706 446.968L260.506 467.337L295.671 447.036C296.594 446.508 297.681 446.344 298.719 446.576C299.756 446.808 300.67 447.419 301.281 448.289C301.891 449.159 302.155 450.226 302.021 451.281C301.886 452.335 301.362 453.302 300.553 453.99L284.911 467.115C285.826 466.792 286.824 466.79 287.741 467.111C288.657 467.432 289.436 468.055 289.95 468.878C290.464 469.702 290.682 470.676 290.568 471.64C290.454 472.603 290.015 473.5 289.323 474.18L269.483 493.807C269.533 493.878 269.579 493.952 269.619 494.029C270.182 495.008 270.334 496.171 270.041 497.261C269.749 498.352 269.035 499.283 268.058 499.849L256.35 506.607C255.699 506.973 254.963 507.159 254.217 507.145Z" fill="#7AD4EC"/>
<path d="M57.5403 421.888C56.7755 421.887 56.0251 421.681 55.3674 421.291C54.7097 420.901 54.169 420.341 53.8018 419.67C53.4345 419 53.2543 418.242 53.28 417.478C53.3057 416.714 53.5363 415.971 53.9477 415.326L54.9717 413.713L51.0293 415.991C50.1926 416.474 49.2172 416.658 48.2624 416.513C47.3075 416.369 46.4299 415.905 45.7728 415.198C45.1143 414.49 44.716 413.579 44.6431 412.614C44.5702 411.65 44.8271 410.689 45.3717 409.89L53.9051 397.329L38.8352 406.05C37.9419 406.565 36.8923 406.74 35.8805 406.541C34.8687 406.342 33.9632 405.783 33.3314 404.968C32.6997 404.153 32.3844 403.137 32.444 402.108C32.5035 401.078 32.9339 400.105 33.6555 399.369L43.0421 389.777L28.8683 397.952C27.9605 398.445 26.9047 398.592 25.8967 398.366C24.8887 398.14 23.9971 397.555 23.3873 396.721C22.7776 395.888 22.491 394.861 22.5809 393.832C22.6709 392.802 23.1311 391.841 23.8763 391.125L35.3536 380.732L19.1403 390.118C18.2313 390.654 17.156 390.834 16.1221 390.623C15.0883 390.413 14.1691 389.826 13.5422 388.978C12.9152 388.129 12.625 387.078 12.7275 386.028C12.8299 384.978 13.3179 384.003 14.0971 383.292L36.992 361.958L11.2469 376.755C10.3111 377.279 9.21226 377.432 8.16918 377.182C7.12609 376.932 6.21528 376.299 5.61811 375.408C5.02093 374.517 4.7812 373.434 4.94665 372.374C5.1121 371.315 5.67059 370.356 6.51092 369.69L38.7328 344.747C38.4682 343.83 38.5186 342.851 38.8759 341.966C39.2333 341.081 39.8769 340.342 40.704 339.866L58.1888 329.762C59.1265 329.212 60.2388 329.041 61.2986 329.283C62.3584 329.525 63.2857 330.163 63.8913 331.066C64.4968 331.969 64.7349 333.069 64.5568 334.141C64.3788 335.213 63.7981 336.177 62.9333 336.836L61.8496 337.69L65.1435 335.804C66.0524 335.268 67.1277 335.088 68.1616 335.299C69.1954 335.509 70.1146 336.096 70.7415 336.944C71.3685 337.793 71.6587 338.844 71.5562 339.894C71.4538 340.944 70.9658 341.919 70.1867 342.63L47.2917 363.981L65.8859 353.28C66.7936 352.787 67.8494 352.64 68.8574 352.866C69.8654 353.092 70.757 353.677 71.3668 354.511C71.9765 355.345 72.2631 356.371 72.1732 357.4C72.0832 358.43 71.623 359.391 70.8779 360.107L59.3835 370.509L65.8859 366.754C66.78 366.239 67.8307 366.065 68.8433 366.264C69.8559 366.464 70.7617 367.024 71.393 367.841C72.0242 368.658 72.338 369.675 72.2762 370.706C72.2144 371.736 71.7813 372.709 71.0571 373.444L61.6704 383.036L65.9371 380.595C66.7736 380.115 67.7482 379.932 68.702 380.076C69.6558 380.221 70.5325 380.685 71.1889 381.392C71.8453 382.099 72.2428 383.007 72.3165 383.969C72.3902 384.931 72.1357 385.889 71.5947 386.688L63.0613 399.241L65.9712 397.534C66.797 397.064 67.7559 396.883 68.6961 397.02C69.6363 397.157 70.5038 397.604 71.1613 398.29C71.8187 398.976 72.2285 399.861 72.3255 400.806C72.4226 401.752 72.2014 402.702 71.6971 403.507L68.7616 408.09C69.511 408.384 70.1617 408.885 70.6384 409.534C71.1151 410.183 71.3984 410.954 71.4556 411.757C71.5127 412.561 71.3413 413.364 70.9612 414.074C70.5811 414.784 70.0079 415.372 69.3077 415.77L59.7589 421.282C59.0907 421.688 58.322 421.898 57.5403 421.888Z" fill="#7AD4EC"/>
<path d="M445.235 417.357C444.35 417.354 443.488 417.077 442.768 416.563C442.048 416.048 441.505 415.323 441.215 414.487C440.926 413.651 440.903 412.745 441.151 411.895C441.399 411.046 441.905 410.294 442.598 409.745L451.029 403.098L446.123 405.931C445.22 406.474 444.148 406.664 443.114 406.465C442.079 406.265 441.155 405.69 440.519 404.85C439.884 404.01 439.581 402.964 439.671 401.914C439.76 400.864 440.234 399.885 441.003 399.164L460.365 380.518L446.08 388.762C445.204 389.264 444.179 389.439 443.186 389.256C442.193 389.074 441.297 388.545 440.657 387.764C440.017 386.983 439.675 386 439.692 384.991C439.708 383.981 440.082 383.01 440.747 382.251L455.373 365.619L446.08 370.978C445.18 371.497 444.123 371.67 443.105 371.464C442.087 371.259 441.179 370.69 440.551 369.863C439.923 369.036 439.618 368.008 439.693 366.972C439.768 365.937 440.219 364.964 440.96 364.237L443.588 361.677C442.91 361.622 442.255 361.405 441.677 361.045C441.1 360.685 440.617 360.192 440.269 359.608C439.92 359.023 439.717 358.364 439.675 357.685C439.634 357.005 439.755 356.326 440.03 355.703L445.534 343.074C444.548 343.233 443.538 343.042 442.679 342.533C441.82 342.024 441.167 341.23 440.833 340.289C440.499 339.348 440.506 338.32 440.852 337.384C441.198 336.447 441.861 335.662 442.726 335.164L452.309 329.626C453.087 329.177 453.987 328.986 454.88 329.078C455.773 329.171 456.614 329.543 457.283 330.142C457.953 330.74 458.416 331.534 458.608 332.412C458.8 333.289 458.71 334.204 458.351 335.027L453.035 347.23L466.483 339.465C467.383 338.946 468.441 338.773 469.458 338.978C470.476 339.184 471.384 339.753 472.013 340.58C472.641 341.407 472.946 342.435 472.87 343.47C472.795 344.506 472.344 345.479 471.603 346.206L471.159 346.641L473.574 345.25C474.45 344.748 475.476 344.573 476.469 344.755C477.462 344.938 478.358 345.467 478.997 346.248C479.637 347.029 479.979 348.011 479.963 349.021C479.946 350.03 479.573 351.001 478.908 351.761L464.282 368.393L486.4 355.661C487.303 355.117 488.374 354.927 489.409 355.127C490.443 355.326 491.367 355.902 492.003 356.742C492.639 357.582 492.941 358.628 492.852 359.677C492.763 360.727 492.288 361.707 491.52 362.428L472.149 381.073L498.458 365.892C499.391 365.358 500.491 365.195 501.539 365.437C502.587 365.679 503.505 366.308 504.109 367.198C504.713 368.088 504.959 369.173 504.797 370.236C504.635 371.299 504.078 372.262 503.236 372.932L494.805 379.554L498.688 377.327C499.663 376.817 500.798 376.703 501.854 377.01C502.911 377.316 503.809 378.02 504.36 378.972C504.91 379.925 505.072 381.054 504.81 382.123C504.548 383.192 503.883 384.118 502.955 384.708L447.403 416.785C446.746 417.169 445.996 417.367 445.235 417.357Z" fill="#7AD4EC"/>
<path d="M437.606 411.682C438.262 414.76 440.038 417.485 442.589 419.328C445.14 421.172 448.285 422.002 451.413 421.658C459.44 420.379 466.781 416.374 472.2 410.317L498.074 389.222C500.343 387.371 502.716 385.604 504.9 383.65C506.251 382.649 507.365 381.362 508.162 379.881C508.96 378.4 509.421 376.762 509.513 375.083C509.605 373.404 509.326 371.725 508.695 370.166C508.065 368.607 507.098 367.206 505.864 366.063L468.659 335.718C467.081 334.438 465.545 333.073 463.881 331.895C460.809 330.056 457.269 329.15 453.691 329.288C450.114 329.426 446.654 330.602 443.733 332.672C436.907 337.203 437.564 343.637 437.564 350.703V372.89H342.588C337.941 373.508 333.218 372.639 329.097 370.406C326.399 368.286 324.313 365.488 323.051 362.298C321.788 359.107 321.395 355.639 321.911 352.247V284.356C332.155 275.514 340.503 264.689 346.453 252.535C367.37 259.946 390.091 260.574 411.386 254.33C432.68 248.085 451.464 235.287 465.067 217.754C478.734 199.183 485.256 176.312 483.439 153.326C481.621 130.34 471.585 108.778 455.168 92.5867C437.257 75.6344 413.65 65.9997 388.992 65.5787C380.988 35.0635 348.544 25.088 321.758 36.3179C267.349 -20.3435 166.28 8.11519 149.64 84.4288C103.04 76.3904 53.2138 99.7205 34.8586 144.956C30.2197 156.793 27.9776 169.433 28.2626 182.143C28.5475 194.853 31.3537 207.38 36.5185 218.997C41.6832 230.614 49.1035 241.09 58.349 249.817C67.5944 258.543 78.4808 265.347 90.3765 269.833C116.735 279.06 145.678 277.455 170.854 265.37C176.189 273.508 182.689 280.82 190.148 287.07C190.148 287.138 190.088 287.198 190.088 287.266V350.08C190.473 354.543 190.286 359.036 189.534 363.452C189.055 366.169 187.531 368.591 185.289 370.199C183.046 371.806 180.263 372.472 177.536 372.053H74.4448C74.4448 366.396 74.4448 360.738 74.4448 355.081C74.9402 349.499 74.8715 343.881 74.24 338.313C73.2937 335.361 71.3216 332.845 68.6808 331.222C66.0401 329.599 62.9053 328.975 59.8442 329.463C55.1207 329.88 50.6454 331.763 47.0442 334.848C33.5872 345.6 20.3008 356.693 6.93756 367.548C5.61964 368.546 4.53735 369.821 3.76738 371.284C2.99741 372.747 2.5586 374.361 2.48206 376.013C2.40552 377.664 2.69312 379.312 3.32447 380.84C3.95582 382.368 4.91548 383.738 6.13542 384.853C7.64582 386.219 9.31836 387.413 10.897 388.727L33.7578 407.373C38.4652 411.608 43.39 415.596 48.512 419.319C50.9599 420.786 53.734 421.622 56.585 421.752C59.4359 421.882 62.2745 421.301 64.8456 420.063C67.4167 418.824 69.6399 416.966 71.3153 414.656C72.9908 412.346 74.0662 409.655 74.4448 406.827C74.5386 397.525 74.4448 388.233 74.4448 378.931H155.964C167.91 378.931 182.75 381.03 193.101 373.931C205.978 365.099 202.445 346.411 202.445 332.868V295.851C216.795 304.458 233.098 309.277 249.822 309.854V439.68C246.408 439.68 242.995 439.757 239.582 439.757C233.873 439.757 227.883 439.253 222.182 439.834C210.475 441.028 202.778 452.753 210.654 462.583C221.44 476.041 232.456 489.327 243.362 502.69C246.268 505.506 250.088 507.184 254.127 507.421C258.166 507.657 262.155 506.436 265.37 503.979C267.396 502.34 269.187 500.43 270.694 498.304L288.614 476.297C292.924 471.014 297.318 465.783 301.551 460.433C303.182 458.57 304.223 456.264 304.54 453.809C304.858 451.353 304.438 448.858 303.334 446.641C302.23 444.425 300.491 442.587 298.34 441.361C296.188 440.135 293.721 439.577 291.251 439.757C281.583 439.467 271.889 439.501 262.187 439.586V309.53C263.415 309.427 264.636 309.367 265.856 309.222C281.406 307.31 296.335 301.955 309.555 293.547V352.674C308.774 358.48 309.792 364.387 312.474 369.596C319.761 380.595 335.232 378.044 346.607 378.044H437.547V406.042C437.456 407.921 437.476 409.805 437.606 411.682ZM62.0885 351.872V402.654C62.0885 404.924 62.1568 407.202 62.0885 409.481V410.692C61.9996 411.64 61.7515 412.566 61.3546 413.431C61.119 413.882 60.7833 414.274 60.3733 414.575C59.0657 413.813 57.8366 412.925 56.704 411.921L49.2117 405.811L26.1717 387.038C21.7514 383.428 9.61702 376.115 16.8362 369.468L49.7408 342.639L56.5674 337.05C56.7893 336.862 57.0453 336.64 57.3184 336.435C57.8645 336.759 59.025 337.22 59.3664 337.51C63.232 340.548 62.0885 347.494 62.0885 351.872ZM257.391 499.499C257.741 499.678 257.672 499.499 257.391 499.499ZM279.245 447.701C283.511 447.701 289.638 446.353 291.78 451.115C294.238 456.585 288.7 460.954 285.355 465.05L266.581 488.03L259.464 496.768C258.97 497.365 258.415 497.954 257.971 498.594C257.751 498.894 257.493 499.163 257.203 499.396L257.101 499.337C256.233 498.832 255.426 498.231 254.694 497.545L227.866 464.64C225.058 461.227 218.88 455.885 219.648 450.987C219.793 450.022 220.868 448.759 220.928 447.974C220.936 447.893 220.954 447.813 220.979 447.736H221.338H228.437L279.245 447.701ZM263.296 304.247C262.443 304.247 261.547 304.171 260.668 304.188C259.529 303.935 258.353 303.906 257.203 304.102C242.075 303.546 227.317 299.268 214.237 291.647C201.157 284.026 190.157 273.298 182.212 260.412C190.991 254.949 198.841 248.118 205.466 240.179C206.14 239.326 206.942 238.473 206.626 237.278C206.415 236.773 206.079 236.331 205.649 235.993C205.218 235.656 204.709 235.434 204.169 235.349C202.631 235.011 201.035 235.047 199.515 235.454C197.994 235.861 196.593 236.627 195.43 237.687C191.92 241.945 188.04 245.883 183.834 249.455L182.323 250.701C182.076 250.897 181.837 251.102 181.589 251.29H181.547C180.449 252.126 179.337 252.942 178.21 253.739C175.878 255.371 173.483 256.887 171.025 258.287C170.289 258.75 169.686 259.397 169.276 260.164C114.987 288.529 49.5872 249.924 41.2757 190.72C39.4173 177.49 40.4376 164.014 44.2668 151.215C48.0959 138.415 54.6436 126.593 63.4624 116.557C73.9622 104.643 87.6516 95.9829 102.914 91.5979C118.177 87.2129 134.376 87.2866 149.598 91.8101C149.879 91.8718 150.164 91.9146 150.451 91.9381C158.57 94.3553 166.291 97.946 173.372 102.596C174.361 103.04 175.458 103.186 176.529 103.014C178.176 102.888 179.797 102.526 181.342 101.939C182.016 101.675 186.871 99.584 185.011 98.3552C177.573 93.5028 169.474 89.7493 160.964 87.2107C163.245 71.7832 169.454 57.2011 178.993 44.864C188.533 32.5269 201.084 22.8491 215.441 16.7595C249.446 3.34505 287.369 16.0597 311.467 42.0437C302.321 48.5899 295.893 58.2631 293.402 69.2309C292.89 71.6288 297.19 71.2448 298.522 71.0144C300.163 70.7761 301.753 70.2626 303.223 69.4955C304.077 69.0347 305.459 68.3179 305.681 67.3024C306.781 61.9697 308.905 56.9012 311.936 52.3776C313.45 50.1788 315.164 48.1248 317.056 46.2421L317.798 45.5253L318.293 45.0731L318.805 44.6379L319.599 43.9893C320.64 43.136 321.724 42.4021 322.833 41.6768C346.078 28.7488 371.302 46.3019 376.951 69.9648C378.104 75.6086 378.063 81.4311 376.832 87.0581C375.6 92.6852 373.205 97.9925 369.8 102.639C368.205 104.798 371.217 105.259 372.855 105.156C374.507 105.064 376.134 104.713 377.677 104.115C378.968 103.734 380.142 103.032 381.09 102.076C387.659 93.3632 390.84 82.5619 390.042 71.68C413.953 74.7076 435.764 86.8733 450.904 105.627C466.043 124.381 473.336 148.267 471.253 172.279C470.08 184.768 466.363 196.883 460.331 207.881C454.3 218.879 446.081 228.526 436.181 236.228C423.979 245.336 409.524 250.943 394.372 252.447C379.22 253.95 363.945 251.293 350.191 244.762C353.036 237.131 354.889 229.167 355.703 221.065C355.976 218.377 352.29 218.197 350.387 218.505C348.732 218.695 347.135 219.233 345.702 220.083C344.849 220.646 343.458 221.534 343.347 222.643C342.521 231.177 340.54 239.559 337.459 247.561C337.459 247.637 337.51 247.689 337.459 247.765C331.768 263.27 321.762 276.825 308.623 286.833C295.483 296.84 279.756 302.882 263.296 304.247ZM454.204 414.78C454.11 414.899 453.692 415.104 454.204 414.78ZM454.733 414.566C455.177 414.729 455.151 414.49 454.733 414.566ZM449.92 341.18C450.057 339.523 450.587 337.923 451.464 336.512C452.098 336.762 452.708 337.064 453.291 337.417C454.801 338.432 456.166 339.755 457.557 340.907L494.37 370.918C495.21 371.555 495.895 372.374 496.372 373.313C496.849 374.253 497.106 375.289 497.124 376.343C497.142 377.396 496.921 378.44 496.476 379.396C496.031 380.351 495.376 381.193 494.558 381.858C492.757 383.386 490.889 384.845 489.054 386.338L468.403 403.183L459.162 410.709C457.451 411.764 455.87 413.016 454.451 414.438H454.374C453.181 413.892 452.147 413.05 451.371 411.991C450.596 410.931 450.105 409.691 449.946 408.388C449.877 407.166 449.877 405.941 449.946 404.719V355.302C449.92 350.618 449.707 345.865 449.92 341.188V341.18Z" fill="#8E8E8E"/>
<path d="M90.0522 147.908L90.0608 147.9L90.0352 147.908H90.0522Z" fill="#262626"/>
<path d="M90.0522 147.908C90.7264 147.908 89.6085 148.173 90.0522 147.908Z" fill="#262626"/>
<path d="M76.8682 149.683C74.8639 151.525 73.2713 153.769 72.1948 156.269C71.1184 158.769 70.5823 161.468 70.6218 164.19V175.761C70.1326 180.39 70.899 185.065 72.8405 189.295C74.5665 192.158 76.9923 194.535 79.8898 196.202C82.7872 197.87 86.0611 198.773 89.4037 198.827C90.0153 198.956 90.6387 199.022 91.264 199.023C92.0983 199.008 92.9296 198.917 93.7472 198.75C100.867 198.284 107.551 195.156 112.469 189.986C115.65 186.188 117.305 181.343 117.111 176.393V164.036C117.478 159.807 116.653 155.559 114.731 151.774C106.871 138.556 87.1082 140.356 76.8682 149.683ZM97.7749 193.476H97.7066C97.9968 193.399 98.1333 193.425 97.7749 193.476ZM104.311 184.303C103.675 187.048 102.282 189.561 100.292 191.556C99.5084 192.35 98.5895 192.997 97.5786 193.468H96.913C97.3568 193.468 95.9061 193.391 95.7184 193.365C95.1873 193.286 94.6626 193.169 94.1482 193.015C92.926 192.676 91.7571 192.167 90.6752 191.505C88.4185 190.14 86.5383 188.234 85.2053 185.958C83.5753 182.837 82.8065 179.338 82.9781 175.821V165.129C82.7825 162.197 83.0008 159.252 83.6266 156.382C84.2685 154.098 85.4376 151.996 87.04 150.246C87.6632 149.547 88.3679 148.926 89.1392 148.395C89.4441 148.212 89.7605 148.05 90.0864 147.908C89.9157 147.908 89.8304 147.908 90.0864 147.908L90.3082 147.789C90.2407 147.822 90.1752 147.859 90.112 147.9H90.752C90.8885 147.9 91.9125 147.959 92.0661 147.985C93.0387 148.135 93.9917 148.393 94.9077 148.753C97.4082 149.755 99.605 151.39 101.282 153.498C104.813 159.924 106.056 167.359 104.806 174.583C105.026 177.837 104.86 181.105 104.311 184.32V184.303Z" fill="#262626"/>
<path d="M164.403 192.239H159.838V144.512C159.838 138.692 151.023 140.919 148.48 143.454C145.636 146.298 142.791 149.143 139.947 151.987C139.507 152.388 139.187 152.902 139.02 153.473C138.853 154.043 138.846 154.649 139 155.224C139.154 155.798 139.463 156.319 139.894 156.729C140.324 157.14 140.859 157.424 141.44 157.551C143.412 158.104 145.517 157.919 147.362 157.03V192.239C145.694 192.178 144.033 192.487 142.498 193.143C141.163 193.679 140.03 194.619 139.255 195.831C138.966 196.287 138.824 196.82 138.849 197.359C138.873 197.898 139.063 198.416 139.392 198.844C139.837 199.299 140.368 199.661 140.954 199.91C141.539 200.159 142.169 200.29 142.805 200.294H150.562C151.355 200.486 152.172 200.555 152.986 200.499C153.259 200.499 153.651 200.363 153.993 200.294H159.872C161.54 200.355 163.201 200.046 164.736 199.39C166.069 198.851 167.202 197.912 167.979 196.702C168.268 196.246 168.41 195.713 168.385 195.174C168.361 194.635 168.171 194.117 167.842 193.69C167.394 193.231 166.859 192.867 166.269 192.618C165.678 192.369 165.044 192.24 164.403 192.239Z" fill="#262626"/>
<path d="M187.93 149.333C185.886 151.218 184.263 153.512 183.165 156.066C182.066 158.62 181.518 161.376 181.555 164.156V175.727C181.066 180.356 181.832 185.031 183.774 189.261C185.518 192.195 187.979 194.638 190.925 196.361C193.871 198.085 197.206 199.033 200.619 199.117C201.161 199.242 201.717 199.305 202.274 199.305C203.134 199.288 203.991 199.194 204.834 199.023C211.942 198.543 218.601 195.373 223.454 190.157C226.634 186.297 228.272 181.397 228.053 176.401V164.036C228.415 159.807 227.591 155.56 225.673 151.774C217.865 138.59 198.187 139.776 187.93 149.333ZM215.236 184.201C214.607 186.935 213.202 189.429 211.191 191.386C210.826 191.719 210.438 192.027 210.031 192.307C210.125 192.239 208.393 193.314 209.178 192.87C209.03 192.943 208.895 193.038 208.777 193.152C208.604 193.132 208.429 193.132 208.256 193.152C209.195 193.024 207.403 193.152 207.403 193.152C205.088 192.951 202.858 192.185 200.907 190.922C198.957 189.659 197.346 187.937 196.215 185.907C194.568 182.792 193.798 179.288 193.988 175.77V165.129C193.79 162.226 194.006 159.309 194.628 156.467C195.253 154.199 196.425 152.118 198.042 150.409C198.685 149.763 199.397 149.191 200.166 148.702C201.199 148.079 200.781 148.335 200.542 148.48L201.071 148.275H201.173C203.307 148.263 205.415 148.738 207.338 149.663C209.26 150.589 210.946 151.941 212.267 153.617C215.791 160.014 217.025 167.423 215.765 174.618C215.967 177.828 215.786 181.05 215.228 184.218L215.236 184.201Z" fill="#262626"/>
<path d="M414.08 199.373C414.601 199.509 415.138 199.572 415.676 199.561C416.556 199.545 417.433 199.448 418.295 199.27C425.391 198.778 432.023 195.568 436.813 190.31C439.999 186.403 441.626 181.454 441.378 176.418V164.036C441.722 159.808 440.898 155.566 438.997 151.774C431.394 138.564 411.597 139.324 401.391 148.992C399.305 150.926 397.648 153.277 396.528 155.892C395.408 158.507 394.849 161.328 394.889 164.173V175.744C394.413 180.372 395.179 185.044 397.107 189.278C398.856 192.255 401.329 194.741 404.296 196.506C407.264 198.271 410.629 199.257 414.08 199.373ZM407.253 165.129C407.061 162.25 407.282 159.359 407.91 156.544C408.534 154.3 409.707 152.247 411.324 150.571C411.966 149.932 412.692 149.384 413.483 148.941C414.575 148.318 414.097 148.617 413.858 148.745L414.285 148.574L414.532 148.506C416.638 148.439 418.731 148.867 420.641 149.757C422.552 150.646 424.227 151.971 425.532 153.626C429.046 159.998 430.275 167.382 429.013 174.549C429.235 177.751 429.074 180.968 428.535 184.132C427.94 186.681 426.649 189.014 424.806 190.874C424.34 191.332 423.835 191.749 423.296 192.119C423.629 191.898 421.504 193.075 422.391 192.606C422.237 192.68 422.091 192.772 421.956 192.879C421.792 192.859 421.626 192.859 421.461 192.879C422.391 192.751 420.651 192.879 420.608 192.93C418.324 192.768 416.116 192.044 414.181 190.821C412.245 189.599 410.642 187.917 409.515 185.924C407.854 182.814 407.083 179.306 407.287 175.787L407.253 165.129Z" fill="#262626"/>
<path d="M270.754 193.707V144.435C270.754 138.906 261.82 141.321 259.473 143.667L250.94 152.201C250.507 152.556 250.187 153.028 250.016 153.56C249.845 154.093 249.831 154.663 249.976 155.203C250.121 155.744 250.418 156.231 250.833 156.606C251.248 156.982 251.762 157.23 252.314 157.321C254.317 157.789 256.42 157.573 258.287 156.706V193.86C257.329 193.9 256.375 194.02 255.437 194.219C253.944 194.572 252.52 195.169 251.221 195.985C250.667 196.378 249.566 197.069 249.796 197.897C250.027 198.724 251.392 198.844 251.989 198.844H259.055C259.699 199.405 260.458 199.818 261.28 200.051C262.102 200.284 262.965 200.332 263.808 200.192C265.298 199.994 266.742 199.538 268.075 198.844H269.039C270.566 198.851 272.086 198.656 273.562 198.263C275.054 197.91 276.478 197.313 277.777 196.497C278.332 196.105 279.433 195.413 279.202 194.586C278.972 193.758 277.606 193.638 277.009 193.638L270.754 193.707Z" fill="#262626"/>
<path d="M318.123 200.465H322.048C323.713 200.559 325.378 200.267 326.912 199.612C328.252 199.053 329.379 198.081 330.129 196.838C330.416 196.352 330.552 195.792 330.52 195.228C330.488 194.665 330.29 194.123 329.95 193.673C329.508 193.19 328.974 192.803 328.378 192.533C327.783 192.263 327.139 192.116 326.485 192.102H322.014V144.666C321.989 143.545 321.542 142.476 320.762 141.672C319.982 140.868 318.926 140.389 317.807 140.331C316.463 140.172 315.1 140.335 313.831 140.807C312.563 141.279 311.425 142.046 310.511 143.044L301.978 151.578C301.539 152.066 301.229 152.655 301.076 153.293C300.923 153.932 300.931 154.598 301.101 155.232C301.27 155.866 301.595 156.447 302.046 156.924C302.498 157.4 303.061 157.757 303.684 157.961C304.618 158.303 305.612 158.449 306.605 158.389C307.598 158.329 308.567 158.064 309.453 157.611V192.068C307.787 191.974 306.123 192.266 304.589 192.922C303.249 193.48 302.122 194.452 301.372 195.695C301.085 196.181 300.948 196.741 300.98 197.305C301.012 197.869 301.211 198.41 301.551 198.861C301.992 199.343 302.527 199.731 303.122 200.001C303.718 200.27 304.362 200.417 305.015 200.431H312.132C314.058 201.172 316.188 201.184 318.123 200.465Z" fill="#262626"/>
<path d="M360.738 192.495C359.072 192.461 357.418 192.777 355.883 193.425C354.562 193.933 353.424 194.825 352.614 195.985C352.319 196.394 352.166 196.889 352.18 197.393C352.194 197.898 352.373 198.383 352.691 198.775C353.618 199.631 354.844 200.088 356.104 200.047H373.171C374.837 200.081 376.491 199.764 378.027 199.117C379.347 198.609 380.485 197.717 381.295 196.557C381.591 196.148 381.743 195.653 381.729 195.149C381.716 194.644 381.536 194.158 381.218 193.766C380.291 192.911 379.065 192.454 377.805 192.495H373.137V144.341C373.137 139.221 364.075 141.781 361.95 143.915C359.105 146.759 356.261 149.604 353.417 152.448C351.582 154.291 352.068 156.459 354.662 157.09C356.715 157.48 358.838 157.233 360.747 156.382V192.495H360.738Z" fill="#262626"/>
</svg>
