<svg width="661" height="661" viewBox="0 0 661 661" fill="none" xmlns="http://www.w3.org/2000/svg">
<g clip-path="url(#clip0_1333_673)">
<path d="M268.274 46.0676C414.234 6.51766 613.867 102.568 620.459 266.417C628.934 257.001 638.35 248.526 647.767 240.051C655.3 233.459 665.659 240.051 663.775 249.467C657.184 297.492 628.934 338.926 597.859 375.649C595.034 379.417 586.559 379.417 583.734 375.649C555.484 339.866 547.009 295.607 542.3 252.292C541.359 244.759 551.717 240.051 557.367 243.817C569.609 252.292 585.617 258.884 598.8 268.301C585.617 194.851 551.717 140.234 484.859 99.7425C420.826 61.1343 343.609 53.6009 270.158 59.2509C262.626 60.1926 261.683 47.9509 268.274 46.0676ZM639.292 270.184C632.7 275.834 627.05 280.542 620.459 286.192C619.517 287.134 618.575 287.134 617.634 288.076C616.692 289.017 614.809 289.959 612.925 290.901C611.042 294.667 606.334 297.492 601.625 293.726C589.384 286.192 577.142 278.659 564.9 271.126C569.609 299.376 576.2 328.567 592.209 352.109C611.984 327.626 629.875 300.317 639.292 270.184Z" fill="#7AD4EC"/>
<path d="M14.9677 442.509C64.876 457.574 113.843 476.407 165.634 486.767C174.109 488.652 174.109 502.775 165.634 504.657C143.034 508.425 121.376 515.016 99.7176 518.785C130.793 543.269 158.101 564.927 196.709 579.992C241.909 596.942 289.934 603.535 337.959 601.65C439.659 598.825 529.117 545.149 556.425 444.391C558.309 437.8 569.609 438.741 568.667 446.275C557.367 550.8 465.084 610.125 367.151 621.425C283.341 630.843 151.509 613.892 89.3578 542.325C87.4744 562.1 80.8828 580.934 69.5828 597.885C64.8729 604.475 57.3411 604.475 52.6313 597.885C23.4396 555.509 16.848 502.777 3.66621 454.75C0.842754 447.219 7.43288 440.625 14.9677 442.509ZM70.526 524.434C70.526 522.549 71.4661 520.665 72.4093 518.784C67.701 509.366 79.001 502.775 86.5343 508.425L87.476 509.366C87.476 509.366 87.476 509.366 88.4176 509.366C101.599 505.6 114.784 500.891 127.966 497.125C94.0676 488.65 60.1677 476.407 26.2662 466.049C35.6828 502.775 42.2745 540.444 61.1094 573.402C66.7594 558.334 69.5843 542.324 70.526 524.434Z" fill="#7AD4EC"/>
<path d="M117.609 123.284C105.368 110.101 95.951 95.0342 79.9426 85.6176C72.4093 81.8509 73.3525 69.6092 82.7692 67.7259C127.027 57.3676 172.227 57.3676 216.484 57.3676C225.901 57.3676 228.726 67.7259 223.076 74.3176C193.884 109.159 172.226 148.709 151.509 189.201C146.799 197.676 132.676 193.909 132.676 184.492C133.618 169.426 131.734 155.301 130.793 140.234C49.8078 196.734 26.2662 300.317 21.5594 393.542C21.5594 402.017 10.2594 401.076 9.31773 393.542C-0.0989292 296.551 33.8011 179.784 117.609 123.284ZM135.499 113.868C136.441 114.809 137.383 114.809 137.383 115.751C140.208 116.693 142.093 119.518 143.034 121.401C143.974 122.343 144.918 123.284 144.918 125.168C145.859 133.643 147.743 143.059 148.684 151.534C162.809 125.168 177.876 99.7425 195.768 76.2009C166.576 76.2009 136.443 77.1426 108.193 81.8509C117.609 92.2092 126.083 103.509 135.499 113.868Z" fill="#7AD4EC"/>
<path d="M358.772 447.25C357.835 447.247 356.926 446.935 356.184 446.364C355.442 445.793 354.908 444.993 354.666 444.089C354.423 443.184 354.485 442.225 354.841 441.359C355.198 440.493 355.829 439.768 356.638 439.297L424.777 399.95C425.644 399.455 426.657 399.279 427.639 399.453C428.622 399.628 429.513 400.141 430.156 400.904C430.799 401.667 431.155 402.632 431.16 403.63C431.166 404.628 430.822 405.596 430.187 406.367L415.749 423.809L430.366 415.378C431.342 414.868 432.476 414.754 433.533 415.061C434.59 415.368 435.487 416.071 436.038 417.023C436.589 417.976 436.75 419.105 436.488 420.174C436.227 421.243 435.562 422.169 434.633 422.759L399.425 443.069C398.558 443.569 397.543 443.749 396.557 443.576C395.571 443.404 394.677 442.891 394.032 442.126C393.386 441.361 393.03 440.394 393.025 439.394C393.02 438.393 393.368 437.422 394.006 436.652L408.444 419.209L360.871 446.678C360.233 447.049 359.51 447.246 358.772 447.25Z" fill="#D3E3F2"/>
<path d="M292.835 216.014C292.051 216.016 291.281 215.802 290.61 215.396C289.939 214.989 289.393 214.405 289.032 213.709C288.671 213.012 288.51 212.229 288.565 211.446C288.62 210.664 288.89 209.911 289.345 209.272L298.732 196.003C298.038 195.661 297.45 195.137 297.032 194.487C296.613 193.836 296.379 193.084 296.354 192.311C296.329 191.538 296.515 190.773 296.892 190.098C297.269 189.422 297.822 188.862 298.493 188.476L308.733 182.571C309.576 182.085 310.559 181.901 311.521 182.051C312.482 182.2 313.364 182.674 314.019 183.393C314.675 184.112 315.065 185.033 315.124 186.005C315.184 186.976 314.91 187.938 314.348 188.732L307.564 198.29L332.865 183.706C333.351 183.422 333.888 183.236 334.445 183.16C335.003 183.084 335.57 183.118 336.114 183.262C336.658 183.406 337.168 183.656 337.615 183.998C338.062 184.34 338.437 184.766 338.718 185.254C338.999 185.741 339.182 186.279 339.254 186.837C339.327 187.395 339.288 187.962 339.141 188.505C338.993 189.048 338.74 189.557 338.395 190.001C338.05 190.446 337.621 190.818 337.132 191.096L294.969 215.476C294.317 215.839 293.581 216.024 292.835 216.014Z" fill="#D3E3F2"/>
<path d="M329.23 479.352C328.437 479.352 327.661 479.131 326.986 478.715C326.312 478.298 325.768 477.702 325.413 476.993C325.059 476.285 324.909 475.491 324.98 474.702C325.051 473.913 325.341 473.159 325.816 472.525L329.102 468.259L310.917 478.763C309.975 479.299 308.864 479.456 307.81 479.202C306.756 478.948 305.838 478.303 305.243 477.397C304.647 476.491 304.419 475.392 304.605 474.324C304.79 473.256 305.375 472.299 306.241 471.646L361.562 430.516L300.02 466.04C299.072 466.568 297.958 466.715 296.905 466.451C295.852 466.186 294.939 465.53 294.353 464.617C293.767 463.703 293.551 462.6 293.749 461.533C293.947 460.466 294.545 459.514 295.421 458.872L356.383 415.634L294.166 451.508C293.211 452.024 292.095 452.157 291.045 451.879C289.995 451.601 289.091 450.933 288.516 450.012C287.941 449.09 287.74 447.984 287.953 446.919C288.165 445.854 288.776 444.91 289.661 444.28L357.688 398.601L277.765 444.741C276.803 445.278 275.671 445.423 274.604 445.144C273.538 444.865 272.621 444.185 272.046 443.245C271.47 442.306 271.28 441.18 271.516 440.103C271.752 439.027 272.395 438.083 273.311 437.47L320.483 406.947L265.392 438.759C264.427 439.35 263.266 439.533 262.166 439.268C261.066 439.003 260.116 438.312 259.525 437.347C258.934 436.381 258.751 435.221 259.016 434.121C259.281 433.021 259.972 432.071 260.937 431.48L314.51 396.766L229.953 445.577C228.994 446.123 227.861 446.275 226.792 446.003C225.722 445.732 224.8 445.056 224.218 444.119C223.636 443.181 223.44 442.055 223.671 440.976C223.902 439.897 224.541 438.95 225.456 438.332L322.736 373.607L217.562 434.33C216.601 434.845 215.478 434.972 214.426 434.685C213.373 434.398 212.471 433.718 211.904 432.786C211.337 431.854 211.148 430.741 211.377 429.674C211.606 428.607 212.234 427.669 213.134 427.051L276.459 386.424L210.138 424.713C209.175 425.273 208.032 425.434 206.951 425.162C205.871 424.89 204.94 424.206 204.357 423.257C203.775 422.307 203.586 421.168 203.832 420.081C204.079 418.995 204.74 418.048 205.675 417.443L294.977 359.083L216.581 404.31C215.618 404.87 214.474 405.031 213.394 404.759C212.314 404.487 211.383 403.803 210.8 402.854C210.217 401.904 210.029 400.765 210.275 399.678C210.521 398.592 211.183 397.645 212.118 397.039L290.241 346.104L216.598 388.617C215.638 389.154 214.509 389.299 213.444 389.023C212.38 388.747 211.463 388.071 210.885 387.135C210.307 386.2 210.113 385.077 210.343 384.002C210.572 382.927 211.209 381.982 212.118 381.364L311.156 315.99L210.292 374.213C209.326 374.736 208.196 374.867 207.137 374.577C206.077 374.288 205.17 373.602 204.604 372.661C204.038 371.72 203.856 370.597 204.097 369.525C204.338 368.454 204.983 367.516 205.897 366.908L216.487 360.295L207.374 365.552C206.415 366.08 205.291 366.221 204.232 365.944C203.173 365.667 202.261 364.994 201.685 364.063C201.108 363.133 200.911 362.017 201.135 360.945C201.358 359.874 201.985 358.929 202.885 358.307L300.532 293.402L190.973 356.685C190.006 357.237 188.863 357.39 187.786 357.111C186.708 356.832 185.783 356.144 185.206 355.192C184.63 354.24 184.448 353.101 184.699 352.017C184.951 350.933 185.616 349.99 186.552 349.389L221.735 326.972L179.879 351.156C178.916 351.704 177.776 351.856 176.703 351.579C175.629 351.302 174.705 350.618 174.127 349.672C173.549 348.725 173.362 347.591 173.606 346.51C173.85 345.428 174.505 344.484 175.433 343.877L222.52 313.507L177.609 339.439C176.642 340.027 175.481 340.206 174.381 339.937C173.282 339.668 172.334 338.973 171.747 338.006C171.16 337.038 170.981 335.877 171.25 334.778C171.518 333.678 172.213 332.731 173.181 332.143L187.022 323.363L177.635 328.781C176.669 329.347 175.52 329.511 174.435 329.238C173.35 328.964 172.415 328.275 171.833 327.319C171.251 326.363 171.068 325.217 171.323 324.127C171.579 323.038 172.252 322.092 173.198 321.494L205.718 300.681C204.884 300.546 204.109 300.166 203.492 299.589C202.874 299.013 202.441 298.266 202.248 297.444C202.055 296.621 202.111 295.76 202.408 294.969C202.705 294.178 203.231 293.493 203.918 293.001L257.806 255.454L217.161 278.921C216.204 279.488 215.062 279.659 213.981 279.397C212.899 279.134 211.963 278.46 211.371 277.517C210.78 276.574 210.581 275.437 210.816 274.349C211.051 273.261 211.702 272.308 212.63 271.693L241.447 252.067L217.323 265.976C216.448 266.478 215.424 266.654 214.431 266.473C213.439 266.291 212.543 265.764 211.902 264.984C211.262 264.205 210.918 263.223 210.933 262.214C210.947 261.206 211.319 260.234 211.982 259.474L228.195 240.956L210.838 250.957C209.966 251.46 208.943 251.639 207.952 251.46C206.961 251.282 206.064 250.759 205.422 249.984C204.779 249.208 204.431 248.23 204.44 247.223C204.449 246.216 204.814 245.244 205.471 244.481L217.665 230.409C216.971 230.067 216.383 229.543 215.965 228.893C215.546 228.242 215.311 227.491 215.287 226.718C215.262 225.945 215.448 225.179 215.825 224.504C216.202 223.828 216.755 223.268 217.426 222.883L231.386 214.827C232.259 214.329 233.279 214.155 234.267 214.336C235.255 214.516 236.148 215.039 236.788 215.813C237.429 216.587 237.775 217.562 237.767 218.566C237.76 219.571 237.398 220.54 236.745 221.304L228.391 231.015L246.311 220.664C247.187 220.156 248.215 219.977 249.211 220.157C250.208 220.338 251.107 220.866 251.749 221.649C252.391 222.432 252.734 223.417 252.717 224.43C252.699 225.442 252.322 226.415 251.653 227.175L235.44 245.684L336.645 187.247C337.604 186.645 338.762 186.449 339.865 186.701C340.969 186.953 341.927 187.633 342.529 188.591C343.131 189.55 343.327 190.708 343.075 191.812C342.823 192.915 342.143 193.873 341.185 194.475L312.368 214.102L340.997 197.556C341.949 197.024 343.068 196.877 344.125 197.144C345.182 197.412 346.097 198.074 346.681 198.994C347.265 199.915 347.475 201.024 347.267 202.094C347.059 203.165 346.449 204.115 345.562 204.749L291.683 242.296L346.296 210.723C347.262 210.157 348.411 209.993 349.496 210.267C350.581 210.54 351.516 211.229 352.098 212.185C352.68 213.141 352.863 214.287 352.608 215.377C352.353 216.466 351.68 217.412 350.734 218.01L335.374 227.832L357.56 215.032C358.526 214.48 359.67 214.327 360.747 214.606C361.824 214.885 362.75 215.574 363.327 216.526C363.903 217.477 364.085 218.617 363.834 219.701C363.582 220.784 362.917 221.727 361.981 222.328L348.225 231.075L368.415 219.41C369.381 218.819 370.543 218.636 371.644 218.902C372.745 219.168 373.695 219.86 374.286 220.826C374.876 221.793 375.059 222.954 374.793 224.055C374.528 225.156 373.835 226.106 372.869 226.697L325.748 257.076L386.241 222.157C387.208 221.57 388.37 221.391 389.469 221.66C390.568 221.929 391.516 222.623 392.103 223.591C392.691 224.558 392.869 225.72 392.601 226.819C392.332 227.918 391.637 228.866 390.67 229.453L355.529 251.845L413.556 218.343C414.518 217.747 415.677 217.557 416.779 217.815C417.881 218.074 418.835 218.759 419.431 219.721C420.028 220.683 420.217 221.842 419.959 222.944C419.701 224.046 419.015 225 418.053 225.596L320.355 290.501L425.247 229.914C426.218 229.331 427.38 229.158 428.479 229.433C429.577 229.707 430.522 230.407 431.105 231.378C431.688 232.349 431.861 233.511 431.586 234.61C431.312 235.708 430.612 236.653 429.641 237.236L418.975 243.892L430.315 237.347C431.278 236.77 432.429 236.596 433.519 236.862C434.608 237.128 435.55 237.812 436.139 238.767C436.728 239.722 436.917 240.87 436.666 241.963C436.414 243.057 435.742 244.007 434.795 244.609L335.809 309.965L422.277 260.045C423.24 259.485 424.384 259.324 425.464 259.596C426.544 259.868 427.475 260.552 428.058 261.502C428.641 262.451 428.829 263.591 428.583 264.677C428.337 265.764 427.675 266.711 426.74 267.316L348.558 318.302L424.436 274.492C425.397 273.946 426.533 273.794 427.604 274.068C428.675 274.343 429.598 275.023 430.178 275.964C430.758 276.906 430.949 278.036 430.712 279.116C430.475 280.196 429.828 281.142 428.908 281.754L339.623 340.105L430.077 287.864C431.041 287.325 432.177 287.181 433.245 287.462C434.313 287.744 435.231 288.428 435.804 289.372C436.378 290.317 436.563 291.446 436.321 292.524C436.079 293.602 435.428 294.544 434.505 295.151L371.265 335.796L434.958 299.026C435.917 298.48 437.05 298.327 438.119 298.599C439.188 298.871 440.11 299.547 440.692 300.484C441.274 301.421 441.47 302.548 441.239 303.627C441.009 304.706 440.369 305.653 439.455 306.27L342.175 371.021L453.833 306.552C454.797 306.004 455.936 305.852 457.01 306.129C458.084 306.406 459.007 307.09 459.585 308.036C460.163 308.982 460.35 310.116 460.106 311.198C459.863 312.28 459.207 313.224 458.279 313.831L404.784 348.502L462.29 315.299C462.768 315.006 463.299 314.811 463.852 314.723C464.406 314.636 464.971 314.659 465.516 314.79C466.06 314.921 466.574 315.158 467.027 315.488C467.48 315.817 467.864 316.233 468.157 316.711C468.449 317.189 468.645 317.72 468.732 318.273C468.819 318.827 468.797 319.392 468.665 319.937C468.534 320.482 468.297 320.995 467.968 321.448C467.638 321.901 467.222 322.285 466.744 322.578L419.495 353.144L462.691 328.116C463.648 327.579 464.776 327.432 465.839 327.705C466.902 327.978 467.819 328.651 468.399 329.582C468.979 330.514 469.178 331.634 468.954 332.708C468.73 333.783 468.101 334.73 467.197 335.352L399.186 381.005L431.246 362.497C432.196 361.949 433.321 361.788 434.387 362.047C435.452 362.307 436.377 362.967 436.969 363.891C437.561 364.814 437.775 365.93 437.565 367.007C437.356 368.084 436.74 369.039 435.845 369.673L374.874 412.937L421.091 386.262C422.033 385.726 423.144 385.569 424.198 385.823C425.252 386.077 426.17 386.722 426.765 387.628C427.361 388.534 427.589 389.633 427.403 390.701C427.218 391.769 426.633 392.726 425.767 393.379L348.643 450.714C348.711 450.791 348.779 450.859 348.848 450.945C349.499 451.686 349.872 452.631 349.905 453.618C349.938 454.604 349.627 455.571 349.027 456.355L341.876 465.648C342.406 466.007 342.846 466.483 343.165 467.038C343.73 468.018 343.884 469.183 343.591 470.276C343.298 471.369 342.583 472.301 341.603 472.867L331.363 478.772C330.717 479.153 329.98 479.354 329.23 479.352Z" fill="#D3E3F2"/>
<path d="M319.459 419.952C318.577 419.953 317.717 419.681 316.996 419.173C316.275 418.665 315.729 417.947 315.434 417.116C315.138 416.285 315.107 415.383 315.345 414.534C315.583 413.685 316.078 412.931 316.762 412.374L358.891 378.147L295.617 414.67C295.142 414.967 294.613 415.167 294.06 415.26C293.507 415.352 292.942 415.335 292.396 415.209C291.293 414.955 290.337 414.273 289.737 413.313C289.138 412.354 288.944 411.195 289.198 410.092C289.452 408.99 290.134 408.033 291.094 407.434L300.481 401.128L284.267 410.472C283.323 411.017 282.204 411.18 281.143 410.927C280.082 410.674 279.157 410.024 278.561 409.11C277.964 408.197 277.74 407.089 277.935 406.015C278.13 404.942 278.729 403.983 279.608 403.338L338.07 360.466L268.728 400.505C267.774 401.06 266.643 401.224 265.57 400.962C264.498 400.7 263.569 400.033 262.979 399.101C262.388 398.169 262.181 397.044 262.402 395.963C262.623 394.882 263.254 393.928 264.163 393.302L313.656 358.981L258.872 390.606C257.926 391.136 256.813 391.286 255.76 391.025C254.707 390.765 253.793 390.112 253.203 389.201C252.614 388.29 252.394 387.189 252.588 386.122C252.782 385.054 253.375 384.101 254.247 383.455L321.285 335.318L249.11 376.987C248.149 377.533 247.013 377.685 245.942 377.411C244.871 377.136 243.948 376.456 243.368 375.515C242.788 374.573 242.597 373.443 242.834 372.363C243.071 371.283 243.718 370.337 244.639 369.725L258.036 360.961L244.69 368.641C243.741 369.182 242.62 369.339 241.559 369.079C240.498 368.819 239.577 368.161 238.987 367.242C238.396 366.323 238.18 365.213 238.384 364.139C238.588 363.066 239.195 362.112 240.082 361.473L301.658 317.714L239.365 353.665C238.408 354.202 237.28 354.349 236.217 354.076C235.154 353.803 234.237 353.13 233.657 352.199C233.077 351.267 232.878 350.147 233.102 349.073C233.326 347.998 233.955 347.051 234.859 346.429L261.782 328.355L238.025 342.068C237.068 342.614 235.938 342.768 234.87 342.499C233.802 342.23 232.88 341.558 232.296 340.625C231.712 339.691 231.511 338.568 231.736 337.49C231.961 336.412 232.594 335.463 233.503 334.841L255.28 320.155L237.599 330.395C236.649 330.952 235.521 331.121 234.45 330.865C233.379 330.61 232.448 329.951 231.852 329.025C231.256 328.1 231.041 326.979 231.251 325.899C231.462 324.818 232.082 323.861 232.982 323.227L269.718 296.91L239.519 314.344C238.584 314.874 237.483 315.033 236.436 314.787C235.389 314.541 234.474 313.908 233.873 313.017C233.273 312.125 233.031 311.039 233.196 309.977C233.362 308.914 233.922 307.953 234.766 307.286L269.59 280.15L248.786 292.157C247.856 292.692 246.758 292.858 245.711 292.62C244.664 292.382 243.746 291.758 243.139 290.873C242.531 289.988 242.28 288.907 242.435 287.845C242.589 286.782 243.139 285.818 243.973 285.142L260.809 271.489C260.261 271.134 259.805 270.655 259.478 270.09C258.912 269.11 258.759 267.945 259.052 266.852C259.345 265.759 260.06 264.827 261.04 264.261L291.76 246.555C292.69 246.019 293.788 245.854 294.834 246.092C295.881 246.33 296.799 246.953 297.407 247.838C298.014 248.723 298.265 249.805 298.111 250.867C297.956 251.929 297.407 252.894 296.572 253.569L291.452 257.716L318.657 242.006C319.594 241.448 320.709 241.269 321.773 241.507C322.838 241.745 323.771 242.382 324.38 243.287C324.99 244.191 325.23 245.295 325.051 246.371C324.872 247.447 324.288 248.413 323.418 249.072L288.602 276.2L341.509 245.633C342.459 245.076 343.587 244.907 344.658 245.162C345.729 245.418 346.659 246.077 347.256 247.003C347.852 247.928 348.067 249.048 347.856 250.129C347.646 251.21 347.026 252.167 346.126 252.801L309.321 279.109L356.954 251.606C357.913 251.051 359.049 250.89 360.124 251.158C361.199 251.425 362.128 252.1 362.714 253.04C363.3 253.979 363.498 255.11 363.265 256.193C363.033 257.276 362.389 258.226 361.468 258.843L339.691 273.503L366.81 257.844C367.769 257.289 368.905 257.128 369.98 257.395C371.055 257.663 371.984 258.338 372.57 259.278C373.156 260.217 373.354 261.348 373.121 262.431C372.889 263.514 372.245 264.464 371.324 265.081L344.393 283.163L375.651 265.115C376.602 264.548 377.736 264.373 378.813 264.627C379.89 264.881 380.827 265.543 381.425 266.475C382.023 267.406 382.236 268.534 382.018 269.619C381.801 270.704 381.17 271.662 380.259 272.291L318.682 316.05L386.343 276.985C387.306 276.425 388.45 276.263 389.53 276.536C390.61 276.808 391.541 277.491 392.124 278.441C392.707 279.39 392.895 280.53 392.649 281.616C392.403 282.703 391.741 283.65 390.806 284.255L377.358 293.044L391.403 284.938C392.352 284.388 393.475 284.224 394.541 284.48C395.606 284.736 396.533 285.393 397.127 286.314C397.722 287.234 397.94 288.348 397.735 289.425C397.531 290.502 396.919 291.459 396.028 292.097L329.025 340.217L398.145 300.289C399.099 299.734 400.23 299.57 401.302 299.832C402.375 300.094 403.304 300.76 403.894 301.693C404.485 302.625 404.692 303.749 404.471 304.831C404.25 305.912 403.619 306.865 402.71 307.491L353.217 341.821L401.43 313.985C402.375 313.439 403.493 313.276 404.554 313.529C405.616 313.783 406.54 314.433 407.137 315.347C407.733 316.26 407.957 317.368 407.763 318.441C407.568 319.515 406.969 320.473 406.089 321.119L347.61 363.99L402.292 332.417C403.249 331.872 404.379 331.718 405.447 331.987C406.515 332.256 407.437 332.927 408.021 333.861C408.606 334.794 408.806 335.918 408.581 336.996C408.356 338.074 407.723 339.023 406.815 339.645L397.428 345.96L400.944 343.929C401.873 343.386 402.973 343.214 404.024 343.448C405.074 343.682 405.998 344.305 406.608 345.191C407.219 346.077 407.473 347.161 407.318 348.227C407.163 349.292 406.611 350.259 405.774 350.934L363.662 385.153L391.122 369.298C392.052 368.763 393.15 368.597 394.196 368.835C395.243 369.073 396.162 369.697 396.769 370.582C397.376 371.467 397.628 372.548 397.473 373.61C397.318 374.673 396.769 375.637 395.935 376.313L379.184 389.864C379.73 390.224 380.184 390.71 380.506 391.28C381.069 392.259 381.221 393.422 380.928 394.513C380.636 395.604 379.922 396.534 378.945 397.1L348.31 414.781C347.381 415.304 346.29 415.461 345.252 415.22C344.213 414.979 343.302 414.358 342.699 413.48C342.095 412.601 341.842 411.528 341.99 410.472C342.138 409.416 342.676 408.454 343.497 407.775L348.344 403.85L321.592 419.423C320.939 419.783 320.204 419.965 319.459 419.952Z" fill="#9BB8CC"/>
<path d="M332.122 383.932C331.276 383.932 330.449 383.68 329.746 383.208C329.043 382.737 328.497 382.067 328.176 381.284C327.854 380.501 327.774 379.64 327.943 378.811C328.112 377.982 328.525 377.222 329.127 376.627L342.124 363.827L308.698 383.113C307.763 383.654 306.657 383.821 305.604 383.578C304.55 383.336 303.628 382.703 303.023 381.807C302.419 380.911 302.177 379.819 302.346 378.751C302.516 377.684 303.084 376.72 303.937 376.056L319.51 363.955L296.044 377.506C295.111 378.038 294.013 378.199 292.968 377.957C291.923 377.715 291.007 377.088 290.403 376.201C289.799 375.314 289.552 374.232 289.71 373.171C289.868 372.11 290.42 371.147 291.256 370.475L320.551 347.213L284.609 367.957C283.681 368.497 282.583 368.667 281.535 368.433C280.487 368.199 279.565 367.579 278.955 366.696C278.344 365.812 278.089 364.731 278.24 363.668C278.391 362.605 278.938 361.638 279.77 360.96L317.215 330.385L275.82 354.279C274.884 354.803 273.785 354.955 272.742 354.705C271.699 354.456 270.788 353.822 270.191 352.931C269.594 352.04 269.354 350.957 269.519 349.898C269.685 348.838 270.243 347.879 271.084 347.213L298.732 325.82L272.355 341.052C271.44 341.581 270.36 341.752 269.326 341.531C268.292 341.31 267.376 340.712 266.758 339.854C266.139 338.997 265.861 337.94 265.978 336.888C266.094 335.837 266.597 334.867 267.389 334.165L298.527 306.552L273.43 321.058C272.53 321.585 271.467 321.763 270.444 321.559C269.421 321.356 268.508 320.784 267.878 319.953C267.247 319.122 266.943 318.089 267.023 317.049C267.102 316.009 267.56 315.034 268.31 314.308L283.372 299.597C282.765 299.485 282.191 299.244 281.687 298.889C281.183 298.534 280.762 298.074 280.453 297.54C279.887 296.56 279.734 295.396 280.027 294.303C280.32 293.21 281.035 292.278 282.015 291.712L305.754 277.999C306.656 277.464 307.723 277.28 308.752 277.482C309.78 277.684 310.699 278.257 311.332 279.093C311.965 279.928 312.268 280.967 312.184 282.012C312.099 283.057 311.633 284.034 310.874 284.757L298.783 296.542L330.714 278.093C331.631 277.553 332.716 277.375 333.757 277.594C334.799 277.812 335.72 278.412 336.342 279.275C336.964 280.139 337.241 281.203 337.118 282.26C336.996 283.317 336.483 284.29 335.681 284.988L304.543 312.602L349.036 286.916C349.971 286.392 351.07 286.24 352.113 286.49C353.156 286.739 354.067 287.373 354.664 288.264C355.262 289.154 355.501 290.238 355.336 291.297C355.17 292.357 354.612 293.316 353.772 293.982L326.149 315.367L358.704 296.542C359.633 295.988 360.739 295.808 361.796 296.038C362.854 296.268 363.784 296.892 364.399 297.782C365.014 298.673 365.268 299.764 365.109 300.834C364.949 301.905 364.39 302.875 363.542 303.548L326.089 334.123L366.281 310.921C367.215 310.375 368.321 310.204 369.375 310.443C370.43 310.681 371.355 311.311 371.963 312.205C372.571 313.099 372.816 314.191 372.65 315.259C372.484 316.328 371.919 317.293 371.069 317.961L341.782 341.214L368.679 325.683C369.616 325.125 370.731 324.946 371.796 325.184C372.86 325.422 373.793 326.059 374.403 326.963C375.012 327.868 375.252 328.972 375.074 330.048C374.895 331.124 374.31 332.09 373.441 332.749L357.85 344.883L366.819 339.704C367.719 339.185 368.776 339.012 369.794 339.217C370.812 339.423 371.72 339.992 372.348 340.819C372.976 341.646 373.281 342.674 373.206 343.709C373.131 344.745 372.68 345.718 371.939 346.445L356.579 361.583C357.471 361.685 358.309 362.066 358.972 362.671C359.635 363.277 360.091 364.076 360.273 364.955C360.456 365.835 360.356 366.749 359.989 367.569C359.621 368.388 359.004 369.071 358.226 369.519L334.281 383.335C333.63 383.727 332.883 383.933 332.122 383.932Z" fill="#D3E3F2"/>
<path d="M198.525 301.773C192.159 304.256 185.725 306.646 179.495 309.453C167.412 314.872 168.513 324.037 168.871 336.512C169.281 350.413 174.196 351.872 185.554 356.455C189.72 357.485 193.723 359.087 197.45 361.216C201.025 364.485 202.629 375.928 205.087 381.372C206.324 384.111 211.649 390.81 211.658 393.498C211.276 394.968 210.674 396.372 209.874 397.662C208.048 401.929 206.219 406.196 204.387 410.462C202.691 413.435 201.557 416.695 201.042 420.079C200.982 426.949 209.43 433.323 213.893 437.598C216.793 441.5 220.995 444.233 225.737 445.303C230.479 446.372 235.447 445.706 239.741 443.427C245.117 441.396 250.39 439.04 255.655 436.694C263.13 441.019 271.067 444.488 279.318 447.036C282.339 447.89 284.14 447.804 285.829 449.912C287.062 452.143 288.011 454.519 288.654 456.986C292.494 466.577 293.953 476.783 305.72 477.995C317.488 479.207 338.702 481.408 345.563 468.847C348.946 461.788 351.868 454.517 354.309 447.079C363.057 444.459 371.541 441.031 379.653 436.839C385.994 439.698 392.325 442.752 398.853 444.971C411.952 449.434 422.064 439.416 430.427 430.686C435.248 425.66 440.317 421.138 438.337 413.688C436.966 409.749 435.321 405.911 433.413 402.202C432.137 399.615 430.998 396.964 430 394.257C428.967 390.844 428.839 391.697 430.145 388.165C433.738 378.428 438.678 369.699 441.605 359.587L459.687 352.35C461.183 351.835 462.629 351.184 464.005 350.405C465.774 349.581 467.313 348.337 468.49 346.781C469.667 345.225 470.444 343.405 470.755 341.479C472.415 333.293 472.415 324.858 470.755 316.672C468.989 309.521 462.538 308.139 456.453 305.733C452.42 304.385 448.468 302.804 444.618 300.997C443.713 300.51 441.827 300.374 441.144 299.614C440.168 296.468 439.443 293.25 438.977 289.989C437.808 286.627 436.494 283.307 435.026 280.064C432.832 276.631 430.928 273.02 429.334 269.27C428.635 266.164 430.29 263.663 431.707 260.361C435.267 254.512 437.76 248.078 439.071 241.357C439.071 235.921 434.07 231.851 430.623 228.241C426.651 223.083 421.609 218.847 415.843 215.825C406.798 212.907 393.972 219.7 384.219 224.615C376.819 220.335 368.961 216.901 360.795 214.375C357.774 213.521 355.973 213.607 354.284 211.499C353.051 209.268 352.102 206.892 351.459 204.425C347.619 194.833 346.16 184.628 334.392 183.416C322.625 182.204 301.411 180.003 294.55 192.564C291.167 199.623 288.245 206.894 285.804 214.332C277.056 216.952 268.572 220.38 260.46 224.572C254.119 221.713 247.788 218.659 241.26 216.431C228.161 211.968 218.049 221.995 209.686 230.725C204.865 235.751 199.796 240.273 201.776 247.723C203.147 251.662 204.792 255.5 206.7 259.209C207.976 261.796 209.115 264.447 210.113 267.153C211.146 270.524 211.274 269.714 209.968 273.246C206.375 282.966 201.452 291.678 198.525 301.773ZM212.298 293.931C214.431 287.133 217.173 280.542 220.49 274.236C222.188 272.038 223.292 269.441 223.698 266.693C222.697 262.886 221.139 259.248 219.073 255.898C215.916 248.534 210.958 241.827 216.718 234.496C219.141 231.424 226.045 222.183 229.902 221.321C231.864 221.694 233.763 222.343 235.542 223.249C241.061 226.16 246.805 228.62 252.72 230.605C262.004 232.807 271.587 223.821 279.788 220.672C286.23 218.206 294.491 218.24 298.117 212.062C301.744 205.884 302.384 197.777 306.267 191.685C309.313 186.872 314.8 187.973 320.236 188.271C326.772 188.638 331.03 188.886 333.974 194.859C336.212 201.654 338.871 208.303 341.936 214.767C344.189 218.181 346.288 217.865 350.691 219.247C358.327 221.724 365.708 224.927 372.733 228.813C379.056 232.227 383.348 230.17 389.56 227.508L402.36 222.021C403.696 221.224 405.13 220.607 406.627 220.186C408.837 220.075 407.702 220.911 410.04 223.847C413.804 228.66 419.384 232.167 423.224 237.031C424.985 238.959 426.044 241.425 426.229 244.029C426.415 246.634 425.717 249.225 424.248 251.384C420.709 257.241 417.995 263.558 416.184 270.157C416.082 271.864 418.744 275.38 419.598 276.907C421.805 281.097 423.757 285.417 425.443 289.844C427.073 294.11 427.696 301.5 430.862 304.35C436.788 307.78 443.176 310.337 449.831 311.945C454.252 313.711 456.846 314.829 458.442 319.898C460.455 326.247 460.856 345.174 454.917 349.398L439.813 355.439C432.253 358.46 430.52 358.929 427.867 367.386C425.733 374.184 422.992 380.776 419.675 387.081C417.984 389.284 416.88 391.879 416.466 394.624C416.628 400.888 423.122 408.67 425.068 414.686C426.09 416.626 426.483 418.835 426.193 421.008C425.902 423.181 424.942 425.21 423.446 426.812C421.1 429.799 414.06 439.254 410.262 439.996C407.122 440.619 397.573 435.047 393.46 433.289C389.796 430.933 385.376 430.049 381.087 430.814C375.706 432.965 370.502 435.533 365.522 438.494C359.31 441.268 349.309 441.831 344.086 446.174C340.724 448.99 339.632 455.271 338.062 459.188C333.659 470.213 333.974 473.814 319.928 473.02C313.392 472.645 309.134 472.406 306.19 466.432C304.935 463.872 304.048 461.074 302.99 458.42C300.327 451.772 299.935 445.176 292.92 443.06C286.323 441.149 279.891 438.709 273.686 435.764C269.978 433.036 265.721 431.147 261.211 430.226C255.601 431.189 250.212 433.161 245.304 436.045C241.969 437.969 238.417 439.49 234.723 440.576C234.279 440.636 233.238 441.43 232.513 441.652C232.948 440.892 229.339 436.711 228.989 436.395C224.64 432.697 220.615 428.634 216.957 424.252C215.196 422.324 214.138 419.858 213.952 417.253C213.766 414.649 214.464 412.058 215.933 409.899C219.343 404.312 221.938 398.266 223.638 391.945C223.792 388.344 220.66 384.683 218.979 381.244C215.796 374.733 214.098 367.898 211.367 361.259C208.807 355.132 204.054 354.859 197.629 352.291C188.959 348.818 182.363 347.956 181.415 337.306C180.938 331.828 179.282 318.371 182.712 313.839C184.483 312.124 186.691 310.929 189.095 310.383C194.779 308.113 200.982 306.279 206.41 303.454C210.992 301.073 210.676 299.102 212.298 293.931Z" fill="#8E8E8E"/>
<path d="M337.251 417.554C357.766 413.584 376.312 402.735 389.828 386.8C403.343 370.864 411.018 350.795 411.585 329.908C411.585 329.728 411.466 329.635 411.44 329.472C411.414 329.31 411.585 329.182 411.576 329.02C411.309 310.508 405.235 292.547 394.211 277.672C383.187 262.797 367.77 251.76 350.136 246.119C332.522 240.739 313.732 240.533 296.004 245.526C278.275 250.518 262.354 260.498 250.134 274.279C237.941 288.41 230.545 306.046 229.011 324.648C227.478 343.25 231.886 361.859 241.601 377.797C251.615 393.359 266.133 405.5 283.222 412.602C300.31 419.705 319.157 421.432 337.251 417.554ZM252.524 287.104C260.876 272.808 273.63 261.598 288.879 255.147C304.129 248.697 321.055 247.353 337.132 251.316C354.846 256.123 370.501 266.594 381.707 281.131C392.913 295.668 399.055 313.473 399.195 331.828C399.235 348.328 394.285 364.455 384.996 378.093C375.706 391.73 362.511 402.24 347.141 408.244C331.425 413.418 314.49 413.593 298.67 408.744C282.85 403.894 268.922 394.26 258.804 381.167C248.478 367.911 242.36 351.865 241.241 335.099C240.121 318.333 244.051 301.616 252.524 287.104Z" fill="#89A7BC"/>
<path d="M317.735 385.673C318.516 385.673 319.295 385.61 320.065 385.485C331.302 385.239 342.243 381.833 351.635 375.658C361.027 369.482 368.489 360.787 373.168 350.567C377.648 339.952 378.593 328.177 375.863 316.984C373.134 305.79 366.875 295.772 358.013 288.41C348.78 281.185 337.62 276.845 325.932 275.934C314.244 275.023 302.547 277.582 292.306 283.29C281.377 288.828 272.65 297.911 267.552 309.052C262.455 320.193 261.288 332.735 264.243 344.626C267.197 356.516 274.099 367.053 283.819 374.512C293.539 381.971 305.502 385.912 317.753 385.69L317.735 385.673ZM290.335 294.366C297.204 288.173 305.902 284.385 315.115 283.575C324.328 282.766 333.555 284.978 341.398 289.878C349.549 294.857 356.077 302.097 360.192 310.716C364.306 319.335 365.829 328.964 364.575 338.432C363.362 348.961 358.461 358.72 350.74 365.98C343.02 373.24 332.978 377.532 322.395 378.095C312.846 377.922 303.565 374.907 295.738 369.435C287.911 363.964 281.891 356.283 278.448 347.375C274.946 338.355 274.206 328.496 276.323 319.054C278.44 309.611 283.317 301.012 290.335 294.349V294.366Z" fill="#89A7BC"/>
<path d="M299.005 333.236C300.536 333.287 302.067 333.091 303.536 332.655C305.03 332.307 306.455 331.71 307.751 330.889C308.434 330.411 309.176 329.908 309.176 328.986C309.176 328.397 309.236 327.817 309.287 327.237C309.746 323.399 311.609 319.866 314.518 317.321C314.627 317.231 314.741 317.149 314.86 317.074L314.527 317.278C314.715 317.167 314.894 317.014 315.073 316.886L315.824 316.391H315.901L315.636 316.519L316.088 316.297L316.208 316.229H316.268H316.327C316.327 316.229 316.327 316.229 316.251 316.229C317.69 316.227 319.123 316.046 320.517 315.691C322.009 315.336 323.433 314.739 324.733 313.925C325.287 313.532 326.38 312.85 326.158 312.022C325.936 311.194 324.554 311.083 323.973 311.083C316.189 310.924 308.62 313.637 302.708 318.703C300.828 320.456 299.328 322.576 298.3 324.932C297.273 327.287 296.74 329.829 296.735 332.399C296.812 333.091 298.732 333.236 299.005 333.236Z" fill="#89A7BC"/>
<path d="M316.293 316.203V316.195L316.285 316.203H316.293Z" fill="#262626"/>
<path d="M316.285 316.186L316.327 316.178L316.361 316.16L316.319 316.169L316.285 316.186Z" fill="#262626"/>
<path d="M316.208 316.22L316.088 316.288L315.901 316.382L316.242 316.22H316.208Z" fill="#262626"/>
</g>
<defs>
<clipPath id="clip0_1333_673">
<rect width="661" height="661" fill="white" transform="matrix(-1 0 0 1 661 0)"/>
</clipPath>
</defs>
</svg>
