<svg width="1478" height="1478" viewBox="0 0 1478 1478" fill="none" xmlns="http://www.w3.org/2000/svg">
<g clip-path="url(#clip0_1333_673)">
<path d="M599.863 103.007C926.23 14.5735 1372.61 229.342 1387.35 595.711C1406.3 574.655 1427.36 555.705 1448.41 536.755C1465.26 522.016 1488.42 536.755 1484.21 557.811C1469.47 665.195 1406.3 757.84 1336.82 839.953C1330.5 848.379 1311.55 848.379 1305.23 839.953C1242.07 759.942 1223.11 660.98 1212.59 564.127C1210.48 547.283 1233.64 536.755 1246.28 545.177C1273.65 564.127 1309.44 578.866 1338.92 599.922C1309.44 435.687 1233.64 313.564 1084.15 223.025C940.969 136.697 768.312 119.852 604.074 132.485C587.233 134.591 585.124 107.219 599.863 103.007ZM1429.46 604.133C1414.72 616.766 1402.09 627.294 1387.35 639.928C1385.24 642.033 1383.14 642.033 1381.03 644.139C1378.93 646.244 1374.72 648.35 1370.5 650.456C1366.29 658.878 1355.77 665.195 1345.24 656.772C1317.87 639.928 1290.49 623.083 1263.12 606.239C1273.65 669.406 1288.39 734.678 1324.18 787.318C1368.4 732.573 1408.41 671.511 1429.46 604.133Z" fill="#7AD4EC" fill-opacity="0.3"/>
<path d="M33.468 989.452C145.063 1023.14 254.553 1065.25 370.359 1088.41C389.309 1092.63 389.309 1124.21 370.359 1128.42C319.825 1136.84 271.397 1151.58 222.969 1160.01C292.453 1214.75 353.515 1263.18 439.843 1296.87C540.91 1334.77 648.294 1349.51 755.678 1345.29C983.08 1338.98 1183.11 1218.96 1244.17 993.66C1248.38 978.924 1273.65 981.027 1271.54 997.875C1246.28 1231.59 1039.93 1364.24 820.951 1389.51C633.552 1410.57 338.776 1372.67 199.804 1212.64C195.593 1256.86 180.854 1298.97 155.588 1336.87C145.056 1351.61 128.215 1351.61 117.684 1336.87C52.4112 1242.12 37.6722 1124.21 8.19768 1016.82C1.88441 999.984 16.62 985.241 33.468 989.452ZM157.697 1172.64C157.697 1168.42 159.799 1164.21 161.908 1160C151.38 1138.94 176.647 1124.21 193.491 1136.84L195.597 1138.94C195.597 1138.94 195.597 1138.94 197.702 1138.94C227.177 1130.53 256.658 1119.99 286.133 1111.58C210.336 1092.63 134.535 1065.25 58.7313 1042.09C79.787 1124.21 94.5261 1208.44 136.641 1282.13C149.274 1248.44 155.591 1212.64 157.697 1172.64Z" fill="#7AD4EC" fill-opacity="0.3"/>
<path d="M262.975 275.664C235.603 246.186 214.547 212.497 178.752 191.441C161.908 183.019 164.017 155.647 185.073 151.436C284.034 128.274 385.102 128.274 484.06 128.274C505.116 128.274 511.432 151.436 498.799 166.175C433.526 244.081 385.098 332.515 338.776 423.054C328.244 442.004 296.664 433.582 296.664 412.526C298.77 378.837 294.559 347.254 292.453 313.564C111.371 439.899 58.7314 671.511 48.207 879.963C48.207 898.913 22.9402 896.807 20.8346 879.963C-0.22108 663.089 75.5795 401.998 262.975 275.664ZM302.978 254.608C305.083 256.714 307.189 256.714 307.189 258.82C313.505 260.925 317.72 267.242 319.826 271.453C321.928 273.559 324.037 275.664 324.037 279.875C326.142 298.825 330.353 319.881 332.459 338.831C364.043 279.875 397.732 223.025 437.737 170.386C372.465 170.386 305.087 172.491 241.919 183.019C262.975 206.18 281.922 231.447 302.978 254.608Z" fill="#7AD4EC" fill-opacity="0.3"/>
<path d="M768.662 833.038C767.915 833.035 767.191 832.787 766.599 832.332C766.008 831.877 765.582 831.239 765.389 830.518C765.196 829.797 765.245 829.033 765.529 828.342C765.813 827.652 766.317 827.075 766.962 826.699L821.274 795.335C821.965 794.941 822.772 794.801 823.556 794.94C824.339 795.079 825.049 795.488 825.562 796.096C826.074 796.705 826.358 797.473 826.362 798.269C826.367 799.064 826.092 799.836 825.587 800.45L814.078 814.353L825.729 807.633C826.507 807.227 827.411 807.136 828.253 807.38C829.096 807.625 829.811 808.185 830.25 808.945C830.689 809.704 830.818 810.604 830.609 811.456C830.4 812.308 829.871 813.046 829.13 813.517L801.066 829.705C800.375 830.104 799.566 830.247 798.78 830.11C797.995 829.972 797.282 829.563 796.767 828.954C796.253 828.344 795.969 827.573 795.965 826.776C795.961 825.978 796.238 825.204 796.747 824.59L808.255 810.687L770.335 832.582C769.827 832.878 769.25 833.035 768.662 833.038Z" fill="#D3E3F2"/>
<path d="M716.105 648.722C715.479 648.724 714.865 648.553 714.33 648.229C713.796 647.905 713.36 647.44 713.073 646.884C712.785 646.329 712.657 645.705 712.701 645.081C712.745 644.457 712.96 643.858 713.323 643.348L720.805 632.771C720.252 632.499 719.783 632.081 719.449 631.563C719.116 631.044 718.929 630.445 718.909 629.829C718.89 629.213 719.038 628.603 719.338 628.064C719.639 627.526 720.08 627.079 720.614 626.772L728.776 622.065C729.448 621.677 730.232 621.531 730.999 621.65C731.765 621.769 732.468 622.147 732.99 622.72C733.513 623.293 733.823 624.028 733.871 624.802C733.919 625.576 733.7 626.343 733.252 626.976L727.845 634.594L748.012 622.97C748.399 622.743 748.827 622.595 749.271 622.534C749.716 622.473 750.168 622.501 750.601 622.616C751.035 622.73 751.442 622.93 751.798 623.202C752.154 623.475 752.453 623.815 752.677 624.203C752.902 624.592 753.047 625.021 753.105 625.465C753.162 625.91 753.132 626.362 753.014 626.795C752.897 627.228 752.695 627.633 752.42 627.987C752.145 628.342 751.803 628.639 751.413 628.86L717.805 648.293C717.285 648.582 716.699 648.73 716.105 648.722Z" fill="#D3E3F2"/>
<path d="M745.114 858.626C744.483 858.626 743.863 858.45 743.326 858.118C742.789 857.786 742.355 857.311 742.072 856.746C741.79 856.181 741.67 855.549 741.727 854.92C741.784 854.291 742.014 853.69 742.393 853.185L745.012 849.784L730.517 858.157C729.766 858.584 728.881 858.709 728.04 858.507C727.2 858.305 726.469 857.79 725.994 857.068C725.52 856.346 725.338 855.47 725.486 854.619C725.634 853.767 726.1 853.004 726.79 852.484L770.886 819.699L721.831 848.015C721.075 848.436 720.187 848.554 719.348 848.343C718.509 848.132 717.782 847.609 717.314 846.881C716.847 846.153 716.675 845.274 716.833 844.423C716.991 843.572 717.467 842.814 718.165 842.302L766.758 807.837L717.165 836.432C716.404 836.844 715.514 836.95 714.677 836.728C713.84 836.506 713.12 835.974 712.662 835.239C712.204 834.505 712.043 833.623 712.213 832.774C712.382 831.925 712.869 831.173 713.574 830.671L767.798 794.26L704.092 831.038C703.325 831.466 702.423 831.582 701.573 831.359C700.723 831.137 699.992 830.595 699.533 829.846C699.075 829.097 698.923 828.199 699.111 827.341C699.299 826.483 699.812 825.731 700.542 825.243L738.142 800.913L694.23 826.27C693.46 826.741 692.535 826.887 691.658 826.676C690.781 826.464 690.024 825.914 689.553 825.144C689.082 824.375 688.937 823.45 689.148 822.573C689.359 821.696 689.91 820.939 690.679 820.468L733.381 792.798L665.981 831.705C665.217 832.139 664.314 832.261 663.462 832.044C662.609 831.828 661.874 831.289 661.41 830.542C660.947 829.795 660.79 828.897 660.974 828.037C661.158 827.177 661.668 826.422 662.397 825.93L739.938 774.338L656.105 822.74C655.339 823.15 654.444 823.251 653.605 823.023C652.766 822.794 652.047 822.252 651.595 821.509C651.143 820.766 650.992 819.879 651.175 819.028C651.357 818.178 651.858 817.43 652.575 816.938L703.052 784.554L650.188 815.074C649.42 815.52 648.508 815.649 647.647 815.432C646.786 815.215 646.044 814.67 645.58 813.913C645.115 813.157 644.965 812.248 645.161 811.382C645.358 810.516 645.885 809.761 646.63 809.279L717.812 762.761L655.323 798.811C654.555 799.257 653.644 799.386 652.783 799.169C651.922 798.952 651.179 798.407 650.715 797.65C650.25 796.893 650.1 795.985 650.297 795.119C650.493 794.253 651.02 793.498 651.766 793.016L714.036 752.416L655.337 786.302C654.572 786.73 653.671 786.846 652.823 786.626C651.974 786.406 651.243 785.867 650.783 785.121C650.322 784.376 650.167 783.481 650.35 782.624C650.534 781.767 651.041 781.013 651.766 780.521L730.708 728.412L650.31 774.821C649.54 775.238 648.639 775.342 647.795 775.111C646.95 774.881 646.227 774.334 645.776 773.584C645.325 772.834 645.18 771.938 645.372 771.084C645.564 770.23 646.078 769.483 646.807 768.998L655.248 763.727L647.984 767.917C647.22 768.339 646.323 768.451 645.479 768.23C644.635 768.009 643.909 767.472 643.449 766.731C642.99 765.989 642.833 765.099 643.011 764.245C643.189 763.391 643.688 762.638 644.406 762.142L722.24 710.407L634.911 760.85C634.141 761.29 633.229 761.412 632.37 761.189C631.512 760.967 630.774 760.418 630.314 759.659C629.855 758.901 629.71 757.993 629.91 757.129C630.111 756.265 630.641 755.513 631.387 755.034L659.431 737.166L626.068 756.442C625.3 756.879 624.392 757 623.536 756.78C622.68 756.559 621.944 756.014 621.483 755.259C621.023 754.505 620.874 753.601 621.068 752.739C621.262 751.877 621.785 751.124 622.524 750.64L660.057 726.432L624.259 747.103C623.488 747.571 622.562 747.714 621.686 747.5C620.81 747.285 620.054 746.732 619.586 745.961C619.118 745.189 618.975 744.264 619.19 743.387C619.404 742.511 619.958 741.756 620.729 741.288L631.761 734.289L624.279 738.608C623.51 739.059 622.594 739.189 621.729 738.971C620.864 738.753 620.119 738.204 619.655 737.442C619.191 736.68 619.045 735.767 619.248 734.898C619.452 734.03 619.988 733.276 620.742 732.799L646.664 716.209C646 716.101 645.382 715.798 644.889 715.339C644.397 714.88 644.052 714.284 643.898 713.629C643.745 712.973 643.789 712.286 644.026 711.656C644.263 711.026 644.682 710.48 645.229 710.088L688.183 680.16L655.785 698.865C655.022 699.317 654.112 699.453 653.25 699.244C652.388 699.035 651.642 698.497 651.17 697.745C650.699 696.993 650.54 696.087 650.728 695.22C650.915 694.353 651.434 693.593 652.174 693.103L675.144 677.459L655.915 688.546C655.217 688.947 654.4 689.087 653.609 688.942C652.818 688.798 652.104 688.377 651.594 687.756C651.083 687.134 650.809 686.352 650.821 685.548C650.832 684.744 651.129 683.97 651.657 683.363L664.58 668.603L650.745 676.575C650.05 676.976 649.235 677.118 648.445 676.976C647.655 676.834 646.94 676.417 646.428 675.799C645.916 675.181 645.639 674.401 645.646 673.598C645.653 672.796 645.944 672.021 646.467 671.412L656.187 660.196C655.634 659.924 655.165 659.506 654.832 658.987C654.498 658.469 654.311 657.87 654.291 657.254C654.272 656.637 654.42 656.028 654.72 655.489C655.021 654.951 655.462 654.504 655.996 654.197L667.124 647.776C667.82 647.379 668.633 647.24 669.42 647.384C670.208 647.528 670.92 647.945 671.43 648.562C671.94 649.179 672.217 649.956 672.21 650.756C672.204 651.557 671.916 652.33 671.396 652.939L664.737 660.679L679.021 652.428C679.719 652.024 680.538 651.881 681.332 652.024C682.126 652.168 682.843 652.59 683.355 653.214C683.867 653.838 684.14 654.623 684.126 655.43C684.112 656.237 683.812 657.013 683.279 657.618L670.355 672.371L751.025 625.792C751.789 625.313 752.712 625.156 753.592 625.357C754.471 625.558 755.235 626.1 755.715 626.864C756.195 627.628 756.351 628.551 756.15 629.431C755.95 630.31 755.407 631.074 754.643 631.554L731.674 647.198L754.494 634.009C755.253 633.585 756.145 633.468 756.987 633.681C757.83 633.894 758.559 634.422 759.024 635.156C759.49 635.889 759.657 636.774 759.491 637.627C759.326 638.48 758.839 639.237 758.133 639.743L715.186 669.671L758.718 644.504C759.487 644.053 760.403 643.923 761.268 644.141C762.133 644.359 762.878 644.908 763.342 645.67C763.806 646.432 763.952 647.345 763.749 648.214C763.545 649.082 763.009 649.836 762.255 650.313L750.011 658.142L767.696 647.939C768.466 647.499 769.378 647.377 770.236 647.6C771.095 647.822 771.833 648.371 772.292 649.13C772.752 649.888 772.897 650.796 772.697 651.66C772.496 652.524 771.966 653.276 771.22 653.755L760.255 660.727L776.348 651.429C777.118 650.958 778.044 650.812 778.922 651.024C779.799 651.236 780.557 651.787 781.028 652.558C781.499 653.328 781.644 654.254 781.432 655.131C781.221 656.009 780.669 656.766 779.899 657.237L742.339 681.452L790.557 653.619C791.328 653.151 792.254 653.008 793.13 653.222C794.007 653.437 794.762 653.99 795.23 654.761C795.698 655.533 795.841 656.458 795.627 657.335C795.412 658.211 794.859 658.966 794.087 659.434L766.077 677.282L812.33 650.578C813.097 650.103 814.021 649.952 814.899 650.158C815.777 650.364 816.538 650.91 817.013 651.677C817.488 652.444 817.64 653.368 817.434 654.246C817.228 655.124 816.681 655.885 815.915 656.36L738.04 708.095L821.648 659.802C822.422 659.337 823.349 659.199 824.225 659.418C825.1 659.637 825.853 660.194 826.318 660.968C826.782 661.742 826.921 662.669 826.702 663.544C826.483 664.42 825.925 665.173 825.151 665.638L816.649 670.943L825.689 665.726C826.456 665.267 827.373 665.128 828.242 665.34C829.111 665.552 829.861 666.097 830.331 666.858C830.8 667.619 830.951 668.534 830.75 669.406C830.55 670.277 830.015 671.035 829.26 671.514L750.358 723.61L819.281 683.819C820.049 683.373 820.961 683.244 821.822 683.461C822.683 683.678 823.425 684.223 823.89 684.98C824.354 685.736 824.504 686.645 824.308 687.511C824.111 688.377 823.584 689.132 822.839 689.614L760.52 730.255L821.002 695.334C821.769 694.899 822.674 694.778 823.528 694.997C824.381 695.216 825.117 695.757 825.579 696.508C826.041 697.258 826.194 698.159 826.005 699.02C825.816 699.881 825.3 700.635 824.566 701.123L753.399 747.634L825.498 705.993C826.267 705.563 827.172 705.449 828.024 705.673C828.875 705.897 829.607 706.443 830.064 707.195C830.521 707.948 830.669 708.848 830.476 709.707C830.283 710.567 829.764 711.317 829.028 711.802L778.62 744.199L829.389 714.89C830.153 714.455 831.056 714.333 831.909 714.55C832.761 714.767 833.496 715.305 833.96 716.052C834.424 716.799 834.58 717.697 834.396 718.557C834.212 719.417 833.702 720.172 832.974 720.665L755.433 772.277L844.435 720.889C845.203 720.452 846.111 720.331 846.967 720.552C847.823 720.772 848.559 721.318 849.019 722.072C849.48 722.826 849.629 723.73 849.435 724.592C849.24 725.455 848.718 726.207 847.978 726.691L805.338 754.327L851.175 727.861C851.556 727.628 851.979 727.472 852.421 727.402C852.862 727.333 853.312 727.351 853.747 727.455C854.181 727.56 854.59 727.749 854.951 728.012C855.313 728.274 855.618 728.606 855.852 728.987C856.085 729.368 856.24 729.791 856.31 730.232C856.38 730.673 856.362 731.124 856.257 731.558C856.153 731.992 855.964 732.401 855.701 732.763C855.438 733.124 855.107 733.43 854.726 733.663L817.064 758.027L851.495 738.077C852.258 737.649 853.157 737.532 854.004 737.75C854.852 737.968 855.583 738.504 856.045 739.246C856.507 739.989 856.666 740.881 856.487 741.738C856.309 742.594 855.807 743.349 855.086 743.845L800.876 780.235L826.43 765.482C827.188 765.045 828.084 764.917 828.934 765.124C829.783 765.331 830.521 765.857 830.992 766.593C831.464 767.329 831.634 768.219 831.467 769.077C831.301 769.935 830.81 770.696 830.096 771.202L781.497 805.688L818.336 784.425C819.087 783.998 819.973 783.873 820.813 784.075C821.653 784.277 822.385 784.792 822.859 785.514C823.334 786.236 823.515 787.112 823.368 787.963C823.22 788.815 822.754 789.578 822.063 790.098L760.588 835.799C760.643 835.861 760.697 835.915 760.752 835.983C761.271 836.574 761.568 837.327 761.594 838.114C761.62 838.9 761.373 839.671 760.894 840.295L755.194 847.703C755.617 847.989 755.968 848.368 756.222 848.811C756.673 849.592 756.795 850.521 756.561 851.392C756.328 852.263 755.758 853.006 754.977 853.457L746.815 858.164C746.3 858.468 745.712 858.627 745.114 858.626Z" fill="#D3E3F2"/>
<path d="M737.326 811.279C736.623 811.28 735.937 811.063 735.363 810.658C734.788 810.253 734.353 809.681 734.118 809.018C733.882 808.356 733.857 807.637 734.047 806.961C734.237 806.284 734.631 805.682 735.177 805.239L768.757 777.957L718.322 807.069C717.943 807.306 717.521 807.465 717.081 807.539C716.64 807.613 716.19 807.599 715.754 807.499C714.876 807.296 714.113 806.752 713.635 805.987C713.157 805.222 713.002 804.299 713.205 803.42C713.408 802.541 713.952 801.779 714.717 801.301L722.199 796.274L709.275 803.722C708.522 804.157 707.631 804.287 706.785 804.086C705.939 803.884 705.202 803.365 704.726 802.637C704.251 801.909 704.072 801.026 704.228 800.17C704.383 799.314 704.86 798.551 705.561 798.036L752.161 763.863L696.889 795.778C696.129 796.22 695.227 796.351 694.372 796.142C693.517 795.934 692.777 795.402 692.306 794.659C691.835 793.916 691.67 793.02 691.846 792.158C692.022 791.296 692.525 790.536 693.25 790.037L732.701 762.68L689.033 787.888C688.279 788.31 687.391 788.43 686.552 788.222C685.713 788.014 684.984 787.494 684.514 786.768C684.045 786.042 683.869 785.164 684.024 784.313C684.178 783.462 684.651 782.702 685.346 782.188L738.782 743.818L681.252 777.032C680.485 777.467 679.58 777.589 678.726 777.37C677.872 777.151 677.137 776.609 676.675 775.859C676.213 775.108 676.06 774.207 676.249 773.346C676.438 772.486 676.954 771.732 677.687 771.243L688.366 764.258L677.728 770.38C676.972 770.811 676.079 770.936 675.233 770.729C674.387 770.521 673.653 769.997 673.182 769.265C672.711 768.532 672.539 767.647 672.702 766.791C672.864 765.936 673.349 765.175 674.055 764.666L723.137 729.786L673.484 758.442C672.721 758.87 671.822 758.987 670.975 758.77C670.127 758.552 669.396 758.016 668.934 757.273C668.471 756.531 668.313 755.638 668.492 754.782C668.67 753.925 669.172 753.171 669.892 752.674L691.352 738.268L672.416 749.199C671.653 749.633 670.752 749.756 669.901 749.542C669.05 749.327 668.315 748.792 667.849 748.048C667.383 747.304 667.224 746.409 667.403 745.549C667.582 744.69 668.087 743.933 668.811 743.438L686.169 731.732L672.076 739.894C671.319 740.338 670.42 740.472 669.566 740.269C668.712 740.065 667.97 739.54 667.495 738.802C667.02 738.064 666.849 737.171 667.016 736.31C667.184 735.449 667.679 734.686 668.396 734.18L697.678 713.203L673.606 727.1C672.861 727.523 671.983 727.649 671.149 727.453C670.315 727.257 669.585 726.753 669.106 726.042C668.628 725.331 668.435 724.466 668.567 723.619C668.699 722.772 669.145 722.006 669.818 721.474L697.576 699.845L680.993 709.415C680.252 709.842 679.377 709.973 678.542 709.784C677.708 709.594 676.976 709.097 676.492 708.392C676.008 707.686 675.807 706.824 675.931 705.977C676.054 705.131 676.492 704.362 677.157 703.824L690.577 692.941C690.14 692.658 689.777 692.275 689.516 691.825C689.065 691.044 688.943 690.116 689.176 689.245C689.41 688.373 689.979 687.63 690.761 687.179L715.247 673.066C715.989 672.639 716.864 672.507 717.698 672.697C718.532 672.886 719.264 673.383 719.748 674.089C720.232 674.794 720.433 675.656 720.31 676.503C720.186 677.35 719.749 678.119 719.083 678.657L715.002 681.962L736.687 669.44C737.433 668.995 738.322 668.853 739.171 669.042C740.019 669.232 740.763 669.74 741.249 670.461C741.735 671.182 741.926 672.061 741.783 672.919C741.641 673.777 741.175 674.547 740.482 675.072L712.731 696.695L754.902 672.331C755.659 671.887 756.558 671.752 757.412 671.956C758.265 672.159 759.007 672.685 759.483 673.423C759.958 674.161 760.129 675.053 759.961 675.915C759.794 676.776 759.299 677.539 758.582 678.045L729.245 699.015L767.213 677.092C767.977 676.65 768.883 676.521 769.74 676.735C770.597 676.948 771.337 677.486 771.804 678.235C772.271 678.984 772.429 679.885 772.244 680.748C772.059 681.612 771.545 682.369 770.811 682.86L753.453 694.546L775.069 682.065C775.833 681.622 776.739 681.493 777.596 681.707C778.453 681.92 779.193 682.458 779.66 683.207C780.128 683.956 780.285 684.857 780.1 685.721C779.915 686.584 779.401 687.341 778.668 687.832L757.201 702.246L782.116 687.86C782.874 687.408 783.778 687.269 784.637 687.471C785.495 687.673 786.242 688.201 786.719 688.944C787.195 689.686 787.365 690.585 787.191 691.45C787.018 692.315 786.515 693.079 785.789 693.58L736.707 728.46L790.639 697.321C791.406 696.875 792.318 696.746 793.179 696.963C794.04 697.18 794.782 697.725 795.247 698.482C795.711 699.239 795.862 700.147 795.665 701.013C795.469 701.879 794.942 702.634 794.196 703.116L783.477 710.122L794.672 703.66C795.428 703.222 796.324 703.092 797.173 703.296C798.023 703.5 798.761 704.023 799.235 704.757C799.709 705.491 799.882 706.379 799.719 707.237C799.556 708.096 799.069 708.858 798.359 709.367L744.951 747.723L800.046 715.897C800.806 715.454 801.708 715.324 802.563 715.532C803.417 715.741 804.158 716.273 804.629 717.016C805.1 717.758 805.264 718.655 805.088 719.517C804.912 720.379 804.409 721.139 803.685 721.638L764.234 749.001L802.664 726.814C803.418 726.379 804.309 726.249 805.155 726.451C806.001 726.652 806.738 727.171 807.213 727.899C807.689 728.627 807.867 729.51 807.712 730.366C807.557 731.222 807.079 731.985 806.378 732.5L759.765 766.673L803.351 741.506C804.114 741.071 805.015 740.948 805.866 741.163C806.718 741.377 807.453 741.912 807.918 742.657C808.384 743.401 808.544 744.296 808.365 745.155C808.185 746.015 807.681 746.771 806.956 747.267L799.474 752.3L802.277 750.682C803.018 750.249 803.895 750.112 804.732 750.299C805.569 750.485 806.305 750.981 806.792 751.688C807.279 752.394 807.481 753.258 807.358 754.107C807.234 754.956 806.795 755.727 806.127 756.266L772.56 783.541L794.448 770.903C795.189 770.477 796.064 770.345 796.899 770.534C797.733 770.724 798.465 771.221 798.949 771.927C799.433 772.632 799.634 773.494 799.51 774.341C799.387 775.187 798.949 775.956 798.284 776.495L784.932 787.296C785.368 787.583 785.729 787.97 785.986 788.425C786.435 789.205 786.556 790.132 786.323 791.002C786.09 791.871 785.521 792.613 784.742 793.064L760.323 807.157C759.583 807.574 758.713 807.699 757.885 807.507C757.057 807.315 756.331 806.82 755.85 806.12C755.369 805.42 755.168 804.564 755.285 803.723C755.403 802.881 755.832 802.114 756.487 801.573L760.35 798.444L739.026 810.857C738.506 811.144 737.92 811.29 737.326 811.279Z" fill="#9BB8CC"/>
<path d="M747.42 782.568C746.745 782.568 746.086 782.367 745.526 781.991C744.966 781.615 744.53 781.081 744.274 780.457C744.018 779.833 743.953 779.147 744.089 778.486C744.224 777.825 744.552 777.219 745.032 776.745L755.392 766.543L728.749 781.915C728.003 782.347 727.122 782.479 726.282 782.286C725.442 782.093 724.707 781.588 724.225 780.874C723.743 780.16 723.551 779.289 723.686 778.438C723.821 777.587 724.274 776.819 724.953 776.29L737.367 766.645L718.662 777.446C717.919 777.87 717.044 777.998 716.21 777.805C715.377 777.612 714.647 777.113 714.166 776.406C713.684 775.699 713.487 774.836 713.613 773.99C713.739 773.145 714.179 772.377 714.846 771.841L738.197 753.299L709.547 769.835C708.807 770.265 707.932 770.4 707.097 770.214C706.262 770.028 705.527 769.533 705.04 768.829C704.553 768.125 704.35 767.263 704.471 766.416C704.591 765.568 705.027 764.798 705.691 764.257L735.537 739.886L702.541 758.931C701.795 759.349 700.92 759.471 700.088 759.272C699.257 759.073 698.531 758.568 698.055 757.858C697.579 757.147 697.388 756.284 697.519 755.439C697.651 754.595 698.097 753.831 698.766 753.299L720.804 736.247L699.78 748.388C699.05 748.811 698.19 748.947 697.365 748.77C696.541 748.594 695.811 748.118 695.318 747.434C694.825 746.75 694.604 745.908 694.697 745.07C694.789 744.232 695.19 743.459 695.821 742.899L720.641 720.889L700.637 732.452C699.919 732.871 699.072 733.014 698.257 732.851C697.441 732.689 696.713 732.234 696.211 731.571C695.708 730.909 695.466 730.085 695.53 729.256C695.593 728.427 695.958 727.65 696.556 727.072L708.561 715.345C708.078 715.256 707.62 715.064 707.218 714.781C706.817 714.498 706.481 714.131 706.235 713.706C705.784 712.925 705.662 711.997 705.895 711.125C706.128 710.254 706.698 709.511 707.48 709.06L726.402 698.13C727.121 697.704 727.971 697.557 728.791 697.718C729.611 697.878 730.343 698.335 730.848 699.001C731.352 699.667 731.594 700.496 731.527 701.329C731.46 702.161 731.088 702.94 730.483 703.517L720.845 712.91L746.298 698.204C747.028 697.774 747.893 697.632 748.723 697.806C749.553 697.981 750.288 698.459 750.783 699.147C751.279 699.835 751.5 700.684 751.402 701.526C751.305 702.368 750.896 703.144 750.256 703.7L725.436 725.711L760.901 705.238C761.647 704.82 762.523 704.698 763.354 704.897C764.186 705.096 764.912 705.601 765.388 706.311C765.864 707.022 766.055 707.885 765.923 708.73C765.791 709.574 765.346 710.338 764.676 710.87L742.659 727.915L768.608 712.91C769.349 712.468 770.23 712.325 771.073 712.508C771.916 712.692 772.657 713.189 773.147 713.899C773.638 714.609 773.84 715.478 773.713 716.331C773.586 717.185 773.14 717.958 772.464 718.494L742.611 742.865L774.648 724.371C775.392 723.936 776.273 723.8 777.114 723.99C777.954 724.18 778.691 724.682 779.176 725.395C779.661 726.108 779.857 726.978 779.724 727.829C779.592 728.681 779.142 729.451 778.464 729.983L755.12 748.518L776.559 736.138C777.306 735.693 778.195 735.551 779.043 735.74C779.892 735.93 780.635 736.438 781.121 737.159C781.607 737.88 781.798 738.759 781.656 739.617C781.513 740.475 781.048 741.245 780.354 741.77L767.928 751.443L775.076 747.314C775.793 746.9 776.636 746.762 777.448 746.926C778.259 747.09 778.983 747.544 779.484 748.203C779.984 748.862 780.227 749.681 780.167 750.507C780.107 751.332 779.748 752.108 779.157 752.687L766.914 764.754C767.625 764.835 768.293 765.138 768.822 765.621C769.35 766.104 769.713 766.741 769.859 767.442C770.004 768.143 769.925 768.872 769.632 769.525C769.339 770.178 768.847 770.722 768.227 771.079L749.141 782.092C748.621 782.404 748.026 782.569 747.42 782.568Z" fill="#D3E3F2"/>
<path d="M640.93 717.08C635.856 719.059 630.728 720.964 625.762 723.202C616.131 727.521 617.008 734.826 617.294 744.77C617.62 755.85 621.538 757.013 630.592 760.666C633.912 761.487 637.103 762.764 640.073 764.461C642.923 767.067 644.202 776.188 646.161 780.527C647.147 782.711 651.392 788.05 651.398 790.193C651.094 791.364 650.615 792.483 649.977 793.512C648.521 796.913 647.063 800.314 645.603 803.715C644.251 806.085 643.347 808.683 642.937 811.381C642.889 816.856 649.623 821.937 653.181 825.345C655.492 828.455 658.841 830.634 662.621 831.486C666.401 832.338 670.361 831.808 673.783 829.99C678.068 828.372 682.272 826.494 686.469 824.624C692.426 828.071 698.753 830.837 705.33 832.868C707.738 833.548 709.173 833.48 710.52 835.16C711.503 836.938 712.259 838.832 712.771 840.799C715.832 848.444 716.995 856.579 726.375 857.545C735.755 858.511 752.664 860.265 758.133 850.253C760.83 844.626 763.159 838.83 765.105 832.902C772.077 830.813 778.84 828.081 785.306 824.739C790.36 827.018 795.407 829.453 800.611 831.222C811.051 834.779 819.111 826.794 825.777 819.835C829.62 815.829 833.661 812.224 832.083 806.286C830.99 803.146 829.678 800.087 828.158 797.131C827.141 795.069 826.233 792.955 825.437 790.798C824.614 788.077 824.512 788.758 825.553 785.942C828.416 778.181 832.355 771.223 834.688 763.162L849.101 757.394C850.293 756.984 851.445 756.465 852.543 755.844C853.952 755.187 855.179 754.195 856.117 752.955C857.055 751.715 857.675 750.264 857.923 748.729C859.246 742.204 859.246 735.48 857.923 728.956C856.515 723.256 851.373 722.154 846.523 720.236C843.308 719.162 840.158 717.901 837.089 716.461C836.368 716.073 834.865 715.964 834.32 715.359C833.542 712.851 832.964 710.286 832.593 707.687C831.661 705.007 830.613 702.361 829.444 699.776C827.695 697.039 826.177 694.161 824.907 691.172C824.349 688.696 825.668 686.703 826.798 684.071C829.635 679.408 831.623 674.28 832.668 668.923C832.668 664.59 828.682 661.346 825.934 658.468C822.768 654.357 818.749 650.98 814.153 648.572C806.943 646.245 796.72 651.66 788.945 655.578C783.047 652.166 776.784 649.429 770.274 647.415C767.866 646.735 766.431 646.803 765.084 645.123C764.102 643.345 763.345 641.451 762.833 639.484C759.772 631.839 758.609 623.704 749.229 622.738C739.85 621.772 722.94 620.018 717.472 630.03C714.774 635.657 712.445 641.453 710.5 647.381C703.527 649.47 696.764 652.202 690.298 655.544C685.244 653.265 680.197 650.83 674.994 649.055C664.553 645.497 656.493 653.489 649.827 660.448C645.984 664.454 641.944 668.059 643.522 673.997C644.615 677.137 645.926 680.196 647.447 683.152C648.464 685.214 649.372 687.328 650.167 689.485C650.99 692.172 651.092 691.525 650.052 694.341C647.188 702.089 643.263 709.033 640.93 717.08ZM651.909 710.829C653.609 705.41 655.794 700.156 658.438 695.13C659.792 693.378 660.672 691.308 660.996 689.117C660.198 686.083 658.956 683.184 657.309 680.513C654.793 674.643 650.841 669.297 655.432 663.454C657.364 661.005 662.866 653.639 665.941 652.952C667.505 653.249 669.018 653.767 670.437 654.489C674.836 656.809 679.414 658.77 684.129 660.352C691.529 662.107 699.168 654.945 705.704 652.435C710.84 650.469 717.424 650.497 720.315 645.572C723.206 640.648 723.716 634.186 726.81 629.329C729.239 625.493 733.612 626.37 737.945 626.609C743.155 626.901 746.549 627.098 748.896 631.86C750.68 637.276 752.799 642.576 755.242 647.728C757.038 650.449 758.711 650.197 762.221 651.299C768.308 653.273 774.191 655.827 779.79 658.924C784.83 661.645 788.252 660.006 793.203 657.883L803.406 653.51C804.47 652.875 805.614 652.383 806.807 652.047C808.569 651.959 807.664 652.626 809.528 654.965C812.527 658.802 816.976 661.597 820.037 665.474C821.44 667.011 822.284 668.977 822.432 671.053C822.58 673.129 822.024 675.194 820.853 676.915C818.031 681.583 815.868 686.619 814.425 691.879C814.343 693.239 816.466 696.042 817.146 697.259C818.905 700.599 820.461 704.043 821.805 707.571C823.104 710.972 823.601 716.862 826.124 719.134C830.848 721.868 835.94 723.906 841.245 725.188C844.768 726.596 846.836 727.487 848.108 731.527C849.713 736.588 850.033 751.674 845.299 755.041L833.259 759.857C827.233 762.265 825.852 762.639 823.737 769.379C822.036 774.798 819.851 780.052 817.207 785.078C815.86 786.834 814.98 788.902 814.65 791.091C814.779 796.083 819.955 802.287 821.506 807.082C822.321 808.628 822.634 810.389 822.403 812.121C822.171 813.853 821.406 815.47 820.213 816.747C818.343 819.128 812.731 826.664 809.705 827.256C807.201 827.753 799.59 823.311 796.312 821.91C793.391 820.032 789.868 819.327 786.449 819.937C782.16 821.652 778.012 823.698 774.042 826.059C769.091 828.27 761.119 828.719 756.956 832.181C754.276 834.425 753.406 839.431 752.154 842.553C748.644 851.341 748.896 854.212 737.7 853.579C732.49 853.28 729.096 853.09 726.749 848.328C725.749 846.288 725.042 844.057 724.199 841.941C722.076 836.643 721.764 831.385 716.172 829.698C710.914 828.175 705.787 826.23 700.841 823.882C697.885 821.709 694.492 820.202 690.897 819.468C686.425 820.236 682.13 821.808 678.218 824.107C675.559 825.64 672.728 826.852 669.784 827.719C669.43 827.766 668.6 828.399 668.022 828.576C668.369 827.97 665.492 824.637 665.213 824.386C661.747 821.438 658.538 818.2 655.622 814.707C654.219 813.17 653.375 811.204 653.227 809.128C653.079 807.052 653.635 804.987 654.806 803.266C657.525 798.813 659.593 793.993 660.948 788.955C661.071 786.085 658.574 783.167 657.234 780.425C654.697 775.236 653.344 769.787 651.167 764.496C649.127 759.612 645.338 759.394 640.216 757.347C633.306 754.578 628.048 753.891 627.293 745.403C626.912 741.036 625.592 730.309 628.327 726.698C629.738 725.331 631.498 724.378 633.414 723.943C637.944 722.134 642.889 720.671 647.215 718.42C650.868 716.522 650.616 714.951 651.909 710.829Z" fill="#8E8E8E"/>
<path d="M751.508 809.367C767.86 806.203 782.643 797.556 793.416 784.854C804.189 772.151 810.307 756.155 810.759 739.506C810.759 739.363 810.664 739.288 810.643 739.159C810.623 739.029 810.759 738.927 810.752 738.798C810.539 724.042 805.697 709.725 796.91 697.869C788.123 686.013 775.835 677.215 761.779 672.718C747.738 668.43 732.761 668.266 718.63 672.245C704.499 676.225 691.808 684.18 682.068 695.164C672.348 706.428 666.453 720.486 665.231 735.313C664.009 750.141 667.522 764.974 675.266 777.677C683.248 790.082 694.821 799.759 708.442 805.421C722.062 811.082 737.085 812.459 751.508 809.367ZM683.972 705.387C690.63 693.992 700.796 685.056 712.951 679.915C725.106 674.773 738.599 673.702 751.413 676.861C765.533 680.692 778.011 689.039 786.943 700.626C795.876 712.214 800.771 726.406 800.883 741.036C800.914 754.188 796.969 767.043 789.565 777.913C782.16 788.783 771.642 797.161 759.391 801.946C746.864 806.071 733.365 806.21 720.755 802.345C708.145 798.48 697.043 790.8 688.979 780.364C680.748 769.798 675.871 757.008 674.979 743.643C674.087 730.279 677.219 716.954 683.972 705.387Z" fill="#89A7BC"/>
<path d="M735.952 783.956C736.574 783.955 737.195 783.905 737.809 783.806C746.766 783.61 755.487 780.895 762.973 775.973C770.459 771.05 776.408 764.119 780.137 755.973C783.708 747.512 784.461 738.126 782.285 729.204C780.11 720.282 775.121 712.296 768.057 706.428C760.698 700.669 751.802 697.21 742.486 696.484C733.169 695.758 723.845 697.797 715.683 702.347C706.971 706.761 700.015 714.001 695.952 722.882C691.888 731.762 690.958 741.759 693.314 751.237C695.669 760.715 701.17 769.113 708.918 775.059C716.666 781.005 726.201 784.146 735.966 783.969L735.952 783.956ZM714.112 711.176C719.587 706.239 726.52 703.22 733.864 702.575C741.207 701.929 748.562 703.692 754.814 707.598C761.31 711.567 766.514 717.338 769.794 724.208C773.073 731.078 774.287 738.753 773.288 746.301C772.321 754.693 768.414 762.472 762.26 768.258C756.106 774.045 748.102 777.466 739.666 777.916C732.055 777.777 724.658 775.374 718.418 771.013C712.179 766.651 707.381 760.529 704.637 753.429C701.845 746.239 701.256 738.38 702.943 730.854C704.63 723.327 708.518 716.473 714.112 711.162V711.176Z" fill="#89A7BC"/>
<path d="M721.022 742.158C722.243 742.199 723.463 742.043 724.634 741.696C725.825 741.418 726.961 740.942 727.994 740.288C728.538 739.907 729.13 739.506 729.13 738.771C729.13 738.302 729.178 737.839 729.218 737.377C729.584 734.317 731.069 731.502 733.388 729.473C733.474 729.401 733.565 729.335 733.66 729.276L733.395 729.439C733.544 729.35 733.687 729.228 733.83 729.126L734.429 728.731H734.49L734.279 728.833L734.639 728.657L734.735 728.602H734.782H734.83C734.83 728.602 734.83 728.602 734.769 728.602C735.916 728.601 737.058 728.457 738.17 728.174C739.359 727.89 740.494 727.415 741.53 726.766C741.972 726.453 742.842 725.909 742.666 725.249C742.489 724.589 741.387 724.501 740.924 724.501C734.72 724.374 728.686 726.536 723.974 730.575C722.476 731.972 721.28 733.661 720.461 735.539C719.642 737.417 719.217 739.443 719.213 741.492C719.274 742.043 720.805 742.158 721.022 742.158Z" fill="#89A7BC"/>
<path d="M734.804 728.583V728.575L734.796 728.583H734.804Z" fill="#262626"/>
<path d="M734.796 728.568L734.83 728.561L734.857 728.548L734.823 728.555L734.796 728.568Z" fill="#262626"/>
<path d="M734.734 728.595L734.639 728.65L734.49 728.724L734.761 728.595H734.734Z" fill="#262626"/>
</g>
<defs>
<clipPath id="clip0_1333_673">
<rect width="1478" height="1478" fill="white" transform="matrix(-1 0 0 1 1478 0)"/>
</clipPath>
</defs>
</svg>
