<svg width="231" height="231" viewBox="0 0 231 231" fill="none" xmlns="http://www.w3.org/2000/svg">
<path d="M86.598 71.1249C86.2015 71.1249 85.8088 71.0056 85.4738 70.7592C84.8578 70.3203 84.5614 69.558 84.7115 68.8149L85.7934 63.4865L74.228 70.1624C73.3848 70.6591 72.3107 70.4358 71.7293 69.6542C71.1441 68.8804 71.2288 67.7908 71.9295 67.1132L75.9412 63.2363L74.2318 64.2219C73.4118 64.707 72.3607 64.4991 71.7678 63.7637C71.1749 63.0245 71.2057 61.9581 71.8448 61.2612L78.7171 53.7268L74.228 56.3178C73.3771 56.8145 72.303 56.5835 71.7216 55.7981C71.1403 55.0165 71.2365 53.9193 71.9488 53.2494L75.0634 50.3195L74.228 50.8008C73.4002 51.2859 72.3453 51.0741 71.7524 50.3272C71.1595 49.5803 71.2096 48.5062 71.8641 47.8132L77.9971 41.3298L74.2241 43.505C73.3733 44.0055 72.2953 43.7707 71.7139 42.9814C71.1326 42.1922 71.2365 41.0949 71.9526 40.4289L74.6014 37.9726L74.2241 38.1882C73.4041 38.6771 72.353 38.4654 71.7601 37.73C71.1634 36.9908 71.198 35.9244 71.841 35.2237L78.5977 27.8432L74.2241 30.365C73.4041 30.8462 72.3684 30.646 71.7755 29.9222C71.1788 29.1946 71.1942 28.1397 71.814 27.4351L79.3177 18.8612L74.228 21.7987C73.3887 22.2877 72.3261 22.0682 71.7409 21.3059C71.1557 20.5436 71.2211 19.4618 71.9026 18.7765L75.0827 15.581L74.2318 16.0699C73.4426 16.5242 72.4531 16.3664 71.841 15.6965C71.2327 15.0227 71.1749 14.0179 71.7024 13.2825L74.355 9.57881C73.6928 9.57881 73.0537 9.22846 72.6995 8.61631C72.1682 7.69616 72.4839 6.51806 73.4041 5.98676L79.7797 2.30616C80.5612 1.84031 81.5584 2.00586 82.1705 2.67961C82.7788 3.35336 82.8366 4.35821 82.3091 5.09356L80.0261 8.27751L85.6817 5.01656C86.521 4.52761 87.5836 4.74706 88.1688 5.50936C88.7579 6.27166 88.6886 7.35351 88.0071 8.03881L84.8309 11.2305L87.4604 9.71356C88.2728 9.23231 89.3123 9.42867 89.909 10.1563C90.5058 10.884 90.4904 11.9389 89.8705 12.6434L82.3669 21.2174L87.4874 18.2606C88.3113 17.7793 89.3585 17.9872 89.9514 18.7187C90.5481 19.4579 90.5135 20.5244 89.8705 21.2251L83.1176 28.6055L87.5066 26.0722C88.3652 25.5756 89.4355 25.8104 90.0168 26.5958C90.5982 27.3851 90.4942 28.4823 89.7781 29.1484L87.1255 31.6124L87.5182 31.3852C88.3421 30.8963 89.397 31.108 89.9937 31.8588C90.5866 32.6057 90.5366 33.6798 89.8821 34.3728L83.7529 40.8524L87.5374 38.6694C88.3883 38.1728 89.4624 38.3999 90.0438 39.1892C90.6251 39.9707 90.5289 41.068 89.8166 41.7379L86.6943 44.6754L87.549 44.1826C88.3767 43.7014 89.4162 43.9093 90.013 44.6408C90.6059 45.38 90.5751 46.4464 89.936 47.1433L83.0599 54.6816L87.5644 52.079C88.4152 51.59 89.4817 51.8095 90.063 52.5872C90.6482 53.361 90.5635 54.4506 89.8628 55.1282L85.855 59.0013L87.5721 58.0118C88.2304 57.6307 89.0466 57.673 89.6588 58.1119C90.2748 58.5547 90.5712 59.317 90.4211 60.06L89.166 66.2393C89.5933 66.3817 89.9745 66.6782 90.217 67.1017C90.7483 68.0218 90.4326 69.1999 89.5125 69.7351L87.5644 70.8593C87.2641 71.0287 86.933 71.1134 86.6019 71.1134L86.598 71.1249Z" fill="#9BB8CC"/>
<path d="M147.293 71.1865C146.716 71.1865 146.142 70.9247 145.769 70.4358C145.183 69.6696 145.249 68.5878 145.93 67.9063L146.211 67.6253L143.532 69.1691C142.708 69.6542 141.638 69.4425 141.045 68.6802C140.452 67.9179 140.521 66.836 141.199 66.1507L146.338 60.9609L143.532 62.5818C142.712 63.063 141.657 62.8628 141.06 62.1121C140.467 61.369 140.51 60.2949 141.16 59.6019L147.536 52.7874L143.528 55.1012C142.685 55.5979 141.584 55.363 141.006 54.5622C140.429 53.7614 140.548 52.6526 141.287 51.9943L142.866 50.5929C142.234 50.6968 141.503 50.4504 141.06 49.8922C140.467 49.1491 140.502 48.0827 141.149 47.3858L147.763 40.2248L143.524 42.6696C142.689 43.1624 141.599 42.9352 141.018 42.1498C140.436 41.3644 140.533 40.2633 141.253 39.5973L144.14 36.9023L143.528 37.2526C142.689 37.7531 141.599 37.5221 141.014 36.7252C140.436 35.9321 140.54 34.831 141.264 34.1688L143.547 32.0705L143.528 32.0821C142.704 32.571 141.634 32.3554 141.041 31.5931C140.448 30.8308 140.517 29.749 141.195 29.0637L146.335 23.8585L143.528 25.4793C142.712 25.9606 141.665 25.7604 141.06 25.0173C140.467 24.2781 140.502 23.2078 141.145 22.511L146.989 16.17L143.528 18.1682C142.77 18.6148 141.811 18.48 141.195 17.8525C140.583 17.2288 140.467 16.2701 140.914 15.5155L144.598 9.34781C143.694 9.84831 142.527 9.54031 142 8.62401C141.464 7.70386 141.78 6.52576 142.704 5.99446L149.084 2.31386C149.838 1.86726 150.801 2.00201 151.417 2.62956C152.029 3.25326 152.144 4.21191 151.698 4.96651L148.013 11.1304L155.979 6.53346C156.799 6.05221 157.842 6.25241 158.447 6.99546C159.04 7.73466 159.005 8.80496 158.362 9.50181L152.518 15.8466L156.776 13.3865C157.607 12.9052 158.67 13.117 159.263 13.8754C159.852 14.6377 159.787 15.7196 159.109 16.4049L153.969 21.6101L156.791 19.9815C157.634 19.4887 158.72 19.7159 159.305 20.509C159.883 21.3021 159.779 22.4032 159.055 23.0654L156.78 25.1521L156.799 25.1444C157.638 24.6516 158.724 24.8787 159.305 25.6641C159.887 26.4495 159.79 27.5506 159.07 28.2167L156.187 30.9117L156.807 30.5536C157.627 30.0762 158.674 30.2726 159.274 31.0156C159.867 31.7587 159.833 32.8251 159.186 33.522L152.572 40.6868L156.822 38.2305C157.673 37.7377 158.77 37.9726 159.344 38.7695C159.921 39.5703 159.798 40.6791 159.063 41.3375L157.492 42.7312C158.173 42.6388 158.859 42.8775 159.305 43.4396C159.898 44.1826 159.856 45.2568 159.205 45.9498L152.826 52.7681L156.853 50.4427C157.684 49.9615 158.747 50.1694 159.34 50.9317C159.933 51.694 159.864 52.7758 159.186 53.4611L154.046 58.6471L156.864 57.0224C157.696 56.5373 158.762 56.749 159.351 57.5152C159.937 58.2775 159.871 59.3632 159.19 60.0446L157.989 61.2535C158.37 61.2805 158.735 61.4229 159.047 61.6732C159.663 62.1737 159.914 63.0014 159.667 63.7599L158.816 66.4087C159.094 66.5704 159.336 66.8091 159.509 67.1094C160.044 68.0295 159.729 69.2076 158.805 69.7389L156.857 70.8631C156.164 71.2635 155.305 71.1981 154.685 70.6937C154.069 70.1932 153.819 69.3655 154.065 68.607L154.47 67.3404L148.252 70.9286C147.952 71.1057 147.624 71.1865 147.293 71.1865Z" fill="#9BB8CC"/>
<path d="M71.5946 113.567C70.9517 113.567 70.3241 113.244 69.9584 112.663C69.4078 111.781 69.6581 110.626 70.5205 110.045L97.7438 91.7609L66.528 109.783C65.6348 110.31 64.4914 110.018 63.937 109.144C63.3864 108.266 63.6251 107.115 64.4798 106.526L90.8023 88.5115L66.528 102.525C65.6387 103.041 64.5106 102.768 63.9524 101.909C63.3941 101.055 63.602 99.9075 64.4298 99.3069L89.1468 81.235L66.528 94.2942C65.6387 94.8139 64.5029 94.5329 63.9485 93.6705C63.3941 92.8081 63.6136 91.6608 64.449 91.0602L75.1636 83.4218L66.5319 88.4037C65.6733 88.9042 64.5799 88.6616 64.0063 87.8608C63.4288 87.0562 63.5558 85.9474 64.2989 85.2929L78.2012 73.0422L66.5319 79.7758C65.6733 80.2725 64.5876 80.0376 64.0101 79.2368C63.4326 78.4399 63.5481 77.3349 64.2835 76.6766L68.788 72.6379L66.5319 73.9392C65.7503 74.3974 64.757 74.2357 64.1449 73.5696C63.5366 72.8997 63.475 71.8949 63.9986 71.1595L66.7128 67.3288C65.939 67.2749 65.3653 66.9977 65.0034 66.3663C64.4721 65.4461 64.7878 64.268 65.708 63.7367L72.0836 60.0561C72.8613 59.598 73.8546 59.7558 74.4706 60.4257C75.0789 61.0956 75.1405 62.1005 74.6169 62.8358L72.226 66.2084L82.8982 60.0484C83.7529 59.5441 84.8386 59.7866 85.42 60.5874C85.9975 61.3844 85.882 62.4893 85.1466 63.1477L80.6498 67.1825L93.0045 60.0484C93.863 59.5479 94.9526 59.7905 95.5301 60.5913C96.1076 61.3959 95.9805 62.5047 95.2375 63.1592L81.3313 75.4138L107.946 60.0523C108.836 59.5325 109.971 59.8136 110.526 60.676C111.08 61.5384 110.861 62.6857 110.025 63.2863L99.3185 70.9208L118.149 60.0523C119.034 59.5325 120.162 59.8097 120.724 60.6683C121.287 61.523 121.075 62.6703 120.247 63.2709L95.5416 81.3351L132.409 60.0523C133.31 59.5325 134.45 59.8174 135 60.6914C135.555 61.5692 135.312 62.7203 134.457 63.3094L108.123 81.3312L144.979 60.0561C145.877 59.5287 147.028 59.8174 147.574 60.7029C148.129 61.5846 147.879 62.7396 147.012 63.3209L119.8 81.5969L157.088 60.0715C157.996 59.5441 159.147 59.8367 159.69 60.7299C160.237 61.6154 159.975 62.7781 159.105 63.3517L141.98 74.5167L162.57 62.6318C163.467 62.1043 164.614 62.3931 165.169 63.2786C165.719 64.1602 165.465 65.3191 164.607 65.8966L141.953 81.0694L164.491 68.0603C165.377 67.5405 166.52 67.8216 167.075 68.6878C167.633 69.5579 167.406 70.7052 166.563 71.2981L141.915 88.6809L164.511 75.6332C165.392 75.1135 166.528 75.3945 167.09 76.2492C167.648 77.1116 167.433 78.2551 166.605 78.8595L149.342 91.372L164.53 82.6056C165.392 82.0974 166.505 82.3515 167.075 83.1715C167.644 83.9916 167.487 85.1196 166.713 85.7549L151.49 98.2943L164.553 90.756C165.404 90.2594 166.501 90.4942 167.078 91.3027C167.656 92.1074 167.529 93.22 166.782 93.8707L159.667 100.108L164.568 97.2779C165.307 96.8544 166.239 96.9584 166.859 97.5474C167.475 98.1365 167.633 99.0643 167.248 99.8228L163.76 106.618L164.595 106.137C165.512 105.598 166.693 105.913 167.225 106.841C167.76 107.761 167.444 108.94 166.52 109.471L160.025 113.221C159.286 113.656 158.358 113.54 157.735 112.951C157.119 112.362 156.961 111.434 157.346 110.676L160.834 103.881L144.625 113.24C143.778 113.744 142.677 113.506 142.1 112.693C141.522 111.889 141.649 110.78 142.396 110.125L149.515 103.888L133.295 113.252C132.432 113.76 131.32 113.502 130.75 112.686C130.18 111.862 130.338 110.738 131.112 110.102L146.331 97.5667L119.127 113.271C118.241 113.791 117.102 113.51 116.551 112.655C115.993 111.792 116.208 110.649 117.036 110.045L134.3 97.5282L107.011 113.286C106.125 113.81 104.986 113.525 104.427 112.659C103.873 111.789 104.1 110.641 104.939 110.048L129.599 92.6618L93.8476 113.298C92.9506 113.829 91.7994 113.533 91.2527 112.651C90.7022 111.769 90.9524 110.61 91.8148 110.033L114.468 94.8563L82.5055 113.309C81.6008 113.833 80.4458 113.54 79.9029 112.651C79.3562 111.765 79.618 110.603 80.492 110.029L97.6322 98.8526L72.5725 113.321C72.2684 113.498 71.9373 113.579 71.61 113.579L71.5946 113.567Z" fill="#BAD0E2"/>
<path d="M110.457 228.959C109.814 228.959 109.182 228.636 108.82 228.051C108.27 227.169 108.524 226.01 109.39 225.433L124.705 215.238L102.117 228.278C101.209 228.802 100.058 228.505 99.5148 227.62C98.9681 226.73 99.2338 225.568 100.108 224.998L114.149 215.877L95.0296 226.915C94.1325 227.435 92.9814 227.15 92.4347 226.268C91.8841 225.387 92.1305 224.232 92.9929 223.65L129.633 198.983L86.5288 223.87C85.6279 224.393 84.4806 224.105 83.9339 223.223C83.3872 222.341 83.6297 221.186 84.4921 220.605L129.533 190.29L78.8018 219.577C77.9086 220.104 76.7536 219.816 76.2031 218.926C75.6525 218.045 75.9066 216.882 76.7729 216.305L124.436 184.677L72.5417 214.634C71.637 215.157 70.482 214.861 69.9391 213.975C69.3924 213.086 69.6542 211.923 70.532 211.353L115.088 182.378L67.7716 209.694C66.8707 210.222 65.7157 209.925 65.169 209.04C64.6223 208.154 64.8802 206.991 65.7503 206.418L119.431 171.206L63.3017 203.611C62.4008 204.142 61.2381 203.842 60.6953 202.945C60.1524 202.052 60.4219 200.889 61.3036 200.323L104.42 172.749L60.3064 198.217C59.4017 198.752 58.2428 198.448 57.7 197.551C57.1533 196.662 57.4228 195.495 58.3044 194.929L107.346 163.44L57.7885 192.05C56.8838 192.581 55.7249 192.277 55.1821 191.387C54.6354 190.494 54.9049 189.331 55.7827 188.762L108.697 154.716L55.9752 185.154C55.0627 185.682 53.9 185.381 53.361 184.477C52.822 183.572 53.1069 182.405 54.0001 181.851L68.838 172.665L55.3014 180.476C54.3928 181 53.234 180.704 52.6911 179.807C52.1483 178.909 52.4216 177.743 53.311 177.181L92.0304 152.691L54.9857 174.078C54.0771 174.609 52.9144 174.305 52.3754 173.404C51.8364 172.503 52.1098 171.34 52.9991 170.782L81.2889 152.984L54.9857 168.168C54.0771 168.695 52.9183 168.395 52.3754 167.498C51.8326 166.605 52.1059 165.438 52.9914 164.876L80.5112 147.397L54.9857 162.131C54.0848 162.651 52.9375 162.362 52.3908 161.484C51.8403 160.603 52.0867 159.452 52.9452 158.87L96.6504 129.387L54.9857 153.438C54.0848 153.973 52.926 153.669 52.3793 152.772C51.8364 151.882 52.1059 150.716 52.9837 150.15L64.2835 142.9L54.9857 148.267C54.0887 148.795 52.9375 148.506 52.3908 147.617C51.8403 146.735 52.0905 145.58 52.9529 144.999L73.8931 130.989L54.9819 141.903C54.0925 142.419 52.9606 142.142 52.4062 141.287C51.848 140.425 52.0636 139.281 52.8913 138.681L78.1435 120.363L54.9857 133.734C54.0964 134.261 52.9452 133.972 52.3947 133.091C51.8441 132.213 52.0828 131.062 52.9414 130.476L57.2611 127.527L54.9896 128.84C54.1233 129.345 53.0261 129.094 52.4563 128.286C51.8826 127.473 52.0212 126.357 52.7758 125.71L68.4723 112.281L54.9934 120.062C54.131 120.559 53.0492 120.324 52.4717 119.523C51.8942 118.722 52.0135 117.617 52.7489 116.959L59.1938 111.211L54.9934 113.633C54.1772 114.106 53.1454 113.91 52.5448 113.194C51.9481 112.47 51.9596 111.415 52.5756 110.707L56.0175 106.741C55.4516 106.66 54.9241 106.333 54.6123 105.798C54.081 104.878 54.3967 103.7 55.3168 103.168L63.2093 98.61C64.0217 98.1288 65.0535 98.329 65.6579 99.0489C66.2547 99.7727 66.2431 100.828 65.6271 101.536L62.9976 104.566L73.4734 98.5215C74.3281 98.0171 75.4177 98.2597 75.9952 99.0605C76.5727 99.8613 76.4533 100.966 75.718 101.625L69.2808 107.369L84.6038 98.5215C85.4662 98.0133 86.5673 98.2674 87.1371 99.0759C87.7107 99.8882 87.5721 101.005 86.8175 101.652L71.1172 115.084L99.8036 98.5215C100.701 97.9979 101.848 98.2828 102.395 99.1644C102.945 100.042 102.706 101.193 101.848 101.779L97.5282 104.728L108.274 98.5253C109.155 98.0056 110.295 98.2866 110.849 99.1413C111.407 100.004 111.192 101.147 110.364 101.748L85.1158 120.062L122.418 98.5253C123.319 97.9979 124.463 98.2866 125.017 99.1721C125.568 100.054 125.314 101.213 124.455 101.794L103.507 115.808L133.441 98.5292C134.353 98.0017 135.505 98.302 136.047 99.1952C136.594 100.085 136.325 101.251 135.443 101.817L124.136 109.074L142.396 98.533C143.297 98.0056 144.437 98.2943 144.991 99.1798C145.542 100.061 145.295 101.213 144.433 101.794L100.735 131.273L157.446 98.533C158.358 98.0056 159.513 98.302 160.056 99.2029C160.599 100.096 160.326 101.263 159.444 101.825L131.932 119.3L167.306 98.8757C168.214 98.3482 169.373 98.6447 169.916 99.5494C170.463 100.446 170.182 101.613 169.296 102.171L141.022 119.958L172.542 101.759C173.454 101.232 174.609 101.528 175.152 102.429C175.695 103.33 175.418 104.493 174.536 105.055L135.82 129.541L175.518 106.626C176.426 106.094 177.593 106.399 178.132 107.303C178.675 108.204 178.386 109.375 177.493 109.929L162.666 119.111L176.03 111.396C176.934 110.868 178.089 111.169 178.636 112.058C179.183 112.951 178.913 114.114 178.036 114.684L125.11 148.737L176.034 119.338C176.938 118.811 178.093 119.107 178.64 120.004C179.187 120.894 178.917 122.06 178.039 122.626L129.017 154.104L176.037 126.958C176.946 126.43 178.101 126.73 178.644 127.624C179.191 128.517 178.917 129.68 178.039 130.246L134.931 157.815L176.041 134.08C176.946 133.549 178.093 133.849 178.644 134.735C179.191 135.62 178.933 136.783 178.063 137.356L124.382 172.569L176.045 142.743C176.95 142.215 178.105 142.508 178.648 143.401C179.198 144.29 178.933 145.453 178.059 146.023L133.495 175.006L176.049 150.439C176.95 149.911 178.101 150.2 178.648 151.089C179.198 151.971 178.944 153.134 178.078 153.711L130.407 185.343L176.049 158.993C176.95 158.466 178.093 158.759 178.644 159.64C179.194 160.522 178.948 161.677 178.086 162.258L133.041 192.577L176.049 167.748C176.95 167.217 178.093 167.513 178.644 168.395C179.194 169.277 178.948 170.432 178.086 171.013L141.445 195.68L175.868 175.806C176.777 175.283 177.924 175.575 178.474 176.465C179.021 177.354 178.756 178.517 177.882 179.087L163.848 188.2L175.071 181.72C175.972 181.189 177.119 181.481 177.67 182.371C178.22 183.252 177.966 184.411 177.104 184.989L161.781 195.187L173.3 188.538C174.174 188.019 175.302 188.296 175.864 189.135C176.426 189.982 176.238 191.122 175.429 191.734L151.278 210.114L167.398 200.808C168.276 200.289 169.415 200.566 169.978 201.428C170.536 202.291 170.32 203.434 169.489 204.035L162.274 209.247C162.639 209.409 162.959 209.679 163.171 210.052C163.706 210.972 163.39 212.15 162.466 212.682L137.753 226.95C136.871 227.47 135.732 227.188 135.174 226.33C134.615 225.468 134.831 224.324 135.662 223.723L136.694 222.98L126.958 228.601C126.08 229.113 124.952 228.844 124.394 228.005C123.831 227.158 124.02 226.018 124.829 225.406L148.976 207.034L111.446 228.698C111.142 228.875 110.811 228.956 110.483 228.956L110.457 228.959Z" fill="#D3E3F2"/>
<path d="M57.5922 101.074C52.2214 104.385 50.9625 111.242 51.1049 117.186C51.205 137.168 50.8316 157.257 51.2551 176.677C52.129 202.572 73.6736 225.868 99.5341 228.378C122.807 231.035 149.357 228.775 165.627 209.833C181.566 193.409 180.203 169.92 179.911 148.826C179.934 137.576 180.084 126.353 179.93 115.1C180.061 109.151 178.247 102.864 172.557 100.135C170.42 99.0105 168.815 97.6899 168.495 95.3876C167.906 87.3526 168.769 79.4255 168.645 71.2366C168.607 67.3442 166.901 63.5288 163.506 61.5692C161.862 60.3949 160.895 58.9858 160.749 56.799C160.603 42.8197 160.841 28.6209 160.672 14.5414C160.73 9.68659 159.171 4.17725 154.062 2.51019C149.426 0.831595 143.932 2.76044 141.411 6.9377C139.443 10.1563 139.555 14.1834 139.497 17.8601C139.555 30.7307 139.682 43.3972 139.597 55.9251C139.624 58.416 138.361 60.3603 135.716 60.4142C122.846 60.5643 109.687 60.4373 96.7082 60.4796C94.6715 60.4912 92.2345 60.187 91.6647 57.877C90.8061 43.016 91.8225 27.8971 91.2797 12.9514C91.3413 7.1456 87.3411 1.74789 81.081 2.12904C73.4888 2.15984 69.6157 9.52105 70.2279 16.3817C69.8852 30.9155 71.1211 45.3915 69.8737 59.444C69.146 61.908 66.2624 63.14 64.6377 65.4923C63.2671 67.4558 62.755 69.9891 62.601 72.4031C62.37 80.1762 62.9783 87.9186 62.5086 95.6995C62.1929 98.2251 60.4104 99.5071 58.1735 100.724L57.5883 101.086L57.5922 101.074ZM174.332 118.449C174.155 134.511 174.605 150.554 174.609 166.871C174.875 180.145 172.226 194.167 164.072 204.612C153.607 219.489 135 226.796 116.624 225.444C100.019 226.43 83.1408 222.022 71.379 209.271C59.2862 196.927 55.9367 179.271 56.672 162.127C56.6181 149.519 56.7798 136.467 56.5796 124.213C56.5026 117.752 55.3245 109.097 60.2217 104.208C61.9773 102.595 64.63 102.006 67.0362 101.84C90.9255 101.44 114.965 102.087 138.931 101.848C148.31 102.191 157.8 101.093 166.767 102.437C173.573 104.119 174.717 111.819 174.328 117.779L174.332 118.449ZM148.083 6.3679C152.244 4.5276 155.632 10.0485 155.032 13.9177C154.986 28.9866 155.117 44.2211 154.966 59.0474C154.612 61.215 152.279 60.5143 150.523 60.6375C148.491 60.5258 145.137 61.3613 145.268 58.3352C145.276 43.016 145.253 27.566 145.276 12.3354C145.249 10.3141 145.915 7.72695 147.544 6.67205L148.075 6.3679H148.083ZM78.6825 6.17539C82.5479 4.31199 86.1399 9.5095 85.7395 13.217C85.7087 28.5208 85.8242 44.0401 85.6818 59.0628C85.3237 61.2304 82.9791 60.522 81.2196 60.649C79.1907 60.522 75.8219 61.4113 75.9528 58.3775C75.9605 43.0122 75.9413 27.5506 75.9605 12.2545C75.9297 10.2256 76.5881 7.5691 78.1704 6.4911L78.6825 6.17925V6.17539ZM68.3645 68.0988C68.7071 66.0082 69.6196 64.064 71.3559 63.6597C76.2916 62.3084 82.0127 62.447 87.1332 63.0938C105.39 62.4624 124.748 62.1043 142.843 63.2632C151.586 62.0196 164.025 61.0803 163.155 73.4657C162.951 81.5007 162.697 87.7184 162.766 95.3298C162.697 97.1085 161.846 98.2289 159.91 98.3136C130.361 98.4214 100.427 98.3521 71.0171 98.3329C69.4001 98.2443 68.48 97.5359 68.2567 95.9767C67.9294 87.3296 67.5367 77.358 68.2567 68.7956L68.3645 68.0988Z" fill="#8E8E8E"/>
</svg>
