<svg width="512" height="512" viewBox="0 0 512 512" fill="none" xmlns="http://www.w3.org/2000/svg">
<path d="M407.432 456H439.432C443.676 456 447.745 457.686 450.746 460.686C453.746 463.687 455.432 467.757 455.432 472V488H407.432V456Z" fill="#F9D423"/>
<path d="M407.432 488H359.432V472C359.432 467.757 361.118 463.687 364.118 460.686C367.119 457.686 371.189 456 375.432 456H407.432V488Z" fill="#F9D423"/>
<path d="M406.624 280C424.297 280 438.624 265.673 438.624 248C438.624 230.327 424.297 216 406.624 216C388.951 216 374.624 230.327 374.624 248C374.624 265.673 388.951 280 406.624 280Z" fill="#F9D423"/>
<path d="M483.312 243.312C480.312 240.312 476.243 238.627 472 238.627C467.757 238.627 463.689 240.312 460.688 243.312L435.712 268.28C428.212 275.782 418.04 279.998 407.432 280C402.179 280.001 396.977 278.967 392.123 276.958C387.27 274.948 382.859 272.002 379.144 268.288L354.176 243.312C351.176 240.312 347.107 238.627 342.864 238.627C338.622 238.627 334.553 240.312 331.552 243.312C330.066 244.798 328.887 246.562 328.082 248.504C327.278 250.445 326.864 252.526 326.864 254.628C326.864 256.73 327.278 258.811 328.082 260.752C328.887 262.694 330.066 264.458 331.552 265.944L362.912 297.304C366.627 301.02 369.574 305.432 371.583 310.287C373.593 315.142 374.626 320.345 374.624 325.6V352H438.624V327.2C438.626 316.592 442.842 306.42 450.344 298.92L483.312 265.952C484.8 264.466 485.98 262.701 486.785 260.759C487.59 258.817 488.005 256.735 488.005 254.632C488.005 252.529 487.59 250.447 486.785 248.505C485.98 246.563 484.8 244.798 483.312 243.312Z" fill="#F9D423"/>
<path d="M374.624 352H438.624V456H374.624V352Z" fill="#A3DAFF"/>
<path d="M435.744 261.12C433.625 265.844 430.39 269.983 426.318 273.18C422.245 276.378 417.457 278.537 412.364 279.474C407.272 280.411 402.028 280.096 397.084 278.557C392.141 277.019 387.645 274.302 383.983 270.641C380.322 266.979 377.605 262.483 376.067 257.54C374.528 252.596 374.213 247.352 375.15 242.26C376.087 237.167 378.246 232.379 381.444 228.306C384.641 224.234 388.78 220.999 393.504 218.88C391.61 222.995 390.628 227.47 390.624 232C390.624 240.487 393.996 248.626 399.997 254.627C405.998 260.628 414.137 264 422.624 264C427.154 263.996 431.629 263.014 435.744 261.12Z" fill="#F9B53D"/>
<path d="M331.552 243.312C330.066 244.798 328.887 246.562 328.082 248.504C327.278 250.445 326.864 252.526 326.864 254.628C326.864 256.73 327.278 258.811 328.082 260.752C328.887 262.694 330.066 264.458 331.552 265.944L362.912 297.304C366.627 301.02 369.574 305.432 371.583 310.287C373.593 315.142 374.626 320.345 374.624 325.6V352H438.624V327.2C438.624 321.946 439.659 316.744 441.67 311.89C443.681 307.036 446.629 302.626 450.344 298.912L483.312 265.944C484.799 264.458 485.978 262.694 486.782 260.752C487.587 258.811 488.001 256.73 488.001 254.628C488.001 252.526 487.587 250.445 486.782 248.504C485.978 246.562 484.799 244.798 483.312 243.312L453.32 274.6C447.307 280.874 440.08 285.857 432.078 289.246C424.077 292.636 415.469 294.36 406.779 294.314C398.09 294.269 389.5 292.454 381.535 288.981C373.569 285.507 366.395 280.448 360.448 274.112L331.552 243.312Z" fill="#F9B53D"/>
<path d="M406.624 360C402.381 360 398.311 361.686 395.31 364.686C392.31 367.687 390.624 371.757 390.624 376V388.16C390.635 390.733 390.849 393.301 391.264 395.84C392.175 392.457 394.171 389.466 396.946 387.328C399.72 385.189 403.121 384.02 406.624 384V404.248C406.499 413.057 409.677 421.593 415.532 428.176C421.386 434.759 429.493 438.911 438.256 439.816H438.624V456H374.624V352H438.624V360H406.624Z" fill="#1EC0FF"/>
<path d="M455.44 472V488H407.44V456H416C416.013 460.24 417.703 464.302 420.7 467.3C423.698 470.298 427.761 471.987 432 472H455.44Z" fill="#F9B53D"/>
<path d="M407.44 472V488H359.44V472C359.44 467.757 361.126 463.687 364.126 460.686C367.127 457.686 371.197 456 375.44 456H376C376.032 460.234 377.727 464.285 380.721 467.279C383.715 470.273 387.766 471.969 392 472H407.44Z" fill="#F9B53D"/>
<path d="M256 384H288C292.243 384 296.313 385.686 299.314 388.686C302.314 391.687 304 395.757 304 400V416H256V384Z" fill="#F9D423"/>
<path d="M256 416H208V400C208 395.757 209.686 391.687 212.686 388.686C215.687 385.686 219.757 384 224 384H256V416Z" fill="#F9D423"/>
<path d="M255.192 208C272.865 208 287.192 193.673 287.192 176C287.192 158.327 272.865 144 255.192 144C237.519 144 223.192 158.327 223.192 176C223.192 193.673 237.519 208 255.192 208Z" fill="#F9D423"/>
<path d="M331.88 171.312C328.88 168.312 324.811 166.627 320.568 166.627C316.325 166.627 312.256 168.312 309.256 171.312L284.28 196.28C276.78 203.782 266.608 207.998 256 208C250.747 208.001 245.545 206.967 240.691 204.958C235.837 202.948 231.427 200.002 227.712 196.288L202.744 171.312C199.744 168.312 195.675 166.627 191.432 166.627C187.189 166.627 183.12 168.312 180.12 171.312C178.634 172.798 177.454 174.562 176.65 176.504C175.845 178.445 175.431 180.526 175.431 182.628C175.431 184.73 175.845 186.811 176.65 188.752C177.454 190.694 178.634 192.458 180.12 193.944L211.48 225.304C215.196 229.019 218.144 233.431 220.155 238.286C222.166 243.141 223.201 248.345 223.2 253.6V280H287.2V255.2C287.202 244.592 291.418 234.42 298.92 226.92L331.888 193.952C333.375 192.466 334.555 190.7 335.359 188.758C336.164 186.815 336.577 184.733 336.577 182.63C336.576 180.528 336.161 178.446 335.355 176.504C334.549 174.562 333.368 172.797 331.88 171.312Z" fill="#F9D423"/>
<path d="M223.192 280H287.192V384H223.192V280Z" fill="#A3DAFF"/>
<path d="M284.312 189.12C282.193 193.844 278.958 197.983 274.886 201.18C270.813 204.378 266.024 206.537 260.932 207.474C255.84 208.411 250.596 208.096 245.652 206.557C240.708 205.019 236.213 202.302 232.551 198.641C228.89 194.979 226.173 190.483 224.634 185.54C223.096 180.596 222.781 175.352 223.718 170.26C224.654 165.167 226.814 160.379 230.011 156.306C233.209 152.234 237.348 148.999 242.072 146.88C240.181 150.995 239.201 155.471 239.2 160C239.2 168.487 242.571 176.626 248.573 182.627C254.574 188.628 262.713 192 271.2 192C275.727 191.995 280.2 191.012 284.312 189.12Z" fill="#F9B53D"/>
<path d="M180.12 171.312C178.634 172.798 177.454 174.562 176.65 176.504C175.845 178.445 175.431 180.526 175.431 182.628C175.431 184.73 175.845 186.811 176.65 188.752C177.454 190.694 178.634 192.458 180.12 193.944L211.48 225.304C215.196 229.019 218.144 233.431 220.155 238.286C222.166 243.141 223.201 248.345 223.2 253.6V280H287.2V255.2C287.2 249.946 288.235 244.744 290.246 239.89C292.257 235.036 295.204 230.626 298.92 226.912L331.888 193.944C333.374 192.458 334.554 190.694 335.358 188.752C336.162 186.811 336.577 184.73 336.577 182.628C336.577 180.526 336.162 178.445 335.358 176.504C334.554 174.562 333.374 172.798 331.888 171.312L301.896 202.6C295.883 208.872 288.656 213.855 280.656 217.243C272.655 220.632 264.048 222.356 255.359 222.31C246.67 222.265 238.082 220.45 230.117 216.978C222.153 213.505 214.978 208.447 209.032 202.112L180.12 171.312Z" fill="#F9B53D"/>
<path d="M255.2 288C250.957 288 246.887 289.686 243.886 292.686C240.886 295.687 239.2 299.757 239.2 304V316.16C239.211 318.733 239.425 321.301 239.84 323.84C240.751 320.457 242.747 317.466 245.522 315.328C248.297 313.189 251.697 312.02 255.2 312V332.248C255.076 341.057 258.253 349.593 264.108 356.176C269.962 362.759 278.069 366.911 286.832 367.816H287.2V384H223.2V280H287.2V288H255.2Z" fill="#1EC0FF"/>
<path d="M304 400V416H256V384H264.56C264.573 388.24 266.262 392.302 269.26 395.3C272.258 398.298 276.32 399.987 280.56 400H304Z" fill="#F9B53D"/>
<path d="M256 400V416H208V400C208 395.757 209.686 391.687 212.686 388.686C215.687 385.686 219.757 384 224 384H224.56C224.591 388.234 226.287 392.285 229.281 395.279C232.275 398.273 236.326 399.969 240.56 400H256Z" fill="#F9B53D"/>
<path d="M104.568 456H136.568C140.812 456 144.881 457.686 147.882 460.686C150.882 463.687 152.568 467.757 152.568 472V488H104.568V456Z" fill="#F9D423"/>
<path d="M104.568 488H56.5681V472C56.5681 467.757 58.2538 463.687 61.2544 460.686C64.255 457.686 68.3247 456 72.5681 456H104.568V488Z" fill="#F9D423"/>
<path d="M103.768 280C121.441 280 135.768 265.673 135.768 248C135.768 230.327 121.441 216 103.768 216C86.095 216 71.7681 230.327 71.7681 248C71.7681 265.673 86.095 280 103.768 280Z" fill="#F9D423"/>
<path d="M180.448 243.312C177.448 240.312 173.379 238.627 169.136 238.627C164.893 238.627 160.825 240.312 157.824 243.312L132.856 268.28C129.142 271.996 124.732 274.943 119.878 276.954C115.024 278.965 109.822 280 104.568 280C99.3149 280.001 94.1129 278.967 89.2592 276.958C84.4055 274.948 79.9952 272.002 76.2801 268.288L51.3121 243.312C48.3117 240.312 44.2427 238.627 40.0001 238.627C35.7575 238.627 31.6885 240.312 28.6881 243.312C27.2017 244.798 26.0225 246.562 25.2181 248.504C24.4136 250.445 23.9995 252.526 23.9995 254.628C23.9995 256.73 24.4136 258.811 25.2181 260.752C26.0225 262.694 27.2017 264.458 28.6881 265.944L60.0481 297.304C63.7646 301.019 66.7126 305.431 68.7235 310.286C70.7345 315.141 71.7691 320.345 71.7681 325.6V352H135.768V327.2C135.768 316.593 139.981 306.421 147.48 298.92L180.448 265.952C181.936 264.466 183.116 262.701 183.921 260.759C184.726 258.817 185.141 256.735 185.141 254.632C185.141 252.529 184.726 250.447 183.921 248.505C183.116 246.563 181.936 244.798 180.448 243.312Z" fill="#F9D423"/>
<path d="M71.7681 352H135.768V456H71.7681V352Z" fill="#A3DAFF"/>
<path d="M132.888 261.12C130.778 265.864 127.545 270.024 123.469 273.24C119.392 276.456 114.594 278.631 109.489 279.579C104.384 280.526 99.1245 280.217 94.1653 278.678C89.2062 277.139 84.6961 274.417 81.0241 270.746C77.3522 267.074 74.6288 262.565 73.0889 257.606C71.5491 252.647 71.2391 247.388 72.1856 242.283C73.1322 237.177 75.3068 232.379 78.522 228.302C81.7372 224.224 85.8962 220.991 90.6401 218.88C88.7528 222.997 87.7733 227.471 87.7681 232C87.7681 240.487 91.1395 248.626 97.1407 254.627C103.142 260.628 111.281 264 119.768 264C124.298 263.996 128.773 263.014 132.888 261.12Z" fill="#F9B53D"/>
<path d="M28.6881 243.312C27.2017 244.798 26.0225 246.562 25.2181 248.504C24.4136 250.445 23.9995 252.526 23.9995 254.628C23.9995 256.73 24.4136 258.811 25.2181 260.752C26.0225 262.694 27.2017 264.458 28.6881 265.944L60.0481 297.304C63.7646 301.019 66.7126 305.431 68.7235 310.286C70.7345 315.141 71.7691 320.345 71.7681 325.6V352H135.768V327.2C135.767 321.947 136.801 316.745 138.81 311.891C140.82 307.037 143.766 302.627 147.48 298.912L180.448 265.944C181.935 264.458 183.114 262.694 183.918 260.752C184.723 258.811 185.137 256.73 185.137 254.628C185.137 252.526 184.723 250.445 183.918 248.504C183.114 246.562 181.935 244.798 180.448 243.312L150.456 274.6C144.443 280.871 137.217 285.852 129.217 289.24C121.217 292.628 112.611 294.352 103.923 294.306C95.2356 294.26 86.6481 292.446 78.6842 288.975C70.7202 285.503 63.5465 280.446 57.6001 274.112L28.6881 243.312Z" fill="#F9B53D"/>
<path d="M103.768 360C99.5246 360 95.4549 361.686 92.4544 364.686C89.4538 367.687 87.7681 371.757 87.7681 376V388.16C87.7791 390.733 87.9931 393.301 88.4081 395.84C89.3117 392.453 91.3058 389.458 94.0822 387.318C96.8586 385.178 100.263 384.012 103.768 384V404.248C103.642 413.056 106.818 421.592 112.671 428.175C118.524 434.758 126.63 438.911 135.392 439.816H135.768V456H71.7681V352H135.768V360H103.768Z" fill="#1EC0FF"/>
<path d="M152.576 472V488H104.576V456H113.136C113.149 460.24 114.839 464.302 117.836 467.3C120.834 470.298 124.897 471.987 129.136 472H152.576Z" fill="#F9B53D"/>
<path d="M104.576 472V488H56.5762V472C56.5762 467.757 58.2619 463.687 61.2625 460.686C64.263 457.686 68.3327 456 72.5762 456H73.1362C73.1676 460.234 74.8634 464.285 77.8572 467.279C80.851 470.273 84.9024 471.969 89.1362 472H104.576Z" fill="#F9B53D"/>
<path d="M455.032 237.656L446.448 246.232C446.035 236.085 441.761 226.479 434.5 219.379C427.239 212.279 417.54 208.221 407.386 208.035C397.233 207.849 387.391 211.549 379.875 218.379C372.359 225.208 367.737 234.651 366.952 244.776L359.832 237.656C355.259 233.292 349.181 230.858 342.86 230.858C336.539 230.858 330.461 233.292 325.888 237.656C321.389 242.157 318.861 248.26 318.861 254.624C318.861 260.988 321.389 267.091 325.888 271.592L331.152 276.848C332.661 278.305 334.682 279.112 336.779 279.093C338.877 279.075 340.883 278.234 342.367 276.751C343.85 275.267 344.691 273.261 344.709 271.163C344.728 269.066 343.921 267.045 342.464 265.536L337.2 260.28C335.7 258.78 334.858 256.745 334.858 254.624C334.858 252.503 335.7 250.468 337.2 248.968C338.725 247.513 340.752 246.701 342.86 246.701C344.968 246.701 346.995 247.513 348.52 248.968L373.488 273.936C382.49 282.937 394.698 287.994 407.428 287.994C420.158 287.994 432.366 282.937 441.368 273.936L466.344 248.968C467.865 247.508 469.892 246.693 472 246.693C474.108 246.693 476.135 247.508 477.656 248.968C479.156 250.468 479.998 252.503 479.998 254.624C479.998 256.745 479.156 258.78 477.656 260.28L444.688 293.256C440.217 297.704 436.673 302.994 434.26 308.82C431.847 314.647 430.614 320.894 430.632 327.2V344H382.632V325.6C382.647 319.295 381.412 313.049 378.998 307.224C376.584 301.399 373.039 296.11 368.568 291.664L365.088 288.184C363.588 286.683 361.553 285.839 359.431 285.838C357.309 285.838 355.273 286.68 353.772 288.18C352.271 289.68 351.427 291.715 351.426 293.837C351.426 295.959 352.268 297.995 353.768 299.496L357.256 302.976C360.237 305.94 362.601 309.465 364.21 313.349C365.82 317.232 366.643 321.396 366.632 325.6V449.72C362.158 451.483 358.317 454.55 355.606 458.523C352.896 462.496 351.442 467.191 351.432 472V488C351.432 490.122 352.275 492.157 353.775 493.657C355.275 495.157 357.31 496 359.432 496H455.432C457.554 496 459.589 495.157 461.089 493.657C462.589 492.157 463.432 490.122 463.432 488V472C463.414 466.911 461.776 461.961 458.756 457.865C455.735 453.77 451.489 450.743 446.632 449.224V384C446.632 381.878 445.789 379.843 444.289 378.343C442.789 376.843 440.754 376 438.632 376C436.51 376 434.475 376.843 432.975 378.343C431.475 379.843 430.632 381.878 430.632 384V448H414.632V392C414.632 389.878 413.789 387.843 412.289 386.343C410.789 384.843 408.754 384 406.632 384C404.51 384 402.475 384.843 400.975 386.343C399.475 387.843 398.632 389.878 398.632 392V448H382.632V360H438.632C440.754 360 442.789 359.157 444.289 357.657C445.789 356.157 446.632 354.122 446.632 352V327.2C446.62 322.996 447.442 318.831 449.05 314.946C450.658 311.061 453.02 307.534 456 304.568L488.968 271.6C491.197 269.371 492.965 266.725 494.172 263.813C495.378 260.901 495.999 257.78 495.999 254.628C495.999 251.476 495.378 248.355 494.172 245.443C492.965 242.531 491.197 239.885 488.968 237.656C484.395 233.295 478.319 230.861 472 230.861C465.681 230.861 459.605 233.295 455.032 237.656ZM406.632 224C411.379 224 416.019 225.408 419.966 228.045C423.912 230.682 426.989 234.43 428.805 238.816C430.622 243.201 431.097 248.027 430.171 252.682C429.245 257.338 426.959 261.614 423.603 264.971C420.246 268.327 415.97 270.613 411.314 271.539C406.659 272.465 401.833 271.99 397.448 270.173C393.062 268.357 389.314 265.28 386.677 261.334C384.04 257.387 382.632 252.747 382.632 248C382.632 241.635 385.161 235.53 389.661 231.029C394.162 226.529 400.267 224 406.632 224ZM439.432 464C441.554 464 443.589 464.843 445.089 466.343C446.589 467.843 447.432 469.878 447.432 472V480H415.432V464H439.432ZM399.432 464V480H367.432V472C367.432 469.878 368.275 467.843 369.775 466.343C371.275 464.843 373.31 464 375.432 464H399.432Z" fill="#1C232D"/>
<path d="M152.168 237.656L145.048 244.776C144.263 234.651 139.64 225.208 132.124 218.379C124.609 211.549 114.767 207.849 104.614 208.035C94.4601 208.221 84.7611 212.279 77.5002 219.379C70.2393 226.479 65.9652 236.085 65.552 246.232L56.976 237.656C52.4031 233.292 46.325 230.858 40.004 230.858C33.683 230.858 27.605 233.292 23.032 237.656C18.5327 242.157 16.0051 248.26 16.0051 254.624C16.0051 260.988 18.5327 267.091 23.032 271.592L56 304.568C58.9797 307.534 61.3419 311.061 62.9499 314.946C64.5578 318.831 65.3797 322.996 65.368 327.2V449.224C60.5114 450.743 56.265 453.77 53.2443 457.865C50.2236 461.961 48.5857 466.911 48.568 472V488C48.568 490.122 49.4109 492.157 50.9111 493.657C52.4114 495.157 54.4463 496 56.568 496H152.568C154.69 496 156.725 495.157 158.225 493.657C159.725 492.157 160.568 490.122 160.568 488V472C160.557 467.192 159.102 462.499 156.391 458.528C153.681 454.556 149.841 451.491 145.368 449.728V384C145.368 381.878 144.525 379.843 143.025 378.343C141.525 376.843 139.49 376 137.368 376C135.246 376 133.211 376.843 131.711 378.343C130.211 379.843 129.368 381.878 129.368 384V448H113.368V392C113.368 389.878 112.525 387.843 111.025 386.343C109.525 384.843 107.49 384 105.368 384C103.246 384 101.211 384.843 99.7111 386.343C98.2109 387.843 97.368 389.878 97.368 392V448H81.368V360H137.368C139.49 360 141.525 359.157 143.025 357.657C144.525 356.157 145.368 354.122 145.368 352V325.6C145.357 321.394 146.182 317.229 147.792 313.344C149.403 309.459 151.769 305.932 154.752 302.968L158.232 299.488C158.995 298.749 159.603 297.865 160.021 296.889C160.439 295.912 160.658 294.862 160.666 293.8C160.673 292.738 160.469 291.685 160.066 290.702C159.662 289.719 159.067 288.827 158.315 288.077C157.563 287.327 156.668 286.734 155.685 286.333C154.701 285.933 153.647 285.732 152.585 285.742C151.523 285.753 150.474 285.975 149.498 286.396C148.523 286.816 147.641 287.427 146.904 288.192L143.432 291.664C138.961 296.11 135.416 301.399 133.002 307.224C130.588 313.049 129.353 319.295 129.368 325.6V344H81.368V327.2C81.3848 320.895 80.1512 314.649 77.7385 308.824C75.3258 302.999 71.782 297.711 67.312 293.264L34.336 260.272C32.8387 258.772 31.9977 256.739 31.9977 254.62C31.9977 252.501 32.8387 250.468 34.336 248.968C35.8571 247.508 37.8837 246.693 39.992 246.693C42.1003 246.693 44.1269 247.508 45.648 248.968L70.616 273.936C79.6177 282.937 91.8262 287.994 104.556 287.994C117.286 287.994 129.494 282.937 138.496 273.936L163.472 248.968C164.993 247.508 167.02 246.693 169.128 246.693C171.236 246.693 173.263 247.508 174.784 248.968C176.284 250.468 177.126 252.503 177.126 254.624C177.126 256.745 176.284 258.78 174.784 260.28L169.528 265.536C168.028 267.037 167.186 269.073 167.186 271.195C167.187 273.317 168.031 275.352 169.532 276.852C171.033 278.352 173.069 279.194 175.191 279.194C177.313 279.193 179.348 278.349 180.848 276.848L186.096 271.6C188.325 269.371 190.093 266.725 191.3 263.813C192.506 260.901 193.127 257.78 193.127 254.628C193.127 251.476 192.506 248.355 191.3 245.443C190.093 242.531 188.325 239.885 186.096 237.656C181.524 233.297 175.449 230.865 169.132 230.865C162.815 230.865 156.74 233.297 152.168 237.656ZM136.568 464C138.69 464 140.725 464.843 142.225 466.343C143.725 467.843 144.568 469.878 144.568 472V480H112.568V464H136.568ZM96.568 464V480H64.568V472C64.568 469.878 65.4109 467.843 66.9111 466.343C68.4114 464.843 70.4463 464 72.568 464H96.568ZM105.368 224C110.115 224 114.755 225.408 118.702 228.045C122.648 230.682 125.725 234.43 127.541 238.816C129.358 243.201 129.833 248.027 128.907 252.682C127.981 257.338 125.695 261.614 122.339 264.971C118.982 268.327 114.706 270.613 110.05 271.539C105.395 272.465 100.569 271.99 96.1836 270.173C91.7982 268.357 88.0499 265.28 85.4127 261.334C82.7756 257.387 81.368 252.747 81.368 248C81.368 241.635 83.8966 235.53 88.3974 231.029C92.8983 226.529 99.0028 224 105.368 224Z" fill="#1C232D"/>
<path d="M295.2 377.224V312C295.2 309.878 294.357 307.843 292.857 306.343C291.357 304.843 289.322 304 287.2 304C285.078 304 283.043 304.843 281.543 306.343C280.043 307.843 279.2 309.878 279.2 312V376H263.2V320C263.2 317.878 262.357 315.843 260.857 314.343C259.357 312.843 257.322 312 255.2 312C253.078 312 251.043 312.843 249.543 314.343C248.043 315.843 247.2 317.878 247.2 320V376H231.2V288H287.2C289.322 288 291.357 287.157 292.857 285.657C294.357 284.156 295.2 282.122 295.2 280V255.2C295.189 250.996 296.012 246.832 297.622 242.949C299.231 239.065 301.595 235.54 304.576 232.576L337.544 199.6C341.916 195.073 344.335 189.011 344.28 182.718C344.225 176.426 341.701 170.406 337.252 165.956C332.802 161.506 326.782 158.982 320.49 158.928C314.197 158.873 308.134 161.292 303.608 165.664L295.016 174.24C294.6 164.093 290.324 154.489 283.062 147.391C275.799 140.293 266.1 136.237 255.947 136.053C245.793 135.869 235.953 139.571 228.439 146.402C220.924 153.232 216.303 162.675 215.52 172.8L208.4 165.68C203.887 161.239 197.803 158.761 191.471 158.786C185.14 158.811 179.075 161.337 174.598 165.814C170.12 170.29 167.593 176.354 167.566 182.686C167.54 189.017 170.016 195.102 174.456 199.616L179.712 204.872C181.212 206.373 183.247 207.217 185.369 207.217C187.491 207.218 189.527 206.376 191.028 204.876C192.529 203.376 193.373 201.341 193.374 199.219C193.374 197.097 192.532 195.061 191.032 193.56L185.776 188.304C184.319 186.795 183.512 184.774 183.531 182.677C183.549 180.579 184.39 178.573 185.873 177.089C187.357 175.606 189.363 174.765 191.461 174.746C193.558 174.728 195.579 175.535 197.088 176.992L222.056 201.96C226.513 206.418 231.805 209.954 237.629 212.367C243.453 214.78 249.696 216.022 256 216.022C262.304 216.022 268.547 214.78 274.371 212.367C280.195 209.954 285.487 206.418 289.944 201.96L314.912 176.992C315.65 176.228 316.533 175.618 317.509 175.199C318.485 174.78 319.535 174.559 320.597 174.55C321.659 174.541 322.712 174.743 323.696 175.145C324.679 175.548 325.572 176.142 326.323 176.893C327.074 177.644 327.668 178.537 328.071 179.52C328.473 180.503 328.675 181.557 328.666 182.619C328.657 183.681 328.436 184.731 328.017 185.707C327.598 186.683 326.988 187.566 326.224 188.304L293.256 221.28C288.787 225.723 285.243 231.009 282.83 236.832C280.417 242.654 279.184 248.897 279.2 255.2V272H231.2V253.6C231.217 247.296 229.984 241.051 227.572 235.226C225.161 229.401 221.619 224.112 217.152 219.664L213.664 216.184C212.164 214.683 210.129 213.839 208.007 213.838C205.885 213.837 203.849 214.68 202.348 216.18C200.847 217.68 200.003 219.715 200.002 221.837C200.002 223.959 200.844 225.995 202.344 227.496L205.832 230.976C208.811 233.941 211.172 237.467 212.78 241.35C214.388 245.234 215.211 249.397 215.2 253.6V377.728C210.727 379.491 206.887 382.556 204.176 386.527C201.466 390.499 200.011 395.192 200 400V416C200 418.122 200.843 420.156 202.343 421.657C203.843 423.157 205.878 424 208 424H304C306.122 424 308.157 423.157 309.657 421.657C311.157 420.156 312 418.122 312 416V400C311.984 394.911 310.346 389.959 307.325 385.864C304.304 381.769 300.057 378.742 295.2 377.224ZM255.2 152C259.947 152 264.587 153.407 268.534 156.045C272.48 158.682 275.557 162.43 277.373 166.815C279.19 171.201 279.665 176.027 278.739 180.682C277.813 185.338 275.527 189.614 272.171 192.97C268.814 196.327 264.538 198.613 259.882 199.539C255.227 200.465 250.401 199.989 246.016 198.173C241.63 196.356 237.882 193.28 235.245 189.334C232.608 185.387 231.2 180.747 231.2 176C231.2 169.635 233.729 163.53 238.229 159.029C242.73 154.528 248.835 152 255.2 152ZM216 400C216 397.878 216.843 395.843 218.343 394.343C219.843 392.843 221.878 392 224 392H248V408H216V400ZM296 408H264V392H288C290.122 392 292.157 392.843 293.657 394.343C295.157 395.843 296 397.878 296 400V408Z" fill="#1C232D"/>
<path d="M72 48H80V56C80 58.1217 80.8429 60.1566 82.3431 61.6569C83.8434 63.1571 85.8783 64 88 64C90.1217 64 92.1566 63.1571 93.6569 61.6569C95.1571 60.1566 96 58.1217 96 56V48H104C106.122 48 108.157 47.1571 109.657 45.6569C111.157 44.1566 112 42.1217 112 40C112 37.8783 111.157 35.8434 109.657 34.3431C108.157 32.8429 106.122 32 104 32H96V24C96 21.8783 95.1571 19.8434 93.6569 18.3431C92.1566 16.8429 90.1217 16 88 16C85.8783 16 83.8434 16.8429 82.3431 18.3431C80.8429 19.8434 80 21.8783 80 24V32H72C69.8783 32 67.8434 32.8429 66.3431 34.3431C64.8429 35.8434 64 37.8783 64 40C64 42.1217 64.8429 44.1566 66.3431 45.6569C67.8434 47.1571 69.8783 48 72 48Z" fill="#F9B53D"/>
<path d="M24 144H32V152C32 154.122 32.8429 156.157 34.3431 157.657C35.8434 159.157 37.8783 160 40 160C42.1217 160 44.1566 159.157 45.6569 157.657C47.1571 156.157 48 154.122 48 152V144H56C58.1217 144 60.1566 143.157 61.6569 141.657C63.1571 140.157 64 138.122 64 136C64 133.878 63.1571 131.843 61.6569 130.343C60.1566 128.843 58.1217 128 56 128H48V120C48 117.878 47.1571 115.843 45.6569 114.343C44.1566 112.843 42.1217 112 40 112C37.8783 112 35.8434 112.843 34.3431 114.343C32.8429 115.843 32 117.878 32 120V128H24C21.8783 128 19.8434 128.843 18.3431 130.343C16.8429 131.843 16 133.878 16 136C16 138.122 16.8429 140.157 18.3431 141.657C19.8434 143.157 21.8783 144 24 144Z" fill="#F9B53D"/>
<path d="M80 112C84.4183 112 88 108.418 88 104C88 99.5817 84.4183 96 80 96C75.5817 96 72 99.5817 72 104C72 108.418 75.5817 112 80 112Z" fill="#F9B53D"/>
<path d="M24 104C28.4183 104 32 100.418 32 96C32 91.5817 28.4183 88 24 88C19.5817 88 16 91.5817 16 96C16 100.418 19.5817 104 24 104Z" fill="#F9B53D"/>
<path d="M130.76 72C135.178 72 138.76 68.4183 138.76 64C138.76 59.5817 135.178 56 130.76 56C126.342 56 122.76 59.5817 122.76 64C122.76 68.4183 126.342 72 130.76 72Z" fill="#F9B53D"/>
<path d="M294.928 48H302.928V56C302.928 58.1217 303.771 60.1566 305.271 61.6569C306.771 63.1571 308.806 64 310.928 64C313.05 64 315.085 63.1571 316.585 61.6569C318.085 60.1566 318.928 58.1217 318.928 56V48H326.928C329.05 48 331.085 47.1571 332.585 45.6569C334.085 44.1566 334.928 42.1217 334.928 40C334.928 37.8783 334.085 35.8434 332.585 34.3431C331.085 32.8429 329.05 32 326.928 32H318.928V24C318.928 21.8783 318.085 19.8434 316.585 18.3431C315.085 16.8429 313.05 16 310.928 16C308.806 16 306.771 16.8429 305.271 18.3431C303.771 19.8434 302.928 21.8783 302.928 24V32H294.928C292.806 32 290.771 32.8429 289.271 34.3431C287.771 35.8434 286.928 37.8783 286.928 40C286.928 42.1217 287.771 44.1566 289.271 45.6569C290.771 47.1571 292.806 48 294.928 48Z" fill="#F9B53D"/>
<path d="M176 48H184V56C184 58.1217 184.843 60.1566 186.343 61.6569C187.843 63.1571 189.878 64 192 64C194.122 64 196.157 63.1571 197.657 61.6569C199.157 60.1566 200 58.1217 200 56V48H208C210.122 48 212.157 47.1571 213.657 45.6569C215.157 44.1566 216 42.1217 216 40C216 37.8783 215.157 35.8434 213.657 34.3431C212.157 32.8429 210.122 32 208 32H200V24C200 21.8783 199.157 19.8434 197.657 18.3431C196.157 16.8429 194.122 16 192 16C189.878 16 187.843 16.8429 186.343 18.3431C184.843 19.8434 184 21.8783 184 24V32H176C173.878 32 171.843 32.8429 170.343 34.3431C168.843 35.8434 168 37.8783 168 40C168 42.1217 168.843 44.1566 170.343 45.6569C171.843 47.1571 173.878 48 176 48Z" fill="#F9B53D"/>
<path d="M420 60H428V68C428 70.1217 428.843 72.1566 430.343 73.6569C431.843 75.1571 433.878 76 436 76C438.122 76 440.157 75.1571 441.657 73.6569C443.157 72.1566 444 70.1217 444 68V60H452C454.122 60 456.157 59.1571 457.657 57.6569C459.157 56.1566 460 54.1217 460 52C460 49.8783 459.157 47.8434 457.657 46.3431C456.157 44.8429 454.122 44 452 44H444V36C444 33.8783 443.157 31.8434 441.657 30.3431C440.157 28.8429 438.122 28 436 28C433.878 28 431.843 28.8429 430.343 30.3431C428.843 31.8434 428 33.8783 428 36V44H420C417.878 44 415.843 44.8429 414.343 46.3431C412.843 47.8434 412 49.8783 412 52C412 54.1217 412.843 56.1566 414.343 57.6569C415.843 59.1571 417.878 60 420 60Z" fill="#F9B53D"/>
<path d="M488 64C492.418 64 496 60.4183 496 56C496 51.5817 492.418 48 488 48C483.582 48 480 51.5817 480 56C480 60.4183 483.582 64 488 64Z" fill="#F9B53D"/>
<path d="M40 56C44.4183 56 48 52.4183 48 48C48 43.5817 44.4183 40 40 40C35.5817 40 32 43.5817 32 48C32 52.4183 35.5817 56 40 56Z" fill="#F9B53D"/>
<path d="M400 32C404.418 32 408 28.4183 408 24C408 19.5817 404.418 16 400 16C395.582 16 392 19.5817 392 24C392 28.4183 395.582 32 400 32Z" fill="#F9B53D"/>
<path d="M256 32C260.418 32 264 28.4183 264 24C264 19.5817 260.418 16 256 16C251.582 16 248 19.5817 248 24C248 28.4183 251.582 32 256 32Z" fill="#F9B53D"/>
<path d="M247.664 72C252.082 72 255.664 68.4183 255.664 64C255.664 59.5817 252.082 56 247.664 56C243.246 56 239.664 59.5817 239.664 64C239.664 68.4183 243.246 72 247.664 72Z" fill="#F9B53D"/>
<path d="M464 112C468.418 112 472 108.418 472 104C472 99.5817 468.418 96 464 96C459.582 96 456 99.5817 456 104C456 108.418 459.582 112 464 112Z" fill="#F9B53D"/>
<path d="M341.472 143.584C343.484 144.255 345.681 144.1 347.579 143.152C349.477 142.203 350.92 140.54 351.592 138.528L375.592 66.5279C376.262 64.5123 376.105 62.3128 375.153 60.4135C374.202 58.5141 372.536 57.0704 370.52 56.3999C368.504 55.7294 366.305 55.8871 364.405 56.8383C362.506 57.7895 361.062 59.4563 360.392 61.4719L336.392 133.472C336.061 134.469 335.93 135.522 336.007 136.57C336.083 137.619 336.365 138.641 336.837 139.58C337.309 140.519 337.961 141.356 338.756 142.043C339.551 142.73 340.474 143.254 341.472 143.584Z" fill="#F9D423"/>
<path d="M384 152C385.201 152.002 386.387 151.733 387.47 151.213C388.553 150.694 389.505 149.938 390.256 149L422.256 109C423.582 107.343 424.195 105.227 423.961 103.117C423.727 101.008 422.665 99.078 421.008 97.7519C419.351 96.4258 417.235 95.8123 415.125 96.0464C413.016 96.2804 411.086 97.3429 409.76 98.9999L377.76 139C376.818 140.176 376.228 141.594 376.057 143.091C375.886 144.588 376.141 146.103 376.793 147.462C377.445 148.82 378.467 149.967 379.742 150.77C381.017 151.573 382.493 151.999 384 152Z" fill="#F9D423"/>
<path d="M454.144 138.872C452.786 137.243 450.836 136.22 448.724 136.028C446.612 135.836 444.51 136.491 442.88 137.848L394.88 177.848C393.248 179.206 392.223 181.156 392.029 183.27C391.836 185.384 392.49 187.488 393.848 189.12C395.206 190.751 397.156 191.777 399.27 191.97C401.384 192.164 403.488 191.51 405.12 190.152L453.12 150.152C453.929 149.479 454.597 148.653 455.086 147.722C455.576 146.791 455.877 145.772 455.972 144.724C456.067 143.677 455.954 142.62 455.641 141.616C455.327 140.612 454.819 139.679 454.144 138.872Z" fill="#F9D423"/>
<path d="M185.344 132.44C185.927 133.314 186.677 134.065 187.55 134.649C188.423 135.234 189.403 135.64 190.433 135.846C191.463 136.052 192.524 136.053 193.555 135.848C194.586 135.644 195.566 135.239 196.44 134.656C197.314 134.073 198.065 133.323 198.649 132.45C199.234 131.577 199.64 130.597 199.846 129.567C200.052 128.537 200.053 127.476 199.848 126.445C199.644 125.414 199.239 124.434 198.656 123.56L166.656 75.56C165.478 73.7948 163.648 72.5696 161.567 72.154C159.486 71.7384 157.325 72.1665 155.56 73.3441C153.795 74.5216 152.57 76.3522 152.154 78.4331C151.738 80.514 152.166 82.6748 153.344 84.4401L185.344 132.44Z" fill="#F9D423"/>
<path d="M106.344 98.344C104.844 99.8442 104.002 101.879 104.002 104C104.002 106.121 104.844 108.156 106.344 109.656L154.344 157.656C155.853 159.113 157.874 159.92 159.971 159.901C162.069 159.883 164.075 159.042 165.559 157.559C167.042 156.075 167.883 154.069 167.901 151.971C167.92 149.874 167.113 147.853 165.656 146.344L117.656 98.344C116.156 96.8442 114.121 96.0017 112 96.0017C109.879 96.0017 107.844 96.8442 106.344 98.344Z" fill="#F9D423"/>
<path d="M122.344 189.656C123.853 191.113 125.874 191.92 127.971 191.901C130.069 191.883 132.075 191.042 133.559 189.559C135.042 188.075 135.883 186.069 135.901 183.971C135.92 181.874 135.113 179.853 133.656 178.344L93.6561 138.344C92.1473 136.887 90.1264 136.08 88.0289 136.099C85.9313 136.117 83.9248 136.958 82.4415 138.442C80.9583 139.925 80.1169 141.931 80.0987 144.029C80.0805 146.126 80.8868 148.147 82.3441 149.656L122.344 189.656Z" fill="#F9D423"/>
<path d="M448 208C449.449 207.998 450.87 207.603 452.112 206.856L492.112 182.856C493.033 182.325 493.838 181.616 494.482 180.77C495.126 179.925 495.594 178.959 495.861 177.93C496.127 176.902 496.186 175.83 496.033 174.778C495.881 173.727 495.52 172.716 494.973 171.805C494.426 170.894 493.702 170.101 492.845 169.473C491.988 168.845 491.014 168.394 489.981 168.146C488.947 167.898 487.875 167.859 486.826 168.03C485.777 168.202 484.773 168.58 483.872 169.144L443.872 193.144C442.373 194.045 441.211 195.413 440.563 197.039C439.915 198.664 439.818 200.456 440.287 202.142C440.755 203.827 441.763 205.313 443.156 206.371C444.549 207.429 446.251 208.001 448 208Z" fill="#F9D423"/>
<path d="M42.3441 213.656C43.0821 214.42 43.9648 215.03 44.9408 215.449C45.9169 215.868 46.9666 216.089 48.0289 216.098C49.0911 216.107 50.1445 215.905 51.1277 215.503C52.1109 215.1 53.0041 214.506 53.7552 213.755C54.5064 213.004 55.1004 212.111 55.5027 211.128C55.9049 210.145 56.1073 209.091 56.0981 208.029C56.0889 206.967 55.8682 205.917 55.4489 204.941C55.0296 203.965 54.4202 203.082 53.6561 202.344L29.6561 178.344C28.1473 176.887 26.1264 176.08 24.0289 176.099C21.9313 176.117 19.9248 176.958 18.4415 178.442C16.9583 179.925 16.1169 181.931 16.0987 184.029C16.0805 186.126 16.8868 188.147 18.3441 189.656L42.3441 213.656Z" fill="#F9D423"/>
<path d="M208.568 74.968L224.568 114.968C224.958 115.944 225.536 116.834 226.27 117.586C227.003 118.339 227.878 118.939 228.844 119.354C229.809 119.768 230.847 119.989 231.898 120.002C232.949 120.016 233.992 119.822 234.968 119.432C235.944 119.042 236.834 118.464 237.586 117.731C238.339 116.997 238.939 116.122 239.354 115.157C239.768 114.191 239.989 113.153 240.002 112.102C240.016 111.051 239.822 110.008 239.432 109.032L223.432 69.032C223.042 68.0561 222.464 67.1664 221.731 66.4139C220.997 65.6613 220.122 65.0607 219.157 64.6461C218.191 64.2316 217.153 64.0114 216.102 63.998C215.051 63.9846 214.008 64.1783 213.032 64.568C212.056 64.9578 211.166 65.536 210.414 66.2696C209.661 67.0032 209.061 67.8778 208.646 68.8435C207.809 70.7939 207.781 72.997 208.568 74.968Z" fill="#F9D423"/>
<path d="M264 112C264 114.122 264.843 116.157 266.343 117.657C267.843 119.157 269.878 120 272 120C274.122 120 276.157 119.157 277.657 117.657C279.157 116.157 280 114.122 280 112V88C280 85.8783 279.157 83.8434 277.657 82.3431C276.157 80.8429 274.122 80 272 80C269.878 80 267.843 80.8429 266.343 82.3431C264.843 83.8434 264 85.8783 264 88V112Z" fill="#F9D423"/>
<path d="M315.576 96.8401C314.636 96.37 313.612 96.0899 312.564 96.0156C311.515 95.9413 310.462 96.0744 309.465 96.4073C308.468 96.7401 307.547 97.2662 306.753 97.9554C305.959 98.6446 305.309 99.4835 304.84 100.424L296.84 116.424C296.361 117.365 296.072 118.391 295.992 119.444C295.911 120.497 296.039 121.555 296.37 122.558C296.7 123.561 297.225 124.488 297.916 125.287C298.606 126.086 299.448 126.74 300.392 127.212C301.337 127.684 302.365 127.964 303.418 128.037C304.472 128.11 305.529 127.973 306.529 127.635C307.53 127.297 308.453 126.764 309.246 126.068C310.04 125.371 310.688 124.524 311.152 123.576L319.152 107.576C319.622 106.636 319.903 105.613 319.978 104.565C320.053 103.517 319.92 102.464 319.588 101.467C319.256 100.47 318.731 99.5485 318.042 98.7545C317.354 97.9606 316.516 97.3101 315.576 96.8401Z" fill="#F9D423"/>
<path d="M50.344 162.344C48.8442 163.844 48.0017 165.879 48.0017 168C48.0017 170.121 48.8442 172.156 50.344 173.656L66.344 189.656C67.8528 191.113 69.8736 191.92 71.9712 191.901C74.0688 191.883 76.0753 191.042 77.5585 189.559C79.0418 188.075 79.8832 186.069 79.9014 183.971C79.9196 181.874 79.1133 179.853 77.656 178.344L61.656 162.344C60.1558 160.844 58.1213 160.002 56 160.002C53.8787 160.002 51.8442 160.844 50.344 162.344Z" fill="#F9D423"/>
</svg>
