<svg width="640" height="640" viewBox="0 0 640 640" fill="none" xmlns="http://www.w3.org/2000/svg">
<path d="M200.437 421.013C198.635 421.013 196.885 420.096 195.883 418.453C194.368 415.989 195.115 412.757 197.547 411.189L264.309 368.331L174.315 420.288C171.808 421.749 168.629 420.928 167.104 418.464C165.589 416.011 166.315 412.8 168.715 411.211L280.469 337.995L137.931 420.288C135.424 421.749 132.245 420.939 130.709 418.453C129.195 415.989 129.941 412.768 132.363 411.189L243.275 339.339L103.36 420.117C100.853 421.579 97.6641 420.768 96.1387 418.293C94.6241 415.829 95.3601 412.608 97.7814 411.029L223.787 329.109L75.6374 414.645C73.0988 416.107 69.8988 415.264 68.3948 412.779C66.8908 410.283 67.6801 407.051 70.1441 405.504L128.885 368.832L61.1414 407.936C58.6348 409.397 55.4454 408.576 53.9308 406.112C52.4054 403.648 53.1414 400.427 55.5628 398.848L219.115 292.405L42.7414 394.229C40.2348 395.691 37.0454 394.88 35.5201 392.395C34.0054 389.931 34.7521 386.709 37.1734 385.131L200.405 279.584L29.4614 378.336C26.9548 379.808 23.7654 378.987 22.2401 376.501C20.7254 374.048 21.4614 370.827 23.8828 369.237L194.304 258.667L19.7228 359.456C17.2054 360.928 14.0054 360.096 12.4908 357.6C10.9868 355.115 11.7548 351.883 14.2081 350.325L129.045 277.771L15.2641 343.456C12.7254 344.917 9.50409 344.085 8.01076 341.568C6.51742 339.072 7.31742 335.829 9.79209 334.293L33.4934 319.68L13.8774 331.008C11.3388 332.48 8.11742 331.637 6.62409 329.12C5.13076 326.624 5.93076 323.381 8.41609 321.845L15.6268 317.408L13.9734 318.357C11.4668 319.819 8.27742 318.997 6.75209 316.523C5.23742 314.069 5.97342 310.848 8.39476 309.269L143.915 221.291L19.6694 293.045C17.3441 294.411 14.3361 293.781 12.7148 291.605C11.1148 289.419 11.3814 286.379 13.3761 284.533L41.4614 258.325C39.3174 258.763 36.9708 257.792 35.8081 255.765C34.3254 253.216 35.2001 249.952 37.7601 248.48L75.7334 226.56C78.0588 225.205 81.0668 225.824 82.6881 228C84.2881 230.187 84.0214 233.227 82.0268 235.072L54.8588 260.416L315.499 109.952C318.016 108.491 321.195 109.301 322.72 111.787C324.235 114.24 323.499 117.461 321.077 119.04L185.643 206.965L336.203 120.043C338.731 118.56 341.952 119.403 343.456 121.931C344.949 124.427 344.149 127.669 341.664 129.205L334.08 133.877L346.133 126.923C348.651 125.44 351.872 126.283 353.387 128.811C354.88 131.307 354.08 134.549 351.605 136.085L328 150.635L355.413 134.816C357.941 133.355 361.152 134.176 362.645 136.672C364.149 139.157 363.381 142.389 360.928 143.947L246.187 216.437L366.645 146.891C369.163 145.429 372.341 146.24 373.867 148.725C375.381 151.179 374.645 154.4 372.224 155.989L201.781 266.581L378.528 164.544C381.035 163.083 384.224 163.893 385.749 166.379C387.264 168.843 386.517 172.064 384.096 173.643L220.768 279.243L386.891 183.339C389.397 181.877 392.587 182.688 394.101 185.163C395.627 187.627 394.891 190.848 392.469 192.427L228.971 298.848L392.075 204.683C394.592 203.2 397.813 204.053 399.317 206.549C400.821 209.045 400.032 212.277 397.568 213.824L338.784 250.517L393.472 218.944C395.979 217.483 399.179 218.293 400.683 220.768C402.208 223.232 401.472 226.453 399.051 228.032L273.077 309.92L418.336 226.059C420.843 224.597 424.032 225.408 425.557 227.893C427.072 230.357 426.325 233.579 423.904 235.157L312.96 307.019L438.88 234.336C441.397 232.875 444.565 233.696 446.091 236.16C447.605 238.613 446.88 241.824 444.48 243.413L332.768 316.597L455.392 245.803C457.92 244.341 461.109 245.173 462.613 247.648C464.128 250.112 463.381 253.344 460.949 254.912L394.059 297.845L465.824 256.416C468.32 254.955 471.488 255.765 473.024 258.208C474.549 260.651 473.845 263.861 471.467 265.461L373.451 331.136L476.235 271.797C478.731 270.325 481.92 271.147 483.435 273.6C484.96 276.053 484.245 279.264 481.856 280.864L416.203 324.352L482.549 286.048C485.045 284.619 488.192 285.397 489.728 287.819C491.264 290.24 490.603 293.429 488.235 295.061L418.464 342.976L486.741 303.563C489.237 302.123 492.395 302.901 493.92 305.333C495.456 307.765 494.784 310.955 492.416 312.576L449.941 341.664L487.701 319.872C490.144 318.432 493.291 319.211 494.837 321.579C496.395 323.968 495.797 327.136 493.504 328.8L450.293 360.181L485.141 340.064C487.563 338.645 490.688 339.392 492.245 341.717C493.803 344.043 493.291 347.2 491.051 348.917L463.339 370.133L476.352 362.624C478.752 361.205 481.845 361.92 483.413 364.213C484.981 366.507 484.533 369.643 482.357 371.392L464.533 385.771C465.131 386.197 465.643 386.752 466.027 387.424C467.509 389.973 466.635 393.237 464.075 394.709L426.219 416.565C423.808 417.973 420.725 417.269 419.157 414.976C417.589 412.683 418.037 409.547 420.213 407.797L422.165 406.24L397.664 420.373C395.243 421.803 392.107 421.045 390.56 418.72C389.003 416.384 389.515 413.237 391.755 411.52L419.477 390.304L367.371 420.373C364.917 421.803 361.771 421.035 360.235 418.667C358.677 416.277 359.275 413.109 361.568 411.445L404.768 380.075L334.955 420.373C332.469 421.824 329.312 421.035 327.776 418.603C326.24 416.171 326.912 412.981 329.28 411.36L371.797 382.24L305.749 420.373C303.275 421.824 300.107 421.035 298.571 418.603C297.035 416.181 297.696 412.992 300.064 411.36L369.781 363.488L271.243 420.373C268.747 421.824 265.557 421.035 264.043 418.56C262.517 416.117 263.232 412.907 265.621 411.307L331.253 367.829L240.256 420.373C237.749 421.824 234.571 421.024 233.056 418.581C231.531 416.139 232.235 412.928 234.613 411.328L332.715 345.6L203.189 420.373C202.347 420.864 201.429 421.088 200.523 421.088L200.437 421.013Z" fill="#7AD4EC"/>
<path d="M105.461 229.152C103.904 229.152 102.357 228.469 101.312 227.168C99.6588 225.131 99.7441 222.176 101.504 220.245L115.296 204.992H115.179C113.344 204.992 111.541 204.032 110.56 202.325C109.077 199.776 109.952 196.512 112.512 195.04L137.899 180.384C140.149 179.051 143.051 179.595 144.715 181.643C146.368 183.68 146.283 186.624 144.523 188.565L132.171 202.229L300.021 105.323C302.56 103.829 305.835 104.715 307.307 107.275C308.789 109.824 307.915 113.088 305.355 114.56L108.128 228.427C107.296 228.917 106.379 229.152 105.461 229.152Z" fill="#7AD4EC"/>
<path d="M171.904 173.856C170.208 173.856 168.555 173.045 167.52 171.563C165.941 169.269 166.379 166.165 168.523 164.395L194.837 142.784C193.643 142.389 192.587 141.568 191.915 140.384C190.432 137.835 191.307 134.571 193.867 133.099L237.184 108.085C239.573 106.699 242.656 107.392 244.235 109.653C245.813 111.947 245.376 115.051 243.232 116.821L225.387 131.477L275.712 102.421C278.251 100.939 281.525 101.803 282.997 104.373C284.48 106.923 283.605 110.187 281.045 111.659L174.592 173.131C173.76 173.621 172.832 173.845 171.925 173.845L171.904 173.856Z" fill="#7AD4EC"/>
<path d="M449.045 538.347C447.253 538.347 445.515 537.44 444.501 535.819C442.987 533.365 443.701 530.144 446.112 528.555L461.152 518.677L428.32 537.621C425.803 539.083 422.624 538.272 421.099 535.797C419.584 533.333 420.32 530.112 422.741 528.533L439.627 517.557L404.875 537.621C402.432 539.061 399.243 538.283 397.707 535.872C396.171 533.461 396.811 530.272 399.157 528.629L492.384 463.509L363.989 537.621C361.483 539.072 358.293 538.272 356.789 535.819C355.264 533.365 355.979 530.155 358.368 528.555L432.715 479.296L331.669 537.621C329.163 539.072 325.995 538.272 324.469 535.819C322.944 533.365 323.648 530.165 326.037 528.565L410.539 472.363L302.592 534.688C300.085 536.139 296.917 535.328 295.392 532.896C293.867 530.453 294.56 527.253 296.949 525.643L412.875 447.861L280.533 524.267C278.027 525.717 274.859 524.917 273.333 522.475C271.808 520.032 272.512 516.821 274.891 515.221L394.144 435.275L264.971 509.845C262.464 511.317 259.253 510.496 257.739 507.989C256.235 505.504 257.003 502.272 259.445 500.715L279.317 488.16L258.368 500.245C255.861 501.728 252.651 500.885 251.136 498.4C249.632 495.925 250.389 492.693 252.832 491.125L292.608 465.781L252.939 488.672C250.421 490.133 247.243 489.323 245.717 486.837C244.203 484.384 244.939 481.163 247.36 479.584L318.453 433.44L249.099 473.483C246.592 474.955 243.381 474.123 241.867 471.637C240.363 469.163 241.12 465.931 243.563 464.363L276.203 443.573L248.416 459.616C245.909 461.067 242.741 460.267 241.216 457.813C239.691 455.371 240.395 452.171 242.773 450.56L332.405 390.656L253.152 436.405C250.827 437.792 247.787 437.152 246.165 434.912C244.565 432.704 244.896 429.643 246.923 427.819L265.579 411.115C264.331 410.731 263.211 409.899 262.517 408.672C261.035 406.123 261.909 402.859 264.469 401.387L298.635 381.653C300.992 380.277 304.011 380.917 305.621 383.147C307.221 385.355 306.891 388.416 304.864 390.24L292.331 401.472L467.808 300.16C470.293 298.699 473.472 299.509 475.008 301.963C476.533 304.405 475.829 307.605 473.451 309.216L383.819 369.12L482.389 312.213C484.917 310.763 488.117 311.584 489.621 314.059C491.125 316.533 490.368 319.765 487.925 321.333L455.232 342.165L490.549 321.781C493.045 320.32 496.245 321.131 497.771 323.616C499.285 326.069 498.549 329.291 496.128 330.869L425.003 377.024L498.667 334.507C501.195 333.045 504.405 333.877 505.899 336.352C507.403 338.827 506.645 342.059 504.203 343.627L464.523 368.907L504.128 346.037C506.645 344.576 509.856 345.397 511.36 347.893C512.864 350.389 512.096 353.611 509.653 355.168L489.685 367.787L526.635 346.464C529.131 345.003 532.299 345.813 533.835 348.256C535.36 350.699 534.656 353.909 532.277 355.509L413.088 435.413L544.693 359.435C547.189 357.963 550.357 358.784 551.893 361.227C553.419 363.669 552.715 366.869 550.336 368.48L434.421 446.261L551.179 378.848C553.664 377.387 556.843 378.187 558.379 380.651C559.904 383.093 559.2 386.304 556.811 387.904L472.224 444.149L577.045 383.637C579.541 382.176 582.731 382.976 584.245 385.44C585.771 387.893 585.056 391.104 582.667 392.704L508.309 441.984L594.101 392.448C596.576 391.008 599.733 391.787 601.269 394.197C602.805 396.608 602.165 399.797 599.819 401.44L506.624 466.549L609.771 407.008C612.277 405.547 615.467 406.368 616.992 408.832C618.507 411.296 617.771 414.517 615.349 416.096L598.368 427.136L616.405 416.715C618.912 415.253 622.091 416.075 623.616 418.528C625.131 420.981 624.416 424.203 622.005 425.792L607.019 435.637L621.429 427.328C623.872 425.909 627.019 426.656 628.565 429.024C630.112 431.392 629.536 434.571 627.253 436.245L568.363 479.392L625.963 446.144C628.459 444.704 631.616 445.483 633.141 447.915C634.677 450.347 634.005 453.536 631.637 455.157L626.016 459.008L626.123 458.955C628.544 457.525 631.68 458.272 633.227 460.608C634.784 462.955 634.261 466.101 632.032 467.808L606.816 487.083L622.187 478.208C624.555 476.821 627.605 477.493 629.195 479.733C630.784 481.973 630.421 485.056 628.341 486.859L610.923 501.941C612.661 502.037 614.315 502.976 615.253 504.597C616.736 507.147 615.861 510.411 613.301 511.883L571.179 536.203C568.832 537.589 565.771 536.928 564.171 534.677C562.581 532.437 562.944 529.355 565.024 527.552L579.019 515.435L540.576 537.621C538.133 539.051 535.019 538.293 533.472 535.968C531.915 533.621 532.437 530.475 534.667 528.768L559.861 509.515L511.179 537.621C508.704 539.083 505.536 538.283 504 535.851C502.464 533.419 503.136 530.229 505.504 528.608L511.147 524.736L488.821 537.621C486.389 539.061 483.243 538.293 481.685 535.925C480.139 533.547 480.715 530.379 482.997 528.704L541.888 485.557L451.712 537.621C450.869 538.112 449.952 538.347 449.045 538.347Z" fill="#D3E3F2" fill-opacity="0.929412"/>
<path d="M321.205 385.6C319.445 385.6 317.728 384.725 316.704 383.136C315.168 380.725 315.808 377.547 318.144 375.904L343.584 358.059L325.888 368.277C323.467 369.696 320.363 368.96 318.795 366.645C317.237 364.32 317.728 361.184 319.936 359.456L356.043 331.264L334.933 343.456C332.533 344.875 329.44 344.149 327.883 341.877C326.304 339.584 326.752 336.469 328.907 334.709L348.117 319.051C347.403 318.603 346.773 317.963 346.325 317.184C344.843 314.635 345.717 311.371 348.277 309.899L386.624 287.755C389.024 286.357 392.107 287.051 393.675 289.333C395.253 291.627 394.805 294.741 392.651 296.501L387.136 301.003L416.917 283.808C419.328 282.389 422.443 283.125 424 285.44C425.568 287.765 425.077 290.901 422.869 292.629L386.741 320.843L443.253 288.213C445.728 286.763 448.875 287.552 450.421 289.963C451.957 292.373 451.317 295.552 448.981 297.195L423.541 315.029L458.741 294.72C461.28 293.227 464.555 294.112 466.027 296.672C467.509 299.221 466.635 302.485 464.075 303.957L323.883 384.896C323.04 385.387 322.123 385.611 321.216 385.611L321.205 385.6Z" fill="#D3E3F2"/>
<path d="M604.075 394.016C593.003 385.515 579.2 383.232 566.165 380.512C560.565 378.656 562.677 380.341 560.939 374.475C556.821 353.451 533.888 342.24 514.027 347.253C510.08 337.504 504.779 328.779 498.443 321.141C498.048 267.723 456.512 225.365 403.936 221.931C401.835 88.5547 206.741 57.952 158.56 179.744C130.208 175.349 101.973 192.949 97.7174 222.304C14.624 225.909 -29.728 335.104 32.416 392.896C91.2107 443.392 177.611 413.909 248.608 421.419C189.003 570.347 397.749 533.355 482.507 536.587C505.195 536.576 527.936 536.629 550.592 536.565C625.547 537.973 671.317 440.245 604.075 394.037V394.016ZM136.48 410.603C6.35736 434.571 -30.5066 244.64 104.213 232.384C107.211 232.331 112.619 229.909 112.779 226.325C113.824 201.557 133.717 183.637 158.699 191.904C162.24 193.077 169.067 191.669 170.56 187.637C212.64 67.5733 388.832 102.987 388.565 227.659C432.235 242.048 468.597 249.696 480.949 304.64C419.861 257.099 315.605 301.259 313.312 381.131C291.253 384.117 270.709 394.56 256.576 410.603H136.469H136.48ZM557.557 530.101C477.237 520.469 337.547 553.515 274.688 508.747C233.835 468.085 256.16 387.904 317.451 386.624C341.248 385.685 320.117 307.968 399.104 292.363C442.827 284.949 484.395 313.472 499.563 353.653C500.459 356.032 506.571 354.528 507.968 354.091C528.832 347.648 545.227 366.421 546.197 385.472C635.072 385.707 650.603 521.963 557.568 530.091L557.557 530.101Z" fill="#B2C5D9"/>
</svg>
