<svg width="666" height="398" xmlns="http://www.w3.org/2000/svg" xmlns:xlink="http://www.w3.org/1999/xlink" xml:space="preserve" overflow="hidden"><defs><clipPath id="clip0"><rect x="321" y="142" width="666" height="398"/></clipPath></defs><g clip-path="url(#clip0)" transform="translate(-321 -142)"><path d="M396.411 17.4232 507.775 17.4232C527.487 17.4232 545.986 21.3946 563.264 29.329 580.542 37.2634 595.651 47.8283 608.581 61.0153 621.503 74.2022 631.676 89.5671 639.106 107.101 646.528 124.635 650.243 143.007 650.243 162.206 650.243 181.406 646.596 199.393 639.302 216.927 632.009 234.461 621.888 249.886 608.966 263.201 596.035 276.516 580.926 287.141 563.648 295.075 546.37 303.01 527.743 306.981 507.775 306.981L396.411 306.981 396.411 17.4232Z" fill="#16A5A6" fill-rule="evenodd" transform="matrix(1.00101 0 0 1 321 142)"/><path d="M201.81 17.4232 313.173 17.4232C332.885 17.4232 351.384 21.3946 368.662 29.329 385.94 37.2634 401.049 47.8283 413.98 61.0153 426.902 74.2022 437.074 89.5671 444.505 107.101 451.926 124.635 455.642 143.007 455.642 162.206 455.642 181.406 451.995 199.393 444.701 216.927 437.407 234.461 427.286 249.886 414.364 263.201 401.433 276.516 386.325 287.141 369.047 295.075 351.769 303.01 333.141 306.981 313.173 306.981L201.81 306.981 201.81 17.4232Z" fill="#EFCA06" fill-rule="evenodd" transform="matrix(1.00101 0 0 1 321 142)"/><path d="M7.20841 17.4232 118.572 17.4232C138.284 17.4232 156.783 21.3946 174.061 29.329 191.339 37.2634 206.448 47.8283 219.378 61.0153 232.3 74.2022 242.473 89.5671 249.903 107.101 257.325 124.635 261.04 143.007 261.04 162.206 261.04 181.406 257.393 199.393 250.099 216.927 242.806 234.461 232.685 249.886 219.763 263.201 206.832 276.516 191.723 287.141 174.445 295.075 157.167 303.01 138.54 306.981 118.572 306.981L7.20841 306.981 7.20841 17.4232Z" fill="#F35E29" fill-rule="evenodd" transform="matrix(1.00101 0 0 1 321 142)"/><path d="M371.447 342.348 388.759 342.348 388.759 330.015 356.885 330.015 356.885 386.043 388.759 386.043 388.759 373.71 371.447 373.71 371.447 364.05 387.794 364.05 387.794 351.718 371.447 351.718 371.447 342.357ZM298.483 330.015 320.031 330.015C323.849 330.015 327.428 330.784 330.767 332.321 334.115 333.859 337.036 335.9 339.538 338.454 342.041 341.007 344.005 343.98 345.449 347.37 346.892 350.761 347.601 354.314 347.601 358.029 347.601 361.744 346.892 365.221 345.483 368.62 344.074 372.01 342.118 375 339.615 377.57 337.113 380.15 334.192 382.2 330.844 383.737 327.496 385.274 323.9 386.043 320.031 386.043L298.483 386.043 298.483 330.015ZM316.384 373.71 313.045 373.71 313.045 342.357 316.384 342.357C318.861 342.357 321.09 342.75 323.072 343.544 325.053 344.338 326.727 345.423 328.085 346.815 329.452 348.199 330.502 349.864 331.245 351.794 331.988 353.725 332.356 355.809 332.356 358.038 332.356 360.267 331.997 362.411 331.28 364.315 330.562 366.22 329.52 367.868 328.162 369.26 326.804 370.652 325.13 371.737 323.149 372.531 321.167 373.326 318.912 373.719 316.384 373.719ZM286.739 386.043 272.177 386.043 272.177 330.015 286.739 330.015 286.739 386.043ZM226.108 376.306 246.914 376.306 250.262 386.043 265.789 386.043 244.463 330.015 228.56 330.015 207.233 386.043 222.76 386.043 226.108 376.306ZM243.045 365.238 236.503 346.585 229.96 365.238 243.036 365.238ZM187.615 373.71 187.615 330.015 173.053 330.015 173.053 386.043 205.081 386.043 205.081 373.71 187.624 373.71ZM162.574 342.348 145.261 342.348 145.261 351.709 161.609 351.709 161.609 364.042 145.261 364.042 145.261 373.702 162.574 373.702 162.574 386.034 130.699 386.034 130.699 330.007 162.574 330.007 162.574 342.34ZM93.846 330.015 72.2976 330.015 72.2976 386.043 93.846 386.043C97.7064 386.043 101.311 385.274 104.659 383.737 108.007 382.2 110.928 380.141 113.43 377.57 115.932 374.991 117.888 372.01 119.298 368.62 120.707 365.229 121.416 361.693 121.416 358.029 121.416 354.365 120.698 350.761 119.263 347.37 117.829 343.98 115.856 341.007 113.353 338.454 110.851 335.9 107.93 333.859 104.582 332.321 101.234 330.784 97.6552 330.015 93.846 330.015ZM86.8597 373.71 90.2076 373.71C92.7357 373.71 94.9905 373.317 96.9719 372.523 98.9534 371.729 100.627 370.644 101.985 369.252 103.352 367.868 104.385 366.22 105.103 364.307 105.82 362.402 106.179 360.31 106.179 358.029 106.179 355.749 105.812 353.716 105.06 351.786 104.308 349.856 103.266 348.19 101.9 346.807 100.533 345.423 98.868 344.33 96.8865 343.536 94.9051 342.741 92.6759 342.348 90.1991 342.348L86.8511 342.348 86.8511 373.702ZM36.6314 346.585 43.1736 365.238 30.0977 365.238 36.6399 346.585ZM22.8807 386.043 26.2287 376.306 47.034 376.306 50.3735 386.043 65.9006 386.043 44.5743 330.015 28.6714 330.015 7.34507 386.043 22.8722 386.043Z" fill="#3D5567" fill-rule="evenodd" transform="matrix(1.00101 0 0 1 321 142)"/><text fill="#F35E29" font-family="Arial,Arial_MSFontService,sans-serif" font-weight="700" font-size="98" transform="matrix(0.854942 0 0 0.854077 717.129 528)">2</text><text fill="#F35E29" font-family="Arial,Arial_MSFontService,sans-serif" font-weight="700" font-size="98" transform="matrix(0.854942 0 0 0.854077 766.057 528)">0</text><text fill="#F35E29" font-family="Arial,Arial_MSFontService,sans-serif" font-weight="700" font-size="98" transform="matrix(0.854942 0 0 0.854077 813.814 528)">2</text><text fill="#F35E29" font-family="Arial,Arial_MSFontService,sans-serif" font-weight="700" font-size="98" transform="matrix(0.854942 0 0 0.854077 865.342 528)">4</text></g></svg>