<svg width="129" height="80" xmlns="http://www.w3.org/2000/svg" xmlns:xlink="http://www.w3.org/1999/xlink" xml:space="preserve" overflow="hidden"><defs><clipPath id="clip0"><rect x="429" y="615" width="129" height="80"/></clipPath></defs><g clip-path="url(#clip0)" transform="translate(-429 -615)"><path d="M97.0222 7.8127 97.0222 0 54.3729 0 54.3729 1.79403 95.226 1.79403 95.226 7.81048 97.0222 7.81048Z" fill="#FFFFFF" transform="matrix(1.00885 0 0 1 429 580.759)"/><path d="M97.0222 24.1749 56.1669 24.1749 56.1669 14.2521 54.3729 14.2521 54.3729 25.9689 97.0222 25.9689 97.0222 24.1749Z" fill="#FFFFFF" transform="matrix(1.00885 0 0 1 429 580.759)"/><path d="M95.226 10.2678 97.02 10.2678 97.02 12.0618 95.226 12.0618Z" fill="#F27B20" transform="matrix(1.00885 0 0 1 429 580.759)"/><path d="M57.3199 7.56341C57.9164 7.56341 58.4194 7.92845 58.4194 8.56727L56.1802 8.56727C56.2337 7.98409 56.7345 7.54338 57.3199 7.56341M60.1111 10.1142 58.208 10.1142C58.0477 10.4793 57.676 10.7041 57.2776 10.6796 56.7033 10.6796 56.2314 10.3235 56.1691 9.55999L60.2157 9.55999C60.2357 9.38637 60.2469 9.21276 60.2469 9.03692 60.2469 7.25847 59.0449 6.12997 57.3399 6.12997 55.6349 6.12997 54.3907 7.28073 54.3907 9.13263 54.3907 10.9845 55.6238 12.1331 57.3399 12.1331 58.7934 12.1331 59.8284 11.2539 60.1111 10.1142M65.0569 12.0485 66.8354 12.0485 66.8354 8.63849C66.8354 7.06927 65.9361 6.15 64.5873 6.15 63.8972 6.12774 63.2384 6.43936 62.8199 6.98692L62.8199 6.21232 61.0326 6.21232 61.0326 12.0485 62.8199 12.0485 62.8199 8.87888C62.8199 8.08426 63.2584 7.64577 63.9395 7.64577 64.6206 7.64577 65.0591 8.08426 65.0591 8.87888L65.0591 12.0485 65.0591 12.0485ZM67.5654 9.1304C67.5654 10.9823 68.7785 12.1308 70.4946 12.1308 71.9592 12.1308 72.9943 11.2828 73.297 9.93393L71.3939 9.93393C71.2826 10.3502 70.8931 10.6284 70.4635 10.6039 69.8247 10.6039 69.3862 10.1009 69.3862 9.1304 69.3862 8.15994 69.8247 7.6569 70.4635 7.6569 70.8908 7.63686 71.2781 7.91509 71.3939 8.32687L73.297 8.32687C72.9943 6.93572 71.957 6.12997 70.4946 6.12997 68.7785 6.12997 67.5654 7.29186 67.5654 9.1304M79.8521 9.1304C79.8521 7.2785 78.5344 6.12997 76.8205 6.12997 75.1066 6.12997 73.7889 7.28073 73.7889 9.1304 73.7889 10.9801 75.0865 12.1308 76.8027 12.1308 78.5188 12.1308 79.8565 10.9801 79.8565 9.1304M75.6119 9.1304C75.6119 8.13768 76.1772 7.67693 76.8249 7.67693 77.4726 7.67693 78.038 8.13768 78.038 9.1304 78.038 10.1231 77.4415 10.5839 76.8049 10.5839 76.1683 10.5839 75.6119 10.1142 75.6119 9.1304M80.3507 9.11927C80.3507 10.96 81.4903 12.1308 82.9237 12.1308 83.7829 12.1308 84.3972 11.7435 84.7222 11.2116L84.7222 12.0485 86.5096 12.0485 86.5096 4.31146 84.72 4.31146 84.72 7.02031C84.3038 6.44381 83.6316 6.11216 82.9215 6.13219 81.4881 6.13219 80.3484 7.28295 80.3484 9.12373M84.72 9.13486C84.72 10.0653 84.1235 10.5772 83.4446 10.5772 82.7657 10.5772 82.1692 10.0541 82.1692 9.12373 82.1692 8.19332 82.7768 7.69028 83.4446 7.69028 84.1123 7.69028 84.72 8.20223 84.72 9.13263M90.22 7.56341C90.8166 7.56341 91.3196 7.92845 91.3196 8.56727L89.0804 8.56727C89.1338 7.98409 89.6347 7.54338 90.22 7.56341M93.0113 10.1142 91.1082 10.1142C90.9479 10.4793 90.5762 10.7041 90.1778 10.6796 89.6035 10.6796 89.1316 10.3235 89.0693 9.55999L93.1159 9.55999C93.1359 9.38637 93.147 9.21276 93.147 9.03692 93.147 7.25847 91.9451 6.12997 90.2401 6.12997 88.5351 6.12997 87.2908 7.28073 87.2908 9.1304 87.2908 10.9801 88.524 12.1308 90.2401 12.1308 91.6936 12.1308 92.7286 11.2516 93.0113 10.112" fill="#F27B20" transform="matrix(1.00885 0 0 1 429 580.759)"/><path d="M68.3734 20.5824C68.3734 21.722 68.9076 22.1293 69.9003 22.1293L70.6838 22.1293 70.6838 21.5016 70.0139 21.5016C69.355 21.5016 69.1146 21.2813 69.1146 20.5824L69.1146 17.0366 70.6838 17.0366 70.6838 16.42 69.1146 16.42 69.1146 14.9866 68.3734 14.9866 68.3734 16.42 67.5788 16.42 67.5788 17.0366 68.3734 17.0366C68.3734 17.0366 68.3734 20.5824 68.3734 20.5824ZM71.5519 19.2647C71.5519 21.052 72.7138 22.2139 74.2719 22.2139 75.4115 22.2139 76.2061 21.5973 76.5423 20.865L76.5423 22.1293 77.2746 22.1293 77.2746 16.42 76.5423 16.42 76.5423 17.6754C76.2173 16.9542 75.4338 16.3355 74.283 16.3355 72.7138 16.3355 71.5541 17.4751 71.5541 19.2647M76.5423 19.2758C76.5423 20.6981 75.5918 21.5751 74.4188 21.5751 73.2458 21.5751 72.2953 20.707 72.2953 19.2647 72.2953 17.8223 73.2146 16.9743 74.4188 16.9743 75.623 16.9743 76.5423 17.8535 76.5423 19.2736M78.9484 22.1293 79.6807 22.1293 79.6807 14.3901 78.9484 14.3901 78.9484 22.1293ZM83.7785 16.9631C84.8357 16.9631 85.7973 17.6331 85.7661 18.9597L81.7507 18.9597C81.8353 17.6309 82.7434 16.9631 83.7785 16.9631M86.425 20.3219 85.6504 20.3219C85.4412 21.0854 84.7823 21.5973 83.8096 21.5973 82.7434 21.5973 81.813 20.8962 81.7507 19.5585L86.4895 19.5585C86.5073 19.3671 86.514 19.1756 86.5096 18.9842 86.5096 17.5307 85.4857 16.3377 83.8119 16.3377 82.138 16.3377 81.0095 17.4573 81.0095 19.2758 81.0095 21.0943 82.1914 22.2139 83.8119 22.2139 85.2453 22.2139 86.1646 21.3992 86.4272 20.3219M92.1276 22.1315 92.8488 22.1315 92.8488 18.7839C92.8488 17.11 91.8249 16.3154 90.5272 16.3154 89.6792 16.3154 88.9469 16.6827 88.5818 17.3927L88.5818 16.42 87.8495 16.42 87.8495 22.1293 88.5818 22.1293 88.5818 19.0131C88.5818 17.622 89.3253 16.9542 90.3914 16.9542 91.4576 16.9542 92.1276 17.602 92.1276 18.8685L92.1276 22.1315 92.1276 22.1315ZM94.6806 20.5846C94.6806 21.7242 95.2148 22.1315 96.2076 22.1315L96.9911 22.1315 96.9911 21.5039 96.3211 21.5039C95.6622 21.5039 95.4218 21.2835 95.4218 20.5846L95.4218 17.0388 96.9911 17.0388 96.9911 16.4223 95.4218 16.4223 95.4218 14.9888 94.6784 14.9888 94.6784 16.4223 93.8838 16.4223 93.8838 17.0388 94.6784 17.0388 94.6784 20.5846 94.6784 20.5846Z" fill="#FFFFFF" transform="matrix(1.00885 0 0 1 429 580.759)"/><path d="M127.868 59.7705 127.868 36.348 0 36.348 0 41.7256 122.484 41.7256 122.484 59.7639 127.861 59.7639 127.868 59.7705Z" fill="#36373A" transform="matrix(1.00885 0 0 1 429 580.759)"/><path d="M127.868 108.826 5.37763 108.826 5.37763 79.0753 0 79.0753 0 114.203 127.868 114.203 127.868 108.826Z" fill="#36373A" transform="matrix(1.00885 0 0 1 429 580.759)"/><path d="M122.484 67.1314 127.861 67.1314 127.861 72.509 122.484 72.509Z" fill="#F27B20" transform="matrix(1.00885 0 0 1 429 580.759)"/><path d="M8.83659 59.0227C10.6239 59.0227 12.1331 60.1178 12.1331 62.032L5.41993 62.032C5.58019 60.2825 7.08263 58.9626 8.83659 59.0227M17.2058 66.6706 11.5009 66.6706C11.0201 67.7658 9.905 68.4402 8.71194 68.3667 6.98914 68.3667 5.57573 67.2983 5.38876 65.0102L17.5218 65.0102C17.5819 64.4893 17.6153 63.9685 17.6153 63.4409 17.6153 58.1078 14.0117 54.7245 8.89892 54.7245 3.78616 54.7245 0.0534202 58.1746 0.0534202 63.7281 0.0534202 69.2816 3.75054 72.7227 8.89669 72.7227 13.2549 72.7227 16.3577 70.0873 17.2058 66.6706M32.0343 72.469 37.3674 72.469 37.3674 62.2457C37.3674 57.5402 34.6719 54.7846 30.6276 54.7846 28.5598 54.7179 26.5832 55.6527 25.3279 57.2932L25.3279 54.9716 19.968 54.9716 19.968 72.469 25.3279 72.469 25.3279 62.9668C25.3279 60.5852 26.6433 59.2697 28.6844 59.2697 30.7255 59.2697 32.041 60.5852 32.041 62.9668L32.041 72.469 32.0343 72.469ZM39.5554 63.7192C39.5554 69.2704 43.1925 72.7138 48.3386 72.7138 52.7302 72.7138 55.833 70.1719 56.7412 66.1275L51.0363 66.1275C50.7024 67.3762 49.5339 68.2087 48.2473 68.1352 46.3331 68.1352 45.0177 66.6261 45.0177 63.717 45.0177 60.8078 46.3331 59.2987 48.2473 59.2987 49.5294 59.2386 50.6891 60.0732 51.0363 61.3064L56.7412 61.3064C55.833 57.1351 52.7235 54.7201 48.3386 54.7201 43.1925 54.7201 39.5554 58.2035 39.5554 63.7147M76.3931 63.7147C76.3931 58.1635 72.4422 54.7201 67.305 54.7201 62.1678 54.7201 58.2169 58.1702 58.2169 63.7147 58.2169 69.2593 62.1077 72.7094 67.2516 72.7094 72.3955 72.7094 76.4065 69.2593 76.4065 63.7147M63.6813 63.7147C63.6813 60.7388 65.3774 59.3565 67.3184 59.3565 69.2593 59.3565 70.9554 60.7388 70.9554 63.7147 70.9554 66.6907 69.168 68.0729 67.2583 68.0729 65.3485 68.0729 63.6813 66.664 63.6813 63.7147M77.8889 63.6813C77.8889 69.1992 81.3055 72.7094 85.6037 72.7094 88.179 72.7094 90.0219 71.5475 90.9946 69.9538L90.9946 72.4623 96.3545 72.4623 96.3545 49.2646 90.9902 49.2646 90.9902 57.3867C89.7415 55.6572 87.7271 54.6645 85.5992 54.7245 81.3011 54.7245 77.8844 58.1746 77.8844 63.6925M90.9902 63.7258C90.9902 66.5148 89.2028 68.0507 87.1662 68.0507 85.1295 68.0507 83.3422 66.4814 83.3422 63.6925 83.3422 60.9035 85.1629 59.3944 87.1662 59.3944 89.1694 59.3944 90.9902 60.9302 90.9902 63.7192M107.479 59.0137C109.267 59.0137 110.776 60.1089 110.776 62.0231L104.063 62.0231C104.223 60.2736 105.725 58.9536 107.479 59.0137M115.848 66.6617 110.144 66.6617C109.663 67.7569 108.548 68.4313 107.355 68.3578 105.632 68.3578 104.218 67.2894 104.031 65.0013L116.164 65.0013C116.225 64.4804 116.258 63.9596 116.258 63.432 116.258 58.0989 112.654 54.7156 107.542 54.7156 102.429 54.7156 98.6983 58.1657 98.6983 63.7103 98.6983 69.2548 102.395 72.7049 107.542 72.7049 111.9 72.7049 115.003 70.0695 115.851 66.6528" fill="#F27B20" transform="matrix(1.00885 0 0 1 429 580.759)"/><path d="M41.9749 98.055C41.9749 101.472 43.5775 102.694 46.5535 102.694L48.9017 102.694 48.9017 100.813 46.894 100.813C44.9197 100.813 44.1985 100.152 44.1985 98.0572L44.1985 87.4266 48.904 87.4266 48.904 85.5792 44.1985 85.5792 44.1985 81.2811 41.9771 81.2811 41.9771 85.5792 39.5955 85.5792 39.5955 87.4266 41.9771 87.4266C41.9771 87.4266 41.9771 98.0572 41.9771 98.0572ZM51.5038 94.1041C51.5038 99.464 54.9872 102.947 59.6592 102.947 63.0759 102.947 65.4576 101.1 66.4659 98.9031L66.4659 102.694 68.6605 102.694 68.6605 85.5769 66.4659 85.5769 66.4659 89.3408C65.491 87.1796 63.1427 85.3232 59.6926 85.3232 54.9872 85.3232 51.5104 88.7399 51.5104 94.1064M66.4659 94.1398C66.4659 98.4045 63.6168 101.033 60.1 101.033 56.5831 101.033 53.7341 98.4312 53.7341 94.1064 53.7341 89.7816 56.4896 87.2396 60.1 87.2396 63.7103 87.2396 66.4659 89.875 66.4659 94.1331M73.6798 102.696 75.8745 102.696 75.8745 79.4915 73.6798 79.4915 73.6798 102.696ZM88.1611 87.2063C91.3307 87.2063 94.2132 89.214 94.1197 93.1915L82.0801 93.1915C82.3339 89.2073 85.0561 87.2063 88.1589 87.2063M96.094 97.276 93.7725 97.276C93.1448 99.5641 91.1705 101.1 88.2546 101.1 85.0583 101.1 82.2693 98.9988 82.0824 94.9878L96.2899 94.9878C96.3433 94.4135 96.3634 93.8393 96.35 93.265 96.35 88.9068 93.2806 85.3299 88.2613 85.3299 83.242 85.3299 79.8588 88.6864 79.8588 94.1398 79.8588 99.5931 83.4023 102.95 88.2613 102.95 92.5594 102.95 95.315 100.508 96.103 97.2782M113.193 102.703 115.354 102.703 115.354 92.6663C115.354 87.647 112.285 85.2653 108.394 85.2653 105.852 85.2653 103.655 86.3671 102.562 88.495L102.562 85.5792 100.368 85.5792 100.368 102.696 102.562 102.696 102.562 93.354C102.562 89.1828 104.79 87.1818 107.987 87.1818 111.183 87.1818 113.193 89.1227 113.193 92.92L113.193 102.703 113.193 102.703ZM120.848 98.0639C120.848 101.481 122.45 102.703 125.426 102.703L127.774 102.703 127.774 100.822 125.767 100.822C123.792 100.822 123.071 100.161 123.071 98.0661L123.071 87.4355 127.777 87.4355 127.777 85.5881 123.071 85.5881 123.071 81.29 120.843 81.29 120.843 85.5881 118.462 85.5881 118.462 87.4355 120.843 87.4355 120.843 98.0661 120.85 98.0661Z" fill="#36373A" transform="matrix(1.00885 0 0 1 429 580.759)"/></g></svg>