<svg width="550" height="550" viewBox="0 0 550 550" fill="none" xmlns="http://www.w3.org/2000/svg">
<path d="M354.869 545.142C353.89 545.14 352.938 544.825 352.151 544.243C351.364 543.661 350.784 542.842 350.496 541.907C350.208 540.971 350.227 539.968 350.551 539.044C350.874 538.12 351.485 537.324 352.293 536.772L370.526 524.333L335.592 544.5C334.575 545.093 333.37 545.272 332.225 545.001C331.08 544.729 330.083 544.028 329.441 543.042C328.799 542.056 328.561 540.861 328.776 539.704C328.991 538.547 329.642 537.517 330.596 536.828L374.046 505.111L305.809 544.528C304.799 545.094 303.612 545.258 302.487 544.985C301.362 544.713 300.381 544.024 299.743 543.058C299.104 542.092 298.855 540.92 299.045 539.778C299.235 538.636 299.85 537.608 300.767 536.901L349.727 500.051L272.672 544.5C271.653 545.055 270.463 545.204 269.339 544.916C268.216 544.628 267.243 543.925 266.618 542.948C265.992 541.971 265.76 540.794 265.969 539.653C266.177 538.512 266.81 537.493 267.74 536.8L302.097 512.527L252.679 541.044C251.675 541.614 250.492 541.784 249.368 541.52C248.243 541.256 247.26 540.577 246.615 539.619C245.97 538.661 245.71 537.494 245.888 536.353C246.065 535.212 246.667 534.18 247.573 533.463L296.45 495.312L238.333 528.917C237.334 529.482 236.16 529.651 235.042 529.392C233.924 529.133 232.944 528.464 232.296 527.517C231.647 526.57 231.377 525.415 231.54 524.279C231.702 523.143 232.285 522.109 233.172 521.382L269.225 492.433L232.219 513.792C231.218 514.352 230.044 514.517 228.927 514.254C227.81 513.991 226.833 513.318 226.188 512.369C225.543 511.42 225.278 510.264 225.444 509.129C225.61 507.994 226.196 506.963 227.086 506.238L243.008 493.598L231.752 500.088C230.806 500.632 229.697 500.822 228.625 500.622C227.552 500.422 226.586 499.846 225.9 498.998C225.214 498.149 224.853 497.084 224.882 495.993C224.911 494.903 225.329 493.858 226.059 493.047L240.442 477.143L231.752 482.157C230.977 482.602 230.09 482.811 229.199 482.759C228.308 482.706 227.451 482.394 226.735 481.862C226.018 481.329 225.473 480.599 225.166 479.761C224.858 478.923 224.802 478.013 225.005 477.143L227.755 465.52C226.814 465.139 226.029 464.451 225.527 463.567C224.922 462.517 224.757 461.269 225.07 460.097C225.383 458.925 226.147 457.925 227.196 457.316L231.779 454.667C232.553 454.219 233.442 454.008 234.335 454.059C235.228 454.11 236.086 454.421 236.804 454.955C237.522 455.488 238.069 456.219 238.376 457.059C238.684 457.899 238.739 458.81 238.535 459.681L236.362 468.921L261.112 454.639C262.057 454.094 263.165 453.904 264.237 454.103C265.309 454.301 266.275 454.876 266.962 455.723C267.649 456.569 268.011 457.634 267.984 458.724C267.957 459.814 267.542 460.858 266.814 461.67L252.377 477.583L292.187 454.602C293.189 454.032 294.368 453.859 295.491 454.119C296.614 454.378 297.598 455.052 298.247 456.005C298.895 456.957 299.161 458.119 298.991 459.259C298.821 460.399 298.228 461.434 297.33 462.156L281.417 474.769L316.433 454.602C317.432 454.038 318.607 453.868 319.725 454.127C320.842 454.386 321.823 455.055 322.471 456.002C323.119 456.949 323.389 458.104 323.227 459.24C323.064 460.376 322.482 461.41 321.594 462.138L285.532 491.086L348.782 454.566C349.787 453.996 350.97 453.826 352.094 454.09C353.218 454.354 354.202 455.033 354.847 455.991C355.492 456.949 355.752 458.116 355.574 459.257C355.396 460.398 354.794 461.43 353.888 462.147L305.012 500.298L384.285 454.538C385.305 453.965 386.506 453.804 387.641 454.088C388.776 454.371 389.76 455.079 390.391 456.064C391.021 457.05 391.251 458.24 391.033 459.389C390.814 460.539 390.165 461.562 389.217 462.247L354.887 486.503L410.3 454.511C411.31 453.944 412.497 453.781 413.622 454.053C414.747 454.326 415.728 455.014 416.367 455.98C417.005 456.946 417.254 458.118 417.064 459.26C416.874 460.403 416.259 461.43 415.342 462.138L366.364 499.015L443.502 454.483C444.518 453.89 445.723 453.711 446.868 453.983C448.013 454.254 449.01 454.955 449.652 455.941C450.294 456.927 450.532 458.123 450.317 459.279C450.102 460.436 449.451 461.466 448.497 462.156L405.066 493.854L473.321 454.438C474.347 453.86 475.556 453.7 476.697 453.99C477.838 454.281 478.824 454.999 479.449 455.996C480.075 456.993 480.294 458.193 480.059 459.347C479.824 460.5 479.154 461.519 478.188 462.193L460.02 474.558L494.936 454.392C495.957 453.803 497.165 453.63 498.31 453.909C499.455 454.188 500.448 454.897 501.084 455.889C501.72 456.881 501.949 458.08 501.724 459.237C501.5 460.393 500.838 461.419 499.877 462.101L464.988 486.75L521.116 454.337C522.141 453.751 523.353 453.583 524.499 453.869C525.645 454.154 526.637 454.872 527.267 455.871C527.897 456.87 528.117 458.073 527.881 459.231C527.646 460.388 526.972 461.41 526.002 462.083L502.828 477.996L529.1 462.917C530.099 462.352 531.273 462.182 532.391 462.441C533.509 462.7 534.489 463.369 535.138 464.316C535.786 465.263 536.056 466.419 535.894 467.555C535.731 468.691 535.149 469.724 534.261 470.452L489.078 506.742L529.1 483.643C530.114 483.062 531.311 482.89 532.447 483.163C533.583 483.435 534.572 484.131 535.212 485.108C535.852 486.085 536.095 487.27 535.891 488.42C535.687 489.57 535.051 490.599 534.114 491.297L527.917 495.88L529.1 495.202C530.074 494.685 531.203 494.537 532.277 494.785C533.352 495.033 534.301 495.66 534.951 496.552C535.6 497.443 535.907 498.539 535.814 499.638C535.721 500.737 535.234 501.766 534.444 502.535L521.317 514.25L529.1 509.749C529.994 509.237 531.035 509.041 532.055 509.193C533.074 509.346 534.013 509.837 534.719 510.588C535.424 511.34 535.856 512.307 535.944 513.334C536.033 514.361 535.772 515.388 535.205 516.248L527.872 527.248C528.808 527.067 529.777 527.183 530.645 527.579C531.513 527.975 532.235 528.631 532.712 529.457C533.317 530.508 533.482 531.756 533.169 532.928C532.856 534.1 532.092 535.1 531.043 535.709L515.836 544.482C514.941 544.994 513.9 545.19 512.881 545.038C511.861 544.885 510.923 544.394 510.217 543.642C509.512 542.891 509.08 541.924 508.991 540.897C508.903 539.87 509.164 538.843 509.731 537.982L516.743 527.422L487.172 544.5C486.197 545.023 485.066 545.176 483.987 544.93C482.908 544.685 481.955 544.057 481.303 543.164C480.65 542.27 480.343 541.171 480.438 540.069C480.533 538.966 481.023 537.936 481.818 537.167L494.945 525.47L461.945 544.546C460.931 545.126 459.734 545.298 458.598 545.026C457.462 544.753 456.473 544.058 455.833 543.08C455.193 542.103 454.95 540.918 455.154 539.768C455.358 538.618 455.994 537.589 456.931 536.892L463.164 532.308L441.879 544.5C440.88 545.065 439.706 545.235 438.588 544.975C437.47 544.716 436.49 544.047 435.841 543.1C435.193 542.154 434.923 540.998 435.086 539.862C435.248 538.726 435.831 537.692 436.718 536.965L481.892 500.683L405.992 544.5C404.968 545.064 403.769 545.215 402.637 544.924C401.506 544.633 400.529 543.92 399.905 542.933C399.281 541.945 399.058 540.756 399.281 539.61C399.505 538.463 400.157 537.445 401.106 536.763L424.279 520.841L383.286 544.5C382.267 545.067 381.07 545.225 379.939 544.941C378.808 544.657 377.828 543.953 377.198 542.971C376.568 541.99 376.336 540.805 376.549 539.658C376.763 538.512 377.405 537.49 378.345 536.8L413.178 512.142L357.161 544.5C356.467 544.912 355.676 545.133 354.869 545.142Z" fill="#D3E3F2"/>
<path d="M230.212 54.5966C229.313 54.5967 228.435 54.3329 227.685 53.8378C226.936 53.3428 226.348 52.6384 225.996 51.8122C225.643 50.9859 225.541 50.0744 225.702 49.1907C225.864 48.307 226.281 47.4901 226.903 46.8416L243.155 29.8191C242.228 29.9681 241.279 29.8365 240.427 29.4412C239.576 29.0458 238.863 28.4049 238.379 27.6008C237.771 26.5492 237.605 25.2991 237.917 24.1251C238.23 22.9511 238.996 21.9493 240.048 21.34L265.586 6.60915C266.541 6.06388 267.659 5.87993 268.738 6.09086C269.817 6.30179 270.785 6.89354 271.464 7.75819C272.143 8.62283 272.488 9.70275 272.437 10.801C272.387 11.8992 271.943 12.9426 271.187 13.7408L255.603 30.0666L292.738 8.62581C293.79 8.02761 295.036 7.86985 296.204 8.18696C297.372 8.50408 298.367 9.27031 298.972 10.3185C299.577 11.3666 299.743 12.6116 299.434 13.7817C299.125 14.9518 298.365 15.952 297.321 16.5641L232.503 53.9825C231.808 54.3893 231.017 54.6015 230.212 54.5966Z" fill="#D3E3F2"/>
<path d="M149.362 488.418C148.409 488.418 147.48 488.121 146.704 487.568C145.927 487.015 145.343 486.234 145.031 485.334C144.72 484.433 144.697 483.458 144.965 482.544C145.233 481.629 145.78 480.822 146.529 480.233L174.946 457.948L134.612 481.223C133.601 481.793 132.411 481.959 131.283 481.687C130.154 481.414 129.171 480.723 128.532 479.754C127.893 478.784 127.646 477.608 127.84 476.464C128.035 475.319 128.657 474.291 129.58 473.587L184.791 432.163L119.808 469.682C118.785 470.245 117.585 470.397 116.454 470.106C115.323 469.814 114.346 469.102 113.722 468.114C113.098 467.127 112.875 465.938 113.098 464.791C113.321 463.645 113.974 462.627 114.922 461.945L165.917 426.956L111.192 458.544C110.163 459.098 108.962 459.238 107.834 458.936C106.705 458.634 105.735 457.913 105.12 456.919C104.506 455.926 104.294 454.735 104.528 453.591C104.762 452.446 105.424 451.434 106.379 450.762L151.727 420.75L105.655 447.333C104.619 447.912 103.399 448.067 102.251 447.765C101.104 447.463 100.118 446.727 99.5019 445.713C98.8856 444.699 98.6867 443.485 98.9469 442.327C99.2072 441.17 99.9064 440.158 100.897 439.505L119.937 427.323L101.227 438.167C100.19 438.775 98.9557 438.951 97.79 438.657C96.6242 438.363 95.6206 437.623 94.9954 436.596C94.3701 435.569 94.1734 434.338 94.4475 433.167C94.7216 431.997 95.4447 430.981 96.4608 430.338L131.386 408.036L87.7341 433.226C86.6936 433.854 85.446 434.044 84.2659 433.752C83.0857 433.461 82.0697 432.713 81.4412 431.672C80.8128 430.632 80.6234 429.384 80.9148 428.204C81.2062 427.024 81.9544 426.008 82.995 425.379L124.245 399.291L77 426.608C75.9622 427.201 74.7337 427.365 73.5766 427.065C72.4194 426.765 71.4252 426.025 70.8058 425.003C70.1864 423.981 69.9909 422.757 70.261 421.593C70.5311 420.428 71.2454 419.415 72.2516 418.77L140.085 375.879L67.43 417.789C66.3975 418.35 65.1894 418.492 64.0549 418.188C62.9204 417.883 61.9462 417.154 61.3333 416.152C60.7205 415.15 60.5159 413.951 60.7616 412.802C61.0074 411.653 61.6849 410.643 62.6541 409.979L202.464 319.486L57.8691 402.958C56.825 403.581 55.5758 403.764 54.3965 403.467C53.2172 403.17 52.2044 402.416 51.5808 401.372C50.9572 400.327 50.774 399.078 51.0714 397.899C51.3688 396.72 52.1225 395.707 53.1666 395.083L93.06 370.508L54.395 392.838C53.3556 393.468 52.1083 393.661 50.9273 393.372C49.7463 393.083 48.7283 392.337 48.0975 391.298C47.4666 390.258 47.2744 389.011 47.5632 387.83C47.852 386.649 48.5981 385.631 49.6375 385L214.876 279.519L52.3875 373.34C51.3497 373.933 50.1212 374.097 48.9641 373.798C47.8069 373.498 46.8127 372.758 46.1933 371.736C45.5739 370.713 45.3784 369.489 45.6485 368.325C45.9186 367.161 46.6329 366.148 47.6391 365.503L224.556 253.293L34.4483 363C33.4053 363.625 32.1569 363.81 30.9776 363.514C29.7983 363.218 28.7848 362.466 28.16 361.423C27.5352 360.38 27.3503 359.132 27.6459 357.953C27.9416 356.773 28.6937 355.76 29.7366 355.135L164.762 271.178L23.8333 352.559C22.7927 353.159 21.558 353.327 20.3951 353.026C19.2322 352.725 18.234 351.979 17.6153 350.949C16.9965 349.92 16.8067 348.688 17.0867 347.52C17.3667 346.352 18.0942 345.341 19.1125 344.703L158.299 257.996L16.4175 339.918C15.3768 340.475 14.1618 340.608 13.0253 340.291C11.8888 339.974 10.9184 339.231 10.316 338.216C9.71362 337.201 9.52573 335.994 9.79144 334.844C10.0571 333.694 10.756 332.692 11.7425 332.044L37.29 316.461L13.2916 330.348C12.2543 330.91 11.0403 331.051 9.90211 330.74C8.76397 330.429 7.7894 329.692 7.18121 328.681C6.57302 327.67 6.37806 326.464 6.63688 325.313C6.89571 324.162 7.5884 323.155 8.5708 322.502L161.452 226.463L11.9625 312.767C10.9233 313.339 9.70267 313.486 8.55727 313.177C7.41187 312.868 6.43094 312.127 5.82073 311.109C5.21053 310.092 5.0186 308.878 5.2853 307.722C5.55199 306.566 6.25654 305.558 7.2508 304.911L121.917 233.851L16.2341 294.883C15.1946 295.423 13.9874 295.546 12.8605 295.224C11.7337 294.902 10.7728 294.161 10.1755 293.153C9.57809 292.145 9.38956 290.946 9.64861 289.803C9.90765 288.661 10.5946 287.66 11.5683 287.008L41.4608 268.776L29.5441 275.678C28.5035 276.235 27.2885 276.368 26.152 276.051C25.0155 275.734 24.045 274.991 23.4427 273.976C22.8403 272.961 22.6524 271.754 22.9181 270.604C23.1838 269.454 23.8826 268.452 24.8691 267.804L39.3066 258.995L28.5266 265.219C27.4848 265.795 26.2596 265.943 25.1106 265.632C23.9615 265.321 22.9786 264.574 22.3699 263.551C21.7613 262.528 21.5746 261.308 21.8495 260.15C22.1243 258.992 22.839 257.986 23.8425 257.345L77.5775 224.345L23.65 255.42C22.6168 255.973 21.411 256.109 20.2804 255.801C19.1499 255.493 18.1804 254.763 17.5712 253.762C16.9621 252.761 16.7596 251.564 17.0053 250.418C17.251 249.272 17.9264 248.264 18.8925 247.601L173.754 148.5L20.0016 237.298C19.4864 237.609 18.9148 237.817 18.3195 237.907C17.7242 237.998 17.1168 237.971 16.532 237.827C15.351 237.537 14.3338 236.789 13.7041 235.748C13.0745 234.708 12.8839 233.46 13.1745 232.279C13.465 231.098 14.2128 230.081 15.2533 229.451L130.992 156.173L22.1466 219.019C21.116 219.537 19.928 219.647 18.8197 219.328C17.7113 219.009 16.7642 218.283 16.1672 217.296C15.5702 216.309 15.3672 215.133 15.5988 214.003C15.8304 212.874 16.4795 211.872 17.4166 211.2L159.124 119.533L37.3908 189.75C36.3535 190.312 35.1394 190.452 34.0013 190.142C32.8631 189.831 31.8886 189.094 31.2804 188.083C30.6722 187.072 30.4772 185.865 30.7361 184.714C30.9949 183.563 31.6876 182.557 32.67 181.903L75.35 155.283L36.19 177.888C35.1653 178.458 33.9612 178.614 32.8254 178.323C31.6895 178.032 30.7084 177.317 30.0837 176.325C29.459 175.333 29.2383 174.139 29.4671 172.989C29.6958 171.839 30.3565 170.82 31.3133 170.143L123.218 107.406L40.0033 155.448C39.0272 156.007 37.8796 156.188 36.7791 155.955C35.6785 155.723 34.7018 155.094 34.0349 154.188C33.368 153.283 33.0575 152.163 33.1625 151.043C33.2674 149.923 33.7806 148.881 34.6041 148.115L52.3233 131.753C51.3804 131.616 50.5034 131.189 49.8145 130.53C49.1256 129.872 48.659 129.016 48.4795 128.08C48.3 127.144 48.4166 126.176 48.8131 125.309C49.2095 124.443 49.8662 123.722 50.6916 123.246L80.025 106.333C81.0011 105.774 82.1486 105.594 83.2492 105.826C84.3498 106.059 85.3264 106.688 85.9933 107.593C86.6602 108.499 86.9707 109.619 86.8658 110.738C86.7608 111.858 86.2477 112.901 85.4241 113.667L71.005 126.967L223.96 38.665C224.985 38.0951 226.189 37.9396 227.325 38.2305C228.46 38.5213 229.442 39.2364 230.066 40.2286C230.691 41.2208 230.912 42.4147 230.683 43.5647C230.454 44.7146 229.793 45.7332 228.837 46.4108L136.904 109.166L302.408 13.6125C303.449 13.0124 304.684 12.8449 305.846 13.146C307.009 13.447 308.008 14.1926 308.626 15.2222C309.245 16.2519 309.435 17.4833 309.155 18.6514C308.875 19.8196 308.147 20.8311 307.129 21.4683L264.495 48.0517L311.245 21.0833C312.278 20.506 313.495 20.3508 314.64 20.6503C315.785 20.9497 316.77 21.6807 317.389 22.69C318.007 23.6994 318.211 24.9088 317.958 26.0651C317.704 27.2214 317.014 28.2349 316.03 28.8933L174.368 120.533L320.76 36.025C321.798 35.4319 323.026 35.2677 324.183 35.5674C325.34 35.8672 326.335 36.6071 326.954 37.6294C327.574 38.6517 327.769 39.8756 327.499 41.04C327.229 42.2044 326.514 43.2172 325.508 43.8625L209.724 117.196L343.557 39.9117C344.577 39.4338 345.736 39.3478 346.815 39.6698C347.893 39.9919 348.815 40.6997 349.406 41.6581C349.996 42.6166 350.213 43.7588 350.015 44.8669C349.817 45.975 349.219 46.9716 348.333 47.6667L193.417 146.813L361.093 50.0225C362.132 49.475 363.341 49.3471 364.472 49.6652C365.602 49.9833 366.567 50.7231 367.168 51.7319C367.769 52.7408 367.96 53.9418 367.701 55.0872C367.442 56.2325 366.754 57.2349 365.777 57.8875L312.052 90.8875L367.776 58.7125C368.82 58.1175 370.056 57.9564 371.218 58.2639C372.38 58.5715 373.374 59.3231 373.987 60.3568C374.6 61.3905 374.783 62.6237 374.495 63.7906C374.208 64.9576 373.474 65.965 372.451 66.5958L357.903 75.46L371.552 67.5858C372.593 67.0297 373.808 66.8962 374.945 67.2133C376.081 67.5304 377.052 68.2736 377.654 69.2882C378.256 70.3028 378.444 71.5106 378.179 72.6602C377.913 73.8098 377.214 74.8127 376.227 75.46L346.5 93.6375L373.239 78.2008C374.282 77.576 375.531 77.3911 376.71 77.6868C377.889 77.9825 378.903 78.7345 379.527 79.7775C380.152 80.8205 380.337 82.0689 380.042 83.2482C379.746 84.4275 378.994 85.441 377.951 86.0658L263.083 157.208L369.82 95.5992C370.857 95.0372 372.071 94.897 373.209 95.2075C374.348 95.518 375.322 96.2555 375.93 97.2664C376.539 98.2773 376.734 99.4837 376.475 100.635C376.216 101.786 375.523 102.793 374.541 103.446L221.751 199.412L379.738 108.167C380.779 107.61 381.994 107.477 383.13 107.794C384.267 108.111 385.237 108.854 385.84 109.869C386.442 110.884 386.63 112.091 386.364 113.241C386.099 114.391 385.4 115.393 384.413 116.041L358.875 131.606L390.491 113.364C391.007 113.055 391.58 112.85 392.175 112.762C392.771 112.674 393.378 112.704 393.962 112.85C394.545 112.997 395.095 113.257 395.578 113.615C396.062 113.974 396.47 114.424 396.779 114.941C397.089 115.457 397.293 116.03 397.381 116.625C397.47 117.221 397.44 117.828 397.293 118.412C397.147 118.995 396.887 119.545 396.528 120.028C396.169 120.512 395.719 120.92 395.202 121.229L255.97 207.964L402.93 123.117C403.969 122.545 405.19 122.398 406.335 122.707C407.481 123.016 408.462 123.757 409.072 124.775C409.682 125.792 409.874 127.007 409.607 128.163C409.34 129.319 408.636 130.326 407.642 130.973L272.58 214.958L410.153 135.529C411.191 134.936 412.42 134.772 413.577 135.072C414.734 135.371 415.728 136.111 416.347 137.134C416.967 138.156 417.162 139.38 416.892 140.544C416.622 141.709 415.908 142.721 414.902 143.367L237.985 255.585L388.392 168.749C389.431 168.118 390.678 167.926 391.859 168.215C393.04 168.504 394.058 169.25 394.689 170.289C395.32 171.328 395.512 172.576 395.223 173.757C394.935 174.938 394.188 175.956 393.149 176.587L227.92 282.068L366.667 201.951C367.711 201.327 368.96 201.144 370.139 201.441C371.319 201.739 372.331 202.493 372.955 203.537C373.579 204.581 373.762 205.83 373.464 207.009C373.167 208.189 372.413 209.201 371.369 209.825L331.412 234.428L353.916 221.439C354.953 220.805 356.199 220.608 357.381 220.893C358.563 221.177 359.583 221.919 360.218 222.956C360.852 223.993 361.049 225.24 360.765 226.421C360.48 227.603 359.738 228.624 358.701 229.258L218.927 319.752L332.594 254.155C333.632 253.562 334.86 253.398 336.018 253.697C337.175 253.997 338.169 254.737 338.788 255.759C339.408 256.782 339.603 258.006 339.333 259.17C339.063 260.334 338.349 261.347 337.342 261.993L269.463 304.92L317.561 277.145C318.601 276.517 319.849 276.327 321.029 276.619C322.209 276.91 323.225 277.658 323.854 278.699C324.482 279.739 324.672 280.987 324.38 282.167C324.089 283.347 323.341 284.363 322.3 284.992L281.197 310.97L304.058 297.77C305.096 297.162 306.33 296.986 307.496 297.28C308.662 297.574 309.665 298.314 310.29 299.341C310.916 300.368 311.112 301.599 310.838 302.769C310.564 303.94 309.841 304.956 308.825 305.598L273.863 327.928L290.684 318.221C291.718 317.652 292.932 317.504 294.072 317.808C295.213 318.112 296.192 318.843 296.806 319.851C297.421 320.859 297.623 322.065 297.37 323.218C297.118 324.37 296.43 325.381 295.451 326.04L276.375 338.25L278.272 337.15C279.304 336.552 280.529 336.379 281.686 336.669C282.843 336.959 283.841 337.689 284.469 338.703C285.097 339.718 285.304 340.937 285.047 342.101C284.791 343.266 284.09 344.285 283.094 344.942L237.664 374.917L263.166 360.25C264.191 359.664 265.403 359.496 266.549 359.782C267.695 360.068 268.687 360.785 269.317 361.784C269.947 362.783 270.167 363.987 269.931 365.144C269.696 366.301 269.022 367.323 268.052 367.996L217.122 402.948L246.207 386.155C247.219 385.571 248.415 385.396 249.552 385.664C250.689 385.932 251.68 386.625 252.323 387.599C252.967 388.574 253.214 389.757 253.014 390.908C252.815 392.059 252.183 393.09 251.249 393.791L196.029 435.233L226.536 417.624C227.539 417.057 228.719 416.889 229.841 417.153C230.962 417.417 231.943 418.094 232.588 419.049C233.233 420.004 233.495 421.167 233.321 422.306C233.148 423.445 232.551 424.477 231.651 425.196L203.234 447.48L223.602 435.719C224.572 435.135 225.723 434.931 226.835 435.145C227.946 435.36 228.939 435.978 229.622 436.88C230.304 437.783 230.629 438.906 230.533 440.034C230.438 441.162 229.928 442.214 229.102 442.988L209.541 461.826C210.41 461.749 211.284 461.922 212.059 462.325C212.833 462.728 213.477 463.343 213.913 464.099C214.521 465.152 214.686 466.403 214.371 467.577C214.057 468.751 213.288 469.752 212.236 470.36L182.802 487.3C181.832 487.884 180.681 488.088 179.569 487.874C178.458 487.659 177.465 487.041 176.783 486.139C176.1 485.236 175.775 484.113 175.871 482.985C175.967 481.858 176.476 480.805 177.302 480.031L195.635 462.413L151.635 487.804C150.945 488.207 150.16 488.419 149.362 488.418Z" fill="#D3E3F2"/>
<path d="M90.2183 111.173C89.2458 111.173 88.2984 110.864 87.5133 110.29C86.7282 109.716 86.1461 108.907 85.8511 107.98C85.5562 107.053 85.5636 106.057 85.8725 105.134C86.1813 104.212 86.7756 103.412 87.5692 102.85L128.819 73.5717L86.57 97.9642C85.5598 98.543 84.3671 98.7156 83.2342 98.447C82.1013 98.1784 81.1131 97.4887 80.4702 96.518C79.8273 95.5473 79.578 94.3683 79.7728 93.2204C79.9676 92.0725 80.592 91.0417 81.5192 90.3375L131.762 52.3692L85.9283 78.815C84.9643 79.3571 83.8368 79.5324 82.7538 79.3084C81.6707 79.0845 80.7052 78.4765 80.0352 77.5966C79.3652 76.7167 79.0359 75.6242 79.1082 74.5206C79.1804 73.417 79.6493 72.3767 80.4283 71.5917L91.3733 60.7933C90.5245 60.5264 89.7717 60.0182 89.2069 59.3307C88.642 58.6432 88.2894 57.8062 88.1923 56.9217C88.0951 56.0372 88.2574 55.1436 88.6595 54.3498C89.0616 53.5561 89.6861 52.8965 90.4567 52.4517L113.575 39.0958C114.539 38.5537 115.667 38.3784 116.75 38.6024C117.833 38.8263 118.798 39.4343 119.468 40.3142C120.138 41.1941 120.467 42.2866 120.395 43.3902C120.323 44.4938 119.854 45.5341 119.075 46.3192L112.292 53.02L191.327 7.39748C192.336 6.82317 193.525 6.65315 194.654 6.92178C195.784 7.19041 196.769 7.87766 197.412 8.84473C198.054 9.81179 198.306 10.9866 198.115 12.1319C197.925 13.2772 197.307 14.3076 196.387 15.015L146.144 52.9833L208.945 16.7291C209.966 16.1405 211.174 15.9677 212.319 16.2465C213.464 16.5253 214.458 17.2344 215.093 18.2265C215.729 19.2186 215.958 20.4175 215.734 21.5743C215.509 22.731 214.847 23.7567 213.886 24.4383L172.636 53.7075L218.368 27.3075C218.89 27.0018 219.467 26.8022 220.065 26.7204C220.664 26.6385 221.273 26.6759 221.858 26.8304C222.442 26.9849 222.99 27.2534 223.47 27.6206C223.951 27.9878 224.353 28.4463 224.656 28.9697C224.958 29.4932 225.154 30.0713 225.231 30.6707C225.309 31.2701 225.268 31.879 225.11 32.4623C224.951 33.0457 224.679 33.5919 224.309 34.0696C223.938 34.5473 223.477 34.9471 222.952 35.2458L92.51 110.559C91.8133 110.961 91.0229 111.173 90.2183 111.173Z" fill="#D3E3F2"/>
<path d="M144.677 29.7917C143.669 29.7916 142.688 29.4587 141.887 28.8445C141.087 28.2303 140.512 27.3691 140.251 26.3946C139.989 25.4201 140.057 24.3866 140.443 23.4545C140.829 22.5224 141.512 21.7437 142.386 21.2392L167.75 6.58166C168.797 6.03371 170.016 5.91167 171.151 6.24104C172.287 6.57041 173.251 7.32571 173.843 8.34918C174.434 9.37264 174.607 10.5851 174.326 11.7333C174.045 12.8815 173.331 13.8766 172.333 14.5108L146.932 29.1775C146.248 29.576 145.47 29.7878 144.677 29.7917Z" fill="#D3E3F2"/>
<path d="M278.181 471.891C277.187 471.892 276.219 471.569 275.425 470.972C274.63 470.375 274.05 469.536 273.774 468.581C273.498 467.626 273.54 466.607 273.893 465.678C274.246 464.749 274.892 463.96 275.733 463.43L342.916 420.997L263.716 466.721C262.677 467.293 261.456 467.44 260.311 467.131C259.165 466.822 258.184 466.081 257.574 465.064C256.964 464.046 256.772 462.832 257.039 461.676C257.305 460.52 258.01 459.512 259.004 458.865L287.723 441.063L259.233 457.508C258.202 458.076 256.991 458.226 255.852 457.925C254.713 457.624 253.734 456.897 253.117 455.893C252.501 454.89 252.294 453.688 252.54 452.536C252.786 451.384 253.466 450.371 254.439 449.707L395.798 357.582L259.215 436.416C258.177 436.97 256.965 437.104 255.831 436.79C254.697 436.475 253.728 435.737 253.123 434.727C252.519 433.717 252.326 432.514 252.584 431.366C252.843 430.218 253.533 429.213 254.512 428.56L294.846 403.526L259.233 424.087C258.2 424.664 256.983 424.819 255.838 424.52C254.693 424.22 253.708 423.489 253.09 422.48C252.471 421.471 252.267 420.261 252.521 419.105C252.774 417.949 253.465 416.935 254.448 416.277L391.499 327.25L259.215 403.627C258.182 404.18 256.976 404.316 255.845 404.008C254.715 403.699 253.745 402.969 253.136 401.968C252.527 400.967 252.325 399.771 252.57 398.625C252.816 397.479 253.491 396.471 254.457 395.807L366.098 324.5L259.215 386.21C258.175 386.774 256.957 386.914 255.817 386.601C254.676 386.287 253.701 385.545 253.094 384.53C252.488 383.514 252.298 382.303 252.564 381.15C252.83 379.998 253.532 378.992 254.522 378.345L281.719 361.515L259.206 374.513C258.165 375.148 256.915 375.343 255.731 375.056C254.546 374.769 253.525 374.023 252.89 372.982C252.255 371.942 252.06 370.692 252.347 369.508C252.634 368.323 253.38 367.301 254.421 366.667L393.662 276.072L259.206 353.705C258.169 354.313 256.934 354.489 255.768 354.195C254.603 353.901 253.599 353.161 252.974 352.134C252.348 351.107 252.152 349.876 252.426 348.706C252.7 347.535 253.423 346.519 254.439 345.877L376.503 267.419L259.169 335.142C258.129 335.706 256.912 335.846 255.771 335.533C254.63 335.22 253.655 334.478 253.049 333.462C252.442 332.446 252.252 331.235 252.518 330.083C252.784 328.93 253.486 327.925 254.476 327.277L283.323 309.421L259.169 323.354C258.132 323.894 256.928 324.018 255.803 323.699C254.678 323.38 253.717 322.643 253.118 321.64C252.518 320.636 252.324 319.441 252.577 318.299C252.829 317.158 253.509 316.156 254.476 315.498L279.629 299.915L259.16 311.722C258.123 312.329 256.888 312.505 255.723 312.212C254.557 311.918 253.553 311.178 252.928 310.151C252.303 309.124 252.106 307.893 252.38 306.722C252.654 305.552 253.377 304.536 254.393 303.893L356.629 238.205L259.187 294.497C258.153 295.099 256.924 295.272 255.764 294.98C254.603 294.688 253.603 293.953 252.977 292.933C252.351 291.913 252.149 290.689 252.414 289.522C252.678 288.355 253.389 287.338 254.393 286.687L346.977 226.316L259.16 277.017C258.126 277.636 256.89 277.823 255.719 277.537C254.548 277.252 253.537 276.517 252.904 275.491C252.272 274.465 252.068 273.232 252.338 272.057C252.609 270.883 253.33 269.862 254.347 269.216L329.569 219.716L259.178 260.333C258.146 260.894 256.938 261.036 255.803 260.732C254.669 260.427 253.695 259.698 253.082 258.696C252.469 257.694 252.264 256.495 252.51 255.346C252.756 254.197 253.433 253.187 254.402 252.523L286.632 231.66L259.178 247.5C258.154 248.07 256.95 248.225 255.814 247.934C254.678 247.644 253.697 246.929 253.072 245.936C252.447 244.944 252.227 243.75 252.455 242.6C252.684 241.45 253.345 240.432 254.302 239.754L310.75 201.071L259.178 230.835C258.166 231.398 256.979 231.558 255.854 231.281C254.729 231.005 253.751 230.313 253.116 229.344C252.481 228.376 252.236 227.203 252.43 226.061C252.625 224.919 253.244 223.894 254.164 223.19L309.87 181.94L259.169 211.2C258.146 211.787 256.936 211.957 255.791 211.675C254.645 211.392 253.653 210.679 253.02 209.684C252.387 208.689 252.162 207.487 252.393 206.33C252.623 205.174 253.29 204.15 254.256 203.472L266.686 194.792L259.169 199.127C258.187 199.695 257.029 199.878 255.92 199.641C254.81 199.404 253.828 198.764 253.163 197.845C252.499 196.925 252.198 195.792 252.32 194.665C252.443 193.537 252.979 192.495 253.825 191.739L284.827 164.083L259.16 178.906C258.184 179.457 257.04 179.632 255.944 179.396C254.848 179.161 253.877 178.533 253.213 177.629C252.549 176.726 252.239 175.611 252.342 174.495C252.445 173.379 252.953 172.339 253.77 171.572L263.67 162.47L259.151 165.064C258.275 165.569 257.256 165.77 256.254 165.635C255.252 165.501 254.323 165.039 253.61 164.322C252.898 163.604 252.443 162.671 252.316 161.668C252.189 160.665 252.397 159.648 252.908 158.776L258.894 148.564C258.234 148.449 257.607 148.191 257.058 147.808C256.508 147.425 256.049 146.926 255.713 146.346C255.411 145.824 255.214 145.248 255.135 144.65C255.056 144.053 255.095 143.445 255.251 142.863C255.407 142.28 255.676 141.734 256.043 141.256C256.41 140.778 256.868 140.377 257.391 140.076L268.244 133.824C269.12 133.319 270.139 133.119 271.141 133.253C272.143 133.387 273.072 133.849 273.785 134.567C274.497 135.284 274.952 136.217 275.079 137.22C275.206 138.223 274.998 139.24 274.487 140.112L269.592 148.454L294.937 133.787C295.914 133.229 297.061 133.048 298.162 133.28C299.262 133.513 300.239 134.142 300.906 135.048C301.573 135.953 301.883 137.073 301.778 138.193C301.673 139.313 301.16 140.355 300.337 141.121L290.437 150.287L318.936 133.833C319.91 133.317 321.038 133.169 322.113 133.417C323.188 133.665 324.137 134.292 324.787 135.183C325.436 136.075 325.743 137.171 325.65 138.27C325.557 139.369 325.07 140.397 324.28 141.167L293.278 168.804L353.934 133.787C354.955 133.222 356.153 133.068 357.284 133.355C358.415 133.643 359.394 134.351 360.021 135.336C360.647 136.32 360.875 137.507 360.657 138.653C360.439 139.8 359.792 140.82 358.847 141.506L346.408 150.205L374.825 133.787C375.837 133.224 377.025 133.065 378.149 133.341C379.274 133.618 380.252 134.31 380.887 135.278C381.523 136.247 381.768 137.42 381.573 138.561C381.379 139.703 380.759 140.729 379.839 141.432L324.115 182.682L408.907 133.833C409.93 133.27 411.13 133.118 412.261 133.409C413.392 133.701 414.369 134.413 414.993 135.401C415.617 136.388 415.84 137.577 415.617 138.724C415.394 139.87 414.741 140.888 413.792 141.57L357.418 180.207L437.754 133.833C438.787 133.273 439.995 133.13 441.129 133.435C442.264 133.74 443.238 134.468 443.851 135.47C444.464 136.473 444.668 137.672 444.422 138.82C444.177 139.969 443.499 140.98 442.53 141.643L410.291 162.525L459.992 133.833C461.023 133.257 462.237 133.1 463.381 133.397C464.524 133.693 465.509 134.42 466.129 135.425C466.75 136.43 466.959 137.636 466.712 138.791C466.465 139.946 465.782 140.961 464.805 141.625L389.528 191.189L488.904 133.833C489.936 133.265 491.147 133.116 492.285 133.417C493.424 133.717 494.403 134.445 495.02 135.448C495.637 136.452 495.843 137.654 495.597 138.806C495.351 139.958 494.671 140.97 493.698 141.634L401.115 201.978L519.191 133.833C520.225 133.265 521.439 133.117 522.579 133.42C523.719 133.724 524.699 134.456 525.313 135.464C525.927 136.471 526.129 137.677 525.877 138.83C525.624 139.983 524.937 140.994 523.958 141.652L421.722 207.322L535.159 141.836C536.197 141.281 537.409 141.147 538.543 141.462C539.677 141.776 540.647 142.515 541.251 143.525C541.856 144.534 542.048 145.738 541.79 146.886C541.531 148.034 540.841 149.039 539.862 149.692L514.672 165.275L538.258 151.662C539.295 151.122 540.499 150.999 541.624 151.318C542.749 151.637 543.709 152.373 544.309 153.377C544.909 154.381 545.102 155.576 544.85 156.717C544.597 157.859 543.918 158.861 542.951 159.518L514.195 177.329L538.267 163.442C539.304 162.834 540.538 162.658 541.704 162.952C542.87 163.245 543.874 163.985 544.499 165.012C545.124 166.039 545.321 167.271 545.047 168.441C544.773 169.612 544.05 170.628 543.033 171.27L420.933 249.755L538.267 182.013C539.3 181.436 540.517 181.281 541.662 181.58C542.807 181.88 543.792 182.611 544.41 183.62C545.029 184.629 545.233 185.839 544.979 186.995C544.726 188.151 544.035 189.165 543.052 189.823L403.81 280.417L538.267 202.794C539.304 202.254 540.508 202.131 541.633 202.449C542.758 202.768 543.719 203.505 544.318 204.509C544.918 205.512 545.111 206.707 544.859 207.849C544.606 208.991 543.927 209.993 542.96 210.65L515.873 227.425L538.267 214.5C539.303 213.921 540.523 213.766 541.67 214.069C542.818 214.371 543.803 215.106 544.42 216.12C545.036 217.135 545.235 218.348 544.975 219.506C544.714 220.664 544.015 221.676 543.024 222.328L431.383 293.645L538.267 231.917C539.297 231.363 540.501 231.225 541.63 231.53C542.76 231.836 543.729 232.561 544.341 233.559C544.953 234.556 545.16 235.749 544.92 236.894C544.681 238.039 544.012 239.049 543.052 239.717L406.083 328.744L538.267 252.404C539.308 251.818 540.537 251.661 541.692 251.967C542.847 252.274 543.837 253.02 544.45 254.045C545.063 255.071 545.252 256.296 544.975 257.458C544.699 258.621 543.979 259.63 542.969 260.269L502.471 285.413L538.267 264.752C539.298 264.183 540.509 264.034 541.648 264.335C542.787 264.636 543.766 265.363 544.383 266.367C544.999 267.37 545.206 268.572 544.96 269.724C544.714 270.876 544.034 271.889 543.061 272.552L401.738 364.65L538.267 285.817C539.305 285.262 540.516 285.128 541.65 285.443C542.784 285.757 543.754 286.496 544.359 287.505C544.963 288.515 545.156 289.719 544.897 290.867C544.639 292.015 543.948 293.019 542.969 293.672L514.195 311.502L538.267 297.614C539.302 297.061 540.511 296.926 541.643 297.237C542.775 297.549 543.744 298.283 544.351 299.288C544.958 300.293 545.156 301.493 544.904 302.64C544.652 303.787 543.969 304.793 542.997 305.452L475.915 347.82L538.248 311.832C539.282 311.263 540.496 311.115 541.636 311.419C542.777 311.722 543.756 312.454 544.371 313.462C544.985 314.47 545.187 315.675 544.934 316.828C544.682 317.981 543.994 318.992 543.015 319.651L469.526 366.868L538.276 327.195C539.308 326.608 540.529 326.445 541.679 326.74C542.83 327.035 543.821 327.765 544.444 328.776C545.067 329.788 545.272 331.001 545.018 332.162C544.763 333.322 544.068 334.338 543.079 334.996L471.442 381.929L538.267 343.356C539.297 342.77 540.514 342.606 541.663 342.898C542.811 343.19 543.802 343.916 544.427 344.923C545.052 345.929 545.263 347.139 545.015 348.298C544.767 349.457 544.08 350.475 543.098 351.138L480.022 393.305L538.267 359.682C539.298 359.069 540.528 358.885 541.693 359.169C542.859 359.454 543.866 360.183 544.499 361.202C545.133 362.22 545.342 363.446 545.081 364.617C544.821 365.788 544.112 366.81 543.107 367.464L503.562 393.892L538.267 373.853C539.298 373.277 540.511 373.12 541.655 373.417C542.798 373.713 543.783 374.44 544.404 375.445C545.024 376.45 545.233 377.656 544.986 378.811C544.74 379.966 544.056 380.981 543.079 381.645L534.829 387.099L538.258 385.119C539.279 384.554 540.477 384.399 541.608 384.687C542.739 384.975 543.717 385.683 544.344 386.668C544.971 387.652 545.198 388.839 544.98 389.985C544.762 391.132 544.115 392.152 543.171 392.837L519.548 409.337L538.258 398.548C539.264 397.97 540.453 397.796 541.584 398.061C542.714 398.325 543.702 399.009 544.348 399.974C544.994 400.938 545.249 402.112 545.063 403.258C544.877 404.404 544.263 405.437 543.345 406.147L513.81 428.908L538.258 414.792C539.225 414.226 540.366 414.035 541.465 414.253C542.564 414.472 543.545 415.086 544.222 415.979C544.899 416.871 545.226 417.981 545.14 419.099C545.055 420.216 544.563 421.263 543.758 422.042L520.263 444.867L538.276 434.482C539.163 433.959 540.201 433.751 541.221 433.891C542.241 434.03 543.185 434.509 543.9 435.25C544.614 435.992 545.059 436.952 545.161 437.977C545.263 439.001 545.017 440.03 544.463 440.898L536.168 454.291C537.241 453.846 538.444 453.826 539.532 454.234C540.62 454.642 541.513 455.449 542.029 456.49C542.545 457.531 542.646 458.73 542.312 459.843C541.977 460.956 541.233 461.901 540.228 462.486L525.021 471.258C524.133 471.776 523.098 471.981 522.08 471.839C521.063 471.698 520.122 471.219 519.409 470.479C518.697 469.738 518.254 468.78 518.151 467.758C518.048 466.736 518.292 465.709 518.843 464.842L527.093 451.523L492.901 471.167C491.933 471.732 490.792 471.924 489.693 471.705C488.594 471.486 487.613 470.873 486.936 469.98C486.259 469.087 485.932 467.977 486.018 466.86C486.103 465.742 486.595 464.695 487.401 463.916L510.886 441.091L458.792 471.212C457.784 471.803 456.59 471.988 455.451 471.727C454.313 471.467 453.316 470.782 452.666 469.812C452.015 468.842 451.76 467.661 451.951 466.509C452.142 465.357 452.766 464.321 453.695 463.613L483.239 440.862L430.641 471.222C429.617 471.83 428.397 472.015 427.239 471.739C426.08 471.463 425.075 470.747 424.435 469.743C423.795 468.739 423.572 467.525 423.811 466.359C424.051 465.192 424.735 464.165 425.718 463.494L449.396 446.994L407.44 471.212C406.412 471.766 405.21 471.907 404.082 471.605C402.954 471.303 401.983 470.581 401.369 469.588C400.754 468.594 400.542 467.404 400.776 466.259C401.01 465.115 401.672 464.103 402.628 463.43L410.878 458.003L387.961 471.222C386.932 471.798 385.721 471.956 384.579 471.663C383.437 471.369 382.452 470.647 381.829 469.646C381.206 468.645 380.992 467.443 381.233 466.288C381.473 465.134 382.15 464.117 383.121 463.448L422.583 437.021L363.302 471.24C362.274 471.817 361.063 471.975 359.921 471.681C358.779 471.388 357.794 470.665 357.171 469.665C356.547 468.664 356.334 467.461 356.574 466.307C356.815 465.152 357.491 464.135 358.462 463.467L421.584 421.3L335.042 471.267C334.011 471.844 332.797 472 331.654 471.704C330.51 471.407 329.525 470.681 328.905 469.676C328.284 468.671 328.075 467.465 328.322 466.31C328.569 465.155 329.252 464.14 330.229 463.476L401.876 416.533L307.083 471.258C306.048 471.848 304.824 472.011 303.671 471.713C302.518 471.416 301.525 470.681 300.905 469.664C300.284 468.648 300.083 467.429 300.345 466.267C300.607 465.105 301.311 464.091 302.307 463.439L375.723 416.267L280.463 471.267C279.77 471.671 278.983 471.886 278.181 471.891Z" fill="#E5AE7C"/>
<path d="M259.472 472.432C258.463 472.432 257.482 472.099 256.682 471.484C255.881 470.87 255.306 470.009 255.045 469.035C254.784 468.06 254.851 467.027 255.237 466.095C255.623 465.162 256.306 464.384 257.18 463.879L263.523 460.213C264.045 459.881 264.628 459.658 265.238 459.558C265.848 459.458 266.472 459.482 267.073 459.629C267.673 459.776 268.237 460.043 268.732 460.414C269.227 460.785 269.641 461.252 269.95 461.787C270.26 462.322 270.458 462.914 270.532 463.528C270.607 464.141 270.556 464.764 270.384 465.357C270.212 465.951 269.921 466.504 269.53 466.982C269.139 467.461 268.654 467.855 268.107 468.142L261.763 471.808C261.069 472.218 260.278 472.433 259.472 472.432Z" fill="#DB6B50"/>
<path d="M229.772 499.813C229.069 499.825 228.373 499.677 227.738 499.378C227.102 499.079 226.543 498.638 226.105 498.089C225.393 497.259 225.021 496.192 225.062 495.099C225.102 494.007 225.554 492.97 226.325 492.195L234.685 484.257L231.77 485.934C230.812 486.48 229.688 486.663 228.606 486.448C227.524 486.232 226.556 485.634 225.88 484.763C225.203 483.891 224.864 482.805 224.924 481.703C224.984 480.602 225.439 479.559 226.206 478.766L239.103 465.593L231.77 469.828C230.829 470.374 229.725 470.567 228.655 470.373C227.585 470.179 226.618 469.611 225.928 468.77C225.239 467.929 224.87 466.871 224.889 465.783C224.908 464.696 225.313 463.65 226.032 462.834L243.962 442.447L231.77 449.478C230.791 450.044 229.637 450.228 228.53 449.995C227.423 449.761 226.442 449.127 225.775 448.213C225.105 447.296 224.8 446.162 224.919 445.033C225.037 443.903 225.571 442.858 226.417 442.099L230.643 438.304C229.754 438.548 228.812 438.513 227.943 438.205C227.074 437.897 226.321 437.33 225.784 436.581C225.118 435.67 224.811 434.545 224.923 433.422C225.034 432.299 225.557 431.256 226.389 430.494L231.587 425.746C230.621 426.246 229.508 426.387 228.448 426.143C227.388 425.898 226.449 425.284 225.8 424.411C225.151 423.538 224.833 422.463 224.904 421.377C224.975 420.292 225.43 419.267 226.188 418.486L239.672 404.589L231.77 409.172C230.794 409.748 229.639 409.941 228.528 409.715C227.417 409.489 226.43 408.859 225.756 407.947C225.083 407.036 224.771 405.907 224.881 404.779C224.991 403.651 225.516 402.603 226.353 401.839L233.008 395.661L231.77 396.367C230.794 396.91 229.654 397.079 228.562 396.841C227.471 396.603 226.504 395.975 225.843 395.075C225.183 394.174 224.873 393.063 224.974 391.951C225.074 390.838 225.578 389.801 226.389 389.033L231.367 384.505C230.382 384.947 229.273 385.028 228.235 384.733C227.197 384.438 226.296 383.786 225.692 382.892C225.087 381.999 224.817 380.92 224.93 379.847C225.042 378.773 225.53 377.774 226.307 377.025L235.528 368.133L231.77 370.306C230.804 370.863 229.667 371.049 228.574 370.828C227.48 370.608 226.505 369.996 225.83 369.108C225.156 368.219 224.828 367.115 224.909 366.003C224.99 364.89 225.474 363.845 226.27 363.064L236.5 352.917L231.706 355.667C230.766 356.206 229.665 356.395 228.599 356.2C227.533 356.005 226.57 355.439 225.882 354.601C225.194 353.764 224.825 352.71 224.841 351.626C224.857 350.542 225.256 349.499 225.968 348.682L244.008 328.167L231.733 335.243C230.773 335.765 229.658 335.927 228.589 335.699C227.52 335.471 226.567 334.868 225.903 334C225.24 333.131 224.908 332.054 224.969 330.963C225.029 329.871 225.478 328.837 226.233 328.047L238.15 316.03L231.733 319.697C230.782 320.235 229.669 320.416 228.596 320.206C227.522 319.996 226.56 319.409 225.881 318.551C225.203 317.693 224.854 316.621 224.896 315.529C224.939 314.436 225.371 313.395 226.114 312.593L240.854 297L231.733 302.262C230.768 302.811 229.636 302.991 228.548 302.769C227.46 302.547 226.49 301.937 225.817 301.053C225.145 300.169 224.817 299.071 224.893 297.963C224.97 296.855 225.446 295.812 226.233 295.029L236.876 284.542L231.733 287.503C230.771 288.038 229.647 288.209 228.569 287.983C227.491 287.758 226.53 287.152 225.862 286.276C225.194 285.4 224.864 284.313 224.932 283.213C225.001 282.114 225.462 281.076 226.233 280.289L237.481 269.106L231.752 272.406C230.792 272.959 229.665 273.146 228.578 272.933C227.491 272.719 226.518 272.119 225.839 271.244C225.161 270.368 224.822 269.277 224.886 268.171C224.95 267.065 225.412 266.02 226.188 265.228L238.874 252.303L231.752 256.41C230.789 256.945 229.666 257.116 228.587 256.89C227.509 256.665 226.548 256.059 225.88 255.183C225.213 254.307 224.883 253.219 224.951 252.12C225.019 251.021 225.481 249.983 226.252 249.196L237.563 237.921L231.77 241.257C230.813 241.803 229.692 241.986 228.612 241.773C227.532 241.56 226.564 240.965 225.886 240.097C225.208 239.229 224.866 238.146 224.921 237.046C224.977 235.946 225.426 234.903 226.188 234.107L239.479 220.357L231.77 224.803C230.794 225.355 229.65 225.529 228.554 225.294C227.458 225.059 226.487 224.43 225.823 223.527C225.159 222.624 224.849 221.509 224.952 220.393C225.055 219.277 225.563 218.237 226.38 217.47L231.88 212.41L231.77 212.474C230.794 213.018 229.654 213.187 228.562 212.949C227.471 212.711 226.504 212.083 225.843 211.182C225.183 210.282 224.873 209.171 224.974 208.058C225.074 206.946 225.578 205.908 226.389 205.141L231.229 200.75C230.277 201.129 229.227 201.184 228.241 200.905C227.255 200.627 226.388 200.031 225.775 199.21C225.108 198.296 224.803 197.168 224.918 196.043C225.033 194.917 225.561 193.874 226.398 193.114L231.165 188.787C230.161 189.183 229.05 189.211 228.027 188.867C227.004 188.524 226.135 187.831 225.574 186.909C225.012 185.988 224.793 184.898 224.955 183.832C225.118 182.765 225.652 181.79 226.463 181.078L229.579 178.328H229.506C228.631 178.329 227.774 178.078 227.036 177.607C226.299 177.136 225.711 176.463 225.344 175.669C224.977 174.874 224.845 173.991 224.963 173.124C225.082 172.257 225.446 171.442 226.013 170.775L239.168 155.347C238.092 155.661 236.938 155.57 235.925 155.091C234.912 154.612 234.11 153.778 233.67 152.748C233.23 151.717 233.182 150.561 233.536 149.498C233.891 148.435 234.622 147.539 235.593 146.978L257.373 134.402C258.308 133.861 259.405 133.667 260.469 133.856C261.533 134.045 262.496 134.604 263.188 135.435C263.88 136.265 264.256 137.313 264.251 138.393C264.245 139.474 263.857 140.518 263.157 141.341L250.25 156.466L263.322 148.931C264.307 148.367 265.466 148.189 266.575 148.431C267.684 148.674 268.664 149.319 269.325 150.242C269.985 151.165 270.28 152.3 270.151 153.428C270.023 154.556 269.481 155.596 268.629 156.347L265.531 159.097C266.464 159.078 267.38 159.345 268.157 159.861C268.934 160.377 269.535 161.118 269.88 161.985C270.224 162.852 270.296 163.804 270.086 164.712C269.876 165.621 269.393 166.444 268.703 167.072L263.945 171.389C264.943 170.991 266.05 170.956 267.071 171.29C268.093 171.625 268.964 172.308 269.533 173.219C270.102 174.131 270.333 175.214 270.184 176.279C270.036 177.343 269.518 178.322 268.721 179.043L263.89 183.425C264.839 183.044 265.888 182.988 266.873 183.264C267.858 183.541 268.723 184.136 269.335 184.956C270.001 185.867 270.308 186.992 270.196 188.115C270.085 189.238 269.563 190.28 268.73 191.042L263.23 196.093L263.34 196.029C264.297 195.483 265.418 195.3 266.498 195.513C267.579 195.727 268.546 196.322 269.224 197.19C269.902 198.058 270.244 199.141 270.189 200.24C270.133 201.34 269.684 202.384 268.923 203.179L255.622 216.929L263.349 212.474C264.312 211.939 265.435 211.769 266.514 211.994C267.592 212.219 268.553 212.826 269.221 213.702C269.888 214.578 270.218 215.665 270.15 216.764C270.082 217.864 269.62 218.902 268.849 219.688L257.583 230.89L263.377 227.544C264.336 226.991 265.464 226.804 266.551 227.017C267.638 227.231 268.61 227.831 269.289 228.706C269.968 229.582 270.306 230.673 270.242 231.779C270.178 232.885 269.716 233.93 268.941 234.722L256.254 247.656L263.386 243.531C264.349 242.996 265.472 242.825 266.55 243.051C267.628 243.276 268.589 243.882 269.257 244.758C269.925 245.634 270.255 246.721 270.187 247.821C270.119 248.92 269.657 249.958 268.886 250.745L257.638 261.928L263.368 258.628C264.333 258.079 265.465 257.898 266.553 258.121C267.641 258.343 268.611 258.953 269.283 259.837C269.956 260.721 270.284 261.819 270.208 262.927C270.131 264.035 269.655 265.078 268.868 265.861L258.216 276.347L263.368 273.377C264.32 272.826 265.44 272.636 266.522 272.842C267.603 273.049 268.574 273.637 269.257 274.501C269.94 275.364 270.29 276.444 270.242 277.544C270.194 278.644 269.752 279.69 268.996 280.491L254.238 296.129L263.404 290.849C264.367 290.287 265.501 290.095 266.595 290.309C267.689 290.523 268.667 291.128 269.347 292.012C270.027 292.895 270.362 293.996 270.289 295.108C270.216 296.22 269.74 297.267 268.95 298.054L257.033 310.072L263.45 306.405C264.39 305.865 265.491 305.676 266.557 305.871C267.623 306.066 268.586 306.633 269.274 307.47C269.962 308.308 270.331 309.362 270.315 310.446C270.299 311.53 269.9 312.573 269.188 313.39L251.167 333.932L263.45 326.837C264.416 326.28 265.553 326.094 266.646 326.315C267.74 326.536 268.715 327.147 269.39 328.036C270.064 328.924 270.392 330.028 270.311 331.14C270.23 332.253 269.746 333.298 268.95 334.079L258.674 344.162L263.459 341.412C264.429 340.829 265.58 340.624 266.691 340.839C267.803 341.053 268.795 341.671 269.478 342.574C270.161 343.476 270.486 344.599 270.39 345.727C270.294 346.855 269.785 347.907 268.959 348.682L259.701 357.601L263.505 355.41C264.481 354.866 265.621 354.697 266.713 354.935C267.804 355.173 268.771 355.801 269.432 356.702C270.092 357.603 270.402 358.713 270.301 359.826C270.201 360.938 269.697 361.976 268.886 362.743L263.918 367.262C264.909 366.81 266.029 366.726 267.077 367.025C268.125 367.324 269.032 367.986 269.636 368.893C270.239 369.8 270.5 370.893 270.371 371.975C270.242 373.057 269.732 374.058 268.932 374.797L262.268 380.994L263.523 380.261C264.481 379.701 265.609 379.508 266.699 379.717C267.788 379.926 268.765 380.523 269.448 381.397C270.13 382.271 270.473 383.363 270.412 384.471C270.351 385.578 269.89 386.626 269.115 387.42L255.658 401.298L263.533 396.715C264.508 396.171 265.649 396.002 266.74 396.24C267.832 396.478 268.798 397.106 269.459 398.007C270.12 398.908 270.429 400.018 270.329 401.131C270.228 402.243 269.725 403.281 268.913 404.048L263.716 408.806C264.705 408.294 265.846 408.161 266.927 408.429C268.007 408.698 268.953 409.351 269.588 410.266C270.222 411.181 270.502 412.296 270.374 413.402C270.247 414.508 269.721 415.53 268.895 416.277L264.678 420.062C265.627 419.82 266.628 419.887 267.535 420.254C268.443 420.621 269.208 421.27 269.721 422.104C270.233 422.938 270.465 423.914 270.382 424.889C270.3 425.865 269.907 426.788 269.262 427.524L251.323 447.92L263.542 440.871C264.5 440.318 265.627 440.13 266.713 440.343C267.799 440.556 268.771 441.154 269.45 442.028C270.13 442.901 270.47 443.991 270.408 445.096C270.347 446.201 269.887 447.246 269.115 448.039L256.218 461.193L263.551 456.958C264.528 456.343 265.7 456.119 266.835 456.331C267.97 456.543 268.983 457.175 269.671 458.101C270.36 459.027 270.674 460.179 270.551 461.327C270.427 462.475 269.875 463.533 269.005 464.292L233.888 497.658C233.52 498.287 232.992 498.806 232.357 499.162C231.568 499.603 230.676 499.827 229.772 499.813Z" fill="#A0724B"/>
<path d="M118.626 389.143C119.863 389.519 119.295 389.272 118.626 389.143Z" fill="#262626"/>
<path d="M150.013 391.49C140.534 384.899 123.09 375.659 112.97 384.734C111.008 388.483 116.041 389.079 118.626 389.143L118.388 389.07C121.275 389.987 124.428 390.152 127.288 391.27C134.371 394.276 140.774 398.679 146.115 404.217C151.456 409.755 155.625 416.313 158.373 423.5C159.537 426.25 163.607 425.92 165.972 425.333C180.409 420.154 159.812 401.436 154.055 394.882C157.768 392.551 161.776 390.726 165.972 389.455C173.204 386.705 181.619 389.235 188.403 385.165C193.215 377.08 154.678 387.833 150.013 391.49Z" fill="#B2C5D9" fill-opacity="0.866667"/>
<path d="M172.333 85.5158C163.524 80.9325 148.793 74.1125 140.452 82.2708C138.829 84.9108 141.836 86.4233 144.118 86.4233C151.499 86.8407 158.584 89.4694 164.45 93.9675C170.212 98.5815 174.48 104.798 176.715 111.833C177.632 114.583 182.133 114.189 184.287 113.557C198.678 108.588 179.593 90.2458 172.333 85.5158Z" fill="#B2C5D9"/>
<path d="M296.945 90.3558C296.606 90.5942 296.468 90.7042 296.945 90.3558Z" fill="#262626"/>
<path d="M276.833 104.968C284.121 106.453 289.309 94.8842 292.334 93.3808C293.914 92.1478 295.591 91.0442 297.348 90.0808L296.982 90.3558C300.841 88.2338 305.118 86.9823 309.513 86.6892C308.321 86.7625 308.761 86.6892 309.238 86.6892C314.692 87.9908 323.501 79.6767 314.206 78.4392C304.709 74.8367 260.838 97.6342 276.833 104.968Z" fill="#B2C5D9"/>
<path d="M309.833 86.625H309.448C309.742 86.625 310.044 86.625 310.567 86.5517L309.833 86.625Z" fill="#262626"/>
<path d="M421.007 501.243C416.781 499.519 398.374 504.992 409.704 507.1C427.405 505.102 448.323 511.5 464.402 503.818C466.308 501.472 462.706 501.243 461.157 501.243H421.007Z" fill="#8E8E8E"/>
<path d="M378.428 500.363C351.844 503.113 320.678 494.688 296.331 504.029C294.818 506.669 297.614 508.008 299.943 508.008H364.054C369.536 509.667 391.829 505.239 378.428 500.363Z" fill="#8E8E8E"/>
<path d="M481.03 354.924C429.413 357.106 375.513 350.57 324.968 357.436C357.344 365.31 413.637 357.317 453.888 360.085C459.012 360.25 488.895 361.093 481.03 354.924Z" fill="#A0724B"/>
<path d="M451.66 390.005C441.998 392.544 332.576 382.754 355.034 398.328C364.705 395.798 474.128 405.588 451.66 390.005Z" fill="#A0724B"/>
<path d="M107.516 200.933C109.402 192.263 114.078 184.45 120.828 178.69C127.578 172.93 136.029 169.541 144.888 169.043C150.388 170.023 158.024 161.893 149.178 160.912C140.613 160.96 132.158 162.854 124.391 166.466C116.624 170.077 109.727 175.321 104.17 181.839C100.503 187.293 86.8817 205.957 100.036 205.673C102.777 205.416 106.746 203.958 107.516 200.933ZM132.55 171.6C132.926 171.417 133.384 171.215 133.467 171.279L132.55 171.6Z" fill="#B2C5D9"/>
<path d="M121.578 271.333C130.198 272.806 138.226 276.685 144.737 282.524C151.247 288.363 155.974 295.924 158.373 304.333C159.463 308.55 172.764 305.076 171.655 300.768C161.187 248.655 64.4875 263.404 121.578 271.333Z" fill="#B2C5D9"/>
<path d="M354.53 290.776L310.026 246.272C315.407 238.627 376.988 187.651 343.026 200.686C328.753 217.397 306.671 232.247 296.276 250.057C308.302 257.143 346.17 314.206 354.53 290.776Z" fill="#A0724B"/>
<path d="M496.118 248.417C490.618 255.897 428.038 308.092 463.843 295.093C477.593 278.007 502.178 263.478 510.29 244.723C495.012 229.445 479.734 214.167 464.457 198.889C426.928 191.428 490.536 239.195 496.118 248.417Z" fill="#A0724B"/>
<path d="M378.418 312.657C377.309 316.516 390.482 314.673 391.618 310.686C403.841 267.908 416.063 225.13 428.285 182.352C408.898 161.865 387.961 296.175 378.418 312.657Z" fill="#A0724B"/>
<path d="M215.96 465.738C208.91 473.233 200.338 479.195 190.778 483.199C178.128 488.496 164.25 490.154 150.708 487.986C137.166 485.818 124.499 479.91 114.135 470.927C103.772 461.945 96.1235 450.246 92.0532 437.15C77.6077 433.224 64.9162 424.525 56.0447 412.468C47.1732 400.411 42.6442 385.705 43.1949 370.746C33.3318 367.205 24.5565 361.165 17.7276 353.216C10.8987 345.267 6.24989 335.681 4.23592 325.397C2.22195 315.113 2.91177 304.482 6.23792 294.545C9.56407 284.607 15.4126 275.703 23.2116 268.703C14.7865 257.743 10.3729 244.226 10.7065 230.406C11.0401 216.586 16.1008 203.298 25.0449 192.757C27.3366 151.067 36.7049 118.837 82.1074 106.141C62.4816 72.1604 93.3641 36.0437 129.508 38.2437C146.467 -2.08965 210.569 -7.09465 229.645 33.6604C250.637 -2.34632 311.632 -5.71965 329.837 38.592C366.412 31.2678 396.432 73.4895 375.23 105.014C390.127 107.891 403.618 115.508 413.747 126.624H396.075C386.84 118.573 375.401 113.354 363.139 111.705C361.242 111.449 359.692 109.615 360.976 107.782C379.566 81.767 360.472 38.812 325.409 46.6129C323.337 47.0895 318.837 47.7404 317.837 44.9354C315.262 34.9191 309.061 26.2153 300.435 20.5105C291.808 14.8057 281.372 12.506 271.147 14.057C260.922 15.6081 251.636 20.8994 245.09 28.9058C238.544 36.9121 235.202 47.0635 235.713 57.3928C235.585 61.637 222.559 64.3045 222.422 59.9687C224.218 12.4028 155.505 -6.15048 140.307 42.3504C139.24 44.147 137.626 45.5545 135.7 46.3662C133.775 47.1779 131.64 47.3511 129.609 46.8604C95.2799 39.2154 79.2841 80.4104 97.1133 105.353C99.7441 109.02 92.4749 111.43 90.0824 111.77C74.7068 114.471 60.9707 123.012 51.7457 135.606C42.5207 148.199 38.5208 163.872 40.5824 179.346C41.1331 184.161 41.6692 186.095 41.248 187.792C40.8487 189.4 39.5897 190.794 36.6682 194.224C28.4389 204.239 23.9564 216.808 23.9915 229.77C24.0266 242.732 28.5772 255.277 36.8607 265.247C8.08658 295.286 7.88491 348.554 53.9107 364.366C59.0074 393.269 69.7141 423.665 104.327 430.852C116.042 457.985 137.767 486.136 172.527 481.214V481.205C196.363 477.968 209.21 464.246 215.96 446.373V465.738Z" fill="#89A7BC"/>
<path fill-rule="evenodd" clip-rule="evenodd" d="M402.251 132.423L402.306 132.487C385.989 134.778 364.993 133.512 343.11 132.191C279.824 128.373 209.112 124.107 222.64 204.161V373.552C223.242 386.844 223.797 402 222.494 416.679V458.023L222.575 458.042C222.591 458.02 222.606 457.998 222.621 457.977C210.288 549.678 256.648 547.904 316.368 545.619H316.371C330.95 545.061 346.324 544.473 361.836 545.207C384.488 544.761 407.213 545.055 429.929 545.348H429.935C458.64 545.718 487.329 546.089 515.836 544.968C541.654 539.613 540.069 514.497 538.594 491.138C538.018 482.029 537.46 473.186 538.551 465.887C552.324 447.085 550.031 393.964 547.966 346.145C546.78 318.665 545.669 292.936 547.726 276.477C546.519 244.536 547.534 219.487 548.328 199.88V199.879C549.525 170.322 550.221 153.132 542.051 143.342C530.694 129.734 502.208 130.423 434.128 132.067C429.538 132.178 424.767 132.293 419.81 132.409V132.423H419.183L418.834 132.432L418.828 132.423H402.251ZM495.945 141.445C492.651 141.653 489.584 141.846 486.97 141.846C454.658 142.12 422.336 141.892 390.014 141.665C350.913 141.389 311.813 141.114 272.736 141.727V462.404C318.198 462.481 363.661 462.466 409.123 462.451C439.973 462.441 470.823 462.431 501.673 462.45C503.612 462.45 505.689 462.545 507.823 462.643L507.825 462.643C519.593 463.181 533.062 463.797 534.288 448.984C534.44 396.849 534.377 344.659 534.313 292.462V292.37C534.258 247.186 534.203 201.997 534.288 156.833C532.493 139.143 511.636 140.457 495.945 141.445ZM259.279 463.403V142.827C232.962 151.262 234.545 179.963 235.991 206.204C236.538 216.122 237.065 225.689 236.06 233.677V475.008C242.503 468.96 250.574 464.926 259.279 463.403ZM397.862 535.843C436.682 536.049 475.482 536.255 514.121 535.765C528.597 530.472 526.91 511.656 525.352 494.29C524.579 485.67 523.838 477.407 525.121 471.332C490.507 472.247 455.823 472.066 421.138 471.885C398.085 471.765 375.032 471.644 352 471.846C341.036 473.922 326.833 472.791 312.136 471.62C277.771 468.883 240.708 465.932 236.06 503.269C237.013 536.15 271.141 537.672 296.294 535.765C330.102 535.483 363.986 535.663 397.854 535.843H397.862Z" fill="#B6773E"/>
</svg>
