<svg width="328" height="328" viewBox="0 0 328 328" fill="none" xmlns="http://www.w3.org/2000/svg">
<path d="M160.988 324.441C160.544 324.441 160.108 324.334 159.715 324.127C159.323 323.921 158.986 323.622 158.735 323.257C158.484 322.891 158.325 322.47 158.273 322.03C158.221 321.59 158.276 321.143 158.435 320.729L159.528 317.93L154.357 320.915C153.807 321.23 153.166 321.344 152.542 321.238C151.917 321.132 151.349 320.813 150.934 320.334C150.519 319.856 150.283 319.249 150.267 318.616C150.25 317.983 150.453 317.364 150.842 316.864L154.668 311.977L145.545 317.242C144.972 317.572 144.299 317.683 143.65 317.555C143.001 317.427 142.421 317.069 142.017 316.545C141.612 316.022 141.411 315.37 141.451 314.71C141.49 314.05 141.768 313.427 142.232 312.956L150.087 304.991L135.874 313.191C135.277 313.536 134.572 313.643 133.9 313.49C133.228 313.338 132.639 312.937 132.249 312.368C131.86 311.799 131.7 311.104 131.802 310.423C131.903 309.741 132.258 309.123 132.796 308.692L136.951 305.368L128.625 310.173C128.023 310.516 127.314 310.617 126.641 310.457C125.967 310.297 125.379 309.887 124.996 309.31C124.613 308.733 124.463 308.033 124.577 307.35C124.69 306.667 125.059 306.052 125.608 305.63L130.867 301.651L121.338 307.145C120.732 307.485 120.019 307.581 119.344 307.413C118.67 307.246 118.084 306.828 117.707 306.245C117.329 305.661 117.188 304.956 117.312 304.272C117.437 303.588 117.817 302.977 118.375 302.564L123.06 299.169L114.313 304.215C113.713 304.552 113.008 304.651 112.338 304.491C111.668 304.331 111.083 303.924 110.7 303.351C110.318 302.779 110.165 302.083 110.274 301.402C110.382 300.722 110.743 300.108 111.285 299.683L134.119 282.129L103.599 299.754C102.995 300.111 102.278 300.222 101.594 300.065C100.911 299.908 100.314 299.494 99.9272 298.909C99.5403 298.324 99.3931 297.613 99.5158 296.923C99.6385 296.233 100.022 295.616 100.587 295.2L130.653 272.732L92.1133 295.003C91.5009 295.359 90.7744 295.463 90.0868 295.293C89.3993 295.123 88.8044 294.694 88.4275 294.094C88.0505 293.495 87.9209 292.772 88.0659 292.079C88.211 291.386 88.6194 290.776 89.2051 290.378L108.038 277.548L83.7985 291.537C83.1865 291.882 82.4656 291.977 81.7851 291.804C81.1046 291.631 80.5169 291.203 80.1436 290.608C79.7703 290.013 79.6402 289.298 79.7803 288.61C79.9203 287.922 80.3197 287.314 80.8957 286.913L107.529 268.818L74.7293 287.76C74.1187 288.105 73.3989 288.202 72.7189 288.031C72.0388 287.86 71.4505 287.434 71.0756 286.841C70.7006 286.249 70.5678 285.535 70.7045 284.847C70.8412 284.159 71.2371 283.55 71.8101 283.146L114.253 253.834L63.5445 283.108C62.9268 283.453 62.1992 283.545 61.5148 283.365C60.8304 283.185 60.2426 282.746 59.8751 282.141C59.5075 281.537 59.3889 280.813 59.5441 280.122C59.6993 279.432 60.1163 278.829 60.7073 278.439L62.2161 277.483L57.1048 280.429C56.487 280.774 55.7594 280.867 55.075 280.686C54.3907 280.506 53.8029 280.068 53.4353 279.463C53.0678 278.858 52.9491 278.134 53.1044 277.444C53.2596 276.753 53.6766 276.15 54.2676 275.761L70.8753 265.133L49.7466 277.346C49.1347 277.69 48.4137 277.786 47.7332 277.612C47.0528 277.439 46.465 277.011 46.0917 276.417C45.7185 275.822 45.5884 275.106 45.7284 274.418C45.8684 273.73 46.2678 273.123 46.8438 272.721L107.928 231.453L40.9289 270.119C40.3155 270.463 39.5932 270.557 38.9122 270.382C38.2311 270.207 37.6437 269.776 37.272 269.179C36.9004 268.583 36.773 267.865 36.9165 267.177C37.06 266.489 37.4633 265.882 38.0425 265.483L105.507 220.236L39.7973 258.174C39.1844 258.524 38.4602 258.622 37.7761 258.45C37.092 258.278 36.501 257.847 36.1268 257.249C35.7526 256.651 35.6241 255.932 35.7682 255.241C35.9123 254.551 36.3178 253.943 36.9 253.544L93.6112 215.086L39.7973 246.148C39.1876 246.488 38.4705 246.583 37.7934 246.411C37.1163 246.24 36.5305 245.816 36.1562 245.226C35.7819 244.636 35.6476 243.926 35.7809 243.24C35.9141 242.554 36.3048 241.946 36.8726 241.539L82 210.243L39.7973 234.591C39.1907 234.939 38.4737 235.042 37.7939 234.877C37.1141 234.713 36.5233 234.294 36.1429 233.707C35.7626 233.12 35.6217 232.409 35.7493 231.722C35.8769 231.034 36.2633 230.421 36.8289 230.01L72.6246 204.158L39.8246 223.106C39.2127 223.437 38.4975 223.522 37.8249 223.344C37.1524 223.165 36.5731 222.738 36.205 222.147C35.837 221.557 35.7079 220.848 35.8441 220.166C35.9804 219.484 36.3717 218.879 36.9382 218.475L39.0702 217.043C38.5328 217.172 37.9686 217.133 37.4542 216.93C36.9399 216.728 36.5002 216.372 36.1948 215.911C35.8078 215.339 35.6519 214.642 35.7584 213.959C35.8649 213.277 36.2259 212.66 36.7688 212.232L56.7932 196.477L39.8465 206.268C39.2596 206.603 38.5692 206.709 37.9089 206.565C37.2485 206.421 36.6649 206.038 36.2708 205.489C35.8766 204.939 35.6999 204.264 35.7747 203.592C35.8495 202.92 36.1706 202.3 36.6758 201.851L48.79 191.208L39.7973 196.363C39.2479 196.677 38.6063 196.791 37.9821 196.685C37.3579 196.579 36.7899 196.26 36.375 195.782C35.96 195.304 35.7239 194.696 35.707 194.064C35.6901 193.431 35.8934 192.812 36.2822 192.312L42.394 184.511L39.7973 186.009C39.3197 186.284 38.77 186.408 38.2205 186.365C37.6709 186.323 37.1471 186.115 36.7179 185.769C36.2887 185.423 35.9741 184.955 35.8154 184.427C35.6566 183.9 35.6612 183.336 35.8285 182.811L37.0366 179.028C36.625 178.787 36.2836 178.442 36.0463 178.029C35.809 177.615 35.6842 177.146 35.6842 176.669C35.6842 176.192 35.809 175.723 36.0463 175.309C36.2836 174.896 36.625 174.551 37.0366 174.31L39.77 172.73C40.2477 172.453 40.7981 172.327 41.3488 172.369C41.8994 172.411 42.4244 172.619 42.8546 172.965C43.2849 173.312 43.6002 173.78 43.759 174.309C43.9178 174.838 43.9126 175.402 43.7442 175.928L43.1593 177.743L51.8677 172.714C52.4172 172.396 53.0601 172.28 53.6862 172.384C54.3122 172.489 54.8823 172.808 55.2986 173.287C55.715 173.766 55.9516 174.375 55.968 175.01C55.9843 175.644 55.7794 176.265 55.3882 176.765L49.3038 184.571L69.8749 172.692C70.4619 172.357 71.1522 172.251 71.8126 172.395C72.4729 172.539 73.0565 172.923 73.4507 173.472C73.8448 174.021 74.0215 174.696 73.9467 175.368C73.8719 176.04 73.5509 176.66 73.0456 177.109L60.9369 187.758L87.073 172.67C87.6706 172.334 88.3727 172.235 89.0401 172.392C89.7074 172.549 90.2913 172.952 90.6759 173.519C91.0605 174.087 91.2177 174.778 91.1164 175.456C91.0151 176.134 90.6626 176.75 90.1289 177.18L70.11 192.93L105.255 172.643C105.869 172.299 106.591 172.205 107.272 172.38C107.953 172.555 108.54 172.985 108.912 173.582C109.284 174.179 109.411 174.896 109.268 175.585C109.124 176.273 108.721 176.88 108.142 177.279L107.491 177.716L116.298 172.632C116.904 172.284 117.621 172.181 118.301 172.346C118.981 172.51 119.572 172.929 119.952 173.516C120.333 174.103 120.473 174.814 120.346 175.501C120.218 176.189 119.832 176.802 119.266 177.213L83.4814 203.065L136.235 172.605C136.846 172.249 137.571 172.144 138.258 172.312C138.944 172.479 139.54 172.906 139.918 173.504C140.297 174.101 140.429 174.821 140.288 175.514C140.146 176.207 139.742 176.818 139.159 177.218L94.0266 208.521L156.276 172.577C156.889 172.228 157.613 172.129 158.297 172.301C158.981 172.474 159.572 172.904 159.946 173.502C160.32 174.1 160.449 174.82 160.305 175.51C160.161 176.201 159.755 176.809 159.173 177.207L102.505 215.655L173.233 174.819C173.847 174.463 174.575 174.36 175.264 174.531C175.952 174.702 176.547 175.135 176.923 175.737C177.298 176.339 177.425 177.063 177.276 177.757C177.127 178.451 176.715 179.059 176.125 179.454L108.65 224.707L172.282 187.977C172.894 187.642 173.61 187.553 174.285 187.729C174.96 187.904 175.542 188.331 175.912 188.922C176.282 189.513 176.413 190.224 176.277 190.908C176.14 191.592 175.748 192.198 175.179 192.602L114.106 233.859L171.347 200.813C171.965 200.467 172.693 200.375 173.377 200.555C174.061 200.735 174.649 201.174 175.017 201.779C175.384 202.384 175.503 203.107 175.348 203.798C175.192 204.488 174.775 205.092 174.184 205.481L157.506 216.163L170.784 208.51C171.402 208.164 172.129 208.072 172.814 208.252C173.498 208.433 174.086 208.871 174.454 209.476C174.821 210.081 174.94 210.805 174.785 211.495C174.629 212.186 174.212 212.789 173.621 213.178L170.855 214.933C171.48 214.737 172.154 214.772 172.754 215.031C173.355 215.29 173.843 215.756 174.13 216.344C174.417 216.933 174.483 217.604 174.316 218.237C174.149 218.87 173.761 219.422 173.222 219.793L130.763 249.094L169.467 226.752C170.077 226.42 170.791 226.333 171.464 226.509C172.136 226.685 172.716 227.111 173.086 227.699C173.455 228.288 173.587 228.995 173.454 229.677C173.321 230.359 172.933 230.965 172.369 231.371L145.687 249.499L168.772 236.16C169.384 235.816 170.105 235.72 170.786 235.893C171.466 236.066 172.054 236.495 172.427 237.089C172.801 237.684 172.931 238.4 172.791 239.088C172.651 239.776 172.251 240.383 171.675 240.785L152.848 253.653L168.155 244.819C168.758 244.479 169.467 244.38 170.14 244.542C170.814 244.705 171.4 245.117 171.781 245.695C172.162 246.273 172.309 246.975 172.193 247.657C172.077 248.34 171.707 248.953 171.156 249.373L141.089 271.83L167.329 256.693C167.929 256.355 168.635 256.256 169.305 256.416C169.975 256.576 170.56 256.983 170.942 257.556C171.325 258.129 171.477 258.825 171.369 259.505C171.261 260.185 170.899 260.799 170.358 261.225L147.523 278.778L166.52 267.807C167.127 267.458 167.844 267.356 168.524 267.521C169.203 267.685 169.794 268.104 170.174 268.691C170.555 269.278 170.696 269.988 170.568 270.676C170.44 271.364 170.054 271.976 169.489 272.388L164.804 275.777L165.984 275.094C166.586 274.751 167.295 274.65 167.969 274.81C168.643 274.97 169.23 275.38 169.613 275.957C169.996 276.533 170.146 277.234 170.033 277.917C169.919 278.6 169.551 279.215 169.002 279.636L163.749 283.622L165.438 282.649C166.034 282.31 166.736 282.208 167.404 282.363C168.072 282.517 168.658 282.918 169.045 283.484C169.431 284.05 169.591 284.741 169.492 285.42C169.393 286.099 169.042 286.715 168.51 287.148L164.339 290.493L164.886 290.171C165.458 289.836 166.133 289.721 166.785 289.848C167.436 289.974 168.019 290.333 168.425 290.858C168.831 291.382 169.033 292.037 168.992 292.699C168.951 293.361 168.671 293.986 168.204 294.457L160.337 302.421L164.164 300.235C164.713 299.92 165.355 299.806 165.979 299.912C166.603 300.018 167.171 300.337 167.586 300.816C168.001 301.294 168.237 301.901 168.254 302.534C168.271 303.167 168.068 303.786 167.679 304.286L163.82 309.206C164.312 309.004 164.854 308.95 165.377 309.052C165.899 309.153 166.381 309.405 166.763 309.777C167.144 310.149 167.409 310.624 167.524 311.144C167.639 311.664 167.6 312.206 167.411 312.704L165.591 317.466C166.026 317.708 166.389 318.063 166.64 318.494C166.82 318.805 166.936 319.148 166.982 319.504C167.029 319.86 167.005 320.222 166.911 320.569C166.818 320.916 166.657 321.24 166.438 321.525C166.219 321.81 165.946 322.048 165.635 322.227L162.404 324.091C161.971 324.332 161.483 324.453 160.988 324.441Z" fill="#B78456"/>
<path d="M174.66 321.44C174.073 321.439 173.502 321.249 173.031 320.898C172.56 320.547 172.215 320.054 172.047 319.492C171.878 318.929 171.895 318.328 172.095 317.776C172.295 317.224 172.667 316.751 173.157 316.427L212.019 290.761L165.553 317.602C164.937 317.959 164.207 318.062 163.517 317.889C162.827 317.716 162.232 317.281 161.857 316.676C161.483 316.071 161.359 315.344 161.512 314.65C161.665 313.955 162.083 313.347 162.677 312.956L213.938 279.002L165.531 306.931C164.916 307.266 164.197 307.352 163.521 307.172C162.846 306.992 162.264 306.56 161.897 305.965C161.53 305.37 161.406 304.656 161.549 303.972C161.692 303.287 162.092 302.683 162.666 302.285L209.805 271.272L165.531 296.84C164.916 297.184 164.192 297.277 163.51 297.1C162.828 296.923 162.241 296.49 161.871 295.891C161.501 295.291 161.376 294.572 161.523 293.883C161.67 293.195 162.078 292.589 162.661 292.193L212.599 259.175L165.531 286.349C164.914 286.708 164.181 286.811 163.489 286.637C162.797 286.463 162.2 286.025 161.827 285.417C161.454 284.808 161.333 284.078 161.491 283.382C161.649 282.686 162.072 282.08 162.672 281.692L204.267 254.544L165.531 276.908C164.919 277.244 164.203 277.333 163.528 277.157C162.853 276.981 162.271 276.554 161.9 275.963C161.53 275.372 161.4 274.662 161.536 273.978C161.672 273.294 162.065 272.688 162.633 272.284L224.341 230.546L165.531 264.499C164.913 264.851 164.183 264.948 163.496 264.77C162.808 264.593 162.216 264.155 161.846 263.548C161.476 262.942 161.356 262.216 161.512 261.523C161.668 260.83 162.088 260.225 162.683 259.836L196.8 237.8L165.531 255.84C164.916 256.184 164.192 256.277 163.51 256.1C162.828 255.923 162.241 255.49 161.871 254.891C161.501 254.291 161.376 253.572 161.523 252.883C161.67 252.195 162.078 251.589 162.661 251.193L205.847 222.652L165.531 245.923C164.922 246.261 164.207 246.353 163.533 246.181C162.858 246.01 162.275 245.587 161.901 245C161.527 244.413 161.391 243.705 161.521 243.022C161.651 242.338 162.037 241.729 162.601 241.32L208.958 208.92L165.531 233.973C164.92 234.329 164.195 234.434 163.508 234.266C162.821 234.099 162.226 233.671 161.847 233.074C161.469 232.477 161.336 231.757 161.478 231.064C161.619 230.371 162.024 229.76 162.606 229.359L190.131 210.264L165.531 224.478C164.92 224.809 164.206 224.896 163.534 224.72C162.861 224.544 162.281 224.119 161.912 223.53C161.542 222.942 161.41 222.235 161.543 221.553C161.676 220.87 162.064 220.265 162.628 219.858L170.309 214.638L165.531 217.371C164.925 217.721 164.209 217.825 163.529 217.663C162.849 217.501 162.257 217.084 161.875 216.499C161.493 215.914 161.349 215.204 161.474 214.516C161.599 213.828 161.982 213.215 162.546 212.801L176.934 202.267L165.531 208.827C164.942 209.16 164.251 209.263 163.59 209.116C162.93 208.969 162.348 208.582 161.956 208.03C161.564 207.479 161.391 206.802 161.47 206.13C161.548 205.458 161.873 204.839 162.382 204.393L176.863 191.88L165.531 198.44C164.991 198.752 164.361 198.869 163.745 198.774C163.129 198.678 162.564 198.375 162.144 197.914C161.724 197.453 161.474 196.863 161.436 196.24C161.398 195.618 161.573 195.002 161.934 194.493L169.587 183.674L165.531 186.014C165.053 186.289 164.503 186.414 163.954 186.371C163.404 186.328 162.88 186.12 162.451 185.774C162.022 185.428 161.707 184.961 161.549 184.433C161.39 183.905 161.395 183.341 161.562 182.816L162.775 178.99C162.369 178.752 162.033 178.411 161.802 178C161.441 177.373 161.343 176.629 161.53 175.93C161.716 175.232 162.172 174.635 162.797 174.272L165.531 172.692C166.008 172.415 166.559 172.289 167.109 172.331C167.66 172.373 168.185 172.581 168.615 172.927C169.046 173.273 169.361 173.742 169.52 174.271C169.678 174.799 169.673 175.364 169.505 175.89L168.915 177.721L177.661 172.676C178.201 172.366 178.829 172.25 179.443 172.346C180.058 172.442 180.621 172.745 181.04 173.204C181.459 173.663 181.709 174.252 181.749 174.872C181.789 175.493 181.615 176.108 181.258 176.617L173.605 187.446L199.238 172.648C199.827 172.315 200.518 172.212 201.178 172.359C201.839 172.506 202.421 172.893 202.813 173.444C203.204 173.996 203.378 174.673 203.299 175.345C203.22 176.017 202.895 176.636 202.387 177.082L187.917 189.568L217.267 172.621C217.872 172.271 218.589 172.167 219.269 172.329C219.949 172.491 220.541 172.908 220.923 173.493C221.305 174.078 221.449 174.788 221.324 175.476C221.199 176.163 220.816 176.777 220.252 177.191L205.864 187.758L232.104 172.604C232.716 172.26 233.437 172.165 234.117 172.338C234.798 172.511 235.385 172.939 235.759 173.534C236.132 174.128 236.262 174.844 236.122 175.532C235.982 176.22 235.583 176.828 235.007 177.229L227.353 182.444L244.426 172.604C245.037 172.249 245.762 172.144 246.448 172.312C247.135 172.479 247.73 172.906 248.109 173.504C248.487 174.101 248.62 174.821 248.478 175.514C248.337 176.207 247.933 176.817 247.35 177.218L219.809 196.352L260.935 172.61C261.545 172.247 262.273 172.137 262.964 172.301C263.655 172.466 264.254 172.893 264.636 173.492C265.017 174.091 265.151 174.814 265.008 175.51C264.865 176.206 264.457 176.818 263.871 177.218L217.53 209.608L281.665 172.583C282.279 172.239 283.003 172.145 283.685 172.322C284.367 172.499 284.954 172.932 285.324 173.532C285.695 174.131 285.819 174.85 285.672 175.539C285.525 176.228 285.117 176.833 284.535 177.229L241.348 205.776L288.23 178.705C288.847 178.354 289.577 178.257 290.265 178.434C290.953 178.612 291.545 179.05 291.915 179.656C292.285 180.262 292.405 180.989 292.249 181.682C292.092 182.375 291.673 182.98 291.078 183.368L257.037 205.372L288.23 187.364C288.843 187.015 289.567 186.916 290.251 187.089C290.935 187.261 291.526 187.691 291.9 188.289C292.275 188.887 292.403 189.607 292.259 190.298C292.115 190.988 291.709 191.596 291.127 191.995L229.392 233.727L288.203 199.774C288.82 199.415 289.552 199.312 290.244 199.486C290.936 199.66 291.533 200.098 291.906 200.707C292.28 201.315 292.4 202.045 292.242 202.741C292.085 203.437 291.661 204.044 291.062 204.431L249.439 231.595L288.208 209.215C288.821 208.884 289.538 208.801 290.211 208.981C290.884 209.161 291.463 209.591 291.829 210.184C292.195 210.776 292.322 211.486 292.182 212.169C292.043 212.851 291.648 213.455 291.078 213.856L241.08 246.886L288.186 219.694C288.802 219.344 289.53 219.247 290.216 219.423C290.902 219.599 291.493 220.034 291.865 220.637C292.236 221.241 292.359 221.964 292.207 222.656C292.055 223.348 291.641 223.954 291.051 224.346L243.977 255.332L288.208 229.797C288.824 229.44 289.554 229.337 290.244 229.51C290.934 229.683 291.529 230.118 291.903 230.723C292.278 231.328 292.402 232.055 292.248 232.75C292.095 233.444 291.677 234.052 291.084 234.443L239.823 268.413L288.208 240.479C288.823 240.135 289.547 240.041 290.229 240.218C290.91 240.395 291.498 240.828 291.868 241.428C292.238 242.027 292.363 242.746 292.215 243.435C292.068 244.124 291.661 244.729 291.078 245.125L252.177 270.819L288.208 250.045C288.79 249.712 289.475 249.604 290.131 249.743C290.787 249.881 291.37 250.257 291.767 250.797C292.165 251.337 292.35 252.004 292.288 252.672C292.225 253.34 291.919 253.962 291.428 254.419L272.956 271.442L287.995 262.761C288.62 262.434 289.346 262.361 290.023 262.558C290.701 262.754 291.276 263.204 291.628 263.815C291.981 264.425 292.084 265.148 291.917 265.833C291.749 266.518 291.323 267.111 290.728 267.489L254.348 288.492C253.765 288.827 253.08 288.936 252.423 288.798C251.765 288.66 251.182 288.284 250.783 287.743C250.384 287.202 250.198 286.532 250.262 285.863C250.325 285.193 250.634 284.57 251.128 284.114L269.6 267.096L176.027 321.068C175.612 321.31 175.14 321.438 174.66 321.44Z" fill="#D09A62"/>
<path d="M203.442 230.906C202.854 230.908 202.281 230.719 201.809 230.369C201.336 230.019 200.989 229.526 200.819 228.964C200.649 228.401 200.665 227.798 200.865 227.245C201.065 226.692 201.437 226.218 201.928 225.894L234.843 204.065L198.358 225.128C197.747 225.473 197.028 225.57 196.348 225.399C195.667 225.228 195.079 224.802 194.704 224.21C194.329 223.617 194.196 222.903 194.333 222.215C194.47 221.527 194.866 220.919 195.439 220.514L245.366 186.003L190.53 217.661C189.92 218.001 189.203 218.096 188.526 217.924C187.849 217.753 187.263 217.329 186.889 216.739C186.514 216.15 186.38 215.439 186.513 214.753C186.646 214.068 187.037 213.459 187.605 213.052L237.609 178.53L182.712 210.237C182.099 210.581 181.377 210.675 180.696 210.5C180.015 210.325 179.427 209.894 179.055 209.297C178.684 208.701 178.556 207.983 178.7 207.295C178.843 206.607 179.247 206 179.826 205.601L224.713 175.48L175.852 203.688C175.232 204.064 174.488 204.179 173.784 204.007C173.079 203.834 172.472 203.389 172.096 202.77C171.72 202.15 171.605 201.406 171.778 200.702C171.95 199.997 172.395 199.39 173.015 199.014L200.659 181.444L170.68 198.752C170.061 199.093 169.333 199.181 168.65 198.996C167.966 198.812 167.381 198.37 167.018 197.763C166.654 197.156 166.539 196.432 166.698 195.743C166.857 195.053 167.277 194.453 167.87 194.067L177.164 188.272L166.263 194.57C165.952 194.767 165.604 194.9 165.24 194.96C164.877 195.02 164.505 195.005 164.147 194.918C163.788 194.83 163.452 194.671 163.157 194.45C162.862 194.228 162.615 193.95 162.43 193.631C162.246 193.312 162.128 192.958 162.083 192.592C162.039 192.227 162.069 191.855 162.172 191.501C162.274 191.147 162.448 190.818 162.681 190.532C162.914 190.247 163.203 190.012 163.53 189.841L320.205 99.3894C320.824 99.0481 321.552 98.9604 322.235 99.1447C322.918 99.329 323.503 99.771 323.867 100.378C324.231 100.984 324.346 101.709 324.187 102.398C324.027 103.087 323.607 103.688 323.014 104.074L309.894 112.22C310.52 112.094 311.17 112.191 311.731 112.494C312.293 112.797 312.73 113.287 312.969 113.879C313.207 114.471 313.23 115.128 313.035 115.735C312.84 116.343 312.439 116.863 311.901 117.205L284.267 134.781L292.352 130.118C292.964 129.787 293.679 129.702 294.352 129.88C295.024 130.058 295.603 130.486 295.971 131.076C296.34 131.666 296.469 132.375 296.332 133.057C296.196 133.739 295.805 134.344 295.238 134.748L250.324 164.875L293.56 139.947C294.169 139.614 294.882 139.525 295.555 139.699C296.227 139.873 296.808 140.296 297.179 140.883C297.551 141.469 297.685 142.175 297.555 142.857C297.425 143.539 297.04 144.146 296.479 144.555L246.492 179.072L300.918 147.6C301.529 147.255 302.249 147.158 302.929 147.329C303.609 147.5 304.197 147.926 304.572 148.519C304.947 149.111 305.08 149.825 304.943 150.513C304.806 151.201 304.41 151.81 303.837 152.214L253.921 186.714L308.32 155.335C308.936 154.953 309.679 154.832 310.385 154.997C311.091 155.163 311.702 155.602 312.084 156.218C312.466 156.834 312.587 157.577 312.422 158.283C312.256 158.989 311.817 159.6 311.201 159.982L278.297 181.805L313.967 161.212C314.573 160.867 315.287 160.767 315.965 160.932C316.642 161.097 317.23 161.514 317.61 162.098C317.99 162.683 318.132 163.39 318.008 164.076C317.883 164.762 317.502 165.374 316.941 165.788L288.717 186.277L319.723 168.373C320.279 168.053 320.929 167.938 321.56 168.048C322.192 168.158 322.765 168.487 323.178 168.977C323.592 169.467 323.82 170.087 323.823 170.728C323.826 171.369 323.604 171.991 323.195 172.484L317.788 178.99L319.303 178.115C319.614 177.917 319.962 177.784 320.325 177.724C320.689 177.665 321.061 177.679 321.419 177.767C321.777 177.854 322.114 178.014 322.409 178.235C322.704 178.456 322.951 178.735 323.135 179.054C323.32 179.373 323.438 179.726 323.482 180.092C323.527 180.458 323.497 180.829 323.394 181.183C323.291 181.537 323.118 181.867 322.885 182.152C322.651 182.437 322.362 182.673 322.036 182.844L307.276 191.372C306.721 191.692 306.07 191.807 305.439 191.697C304.807 191.586 304.235 191.258 303.821 190.768C303.407 190.278 303.179 189.658 303.176 189.017C303.173 188.376 303.396 187.754 303.805 187.261L309.211 180.75L246.126 217.174C245.52 217.519 244.805 217.619 244.128 217.454C243.451 217.289 242.862 216.872 242.482 216.288C242.103 215.704 241.96 214.996 242.085 214.31C242.209 213.625 242.591 213.012 243.152 212.599L271.371 192.115L204.809 230.54C204.394 230.782 203.922 230.908 203.442 230.906Z" fill="#E5AE7C"/>
<path d="M168.248 80.9067C167.689 80.9068 167.143 80.7355 166.685 80.4161C166.226 80.0967 165.877 79.6445 165.683 79.1203C165.49 78.5962 165.461 78.0253 165.602 77.4845C165.743 76.9438 166.046 76.4592 166.471 76.096L195.187 51.496V51.4687C194.827 50.8414 194.729 50.0967 194.917 49.3978C195.104 48.6989 195.561 48.1029 196.188 47.7404L206.804 41.5467C207.393 41.2125 208.086 41.1091 208.747 41.2566C209.408 41.404 209.991 41.7918 210.383 42.3448C210.774 42.8977 210.947 43.5764 210.866 44.2491C210.786 44.9218 210.458 45.5407 209.947 45.9856L192.377 61.0627L218.831 45.7943C219.142 45.5965 219.49 45.4637 219.853 45.4039C220.217 45.3441 220.589 45.3585 220.947 45.4462C221.305 45.5339 221.642 45.6931 221.937 45.9143C222.232 46.1354 222.479 46.414 222.663 46.7331C222.848 47.0523 222.966 47.4055 223.01 47.7714C223.055 48.1374 223.025 48.5085 222.922 48.8626C222.819 49.2166 222.646 49.5462 222.413 49.8316C222.179 50.1169 221.891 50.3521 221.564 50.523L169.631 80.5186C169.212 80.769 168.735 80.903 168.248 80.9067Z" fill="#E5AE7C"/>
<path d="M114.658 230.803C114.084 230.803 113.525 230.622 113.06 230.287C112.594 229.951 112.246 229.478 112.065 228.934C111.883 228.389 111.878 227.802 112.049 227.254C112.22 226.707 112.559 226.227 113.018 225.883L122.858 218.563L108.098 227.096C107.478 227.423 106.757 227.499 106.083 227.309C105.409 227.12 104.833 226.678 104.475 226.077C104.117 225.475 104.003 224.759 104.157 224.076C104.312 223.393 104.722 222.795 105.304 222.406L149.814 195.045L100.122 223.734C99.5003 224.072 98.7716 224.156 98.0893 223.968C97.4071 223.78 96.8244 223.334 96.4639 222.725C96.1035 222.116 95.9933 221.391 96.1566 220.702C96.3199 220.014 96.7439 219.415 97.3395 219.033L109.082 211.893L93.48 220.902C92.8591 221.252 92.126 221.346 91.4372 221.163C90.7483 220.98 90.1581 220.535 89.7924 219.924C89.4267 219.312 89.3143 218.582 89.4793 217.888C89.6443 217.195 90.0735 216.594 90.6756 216.212L149.235 180.061L84.788 217.245C84.1706 217.553 83.4596 217.617 82.7975 217.422C82.1355 217.228 81.5714 216.79 81.2185 216.197C80.8657 215.605 80.7501 214.9 80.8951 214.225C81.04 213.551 81.4347 212.956 82 212.56L159.342 164.355L74.8933 213.085C74.2713 213.458 73.5268 213.568 72.8235 213.392C72.1202 213.215 71.5158 212.767 71.1432 212.145C70.7706 211.523 70.6603 210.778 70.8367 210.075C71.013 209.372 71.4615 208.767 72.0835 208.395L146.14 162.36L65.2775 209.045C64.6557 209.383 63.9271 209.467 63.2448 209.279C62.5626 209.091 61.9799 208.645 61.6194 208.036C61.2589 207.427 61.1487 206.702 61.312 206.013C61.4753 205.325 61.8994 204.726 62.4949 204.344L67.5297 201.288L58.8159 206.317C58.1932 206.672 57.456 206.768 56.7631 206.585C56.0702 206.402 55.4772 205.953 55.1116 205.337C54.746 204.72 54.6372 203.985 54.8086 203.289C54.9799 202.593 55.4178 201.992 56.0279 201.616L66.6933 195.094L52.152 203.491C51.5293 203.863 50.7844 203.972 50.0811 203.795C49.3778 203.618 48.7738 203.168 48.4019 202.545C48.03 201.923 47.9207 201.178 48.0981 200.474C48.2754 199.771 48.7249 199.167 49.3476 198.795L105.222 164.355L43.6295 199.889C43.0097 200.23 42.2818 200.318 41.5987 200.133C40.9157 199.949 40.3307 199.507 39.9668 198.9C39.6029 198.294 39.4884 197.569 39.6474 196.88C39.8065 196.191 40.2267 195.59 40.8196 195.204L117.424 147.496L33.8387 195.756C33.2181 196.114 32.4818 196.214 31.7883 196.034C31.0948 195.855 30.4994 195.41 30.1305 194.796C29.7615 194.182 29.6483 193.447 29.8153 192.751C29.9823 192.054 30.4161 191.451 31.0233 191.071L115.434 138.23L23.4192 191.333C22.7986 191.665 22.074 191.745 21.3962 191.555C20.7185 191.366 20.1397 190.923 19.7805 190.318C19.4213 189.713 19.3092 188.993 19.4677 188.307C19.6261 187.622 20.0429 187.023 20.6312 186.637L38.54 175.704L16.5367 188.452C15.9157 188.802 15.1827 188.896 14.4939 188.713C13.805 188.53 13.2148 188.085 12.8491 187.474C12.4833 186.862 12.371 186.132 12.536 185.438C12.7009 184.745 13.1302 184.143 13.7323 183.762L79.7805 142.844L9.08013 183.68C8.77395 183.867 8.43386 183.993 8.07929 184.049C7.72471 184.104 7.36258 184.09 7.01359 184.006C6.30877 183.836 5.70021 183.394 5.3218 182.775C4.94339 182.157 4.82612 181.414 4.99579 180.709C5.16546 180.004 5.60817 179.395 6.22653 179.017L72.9199 135.737L8.34213 173.004C7.72499 173.338 7.00284 173.422 6.32531 173.239C5.64778 173.055 5.06681 172.618 4.70277 172.018C4.33874 171.418 4.21955 170.701 4.36991 170.015C4.52026 169.329 4.92863 168.728 5.5104 168.335L46.5487 142.264L24.3704 155.067C23.7533 155.402 23.0311 155.486 22.3536 155.303C21.676 155.119 21.0951 154.682 20.731 154.082C20.367 153.482 20.2478 152.764 20.3982 152.079C20.5485 151.393 20.9569 150.792 21.5387 150.399L41.328 137.826L39.6388 138.799C39.3326 138.986 38.9925 139.111 38.638 139.167C38.2834 139.223 37.9213 139.209 37.5723 139.125C37.2233 139.041 36.8942 138.889 36.604 138.678C36.3137 138.466 36.0678 138.2 35.8805 137.894C35.6931 137.588 35.5679 137.248 35.5119 136.893C35.456 136.538 35.4704 136.176 35.5545 135.827C35.6385 135.478 35.7904 135.149 36.0016 134.859C36.2127 134.569 36.479 134.323 36.7852 134.136L54.9892 122.366L34.9867 133.933C34.3693 134.285 33.6395 134.382 32.9516 134.205C32.2638 134.027 31.6721 133.589 31.3019 132.983C30.9316 132.376 30.8119 131.65 30.968 130.957C31.1242 130.264 31.544 129.659 32.1385 129.27L44.7119 121.169L30.5587 129.336C29.9467 129.698 29.2174 129.808 28.5258 129.642C27.8341 129.475 27.2346 129.046 26.8546 128.445C26.4745 127.843 26.3439 127.117 26.4905 126.421C26.6371 125.725 27.0492 125.114 27.6395 124.716L76.9652 90.7466L23.2607 121.726C22.6463 122.076 21.9205 122.174 21.2355 121.999C20.5505 121.825 19.9597 121.392 19.5869 120.792C19.2142 120.191 19.0885 119.47 19.2364 118.779C19.3842 118.088 19.794 117.481 20.3797 117.085L56.4105 93.0645L17.384 115.598C17.0782 115.786 16.7383 115.912 16.3838 115.969C16.0293 116.026 15.667 116.012 15.3178 115.929C14.9685 115.846 14.6391 115.694 14.3483 115.484C14.0575 115.273 13.811 115.007 13.6229 114.702C13.2431 114.084 13.1241 113.341 13.2923 112.635C13.4604 111.93 13.9018 111.32 14.5195 110.94L36.9328 96.3062L12.4367 110.427C11.8223 110.776 11.0965 110.874 10.4115 110.7C9.72654 110.526 9.13568 110.093 8.76293 109.492C8.39018 108.892 8.26453 108.17 8.41235 107.479C8.56017 106.788 8.96997 106.181 9.55573 105.785L17.5316 100.461L8.65373 105.583C8.10694 105.904 7.46542 106.026 6.8391 105.926C6.21277 105.826 5.64062 105.512 5.22067 105.036C4.80337 104.557 4.56634 103.947 4.55037 103.311C4.53441 102.676 4.74051 102.054 5.1332 101.554L11.2559 93.7533L8.69747 95.2293C8.38636 95.4271 8.03847 95.5598 7.67472 95.6197C7.31096 95.6795 6.93887 95.6651 6.58081 95.5774C6.22275 95.4897 5.88614 95.3305 5.59121 95.1093C5.29629 94.8882 5.04915 94.6096 4.86467 94.2905C4.68018 93.9713 4.56216 93.6181 4.51771 93.2522C4.47326 92.8862 4.50329 92.5151 4.606 92.161C4.70871 91.807 4.88198 91.4774 5.11538 91.192C5.34878 90.9067 5.63749 90.6715 5.96413 90.5006L20.7733 81.9562C21.3228 81.6417 21.9644 81.5277 22.5885 81.6336C23.2127 81.7395 23.7808 82.0588 24.1957 82.537C24.6106 83.0151 24.8467 83.6225 24.8636 84.2554C24.8805 84.8883 24.6772 85.5074 24.2884 86.007L18.1548 93.8025L87.4065 53.8247C88.0199 53.4809 88.7422 53.3867 89.4233 53.5617C90.1043 53.7366 90.6917 54.1674 91.0634 54.7643C91.4351 55.3612 91.5624 56.0784 91.4189 56.7668C91.2754 57.4552 90.8722 58.0618 90.2929 58.4605L82.2679 63.8233L120.294 41.8691C120.911 41.5104 121.644 41.4071 122.336 41.5815C123.028 41.7558 123.624 42.1939 123.998 42.8021C124.371 43.4103 124.492 44.1404 124.334 44.8364C124.176 45.5323 123.752 46.139 123.153 46.5267L100.74 61.161L127.209 45.8871C127.822 45.5525 128.54 45.4652 129.215 45.643C129.891 45.8208 130.472 46.2504 130.841 46.8435C131.209 47.4366 131.337 48.1482 131.197 48.8324C131.058 49.5166 130.662 50.1215 130.09 50.5229L94.0595 74.5434L133.419 51.8185C134.03 51.4737 134.75 51.3768 135.43 51.5478C136.11 51.7188 136.698 52.1446 137.073 52.7372C137.448 53.3298 137.581 54.0438 137.444 54.7315C137.308 55.4193 136.912 56.0282 136.339 56.4323L87.0403 90.4186L141.16 59.1766C141.467 58.9896 141.807 58.8648 142.162 58.8093C142.517 58.7539 142.879 58.7688 143.228 58.8533C143.577 58.9379 143.906 59.0903 144.196 59.3019C144.486 59.5136 144.732 59.7803 144.919 60.0868C145.106 60.3934 145.23 60.7337 145.286 61.0885C145.341 61.4433 145.326 61.8055 145.242 62.1545C145.157 62.5035 145.005 62.8324 144.793 63.1225C144.582 63.4126 144.315 63.6581 144.008 63.8451L131.386 71.9522L145.829 63.621C146.444 63.2868 147.165 63.2018 147.842 63.3835C148.518 63.5652 149.099 63.9997 149.465 64.5973C149.83 65.195 149.952 65.9102 149.806 66.5952C149.659 67.2802 149.255 67.8828 148.677 68.2786L130.511 80.032L150.776 68.3333C151.393 67.9988 152.115 67.9146 152.793 68.0981C153.47 68.2816 154.051 68.7187 154.415 69.3189C154.78 69.919 154.899 70.6362 154.748 71.3219C154.598 72.0075 154.19 72.6091 153.608 73.0018L133.764 85.6079L155.631 72.98C156.248 72.6455 156.97 72.5613 157.647 72.7448C158.325 72.9283 158.906 73.3654 159.27 73.9655C159.634 74.5657 159.753 75.2829 159.603 75.9686C159.452 76.6542 159.044 77.2557 158.462 77.6485L117.533 103.67L161.338 78.381C161.954 78.0367 162.68 77.9441 163.363 78.1227C164.045 78.3014 164.633 78.7373 165.002 79.3392C165.37 79.9411 165.492 80.6624 165.341 81.352C165.19 82.0416 164.778 82.646 164.191 83.0386L97.4433 126.329L229.288 50.2113C229.908 49.87 230.636 49.7822 231.319 49.9666C232.002 50.1509 232.587 50.5929 232.951 51.1996C233.315 51.8064 233.429 52.5306 233.27 53.22C233.111 53.9094 232.691 54.5102 232.098 54.8962L166.017 95.8361L238.396 54.0543C239.016 53.7227 239.741 53.6431 240.419 53.8322C241.097 54.0213 241.675 54.4645 242.035 55.0696C242.394 55.6746 242.506 56.3949 242.347 57.0805C242.189 57.7661 241.772 58.3642 241.184 58.7502L223.193 69.7109L245.284 56.9571C245.903 56.6101 246.633 56.5177 247.319 56.6994C248.006 56.8811 248.594 57.3226 248.961 57.9306C249.327 58.5386 249.443 59.2653 249.283 59.9569C249.123 60.6486 248.701 61.251 248.105 61.6366L163.688 114.477L255.703 61.3578C256.324 61 257.06 60.9001 257.754 61.0796C258.447 61.2591 259.043 61.7038 259.412 62.3178C259.781 62.9318 259.894 63.6662 259.727 64.3628C259.56 65.0595 259.126 65.6627 258.519 66.0428L181.985 113.707L265.516 65.4906C266.139 65.1187 266.884 65.0094 267.587 65.1868C268.29 65.3642 268.894 65.8136 269.266 66.4363C269.638 67.0591 269.747 67.804 269.57 68.5073C269.393 69.2106 268.943 69.8146 268.32 70.1865L212.353 104.703L274.039 69.0931C274.661 68.7383 275.398 68.6422 276.091 68.8256C276.784 69.0091 277.377 69.4573 277.743 70.0738C278.108 70.6902 278.217 71.4256 278.046 72.1216C277.874 72.8175 277.437 73.4183 276.827 73.7945L266.396 80.1304L280.675 71.8866C280.984 71.7036 281.326 71.5832 281.682 71.5323C282.037 71.4814 282.399 71.5011 282.747 71.5902C283.095 71.6793 283.422 71.836 283.71 72.0515C283.997 72.267 284.239 72.537 284.422 72.846C284.606 73.1551 284.726 73.4972 284.777 73.8527C284.828 74.2083 284.808 74.5704 284.719 74.9184C284.63 75.2664 284.473 75.5934 284.258 75.8808C284.042 76.1682 283.772 76.4104 283.463 76.5934L278.428 79.6438L287.137 74.6145C287.759 74.2419 288.503 74.1316 289.206 74.3079C289.91 74.4843 290.514 74.9328 290.887 75.5548C291.259 76.1767 291.37 76.9213 291.193 77.6246C291.017 78.3278 290.569 78.9323 289.947 79.3049L215.835 125.411L296.774 78.6872C297.395 78.3293 298.131 78.2294 298.825 78.4089C299.518 78.5885 300.114 79.0331 300.483 79.6471C300.852 80.2612 300.965 80.9955 300.798 81.6922C300.631 82.3888 300.197 82.9921 299.59 83.3721L222.247 131.572L306.647 82.8473C307.27 82.4761 308.015 82.3675 308.717 82.5454C309.42 82.7233 310.023 83.173 310.395 83.7957C310.766 84.4185 310.874 85.1631 310.696 85.8659C310.519 86.5687 310.069 87.172 309.446 87.5432L250.827 123.738L315.148 86.6029C315.768 86.2712 316.493 86.1916 317.171 86.3807C317.849 86.5698 318.427 87.0131 318.787 87.6181C319.146 88.2232 319.258 88.9435 319.099 89.629C318.941 90.3146 318.524 90.9127 317.936 91.2988L306.292 98.4L319.412 90.8177C320.033 90.4742 320.764 90.3859 321.449 90.5715C322.134 90.7572 322.721 91.2022 323.084 91.8123C323.446 92.4225 323.558 93.15 323.394 93.8408C323.23 94.5316 322.804 95.1315 322.205 95.5136L165.241 191.973C165.342 192.482 165.296 193.01 165.108 193.494C164.92 193.978 164.599 194.398 164.18 194.706L143.363 210.171C143.74 210.435 144.045 210.79 144.248 211.202C144.452 211.614 144.548 212.072 144.527 212.531C144.507 212.991 144.372 213.438 144.133 213.831C143.894 214.224 143.56 214.55 143.161 214.78L116.025 230.453C115.608 230.689 115.136 230.809 114.658 230.803Z" fill="#E5AE7C"/>
<path d="M162.639 193.296C162.059 193.296 161.494 193.111 161.026 192.769C160.557 192.427 160.21 191.944 160.034 191.392C159.858 190.839 159.863 190.244 160.047 189.695C160.231 189.145 160.586 188.667 161.059 188.332L208.1 155.04L151.727 187.589C151.12 187.927 150.406 188.021 149.732 187.852C149.057 187.682 148.472 187.262 148.097 186.677C147.721 186.092 147.583 185.385 147.71 184.701C147.837 184.018 148.22 183.408 148.781 182.997L195.893 149.65L139.433 182.242C139.128 182.431 138.788 182.559 138.434 182.617C138.08 182.675 137.718 182.662 137.368 182.58C137.019 182.498 136.689 182.348 136.397 182.139C136.106 181.929 135.858 181.664 135.669 181.359C135.48 181.054 135.353 180.715 135.295 180.361C135.237 180.006 135.249 179.644 135.331 179.295C135.413 178.945 135.563 178.615 135.772 178.324C135.982 178.032 136.247 177.785 136.552 177.596L162.923 160.102L130.943 178.563C130.333 178.913 129.611 179.015 128.928 178.846C128.245 178.678 127.653 178.253 127.276 177.659C126.899 177.065 126.764 176.349 126.902 175.659C127.039 174.969 127.437 174.359 128.013 173.955L171.391 143.773L119.622 173.66C119.004 174.011 118.274 174.108 117.587 173.931C116.899 173.753 116.307 173.315 115.937 172.709C115.567 172.103 115.447 171.376 115.603 170.683C115.759 169.99 116.179 169.385 116.773 168.997L123.519 164.651L112.941 170.724C112.325 171.063 111.601 171.151 110.921 170.97C110.241 170.789 109.657 170.353 109.29 169.752C108.924 169.151 108.803 168.432 108.954 167.744C109.105 167.057 109.515 166.454 110.099 166.061L114.363 163.328L106.436 167.903C106.131 168.093 105.792 168.221 105.438 168.28C105.084 168.339 104.721 168.327 104.372 168.246C104.022 168.165 103.691 168.015 103.399 167.807C103.107 167.598 102.859 167.333 102.669 167.029C102.48 166.724 102.352 166.385 102.293 166.03C102.234 165.676 102.245 165.314 102.327 164.964C102.408 164.614 102.557 164.284 102.766 163.992C102.975 163.7 103.239 163.452 103.544 163.262L133.206 143.434L97.5308 164.033C96.9193 164.382 96.1964 164.482 95.513 164.312C94.8295 164.141 94.2383 163.714 93.8625 163.118C93.4867 162.522 93.3554 161.804 93.496 161.114C93.6366 160.424 94.0382 159.815 94.617 159.413L134.885 131.697L86.8872 159.403C86.2761 159.758 85.5511 159.863 84.8643 159.695C84.1775 159.528 83.5823 159.101 83.2038 158.503C82.8253 157.906 82.6929 157.186 82.8344 156.493C82.9758 155.8 83.3802 155.19 83.9625 154.789L124.963 126.515L76.096 154.707C75.4872 155.058 74.7666 155.161 74.0838 154.994C73.401 154.828 72.8085 154.405 72.4293 153.814C72.0501 153.222 71.9134 152.507 72.0475 151.817C72.1816 151.127 72.5762 150.516 73.1494 150.109L120.267 116.735L63.785 149.355C63.1784 149.703 62.4614 149.805 61.7816 149.641C61.1019 149.476 60.511 149.057 60.1306 148.47C59.7503 147.883 59.6095 147.173 59.7371 146.485C59.8647 145.798 60.251 145.185 60.8166 144.774L89.4018 124.093L53.4366 144.867C53.0639 145.082 52.6454 145.207 52.2154 145.23C51.7854 145.253 51.356 145.174 50.9622 145C50.5683 144.826 50.2213 144.561 49.9493 144.227C49.6772 143.893 49.4879 143.5 49.3968 143.079L47.8934 136.093L41.5958 139.723C40.9684 140.079 40.2253 140.173 39.5287 139.984C38.8321 139.795 38.2387 139.338 37.8778 138.713C37.5169 138.088 37.4178 137.346 37.6023 136.648C37.7868 135.95 38.2398 135.353 38.8625 134.988L48.4073 129.483C48.7824 129.271 49.2016 129.148 49.6322 129.124C50.0628 129.1 50.493 129.176 50.8892 129.347C51.283 129.522 51.6299 129.787 51.9016 130.121C52.1734 130.456 52.3622 130.85 52.4526 131.271L53.956 138.257L132.72 92.7857C133.326 92.4376 134.043 92.3352 134.723 92.4997C135.403 92.6642 135.994 93.083 136.374 93.67C136.754 94.257 136.895 94.9674 136.768 95.6551C136.64 96.3427 136.254 96.9553 135.688 97.3668L107.087 118.058L168.723 82.4756C169.332 82.1245 170.053 82.0215 170.735 82.1877C171.418 82.354 172.011 82.7769 172.39 83.3686C172.769 83.9602 172.906 84.6752 172.772 85.365C172.638 86.0548 172.243 86.6665 171.67 87.073L124.531 120.42L181.034 87.8001C181.645 87.4553 182.364 87.3584 183.045 87.5294C183.725 87.7004 184.313 88.1262 184.688 88.7188C185.063 89.3114 185.196 90.0254 185.059 90.7131C184.922 91.4009 184.526 92.0098 183.953 92.414L142.953 120.693L191.803 92.496C192.415 92.1464 193.138 92.0464 193.821 92.2168C194.505 92.3873 195.096 92.815 195.472 93.4107C195.848 94.0065 195.979 94.7243 195.838 95.4145C195.698 96.1047 195.296 96.714 194.717 97.1153L154.45 124.831L202.447 97.1262C203.06 96.7824 203.783 96.6882 204.464 96.8631C205.145 97.0381 205.732 97.4688 206.104 98.0658C206.476 98.6627 206.603 99.3799 206.459 100.068C206.316 100.757 205.913 101.363 205.333 101.762L175.699 121.601L211.374 101.008C211.991 100.656 212.721 100.559 213.409 100.736C214.097 100.914 214.689 101.352 215.059 101.958C215.429 102.564 215.549 103.291 215.393 103.984C215.237 104.677 214.817 105.282 214.222 105.671L209.953 108.404L217.879 103.828C218.497 103.477 219.227 103.38 219.914 103.557C220.602 103.735 221.194 104.173 221.564 104.779C221.935 105.385 222.054 106.112 221.898 106.805C221.742 107.498 221.322 108.103 220.728 108.491L213.987 112.837L224.56 106.731C225.17 106.381 225.892 106.28 226.575 106.448C227.258 106.616 227.849 107.042 228.227 107.635C228.604 108.229 228.738 108.945 228.601 109.635C228.464 110.325 228.066 110.936 227.49 111.34L184.123 141.543L235.881 111.657C236.496 111.307 237.221 111.209 237.906 111.384C238.591 111.558 239.182 111.99 239.555 112.591C239.928 113.191 240.053 113.913 239.905 114.604C239.758 115.295 239.348 115.902 238.762 116.298L212.418 133.791L244.36 115.347C244.968 115.008 245.681 114.914 246.356 115.084C247.03 115.253 247.615 115.673 247.99 116.258C248.366 116.844 248.504 117.55 248.377 118.234C248.25 118.918 247.867 119.527 247.307 119.939L200.206 153.285L256.66 120.693C257.269 120.342 257.989 120.239 258.672 120.405C259.355 120.571 259.947 120.994 260.327 121.586C260.706 122.178 260.843 122.893 260.708 123.582C260.574 124.272 260.18 124.884 259.607 125.291L212.566 158.583L268.96 126.034C269.533 125.723 270.198 125.626 270.835 125.762C271.473 125.898 272.041 126.258 272.437 126.776C272.833 127.294 273.03 127.936 272.994 128.587C272.958 129.238 272.691 129.854 272.24 130.325L257.699 144.932L281.205 131.364C281.833 131.007 282.576 130.913 283.272 131.102C283.969 131.291 284.562 131.748 284.923 132.373C285.284 132.998 285.383 133.741 285.199 134.439C285.014 135.137 284.561 135.733 283.939 136.098L242.616 159.96C242.043 160.271 241.378 160.368 240.741 160.232C240.103 160.096 239.535 159.736 239.139 159.218C238.743 158.7 238.546 158.058 238.582 157.407C238.618 156.756 238.885 156.14 239.336 155.669L253.856 141.04L164 192.93C163.587 193.171 163.117 193.297 162.639 193.296Z" fill="#A0724B"/>
<path d="M99.7776 117.375C99.1829 117.376 98.6042 117.182 98.1293 116.824C97.6543 116.467 97.3091 115.963 97.1459 115.392C96.9826 114.82 97.0104 114.21 97.2249 113.656C97.4394 113.101 97.8289 112.631 98.3344 112.318L121.42 97.9845L88.478 116.987C87.8627 117.326 87.1406 117.414 86.4615 117.235C85.7824 117.056 85.1984 116.622 84.8307 116.024C84.4629 115.425 84.3396 114.708 84.4864 114.021C84.6332 113.334 85.0387 112.73 85.6189 112.335L167.28 59.204L68.5246 116.216C67.9019 116.588 67.157 116.697 66.4537 116.52C65.7504 116.342 65.1464 115.893 64.7745 115.27C64.4026 114.647 64.2933 113.902 64.4707 113.199C64.648 112.496 65.0975 111.892 65.7202 111.52L84.2577 100.078L61.9701 112.941C61.35 113.278 60.6238 113.361 59.9435 113.174C59.2632 112.988 58.6815 112.545 58.32 111.939C57.9585 111.333 57.8452 110.611 58.0039 109.924C58.1625 109.236 58.5808 108.637 59.1712 108.251L65.0314 104.648L58.4004 108.475C57.7838 108.844 57.0466 108.956 56.3484 108.786C55.6502 108.615 55.0471 108.177 54.6698 107.565C54.2924 106.954 54.1712 106.218 54.3322 105.518C54.4933 104.817 54.9237 104.208 55.5304 103.823L129.91 54.8963L56.1973 97.4433C55.5816 97.7775 54.8611 97.8626 54.1845 97.6809C53.508 97.4992 52.927 97.0647 52.5615 96.467C52.196 95.8694 52.074 95.1542 52.2206 94.4692C52.3671 93.7841 52.7711 93.1815 53.3492 92.7857L99.209 63.1892L56.1973 88.0133C55.5835 88.3522 54.8629 88.4422 54.1846 88.2648C53.5062 88.0874 52.922 87.656 52.5527 87.06C52.1835 86.464 52.0574 85.7488 52.2005 85.0624C52.3437 84.376 52.7451 83.7709 53.3218 83.3721L101.483 51.3867L56.1973 77.5064C55.5795 77.8517 54.8519 77.944 54.1676 77.7637C53.4832 77.5835 52.8954 77.1448 52.5279 76.5401C52.1603 75.9353 52.0417 75.2115 52.1969 74.521C52.3521 73.8305 52.7691 73.2272 53.3601 72.8379L59.3406 69.0112L56.1918 70.8261C55.5745 71.1775 54.8446 71.2748 54.1568 71.0974C53.469 70.9199 52.8773 70.4817 52.507 69.8754C52.1368 69.2692 52.017 68.5427 52.1732 67.8497C52.3294 67.1568 52.7492 66.5518 53.3437 66.1631L58.3676 62.9213L56.1809 64.1732C55.5662 64.5032 54.8485 64.5856 54.175 64.4035C53.5015 64.2215 52.9231 63.7887 52.5583 63.194C52.1935 62.5993 52.07 61.8876 52.2129 61.2047C52.3559 60.5219 52.7546 59.9195 53.3273 59.5211L55.4812 58.1161C54.8659 58.2734 54.215 58.2115 53.6404 57.9411C53.0658 57.6707 52.6033 57.2087 52.3323 56.6344C52.0613 56.06 51.9987 55.4092 52.1554 54.7938C52.312 54.1783 52.678 53.6367 53.1906 53.2617L81.7212 32.1823L56.1809 46.9423C55.5764 47.2886 54.8625 47.3909 54.185 47.2285C53.5075 47.0661 52.9176 46.6511 52.5359 46.0683C52.1541 45.4856 52.0093 44.779 52.131 44.093C52.2527 43.4071 52.6317 42.7935 53.1906 42.3776L66.5894 32.5048L56.2028 38.5181C55.6204 38.8667 54.9291 38.986 54.2636 38.853C53.598 38.72 53.0058 38.3442 52.602 37.7986C52.1983 37.253 52.012 36.5768 52.0794 35.9014C52.1467 35.226 52.463 34.5999 52.9665 34.1448L68.2732 19.7292L56.1918 26.6883C55.644 27.001 55.0048 27.1145 54.3827 27.0097C53.7607 26.9048 53.194 26.5881 52.7789 26.1131C52.3638 25.6381 52.1257 25.0341 52.1051 24.4037C52.0845 23.7732 52.2826 23.155 52.6658 22.6539L58.6792 14.8803C58.1535 14.933 57.6238 14.8338 57.1529 14.5944C56.682 14.3551 56.2896 13.9857 56.0224 13.53C55.6599 12.9022 55.5617 12.1562 55.7493 11.456C55.9369 10.7558 56.395 10.1588 57.0228 9.79628L67.5898 3.69548C68.1378 3.37976 68.7783 3.26381 69.4021 3.36738C70.026 3.47096 70.5946 3.78765 71.0111 4.2635C71.4277 4.73935 71.6663 5.3449 71.6864 5.97698C71.7065 6.60905 71.5068 7.22854 71.1213 7.72988L65.4852 15.0115L85.8266 3.28001C86.4091 2.92582 87.1028 2.80205 87.7718 2.93298C88.4408 3.06392 89.0368 3.44011 89.4427 3.98774C89.8486 4.53538 90.0353 5.21494 89.966 5.8931C89.8968 6.57125 89.5766 7.19906 89.0684 7.65334L73.8 22.0361L106.294 3.28001C106.898 2.93373 107.612 2.83135 108.29 2.99379C108.967 3.15623 109.557 3.57122 109.939 4.15398C110.321 4.73674 110.465 5.44328 110.344 6.12924C110.222 6.8152 109.843 7.4288 109.284 7.84468L95.9072 17.6847L120.89 3.28001C121.494 2.93373 122.208 2.83135 122.886 2.99379C123.563 3.15623 124.153 3.57122 124.535 4.15398C124.917 4.73674 125.061 5.44328 124.94 6.12924C124.818 6.8152 124.439 7.4288 123.88 7.84468L95.366 28.9023L139.783 3.28001C140.398 2.94118 141.12 2.85219 141.799 3.03151C142.478 3.21084 143.062 3.6447 143.43 4.24311C143.798 4.84151 143.921 5.55852 143.774 6.2454C143.627 6.93227 143.222 7.53629 142.642 7.93214L142.095 8.27654L150.776 3.28001C151.392 2.93569 152.118 2.84314 152.801 3.02174C153.484 3.20035 154.071 3.63626 154.44 4.23819C154.809 4.84012 154.93 5.5614 154.779 6.25097C154.628 6.94055 154.216 7.54495 153.63 7.93761L148.606 11.1793L162.294 3.28001C162.911 2.94084 163.635 2.85263 164.315 3.03374C164.995 3.21485 165.579 3.65133 165.945 4.25228C166.312 4.85323 166.432 5.57233 166.282 6.25984C166.131 6.94735 165.721 7.55028 165.137 7.94308L159.151 11.7697L173.84 3.28001C174.452 2.95319 175.166 2.87164 175.837 3.05191C176.507 3.23219 177.084 3.66078 177.45 4.2507C177.816 4.84061 177.943 5.54766 177.807 6.22832C177.671 6.90899 177.28 7.51228 176.715 7.91574L128.56 39.9067L192.071 3.28001C192.687 2.94582 193.407 2.86079 194.084 3.04247C194.761 3.22415 195.342 3.65867 195.707 4.25633C196.073 4.85398 196.195 5.56915 196.048 6.25419C195.901 6.93922 195.497 7.54183 194.919 7.93761L149.081 37.5068L208.395 3.28001C209.01 2.93613 209.733 2.8429 210.415 3.01974C211.097 3.19659 211.684 3.62986 212.055 4.22919C212.425 4.82852 212.549 5.54763 212.402 6.23652C212.255 6.92542 211.848 7.5309 211.265 7.92668L136.842 56.8533L229.704 3.28001C230.323 2.95352 231.045 2.87726 231.719 3.06694C232.393 3.25663 232.968 3.69781 233.327 4.29945C233.685 4.9011 233.799 5.61733 233.644 6.30039C233.49 6.98344 233.079 7.58122 232.497 7.97041L226.752 11.48L241.014 3.28001C241.635 2.93019 242.368 2.83674 243.057 3.01958C243.746 3.20241 244.336 3.64707 244.702 4.25877C245.068 4.87047 245.18 5.60083 245.015 6.29417C244.85 6.98752 244.421 7.589 243.819 7.97041L225.265 19.4504L253.238 3.28001C253.853 2.94118 254.575 2.85219 255.254 3.03151C255.933 3.21084 256.517 3.6447 256.885 4.24311C257.253 4.84151 257.376 5.55852 257.229 6.2454C257.083 6.93227 256.677 7.53629 256.097 7.93214L174.43 61.0681L266.719 7.79001C267.338 7.44869 268.066 7.36096 268.749 7.54528C269.432 7.7296 270.017 8.1716 270.381 8.77834C270.745 9.38509 270.86 10.1093 270.701 10.7987C270.542 11.4881 270.121 12.089 269.529 12.4749L246.465 26.7867L270.398 12.9724C271.013 12.6285 271.736 12.5353 272.418 12.7121C273.1 12.889 273.687 13.3223 274.058 13.9216C274.428 14.5209 274.552 15.24 274.405 15.9289C274.258 16.6178 273.85 17.2233 273.268 17.6191L198.374 67.1416L271.803 24.7476C272.423 24.3898 273.16 24.2899 273.853 24.4694C274.547 24.6489 275.142 25.0936 275.511 25.7076C275.88 26.3216 275.993 27.056 275.826 27.7526C275.659 28.4493 275.225 29.0525 274.618 29.4325L259.311 39.0539L271.803 31.8379C272.421 31.4979 273.147 31.4102 273.828 31.593C274.509 31.7757 275.094 32.2149 275.459 32.8186C275.824 33.4223 275.941 34.1438 275.787 34.8321C275.632 35.5205 275.217 36.1223 274.629 36.5119L257.721 47.2539L271.803 39.1195C272.421 38.757 273.157 38.652 273.853 38.8272C274.548 39.0025 275.146 39.4438 275.519 40.0562C275.892 40.6685 276.009 41.4029 275.846 42.1009C275.683 42.799 275.251 43.4049 274.645 43.788L257.179 55.0111L271.803 46.576C272.413 46.2312 273.133 46.1343 273.813 46.3053C274.493 46.4763 275.081 46.9021 275.456 47.4947C275.831 48.0873 275.964 48.8013 275.827 49.4891C275.691 50.1768 275.295 50.7857 274.722 51.1899L235.679 78.1023L271.808 57.2469C272.42 56.9117 273.136 56.8229 273.811 56.9987C274.486 57.1745 275.068 57.6016 275.438 58.1926C275.809 58.7836 275.939 59.4938 275.803 60.1778C275.666 60.8617 275.274 61.4677 274.705 61.8717L256.348 74.3467L271.808 65.4196C272.419 65.064 273.144 64.959 273.831 65.1267C274.518 65.2943 275.113 65.7216 275.491 66.3187C275.87 66.9158 276.002 67.6363 275.861 68.329C275.719 69.0217 275.315 69.6326 274.733 70.0335L261.695 79.0589L271.808 73.226C272.414 72.8814 273.128 72.7813 273.806 72.946C274.483 73.1108 275.072 73.528 275.451 74.1123C275.831 74.6967 275.973 75.4041 275.849 76.0898C275.725 76.7756 275.343 77.3879 274.782 77.8016L262.947 86.3733L271.825 81.2511C272.423 80.913 273.126 80.8128 273.795 80.9702C274.464 81.1277 275.049 81.5313 275.434 82.1008C275.819 82.6702 275.975 83.3636 275.871 84.043C275.768 84.7223 275.412 85.3377 274.875 85.7665L265.844 92.8349L271.825 89.3855C272.401 89.0482 273.082 88.934 273.737 89.0644C274.393 89.1949 274.978 89.5609 275.382 90.0933C275.786 90.6258 275.98 91.2877 275.929 91.9541C275.878 92.6204 275.585 93.2449 275.105 93.7096L267.32 101.297L271.218 99.0505C271.529 98.8528 271.877 98.72 272.24 98.6601C272.604 98.6003 272.976 98.6147 273.334 98.7024C273.692 98.7901 274.029 98.9493 274.324 99.1705C274.619 99.3917 274.866 99.6702 275.051 99.9894C275.235 100.309 275.353 100.662 275.397 101.028C275.442 101.394 275.412 101.765 275.309 102.119C275.206 102.473 275.033 102.802 274.8 103.088C274.566 103.373 274.278 103.608 273.951 103.779L251.029 116.987C250.452 117.324 249.772 117.438 249.116 117.308C248.461 117.177 247.876 116.811 247.472 116.279C247.068 115.746 246.874 115.084 246.925 114.418C246.976 113.752 247.269 113.127 247.749 112.663L255.528 105.102L234.941 116.987C234.342 117.331 233.636 117.437 232.963 117.281C232.29 117.126 231.7 116.722 231.313 116.15C230.926 115.578 230.77 114.881 230.876 114.198C230.982 113.516 231.343 112.899 231.885 112.471L240.911 105.403L220.853 116.987C220.248 117.331 219.533 117.431 218.856 117.267C218.179 117.102 217.59 116.685 217.21 116.1C216.83 115.516 216.688 114.809 216.812 114.123C216.937 113.437 217.319 112.825 217.879 112.411L229.709 103.812L206.859 116.987C206.249 117.327 205.532 117.422 204.855 117.25C204.178 117.079 203.592 116.655 203.218 116.065C202.843 115.475 202.709 114.765 202.842 114.079C202.975 113.394 203.366 112.785 203.934 112.378L216.934 103.375L193.34 116.987C192.728 117.322 192.011 117.411 191.337 117.235C190.662 117.059 190.08 116.632 189.709 116.041C189.339 115.45 189.209 114.74 189.345 114.056C189.481 113.372 189.874 112.766 190.442 112.362L208.827 99.9307L179.23 116.987C178.619 117.331 177.9 117.428 177.22 117.257C176.54 117.086 175.951 116.661 175.576 116.068C175.201 115.475 175.069 114.761 175.205 114.074C175.342 113.386 175.738 112.777 176.311 112.373L215.387 85.4713L160.72 116.987C160.103 117.326 159.38 117.414 158.699 117.233C158.019 117.052 157.435 116.615 157.069 116.014C156.703 115.413 156.582 114.694 156.733 114.007C156.883 113.319 157.293 112.716 157.877 112.324L175.305 101.117L147.819 116.97C147.202 117.305 146.479 117.389 145.802 117.205C145.124 117.022 144.543 116.585 144.179 115.985C143.815 115.385 143.696 114.667 143.846 113.982C143.997 113.296 144.405 112.694 144.987 112.302L161.934 101.543L135.218 116.987C134.599 117.322 133.875 117.405 133.197 117.22C132.518 117.035 131.937 116.595 131.574 115.992C131.211 115.39 131.095 114.67 131.249 113.984C131.404 113.297 131.817 112.697 132.403 112.307L147.758 102.659L122.934 116.987C122.321 117.317 121.605 117.401 120.932 117.221C120.259 117.04 119.68 116.61 119.314 116.018C118.947 115.425 118.821 114.715 118.96 114.033C119.1 113.35 119.495 112.747 120.064 112.345L194.958 62.8175L101.133 116.987C100.723 117.232 100.256 117.366 99.7776 117.375Z" fill="#7AD4EC"/>
<path d="M111.247 89.8174C108.578 88.4895 106.332 86.4436 104.762 83.9096C103.191 81.3756 102.359 78.4539 102.358 75.4728C102.314 73.7618 94.3711 75.0847 94.4421 77.5939C94.5466 80.0251 95.1439 82.4097 96.1976 84.6032C97.2514 86.7966 98.7397 88.7532 100.572 90.3542C102.405 91.9552 104.544 93.1673 106.859 93.917C109.174 94.6667 111.617 94.9384 114.04 94.7155C119.044 94.766 123.903 93.0394 127.753 89.8431C131.603 86.6467 134.194 82.188 135.065 77.2604C135.233 74.8318 134.899 72.3945 134.082 70.1011C133.266 67.8078 131.984 65.7076 130.319 63.9322C128.653 62.1567 126.639 60.7441 124.402 59.7829C122.166 58.8216 119.755 58.3324 117.32 58.3458C114.706 58.2186 112.165 57.4378 109.93 56.0749C107.696 54.7119 105.839 52.8103 104.529 50.544C103.22 48.2778 102.499 45.7192 102.434 43.1026C102.369 40.486 102.961 37.8948 104.156 35.5662C104.7 34.2517 105.512 33.0654 106.541 32.0833C107.57 31.1013 108.793 30.3451 110.131 29.8633C111.469 29.3815 112.894 29.1848 114.312 29.2857C115.731 29.3866 117.113 29.783 118.37 30.4494C121.039 31.7772 123.285 33.8231 124.855 36.3571C126.425 38.8911 127.257 41.8128 127.259 44.7939C127.302 46.505 135.245 45.182 135.174 42.6728C135.07 40.2416 134.472 37.857 133.419 35.6636C132.365 33.4701 130.877 31.5135 129.044 29.9125C127.212 28.3115 125.073 27.0994 122.758 26.3497C120.443 25.6 117.999 25.3284 115.576 25.5512C110.573 25.5008 105.713 27.2273 101.863 30.4237C98.0133 33.62 95.4223 38.0787 94.5515 43.0063C94.3837 45.4347 94.7188 47.8717 95.5358 50.1647C96.3528 52.4577 97.6341 54.5575 99.2996 56.3328C100.965 58.1081 102.979 59.5207 105.215 60.4822C107.451 61.4437 109.862 61.9335 112.296 61.921C114.911 62.0481 117.451 62.8289 119.686 64.1918C121.921 65.5548 123.778 67.4564 125.087 69.7227C126.397 71.989 127.117 74.5475 127.182 77.1641C127.247 79.7808 126.655 82.372 125.46 84.7006C124.916 86.015 124.104 87.2013 123.075 88.1834C122.046 89.1655 120.824 89.9217 119.485 90.4034C118.147 90.8852 116.723 91.082 115.304 90.981C113.885 90.8801 112.503 90.4837 111.247 89.8174Z" fill="#303030"/>
<path d="M151.651 94.956C159.344 95.8992 167.149 94.8293 174.305 91.8509C176.693 90.5843 178.788 88.8284 180.453 86.6978C182.117 84.5671 183.314 82.1095 183.964 79.4853C184.347 77.1683 184.479 74.8168 184.358 72.4716V50.0582C184.358 43.1484 184.779 36.4517 179.58 30.9796C173.031 24.0533 163.295 25.3106 154.668 25.3106C152.968 25.3106 149.109 26.1525 149.109 28.3938V93.9938C149.109 94.7701 150.24 95.0489 151.651 94.956ZM170.013 31.98C172.433 34.0153 174.294 36.6328 175.422 39.586C176.551 42.5392 176.909 45.7311 176.464 48.861V69.0877C177.265 74.6961 176.439 80.4164 174.086 85.5697C173.085 87.2689 171.64 88.6633 169.907 89.6033C168.173 90.5433 166.216 90.9934 164.246 90.9052H157.03V29.2193C161.543 28.6912 166.105 29.6612 170.013 31.98Z" fill="#303030"/>
<path d="M206.252 92.5397V70.7387L225.866 94.2727C227.08 95.7323 234.509 92.9989 233.334 91.594L206.356 59.2149L233.181 27.0217C234.274 25.7207 232.208 25.7097 231.322 25.7644C229.394 25.7835 227.528 26.4453 226.019 27.6449L206.252 51.3867V26.9397C206.252 23.1841 198.281 24.6273 198.281 27.7269V93.327C198.281 97.0826 206.252 95.6667 206.252 92.5397Z" fill="#303030"/>
<path d="M120.5 183L120.933 183.75H120.067L120.5 183Z" fill="#D9D9D9"/>
<path fill-rule="evenodd" clip-rule="evenodd" d="M277.262 21.136C277.167 19.3327 276.819 17.5476 276.225 15.8337C275.357 13.3301 273.982 11.0322 272.187 9.08317C270.392 7.13416 268.215 5.57585 265.791 4.50539C263.367 3.43494 260.749 2.87529 258.099 2.86134C247.473 2.41284 236.77 2.56266 226.089 2.71216C220.757 2.78679 215.431 2.86134 210.123 2.86134H125.554C119.736 2.86134 113.916 2.83341 108.096 2.80547C96.4546 2.74959 84.8114 2.69369 73.1779 2.86134C61.6237 3.02408 51.2967 10.0498 50.6094 22.2185V94.2809C50.8022 103.121 52.1814 111.547 61.8346 115.666C64.193 116.422 66.6125 116.946 69.0591 117.234H257.587C260.084 117.047 262.532 116.422 264.818 115.383C267.458 114.183 269.826 112.456 271.776 110.31C273.726 108.163 275.218 105.641 276.16 102.898C276.763 101.143 277.132 99.3203 277.262 97.4777V94.4699C277.26 94.4323 277.257 94.3946 277.254 94.357V75.3439L277.262 75.3474V68.8021L277.232 68.7893V57.6537C277.232 53.8747 277.238 50.095 277.244 46.3151C277.257 38.7547 277.269 31.1935 277.232 23.6347C277.244 23.4798 277.254 23.3248 277.262 23.1699V21.136ZM76.0752 7.98908C67.8424 7.98908 59.9978 9.06054 58.6639 19.6495C58.1609 27.2571 58.1281 34.8885 58.5655 42.5001V81.0893C58.5655 82.6698 58.4856 84.404 58.402 86.2195C58.0717 93.3898 57.6831 101.827 61.9275 107.061C66.2312 112.345 72.0165 112.288 77.9629 112.229C78.5879 112.223 79.2147 112.217 79.8418 112.217H257.41C265.501 111.714 269.131 105.055 269.262 97.6533C269.387 90.3307 269.382 83.0002 269.378 75.6685C269.377 74.3358 269.377 73.003 269.377 71.6703C269.27 71.3998 269.27 71.0989 269.377 70.8284C269.365 65.5172 269.344 60.2059 269.323 54.8954C269.293 47.1752 269.262 39.4566 269.262 31.7417C269.262 21.4207 269.245 8.83641 255.355 7.98908C252.732 7.82856 250.067 7.88228 247.414 7.93579C246.091 7.96246 244.77 7.98908 243.459 7.98908H76.0752Z" fill="#5DB9D1"/>
<path fill-rule="evenodd" clip-rule="evenodd" d="M49.3281 69.7713L12.1808 85.4454C9.08257 86.5163 6.31673 88.3759 4.15576 90.841C2.30297 93.1612 1.34694 96.0707 1.46236 99.0377C1.57779 102.005 2.75698 104.831 4.78443 107C7.68867 110.206 10.7086 113.303 13.7258 116.397C15.2521 117.963 16.7776 119.527 18.2871 121.104L33.96 137.466L18.8064 153.27C12.9541 158.316 7.66443 163.98 3.02963 170.162C-4.48528 182.808 13.9758 189.411 25.1907 193.422C27.1921 194.138 28.9627 194.771 30.3138 195.342L34.3208 197.031C34.3208 197.08 34.2962 197.127 34.2716 197.173C34.247 197.22 34.2224 197.266 34.2224 197.315V241.087C34.2224 243.058 34.0829 245.313 33.9345 247.712C33.2964 258.025 32.4947 270.984 41.9195 275.357C60.8854 284.161 80.3997 291.984 99.8804 299.794C109.637 303.705 119.386 307.613 129.053 311.64C138.609 316.435 148.514 320.503 158.682 323.808C159.273 323.911 159.87 323.975 160.47 324C161.453 324.628 162.612 324.925 163.777 324.848C164.942 324.77 166.051 324.321 166.942 323.568C174.48 321.231 181.797 318.235 188.809 314.614L281.742 275.915C287.898 273.351 293.075 270.142 293.599 262.74C293.877 258.888 293.784 254.951 293.691 251.042C293.645 249.099 293.599 247.162 293.599 245.247V197.086L313.279 188.776C318.839 186.431 324.437 183.944 326.06 177.384C327.994 169.635 321.456 163.405 315.945 158.155C314.804 157.067 313.707 156.022 312.738 155.014L294.234 135.717C297.015 132.819 299.804 129.929 302.593 127.038C309.185 120.207 315.777 113.376 322.261 106.443C323.81 105.027 324.97 103.237 325.631 101.245C326.292 99.2535 326.431 97.1254 326.035 95.0643C325.639 93.0033 324.722 91.0781 323.37 89.4727C322.018 87.8672 320.278 86.635 318.314 85.8936C313.614 83.8641 308.887 81.8885 304.159 79.9127C301.832 78.9401 299.504 77.9676 297.18 76.9884L278.672 69.1875V75.7333L309.628 88.791C311.856 89.4874 313.932 90.6005 315.745 92.071C317.416 93.7761 318.371 96.0568 318.413 98.4442C318.455 100.832 317.58 103.144 315.969 104.907C312.909 108.376 309.641 111.694 306.38 115.006C304.759 116.651 303.14 118.296 301.548 119.956L289.1 132.951L255.455 118.307H240.534L280.272 135.586L284.098 137.258L165.975 188.634C165.582 188.543 165.18 188.497 164.777 188.498L44.1936 136.05L85.0029 118.307H74.6266L42.827 132.131L40.3396 133.224L13.0336 104.721C11.7056 103.6 10.6872 102.156 10.0757 100.53C9.46413 98.9025 9.27985 97.146 9.54043 95.4275C9.83381 93.9934 10.5133 92.6666 11.5057 91.5905C12.498 90.5143 13.7654 89.7297 15.1711 89.3212L49.3281 74.9243V69.7713ZM19.7088 185.083C20.2951 185.319 20.879 185.555 21.4523 185.797L116.414 225.89C117.425 226.437 118.487 226.885 119.584 227.229C122.556 227.775 123.781 226.571 125.534 224.848C125.745 224.641 125.963 224.426 126.194 224.206L159.54 192.242C155.193 190.656 150.955 188.786 146.852 186.644L38.4099 139.494L24.0818 154.44C23.1171 155.449 21.9183 156.566 20.6245 157.771C15.0927 162.923 7.82487 169.692 9.69896 176.608C11.0495 181.596 15.4424 183.365 19.7088 185.083ZM141.73 310.814L158.316 317.691C158.52 317.784 158.731 317.877 158.946 317.972C159.266 318.114 159.595 318.259 159.928 318.413V197.982L148.159 209.271C142.274 215.708 135.934 221.715 129.189 227.245C119.199 234.335 107.049 228.535 96.6519 223.572C94.4707 222.53 92.3668 221.526 90.376 220.685L42.1382 200.333V242.782C42.1382 244.93 42.0928 247.095 42.0474 249.265C41.9562 253.622 41.8645 257.999 42.1382 262.308C42.5482 268.765 46.5006 271.137 51.6666 273.291L141.73 310.814ZM280.561 272.635C285.383 270.093 285.689 265.736 285.689 260.931V200.388L231.881 223.112C230.089 223.869 228.24 224.736 226.353 225.621C216.276 230.348 205.128 235.578 195.97 227.032C187.221 218.888 178.63 210.562 170.051 202.249C169.335 201.555 168.62 200.862 167.904 200.169V319.698C170.55 318.692 173.143 317.552 175.672 316.281L195.752 307.944L247.253 286.498C250.931 284.962 254.715 283.517 258.515 282.065C266.023 279.198 273.597 276.304 280.561 272.635ZM310.634 183.938C317.144 181.194 321.272 175.902 315.614 169.02C309.621 161.719 302.791 154.941 295.999 148.199C292.97 145.194 289.949 142.195 287.012 139.161L174.06 188.252C173.274 188.595 172.416 189.012 171.512 189.451C170.674 189.858 169.796 190.285 168.899 190.69L183.911 205.083C190.172 211.738 196.772 218.066 203.684 224.042C208.089 227.451 211.067 226.106 214.95 224.351C215.544 224.083 216.159 223.805 216.804 223.533L310.634 183.938Z" fill="#B6773E"/>
</svg>
