<svg width="616" height="145" viewBox="0 0 616 145" fill="none" xmlns="http://www.w3.org/2000/svg">
<g clip-path="url(#clip0_2729_16)">
<rect x="9" y="17" width="127" height="112" fill="white"/>
<rect x="166" y="17" width="127" height="112" fill="white"/>
<rect x="480" y="17" width="127" height="112" fill="white"/>
<rect x="323" y="17" width="127" height="112" fill="white"/>
<path fill-rule="evenodd" clip-rule="evenodd" d="M616 0H471V145H616V0ZM543 48.1585C542.995 48.1606 542.992 48.1616 542.989 48.1616C542.928 48.1616 542.33 47.6691 541.66 47.0671C539.835 45.4262 536.321 42.8865 534.29 41.7397C532.19 40.5538 531.039 40.0967 528.524 39.4511C526.948 39.0466 526.27 38.9839 523.678 39.003C517.201 39.0507 512.416 40.7853 508.673 44.4427C504.973 48.0574 503.479 51.665 503.046 58.0275C502.631 64.1263 505.035 70.1748 510.325 76.3435C511.225 77.3934 517.755 83.7663 524.835 90.5054L526.488 92.0791C540.919 105.815 541.302 106.179 541.756 106.347C541.785 106.357 541.814 106.367 541.847 106.379C542.164 106.498 542.581 106.558 543 106.56C543.419 106.558 543.836 106.498 544.153 106.379C544.167 106.374 544.18 106.369 544.193 106.365L544.226 106.353L544.244 106.347C544.698 106.179 545.081 105.815 559.512 92.079L561.165 90.5054C568.245 83.7663 574.775 77.3934 575.675 76.3435C580.965 70.1748 583.369 64.1263 582.954 58.0275C582.521 51.665 581.027 48.0575 577.327 44.4427C573.584 40.7853 568.799 39.0507 562.322 39.003C559.73 38.9839 559.052 39.0466 557.476 39.4511C554.961 40.0967 553.81 40.5538 551.71 41.7397C549.679 42.8865 546.165 45.4263 544.34 47.0671C543.67 47.6691 543.072 48.1616 543.011 48.1616C543.008 48.1616 543.005 48.1605 543 48.1585Z" fill="#D73C00"/>
<path d="M363.796 45.3701C369.051 41.0799 375.875 38.3257 382.725 37.7303C389.145 37.1725 396.345 38.6062 401.847 41.5378C411.427 46.6425 417.958 55.3049 420.105 65.7523C420.304 66.7192 420.497 67.8658 420.5 68C420.5 68 416.445 67.9987 400.947 67.9987H381.416V87.7276C381.416 98.5786 381.35 107.456 381.269 107.456C380.949 107.456 377.884 106.882 377.087 106.673C375.086 106.149 371.237 104.635 369.418 103.656C362.977 100.191 358.085 95.2526 354.605 88.7043C353.327 86.2985 351.706 81.5956 351.24 78.9375C350.795 76.4071 350.638 71.073 350.935 68.6522C352.078 59.355 356.524 51.3083 363.796 45.3701Z" fill="#8F00DD"/>
<path d="M390.009 86.5582V76.5934H420.478L420.479 77.1306C420.479 78.297 419.821 81.1458 418.951 83.7355L418.037 86.4579L390.009 86.5582Z" fill="#8F00DD"/>
<path d="M390.009 107.491V95.1504H401.24C407.417 95.1504 412.47 95.2051 412.47 95.2719C412.47 95.5479 409.129 98.7976 407.588 100.021C406.048 101.243 403.614 102.964 403.426 102.964C403.381 102.964 402.735 103.299 401.99 103.709C398.955 105.377 394.843 106.723 390.84 107.359L390.009 107.491Z" fill="#8F00DD"/>
<path fill-rule="evenodd" clip-rule="evenodd" d="M459 0H314V145H459V0ZM404.697 33.2825C400.67 31.345 396.892 30.1714 392.595 29.5234C381.59 27.8639 370.798 30.1737 361.766 36.1219C356.867 39.3487 352.495 43.7279 349.054 48.8565C347.963 50.4817 345.775 54.7551 345.103 56.5715C344.865 57.2161 344.499 58.1883 344.29 58.7321C342.965 62.1745 341.816 69.7694 342.025 73.7027C342.27 78.3214 343.184 83.6199 344.202 86.3292C344.349 86.7224 344.75 87.7911 345.092 88.7043C346.567 92.6403 349.298 97.205 352.514 101.108C353.622 102.453 357.217 105.883 358.709 107.018C363.289 110.504 367.078 112.509 372.519 114.325C377.293 115.919 384.946 116.799 389.171 116.241C397.147 115.187 400.292 114.291 405.732 111.522C414.796 106.909 422.477 98.5561 426.183 89.2825C428.465 83.5722 429.338 78.9133 429.329 72.4914C429.319 65.361 428.134 60.0461 425.172 53.8368C422.928 49.1337 420.479 45.7036 416.586 41.8099C412.74 37.9633 409.303 35.4986 404.697 33.2825Z" fill="#8F00DD"/>
<path d="M251.295 43.7901V52.1896H206.704V43.7901H251.295Z" fill="#0078B0"/>
<path fill-rule="evenodd" clip-rule="evenodd" d="M302 0H157V145H302V0ZM259.498 35H198.501V66.4574C198.501 68.4772 198.5 70.3742 198.5 72.1565C198.496 97.1716 198.496 99.5792 199.406 101.57C199.503 101.782 199.611 101.989 199.729 102.218C199.809 102.371 199.894 102.535 199.984 102.716C202.21 107.197 206.49 110.278 211.5 110.946C212.189 111.038 215.024 111.033 221 111C222.101 110.994 223.475 110.993 224.922 110.992C226.272 110.992 227.685 110.991 228.999 110.986C230.297 110.991 231.123 110.992 231.863 110.992C232.677 110.993 233.385 110.994 234.499 111H236.499C242.475 111.033 245.81 111.038 246.5 110.946C251.509 110.278 255.789 107.197 258.015 102.716C258.105 102.535 258.19 102.372 258.27 102.218C258.388 101.989 258.496 101.782 258.593 101.57C259.503 99.5792 259.503 97.1716 259.499 72.1565C259.499 70.3742 259.498 68.4772 259.498 66.4574V35Z" fill="#0078B0"/>
<path fill-rule="evenodd" clip-rule="evenodd" d="M145 0H0V145H145V0ZM93.9947 38.4727C90.0494 34.43 83.6213 31.2384 77.6059 30.3354C76.1406 30.1155 69.5795 29.9176 67.6449 30.035C65.4838 30.1662 62.1844 30.5083 61.2973 30.6933C60.8139 30.7939 59.891 30.979 59.2465 31.1044C56.3754 31.6633 51.8006 33.4956 50.2607 34.7033C50.0467 34.8711 49.4037 35.3555 48.832 35.7798C43.9027 39.4367 39.8535 45.0456 37.8951 50.9293C36.4445 55.2871 35.6965 61.2232 36.1158 65.0475C36.5135 68.676 37.8252 72.6976 39.6957 76.0244C40.1898 76.903 40.5941 77.6613 40.5941 77.7094C40.5941 77.7574 40.9299 78.2973 41.3402 78.9091C43.4061 81.9894 45.6297 86.9501 46.5236 90.472C47.149 92.9364 47.8186 97.3391 47.8197 98.9954C47.8211 100.666 47.1221 105.758 46.5236 108.439C46.2484 109.672 45.7684 111.186 45.457 111.803C44.8225 113.061 44.7478 113.62 45.1924 113.791C45.3582 113.855 53.9582 113.907 64.3037 113.909C82.2527 113.91 83.1283 113.894 83.4355 113.554C83.827 113.122 84.3414 109.914 84.343 107.896C84.3443 106.209 84.6064 105.607 85.7246 104.721C86.8955 103.794 88.5088 103.423 92.4969 103.167C96.4104 102.915 97.4863 102.749 98.7012 102.212C99.8514 101.703 101.153 100.463 101.734 99.3241C102.147 98.5135 102.209 98.14 102.185 96.6251C102.17 95.6582 102.021 94.4378 101.856 93.9131C101.569 93.0056 101.575 92.9155 101.976 92.0574C102.207 91.5614 102.598 90.8578 102.843 90.4935C103.375 89.7042 103.403 89.1608 102.959 88.2292L102.628 87.5357L103.454 86.6946C104.449 85.6806 104.66 84.8073 104.193 83.639C103.651 82.2859 103.87 80.9006 104.624 80.9006C104.814 80.9006 105.053 80.8275 105.155 80.7382C105.257 80.6488 105.725 80.4661 106.195 80.3323C106.76 80.1712 107.372 79.7666 108.001 79.1367C108.877 78.261 108.954 78.109 108.954 77.2437C108.954 76.4822 108.822 76.1174 108.266 75.3298C107.888 74.7947 107.323 73.9612 107.01 73.4778C105.361 70.9325 103.463 68.0736 102.518 66.7107C101.193 64.7988 101.103 63.9405 102.02 61.9529C102.554 60.795 102.604 60.5116 102.585 58.7299C102.568 57.1483 102.465 56.4976 102.045 55.3115C101.759 54.5057 101.133 52.528 100.654 50.9164C100.174 49.3049 99.6984 47.8106 99.5963 47.5957C99.4943 47.3808 99.2229 46.6776 98.9928 46.033C97.9447 43.0965 96.7641 41.3106 93.9947 38.4727Z" fill="#00B050"/>
</g>
<defs>
<clipPath id="clip0_2729_16">
<rect width="616" height="145" fill="white"/>
</clipPath>
</defs>
</svg>
