<svg height="512" viewBox="0 0 64 64" width="512" xmlns="http://www.w3.org/2000/svg"><g id="Layer_1" data-name="Layer 1"><path d="m32 48.074s2.253 2.162 6.488 1.261 4.686-3.784 4.686-3.784 3.7.09 6.534-4.574 1.216-10.2 1.216-10.2 1.487-3.515-1.081-9.192c-3.352-7.41-9.143-6.488-9.143-6.488s-2.955-5.547-8.7-4.06z" fill="#fdcf00"/><path d="m32.005 48.026s-2.253 2.163-6.488 1.262-4.686-3.788-4.686-3.788-3.695.09-6.533-4.573-1.217-10.206-1.217-10.206-1.487-3.514 1.081-9.192c3.353-7.409 9.143-6.488 9.143-6.488s2.955-5.542 8.7-4.055z" fill="#fdcf00"/><g fill="#50606d"><path d="m39.452 49.057v4.283h-14.904v-4.312"/><path d="m24.548 53.34h14.904v4.565h-14.904z"/><path d="m26.764 57.9h10.472a0 0 0 0 1 0 0v2.116a2.449 2.449 0 0 1 -2.449 2.449h-5.574a2.449 2.449 0 0 1 -2.449-2.449v-2.116a0 0 0 0 1 0 0z"/></g><path d="m24.548 49.028v.006l11.688.023v4.283h3.216v-4.283z" fill="#3c4854"/><path d="m36.236 53.34h3.216v4.565h-3.216z" fill="#3c4854"/><path d="m34.556 57.905v2.116a2.45 2.45 0 0 1 -2.449 2.449h2.681a2.449 2.449 0 0 0 2.448-2.449v-2.116z" fill="#3c4854"/></g><g id="Layer_2" fill="#1c232d" data-name="Layer 2"><path d="m36.474 50.556a7.7 7.7 0 0 1 -5.166-1.756 1 1 0 0 1 -.308-.727v-37.037a1 1 0 0 1 .75-.968c4.713-1.224 8.082 1.811 9.5 3.986 1.835-.034 6.549.571 9.508 7.114 2.284 5.049 1.547 8.559 1.214 9.644.315 1.31 1.26 6.3-1.406 10.685-2.338 3.843-5.262 4.766-6.636 4.985-.456 1.111-1.743 3.09-5.23 3.831a10.654 10.654 0 0 1 -2.226.243zm-3.474-2.969a6.728 6.728 0 0 0 5.28.769c3.449-.732 3.892-2.883 3.909-2.974a.964.964 0 0 1 1.01-.831c.146 0 3.192-.051 5.653-4.093 2.565-4.216 1.125-9.355 1.11-9.407a1 1 0 0 1 .038-.669c.01-.025 1.258-3.241-1.071-8.39-3-6.641-8.026-5.917-8.075-5.913a1 1 0 0 1 -1.04-.516c-.1-.186-2.423-4.351-6.817-3.71z"/><path d="m50.985 31.746a1 1 0 0 1 -.979-.8c-.046-.192-.475-1.739-3.515-1.632a.945.945 0 0 1 -.8-.357 1.006 1.006 0 0 1 -.212-.85c.032-.148.733-3.709-1.811-4.9a1 1 0 1 1 .85-1.81c2.846 1.336 3.138 4.293 3.056 5.95 3.819.343 4.372 3.095 4.4 3.222a1 1 0 0 1 -.8 1.164.942.942 0 0 1 -.189.013z"/><path d="m39.97 25.63a4.009 4.009 0 0 1 -4.21-4.008 4.187 4.187 0 0 1 2.532-3.556 1 1 0 0 1 .792 1.837c-.038.018-1.324.613-1.324 1.719a2.046 2.046 0 0 0 2.216 2.008 1 1 0 0 1 -.006 2z"/><path d="m37.219 36.869a4.611 4.611 0 0 1 -.592-.04 1 1 0 1 1 .258-1.982c.956.12 1.216-.227 1.754-.921a3.465 3.465 0 0 1 3.2-1.7c2.657.145 3.808 2.793 3.855 2.906a1 1 0 0 1 -1.839.784c-.02-.044-.736-1.617-2.125-1.694-.718-.033-.971.237-1.505.928a3.578 3.578 0 0 1 -3.006 1.719z"/><path d="m43.237 46.525c-.032 0-.064 0-.1 0a7.049 7.049 0 0 1 -5.092-3.425 1 1 0 1 1 1.732-1 5.016 5.016 0 0 0 3.562 2.432 1 1 0 0 1 -.1 1.995z"/><path d="m27.53 50.508a10.641 10.641 0 0 1 -2.221-.241c-3.487-.743-4.773-2.722-5.229-3.832-1.374-.22-4.3-1.144-6.637-4.986-2.666-4.379-1.721-9.374-1.406-10.684-.333-1.085-1.07-4.595 1.214-9.645 2.96-6.543 7.678-7.128 9.509-7.114 1.413-2.175 4.767-5.208 9.5-3.985a1 1 0 0 1 .749.968v37.037a1 1 0 0 1 -.308.722 7.7 7.7 0 0 1 -5.171 1.76zm-6.709-6.008a1.01 1.01 0 0 1 1 .846c.015.076.457 2.227 3.906 2.961a6.73 6.73 0 0 0 5.28-.77v-35.731c-4.444-.64-6.792 3.663-6.817 3.709a.99.99 0 0 1 -1.04.516c-.2-.029-5.1-.661-8.075 5.913-2.329 5.15-1.081 8.367-1.068 8.4a1.02 1.02 0 0 1 .036.661c-.015.052-1.455 5.191 1.111 9.406 2.457 4.035 5.5 4.093 5.661 4.093z"/><path d="m13.08 31.712a1 1 0 0 1 -.982-1.168c.023-.128.577-2.88 4.395-3.224-.082-1.657.21-4.613 3.057-5.949a1 1 0 0 1 .849 1.811c-2.544 1.193-1.842 4.754-1.811 4.9a1 1 0 0 1 -1.012 1.2c-3.034-.1-3.474 1.458-3.515 1.637a1.016 1.016 0 0 1 -.981.793z"/><path d="m24.1 25.607a1 1 0 0 1 0-2 2.043 2.043 0 0 0 2.21-2.007c0-1.118-1.312-1.713-1.326-1.719a1 1 0 0 1 .793-1.837 4.185 4.185 0 0 1 2.531 3.556 4.009 4.009 0 0 1 -4.208 4.007z"/><path d="m26.849 36.847a3.579 3.579 0 0 1 -3-1.718c-.535-.691-.8-.957-1.5-.929-1.4.077-2.118 1.679-2.125 1.7a1 1 0 0 1 -1.84-.786c.048-.113 1.2-2.76 3.855-2.906a3.432 3.432 0 0 1 3.2 1.7c.539.695.809 1.038 1.754.92a1 1 0 0 1 .257 1.983 4.608 4.608 0 0 1 -.601.036z"/><path d="m20.83 46.5a1 1 0 0 1 -.1-1.995 5.012 5.012 0 0 0 3.561-2.433 1 1 0 0 1 1.732 1 7.044 7.044 0 0 1 -5.095 3.428c-.028 0-.066 0-.098 0z"/><path d="m39.452 54.34h-14.9a1 1 0 0 1 -1-1v-4.312a1 1 0 0 1 2 0v3.312h12.9v-3.283a1 1 0 0 1 2 0v4.283a1 1 0 0 1 -1 1z"/><path d="m39.452 58.905h-14.9a1 1 0 0 1 -1-1v-4.565a1 1 0 0 1 1-1h14.9a1 1 0 0 1 1 1v4.565a1 1 0 0 1 -1 1zm-13.9-2h12.9v-2.565h-12.9z"/><path d="m34.787 63.47h-5.574a3.452 3.452 0 0 1 -3.448-3.449v-2.116a1 1 0 0 1 1-1h10.471a1 1 0 0 1 1 1v2.116a3.453 3.453 0 0 1 -3.449 3.449zm-7.022-4.565v1.116a1.45 1.45 0 0 0 1.448 1.449h5.574a1.451 1.451 0 0 0 1.449-1.449v-1.116z"/><path d="m60.571 31.169h-4.143a1 1 0 0 1 0-2h4.143a1 1 0 0 1 0 2z"/><path d="m49.273 13.9a1 1 0 0 1 -.707-1.708l2.934-2.933a1 1 0 1 1 1.414 1.414l-2.934 2.927a1 1 0 0 1 -.707.3z"/><path d="m32 6.741a1 1 0 0 1 -1-1v-4.141a1 1 0 1 1 2 0v4.141a1 1 0 0 1 -1 1z"/><path d="m14.727 13.9a1 1 0 0 1 -.707-.293l-2.93-2.93a1 1 0 0 1 1.41-1.418l2.93 2.929a1 1 0 0 1 -.707 1.708z"/><path d="m7.572 30.987h-4.143a1 1 0 1 1 0-2h4.143a1 1 0 0 1 0 2z"/><path d="m11.8 51.372a1 1 0 0 1 -.707-1.707l2.93-2.931a1 1 0 1 1 1.414 1.414l-2.937 2.931a1 1 0 0 1 -.7.293z"/><path d="m52.2 51.372a1 1 0 0 1 -.707-.293l-2.93-2.931a1 1 0 1 1 1.414-1.414l2.93 2.931a1 1 0 0 1 -.707 1.707z"/></g></svg>