<svg width="274" height="136" xmlns="http://www.w3.org/2000/svg" xmlns:xlink="http://www.w3.org/1999/xlink" xml:space="preserve" overflow="hidden"><g transform="translate(-829 -377)"><path d="M134.046 57.2519C133.679 62.5386 126.118 61.1733 122.557 62.8452 119.242 64.3995 114.679 66.5063 113.463 72.5132 112.504 77.2366 114.511 81.6749 116.539 84.2024 118.504 86.6515 115.481 90.1522 112.443 87.3751 106.034 81.5109 101.464 71.9356 109.862 60.4532 118.261 48.9743 134.635 48.8852 134.05 57.2555Z" fill="#EF3D6A" transform="matrix(1 0 0 1.00446 829 377.044)"/><path d="M119.484 89.1683C119.826 84.1097 126.318 85.3146 129.779 84.7692 133.241 84.2238 137.996 80.281 139.151 74.5344 140.06 70.0142 138.132 65.772 136.189 63.3586 134.307 61.02 137.191 57.6654 140.103 60.3177 146.246 65.9146 150.634 75.0727 142.616 86.0668 134.599 97.0645 118.939 97.175 119.48 89.1647Z" fill="#F15A25" transform="matrix(1 0 0 1.00446 829 377.044)"/><path d="M133.298 68.1177C132.927 71.0409 128.628 69.5686 126.532 70.171 124.582 70.7307 121.901 71.4829 121.02 74.727 120.329 77.2794 121.348 79.9495 122.436 81.5501 123.491 83.1044 121.651 84.7799 119.99 82.9404 116.486 79.0618 114.147 73.276 119.313 67.6435 124.478 62.011 133.883 63.4905 133.298 68.1177Z" fill="#FCEE24" transform="matrix(1 0 0 1.00446 829 377.044)"/><path d="M124.147 77.8605C124.789 75.7857 127.066 76.0673 128.542 76.3632 132.303 77.1119 133.608 72.7556 133.433 71.572 133.259 70.3885 134.585 69.1836 135.351 70.6345 136.521 72.8411 136.339 77.3079 133.369 79.5253 128.653 83.0438 123.131 81.1473 124.147 77.864Z" fill="#32B6C6" transform="matrix(1 0 0 1.00446 829 377.044)"/><path d="M33.8663 50.2184C33.0286 50.2184 32.3156 49.9225 31.7203 49.3272 31.1249 48.7319 30.8291 47.9975 30.8291 47.117 30.8291 46.1046 31.1463 45.3452 31.7844 44.839 32.4226 44.3328 33.1355 44.0797 33.9305 44.0797 34.6791 44.0797 35.3707 44.3328 36.0088 44.839 36.6469 45.3452 36.9642 46.1046 36.9642 47.117 36.9642 47.9975 36.6683 48.7354 36.073 49.3272 35.4777 49.9225 34.7433 50.2184 33.8628 50.2184ZM33.9341 91.8384C33.3637 91.8384 32.8896 91.653 32.5152 91.2787 32.1409 90.9044 31.9556 90.4338 31.9556 89.8599L31.9556 57.726C31.9556 57.1093 32.1409 56.6281 32.5152 56.2751 32.8896 55.9222 33.3601 55.7475 33.9341 55.7475 34.5508 55.7475 35.032 55.9222 35.385 56.2751 35.7379 56.6281 35.9126 57.1129 35.9126 57.726L35.9126 89.8599C35.9126 90.4338 35.7379 90.9044 35.385 91.2787 35.032 91.653 34.5472 91.8384 33.9341 91.8384Z" fill="#231F20" transform="matrix(1 0 0 1.00446 829 377.044)"/><path d="M46.6001 91.8384C46.0297 91.8384 45.5556 91.653 45.1812 91.2787 44.8069 90.9044 44.6216 90.4338 44.6216 89.8599L44.6216 57.726C44.6216 57.1093 44.8069 56.6281 45.1812 56.2751 45.5556 55.9222 46.0261 55.7475 46.6001 55.7475 47.2168 55.7475 47.6981 55.9222 48.051 56.2751 48.4039 56.6281 48.5786 57.1129 48.5786 57.726L48.5786 89.8599C48.5786 90.4338 48.4039 90.9044 48.051 91.2787 47.6981 91.653 47.2132 91.8384 46.6001 91.8384ZM75.8321 91.8384C75.2617 91.8384 74.7876 91.653 74.4132 91.2787 74.0389 90.9044 73.8536 90.4338 73.8536 89.8599L73.8536 72.1103C73.8536 69.2085 73.2939 66.8094 72.1709 64.9164 71.048 63.027 69.5329 61.6082 67.6186 60.6599 65.7042 59.7153 63.5368 59.2411 61.1198 59.2411 58.7028 59.2411 56.6102 59.6939 54.7209 60.5922 52.8279 61.4941 51.3342 62.7383 50.2327 64.3211 49.1311 65.9039 48.5821 67.6863 48.5821 69.6648L45.2846 69.6648C45.4593 66.9377 46.2757 64.4851 47.7266 62.3069 49.1775 60.1288 51.0704 58.4141 53.4019 57.1592 55.7333 55.9044 58.3071 55.277 61.1234 55.277 64.289 55.277 67.1373 55.9258 69.6684 57.2234 72.1959 58.521 74.1887 60.414 75.6396 62.8987 77.0905 65.3834 77.8177 68.4528 77.8177 72.1032L77.8177 89.8527C77.8177 90.4267 77.6288 90.8972 77.258 91.2715 76.8873 91.6459 76.4096 91.8312 75.8392 91.8312Z" fill="#231F20" transform="matrix(1 0 0 1.00446 829 377.044)"/><path d="M85.2897 59.4621C84.7621 59.4621 84.3343 59.2982 84.0028 58.9666 83.6712 58.6351 83.5072 58.2073 83.5072 57.6797 83.5072 57.1521 83.6712 56.7243 84.0028 56.3928 84.3343 56.0613 84.7621 55.8973 85.2897 55.8973L99.0786 55.8973C99.6062 55.8973 100.034 56.0613 100.366 56.3928 100.697 56.7243 100.733 57.1806 100.733 57.7082 100.733 58.2358 100.697 58.6351 100.366 58.9666 100.034 59.2982 99.6062 59.4621 99.0786 59.4621L85.2897 59.4621ZM100.034 91.8384C97.6135 91.7956 95.4603 91.2359 93.5673 90.1557 91.6744 89.0791 91.0505 87.999 89.9953 86.0846 88.9401 84.1703 88.5052 81.5608 88.5052 78.0031L88.5052 41.4738C88.5943 41.2528 88.6906 41.0745 89.0649 40.7002 89.4392 40.3259 89.9098 40.1405 90.4837 40.1405 91.1004 40.1405 91.5924 40.3295 91.9667 40.7002 92.341 41.0745 92.341 41.1529 92.5264 41.4738L92.5264 78.0066C92.5264 81.6963 93.0041 83.9529 94.5869 85.5606 96.1697 87.1684 97.5885 87.8172 100.098 87.8172L101.549 87.8172C102.166 87.8172 102.658 88.0061 103.032 88.3769 103.406 88.7512 103.592 89.2467 103.592 89.8634 103.592 90.4374 103.403 90.9079 103.032 91.2822 102.661 91.6565 102.162 91.8419 101.549 91.8419L100.03 91.8419Z" fill="#231F20" transform="matrix(1 0 0 1.00446 829 377.044)"/><path d="M154.217 107.278C153.643 107.278 153.172 107.089 152.798 106.718 152.423 106.347 152.238 105.87 152.238 105.299L152.238 73.4293C152.327 69.9536 153.172 66.8628 154.78 64.1571 156.384 61.4514 158.573 59.3089 161.346 57.7225 164.116 56.1397 167.218 55.3483 170.651 55.3483 174.084 55.3483 177.324 56.1504 180.119 57.7581 182.91 59.3659 185.11 61.5619 186.718 64.3567 188.322 67.1516 189.127 70.3065 189.127 73.825 189.127 77.3436 188.325 80.4343 186.718 83.2292 185.11 86.024 182.914 88.2236 180.119 89.8278 177.324 91.4355 174.169 92.2376 170.651 92.2376 167.485 92.2376 164.633 91.5567 162.106 90.1914 159.575 88.8296 157.607 87.0008 156.199 84.7157L156.199 105.303C156.199 105.873 156.024 106.347 155.671 106.722 155.318 107.096 154.833 107.281 154.22 107.281ZM170.647 88.5373C173.417 88.5373 175.891 87.8885 178.069 86.5909 180.247 85.2932 181.973 83.5322 183.249 81.3113 184.525 79.0904 185.163 76.5949 185.163 73.8215 185.163 71.048 184.525 68.4884 183.249 66.2675 181.973 64.0466 180.247 62.2855 178.069 60.9879 175.891 59.6903 173.417 59.0415 170.647 59.0415 167.877 59.0415 165.457 59.6903 163.257 60.9879 161.058 62.2855 159.332 64.0466 158.077 66.2675 156.822 68.4884 156.195 71.0088 156.195 73.8215 156.195 76.6342 156.822 79.0904 158.077 81.3113 159.332 83.5322 161.058 85.2932 163.257 86.5909 165.457 87.8885 167.92 88.5373 170.647 88.5373Z" fill="#231F20" transform="matrix(1 0 0 1.00446 829 377.044)"/><path d="M199.084 50.0651C198.246 50.0651 197.533 49.7692 196.938 49.1739 196.343 48.5786 196.047 47.8442 196.047 46.9637 196.047 45.9513 196.364 45.1919 197.002 44.6857 197.64 44.1795 198.353 43.9264 199.148 43.9264 199.897 43.9264 200.588 44.1795 201.227 44.6857 201.865 45.1919 202.182 45.9513 202.182 46.9637 202.182 47.8442 201.886 48.5821 201.291 49.1739 200.695 49.7692 199.961 50.0651 199.081 50.0651ZM199.152 91.8384C198.578 91.8384 198.107 91.653 197.733 91.2787 197.359 90.9044 197.173 90.4338 197.173 89.8599L197.173 57.726C197.173 57.1093 197.359 56.6281 197.733 56.2751 198.107 55.9222 198.578 55.7475 199.152 55.7475 199.769 55.7475 200.25 55.9222 200.603 56.2751 200.956 56.6281 201.13 57.1129 201.13 57.726L201.13 89.8599C201.13 90.4338 200.952 90.9044 200.603 91.2787 200.25 91.653 199.769 91.8384 199.152 91.8384Z" fill="#231F20" transform="matrix(1 0 0 1.00446 829 377.044)"/><path d="M227.657 92.2341C224.138 92.2341 220.98 91.432 218.188 89.8242 215.393 88.22 213.194 86.0205 211.59 83.2256 209.982 80.4343 209.18 77.2972 209.18 73.8215 209.18 70.3457 209.982 67.148 211.59 64.3532 213.194 61.5619 215.393 59.3623 218.188 57.7546 220.98 56.1504 224.138 55.3447 227.657 55.3447 231.175 55.3447 234.319 56.1468 237.093 57.7546 239.863 59.3623 242.052 61.5583 243.659 64.3532 245.264 67.148 246.069 70.3029 246.069 73.8215L244.419 76.4595C244.419 79.4504 243.681 82.1348 242.208 84.509 240.733 86.8832 238.743 88.7654 236.237 90.1522 233.731 91.5389 230.869 92.2305 227.66 92.2305ZM227.657 88.5373C230.427 88.5373 232.901 87.8885 235.079 86.5909 237.257 85.2932 238.972 83.5322 240.226 81.3113 241.481 79.0904 242.105 76.5949 242.105 73.8215 242.105 71.048 241.478 68.4884 240.226 66.2675 238.972 64.0466 237.257 62.2855 235.079 60.9879 232.901 59.6903 230.427 59.0415 227.657 59.0415 224.887 59.0415 222.466 59.6903 220.267 60.9879 218.067 62.2855 216.331 64.0466 215.055 66.2675 213.779 68.4884 213.14 71.0088 213.14 73.8215 213.14 76.6342 213.779 79.0904 215.055 81.3113 216.331 83.5322 218.067 85.2932 220.267 86.5909 222.466 87.8885 224.929 88.5373 227.657 88.5373ZM244.151 91.8348C243.535 91.8348 243.039 91.6494 242.665 91.2751 242.29 90.9008 242.105 90.4302 242.105 89.8563L242.105 77.7821 243.36 73.8215 246.066 73.8215 246.066 89.8563C246.066 90.4302 245.891 90.9008 245.538 91.2751 245.185 91.6494 244.725 91.8348 244.151 91.8348Z" fill="#231F20" transform="matrix(1 0 0 1.00446 829 377.044)"/></g></svg>