<svg width="339" height="339" viewBox="0 0 339 339" fill="none" xmlns="http://www.w3.org/2000/svg">
<path d="M65.8113 279.675C65.1978 279.675 64.6011 279.475 64.1112 279.106C63.6213 278.737 63.2648 278.218 63.0957 277.629C62.9266 277.039 62.954 276.411 63.1738 275.838C63.3936 275.265 63.7938 274.78 64.314 274.454L134.707 230.413L57.9691 274.703C57.3312 275.049 56.5848 275.136 55.8846 274.946C55.1843 274.756 54.5839 274.305 54.2076 273.684C53.8314 273.064 53.7082 272.323 53.8636 271.614C54.019 270.906 54.4411 270.284 55.0423 269.878L156.375 205.536L57.664 262.522C57.0204 262.888 56.2584 262.988 55.5424 262.798C54.8263 262.609 54.2133 262.145 53.8354 261.508C53.4576 260.871 53.3451 260.111 53.5222 259.392C53.6994 258.672 54.1519 258.051 54.7825 257.663L62.3308 253.069L57.5001 255.855C56.8607 256.201 56.1124 256.287 55.4109 256.096C54.7094 255.905 54.1087 255.45 53.7339 254.827C53.359 254.204 53.2388 253.46 53.3984 252.751C53.5579 252.041 53.9848 251.421 54.5903 251.018L131.956 202.677L57.2458 245.815C56.6022 246.181 55.8403 246.281 55.1242 246.091C54.4082 245.902 53.7952 245.438 53.4173 244.801C53.0395 244.164 52.927 243.404 53.1041 242.685C53.2813 241.965 53.7338 241.344 54.3643 240.956L62.4382 236.04L57.082 239.131C56.4426 239.477 55.6943 239.563 54.9928 239.372C54.2913 239.181 53.6906 238.726 53.3158 238.103C52.9409 237.48 52.8207 236.736 52.9803 236.027C53.1398 235.317 53.5667 234.697 54.1723 234.294L131.086 186.269L56.8277 229.136C56.1872 229.525 55.4183 229.643 54.6904 229.465C53.9625 229.287 53.3351 228.827 52.9462 228.187C52.5573 227.546 52.4389 226.777 52.6169 226.049C52.7949 225.321 53.2548 224.694 53.8954 224.305L158.364 157.867L56.5 216.666C55.8587 217.054 55.0895 217.172 54.3615 216.993C53.6336 216.814 53.0066 216.353 52.6185 215.711C52.2304 215.07 52.113 214.301 52.292 213.573C52.4711 212.845 52.932 212.218 53.5734 211.83L151.318 149.996L56.2232 204.92C55.5789 205.303 54.8088 205.414 54.0825 205.229C53.3561 205.044 52.733 204.578 52.3501 203.934C51.9673 203.29 51.8561 202.52 52.0409 201.793C52.2258 201.067 52.6917 200.444 53.336 200.061L80.716 183.309L56.0368 197.558C55.7177 197.748 55.3644 197.873 54.9969 197.927C54.6295 197.98 54.2551 197.96 53.8952 197.869C53.5353 197.778 53.1969 197.617 52.8993 197.394C52.6017 197.172 52.3508 196.894 52.1609 196.575C51.9709 196.256 51.8457 195.902 51.7923 195.535C51.7389 195.168 51.7584 194.793 51.8497 194.433C51.941 194.073 52.1022 193.735 52.3243 193.437C52.5464 193.14 52.8249 192.889 53.144 192.699L85.349 172.992L55.8503 190.004C55.532 190.195 55.1793 190.321 54.8122 190.375C54.4452 190.429 54.071 190.411 53.7111 190.321C53.3512 190.23 53.0126 190.07 52.7146 189.849C52.4166 189.628 52.1651 189.35 51.9744 189.032C51.7837 188.714 51.6576 188.361 51.6032 187.994C51.5489 187.627 51.5673 187.253 51.6576 186.893C51.7478 186.533 51.9081 186.194 52.1292 185.896C52.3503 185.598 52.6279 185.347 52.9462 185.156L113.526 147.651L55.6299 181.077C55.3128 181.269 54.9607 181.398 54.594 181.454C54.2273 181.511 53.853 181.494 53.4926 181.406C53.1322 181.318 52.7926 181.16 52.4933 180.94C52.1941 180.721 51.9409 180.445 51.7484 180.128C51.5559 179.81 51.4277 179.458 51.3712 179.092C51.3147 178.725 51.331 178.351 51.4191 177.99C51.5072 177.63 51.6655 177.29 51.8849 176.991C52.1042 176.692 52.3804 176.439 52.6976 176.246L146.781 116.288L55.3248 169.088C55.0062 169.278 54.6532 169.403 54.2861 169.456C53.919 169.51 53.5449 169.491 53.1853 169.4C52.8256 169.309 52.4874 169.148 52.19 168.926C51.8926 168.704 51.6417 168.426 51.4518 168.107C51.0682 167.464 50.9559 166.694 51.1398 165.968C51.3236 165.241 51.7885 164.618 52.432 164.234L72.7099 151.759L55.1497 161.895C54.5087 162.243 53.7582 162.329 53.0551 162.136C52.352 161.943 51.7508 161.485 51.3772 160.859C51.0036 160.233 50.8865 159.487 51.0504 158.776C51.2144 158.066 51.6467 157.446 52.2569 157.047L58.6866 153.092L54.9802 155.228C54.3366 155.612 53.567 155.724 52.8406 155.54C52.1143 155.356 51.4907 154.891 51.1071 154.248C50.7235 153.604 50.6113 152.835 50.7951 152.108C50.979 151.382 51.4438 150.758 52.0874 150.375L56.5283 147.64L54.8333 148.629C54.1964 148.985 53.4465 149.08 52.7406 148.896C52.0348 148.711 51.4277 148.261 51.0465 147.639C50.6654 147.016 50.5397 146.271 50.6958 145.558C50.8519 144.846 51.2777 144.221 51.884 143.815L117.791 101.022L54.5112 137.538C53.8768 137.906 53.1241 138.012 52.4125 137.835C51.7008 137.658 51.086 137.211 50.6978 136.589C50.3097 135.967 50.1787 135.218 50.3326 134.501C50.4864 133.784 50.9131 133.155 51.5224 132.747L120.43 86.445L54.2401 124.684C53.6056 125.052 52.8529 125.159 52.1413 124.981C51.4297 124.804 50.8148 124.357 50.4266 123.735C50.0385 123.113 49.9075 122.364 50.0614 121.647C50.2153 120.93 50.6419 120.301 51.2512 119.893L101.887 85.993L53.9632 113.678C53.3302 114.045 52.5793 114.153 51.8688 113.978C51.1582 113.802 50.5433 113.358 50.1537 112.739C49.7641 112.119 49.6302 111.372 49.7801 110.656C49.93 109.94 50.3521 109.309 50.9574 108.898L92.8804 80.2696L53.692 102.87C53.0561 103.22 52.3098 103.312 51.608 103.126C50.9061 102.941 50.3025 102.493 49.9224 101.874C49.5423 101.256 49.4149 100.515 49.5666 99.8047C49.7182 99.0948 50.1374 98.4706 50.737 98.0614L55.7881 94.7505L53.5281 96.0557C52.9012 96.4155 52.1602 96.5213 51.4576 96.3512C50.755 96.1812 50.1443 95.7483 49.7512 95.1417C49.3581 94.5351 49.2125 93.8008 49.3444 93.0901C49.4763 92.3793 49.8756 91.7462 50.4602 91.321L74.2524 74.1393L53.2569 86.2755C52.6414 86.6424 51.9095 86.7616 51.2094 86.6092C50.5093 86.4567 49.8933 86.0438 49.4861 85.4542C49.0789 84.8646 48.9109 84.1423 49.0163 83.4336C49.1216 82.7248 49.4923 82.0826 50.0534 81.6369L68.834 66.3254L53.014 75.4727C52.4121 75.8274 51.7002 75.9465 51.0157 75.8071C50.3311 75.6676 49.7226 75.2794 49.3075 74.7175C48.8924 74.1556 48.7002 73.4599 48.768 72.7646C48.8359 72.0693 49.1589 71.4238 49.6748 70.9527L58.0595 63.1388L52.7823 66.1841C52.3047 66.4589 51.7572 66.5879 51.2072 66.5554C50.6571 66.5229 50.1286 66.3303 49.6867 66.0012C49.2447 65.6722 48.9086 65.2211 48.7198 64.7034C48.531 64.1858 48.4977 63.6243 48.6239 63.0879L50.4263 55.37C49.8726 55.2429 49.3701 54.9519 48.9844 54.5348C48.5986 54.1178 48.3476 53.5942 48.264 53.0323C48.1804 52.4704 48.2682 51.8963 48.5158 51.3851C48.7635 50.8738 49.1595 50.4491 49.6522 50.1664L53.0422 48.2171C53.5221 47.9464 54.0697 47.8194 54.6198 47.8515C55.1698 47.8836 55.699 48.0732 56.1441 48.3979C56.5864 48.7283 56.9221 49.1811 57.1099 49.7002C57.2977 50.2193 57.3292 50.7821 57.2006 51.319L55.613 58.0368L76.7158 45.8498C77.3176 45.4951 78.0295 45.376 78.7141 45.5154C79.3986 45.6549 80.0072 46.0431 80.4223 46.605C80.8374 47.1669 81.0296 47.8626 80.9617 48.5579C80.8939 49.2532 80.5708 49.8987 80.0549 50.3698L71.6647 58.195L96.4173 43.9005C97.0319 43.5431 97.7588 43.4306 98.4527 43.5854C99.1466 43.7403 99.7567 44.1511 100.161 44.7359C100.565 45.3207 100.734 46.0365 100.634 46.7405C100.534 47.4444 100.172 48.0847 99.6209 48.5335L80.8346 63.845L119.379 41.5897C120.006 41.2299 120.747 41.1241 121.449 41.2941C122.152 41.4641 122.763 41.897 123.156 42.5036C123.549 43.1103 123.695 43.8445 123.563 44.5553C123.431 45.266 123.031 45.8991 122.447 46.3244L98.666 63.5004L140.227 39.4935C140.864 39.1317 141.616 39.0311 142.325 39.2129C143.034 39.3947 143.645 39.8448 144.029 40.4682C144.413 41.0916 144.54 41.8397 144.383 42.5548C144.226 43.27 143.798 43.8962 143.188 44.3017L138.154 47.5956L154.708 38.0415C155.341 37.6741 156.092 37.5667 156.803 37.742C157.513 37.9172 158.128 38.3614 158.518 38.9809C158.907 39.6005 159.041 40.3471 158.891 41.0634C158.742 41.7798 158.319 42.41 157.714 42.8214L115.825 71.4499L173.077 38.3805C173.712 38.0029 174.47 37.8896 175.189 38.0647C175.907 38.2399 176.528 38.6896 176.918 39.3174C177.309 39.9451 177.437 40.7009 177.277 41.4226C177.116 42.1442 176.679 42.7742 176.06 43.1773L125.43 77.0378L189.456 40.0811C190.089 39.7201 190.838 39.618 191.545 39.7961C192.252 39.9743 192.863 40.4189 193.249 41.037C193.636 41.6551 193.769 42.3988 193.62 43.1125C193.471 43.8263 193.052 44.4548 192.45 44.8667L123.52 91.1967L208.604 42.0699C209.241 41.714 209.991 41.6184 210.696 41.803C211.402 41.9876 212.009 42.4381 212.39 43.0602C212.772 43.6823 212.897 44.4278 212.741 45.1405C212.585 45.8532 212.159 46.4779 211.553 46.8837L145.646 89.6712L225.13 43.7875C225.771 43.44 226.521 43.3537 227.225 43.5467C227.928 43.7398 228.529 44.1972 228.902 44.8233C229.276 45.4494 229.393 46.1957 229.229 46.9062C229.065 47.6166 228.633 48.2362 228.023 48.6352L223.593 51.3642L234.955 44.8102C235.596 44.4626 236.347 44.3763 237.05 44.5694C237.753 44.7624 238.354 45.2198 238.728 45.8459C239.101 46.4721 239.219 47.2184 239.055 47.9288C238.891 48.6393 238.458 49.2588 237.848 49.6579L231.514 53.5507L244.882 45.8328C245.526 45.4492 246.296 45.337 247.022 45.5208C247.748 45.7046 248.372 46.1695 248.755 46.8131C249.139 47.4567 249.251 48.2263 249.067 48.9526C248.884 49.679 248.419 50.3026 247.775 50.6862L227.497 63.1614L255.578 46.9515C256.216 46.5946 256.968 46.4993 257.676 46.6856C258.383 46.8719 258.99 47.3252 259.37 47.9503C259.75 48.5754 259.873 49.3234 259.712 50.037C259.552 50.7507 259.121 51.3743 258.51 51.7766L164.449 111.723L269.624 51.0026C270.265 50.641 271.023 50.5444 271.735 50.7334C272.447 50.9224 273.057 51.3819 273.435 52.0142C273.813 52.6464 273.929 53.4012 273.759 54.1178C273.588 54.8344 273.144 55.4561 272.522 55.8503L211.903 93.3832L269.629 60.0482C270.272 59.6932 271.027 59.6019 271.735 59.7938C272.443 59.9857 273.049 60.4456 273.424 61.0762C273.799 61.7069 273.914 62.4587 273.745 63.1727C273.576 63.8866 273.135 64.5067 272.517 64.9016L240.351 84.6201L269.635 67.7153C270.279 67.3485 271.041 67.2492 271.757 67.4388C272.473 67.6284 273.086 68.0916 273.464 68.7288C273.841 69.3659 273.954 70.126 273.777 70.8453C273.6 71.5645 273.147 72.1854 272.517 72.5743L245.148 89.3209L269.641 75.1959C270.28 74.8445 271.03 74.7538 271.734 74.9427C272.438 75.1317 273.042 75.5856 273.419 76.2095C273.797 76.8335 273.918 77.5791 273.758 78.2905C273.598 79.002 273.17 79.624 272.562 80.0266L174.772 141.866L269.652 87.0948C270.292 86.7292 271.049 86.628 271.762 86.8127C272.475 86.9975 273.088 87.4535 273.47 88.0837C273.852 88.7138 273.972 89.4681 273.806 90.1858C273.639 90.9035 273.199 91.5278 272.579 91.9255L168.15 158.336L269.658 99.7338C270.298 99.3811 271.05 99.2904 271.756 99.4809C272.462 99.6714 273.067 100.128 273.443 100.755C273.819 101.382 273.938 102.131 273.773 102.843C273.609 103.556 273.175 104.177 272.562 104.576L195.603 152.635L269.669 109.876C270.312 109.526 271.065 109.44 271.77 109.634C272.475 109.829 273.077 110.289 273.45 110.918C273.822 111.548 273.936 112.297 273.767 113.009C273.599 113.721 273.16 114.339 272.545 114.735L264.601 119.571L269.686 116.65C270.325 116.304 271.074 116.217 271.775 116.409C272.477 116.6 273.077 117.054 273.452 117.678C273.827 118.301 273.947 119.044 273.788 119.754C273.628 120.463 273.201 121.084 272.596 121.486L195.213 169.828L269.675 126.831C270.318 126.464 271.08 126.365 271.796 126.555C272.512 126.744 273.125 127.208 273.503 127.845C273.881 128.482 273.993 129.242 273.816 129.961C273.639 130.68 273.187 131.301 272.556 131.69L264.962 136.312L269.68 133.594C270.318 133.249 271.064 133.162 271.765 133.351C272.465 133.541 273.065 133.993 273.442 134.613C273.818 135.233 273.941 135.974 273.786 136.683C273.63 137.392 273.208 138.013 272.607 138.419L171.263 202.779L269.692 145.945C270.009 145.754 270.362 145.627 270.729 145.572C271.096 145.516 271.47 145.534 271.83 145.624C272.191 145.713 272.53 145.872 272.828 146.093C273.127 146.313 273.379 146.591 273.57 146.908C273.762 147.226 273.889 147.579 273.944 147.946C273.999 148.313 273.981 148.687 273.892 149.047C273.802 149.408 273.643 149.747 273.422 150.045C273.202 150.344 272.925 150.596 272.607 150.787L202.231 194.812L269.697 155.867C270.338 155.519 271.089 155.433 271.792 155.626C272.495 155.819 273.096 156.276 273.47 156.902C273.843 157.528 273.96 158.275 273.796 158.985C273.632 159.696 273.2 160.315 272.59 160.714L258.318 169.5L269.703 162.929C270.34 162.561 271.095 162.456 271.809 162.637C272.522 162.817 273.137 163.269 273.522 163.895C273.909 164.522 274.035 165.275 273.875 165.994C273.715 166.712 273.28 167.34 272.663 167.743L188.535 222.61L269.714 175.743C270.355 175.356 271.124 175.239 271.852 175.419C272.579 175.598 273.205 176.06 273.593 176.701C273.98 177.342 274.097 178.111 273.917 178.839C273.738 179.566 273.277 180.192 272.635 180.58L239.255 201.626L269.72 184.032C270.361 183.644 271.13 183.526 271.858 183.705C272.586 183.884 273.213 184.345 273.601 184.987C273.989 185.628 274.107 186.397 273.928 187.125C273.749 187.853 273.288 188.48 272.646 188.868L248.724 203.965L269.725 191.84C270.361 191.473 271.114 191.367 271.826 191.545C272.537 191.724 273.152 192.172 273.539 192.795C273.928 193.419 274.058 194.17 273.902 194.888C273.746 195.607 273.316 196.236 272.703 196.643L224.706 228.441L269.731 202.451C270.362 202.094 271.106 201.994 271.809 202.171C272.512 202.348 273.12 202.788 273.507 203.4C273.895 204.013 274.032 204.751 273.891 205.462C273.75 206.172 273.34 206.802 272.748 207.219L225.74 239.752L269.742 214.327C270.375 213.977 271.119 213.882 271.819 214.064C272.52 214.245 273.124 214.688 273.507 215.302C273.891 215.916 274.024 216.653 273.879 217.362C273.735 218.071 273.324 218.698 272.731 219.113L250.945 233.803L269.748 222.949C270.372 222.594 271.108 222.49 271.805 222.658C272.503 222.826 273.111 223.254 273.505 223.854C273.899 224.453 274.05 225.181 273.928 225.888C273.805 226.595 273.417 227.229 272.844 227.661L242.978 249.866L269.759 234.407C270.374 234.055 271.1 233.946 271.791 234.103C272.483 234.261 273.09 234.672 273.492 235.256C273.894 235.841 274.061 236.555 273.961 237.257C273.861 237.959 273.501 238.597 272.952 239.046L251.736 256.205L269.765 245.798C270.379 245.447 271.103 245.339 271.793 245.496C272.483 245.653 273.089 246.064 273.491 246.646C273.893 247.228 274.062 247.94 273.964 248.641C273.866 249.342 273.509 249.981 272.963 250.431L265.409 256.583L269.771 254.069C270.354 253.737 271.036 253.624 271.695 253.749C272.355 253.874 272.948 254.23 273.369 254.753C273.789 255.276 274.01 255.931 273.992 256.602C273.974 257.273 273.717 257.915 273.268 258.414L267.172 265.155L269.782 263.646C270.266 263.367 270.821 263.237 271.378 263.274C271.936 263.31 272.47 263.511 272.913 263.851C273.356 264.191 273.689 264.654 273.868 265.183C274.048 265.712 274.067 266.282 273.923 266.821L272.409 272.471C272.875 272.692 273.272 273.036 273.556 273.465C273.841 273.895 274.002 274.395 274.023 274.91C274.044 275.425 273.924 275.936 273.675 276.387C273.427 276.839 273.059 277.214 272.613 277.472L269.788 279.104C269.304 279.383 268.75 279.512 268.193 279.476C267.637 279.439 267.103 279.239 266.66 278.9C266.218 278.561 265.885 278.099 265.704 277.571C265.524 277.043 265.504 276.474 265.646 275.935L266.714 271.918L254.25 279.138C253.667 279.47 252.985 279.584 252.325 279.458C251.666 279.333 251.073 278.977 250.652 278.455C250.231 277.932 250.01 277.276 250.029 276.605C250.047 275.935 250.304 275.292 250.753 274.793L256.849 268.098L237.696 279.15C237.081 279.495 236.36 279.598 235.674 279.438C234.988 279.279 234.386 278.869 233.986 278.289C233.586 277.709 233.418 277.001 233.514 276.303C233.609 275.605 233.962 274.968 234.503 274.517L242.069 268.375L223.339 279.183C222.724 279.53 222.002 279.634 221.314 279.474C220.626 279.315 220.023 278.904 219.624 278.322C219.224 277.74 219.057 277.03 219.154 276.331C219.252 275.632 219.608 274.995 220.152 274.545L241.362 257.391L203.581 279.2C202.957 279.555 202.221 279.659 201.523 279.491C200.826 279.323 200.218 278.896 199.824 278.296C199.43 277.696 199.279 276.969 199.401 276.261C199.524 275.554 199.911 274.92 200.485 274.488L230.351 252.284L183.699 279.217C183.065 279.578 182.317 279.681 181.609 279.502C180.902 279.324 180.292 278.88 179.905 278.262C179.518 277.643 179.385 276.9 179.534 276.186C179.683 275.472 180.102 274.844 180.704 274.432L202.485 259.742L168.726 279.229C168.095 279.585 167.351 279.685 166.648 279.508C165.945 279.332 165.337 278.892 164.95 278.279C164.562 277.667 164.425 276.929 164.566 276.218C164.708 275.507 165.117 274.878 165.709 274.46L212.723 241.922L148.081 279.223C147.445 279.592 146.69 279.698 145.977 279.519C145.264 279.341 144.649 278.891 144.262 278.266C143.875 277.641 143.747 276.889 143.905 276.171C144.063 275.453 144.495 274.825 145.109 274.421L193.134 242.6L129.679 279.234C129.038 279.622 128.269 279.738 127.541 279.559C126.814 279.379 126.187 278.918 125.8 278.277C125.413 277.635 125.296 276.866 125.476 276.139C125.655 275.412 126.116 274.785 126.758 274.398L150.612 259.335L116.102 279.263C115.461 279.65 114.692 279.767 113.964 279.587C113.237 279.407 112.611 278.946 112.223 278.305C111.836 277.664 111.719 276.895 111.899 276.167C112.078 275.44 112.54 274.814 113.181 274.426L146.561 253.391L101.7 279.257C101.062 279.65 100.294 279.772 99.5645 279.599C98.8356 279.425 98.2055 278.969 97.8129 278.33C97.4203 277.692 97.2973 276.924 97.4711 276.195C97.6449 275.466 98.1011 274.836 98.7395 274.443L182.874 219.559L79.4786 279.274C78.835 279.658 78.0654 279.77 77.339 279.586C76.6127 279.402 75.9891 278.937 75.6055 278.294C75.2219 277.65 75.1097 276.88 75.2935 276.154C75.4774 275.428 75.9422 274.804 76.5858 274.421L90.8973 265.64L67.235 279.285C66.804 279.541 66.3122 279.675 65.8113 279.675Z" fill="#D3E3F2"/>
<path d="M38.6234 279.511C38.0783 279.511 37.5448 279.353 37.0873 279.057C36.6298 278.761 36.2678 278.338 36.045 277.841C35.8222 277.343 35.7481 276.792 35.8317 276.253C35.9153 275.714 36.1529 275.211 36.516 274.805L42.6915 267.872L23.4193 279.003C22.8183 279.329 22.1192 279.426 21.4518 279.277C20.7844 279.127 20.1941 278.74 19.7903 278.188C19.3866 277.636 19.1969 276.956 19.2564 276.274C19.3159 275.593 19.6207 274.956 20.114 274.483L34.6571 261.38L12.2379 274.319C11.6242 274.668 10.9019 274.775 10.2133 274.618C9.52477 274.461 8.91992 274.052 8.51795 273.472C8.11599 272.891 7.94606 272.181 8.04165 271.481C8.13724 270.781 8.49142 270.143 9.0344 269.691L28.2444 253.871L7.91005 265.606C7.28815 265.96 6.55509 266.065 5.85892 265.9C5.16275 265.734 4.55536 265.31 4.15942 264.714C3.76347 264.118 3.60849 263.394 3.72577 262.688C3.84304 261.982 4.22384 261.347 4.79125 260.911L19.114 250.035L7.249 256.877C6.62255 257.243 5.87956 257.353 5.17387 257.186C4.46818 257.019 3.85385 256.586 3.45812 255.979C3.06238 255.371 2.91555 254.634 3.04802 253.921C3.18049 253.208 3.58213 252.573 4.16975 252.148L12.0797 246.363L7.2264 249.188C6.60907 249.546 5.87876 249.658 5.18238 249.5C4.48599 249.343 3.8752 248.927 3.47287 248.337C3.07053 247.747 2.90651 247.027 3.01378 246.321C3.12106 245.615 3.49168 244.976 4.0511 244.532L25.425 227.458L7.23205 237.944C6.60459 238.299 5.86532 238.4 5.16556 238.227C4.46581 238.055 3.85849 237.621 3.46791 237.016C3.07733 236.41 2.93303 235.678 3.06456 234.969C3.19608 234.26 3.59347 233.629 4.1754 233.204L8.00045 230.463L7.23205 230.904C6.60459 231.259 5.86532 231.36 5.16556 231.188C4.46581 231.015 3.85849 230.581 3.46791 229.976C3.07733 229.37 2.93303 228.638 3.06456 227.929C3.19608 227.221 3.59347 226.589 4.1754 226.164L7.7801 223.582L7.2151 223.898C6.59024 224.259 5.85116 224.366 5.1494 224.199C4.44764 224.032 3.83636 223.603 3.4409 223C3.04558 222.396 2.89616 221.664 3.02328 220.954C3.1504 220.244 3.54443 219.609 4.12455 219.18L13.9894 211.914L7.20945 215.819C6.59448 216.165 5.87208 216.269 5.18445 216.109C4.49683 215.95 3.89381 215.539 3.49412 214.957C3.09444 214.375 2.92704 213.665 3.0249 212.966C3.12275 212.267 3.47877 211.63 4.02285 211.18L26.442 193.1L7.23205 204.202C6.61168 204.551 5.88239 204.653 5.19002 204.488C4.49765 204.323 3.89327 203.902 3.49774 203.31C3.10221 202.718 2.94471 201.999 3.05674 201.296C3.16876 200.593 3.54205 199.958 4.10195 199.518L20.6564 186.8L7.23205 194.524C6.61143 194.88 5.87875 194.987 5.18198 194.824C4.48522 194.661 3.8763 194.24 3.4782 193.645C3.0801 193.051 2.9225 192.327 3.03723 191.621C3.15196 190.914 3.53046 190.278 4.0963 189.84L21.5096 176.376L7.23205 184.619C6.61319 184.964 5.8873 185.064 5.19829 184.899C4.50928 184.734 3.90747 184.316 3.51216 183.728C3.11686 183.14 2.95692 182.425 3.06407 181.725C3.17122 181.024 3.53763 180.39 4.09065 179.947L22.1254 165.935L7.23205 174.528C6.61688 174.881 5.89157 174.99 5.20013 174.832C4.5087 174.675 3.90172 174.263 3.49972 173.679C3.09772 173.095 2.9301 172.381 3.03015 171.679C3.13021 170.977 3.49061 170.338 4.0398 169.89L27.2048 151.047L7.23205 162.567C6.61168 162.917 5.88239 163.019 5.19002 162.853C4.49765 162.688 3.89327 162.267 3.49774 161.675C3.10221 161.083 2.94471 160.364 3.05674 159.661C3.16876 158.958 3.54205 158.323 4.10195 157.884L20.6847 145.137L7.23205 152.906C6.60831 153.275 5.8666 153.39 5.1603 153.228C4.45401 153.065 3.83716 152.638 3.43733 152.033C3.0375 151.429 2.88527 150.694 3.01213 149.98C3.13899 149.267 3.53522 148.629 4.1189 148.199L17.984 137.747L7.249 143.962C6.62838 144.318 5.8957 144.426 5.19893 144.263C4.50217 144.1 3.89325 143.678 3.49515 143.083C3.09705 142.489 2.93945 141.765 3.05418 141.059C3.16891 140.353 3.54741 139.716 4.11325 139.278L21.5491 125.792L7.23205 134.035C6.61689 134.358 5.90435 134.443 5.2306 134.273C4.55684 134.104 3.96911 133.692 3.57972 133.117C3.19034 132.541 3.02661 131.843 3.11982 131.154C3.21303 130.466 3.55664 129.836 4.085 129.385L22.5435 114.966L7.23205 123.803C6.61637 124.151 5.89247 124.256 5.20342 124.096C4.51438 123.936 3.91031 123.524 3.51062 122.94C3.11093 122.357 2.94469 121.644 3.04477 120.944C3.14484 120.244 3.50394 119.607 4.0511 119.158L26.0352 101.468L7.23205 112.322C6.60373 112.68 5.86186 112.784 5.15932 112.612C4.45679 112.439 3.84712 112.004 3.45596 111.396C3.0648 110.787 2.92195 110.052 3.05685 109.341C3.19175 108.631 3.59412 107.999 4.18105 107.576L6.56535 105.881C5.94028 106.053 5.27517 106.004 4.68159 105.744C4.08802 105.483 3.60208 105.027 3.30532 104.45C3.00855 103.874 2.91901 103.213 3.05172 102.579C3.18442 101.944 3.53129 101.375 4.03415 100.965L27.3969 81.9249L7.23205 93.547C6.61244 93.894 5.88488 93.9949 5.19424 93.8296C4.50361 93.6643 3.90055 93.2449 3.50516 92.6551C3.10976 92.0652 2.95104 91.348 3.06058 90.6464C3.17013 89.9447 3.53991 89.3101 4.0963 88.8688L21.3853 75.4952L7.2603 83.6708C6.64706 84.0246 5.92333 84.1353 5.23238 83.9809C4.54144 83.8265 3.93366 83.4183 3.52937 82.837C3.12509 82.2558 2.95377 81.544 3.04935 80.8425C3.14492 80.141 3.50041 79.501 4.04545 79.0491L17.7071 67.6926L7.23205 73.7268C6.64353 74.0669 5.95213 74.1834 5.28465 74.055C4.61717 73.9265 4.01839 73.5617 3.59814 73.0275C3.17789 72.4932 2.96435 71.8254 2.9967 71.1464C3.02905 70.4675 3.30511 69.823 3.77425 69.3311L14.5996 57.9294L7.25465 62.1838C6.72876 62.4932 6.11686 62.6239 5.51048 62.5566C4.9041 62.4892 4.33581 62.2274 3.89063 61.8102C3.44545 61.393 3.1473 60.8428 3.04077 60.2421C2.93424 59.6414 3.02506 59.0223 3.29965 58.4774L4.89295 55.2795C4.25764 55.0585 3.72381 54.6149 3.39005 54.0309C3.01403 53.3841 2.90993 52.6146 3.10059 51.8911C3.29125 51.1677 3.76109 50.5494 4.40705 50.1719L9.40165 47.2848C9.92753 46.9755 10.5394 46.8447 11.1458 46.9121C11.7522 46.9794 12.3205 47.2413 12.7657 47.6585C13.2108 48.0757 13.509 48.6258 13.6155 49.2265C13.722 49.8273 13.6312 50.4464 13.3566 50.9912L12.56 52.5958L28.6681 43.2846C29.2561 42.9446 29.9468 42.8278 30.6138 42.9556C31.2809 43.0834 31.8795 43.4472 32.3002 43.9804C32.7208 44.5136 32.9353 45.1805 32.9044 45.8589C32.8734 46.5374 32.5991 47.182 32.1316 47.6746L21.3005 59.082L43.618 46.2C44.2304 45.8537 44.9499 45.7484 45.6359 45.9046C46.3218 46.0608 46.9248 46.4673 47.3268 47.0445C47.7289 47.6218 47.9011 48.3283 47.8097 49.0259C47.7184 49.7234 47.37 50.3618 46.8329 50.816L33.1599 62.1782L54.9181 49.6182C55.5377 49.2713 56.2652 49.1704 56.9559 49.3357C57.6465 49.501 58.2495 49.9203 58.6449 50.5102C59.0403 51.1001 59.1991 51.8172 59.0895 52.5189C58.98 53.2205 58.6102 53.8552 58.0538 54.2964L40.7592 67.67L54.9293 59.4888C55.5447 59.1294 56.2732 59.0158 56.9687 59.1708C57.6643 59.3258 58.2756 59.738 58.6801 60.3247C59.0845 60.9114 59.2523 61.6293 59.1498 62.3345C59.0473 63.0398 58.682 63.6802 58.1272 64.1274L34.7758 83.1792L54.935 71.5402C55.5633 71.1818 56.3052 71.0781 57.0077 71.2504C57.7103 71.4227 58.3199 71.858 58.7111 72.4664C59.1022 73.0749 59.2451 73.8103 59.1102 74.5209C58.9753 75.2316 58.5729 75.8634 57.986 76.2862L55.596 77.9812C56.222 77.8088 56.8882 77.8572 57.4826 78.1183C58.0771 78.3794 58.5634 78.8373 58.8599 79.4149C59.1563 79.9925 59.2447 80.6546 59.1103 81.2898C58.9758 81.925 58.6267 82.4944 58.1216 82.9024L36.1601 100.604L54.9802 89.7389C55.5993 89.3874 56.3283 89.2826 57.0213 89.4455C57.7144 89.6084 58.3203 90.027 58.718 90.6175C59.1157 91.2079 59.2758 91.9268 59.1663 92.6303C59.0568 93.3337 58.6857 93.9698 58.1272 94.4114L39.6461 108.802L54.9576 99.9597C55.5782 99.6035 56.3109 99.4961 57.0077 99.6591C57.7044 99.8222 58.3133 100.244 58.7114 100.838C59.1095 101.433 59.2671 102.156 59.1524 102.863C59.0377 103.569 58.6592 104.206 58.0933 104.644L40.68 118.13L54.9971 109.87C55.6195 109.521 56.3511 109.42 57.0448 109.588C57.7384 109.756 58.3428 110.18 58.7363 110.776C59.1299 111.371 59.2836 112.093 59.1664 112.797C59.0492 113.501 58.6699 114.135 58.1047 114.571L44.2565 125.023L54.9915 118.808C55.6121 118.452 56.3448 118.344 57.0416 118.508C57.7383 118.671 58.3473 119.092 58.7453 119.687C59.1434 120.281 59.301 121.005 59.1863 121.711C59.0716 122.417 58.6931 123.054 58.1272 123.492L41.5106 136.261L54.9745 128.487C55.5899 128.127 56.3183 128.014 57.0139 128.169C57.7095 128.324 58.3208 128.736 58.7252 129.322C59.1297 129.909 59.2975 130.627 59.195 131.332C59.0925 132.038 58.7272 132.678 58.1724 133.125L35.03 151.985L54.9971 140.459C55.6172 140.098 56.3516 139.986 57.0511 140.146C57.7506 140.307 58.3628 140.728 58.7634 141.323C59.1639 141.918 59.3229 142.644 59.2079 143.353C59.0929 144.061 58.7126 144.699 58.1442 145.137L40.115 159.115L54.9971 150.527C55.617 150.173 56.3478 150.067 57.0426 150.23C57.7375 150.393 58.3449 150.813 58.7427 151.406C59.1406 151.998 59.2995 152.72 59.1874 153.424C59.0753 154.129 58.7006 154.766 58.1385 155.205L40.7366 168.664L55.0028 160.426C55.6234 160.07 56.3561 159.962 57.0529 160.125C57.7496 160.288 58.3586 160.71 58.7566 161.305C59.1547 161.899 59.3123 162.623 59.1976 163.329C59.0829 164.035 58.7044 164.672 58.1385 165.11L41.5727 177.834L55.0084 170.065C55.6236 169.712 56.3489 169.604 57.0404 169.761C57.7318 169.918 58.3388 170.33 58.7408 170.914C59.1428 171.498 59.3104 172.212 59.2103 172.914C59.1103 173.616 58.7499 174.255 58.2007 174.704L35.7872 192.784L54.9971 181.681C55.6219 181.323 56.3598 181.218 57.06 181.386C57.7602 181.553 58.3698 181.982 58.7644 182.585C59.159 183.187 59.3087 183.917 59.1829 184.626C59.0571 185.335 58.6654 185.969 58.0877 186.399L48.2284 193.705L55.0084 189.789C55.6359 189.434 56.3752 189.333 57.0749 189.506C57.7747 189.678 58.382 190.112 58.7726 190.718C59.1632 191.323 59.3075 192.055 59.1759 192.764C59.0444 193.473 58.647 194.104 58.0651 194.529L54.483 197.1L55.0141 196.789C55.6416 196.435 56.3808 196.333 57.0806 196.506C57.7803 196.679 58.3877 197.112 58.7782 197.718C59.1688 198.324 59.3131 199.056 59.1816 199.764C59.0501 200.473 58.6527 201.105 58.0707 201.53L54.2626 204.259L55.0197 203.824C55.6363 203.467 56.3649 203.357 57.0595 203.514C57.7542 203.672 58.3636 204.086 58.7658 204.674C59.168 205.262 59.3332 205.98 59.2284 206.685C59.1236 207.389 58.7566 208.028 58.2007 208.474L36.8437 225.537L55.0423 215.039C55.6676 214.686 56.4038 214.584 57.1013 214.755C57.7988 214.925 58.4052 215.355 58.7974 215.956C59.1895 216.558 59.3378 217.286 59.2123 217.993C59.0868 218.7 58.6968 219.333 58.1216 219.762L50.172 225.565L55.048 222.74C55.6702 222.378 56.407 222.267 57.1081 222.43C57.8092 222.593 58.4216 223.017 58.8204 223.617C59.2191 224.216 59.3741 224.945 59.2537 225.654C59.1333 226.364 58.7466 227.001 58.1724 227.435L43.8554 238.323L55.0537 231.853C55.6667 231.506 56.3876 231.4 57.0748 231.556C57.762 231.713 58.3659 232.12 58.7679 232.699C59.1699 233.278 59.341 233.987 59.2475 234.685C59.1541 235.384 58.8029 236.022 58.2629 236.475L39.019 252.295L55.065 243.04C55.666 242.714 56.3651 242.616 57.0324 242.766C57.6998 242.916 58.2902 243.303 58.6939 243.855C59.0976 244.407 59.2874 245.087 59.2278 245.769C59.1683 246.45 58.8636 247.087 58.3702 247.56L43.8271 260.668L55.0706 254.176C55.6522 253.841 56.3345 253.723 56.995 253.845C57.6555 253.966 58.2511 254.319 58.6749 254.84C59.0987 255.361 59.323 256.016 59.3075 256.688C59.292 257.359 59.0379 258.003 58.5905 258.504L52.4094 265.46L55.0819 263.923C55.5984 263.624 56.196 263.497 56.7892 263.559C57.3824 263.622 57.9407 263.87 58.3842 264.269C58.8276 264.668 59.1334 265.197 59.2578 265.78C59.3821 266.363 59.3186 266.971 59.0765 267.516L57.3814 271.341C57.9031 271.507 58.3655 271.82 58.7125 272.243C59.0594 272.666 59.276 273.181 59.3358 273.725C59.3956 274.269 59.2962 274.819 59.0496 275.307C58.8029 275.796 58.4197 276.202 57.9464 276.477L53.353 279.121C52.837 279.418 52.2403 279.545 51.6482 279.483C51.056 279.42 50.4987 279.173 50.0557 278.775C49.6128 278.377 49.3068 277.849 49.1816 277.267C49.0564 276.685 49.1183 276.078 49.3584 275.533L50.4206 273.161L40.0359 279.11C39.6098 279.368 39.1218 279.507 38.6234 279.511Z" fill="#B7C9DB"/>
<path d="M18.741 53.675C18.1537 53.6749 17.581 53.4917 17.1026 53.151C16.6243 52.8102 16.264 52.3288 16.0719 51.7738C15.8799 51.2188 15.8656 50.6177 16.0311 50.0542C16.1965 49.4906 16.5335 48.9927 16.9951 48.6296L43.4258 27.7641L7.23195 48.6522C6.6182 49.0015 5.89588 49.1082 5.20733 48.9514C4.51878 48.7946 3.91393 48.3856 3.51196 47.805C3.10999 47.2243 2.94006 46.5142 3.03565 45.8145C3.13124 45.1149 3.48542 44.4764 4.0284 44.0248L26.6566 25.425L7.2263 36.6516C6.61275 36.995 5.89317 37.0974 5.2082 36.9385C4.52324 36.7797 3.92213 36.3711 3.52237 35.7926C3.12261 35.2142 2.95294 34.5074 3.04652 33.8106C3.1401 33.1137 3.4902 32.4767 4.0284 32.0242L11.865 25.6284L7.25455 28.2896C6.69136 28.6155 6.03293 28.737 5.39052 28.6335C4.74811 28.5301 4.1611 28.208 3.72869 27.7218C3.29627 27.2356 3.04496 26.615 3.01721 25.9649C2.98946 25.3148 3.18699 24.6751 3.5764 24.1538L10.1361 15.3172C9.4767 15.4729 8.78334 15.3865 8.18239 15.0736C7.58144 14.7608 7.11293 14.2425 6.86226 13.613C6.61159 12.9836 6.59546 12.2851 6.81682 11.6448C7.03818 11.0045 7.48228 10.465 8.06815 10.1248L18.9896 3.81944C19.5523 3.49305 20.2104 3.37085 20.8527 3.47347C21.495 3.57609 22.0823 3.89724 22.5153 4.38269C22.9483 4.86814 23.2005 5.48814 23.2293 6.13799C23.2581 6.78785 23.0617 7.42773 22.6734 7.94958L16.2606 16.5545L39.0867 3.39004C39.7002 3.04658 40.4198 2.94427 41.1047 3.10311C41.7897 3.26196 42.3908 3.67054 42.7906 4.24899C43.1903 4.82743 43.36 5.53417 43.2664 6.23106C43.1729 6.92795 42.8227 7.56489 42.2845 8.01739L34.4649 14.4075L53.5789 3.39004C54.1928 3.03448 54.9181 2.92293 55.6105 3.07758C56.3029 3.23223 56.9117 3.64174 57.3161 4.22472C57.7204 4.8077 57.8905 5.52147 57.7927 6.22415C57.6949 6.92684 57.3363 7.567 56.7881 8.01739L34.1881 26.5946L74.3652 3.39004C74.9831 3.03605 75.7118 2.92844 76.4056 3.08876C77.0994 3.24907 77.7071 3.66548 78.107 4.25464C78.5069 4.84381 78.6696 5.56227 78.5625 6.26623C78.4553 6.9702 78.0863 7.60775 77.5292 8.05128L51.1042 28.8998L95.3098 3.39004C95.9351 3.03714 96.6713 2.93558 97.3688 3.10599C98.0663 3.27641 98.6727 3.70601 99.0648 4.30749C99.4569 4.90897 99.6053 5.63719 99.4798 6.34414C99.3543 7.05108 98.9643 7.68371 98.3891 8.11343L79.0999 22.2271L111.734 3.39004C112.365 3.0379 113.106 2.94038 113.805 3.11748C114.505 3.29459 115.111 3.73289 115.498 4.3424C115.884 4.95191 116.023 5.68638 115.885 6.39502C115.748 7.10366 115.344 7.73269 114.757 8.15298L107.282 13.3171L124.475 3.39004C125.092 3.03812 125.819 2.93162 126.511 3.09178C127.204 3.25193 127.81 3.66698 128.21 4.25421C128.61 4.84144 128.773 5.55775 128.669 6.26041C128.564 6.96306 128.198 7.60047 127.645 8.04563L100.949 29.2218L145.719 3.39004C146.339 3.04091 147.069 2.93886 147.761 3.10429C148.453 3.26972 149.058 3.69044 149.453 4.2823C149.849 4.87416 150.006 5.59352 149.894 6.29651C149.782 6.9995 149.409 7.63428 148.849 8.07389L124.554 26.7189L164.918 3.39004C165.545 3.03543 166.285 2.93405 166.984 3.10666C167.684 3.27927 168.291 3.7128 168.682 4.31852C169.073 4.92425 169.217 5.65635 169.085 6.36497C168.954 7.0736 168.556 7.70516 167.974 8.13038L152.375 19.2665L179.913 3.39004C180.531 3.04066 181.259 2.93702 181.95 3.09976C182.641 3.2625 183.246 3.67968 183.643 4.26821C184.041 4.85674 184.202 5.57344 184.095 6.27555C183.988 6.97767 183.621 7.61369 183.066 8.05693L157.07 28.4308L200.49 3.39004C201.118 3.03543 201.857 2.93405 202.557 3.10666C203.256 3.27927 203.864 3.7128 204.254 4.31852C204.645 4.92425 204.789 5.65635 204.658 6.36497C204.526 7.0736 204.129 7.70516 203.547 8.13038L187.67 19.5038L215.581 3.39004C216.198 3.03812 216.926 2.93162 217.618 3.09178C218.31 3.25193 218.916 3.66698 219.316 4.25421C219.716 4.84144 219.88 5.55775 219.775 6.26041C219.67 6.96306 219.305 7.60047 218.751 8.04563L192.196 29.0975L236.735 3.39004C237.359 3.03529 238.095 2.93137 238.792 3.09938C239.49 3.26739 240.098 3.69472 240.492 4.29459C240.886 4.89445 241.037 5.62186 240.915 6.32905C240.792 7.03625 240.404 7.6702 239.831 8.10213L218.768 23.73L253.685 3.54824C254.313 3.18423 255.057 3.0758 255.762 3.24541C256.468 3.41502 257.081 3.84967 257.475 4.45924C257.869 5.06881 258.013 5.80655 257.877 6.5195C257.742 7.23245 257.337 7.86592 256.747 8.28858L240.362 20.0575L262.872 7.06253C263.503 6.70619 264.247 6.60603 264.95 6.78275C265.653 6.95948 266.261 7.39958 266.648 8.01203C267.036 8.62449 267.173 9.36244 267.032 10.0733C266.89 10.7841 266.481 11.4135 265.889 11.8311L263.894 13.2097L266.849 11.5147C267.469 11.161 268.2 11.0549 268.895 11.2179C269.59 11.3809 270.197 11.8009 270.595 12.3934C270.993 12.9859 271.152 13.7071 271.04 14.4119C270.928 15.1168 270.553 15.7531 269.991 16.1929L255.787 27.1765L269.443 19.2665C270.05 18.9148 270.766 18.8013 271.451 18.9482C272.137 19.0951 272.744 19.4918 273.153 20.0613C273.563 20.6307 273.746 21.3321 273.667 22.029C273.588 22.7259 273.252 23.3685 272.725 23.8317L261.171 34.0017L269.646 29.0919C270.227 28.7559 270.908 28.6373 271.568 28.7576C272.228 28.8778 272.823 29.2289 273.248 29.7481C273.673 30.2673 273.899 30.9206 273.886 31.5913C273.873 32.2619 273.622 32.9061 273.177 33.4085L267.77 39.55L269.725 38.42C270.212 38.1388 270.771 38.009 271.332 38.0472C271.892 38.0855 272.429 38.29 272.872 38.6347C273.316 38.979 273.647 39.4478 273.823 39.9812C274 40.5146 274.013 41.0884 273.861 41.6292L272.477 46.5221C272.929 46.7537 273.31 47.1029 273.58 47.5329C273.851 47.9629 274 48.4578 274.013 48.9656C274.025 49.4733 273.901 49.9751 273.653 50.4181C273.404 50.8611 273.041 51.2289 272.601 51.4828L269.776 53.11C269.29 53.39 268.731 53.5188 268.172 53.4801C267.612 53.4414 267.076 53.2368 266.633 52.8926C266.19 52.5483 265.86 52.0799 265.684 51.5471C265.508 51.0143 265.495 50.4412 265.646 49.9008L266.527 46.7877L255.561 53.11C254.981 53.439 254.303 53.5522 253.648 53.4299C252.993 53.3075 252.402 52.9573 251.98 52.4413C251.558 51.9253 251.332 51.2767 251.342 50.6101C251.352 49.9436 251.598 49.3021 252.035 48.7991L257.47 42.6575L239.328 53.1439C238.722 53.4843 238.012 53.5893 237.334 53.4391C236.656 53.2889 236.056 52.8939 235.651 52.3296C235.245 51.7654 235.062 51.0714 235.136 50.3805C235.21 49.6896 235.536 49.0501 236.051 48.5844L247.606 38.4144L222.079 53.1552C221.459 53.509 220.728 53.615 220.033 53.452C219.339 53.289 218.731 52.8691 218.333 52.2766C217.935 51.684 217.777 50.9629 217.889 50.2581C218.001 49.5532 218.375 48.9169 218.937 48.477L233.164 37.4991L206.044 53.1665C205.413 53.5229 204.669 53.623 203.966 53.4463C203.263 53.2696 202.655 52.8295 202.268 52.217C201.88 51.6046 201.743 50.8666 201.884 50.1558C202.026 49.445 202.435 48.8156 203.027 48.3979L205.072 46.9854L194.36 53.1722C193.732 53.5362 192.988 53.6446 192.283 53.475C191.577 53.3054 190.964 52.8707 190.57 52.2612C190.176 51.6516 190.032 50.9139 190.168 50.2009C190.303 49.488 190.708 48.8545 191.298 48.4318L207.632 36.6855L179.054 53.1835C178.43 53.5382 177.694 53.6421 176.997 53.4741C176.299 53.3061 175.691 52.8788 175.297 52.2789C174.903 51.6791 174.752 50.9517 174.875 50.2445C174.997 49.5373 175.385 48.9033 175.958 48.4714L197.032 32.8322L161.754 53.1722C161.137 53.5241 160.41 53.6306 159.718 53.4704C159.025 53.3103 158.419 52.8952 158.019 52.308C157.619 51.7208 157.456 51.0045 157.56 50.3018C157.665 49.5992 158.031 48.9617 158.584 48.5166L185.139 27.4647L140.555 53.2117C139.928 53.5663 139.188 53.6677 138.489 53.4951C137.789 53.3225 137.181 52.889 136.791 52.2832C136.4 51.6775 136.256 50.9454 136.388 50.2368C136.519 49.5282 136.916 48.8966 137.498 48.4714L153.392 37.081L125.43 53.2174C124.812 53.5668 124.084 53.6704 123.393 53.5077C122.702 53.3449 122.097 52.9277 121.699 52.3392C121.302 51.7507 121.14 51.034 121.248 50.3319C121.355 49.6297 121.722 48.9937 122.277 48.5505L148.267 28.1596L104.847 53.2343C104.22 53.5889 103.48 53.6903 102.781 53.5177C102.081 53.3451 101.473 52.9116 101.083 52.3058C100.692 51.7001 100.548 50.968 100.68 50.2594C100.811 49.5508 101.208 48.9192 101.79 48.494L117.407 37.3183L89.8349 53.24C89.2148 53.5826 88.4886 53.6798 87.8003 53.5122C87.1119 53.3446 86.5117 52.9244 86.1185 52.3351C85.7254 51.7457 85.568 51.0301 85.6777 50.3302C85.7873 49.6302 86.156 48.997 86.7105 48.5561L111.005 29.9394L70.6249 53.2569C70.0078 53.6089 69.2808 53.7153 68.5886 53.5552C67.8965 53.395 67.2901 52.98 66.8903 52.3928C66.4905 51.8055 66.3267 51.0892 66.4314 50.3866C66.5361 49.6839 66.9017 49.0465 67.4553 48.6013L94.1516 27.4138L49.3527 53.2682C48.7212 53.6357 47.9718 53.7443 47.262 53.571C46.5521 53.3977 45.937 52.9562 45.5458 52.339C45.1546 51.7219 45.0178 50.9772 45.164 50.2613C45.3102 49.5454 45.7281 48.914 46.3299 48.4996L53.788 43.3525L36.6006 53.2795C35.9754 53.6324 35.2391 53.734 34.5417 53.5636C33.8442 53.3932 33.2377 52.9636 32.8456 52.3621C32.4535 51.7606 32.3051 51.0324 32.4307 50.3254C32.5562 49.6185 32.9462 48.9859 33.5214 48.5561L52.8388 34.4311L20.1535 53.2908C19.7256 53.5431 19.2377 53.6757 18.741 53.675Z" fill="#57BFFF"/>
<path d="M264.821 334.977C264.235 334.976 263.664 334.792 263.187 334.451C262.711 334.111 262.351 333.631 262.16 333.077C261.968 332.523 261.953 331.924 262.117 331.361C262.281 330.799 262.616 330.301 263.075 329.937L272.296 322.655L257.137 331.406C256.521 331.761 255.794 331.87 255.101 331.713C254.408 331.555 253.8 331.142 253.398 330.556C252.996 329.97 252.83 329.254 252.932 328.551C253.034 327.848 253.398 327.209 253.951 326.762L274.624 310.134L248.69 325.101C248.068 325.458 247.333 325.564 246.634 325.399C245.936 325.233 245.327 324.808 244.931 324.21C244.534 323.611 244.381 322.885 244.501 322.177C244.621 321.47 245.006 320.834 245.577 320.4L266.561 304.58L243.396 317.954C242.772 318.304 242.038 318.404 241.343 318.233C240.647 318.063 240.043 317.635 239.651 317.035C239.259 316.436 239.109 315.711 239.232 315.005C239.355 314.3 239.74 313.668 240.311 313.236L261.544 297.665L240.198 309.987C239.581 310.341 238.852 310.449 238.158 310.289C237.464 310.128 236.857 309.712 236.457 309.123C236.057 308.533 235.894 307.815 236.001 307.111C236.108 306.407 236.477 305.77 237.034 305.326L261.759 285.822L238.882 299.009C238.266 299.359 237.54 299.465 236.85 299.305C236.159 299.145 235.554 298.731 235.154 298.146C234.754 297.56 234.589 296.846 234.692 296.145C234.794 295.443 235.156 294.806 235.707 294.359L250.114 282.845L238.882 289.325C238.287 289.664 237.589 289.775 236.919 289.638C236.248 289.501 235.65 289.125 235.236 288.58C234.821 288.035 234.619 287.359 234.666 286.676C234.713 285.993 235.007 285.35 235.492 284.867L245.662 274.85L238.882 278.754C238.382 279.042 237.805 279.17 237.23 279.121C236.655 279.072 236.108 278.847 235.665 278.478C235.221 278.108 234.901 277.612 234.748 277.055C234.595 276.499 234.616 275.908 234.808 275.364L236.684 270.036C236.153 269.882 235.678 269.575 235.319 269.153C234.961 268.731 234.734 268.213 234.667 267.664C234.6 267.114 234.696 266.557 234.944 266.062C235.191 265.567 235.578 265.155 236.057 264.878L240.012 262.584C240.512 262.293 241.09 262.164 241.666 262.212C242.243 262.261 242.79 262.485 243.235 262.855C243.68 263.224 244.001 263.722 244.154 264.28C244.307 264.837 244.285 265.429 244.091 265.974L242.656 270.047L261.906 258.934C262.501 258.595 263.198 258.484 263.869 258.621C264.54 258.758 265.138 259.134 265.552 259.679C265.966 260.224 266.169 260.901 266.122 261.583C266.075 262.266 265.781 262.909 265.296 263.392L255.126 273.409L279.675 259.239C280.291 258.889 281.017 258.783 281.707 258.943C282.398 259.103 283.003 259.517 283.403 260.102C283.803 260.688 283.968 261.402 283.865 262.103C283.763 262.805 283.401 263.442 282.85 263.889L268.448 275.404L292.743 261.363C293.361 261.009 294.09 260.902 294.784 261.062C295.478 261.222 296.085 261.639 296.485 262.228C296.885 262.817 297.048 263.536 296.941 264.24C296.834 264.944 296.465 265.581 295.907 266.025L271.2 285.534L303.501 266.889C304.127 266.528 304.867 266.42 305.57 266.587C306.273 266.755 306.884 267.186 307.279 267.79C307.675 268.395 307.823 269.129 307.694 269.84C307.565 270.55 307.168 271.185 306.586 271.612L285.348 287.184L303.501 276.709C304.123 276.348 304.86 276.239 305.56 276.403C306.26 276.567 306.872 276.991 307.27 277.59C307.668 278.19 307.822 278.92 307.7 279.63C307.578 280.34 307.19 280.976 306.614 281.41L285.619 297.23L303.507 286.907C304.122 286.559 304.846 286.454 305.535 286.614C306.224 286.774 306.828 287.186 307.228 287.77C307.628 288.353 307.794 289.065 307.694 289.766C307.594 290.466 307.235 291.103 306.688 291.551L286.003 308.196L303.303 298.213C303.921 297.865 304.647 297.763 305.336 297.925C306.026 298.088 306.63 298.504 307.027 299.09C307.425 299.677 307.587 300.391 307.482 301.092C307.378 301.793 307.013 302.429 306.462 302.874L297.263 310.134L301.783 307.513C302.385 307.177 303.088 307.073 303.761 307.22C304.433 307.367 305.029 307.754 305.436 308.309C305.844 308.864 306.034 309.549 305.972 310.234C305.91 310.92 305.6 311.559 305.1 312.033L296.179 320.242C296.645 320.461 297.043 320.804 297.328 321.234C297.614 321.663 297.777 322.162 297.799 322.677C297.821 323.192 297.702 323.704 297.454 324.156C297.206 324.608 296.839 324.984 296.393 325.242L280.669 334.322C280.068 334.657 279.365 334.761 278.692 334.614C278.02 334.468 277.424 334.08 277.016 333.525C276.609 332.97 276.419 332.286 276.481 331.6C276.542 330.914 276.853 330.275 277.353 329.802L282.144 325.429L266.234 334.61C265.804 334.856 265.316 334.983 264.821 334.977Z" fill="#CB4949"/>
<path d="M261.442 251.374C260.863 251.375 260.298 251.197 259.823 250.866C259.348 250.534 258.987 250.064 258.787 249.521C258.588 248.977 258.561 248.385 258.71 247.825C258.858 247.265 259.175 246.765 259.617 246.391L263.782 242.865L250.182 250.719C249.58 251.068 248.871 251.183 248.189 251.042C247.508 250.901 246.903 250.513 246.49 249.953C246.077 249.393 245.885 248.7 245.951 248.007C246.017 247.314 246.337 246.67 246.848 246.199L261.386 232.707L250.295 239.114C249.717 239.443 249.042 239.559 248.388 239.439C247.733 239.32 247.142 238.973 246.718 238.461C246.294 237.948 246.065 237.303 246.07 236.638C246.075 235.973 246.315 235.331 246.747 234.825L254.493 225.859C253.845 225.947 253.186 225.807 252.63 225.463C252.073 225.12 251.653 224.594 251.441 223.975C251.229 223.356 251.238 222.683 251.467 222.071C251.696 221.458 252.13 220.944 252.696 220.616L265.748 213.078C266.326 212.746 267.003 212.628 267.66 212.747C268.317 212.865 268.91 213.213 269.335 213.727C269.76 214.242 269.989 214.89 269.982 215.557C269.975 216.224 269.732 216.867 269.296 217.372L261.951 225.847L280.24 215.305C280.842 214.96 281.549 214.849 282.227 214.992C282.906 215.135 283.508 215.523 283.919 216.081C284.33 216.639 284.521 217.329 284.456 218.02C284.392 218.71 284.075 219.352 283.568 219.825L269.053 233.3L288.218 222.237C288.828 221.889 289.546 221.781 290.232 221.935C290.918 222.088 291.522 222.491 291.926 223.065C292.331 223.64 292.507 224.345 292.42 225.042C292.332 225.739 291.989 226.379 291.455 226.836L287.274 230.379L291.133 228.153C291.697 227.827 292.356 227.706 292.998 227.811C293.641 227.915 294.227 228.238 294.659 228.725C295.091 229.212 295.342 229.833 295.368 230.483C295.395 231.134 295.196 231.773 294.806 232.294L289.681 239.102L292.263 237.616C292.758 237.332 293.327 237.204 293.895 237.25C294.464 237.295 295.005 237.511 295.449 237.87C295.892 238.229 296.216 238.714 296.379 239.26C296.541 239.807 296.535 240.39 296.359 240.933L295.229 244.396C295.639 244.641 295.977 244.988 296.213 245.402C296.585 246.05 296.686 246.82 296.492 247.542C296.298 248.265 295.826 248.881 295.179 249.255L292.354 250.883C291.859 251.169 291.289 251.298 290.72 251.254C290.15 251.209 289.607 250.993 289.163 250.634C288.718 250.275 288.394 249.789 288.231 249.242C288.068 248.694 288.075 248.11 288.252 247.566L288.709 246.176L280.472 250.928C279.908 251.253 279.249 251.374 278.607 251.27C277.964 251.165 277.377 250.843 276.946 250.356C276.514 249.869 276.263 249.247 276.237 248.597C276.21 247.947 276.409 247.307 276.799 246.786L281.924 240.006L262.838 251.018C262.412 251.258 261.931 251.38 261.442 251.374Z" fill="#CB4949"/>
<path d="M247.131 268.375C246.595 268.375 246.071 268.223 245.618 267.936C245.166 267.65 244.804 267.24 244.575 266.756C244.347 266.271 244.26 265.732 244.327 265.2C244.393 264.668 244.609 264.167 244.95 263.753L253.487 253.419L238.876 261.855C238.323 262.174 237.679 262.297 237.047 262.203C236.416 262.109 235.834 261.804 235.399 261.337C234.963 260.87 234.698 260.27 234.647 259.633C234.596 258.997 234.763 258.362 235.119 257.832L239.492 251.329C238.847 251.408 238.194 251.262 237.644 250.916C237.094 250.569 236.68 250.044 236.472 249.428C236.264 248.812 236.275 248.143 236.503 247.534C236.731 246.925 237.162 246.414 237.724 246.086L246.945 240.763C247.496 240.439 248.141 240.313 248.774 240.408C249.406 240.503 249.987 240.812 250.419 241.283C250.855 241.749 251.12 242.349 251.172 242.985C251.223 243.622 251.057 244.256 250.702 244.786L246.611 250.86L264.234 240.69C264.807 240.362 265.477 240.245 266.127 240.36C266.778 240.474 267.368 240.813 267.794 241.318C268.221 241.822 268.457 242.46 268.462 243.121C268.467 243.781 268.24 244.422 267.821 244.933L259.29 255.267L284.534 240.69C285.129 240.351 285.827 240.24 286.497 240.377C287.168 240.514 287.766 240.89 288.18 241.435C288.595 241.98 288.797 242.657 288.75 243.34C288.703 244.023 288.409 244.665 287.924 245.148L281.014 251.928L297.908 242.176C298.479 241.85 299.146 241.733 299.793 241.846C300.441 241.959 301.029 242.294 301.456 242.795C301.884 243.295 302.123 243.928 302.133 244.585C302.143 245.243 301.924 245.883 301.512 246.397L294.241 255.38L303.094 250.295C303.56 250.027 304.093 249.897 304.63 249.921C305.166 249.944 305.686 250.121 306.126 250.429C306.566 250.738 306.909 251.166 307.114 251.662C307.32 252.159 307.38 252.704 307.287 253.233L305.897 261.103C306.423 261.264 306.891 261.574 307.244 261.997C307.596 262.419 307.817 262.936 307.88 263.483C307.943 264.029 307.845 264.582 307.598 265.074C307.351 265.566 306.966 265.975 306.49 266.251L303.665 267.878C303.2 268.146 302.668 268.275 302.131 268.252C301.595 268.228 301.077 268.052 300.637 267.744C300.197 267.437 299.854 267.01 299.647 266.514C299.441 266.019 299.381 265.474 299.473 264.945L300.659 258.216L283.833 267.929C283.262 268.255 282.595 268.371 281.948 268.258C281.3 268.146 280.712 267.81 280.284 267.31C279.857 266.81 279.618 266.177 279.608 265.519C279.598 264.862 279.817 264.221 280.229 263.708L287.506 254.73L264.561 267.974C263.966 268.313 263.269 268.424 262.598 268.287C261.927 268.15 261.329 267.774 260.915 267.229C260.5 266.684 260.298 266.007 260.345 265.324C260.392 264.641 260.686 263.999 261.171 263.516L268.07 256.736L248.532 268.036C248.103 268.271 247.62 268.388 247.131 268.375Z" fill="#CB4949"/>
<path d="M26.7076 30.7472H32.3576C33.4682 30.7732 34.5716 30.5633 35.5951 30.1314C36.054 29.9529 36.4799 29.6989 36.855 29.3799C37.2103 29.1406 37.5107 28.8286 37.7364 28.4646C37.9322 28.1939 38.0333 27.8662 38.0241 27.5322C38.0149 27.1983 37.8959 26.8766 37.6856 26.6171C37.072 26.0507 36.2602 25.7483 35.4256 25.7752H29.7756C28.6726 25.7524 27.5772 25.9623 26.5607 26.3911C26.0923 26.5742 25.6585 26.836 25.2782 27.1651C24.923 27.4045 24.6225 27.7164 24.3968 28.0804C24.201 28.3512 24.0999 28.6789 24.1091 29.0128C24.1183 29.3468 24.2373 29.6684 24.4476 29.928C25.0648 30.4862 25.8761 30.7803 26.7076 30.7472Z" fill="#262626"/>
<path d="M54.144 31.0241C54.7867 31.2426 55.4678 31.3254 56.1441 31.2671H61.7941C62.361 31.24 62.9181 31.1098 63.4383 30.8829C63.9573 30.726 64.4422 30.473 64.8677 30.1371C65.6139 29.6227 66.1275 28.8351 66.2972 27.9449C66.3311 27.5428 66.2568 27.139 66.0819 26.7753C65.9071 26.4117 65.638 26.1015 65.3028 25.877L64.5061 25.4758C63.8634 25.2573 63.1824 25.1745 62.506 25.2329H56.856C56.2892 25.2599 55.732 25.3901 55.2119 25.6171C54.6929 25.7739 54.208 26.0269 53.7824 26.3629C53.0363 26.8772 52.5227 27.6648 52.353 28.5551C52.319 28.9571 52.3934 29.3609 52.5682 29.7246C52.7431 30.0882 53.0121 30.3984 53.3474 30.623L54.144 31.0241Z" fill="#262626"/>
<path d="M83.1171 30.4083H88.7671C89.8666 30.3921 90.9532 30.1698 91.9707 29.7529C92.436 29.5821 92.8738 29.3441 93.2702 29.0467C93.6234 28.8421 93.9341 28.5716 94.1855 28.25C94.4906 27.7754 94.7505 27.1596 94.1855 26.7019C93.5523 26.25 92.7801 26.036 92.0046 26.0974H86.3546C85.2552 26.1136 84.1685 26.3359 83.151 26.7528C82.6858 26.9236 82.248 27.1615 81.8515 27.459C81.509 27.6648 81.2081 27.9331 80.9645 28.25C80.6594 28.7246 80.3995 29.3405 80.9362 29.7981C81.5687 30.252 82.341 30.4681 83.1171 30.4083Z" fill="#262626"/>
<path d="M208.638 31.0749H248.188C249.883 31.0749 252.51 29.7754 252.708 27.9053C252.962 25.8091 250.448 25.4645 248.99 25.4645H209.44C207.745 25.4645 205.118 26.7696 204.92 28.6398C204.666 30.7133 207.152 31.0749 208.638 31.0749Z" fill="#262626"/>
<path d="M26.7472 76.0942H32.3972C32.9312 76.1426 33.4695 76.1025 33.9905 75.9755C34.5528 75.9013 35.1 75.7393 35.612 75.4953C36.0839 75.307 36.5168 75.0331 36.8889 74.6873C37.2465 74.4355 37.5437 74.1075 37.759 73.7268C37.9539 73.4299 38.0505 73.0793 38.0353 72.7244C38.0201 72.3696 37.8938 72.0285 37.6743 71.7493C37.3781 71.4513 37.026 71.2146 36.6382 71.0526C36.2504 70.8907 35.8345 70.8069 35.4143 70.8058H29.7643C29.2303 70.7574 28.6919 70.7975 28.171 70.9244C27.6087 70.9987 27.0615 71.1607 26.5494 71.4047C26.0776 71.593 25.6447 71.8669 25.2725 72.2126C24.915 72.4645 24.6178 72.7925 24.4024 73.1731C24.2076 73.4701 24.111 73.8207 24.1262 74.1756C24.1414 74.5304 24.2677 74.8715 24.4872 75.1506C24.7834 75.4487 25.1355 75.6854 25.5233 75.8473C25.9111 76.0092 26.327 76.0931 26.7472 76.0942Z" fill="#262626"/>
<path d="M37.6968 94.4397C37.0779 93.9231 36.2871 93.6588 35.482 93.6995H29.832C28.7307 93.6941 27.6396 93.9093 26.6228 94.3323C26.1555 94.5089 25.7204 94.7608 25.3346 95.0781C24.9761 95.3002 24.6696 95.597 24.4362 95.9482C24.2407 96.1874 24.1339 96.4868 24.1339 96.7957C24.1339 97.1046 24.2407 97.4041 24.4362 97.6432C25.0551 98.1598 25.8459 98.4241 26.651 98.3834H32.301C33.4029 98.3896 34.4946 98.1724 35.5102 97.7449C35.9783 97.5726 36.4138 97.3224 36.7984 97.0048C37.157 96.7827 37.4634 96.4859 37.6968 96.1347C37.8923 95.8955 37.9991 95.5961 37.9991 95.2872C37.9991 94.9783 37.8923 94.6789 37.6968 94.4397Z" fill="#262626"/>
<path d="M30.51 120.193H31.2219C32.2299 120.168 33.2306 120.014 34.1995 119.735C35.1871 119.501 36.1378 119.132 37.0245 118.639L37.5895 118.249C37.7156 118.182 37.8208 118.082 37.8936 117.96C37.9664 117.837 38.0039 117.697 38.0019 117.554C37.7929 117.085 36.9906 117.108 36.6007 117.108H30.9507C29.9427 117.132 28.9421 117.286 27.9732 117.565C26.9855 117.799 26.0349 118.168 25.1482 118.661L24.5832 119.051C24.4571 119.118 24.3518 119.218 24.2791 119.341C24.2063 119.463 24.1688 119.604 24.1707 119.746C24.3798 120.215 25.1821 120.193 25.5719 120.193H30.51Z" fill="#262626"/>
<path d="M24.4249 142.759C25.0635 143.169 25.8225 143.35 26.5776 143.273H32.2276C33.3253 143.243 34.4087 143.015 35.4255 142.6C35.8907 142.434 36.3315 142.206 36.7363 141.922C37.0896 141.728 37.4038 141.469 37.6629 141.16C37.9623 140.736 38.2279 140.165 37.725 139.741C37.0865 139.331 36.3275 139.15 35.5724 139.227H29.9224C28.8246 139.257 27.7413 139.485 26.7245 139.9C26.2588 140.065 25.8178 140.293 25.4137 140.578C25.0604 140.772 24.7462 141.031 24.4871 141.34C24.1876 141.764 23.9164 142.335 24.4249 142.759Z" fill="#262626"/>
<path d="M24.4476 165.449C25.0688 165.956 25.8561 166.213 26.6567 166.172H32.3067C33.4088 166.174 34.5 165.955 35.5159 165.528C35.9838 165.354 36.4207 165.106 36.8098 164.793C37.1642 164.571 37.4698 164.279 37.7081 163.935C37.911 163.699 38.0225 163.398 38.0225 163.087C38.0225 162.776 37.911 162.475 37.7081 162.24C37.0869 161.733 36.2996 161.475 35.499 161.516H29.849C28.7476 161.515 27.6568 161.732 26.6398 162.155C26.1726 162.333 25.7361 162.583 25.3459 162.895C24.9903 163.116 24.6844 163.409 24.4476 163.754C24.2447 163.99 24.1332 164.29 24.1332 164.601C24.1332 164.912 24.2447 165.213 24.4476 165.449Z" fill="#262626"/>
<path d="M36.2843 183.766C35.641 183.56 34.9624 183.487 34.2899 183.552H28.6399C28.0731 183.583 27.5164 183.715 26.9957 183.941C26.4763 184.093 25.9896 184.34 25.5606 184.67C25.1638 184.925 24.8327 185.269 24.5945 185.676C24.3255 185.997 24.1565 186.39 24.1086 186.806C24.0715 187.192 24.1427 187.582 24.3144 187.93C24.486 188.278 24.7512 188.572 25.0804 188.778L25.8657 189.151C26.5097 189.354 27.1877 189.427 27.8602 189.365H33.5102C34.077 189.334 34.6337 189.202 35.1543 188.976C35.6738 188.824 36.1604 188.577 36.5894 188.247C36.9863 187.992 37.3173 187.648 37.5556 187.241C37.8246 186.92 37.9935 186.527 38.0415 186.111C38.0786 185.724 38.0073 185.335 37.8357 184.987C37.664 184.639 37.3988 184.345 37.0697 184.139L36.2843 183.766Z" fill="#262626"/>
<path d="M30.51 210.587H31.2219C32.2299 210.562 33.2306 210.408 34.1995 210.129C35.1881 209.902 36.1393 209.534 37.0245 209.039L37.5895 208.649C37.7156 208.582 37.8208 208.482 37.8936 208.359C37.9664 208.237 38.0039 208.096 38.0019 207.954C37.7929 207.485 36.9906 207.513 36.6007 207.513H30.9507C29.9427 207.538 28.9421 207.692 27.9732 207.971C26.9845 208.198 26.0333 208.566 25.1482 209.061L24.5832 209.451C24.4571 209.518 24.3518 209.618 24.2791 209.74C24.2063 209.863 24.1688 210.003 24.1707 210.146C24.3798 210.615 25.1821 210.587 25.5719 210.587H30.51Z" fill="#262626"/>
<path d="M36.29 228.989C35.6459 228.786 34.9673 228.717 34.2955 228.785H28.6455C28.077 228.818 27.5186 228.95 26.9957 229.175C26.4775 229.327 25.9913 229.573 25.5606 229.898C25.1668 230.152 24.8363 230.492 24.5945 230.893C24.3246 231.213 24.1556 231.606 24.1086 232.023C24.0691 232.404 24.1383 232.789 24.3083 233.133C24.4782 233.477 24.742 233.766 25.0691 233.966L25.8544 234.334C26.4972 234.533 27.1734 234.602 27.8432 234.537H33.4932C34.0618 234.505 34.6202 234.373 35.143 234.147C35.6612 233.995 36.1475 233.75 36.5781 233.424C36.972 233.171 37.3025 232.831 37.5443 232.43C37.8141 232.109 37.9832 231.716 38.0302 231.3C38.0696 230.918 38.0004 230.533 37.8305 230.189C37.6605 229.845 37.3968 229.556 37.0697 229.356L36.29 228.989Z" fill="#262626"/>
<path d="M84.3263 229.819H80.8233C78.8123 229.777 76.8606 230.502 75.3654 231.848C74.2015 233.305 76.3994 233.481 77.3768 233.481H105.627C107.639 233.521 109.59 232.794 111.085 231.447C112.249 229.989 110.051 229.819 109.073 229.819H84.3263Z" fill="#262626"/>
<path d="M182.354 229.192H131.504C130.487 229.107 129.466 229.272 128.527 229.672C127.589 230.072 126.762 230.694 126.119 231.486C125.221 233.13 126.882 234.108 128.379 234.108H179.229C180.246 234.192 181.268 234.028 182.206 233.628C183.144 233.228 183.971 232.606 184.614 231.814C185.529 230.17 183.868 229.192 182.354 229.192Z" fill="#262626"/>
<path d="M78.7215 166.782H106.971C108.723 166.782 111.271 165.438 111.491 163.522C111.74 161.392 109.288 160.918 107.729 160.918H79.4786C77.7271 160.918 75.1789 162.262 74.9586 164.178C74.71 166.308 77.1621 166.782 78.7215 166.782Z" fill="#262626"/>
<path d="M111.107 186.343C112.299 184.845 110.068 184.467 109.034 184.467H80.7837C79.7833 184.436 78.7869 184.605 77.8526 184.964C76.9184 185.323 76.0651 185.865 75.3428 186.557C74.1506 188.055 76.3824 188.433 77.4163 188.433H105.666C106.667 188.464 107.663 188.295 108.597 187.936C109.532 187.577 110.385 187.035 111.107 186.343Z" fill="#262626"/>
<path d="M172.658 164.065C173.788 163.228 173.868 162.087 172.127 162.087H132.577C130.536 162.005 128.519 162.545 126.792 163.635C125.662 164.471 125.583 165.613 127.323 165.613H166.873C168.914 165.695 170.931 165.155 172.658 164.065Z" fill="#262626"/>
<path d="M155.533 188.066C157.566 188.078 159.565 187.541 161.319 186.512C162.562 185.738 162.511 184.817 160.867 184.817H132.617C130.584 184.805 128.585 185.342 126.831 186.371C125.588 187.145 125.639 188.066 127.283 188.066H155.533Z" fill="#262626"/>
<path d="M76.7497 144.075C77.392 144.295 78.0731 144.38 78.7498 144.324H84.3998C84.9671 144.3 85.5249 144.17 86.044 143.939C86.5647 143.783 87.0515 143.53 87.479 143.194C88.2249 142.67 88.736 141.875 88.9028 140.979C88.9361 140.572 88.8605 140.165 88.6837 139.797C88.507 139.43 88.2355 139.116 87.8972 138.888L87.1005 138.482C86.4582 138.261 85.7771 138.176 85.1004 138.233H79.4504C78.8831 138.257 78.3253 138.387 77.8062 138.617C77.2855 138.774 76.7987 139.027 76.3712 139.363C75.6253 139.887 75.1142 140.682 74.9474 141.578C74.9147 141.984 74.9906 142.392 75.1673 142.759C75.344 143.126 75.6152 143.44 75.953 143.668L76.7497 144.075Z" fill="#262626"/>
<path d="M103.502 141.018C102.604 142.679 104.265 143.843 105.825 143.843H145.375C146.395 143.936 147.421 143.77 148.36 143.361C149.299 142.952 150.12 142.314 150.748 141.504C151.646 139.843 149.985 138.679 148.426 138.679H108.876C107.856 138.587 106.829 138.753 105.89 139.162C104.951 139.57 104.13 140.209 103.502 141.018Z" fill="#262626"/>
<path d="M233.164 138.64H171.014C169.992 138.54 168.961 138.704 168.02 139.117C167.08 139.529 166.26 140.176 165.641 140.996C164.794 142.691 166.376 143.86 167.986 143.86H230.136C231.158 143.96 232.189 143.795 233.13 143.383C234.07 142.97 234.89 142.324 235.509 141.504C236.356 139.837 234.774 138.64 233.164 138.64Z" fill="#262626"/>
<path d="M112.638 99.0444H231.288C235.955 99.0444 237.571 93.0554 232.012 93.0554H113.362C108.695 93.0554 107.079 99.0444 112.638 99.0444Z" fill="#262626"/>
<path d="M86.3376 97.6829H87.7332C88.7434 97.6743 89.7482 97.5337 90.722 97.2648C91.7156 97.0336 92.6681 96.6525 93.547 96.1348C93.8917 95.9031 94.677 95.4737 94.5132 94.9539C94.3493 94.4341 93.434 94.3889 93.0894 94.3889H81.7894C80.7791 94.3975 79.7744 94.5381 78.8005 94.807C77.807 95.0382 76.8544 95.4193 75.9755 95.937C75.6309 96.1687 74.8455 96.5981 75.0094 97.1179C75.1732 97.6377 76.0885 97.6829 76.4332 97.6829H86.3376Z" fill="#262626"/>
<path d="M81.36 210.672H82.0606C83.0711 210.661 84.0758 210.518 85.0495 210.248C86.0342 210.017 86.9776 209.636 87.8462 209.118L88.4112 208.7C88.5395 208.623 88.6442 208.512 88.7139 208.379C88.7836 208.247 88.8157 208.098 88.8067 207.948C88.592 207.457 87.8123 207.423 87.3829 207.423H81.7329C80.7224 207.434 79.7177 207.576 78.7441 207.847C77.7593 208.077 76.816 208.458 75.9473 208.977L75.3823 209.395C75.2536 209.471 75.1485 209.582 75.0787 209.715C75.0089 209.847 74.9771 209.997 74.9868 210.146C75.2015 210.638 75.9812 210.672 76.4106 210.672H81.36Z" fill="#262626"/>
<path d="M105.774 211.434H145.324C146.338 211.51 147.355 211.344 148.293 210.952C149.23 210.559 150.062 209.95 150.719 209.174C151.68 207.547 149.9 206.666 148.459 206.666H108.909C107.896 206.59 106.878 206.756 105.94 207.148C105.003 207.541 104.171 208.15 103.514 208.926C102.57 210.553 104.35 211.434 105.774 211.434Z" fill="#262626"/>
<path d="M174.235 207.31H172.133C170.093 207.233 168.077 207.773 166.347 208.858C165.974 209.129 165.257 209.587 165.409 210.146C165.562 210.705 166.466 210.79 166.867 210.79H183.817C185.857 210.867 187.873 210.327 189.603 209.242C189.976 208.971 190.693 208.513 190.541 207.954C190.388 207.394 189.484 207.31 189.083 207.31H174.235Z" fill="#262626"/>
<path d="M77.5972 121.311H100.197C101.22 121.409 102.251 121.243 103.192 120.827C104.132 120.412 104.949 119.761 105.565 118.938C106.463 117.271 104.791 115.989 103.203 115.989H80.603C79.5799 115.891 78.5487 116.057 77.6087 116.473C76.6686 116.888 75.8513 117.539 75.2355 118.362C74.3371 120.029 76.0095 121.311 77.5972 121.311Z" fill="#262626"/>
<path d="M128.724 116.452H125.899C124.892 116.4 123.885 116.569 122.949 116.945C122.014 117.322 121.171 117.898 120.481 118.633C119.385 120.204 121.419 120.848 122.645 120.848H145.245C146.258 120.902 147.271 120.733 148.212 120.353C149.153 119.973 149.999 119.392 150.691 118.65C151.787 117.079 149.753 116.435 148.527 116.435L128.724 116.452Z" fill="#262626"/>
<path d="M96.2704 75.2014H99.0671C101.108 75.2659 103.122 74.7274 104.858 73.6533C105.237 73.3934 105.943 72.9075 105.791 72.3538C105.638 71.8001 104.74 71.6984 104.333 71.6984H81.7329C79.6923 71.6339 77.6779 72.1724 75.9417 73.2465C75.5631 73.5064 74.8569 73.9923 75.0094 74.546C75.162 75.0997 76.0603 75.2014 76.4671 75.2014H96.2704Z" fill="#262626"/>
<path d="M122.701 75.7382H179.201C180.212 75.807 181.226 75.6425 182.163 75.2575C183.101 74.8725 183.937 74.2773 184.608 73.5178C185.552 71.9019 183.795 71.1617 182.399 71.1617H125.899C124.888 71.093 123.874 71.2575 122.937 71.6424C121.999 72.0274 121.163 72.6226 120.492 73.3822C119.548 74.9981 121.306 75.7382 122.701 75.7382Z" fill="#262626"/>
<path d="M167.975 121.226H190.575C191.595 121.315 192.621 121.147 193.561 120.739C194.5 120.331 195.322 119.694 195.953 118.887C196.886 117.232 195.151 116.062 193.626 116.062H171.026C170.005 115.974 168.979 116.141 168.039 116.55C167.1 116.958 166.278 117.595 165.647 118.401C164.715 120.068 166.449 121.226 167.975 121.226Z" fill="#262626"/>
<path fill-rule="evenodd" clip-rule="evenodd" d="M267.164 212.838V213.317C263.494 214.054 259.986 215.444 256.807 217.419L248.332 208.944L246.807 207.419C246.178 206.938 245.4 206.696 244.609 206.735C243.506 206.726 242.413 206.947 241.4 207.385C240.49 207.786 237.886 209.278 239.191 210.583L249.926 221.318L250.909 222.301C249.336 223.967 248.005 225.847 246.954 227.883C245.171 231.973 244.363 236.422 244.592 240.878C242.109 241.591 239.846 242.919 238.011 244.738C236.176 246.557 234.829 248.809 234.094 251.285H226.932C226.944 251.273 226.577 251.243 226.242 251.215L226.242 251.215L226.242 251.215L226.241 251.215C225.994 251.195 225.765 251.176 225.721 251.167C224.569 250.895 223.485 250.389 222.535 249.682C221.586 248.974 220.791 248.08 220.201 247.054C219.047 244.672 218.594 242.01 218.896 239.381V219.967C218.896 217.967 216.89 217.278 215.144 217.414C213.625 217.538 210.624 218.674 210.624 220.645V240.081C210.3 243.578 210.943 247.096 212.483 250.251C213.958 252.523 216.016 254.357 218.442 255.561C220.868 256.765 223.574 257.294 226.275 257.094H233.23V274.609H233.217V279.004H233.219V284.185C233.219 284.393 233.218 284.601 233.217 284.81V288.526H233.161C233.152 288.947 233.142 289.369 233.132 289.793C233.084 291.915 233.035 294.068 233.044 296.22H227.885C225.252 296.092 222.623 296.561 220.197 297.592C217.77 298.623 215.608 300.19 213.873 302.175C211.493 305.3 210.329 309.183 210.596 313.102V333.566C210.596 338.047 218.913 336.996 218.913 333.047V314.769C218.675 312.336 218.82 309.88 219.342 307.492C219.639 306.499 220.146 305.581 220.828 304.801C221.51 304.021 222.353 303.397 223.297 302.972C223.405 302.923 223.411 302.912 223.418 302.899L223.42 302.895L223.422 302.893L223.687 302.836C223.782 302.812 223.874 302.787 223.965 302.762C224.159 302.709 224.35 302.656 224.557 302.621C224.202 302.685 224.707 302.647 225.169 302.613L225.169 302.612C225.405 302.595 225.629 302.578 225.721 302.576H233.303C233.95 311.961 238.235 320.722 245.245 326.995C252.256 333.268 261.438 336.556 270.836 336.16C277.945 336.081 284.902 334.09 290.975 330.394C297.049 326.699 302.015 321.436 305.352 315.159C307.369 311.05 308.579 306.593 308.917 302.028H312.765C313.935 301.969 315.107 301.994 316.274 302.102C317.45 302.339 318.565 302.811 319.554 303.491C320.542 304.171 321.383 305.043 322.025 306.056C323.381 308.515 323.935 311.336 323.613 314.125V333.685C323.613 335.606 325.664 336.052 327.269 335.894C328.63 335.759 331.851 334.725 331.851 332.86V313.537C332.174 310.2 331.621 306.837 330.246 303.78C328.929 301.551 327.033 299.72 324.761 298.48C322.488 297.239 319.923 296.636 317.336 296.734H309.223C309.271 294.797 309.27 292.832 309.268 290.851C309.268 290.521 309.268 290.189 309.268 289.858V279.631H332.998C334.693 279.631 337.297 278.326 337.518 276.456C337.795 274.366 335.258 274.015 333.8 274.015H309.29V259.947V256.139C312.717 256.612 316.204 256.344 319.518 255.354C322.832 254.363 325.895 252.674 328.5 250.398C329.727 248.953 330.655 247.279 331.232 245.474C331.809 243.668 332.023 241.767 331.862 239.878V219.21C331.862 217.515 323.681 218.787 323.681 221.403V239.403C323.895 241.92 323.735 244.454 323.206 246.924C322.528 249.081 321.133 250.941 319.251 252.195L319.054 252.325H318.98C319.63 252.065 318.714 252.325 318.861 252.325H318.183H309.11C308.771 249.398 307.502 246.658 305.489 244.507C303.476 242.356 300.826 240.907 297.928 240.375C298.223 236.103 297.676 231.814 296.318 227.753C295.267 225.223 293.777 222.899 291.917 220.888L301.318 211.492L302.844 209.961C303.16 209.729 303.399 209.407 303.529 209.037C303.659 208.666 303.675 208.266 303.573 207.887C303.472 207.507 303.259 207.168 302.961 206.912C302.664 206.656 302.296 206.496 301.906 206.453C300.888 206.207 299.826 206.221 298.815 206.493C297.804 206.764 296.878 207.284 296.12 208.006L287.312 216.809C285.936 215.897 284.471 215.129 282.939 214.515C280.498 213.594 277.932 213.045 275.328 212.888C275.328 212.871 275.328 212.855 275.328 212.838H267.164ZM318.94 252.331H319.031C318.715 252.54 318.799 252.404 318.94 252.331ZM271.65 330.436C265.225 330.194 259.032 327.974 253.916 324.08C248.8 320.185 245.011 314.807 243.067 308.678C241.493 302.036 240.962 295.189 241.49 288.383V267.201H267.158V311.215C267.158 314.605 275.351 312.91 275.351 310.198V267.201H301.019V281.575C301.019 283.699 301.064 285.841 301.109 287.99C301.214 292.971 301.32 297.988 300.866 302.898C300.286 310.297 296.974 317.215 291.573 322.306C286.172 327.397 279.07 330.295 271.65 330.436ZM301.03 263.8H274.769C273.932 263.359 273 263.128 272.054 263.128C271.108 263.128 270.176 263.359 269.339 263.8H241.49V262.303C241.49 261.569 241.467 260.769 241.443 259.93V259.93V259.93C241.274 254.045 241.051 246.251 248.315 245.777C257.743 245.158 267.316 245.365 276.846 245.571H276.847H276.847H276.847C281.596 245.674 286.336 245.777 291.041 245.777C298.188 245.777 301.019 251.042 301.019 257.58L301.03 263.8ZM288.38 230.527C289.369 233.5 289.835 236.622 289.758 239.754C287.151 239.73 284.522 239.813 281.919 239.895C279.671 239.966 277.442 240.036 275.266 240.036C272.767 240.036 270.266 240.027 267.765 240.017H267.764H267.762H267.761H267.76H267.76H267.76C262.754 239.999 257.747 239.98 252.745 240.036C252.562 236.84 252.836 233.635 253.559 230.516C254.446 227.431 256.01 224.582 258.135 222.177C258.629 221.866 259.035 221.434 259.316 220.922C260.522 219.722 261.901 218.709 263.407 217.916C264.841 217.224 266.387 216.79 267.972 216.634C269.108 216.965 270.316 216.965 271.452 216.634C275.227 217.303 278.766 218.933 281.729 221.366C284.692 223.799 286.978 226.954 288.368 230.527H288.38Z" fill="#9A1F1F"/>
<path fill-rule="evenodd" clip-rule="evenodd" d="M275.59 23.429C275.409 9.36611 264.72 3.77261 252.244 3.77261H36.5782C35.5486 3.77261 34.5057 3.76238 33.455 3.75208C23.1883 3.6514 12.1749 3.5434 5.42979 12.8974C1.16279 18.808 1.46641 27.3712 1.73511 34.9494C1.79801 36.7233 1.85899 38.4433 1.85899 40.0626V257.864C1.61784 260.705 1.99107 263.565 2.9533 266.249C3.91553 268.933 5.44423 271.378 7.43551 273.419C9.42679 275.459 11.834 277.047 14.4936 278.075C17.1531 279.103 20.0027 279.546 22.8487 279.374C68.7304 279.988 114.642 279.783 160.547 279.579H160.553C183.504 279.476 206.453 279.374 229.396 279.374H230.797V274.979L60.8902 275.001V53.826H267.409V211.075H275.575C275.589 191.31 275.678 171.537 275.767 151.762C275.959 108.985 276.152 66.1941 275.59 23.429ZM24.442 8.17396H235.752C237.312 8.17396 238.988 8.10636 240.728 8.03625C248.983 7.70347 258.648 7.31389 263.861 13.824C268.492 19.6025 268.001 29.7597 267.6 38.0414V38.0423C267.496 40.1979 267.398 42.2264 267.398 44.0176V48.5376H10.0402V27.4009C10.0402 17.6547 12.9047 8.17396 24.442 8.17396ZM13.029 268.701C9.13312 263.269 9.53531 254.38 9.86977 246.988C9.9573 245.054 10.0402 243.222 10.0402 241.581V53.826H52.709V274.973H42.7085C41.0665 274.973 39.2889 275.048 37.4392 275.126C28.6534 275.499 18.2425 275.94 13.029 268.701Z" fill="#8E8E8E"/>
</svg>
