<svg width="174" height="63" xmlns="http://www.w3.org/2000/svg" xmlns:xlink="http://www.w3.org/1999/xlink" xml:space="preserve" overflow="hidden"><defs><clipPath id="clip0"><rect x="655" y="625" width="174" height="63"/></clipPath></defs><g clip-path="url(#clip0)" transform="translate(-655 -625)"><path d="M25.0478 1.74728 25.0478 26.5732C25.0478 26.7916 24.9022 27.01 24.6838 27.0828 24.611 27.0828 24.611 27.0828 24.5382 27.0828L21.3348 27.0828C21.1164 27.0828 20.898 26.9372 20.898 26.646 20.898 26.646 20.898 26.5732 20.898 26.5732L20.898 12.5222C20.898 10.5565 21.0436 7.42594 21.1892 5.46025L21.0436 5.46025 15.2921 26.5004C15.2193 26.8644 14.9281 27.1556 14.4913 27.1556L11.4335 27.1556C11.0695 27.1556 10.7055 26.9372 10.6327 26.5004L4.95406 5.53305 4.80845 5.53305C4.95406 7.42594 5.09966 10.5565 5.09966 12.595L5.09966 26.646C5.09966 26.8644 4.95406 27.0828 4.73565 27.1556 4.73565 27.1556 4.66284 27.1556 4.66284 27.1556L1.4595 27.1556C1.24109 27.1556 1.02268 26.9372 1.02268 26.7188 1.02268 26.7188 1.02268 26.7188 1.02268 26.646L1.02268 1.74728C1.02268 1.45607 1.24109 1.16485 1.5323 1.09205 1.6051 1.09205 1.6051 1.09205 1.67791 1.09205L6.84694 1.09205C7.21096 1.01925 7.64777 1.31046 7.64777 1.74728 7.64777 1.74728 7.64777 1.74728 7.64777 1.74728L11.2151 14.5607C12.016 17.5456 12.5984 19.5841 13.0352 22.205L13.108 22.205C13.5448 19.5841 14.1273 17.036 14.8553 14.5607L18.3499 1.82008C18.3499 1.38326 18.7139 1.09205 19.1507 1.16485 19.1507 1.16485 19.1507 1.16485 19.1507 1.16485L24.2469 1.16485C24.611 1.09205 24.9022 1.38326 24.975 1.74728 25.0478 1.67448 25.0478 1.74728 25.0478 1.74728Z" fill="#002A41" transform="matrix(1 0 0 1.00621 654.997 625)"/><path d="M44.3407 13.5414 44.3407 26.5732C44.3407 26.7916 44.1951 27.0828 43.9038 27.0828 43.9038 27.0828 43.831 27.0828 43.831 27.0828L40.7005 27.0828C40.4821 27.0828 40.1909 26.9372 40.1909 26.646 40.1909 26.646 40.1909 26.5732 40.1909 26.5732L40.1909 24.2435C39.026 26.2092 36.9147 27.4469 34.585 27.4469 30.872 27.4469 28.5423 25.0444 28.5423 21.5498 28.5423 18.0552 30.872 15.9439 35.9683 15.5799 37.3515 15.5071 38.662 15.4343 40.0453 15.5071L40.0453 13.687C40.0453 11.5029 38.8076 10.6293 36.7691 10.6293 34.7306 10.6293 34.0026 11.3573 33.493 12.7406 33.3474 13.1046 33.2017 13.1774 32.8377 13.1046L29.7072 12.3766C29.416 12.3038 29.2704 12.0854 29.416 11.7941 29.9984 9.02761 32.4737 7.13473 36.9147 7.13473 41.5013 7.13473 44.3407 9.24603 44.3407 13.5414ZM40.0453 20.8218 40.0453 18.4192C38.8076 18.3464 37.6428 18.4192 36.4051 18.4921 34.0754 18.7105 32.7649 19.5113 32.7649 21.4042 32.7649 23.0059 33.857 24.0251 35.7499 24.0251 37.7156 23.9523 39.4628 22.7146 40.0453 20.8218Z" fill="#002A41" transform="matrix(1 0 0 1.00621 654.997 625)"/><path d="M52.6402 14.5607 52.6402 26.646C52.6402 26.8644 52.4946 27.1556 52.2034 27.1556 52.2034 27.1556 52.1306 27.1556 52.1306 27.1556L48.7817 27.1556C48.5633 27.2285 48.272 27.01 48.272 26.7916 48.272 26.7188 48.272 26.7188 48.272 26.646L48.272 7.93556C48.272 7.71715 48.4176 7.49874 48.7089 7.49874 48.7089 7.49874 48.7817 7.49874 48.7817 7.49874L52.1306 7.49874C52.349 7.49874 52.5674 7.64435 52.6402 7.86276 52.6402 7.86276 52.6402 7.93556 52.6402 7.93556L52.6402 10.3381C53.9507 8.37239 56.1348 7.13473 58.5373 7.13473 62.2503 7.13473 64.2888 9.82845 64.2888 13.8326L64.2888 26.646C64.3616 26.8644 64.1432 27.0828 63.9248 27.1556 63.852 27.1556 63.852 27.1556 63.7792 27.1556L60.3574 27.1556C60.139 27.2285 59.8478 27.01 59.8478 26.7916 59.8478 26.7188 59.8478 26.7188 59.8478 26.646L59.8478 14.5607C59.8478 12.4494 58.8285 11.1389 56.8628 11.1389 54.8971 11.1389 53.3683 12.5222 52.6402 14.5607Z" fill="#002A41" transform="matrix(1 0 0 1.00621 654.997 625)"/><path d="M74.0446 3.13054 74.0446 7.64435 77.976 7.64435C78.2672 7.64435 78.4128 7.78996 78.4128 8.15397L78.4128 10.7021C78.4128 11.0661 78.2672 11.2117 77.976 11.2117L74.0446 11.2117 74.0446 21.113C74.0446 22.569 74.8455 23.2243 76.4472 23.2243L77.9032 23.2243C78.1216 23.2243 78.34 23.3699 78.4128 23.5883 78.4128 23.6611 78.4128 23.6611 78.4128 23.7339L78.4128 26.646C78.4856 26.8644 78.2672 27.0828 78.0488 27.1556 77.976 27.1556 77.976 27.1556 77.9032 27.1556L75.7191 27.1556C71.7147 27.1556 69.749 25.0444 69.749 21.7682L69.749 11.2117 67.3465 11.2117C67.1281 11.2845 66.9097 11.0661 66.8369 10.8477 66.8369 10.7749 66.8369 10.7749 66.8369 10.7021L66.8369 8.15397C66.7641 7.93556 66.9825 7.64435 67.2009 7.64435 67.2737 7.64435 67.2737 7.64435 67.3465 7.64435L69.8218 7.64435 69.8218 3.13054C69.8218 2.83933 69.9674 2.62092 70.2587 2.62092 70.2587 2.62092 70.3315 2.62092 70.3315 2.62092L73.6078 2.62092C73.8262 2.62092 74.1174 2.76653 74.1174 3.05774 74.0446 3.13054 74.0446 3.13054 74.0446 3.13054Z" fill="#002A41" transform="matrix(1 0 0 1.00621 654.997 625)"/><path d="M85.0379 18.6377 85.0379 19.8025C85.0379 22.3506 86.3484 23.8795 89.1877 23.9523 91.8087 23.9523 92.6095 22.9331 93.3375 21.6226 93.6287 21.1858 93.7743 21.113 94.284 21.3314L96.5409 22.4962C97.0505 22.7146 97.0505 23.0059 96.8321 23.4427 95.6672 26.0636 92.9007 27.5925 89.1877 27.5925 83.7275 27.5925 80.8154 24.3891 80.8154 19.8025L80.8154 14.9975C80.8154 10.5565 83.5819 7.20753 89.0421 7.20753 94.284 7.20753 96.9777 10.5565 96.9777 14.9247L96.9777 17.9096C96.9777 18.4921 96.7593 18.7833 96.1041 18.7833L85.0379 18.6377ZM85.0379 14.7063 85.0379 15.7255 92.9007 15.7255 92.9007 14.7063C92.9007 12.3038 91.5174 10.7021 88.9693 10.7021 86.4212 10.7021 85.0379 12.3038 85.0379 14.7063Z" fill="#002A41" transform="matrix(1 0 0 1.00621 654.997 625)"/><path d="M104.84 0.509623 104.84 26.646C104.84 26.8644 104.695 27.0828 104.476 27.1556 104.476 27.1556 104.404 27.1556 104.404 27.1556L101.055 27.1556C100.836 27.2285 100.545 27.01 100.545 26.7916 100.545 26.7188 100.545 26.7188 100.545 26.646L100.545 0.509623C100.545 0.21841 100.691 0 101.055 0L104.404 0C104.622 0 104.84 0.145607 104.913 0.364017 104.84 0.43682 104.84 0.43682 104.84 0.509623Z" fill="#002A41" transform="matrix(1 0 0 1.00621 654.997 625)"/><path d="M15.4377 37.1297 11.5064 37.1297C12.8896 38.0033 13.9817 39.8234 13.9817 42.5172 13.9817 46.5213 11.5064 48.9238 7.35656 48.9238L5.09966 48.9238C3.49799 48.9238 2.76996 49.7247 2.76996 50.5983 2.76996 51.472 3.49799 52.2728 5.09966 52.2728L9.54066 52.2728C14.0545 52.2728 15.7289 54.6025 15.7289 57.1506 15.7289 60.1356 13.472 62.6109 7.79338 62.6109 2.26033 62.6109 0.00342837 60.354 0.00342837 57.369-0.069375 55.4762 1.02268 53.7289 2.76996 52.928 1.96912 52.4184 1.4595 51.5448 1.4595 50.5983 1.5323 49.3607 2.33314 48.3414 3.49799 48.0502 1.6051 46.9582 0.585855 44.9925 0.585855 42.3715 0.585855 38.2946 3.06117 35.8192 7.28376 35.8192L15.4377 35.8192C15.6561 35.8192 15.7289 35.8921 15.7289 36.1833L15.7289 36.6929C15.7289 37.0569 15.6561 37.1297 15.4377 37.1297ZM5.9733 53.6561C2.40594 53.6561 1.38669 55.4033 1.38669 57.2234 1.38669 59.7715 3.35238 61.3732 7.79338 61.3732 12.38 61.3732 14.4185 59.6987 14.4185 57.1506 14.4185 55.4033 13.3992 53.6561 9.61346 53.6561L5.9733 53.6561 5.9733 53.6561ZM7.28376 37.1297C3.93481 37.1297 1.96912 38.9498 1.96912 42.2987 1.96912 45.6477 3.86201 47.6134 7.42936 47.6134 10.5599 47.6134 12.6712 46.0845 12.6712 42.5172 12.5984 39.241 10.8511 37.1297 7.28376 37.1297Z" fill="#002A41" transform="matrix(1 0 0 1.00621 654.997 625)"/><path d="M27.6687 35.8921 27.6687 36.6201C27.6687 36.8385 27.5959 36.9113 27.3047 36.9113L27.0135 36.9113C24.1013 36.9113 22.2084 38.8042 21.1164 41.2067L21.1164 54.8937C21.1164 55.1849 20.9708 55.1849 20.7524 55.1849L20.17 55.1849C19.9515 55.1849 19.8059 55.1849 19.8059 54.8937L19.8059 36.1105C19.8059 35.8192 19.9515 35.8192 20.17 35.8192L20.8252 35.8192C20.9708 35.8192 21.1892 35.8192 21.1892 36.1105L21.1892 39.3138C22.354 36.9841 24.8294 35.528 27.4503 35.528 27.5231 35.528 27.6687 35.6008 27.6687 35.8921Z" fill="#002A41" transform="matrix(1 0 0 1.00621 654.997 625)"/><path d="M44.5591 42.59 44.5591 48.4142C44.5591 52.7824 41.9381 55.549 37.3515 55.549 32.7649 55.549 30.144 52.7824 30.144 48.4142L30.144 42.59C30.144 38.2218 32.7649 35.4552 37.3515 35.4552 41.9381 35.4552 44.5591 38.2218 44.5591 42.59ZM31.4545 42.6628 31.4545 48.3414C31.4545 52.3456 33.7114 54.2385 37.2787 54.2385 40.8461 54.2385 43.1758 52.3456 43.1758 48.3414L43.1758 42.6628C43.1758 38.6586 40.9189 36.7657 37.2787 36.7657 33.6386 36.7657 31.5273 38.6586 31.4545 42.6628L31.4545 42.6628Z" fill="#002A41" transform="matrix(1 0 0 1.00621 654.997 625)"/><path d="M49.2913 49.5063 49.2913 36.1105C49.2913 35.8921 49.3641 35.8192 49.6553 35.8192L50.2377 35.8192C50.5289 35.8192 50.6017 35.9649 50.6017 36.1105L50.6017 49.2879C50.6017 52.4184 51.985 54.2385 55.1156 54.2385 57.6637 54.2385 60.0662 52.4912 61.231 49.8703L61.231 36.1105C61.231 35.8921 61.3038 35.8192 61.5951 35.8192L62.1775 35.8192C62.4687 35.8192 62.5415 35.9649 62.5415 36.1105L62.5415 54.8209C62.5415 55.0393 62.4687 55.1121 62.1775 55.1121L61.5951 55.1121C61.3038 55.1121 61.231 55.0393 61.231 54.8209L61.231 51.9816C59.8478 54.1657 57.5181 55.4762 54.9699 55.4762 51.1842 55.549 49.2913 53.0008 49.2913 49.5063Z" fill="#002A41" transform="matrix(1 0 0 1.00621 654.997 625)"/><path d="M68.0746 62.3197C67.9289 62.3197 67.7833 62.2469 67.7833 62.1013 67.7833 62.1013 67.7833 62.1013 67.7833 62.0285L67.7833 36.1105C67.7833 35.8192 67.9289 35.8192 68.1474 35.8192L68.8026 35.8192C68.9482 35.8192 69.1666 35.8192 69.1666 36.1105L69.1666 38.7314C70.4043 36.6201 72.734 35.3824 75.1367 35.4552 79.3593 35.4552 81.9802 38.2218 81.9802 42.59L81.9802 48.4142C81.9802 52.7824 79.3593 55.549 75.1367 55.549 72.6612 55.6946 70.4043 54.3841 69.1666 52.2728L69.1666 61.9556C69.1666 62.1741 69.0938 62.2469 68.8754 62.2469L68.0746 62.2469 68.0746 62.3197ZM80.5969 48.3414 80.5969 42.6628C80.5969 38.6586 78.34 36.7657 75.0639 36.7657 71.9331 36.6201 69.3122 39.0954 69.1666 42.2259 69.1666 42.3715 69.1666 42.59 69.1666 42.7356L69.1666 48.3414C69.021 51.472 71.4235 54.1657 74.5543 54.3113 74.6999 54.3113 74.8455 54.3113 74.9911 54.3113 78.34 54.1657 80.5969 52.2728 80.5969 48.3414Z" fill="#002A41" transform="matrix(1 0 0 1.00621 654.997 625)"/><path d="M150.998 11.5029C149.615 9.17322 146.557 8.44519 144.3 9.82845 143.645 10.2653 143.062 10.7749 142.625 11.5029L128.21 34.5816 126.317 37.5665C117.872 50.9623 113.941 57.1506 110.956 59.99L165.122 59.99C169.854 59.99 173.64 56.1314 173.64 51.3992 173.64 49.8703 173.203 48.3414 172.402 47.031L150.998 11.5029Z" fill="#002A41" transform="matrix(1 0 0 1.00621 654.997 625)"/><path d="M99.5258 57.005C100.545 58.8251 102.511 59.99 104.622 59.99 109.427 59.99 110.592 58.2427 124.352 36.3289L125.881 33.9992C122.823 29.0485 120.639 25.4084 120.639 25.4084 119.692 23.8795 117.727 23.3699 116.198 24.3163 115.761 24.6075 115.397 24.9715 115.106 25.4084L99.5986 51.1808C98.5066 52.928 98.5066 55.1849 99.5258 57.005Z" fill="#002A41" transform="matrix(1 0 0 1.00621 654.997 625)"/></g></svg>