<svg width="171" height="41" xmlns="http://www.w3.org/2000/svg" xmlns:xlink="http://www.w3.org/1999/xlink" xml:space="preserve" overflow="hidden"><g transform="translate(-35 -350)"><path d="M98.4 7.19825 92.5036 18.7691 86.6072 7.19825 80.267 7.19825 80.267 33.4361 86.7129 33.4361 86.7129 20.872 90.4325 27.3601 94.5642 27.3601 98.2838 20.872 98.2838 33.4361 104.73 33.4361 104.73 7.19825 98.4 7.19825ZM109.094 33.4361 115.54 33.4361 115.54 7.19825 109.094 7.19825 109.094 33.4361ZM133.937 7.19825 133.937 20.3964 125.536 7.19825 119.893 7.19825 119.893 33.4361 126.339 33.4361 126.339 20.2485 134.74 33.4467 140.383 33.4467 140.383 7.19825 133.937 7.19825ZM144.736 7.19825 144.736 33.4361 162.573 33.4361 162.573 27.6877 151.182 27.6877 151.182 23.0805 160.914 23.0805 160.914 17.332 151.182 17.332 151.182 12.9467 162.573 12.9467 162.573 7.19825 144.736 7.19825Z" fill="#F79D1F" transform="matrix(1.00387 0 0 1 35 350)"/><path d="M23.4059 7.19825 17.5095 18.7691 11.6131 7.19825 5.27294 7.19825 5.27294 33.4361 11.7188 33.4361 11.7188 20.872 15.4384 27.3601 19.5701 27.3601 23.2897 20.872 23.2897 33.4361 29.7356 33.4361 29.7356 7.19825 23.4059 7.19825ZM43.1134 17.1524 45.3219 24.1583 40.757 24.1583 43.1134 17.1524ZM40.4611 7.19825 30.9191 33.4361 37.6608 33.4361 38.95 29.5263 47.0232 29.5263 48.2384 33.4361 54.9802 33.4361 45.4381 7.19825 40.4611 7.19825ZM70.5031 7.19825 66.6673 14.6057 62.8314 7.19825 55.4979 7.19825 63.159 19.9843 54.9802 33.4361 62.3559 33.4361 66.6673 25.3629 70.9786 33.4361 78.3544 33.4361 70.1649 19.9843 77.826 7.19825 70.5031 7.19825Z" fill="#003768" transform="matrix(1.00387 0 0 1 35 350)"/><path d="M60.2003 20.0689 55.4768 12.207 55.4768 27.8568 60.2003 20.0689Z" fill="#F79D1F" transform="matrix(1.00387 0 0 1 35 350)"/></g></svg>