<svg width="387" height="387" viewBox="0 0 387 387" fill="none" xmlns="http://www.w3.org/2000/svg">
<path d="M203.02 337.483C202.328 337.485 201.655 337.264 201.098 336.853C200.541 336.442 200.132 335.864 199.929 335.202C199.727 334.541 199.742 333.832 199.974 333.18C200.205 332.528 200.64 331.967 201.214 331.582L275.144 281.742L180.265 336.522C179.532 336.945 178.664 337.062 177.845 336.851C177.027 336.639 176.325 336.114 175.889 335.39C175.454 334.665 175.32 333.799 175.518 332.977C175.715 332.155 176.226 331.443 176.943 330.995L209.593 310.574L168.042 334.562C167.311 334.964 166.452 335.068 165.646 334.85C164.84 334.633 164.15 334.111 163.72 333.395C163.291 332.68 163.156 331.825 163.344 331.012C163.531 330.198 164.027 329.489 164.727 329.034L202.278 305.73L157.561 331.53C156.831 331.925 155.976 332.024 155.176 331.806C154.375 331.587 153.689 331.068 153.261 330.357C152.833 329.646 152.696 328.797 152.878 327.987C153.06 327.177 153.548 326.468 154.239 326.009L220.609 284.535L146.028 327.602C145.299 328.009 144.441 328.118 143.633 327.906C142.826 327.693 142.132 327.175 141.699 326.462C141.265 325.748 141.125 324.894 141.308 324.08C141.491 323.265 141.983 322.553 142.68 322.094L244.455 257.355L133.076 321.636C132.344 322.048 131.479 322.159 130.666 321.943C129.853 321.727 129.157 321.203 128.726 320.481C128.294 319.759 128.161 318.897 128.356 318.079C128.551 317.261 129.057 316.552 129.768 316.102L173.873 288.96L124.795 317.288C124.064 317.698 123.203 317.807 122.393 317.593C121.583 317.378 120.889 316.857 120.456 316.14C120.024 315.423 119.887 314.565 120.076 313.749C120.265 312.933 120.763 312.222 121.466 311.767L211.154 255.497L114.81 311.09C114.079 311.493 113.22 311.596 112.414 311.379C111.608 311.161 110.918 310.64 110.489 309.924C110.059 309.208 109.924 308.354 110.112 307.54C110.299 306.727 110.795 306.018 111.495 305.562L183.38 260.935L106.219 305.485C105.487 305.888 104.629 305.991 103.823 305.774C103.017 305.556 102.326 305.035 101.897 304.319C101.468 303.603 101.333 302.748 101.52 301.935C101.708 301.122 102.204 300.413 102.903 299.957L173.589 256.142L98.4399 299.525C97.7052 299.944 96.8354 300.057 96.0179 299.841C95.2004 299.624 94.5007 299.096 94.0693 298.368C93.638 297.641 93.5096 296.773 93.7118 295.952C93.914 295.131 94.4307 294.422 95.1504 293.978L99.072 291.598L92.8091 295.217C92.0761 295.658 91.1978 295.79 90.3674 295.584C89.537 295.377 88.8225 294.85 88.3812 294.117C87.9398 293.384 87.8077 292.506 88.014 291.675C88.2202 290.845 88.7479 290.13 89.4809 289.689L185.515 229.543L84.2499 287.993C83.5219 288.372 82.6764 288.46 81.8859 288.238C81.0954 288.016 80.4194 287.501 79.9957 286.797C79.572 286.094 79.4326 285.255 79.6059 284.453C79.7791 283.65 80.2521 282.944 80.9282 282.478L184.702 217.262L75.6456 280.22C74.9125 280.626 74.0505 280.73 73.242 280.511C72.4334 280.292 71.7418 279.767 71.3136 279.047C70.8853 278.327 70.754 277.468 70.9473 276.653C71.1407 275.838 71.6437 275.131 72.3497 274.68L96.5694 259.909L70.2276 275.112C69.4983 275.513 68.642 275.617 67.8381 275.401C67.0341 275.185 66.3446 274.667 65.9139 273.955C65.4832 273.242 65.3446 272.391 65.5271 271.579C65.7095 270.767 66.199 270.057 66.893 269.597L172.131 203.433L62.2167 266.888C61.485 267.285 60.6283 267.383 59.8256 267.163C59.023 266.943 58.3366 266.42 57.9101 265.706C57.4835 264.991 57.3499 264.139 57.5371 263.328C57.7242 262.517 58.2177 261.81 58.9143 261.354L106.283 232.284L56.502 261.019C55.7699 261.461 54.892 261.594 54.0616 261.389C53.2313 261.184 52.5163 260.658 52.0741 259.925C51.6319 259.193 51.4987 258.315 51.7037 257.485C51.9087 256.655 52.4352 255.94 53.1674 255.497L158.457 189.262L49.02 252.459C48.2878 252.882 47.4191 253 46.6008 252.788C45.7826 252.576 45.0802 252.051 44.6448 251.327C44.2094 250.602 44.0759 249.736 44.2729 248.914C44.4699 248.092 44.9818 247.38 45.6983 246.932L138.14 189.14L42.125 244.558C41.3975 244.943 40.5506 245.034 39.7576 244.815C38.9647 244.595 38.2857 244.081 37.8596 243.377C37.4335 242.673 37.2925 241.833 37.4655 241.029C37.6386 240.224 38.1125 239.516 38.7903 239.05L152.652 166.81L34.5269 235.025C33.7975 235.426 32.9413 235.53 32.1373 235.314C31.3333 235.098 30.6439 234.58 30.2132 233.868C29.7825 233.156 29.6438 232.304 29.8263 231.492C30.0088 230.68 30.4982 229.97 31.1922 229.51L135.682 163.533L27.548 225.956C26.8173 226.366 25.9559 226.475 25.1462 226.261C24.3365 226.046 23.642 225.525 23.2096 224.808C22.7772 224.091 22.6408 223.233 22.8293 222.417C23.0179 221.601 23.5165 220.89 24.2198 220.435L110.237 166.591L21.5301 217.81C21.1676 218.029 20.7654 218.175 20.3465 218.239C19.9277 218.303 19.5003 218.284 19.0888 218.183C18.6773 218.082 18.2898 217.9 17.9484 217.649C17.607 217.398 17.3184 217.083 17.099 216.72C16.8796 216.358 16.7338 215.955 16.6698 215.536C16.6059 215.118 16.6251 214.69 16.7263 214.279C16.8275 213.867 17.0088 213.48 17.2598 213.138C17.5107 212.797 17.8265 212.508 18.189 212.289L117.242 149.64L15.1382 208.593C14.7761 208.813 14.3742 208.959 13.9556 209.024C13.5369 209.088 13.1097 209.07 12.6982 208.969C11.8672 208.766 11.1509 208.241 10.707 207.509C10.2631 206.778 10.1279 205.9 10.3311 205.069C10.5343 204.238 11.0593 203.522 11.7906 203.078L114.223 137.798L8.92684 198.589C8.19973 198.995 7.34364 199.105 6.53784 198.894C5.73203 198.683 5.039 198.169 4.60388 197.459C4.16875 196.748 4.02527 195.897 4.20348 195.084C4.38169 194.27 4.86777 193.557 5.55994 193.094L112.23 124.298L19.35 177.904C18.6229 178.31 17.7668 178.419 16.961 178.209C16.1552 177.998 15.4622 177.484 15.0271 176.773C14.592 176.063 14.4485 175.212 14.6267 174.399C14.8049 173.585 15.291 172.872 15.9831 172.409L101.349 116.939L37.5648 153.742C36.8428 154.148 35.9921 154.261 35.1893 154.057C34.3864 153.853 33.6929 153.347 33.2525 152.646C32.8121 151.944 32.6586 151.1 32.8238 150.288C32.989 149.476 33.4603 148.759 34.1399 148.286L105.503 99.7493L64.3259 123.524C63.6102 123.935 62.7642 124.055 61.9621 123.861C61.1601 123.667 60.4629 123.173 60.0142 122.481C59.5654 121.788 59.3992 120.95 59.5498 120.138C59.7003 119.327 60.1562 118.604 60.8235 118.119L99.8396 89.9324C99.2927 89.6941 98.8226 89.3089 98.4816 88.8195C98.1406 88.33 97.942 87.7556 97.9079 87.1601C97.8738 86.5645 98.0056 85.9712 98.2885 85.446C98.5715 84.9209 98.9945 84.4845 99.5106 84.1854L141.029 60.2108C141.745 59.8 142.591 59.6793 143.393 59.8734C144.195 60.0674 144.892 60.5616 145.341 61.2542C145.79 61.9467 145.956 62.7849 145.805 63.5963C145.655 64.4077 145.199 65.1304 144.532 65.6159L115.855 86.3333L178.136 50.3745C178.857 49.9831 179.699 49.8808 180.492 50.0885C181.286 50.2962 181.97 50.7982 182.406 51.4924C182.843 52.1867 182.998 53.0211 182.841 53.8258C182.684 54.6306 182.226 55.3454 181.561 55.8248L110.205 104.361L203.994 50.181C204.721 49.7748 205.577 49.6656 206.383 49.8763C207.189 50.087 207.882 50.6014 208.317 51.3116C208.752 52.0218 208.896 52.8728 208.718 53.6864C208.539 54.5 208.053 55.2131 207.361 55.6764L121.989 111.146L222.164 53.3544C222.893 52.9079 223.77 52.7696 224.602 52.9698C225.434 53.17 226.152 53.6923 226.598 54.4219C227.045 55.1515 227.183 56.0286 226.983 56.8602C226.783 57.6918 226.26 58.4098 225.531 58.8563L118.861 127.671L238.831 58.4112C239.56 58.0038 240.418 57.895 241.225 58.1076C242.033 58.3203 242.726 58.8378 243.16 59.5514C243.594 60.265 243.734 61.1189 243.551 61.9336C243.368 62.7483 242.876 63.4602 242.178 63.9195L139.765 129.168L251.905 64.4291C252.637 63.9869 253.515 63.8536 254.345 64.0587C255.176 64.2637 255.891 64.7902 256.333 65.5223C256.775 66.2545 256.908 67.1323 256.703 67.9627C256.498 68.7931 255.972 69.5081 255.239 69.9503L156.213 132.606L263.605 70.5953C264.338 70.1539 265.216 70.0218 266.047 70.2281C266.877 70.4343 267.592 70.962 268.033 71.695C268.474 72.428 268.606 73.3063 268.4 74.1367C268.194 74.9671 267.666 75.6816 266.933 76.1229L180.839 130.006L273.319 76.6196C274.048 76.2185 274.904 76.1149 275.708 76.3306C276.512 76.5463 277.202 77.0644 277.633 77.7767C278.063 78.489 278.202 79.3403 278.019 80.1524C277.837 80.9646 277.347 81.6747 276.653 82.1343L172.163 148.137L283.71 83.7339C284.44 83.3166 285.304 83.2011 286.119 83.412C286.933 83.6229 287.632 84.1435 288.068 84.8628C288.504 85.5822 288.642 86.4434 288.452 87.2627C288.261 88.082 287.759 88.7946 287.051 89.2487L173.202 161.437L294.043 91.6739C294.773 91.2785 295.627 91.1798 296.428 91.3983C297.228 91.6168 297.914 92.1357 298.342 92.847C298.77 93.5583 298.907 94.4072 298.725 95.2171C298.543 96.027 298.056 96.7355 297.364 97.1951L204.929 154.981L302.402 98.685C303.131 98.2956 303.981 98.2007 304.777 98.4198C305.574 98.639 306.256 99.1556 306.683 99.8629C307.11 100.57 307.249 101.415 307.072 102.221C306.894 103.028 306.414 103.737 305.73 104.2L200.408 170.486L311.122 106.567C311.857 106.129 312.736 106.001 313.565 106.211C314.394 106.421 315.106 106.951 315.544 107.686C315.982 108.421 316.11 109.299 315.9 110.129C315.69 110.958 315.159 111.67 314.425 112.107L267.03 141.203L317.159 112.262C317.892 111.82 318.769 111.687 319.6 111.892C320.43 112.097 321.145 112.623 321.587 113.356C322.03 114.088 322.163 114.966 321.958 115.796C321.753 116.626 321.226 117.341 320.494 117.783L215.237 183.948L325.157 120.492C325.891 120.087 326.753 119.983 327.561 120.202C328.37 120.421 329.061 120.946 329.49 121.666C329.918 122.386 330.049 123.244 329.856 124.059C329.662 124.874 329.159 125.582 328.453 126.033L304.505 140.642L330.305 125.756C331.035 125.346 331.897 125.237 332.706 125.452C333.516 125.666 334.211 126.187 334.643 126.904C335.075 127.622 335.212 128.479 335.023 129.295C334.835 130.111 334.336 130.822 333.633 131.277L229.794 196.532L337.722 134.225C338.453 133.815 339.314 133.706 340.124 133.92C340.933 134.135 341.628 134.656 342.06 135.373C342.493 136.09 342.629 136.948 342.441 137.764C342.252 138.58 341.753 139.291 341.05 139.746L245.042 199.873L344.759 142.306C345.494 141.888 346.363 141.774 347.181 141.991C347.998 142.207 348.698 142.736 349.13 143.463C349.561 144.191 349.689 145.058 349.487 145.88C349.285 146.701 348.768 147.41 348.048 147.853L344.178 150.182L348.868 147.479C349.6 147.067 350.465 146.956 351.278 147.172C352.091 147.388 352.787 147.912 353.219 148.634C353.65 149.356 353.783 150.218 353.588 151.036C353.393 151.854 352.887 152.563 352.177 153.013L281.426 196.873L354.582 154.645C355.313 154.255 356.165 154.161 356.963 154.382C357.761 154.603 358.444 155.123 358.869 155.834C359.294 156.544 359.43 157.391 359.248 158.199C359.066 159.007 358.58 159.713 357.891 160.173L286.025 204.807L360.2 161.998C360.933 161.576 361.801 161.458 362.62 161.67C363.438 161.882 364.14 162.406 364.576 163.131C365.011 163.855 365.144 164.722 364.947 165.544C364.75 166.366 364.239 167.078 363.522 167.526L273.757 223.815L366.315 170.383C367.048 169.971 367.912 169.86 368.725 170.076C369.538 170.292 370.234 170.816 370.666 171.538C371.097 172.26 371.23 173.122 371.035 173.94C370.841 174.758 370.334 175.467 369.624 175.917L325.551 203.065L370.83 176.93C371.559 176.523 372.417 176.414 373.225 176.626C374.032 176.839 374.726 177.357 375.159 178.07C375.593 178.784 375.733 179.638 375.55 180.452C375.367 181.267 374.875 181.979 374.177 182.438L272.384 247.203L377.286 186.65C378.016 186.255 378.87 186.156 379.671 186.375C380.472 186.593 381.158 187.112 381.586 187.823C382.014 188.535 382.151 189.383 381.969 190.193C381.787 191.003 381.299 191.712 380.608 192.171L314.309 233.6L374.706 198.77C375.437 198.38 376.289 198.285 377.087 198.507C377.885 198.728 378.568 199.247 378.993 199.958C379.418 200.668 379.554 201.515 379.372 202.323C379.19 203.131 378.704 203.838 378.015 204.297L340.45 227.608L364.315 213.837C365.048 213.396 365.927 213.263 366.757 213.47C367.168 213.572 367.555 213.754 367.896 214.006C368.237 214.257 368.525 214.574 368.743 214.937C368.962 215.3 369.107 215.702 369.17 216.121C369.233 216.54 369.213 216.967 369.111 217.378C369.008 217.79 368.826 218.177 368.575 218.517C368.323 218.858 368.007 219.146 367.644 219.365L335.11 239.708L352.17 229.82C352.893 229.404 353.749 229.285 354.559 229.487C355.368 229.689 356.068 230.197 356.511 230.904C356.955 231.612 357.107 232.466 356.933 233.284C356.76 234.103 356.276 234.822 355.582 235.29L281.639 285.142L327.176 258.858C327.899 258.458 328.748 258.35 329.547 258.557C330.347 258.764 331.037 259.27 331.474 259.971C331.912 260.671 332.064 261.513 331.899 262.323C331.734 263.132 331.265 263.847 330.588 264.321L303.672 282.381C304.274 282.335 304.875 282.462 305.407 282.746C305.938 283.031 306.377 283.461 306.672 283.987C307.099 284.728 307.215 285.608 306.994 286.434C306.773 287.26 306.232 287.965 305.491 288.392L228.917 332.627C228.194 333.027 227.346 333.134 226.546 332.927C225.746 332.72 225.057 332.214 224.619 331.514C224.181 330.813 224.029 329.971 224.194 329.162C224.359 328.352 224.828 327.637 225.505 327.163L248.357 311.806L204.633 337.051C204.142 337.334 203.586 337.483 203.02 337.483Z" fill="#D3E3F2"/>
<path d="M199.182 312.128C198.491 312.128 197.817 311.905 197.262 311.492C196.706 311.079 196.298 310.499 196.098 309.837C195.898 309.175 195.916 308.465 196.149 307.814C196.383 307.163 196.82 306.604 197.396 306.22L213.747 295.3L185.902 311.367C185.177 311.762 184.329 311.863 183.531 311.651C182.734 311.439 182.048 310.929 181.615 310.227C181.182 309.524 181.035 308.683 181.204 307.875C181.372 307.067 181.844 306.355 182.522 305.885L206.793 289.96L172.402 309.813C171.674 310.213 170.821 310.317 170.018 310.103C169.216 309.89 168.527 309.375 168.094 308.666C167.662 307.957 167.52 307.108 167.698 306.297C167.875 305.486 168.359 304.774 169.048 304.311L182.761 295.552L162.675 307.162C161.946 307.563 161.09 307.667 160.286 307.451C159.482 307.235 158.792 306.717 158.362 306.005C157.931 305.292 157.792 304.441 157.975 303.629C158.157 302.817 158.647 302.107 159.341 301.647L165.52 297.777L153.762 304.563C153.037 304.975 152.18 305.09 151.372 304.885C150.564 304.679 149.867 304.169 149.427 303.46C148.987 302.752 148.839 301.9 149.013 301.085C149.188 300.269 149.671 299.553 150.362 299.086L221.751 251.614L140.784 298.358C140.058 298.771 139.199 298.886 138.389 298.678C137.58 298.47 136.882 297.957 136.444 297.245C136.006 296.533 135.861 295.679 136.04 294.863C136.219 294.046 136.708 293.332 137.404 292.869L211.45 244.339L129.735 291.54C129.009 291.934 128.159 292.035 127.36 291.82C126.562 291.606 125.877 291.093 125.446 290.388C125.014 289.683 124.87 288.839 125.043 288.031C125.216 287.223 125.693 286.512 126.375 286.045L196.532 240.733L120.267 284.761C119.536 285.178 118.672 285.294 117.858 285.083C117.044 284.872 116.344 284.351 115.908 283.632C115.472 282.913 115.335 282.052 115.525 281.232C115.715 280.413 116.218 279.7 116.926 279.246L168.455 246.654L113.739 278.259C113.008 278.703 112.13 278.839 111.299 278.635C110.468 278.432 109.752 277.907 109.308 277.176C108.864 276.445 108.729 275.567 108.932 274.736C109.135 273.905 109.66 273.189 110.392 272.745L177.594 229.878L106.425 270.945C105.692 271.386 104.814 271.519 103.983 271.312C103.153 271.106 102.438 270.578 101.997 269.845C101.556 269.112 101.424 268.234 101.63 267.404C101.836 266.573 102.364 265.859 103.097 265.417L151.194 235.199L101.452 263.915C100.724 264.309 99.8719 264.409 99.0725 264.192C98.2731 263.976 97.5876 263.46 97.1581 262.752C96.7286 262.044 96.5879 261.197 96.7653 260.388C96.9427 259.579 97.4246 258.87 98.111 258.406L169.377 212.96L95.5826 255.575C94.8527 255.97 93.9984 256.069 93.1976 255.85C92.3967 255.632 91.711 255.113 91.2831 254.402C90.8551 253.69 90.7179 252.841 90.9001 252.032C91.0822 251.222 91.5696 250.513 92.2608 250.054L138.636 220.97L91.8029 248.002C91.073 248.398 90.2187 248.497 89.4179 248.278C88.617 248.06 87.9313 247.541 87.5034 246.829C87.0754 246.118 86.9382 245.269 87.1204 244.459C87.3025 243.649 87.7899 242.941 88.4811 242.481L130.838 215.959L88.2683 240.54C87.5385 240.967 86.6698 241.091 85.8495 240.885C85.0293 240.678 84.3231 240.157 83.8832 239.435C83.4432 238.712 83.3048 237.846 83.4976 237.022C83.6905 236.198 84.1993 235.484 84.9143 235.032L159.347 187.302L84.7272 230.388C83.9985 230.836 83.1216 230.976 82.2893 230.778C81.4571 230.579 80.7378 230.058 80.2896 229.33C79.8414 228.601 79.7011 227.724 79.8995 226.892C80.0978 226.06 80.6187 225.34 81.3474 224.892L170.228 166.797L81.341 218.113C80.6116 218.514 79.7554 218.618 78.9514 218.402C78.1474 218.186 77.458 217.668 77.0273 216.956C76.5965 216.244 76.4579 215.392 76.6404 214.58C76.8229 213.768 77.3123 213.058 78.0063 212.598L124.55 183.18L80.3154 208.716C79.5879 209.1 78.741 209.192 77.9481 208.972C77.1551 208.752 76.4761 208.238 76.05 207.534C75.6239 206.83 75.4829 205.99 75.656 205.186C75.829 204.381 76.3029 203.674 76.9808 203.207L120.583 175.563L79.4705 199.305C78.7418 199.694 77.8915 199.789 77.0948 199.57C76.2982 199.351 75.6161 198.834 75.1892 198.127C74.7623 197.42 74.6232 196.575 74.8005 195.768C74.9778 194.962 75.4581 194.253 76.1423 193.79L100.22 178.639L79.7285 190.468C79.0059 190.869 78.1572 190.976 77.3575 190.769C76.5579 190.562 75.8681 190.056 75.4305 189.356C74.993 188.655 74.8409 187.813 75.0057 187.004C75.1706 186.194 75.6397 185.479 76.3164 185.005L151.382 134.553L81.1797 175.085C80.4484 175.529 79.5707 175.664 78.7397 175.461C77.9087 175.258 77.1925 174.733 76.7486 174.002C76.3047 173.27 76.1694 172.393 76.3726 171.562C76.5759 170.731 77.1009 170.014 77.8322 169.57L96.8984 157.412L83.9984 164.875C83.2709 165.311 82.4011 165.442 81.5773 165.241C80.7535 165.04 80.042 164.523 79.5967 163.801C79.1515 163.08 79.0084 162.212 79.1985 161.385C79.3885 160.559 79.8964 159.841 80.6121 159.386L113.92 137.495L88.1199 152.388C87.4005 152.79 86.5545 152.901 85.7556 152.699C84.9566 152.497 84.2654 151.996 83.8239 151.3C83.3823 150.605 83.2238 149.766 83.381 148.957C83.5382 148.148 83.9991 147.43 84.6692 146.95L124.853 118.983L96.9564 135.108C96.2558 135.507 95.4312 135.629 94.6451 135.45C93.8591 135.271 93.1686 134.804 92.7097 134.141C92.2508 133.478 92.0568 132.667 92.166 131.869C92.2751 131.07 92.6794 130.341 93.2993 129.826L121.402 106.735C120.726 106.896 120.017 106.835 119.379 106.561C118.741 106.286 118.209 105.814 117.861 105.212C117.433 104.472 117.316 103.593 117.536 102.767C117.756 101.941 118.295 101.236 119.035 100.807L151.491 82.102C152.192 81.6961 153.02 81.5688 153.81 81.7453C154.601 81.9219 155.296 82.3893 155.757 83.0549C156.219 83.7204 156.413 84.5352 156.302 85.3374C156.19 86.1396 155.781 86.8704 155.155 87.3846L127.671 109.96L187.863 75.207C188.582 74.805 189.428 74.6936 190.227 74.8958C191.026 75.098 191.717 75.5984 192.159 76.2942C192.6 76.99 192.759 77.8284 192.602 78.6374C192.444 79.4464 191.984 80.1645 191.313 80.6443L151.117 108.618L207.232 76.2261C207.957 75.8317 208.805 75.7301 209.603 75.9422C210.4 76.1543 211.086 76.6641 211.519 77.3664C211.952 78.0688 212.099 78.9105 211.93 79.7182C211.762 80.5259 211.29 81.2382 210.612 81.7086L177.304 103.6L220.287 78.7867C221.018 78.3428 221.896 78.2076 222.727 78.4108C223.558 78.614 224.274 79.139 224.718 79.8703C225.162 80.6016 225.297 81.4793 225.094 82.3103C224.891 83.1413 224.366 83.8575 223.634 84.3015L204.6 96.4339L230.4 81.5602C231.123 81.16 231.972 81.0523 232.771 81.2593C233.571 81.4664 234.261 81.9724 234.698 82.673C235.136 83.3736 235.288 84.2154 235.123 85.0249C234.958 85.8343 234.489 86.5496 233.813 87.0234L158.702 137.385L244.539 87.849C245.271 87.4068 246.149 87.2735 246.979 87.4785C247.81 87.6836 248.525 88.2101 248.967 88.9422C249.409 89.6744 249.542 90.5522 249.337 91.3826C249.132 92.213 248.606 92.928 247.874 93.3702L223.815 108.495L252.363 92.0221C253.091 91.6275 253.943 91.5281 254.742 91.7446C255.542 91.9611 256.227 92.4769 256.657 93.185C257.086 93.8931 257.227 94.7393 257.049 95.5483C256.872 96.3573 256.39 97.067 255.704 97.5304L212.018 125.22L260.077 97.4853C260.809 97.0422 261.687 96.9081 262.518 97.1126C263.349 97.317 264.065 97.8431 264.508 98.5753C264.951 99.3075 265.085 100.186 264.881 101.017C264.676 101.848 264.15 102.563 263.418 103.006L216.914 132.406L267.623 103.129C268.352 102.681 269.229 102.54 270.061 102.739C270.894 102.937 271.613 103.458 272.061 104.187C272.509 104.916 272.65 105.792 272.451 106.625C272.253 107.457 271.732 108.176 271.003 108.624L182.135 166.72L276.66 112.153C277.387 111.763 278.235 111.667 279.031 111.884C279.826 112.101 280.508 112.615 280.937 113.319C281.366 114.024 281.508 114.866 281.335 115.672C281.162 116.478 280.687 117.188 280.007 117.654L205.542 165.384L283.587 120.331C284.319 119.909 285.188 119.791 286.006 120.003C286.825 120.215 287.527 120.739 287.962 121.464C288.398 122.188 288.531 123.055 288.334 123.877C288.137 124.699 287.625 125.41 286.909 125.859L244.584 152.349L288.347 127.065C289.08 126.624 289.959 126.492 290.789 126.698C291.619 126.904 292.334 127.432 292.775 128.165C293.217 128.898 293.349 129.776 293.142 130.606C292.936 131.437 292.409 132.151 291.675 132.593L245.281 161.682L292.914 134.186C293.643 133.778 294.501 133.67 295.309 133.882C296.116 134.095 296.81 134.612 297.243 135.326C297.677 136.04 297.817 136.893 297.634 137.708C297.451 138.523 296.959 139.235 296.261 139.694L225.008 185.154L297.293 143.416C298.026 142.993 298.894 142.876 299.713 143.087C300.531 143.299 301.233 143.824 301.669 144.548C302.104 145.273 302.238 146.139 302.041 146.961C301.844 147.783 301.332 148.495 300.615 148.943L252.447 179.213L300.822 151.285C301.552 150.867 302.416 150.752 303.23 150.963C304.045 151.174 304.744 151.694 305.18 152.414C305.616 153.133 305.753 153.994 305.563 154.813C305.373 155.633 304.871 156.345 304.163 156.799L237.031 199.608L303.55 161.211C304.282 160.769 305.16 160.636 305.99 160.841C306.821 161.046 307.536 161.572 307.978 162.305C308.42 163.037 308.553 163.915 308.348 164.745C308.143 165.575 307.617 166.29 306.885 166.732L255.285 199.363L305.949 170.119C306.678 169.704 307.539 169.589 308.35 169.799C309.162 170.008 309.86 170.525 310.297 171.24C310.734 171.956 310.875 172.813 310.691 173.631C310.507 174.448 310.011 175.162 309.31 175.621L239.179 220.88L307.02 181.735C307.745 181.341 308.593 181.239 309.391 181.451C310.188 181.663 310.874 182.173 311.307 182.876C311.74 183.578 311.887 184.42 311.718 185.227C311.55 186.035 311.078 186.747 310.4 187.218L236.309 235.76L307.439 194.7C308.162 194.314 309.004 194.218 309.795 194.431C310.586 194.643 311.266 195.149 311.698 195.845C312.13 196.541 312.281 197.375 312.12 198.178C311.959 198.981 311.499 199.693 310.832 200.169L239.437 247.609L306.149 209.096C306.878 208.707 307.728 208.612 308.525 208.831C309.322 209.05 310.004 209.567 310.431 210.274C310.857 210.981 310.997 211.826 310.819 212.633C310.642 213.439 310.162 214.148 309.477 214.611L303.292 218.481L304.15 217.991C304.877 217.59 305.731 217.486 306.534 217.7C307.336 217.914 308.025 218.429 308.458 219.138C308.89 219.847 309.032 220.695 308.854 221.506C308.677 222.318 308.193 223.029 307.504 223.492L293.798 232.284L301.447 227.866C302.175 227.43 303.045 227.298 303.868 227.499C304.692 227.7 305.404 228.217 305.849 228.939C306.294 229.661 306.437 230.529 306.247 231.355C306.057 232.182 305.549 232.9 304.834 233.355L280.575 249.28L296.255 240.25C296.98 239.837 297.836 239.722 298.644 239.927C299.453 240.133 300.15 240.643 300.59 241.352C301.029 242.06 301.178 242.912 301.003 243.727C300.829 244.543 300.345 245.259 299.654 245.726L283.355 256.607L289.16 253.279C289.865 252.874 290.697 252.752 291.489 252.935C292.281 253.118 292.975 253.593 293.432 254.266C293.888 254.938 294.074 255.758 293.952 256.562C293.829 257.366 293.408 258.093 292.772 258.6L268.32 277.782C269.09 277.407 269.977 277.352 270.787 277.631C271.597 277.91 272.263 278.499 272.638 279.269C273.014 280.039 273.068 280.926 272.789 281.736C272.51 282.546 271.921 283.212 271.152 283.587L232.845 305.691C232.139 306.107 231.301 306.237 230.501 306.057C229.702 305.877 229.001 305.399 228.541 304.721C228.081 304.043 227.897 303.215 228.025 302.405C228.154 301.596 228.586 300.866 229.233 300.364L253.485 281.291L200.827 311.69C200.328 311.981 199.76 312.132 199.182 312.128Z" fill="#57BFFF"/>
<path d="M190.688 312.406C190.189 312.405 189.696 312.289 189.25 312.066C188.803 311.842 188.415 311.519 188.114 311.12C187.814 310.721 187.611 310.258 187.52 309.767C187.43 309.276 187.454 308.77 187.592 308.291L188.159 306.317L180.09 310.974C179.422 311.362 178.636 311.496 177.877 311.353C177.117 311.211 176.434 310.8 175.952 310.196C175.47 309.592 175.221 308.835 175.25 308.062C175.279 307.29 175.585 306.554 176.111 305.988L176.562 305.504L170.209 309.174C169.532 309.569 168.735 309.705 167.966 309.555C167.197 309.405 166.509 308.98 166.03 308.36C165.551 307.74 165.315 306.966 165.365 306.185C165.414 305.403 165.747 304.666 166.3 304.111L174.15 296.184L157.38 305.859C156.686 306.257 155.869 306.383 155.087 306.212C154.306 306.041 153.616 305.586 153.151 304.934C152.686 304.283 152.48 303.483 152.573 302.688C152.665 301.893 153.05 301.161 153.652 300.634L165.642 290.25L146.583 301.215C145.878 301.617 145.048 301.738 144.258 301.555C143.468 301.373 142.776 300.899 142.319 300.228C141.863 299.558 141.676 298.74 141.795 297.938C141.915 297.136 142.332 296.408 142.964 295.9L148.653 291.385L138.552 297.19C137.861 297.583 137.049 297.707 136.273 297.539C135.496 297.37 134.808 296.92 134.343 296.275C133.878 295.631 133.667 294.837 133.751 294.046C133.835 293.255 134.208 292.524 134.799 291.991L148.563 279.736L128.877 291.101C128.19 291.5 127.38 291.632 126.603 291.47C125.825 291.309 125.134 290.866 124.662 290.227C124.191 289.587 123.972 288.797 124.047 288.006C124.123 287.215 124.488 286.48 125.072 285.941L139.746 272.293L119.751 283.826C119.066 284.14 118.293 284.204 117.566 284.008C116.838 283.812 116.203 283.367 115.769 282.751C115.335 282.135 115.131 281.387 115.191 280.636C115.252 279.885 115.573 279.179 116.1 278.64L124.62 271.403L113.094 278.053C112.418 278.425 111.63 278.542 110.875 278.382C110.119 278.222 109.446 277.797 108.978 277.183C108.509 276.57 108.277 275.808 108.322 275.038C108.367 274.267 108.687 273.538 109.224 272.983L122.466 259.748L105.599 269.475C104.912 269.892 104.094 270.038 103.304 269.884C102.515 269.729 101.812 269.286 101.333 268.639C100.854 267.993 100.634 267.192 100.715 266.391C100.797 265.591 101.175 264.851 101.775 264.315L115.874 250.95C115.452 250.677 115.102 250.305 114.855 249.867C114.429 249.127 114.313 248.249 114.533 247.425C114.753 246.6 115.291 245.896 116.029 245.468L130.78 236.954C131.467 236.536 132.286 236.39 133.075 236.544C133.865 236.699 134.568 237.143 135.047 237.789C135.526 238.435 135.746 239.237 135.664 240.037C135.582 240.837 135.205 241.578 134.605 242.114L126.039 250.234L140.397 241.875C141.074 241.503 141.861 241.387 142.617 241.546C143.372 241.706 144.045 242.131 144.514 242.745C144.982 243.358 145.215 244.12 145.17 244.89C145.124 245.661 144.804 246.39 144.267 246.945L131.025 260.187L152.246 247.932C152.943 247.528 153.766 247.399 154.553 247.572C155.34 247.744 156.034 248.205 156.498 248.864C156.962 249.522 157.163 250.33 157.061 251.129C156.96 251.929 156.563 252.661 155.948 253.182L147.441 260.406L161.153 252.485C161.84 252.08 162.653 251.944 163.435 252.104C164.216 252.263 164.911 252.706 165.385 253.347C165.858 253.989 166.078 254.783 166 255.577C165.923 256.371 165.554 257.107 164.965 257.645L150.298 271.287L172.667 258.387C173.352 258.028 174.144 257.927 174.897 258.103C175.651 258.28 176.316 258.721 176.771 259.346C177.226 259.972 177.441 260.741 177.377 261.512C177.313 262.283 176.973 263.005 176.42 263.547L162.656 275.802L183.399 263.824C184.104 263.43 184.93 263.314 185.716 263.499C186.501 263.684 187.189 264.158 187.643 264.825C188.097 265.493 188.283 266.306 188.166 267.105C188.05 267.904 187.637 268.63 187.011 269.139L181.303 273.654L191.333 267.849C192.027 267.451 192.844 267.326 193.626 267.496C194.407 267.667 195.097 268.123 195.562 268.774C196.027 269.425 196.233 270.226 196.14 271.02C196.048 271.815 195.663 272.547 195.061 273.074L183.122 283.465L191.733 278.492C192.409 278.102 193.204 277.97 193.97 278.122C194.736 278.274 195.421 278.698 195.898 279.317C196.375 279.935 196.611 280.706 196.562 281.485C196.514 282.265 196.184 283 195.635 283.555L187.772 291.488L191.784 289.179C192.452 288.796 193.235 288.664 193.991 288.808C194.748 288.952 195.428 289.362 195.909 289.963C196.389 290.565 196.639 291.318 196.612 292.088C196.586 292.857 196.285 293.592 195.764 294.159L193.829 296.242C194.409 296.306 194.961 296.529 195.422 296.887C195.928 297.282 196.304 297.819 196.503 298.429C196.702 299.039 196.714 299.695 196.538 300.312L195.248 304.762C195.67 305.033 196.02 305.403 196.267 305.84C196.693 306.58 196.807 307.458 196.586 308.283C196.365 309.108 195.826 309.811 195.087 310.239L192.268 311.864C191.798 312.18 191.253 312.367 190.688 312.406Z" fill="#7AD4EC"/>
<path d="M201.724 273.099C201.055 273.099 200.404 272.89 199.859 272.503C199.314 272.115 198.903 271.568 198.683 270.937C198.463 270.306 198.444 269.622 198.629 268.98C198.815 268.338 199.195 267.769 199.718 267.353L230.736 242.578L179.852 271.958C179.126 272.389 178.261 272.518 177.441 272.318C176.621 272.118 175.912 271.605 175.466 270.888C175.02 270.172 174.873 269.309 175.057 268.485C175.24 267.661 175.739 266.942 176.446 266.482L183.773 261.606L170.68 269.159C169.965 269.556 169.127 269.667 168.333 269.47C167.54 269.273 166.851 268.781 166.406 268.096C165.961 267.41 165.793 266.581 165.937 265.776C166.08 264.971 166.523 264.25 167.178 263.76L217.313 227.569L156.425 262.721C155.703 263.112 154.859 263.212 154.066 263.002C153.272 262.792 152.589 262.287 152.155 261.591C151.72 260.894 151.568 260.058 151.729 259.253C151.89 258.448 152.351 257.735 153.02 257.258L188.572 233.393L147.847 256.904C147.12 257.31 146.264 257.419 145.458 257.208C144.652 256.998 143.959 256.483 143.524 255.773C143.089 255.063 142.945 254.212 143.124 253.398C143.302 252.585 143.788 251.871 144.48 251.408L156.651 243.559L141.952 252.04C141.229 252.446 140.379 252.559 139.576 252.355C138.773 252.151 138.08 251.645 137.639 250.944C137.199 250.242 137.045 249.398 137.211 248.586C137.376 247.774 137.847 247.057 138.527 246.584L190.494 211.244L134.508 243.571C133.785 244.013 132.917 244.152 132.092 243.959C131.266 243.766 130.551 243.255 130.099 242.538C129.647 241.821 129.496 240.955 129.678 240.127C129.859 239.299 130.36 238.576 131.07 238.115L187.966 199.195L128.039 233.793C127.312 234.244 126.436 234.387 125.603 234.192C124.77 233.997 124.049 233.479 123.598 232.752C123.147 232.024 123.004 231.148 123.199 230.315C123.395 229.483 123.913 228.761 124.64 228.311L166.455 200.576L123.653 225.286C122.932 225.705 122.076 225.829 121.266 225.631C120.456 225.433 119.754 224.929 119.307 224.225C118.86 223.52 118.704 222.67 118.871 221.853C119.038 221.036 119.515 220.315 120.202 219.842L179.42 178.82L119.886 213.192C119.156 213.62 118.288 213.743 117.467 213.537C116.647 213.33 115.941 212.809 115.501 212.087C115.061 211.364 114.923 210.498 115.115 209.674C115.308 208.851 115.817 208.136 116.532 207.684L122.466 203.872L118.88 205.949C118.157 206.361 117.302 206.477 116.495 206.274C115.688 206.07 114.991 205.563 114.549 204.857C114.108 204.152 113.956 203.303 114.126 202.488C114.296 201.673 114.775 200.956 115.461 200.485L152.8 175.298L118.035 195.358C117.317 195.772 116.466 195.893 115.661 195.697C114.855 195.501 114.156 195.002 113.709 194.304C113.261 193.606 113.1 192.762 113.258 191.948C113.416 191.135 113.882 190.413 114.558 189.933L158.605 158.67L119.422 181.245C118.701 181.665 117.845 181.788 117.035 181.591C116.225 181.393 115.522 180.889 115.076 180.184C114.629 179.48 114.473 178.63 114.64 177.812C114.807 176.995 115.284 176.274 115.971 175.801L138.746 160.044L123.092 169.074C122.378 169.486 121.532 169.61 120.73 169.418C119.928 169.227 119.229 168.735 118.778 168.045C118.327 167.354 118.158 166.517 118.305 165.706C118.453 164.894 118.905 164.17 119.57 163.682L139.513 149.06L130.483 154.284C129.776 154.688 128.942 154.809 128.148 154.623C127.355 154.437 126.662 153.957 126.208 153.281C125.753 152.605 125.572 151.781 125.7 150.977C125.828 150.172 126.256 149.446 126.897 148.943L140.842 138.178C140.433 137.85 140.111 137.426 139.903 136.945C139.695 136.463 139.607 135.938 139.648 135.415C139.689 134.892 139.856 134.387 140.136 133.944C140.416 133.5 140.8 133.132 141.255 132.87L167.197 117.9C167.904 117.496 168.739 117.375 169.532 117.561C170.325 117.747 171.019 118.226 171.473 118.903C171.927 119.579 172.108 120.402 171.98 121.207C171.852 122.012 171.425 122.738 170.783 123.24L169.029 124.595L187.521 113.92C188.235 113.507 189.08 113.384 189.882 113.575C190.685 113.767 191.383 114.258 191.834 114.949C192.285 115.64 192.455 116.477 192.307 117.288C192.16 118.1 191.707 118.824 191.043 119.312L171.093 133.934L203.93 114.978C204.65 114.571 205.499 114.457 206.302 114.658C207.104 114.86 207.798 115.363 208.241 116.062C208.683 116.761 208.84 117.603 208.678 118.415C208.517 119.226 208.05 119.945 207.374 120.422L184.599 136.179L214.94 118.68C215.658 118.266 216.508 118.144 217.314 118.34C218.119 118.537 218.819 119.036 219.266 119.734C219.713 120.432 219.875 121.275 219.716 122.089C219.558 122.903 219.093 123.625 218.416 124.104L174.343 155.387L229.517 123.53C230.239 123.13 231.088 123.023 231.888 123.23C232.687 123.437 233.377 123.943 233.815 124.643C234.252 125.344 234.404 126.186 234.24 126.995C234.075 127.805 233.606 128.52 232.929 128.994L195.564 154.2L238.295 129.535C239.026 129.09 239.903 128.953 240.735 129.154C241.566 129.355 242.284 129.879 242.73 130.609C243.175 131.34 243.312 132.217 243.111 133.049C242.91 133.881 242.386 134.598 241.656 135.044L235.702 138.856L244.087 134.018C244.808 133.599 245.664 133.475 246.474 133.673C247.284 133.87 247.987 134.374 248.433 135.079C248.88 135.783 249.036 136.634 248.869 137.451C248.702 138.268 248.225 138.989 247.538 139.462L188.34 180.465L252.588 143.371C253.313 142.971 254.163 142.865 254.963 143.074C255.764 143.283 256.453 143.792 256.889 144.495C257.324 145.199 257.473 146.043 257.304 146.852C257.135 147.662 256.662 148.376 255.981 148.847L214.192 176.582L257.832 151.388C258.553 150.987 259.401 150.878 260.2 151.082C260.999 151.287 261.689 151.79 262.129 152.488C262.568 153.186 262.724 154.026 262.563 154.836C262.402 155.645 261.937 156.361 261.264 156.838L204.349 195.777L263.186 161.811C263.908 161.405 264.758 161.292 265.561 161.497C266.364 161.701 267.058 162.206 267.498 162.908C267.939 163.609 268.092 164.454 267.927 165.265C267.762 166.077 267.29 166.794 266.611 167.268L214.63 202.607L266.766 172.512C267.495 172.065 268.372 171.927 269.204 172.127C270.035 172.327 270.753 172.85 271.2 173.579C271.646 174.309 271.785 175.186 271.585 176.017C271.384 176.849 270.862 177.567 270.132 178.014L258.052 185.805L267.939 180.097C268.662 179.707 269.505 179.606 270.299 179.816C271.092 180.026 271.776 180.531 272.21 181.228C272.644 181.924 272.797 182.76 272.636 183.565C272.475 184.37 272.014 185.084 271.345 185.56L235.767 209.425L269.049 190.275C269.765 189.864 270.611 189.744 271.413 189.938C272.215 190.132 272.912 190.626 273.361 191.318C273.809 192.011 273.976 192.849 273.825 193.661C273.674 194.472 273.219 195.195 272.551 195.68L222.396 231.852L267.546 205.774C268.272 205.343 269.137 205.214 269.957 205.414C270.777 205.614 271.486 206.127 271.932 206.844C272.377 207.561 272.524 208.423 272.341 209.247C272.158 210.071 271.659 210.79 270.952 211.25L263.644 216.12L264.605 215.566C265.308 215.166 266.137 215.046 266.925 215.228C267.713 215.411 268.404 215.883 268.86 216.551C269.317 217.22 269.505 218.035 269.388 218.836C269.272 219.636 268.858 220.364 268.23 220.874L237.186 245.661L254.253 235.818C254.99 235.433 255.847 235.347 256.646 235.579C257.445 235.811 258.123 236.342 258.539 237.062C258.956 237.782 259.078 238.635 258.88 239.443C258.682 240.251 258.179 240.951 257.478 241.398L203.298 272.661C202.82 272.942 202.278 273.093 201.724 273.099Z" fill="#2A4D51"/>
<path d="M216.339 144.893C215.73 144.894 215.133 144.722 214.618 144.398C214.102 144.074 213.688 143.611 213.425 143.061C213.162 142.512 213.06 141.899 213.13 141.294C213.201 140.689 213.441 140.117 213.824 139.643L218.074 134.379L207.432 140.52C206.785 140.888 206.03 141.021 205.296 140.897C204.562 140.772 203.894 140.397 203.405 139.836C202.916 139.275 202.636 138.561 202.613 137.817C202.59 137.073 202.825 136.344 203.278 135.753L212.398 124.027L202.04 130.006C201.383 130.387 200.612 130.525 199.864 130.393C199.116 130.262 198.438 129.871 197.95 129.289C197.462 128.707 197.195 127.971 197.196 127.211C197.198 126.452 197.467 125.717 197.957 125.136L202.401 119.873C201.791 119.7 201.247 119.351 200.834 118.869C200.422 118.388 200.161 117.796 200.083 117.167C200.005 116.538 200.115 115.9 200.397 115.333C200.68 114.766 201.123 114.295 201.672 113.978L213.25 107.289C213.907 106.908 214.677 106.771 215.426 106.902C216.174 107.034 216.852 107.425 217.34 108.007C217.828 108.589 218.095 109.325 218.093 110.084C218.092 110.844 217.823 111.579 217.333 112.159L214.753 115.223L223.473 110.192C224.12 109.82 224.876 109.684 225.613 109.807C226.349 109.93 227.019 110.305 227.51 110.867C228.001 111.429 228.282 112.145 228.304 112.891C228.327 113.637 228.089 114.368 227.633 114.958L218.513 126.684L229.833 120.151C230.484 119.778 231.245 119.644 231.984 119.772C232.724 119.9 233.395 120.282 233.884 120.852C234.372 121.422 234.646 122.144 234.659 122.894C234.672 123.645 234.423 124.376 233.954 124.962L229.104 130.993C229.823 130.962 230.532 131.173 231.118 131.592C231.703 132.011 232.132 132.614 232.335 133.305C232.539 133.995 232.505 134.734 232.24 135.404C231.974 136.073 231.493 136.634 230.871 136.998L217.971 144.454C217.477 144.746 216.913 144.897 216.339 144.893Z" fill="white"/>
<path d="M13.0354 213.495C21.3301 225.337 30.1687 236.775 39.5513 247.809C86.9846 303.537 155.445 355.285 232.322 330.943C295.242 311.006 344.798 255.955 380.182 202.349C383.046 198.021 386.381 194.287 384.233 188.856C351.712 137.43 306.543 85.6559 249.718 61.1459C232.605 53.729 214.157 49.8866 195.506 49.8545C176.855 49.8223 158.394 53.601 141.255 60.9589C106.638 75.3811 77.1032 100.168 51.787 127.394C33.5433 146.19 17.4482 166.957 3.79899 189.314C-0.96111 197.557 8.32044 206.774 13.0354 213.495ZM13.5901 186.979C15.6992 183.322 18.2921 179.852 20.6851 176.388C27.965 165.939 35.6577 155.798 43.7632 145.963C87.7199 92.6864 153.149 36.4102 227.098 59.5076C261.599 70.2856 291.346 93.325 316.618 118.57C336.278 138.312 353.978 159.913 369.469 183.07C371.309 185.814 373.115 188.581 374.887 191.371C377.841 198.821 365.857 211.334 361.722 217.081C353.608 228.334 345.008 239.211 335.922 249.712C313.185 277.348 285.435 300.443 254.13 317.785C237.905 326.54 219.928 331.558 201.515 332.471C183.101 333.384 164.716 330.169 147.705 323.061C114.487 309.477 86.0816 285.406 61.7522 259.464C44.2533 240.818 28.4325 220.666 14.4737 199.24C12.9976 197.583 12.1106 195.484 11.9508 193.27C11.791 191.056 12.3673 188.851 13.5901 186.998V186.979Z" fill="#B9CBDD"/>
<path d="M216.385 310.587C243.673 305.14 268.274 290.513 286.094 269.14C303.913 247.767 313.877 220.936 314.328 193.113C314.165 168.54 306.466 144.609 292.269 124.552C278.072 104.494 258.062 89.2766 234.941 80.9539C211.578 72.9225 186.346 72.0708 162.494 78.5084C138.643 84.946 117.266 98.378 101.117 117.074C85.0953 136.081 75.3847 159.603 73.3309 184.377C71.2772 209.151 76.9822 233.95 89.655 255.336C102.655 276.339 121.749 292.88 144.392 302.751C167.034 312.623 192.149 315.356 216.385 310.587ZM107.289 264.205C106.399 263.096 105.606 261.934 104.761 260.799L128.813 243.526C136.138 252.376 145.292 259.534 155.647 264.507C166.002 269.481 177.312 272.153 188.798 272.338V306.014C173.053 305.09 157.673 300.895 143.639 293.696C129.605 286.498 117.226 276.454 107.289 264.205ZM211.953 111.817L212.121 111.74L212.257 111.688H212.392C212.56 111.688 212.844 111.637 212.94 111.637C214.175 111.62 215.407 111.779 216.597 112.107C218.912 112.818 221.028 114.062 222.775 115.739C224.521 117.417 225.85 119.48 226.655 121.764C227.459 124.048 227.716 126.489 227.405 128.891C227.095 131.292 226.225 133.588 224.866 135.592C224.114 136.701 223.201 137.693 222.157 138.533C221.731 138.873 221.28 139.181 220.809 139.455L220.519 139.617C220.035 139.836 220.009 139.862 220.429 139.688C220.248 139.765 220.068 139.83 219.887 139.894H219.855C219.61 139.939 219.539 139.952 219.719 139.933H219.681L218.99 139.984C219.423 139.984 218.507 139.984 218.423 139.984C217.019 139.918 215.636 139.624 214.327 139.114C211.631 138.04 209.294 136.224 207.587 133.876C205.862 131.456 204.856 128.598 204.684 125.631C204.513 122.664 205.184 119.709 206.619 117.106C207.276 115.937 208.097 114.869 209.057 113.933C209.903 113.077 210.881 112.363 211.953 111.817ZM219.764 139.913C219.848 139.907 219.842 139.9 219.764 139.913ZM198.015 135.998C200.412 139.235 203.747 141.657 207.568 142.934C211.388 144.211 215.509 144.283 219.371 143.138C222.491 142.555 225.457 141.331 228.08 139.544C230.703 137.756 232.928 135.444 234.612 132.754C245.452 140.717 254.029 151.367 259.499 163.655C264.968 175.942 267.142 189.443 265.804 202.827C264.352 216.489 259.184 229.493 250.861 240.425C242.539 251.357 231.38 259.8 218.597 264.837C211.793 267.337 204.618 268.675 197.37 268.797C196.388 268.195 195.223 267.966 194.087 268.152C193.363 268.27 192.652 268.458 191.965 268.713C180.284 267.926 168.94 264.464 158.81 258.593C148.681 252.723 140.036 244.603 133.545 234.859C127.054 225.116 122.89 214.01 121.375 202.401C119.86 190.792 121.034 178.989 124.807 167.906C129.714 152.761 139.535 139.687 152.715 130.757C165.895 121.826 181.678 117.551 197.563 118.609C196.03 121.268 195.26 124.299 195.34 127.367C195.419 130.436 196.345 133.423 198.015 135.998ZM97.395 135.998C109.071 115.92 126.756 100.013 147.956 90.5239C169.156 81.0344 192.8 78.4406 215.553 83.1082C240.746 88.8069 263.275 102.849 279.488 122.956C295.7 143.064 304.645 168.058 304.872 193.887C304.854 216.934 297.813 239.429 284.686 258.373C271.56 277.318 252.972 291.812 231.4 299.925C220.73 303.749 209.52 305.85 198.189 306.149V272.1C213.365 271.26 228.017 266.266 240.547 257.663C253.077 249.06 263.001 237.179 269.236 223.318C276.558 205.768 277.311 186.167 271.358 168.107C265.404 150.047 253.142 134.737 236.818 124.982C236.818 124.827 236.87 124.685 236.87 124.524C236.788 120.874 235.539 117.346 233.305 114.458C231.072 111.57 227.972 109.473 224.46 108.476C220.377 107.459 216.109 107.452 212.023 108.454C207.937 109.457 204.156 111.439 201.008 114.229C186.61 113.319 172.213 116.023 159.127 122.095C146.041 128.166 134.68 137.413 126.078 148.995C117.109 161.634 112.071 176.64 111.597 192.13C111.123 207.621 115.234 222.907 123.414 236.07C124.021 237.031 124.704 237.934 125.349 238.856L101.388 256.065C89.6952 238.373 83.1289 217.79 82.4162 196.595C81.7036 175.401 86.8723 154.423 97.3498 135.985L97.395 135.998Z" fill="#3BA2E1"/>
<path d="M196.757 27.7349C254.02 30.2375 304.156 66.3059 343.888 104.742C345.546 106.341 353.944 102.807 352.712 101.633C318.011 68.0926 276.731 37.5776 228.62 27.3931C184.509 18.0599 139.81 29.6699 101.336 51.8128C77.0091 66.2689 54.5572 83.669 34.4882 103.619C32.7144 105.335 41.3187 104.309 42.8732 102.774C84.0887 62.939 136.74 25.1549 196.757 27.7349Z" fill="#B9CBDD"/>
<path d="M344.604 283.226C303.879 322.616 252.047 359.794 192.855 358.762C134.547 357.743 83.3533 321.016 43.0601 282.046C40.9123 279.969 32.1403 283.432 34.3462 285.561C68.7376 318.83 109.405 348.855 156.851 359.665C201.214 369.766 246.1 358.665 284.942 336.303C309.35 321.815 331.88 304.374 352.022 284.374C355.763 280.736 346.604 281.291 344.604 283.226Z" fill="#B9CBDD"/>
<path d="M147.705 192.984L165.12 175.537C165.443 175.196 165.672 174.778 165.787 174.323C165.902 173.868 165.898 173.391 165.776 172.938C165.653 172.484 165.417 172.07 165.089 171.735C164.76 171.399 164.351 171.154 163.901 171.022C162.743 170.674 161.511 170.656 160.343 170.969C159.176 171.282 158.118 171.915 157.29 172.795L137.94 192.145C137.482 192.585 137.194 193.173 137.128 193.805C137.062 194.436 137.222 195.071 137.578 195.596L156.928 214.946C157.782 215.708 158.852 216.185 159.99 216.311C161.127 216.437 162.275 216.206 163.275 215.649C164.688 214.965 167.145 212.515 165.481 210.818L147.705 192.984Z" fill="#DBDBDB"/>
<path d="M223.815 215.036C226.104 215.021 228.31 214.183 230.033 212.676L249.383 193.326C249.496 193.238 249.589 193.128 249.656 193.002C249.723 192.876 249.763 192.737 249.773 192.594C249.783 192.452 249.762 192.309 249.713 192.175C249.663 192.041 249.586 191.919 249.486 191.816L230.136 172.466C228.201 170.531 219.493 173.95 221.377 175.833L240.024 194.48L221.48 213.024C219.945 214.572 222.809 215.069 223.815 215.036Z" fill="#DBDBDB"/>
<path d="M182.593 212.366C180.916 217.397 190.23 217.146 191.507 213.334L202.807 179.433C203.336 177.833 203.869 176.233 204.407 174.634C206.084 169.603 196.77 169.848 195.493 173.666L184.193 207.567C183.664 209.167 183.131 210.767 182.593 212.366Z" fill="#DBDBDB"/>
</svg>
