<svg width="288" height="84" xmlns="http://www.w3.org/2000/svg" xmlns:xlink="http://www.w3.org/1999/xlink" xml:space="preserve" overflow="hidden"><g transform="translate(-833 -122)"><path d="M17.5341 55.8212C21.6847 53.1106 26.5129 48.5365 24.7341 43.2 23.7176 40.2353 22.3624 37.7788 22.1082 34.56 21.9388 31.8494 22.3624 29.1388 23.2941 26.6824 27.0212 16.6871 38.1176 11.9435 48.1129 14.9082 57.3459 17.7035 63.6988 28.4612 59.8871 37.7788 57.6847 43.2 56.6682 47.4353 61.5812 51.5859 62.9365 52.6871 66.1553 54.4659 66.1553 56.4988 66.1553 59.1247 60.9035 55.9059 60.3953 55.4824 61.0729 56.6682 67.5953 63.4447 63.4447 63.9529 59.6329 64.3765 56.2447 59.04 53.9576 56.7529 50.0612 52.8565 50.7388 61.4118 50.7388 63.1906 50.7388 65.9859 48.7059 71.6612 45.2329 67.9341 42.3529 64.8847 43.4541 60.0565 41.4212 56.6682 39.2188 52.9412 35.4918 60.3953 34.56 61.7506 33.5435 63.2753 28.3765 70.56 26.3435 66.6635 24.6494 63.5294 27.36 58.5318 28.6306 55.6518 28.1224 56.6682 24.7341 58.1929 23.8024 58.7012 21.6847 59.8871 19.2282 60.48 16.7718 60.3106 11.4353 59.9718 15.4165 57.1765 17.5341 55.8212Z" fill="#0D80D8" transform="matrix(1 0 0 1.00168 833 122.212)"/><path d="M92.2447 40.2353C92.2447 42.1835 91.9059 44.1318 91.1435 45.9106 90.4659 47.4353 89.4494 48.7059 88.0094 49.6376 84.0282 52.1788 78.6918 51.0776 76.1506 47.0965 75.8965 46.7576 75.7271 46.3341 75.5576 45.9106 74.7953 44.1318 74.3718 42.2682 74.3718 40.4047L74.3718 38.7953C74.3718 36.8471 74.7106 34.8988 75.4729 33.12 76.7435 29.9859 79.8776 27.9529 83.2659 28.0376 84.96 28.0376 86.5694 28.4612 88.0094 29.3082 89.3647 30.24 90.4659 31.5106 91.1435 33.0353 91.9059 34.8141 92.2447 36.7624 92.2447 38.7106L92.2447 40.2353ZM89.3647 38.7953C89.3647 36.1694 88.8565 34.1365 87.7553 32.6965 86.7388 31.2565 85.0447 30.4941 83.3506 30.5788 81.6565 30.4941 79.9624 31.3412 78.9459 32.6965 77.76 34.3906 77.2518 36.5082 77.3365 38.5412L77.3365 40.1506C77.2518 42.2682 77.76 44.3859 78.9459 46.1647 80.8941 48.6212 84.3671 49.0447 86.8235 47.1812 87.1624 46.9271 87.5012 46.5882 87.7553 46.3341 88.7718 44.9788 89.3647 42.9459 89.3647 40.4047L89.3647 38.7953Z" fill="#0F2535" transform="matrix(1 0 0 1.00168 833 122.212)"/><path d="M101.478 48.6212C102.409 48.6212 103.341 48.2824 104.104 47.6894 104.866 47.1812 105.289 46.3341 105.374 45.4024L108.085 45.4024C108 46.4188 107.661 47.3506 107.068 48.1129 106.475 48.96 105.628 49.7224 104.696 50.1459 103.68 50.6541 102.579 50.9082 101.478 50.9082 99.4447 50.9929 97.4965 50.1459 96.1412 48.6212 94.7012 46.9271 94.0235 44.7247 94.1929 42.4376L94.1929 41.9294C94.1929 40.4894 94.4471 38.9647 95.1247 37.6094 95.6329 36.4235 96.5647 35.4071 97.6659 34.7294 98.8518 34.0518 100.207 33.6282 101.562 33.7129 103.256 33.6282 104.951 34.3059 106.136 35.4071 107.322 36.5082 108.085 38.0329 108.085 39.7271L105.374 39.7271C105.289 38.7106 104.866 37.7788 104.188 37.1012 103.426 36.4235 102.494 36.0847 101.478 36.0847 100.207 36 98.9365 36.5929 98.1741 37.6094 97.3271 38.9647 96.9035 40.4894 96.9882 42.0988L96.9882 42.6071C96.9035 44.1318 97.3271 45.7412 98.1741 47.0118 98.8518 48.1129 100.122 48.7059 101.478 48.6212Z" fill="#0F2535" transform="matrix(1 0 0 1.00168 833 122.212)"/><path d="M113.591 30.1553 113.591 34.1365 116.64 34.1365 116.64 36.3388 113.591 36.3388 113.591 46.5882C113.591 47.0965 113.675 47.6047 114.014 48.1129 114.353 48.4518 114.861 48.6212 115.454 48.6212 115.878 48.6212 116.386 48.5365 116.809 48.4518L116.809 50.7388C116.132 50.9082 115.369 51.0776 114.607 51.0776 113.506 51.1624 112.489 50.7388 111.727 49.9765 111.049 49.0447 110.711 47.8588 110.795 46.7576L110.795 36.3388 107.746 36.3388 107.746 34.1365 110.795 34.1365 110.795 30.1553 113.591 30.1553Z" fill="#0F2535" transform="matrix(1 0 0 1.00168 833 122.212)"/><path d="M117.572 42.1835C117.572 40.6588 117.911 39.2188 118.504 37.7788 119.096 36.5082 120.028 35.4918 121.129 34.8141 122.315 34.1365 123.671 33.7129 125.026 33.7976 127.059 33.7129 129.092 34.56 130.447 36.1694 131.887 37.8635 132.649 40.1506 132.565 42.3529L132.565 42.5224C132.565 44.0471 132.311 45.4871 131.633 46.8424 131.04 48.0282 130.108 49.1294 129.007 49.8071 127.821 50.5694 126.466 50.9082 125.111 50.9082 123.078 50.9929 121.045 50.1459 119.689 48.5365 118.249 46.8424 117.487 44.64 117.572 42.3529L117.572 42.1835ZM120.452 42.5224C120.367 44.1318 120.791 45.6565 121.722 46.9271 123.162 48.7906 125.873 49.1294 127.821 47.6894 128.075 47.4353 128.329 47.1812 128.584 46.9271 129.515 45.5718 129.939 43.8776 129.854 42.1835 129.939 40.5741 129.431 39.0494 128.584 37.7788 127.821 36.6776 126.551 36.0847 125.195 36.0847 123.84 36.0847 122.569 36.6776 121.807 37.7788 120.791 39.2188 120.282 40.9129 120.452 42.5224L120.452 42.5224Z" fill="#0F2535" transform="matrix(1 0 0 1.00168 833 122.212)"/><path d="M148.744 42.5224C148.828 44.64 148.235 46.8424 147.049 48.6212 145.948 50.1459 144.169 50.9929 142.306 50.9082 140.527 50.9929 138.833 50.3153 137.562 49.0447L137.562 57.0071 134.767 57.0071 134.767 34.1365 137.308 34.1365 137.478 36C138.664 34.56 140.442 33.7976 142.306 33.8824 144.169 33.7976 145.864 34.6447 147.049 36.0847 148.235 37.6094 148.744 39.6424 148.744 42.3529L148.744 42.5224ZM145.864 42.2682C145.948 40.7435 145.525 39.1341 144.678 37.8635 143.915 36.8471 142.729 36.2541 141.459 36.2541 139.849 36.1694 138.325 37.1012 137.647 38.5412L137.647 46.4188C138.409 47.8588 139.849 48.7059 141.459 48.7059 142.729 48.7059 143.915 48.1129 144.678 47.0965 145.609 45.5718 146.033 43.9624 145.864 42.2682Z" fill="#0F2535" transform="matrix(1 0 0 1.00168 833 122.212)"/><path d="M161.111 48.96C159.84 50.3153 158.061 50.9929 156.282 50.9082 154.758 50.9929 153.318 50.4847 152.216 49.3835 151.2 48.1129 150.692 46.5035 150.861 44.8941L150.861 34.1365 153.656 34.1365 153.656 44.8094C153.656 47.3506 154.673 48.5365 156.706 48.5365 158.739 48.5365 160.264 47.6894 161.026 46.1647L161.026 34.1365 163.821 34.1365 163.821 50.6541 161.111 50.6541 161.111 48.96Z" fill="#0F2535" transform="matrix(1 0 0 1.00168 833 122.212)"/><path d="M176.358 46.2494C176.358 45.5718 176.104 44.8941 175.511 44.4706 174.579 43.9624 173.562 43.5388 172.461 43.3694 171.275 43.1153 170.174 42.7765 169.073 42.2682 168.311 41.9294 167.718 41.4212 167.209 40.7435 166.786 40.1506 166.616 39.3882 166.616 38.6259 166.616 37.2706 167.209 36 168.311 35.2376 169.581 34.3059 171.106 33.7976 172.715 33.7976 174.325 33.7129 175.934 34.2212 177.289 35.2376 178.391 36.1694 179.068 37.5247 179.068 38.9647L176.188 38.9647C176.188 38.2024 175.849 37.44 175.172 36.9318 174.494 36.3388 173.562 36.0847 172.715 36.0847 171.868 36 171.021 36.2541 170.344 36.7624 169.751 37.1859 169.496 37.8635 169.496 38.5412 169.496 39.1341 169.835 39.7271 170.344 40.0659 171.275 40.5741 172.207 40.9129 173.224 41.0824 174.409 41.3365 175.595 41.6753 176.696 42.1835 177.459 42.5224 178.136 43.1153 178.645 43.7929 179.068 44.4706 179.322 45.2329 179.322 46.08 179.322 47.52 178.729 48.7906 177.544 49.6376 176.188 50.5694 174.579 51.0776 172.885 50.9929 171.699 50.9929 170.513 50.7388 169.412 50.3153 168.48 49.8918 167.633 49.2141 167.04 48.3671 166.447 47.6047 166.193 46.5882 166.193 45.6565L168.988 45.6565C168.988 46.5035 169.412 47.3506 170.089 47.9435 170.936 48.5365 171.868 48.8753 172.885 48.7906 173.816 48.7906 174.664 48.6212 175.426 48.1129 176.019 47.6047 176.358 47.0118 176.358 46.2494L176.358 46.2494Z" fill="#0F2535" transform="matrix(1 0 0 1.00168 833 122.212)"/><path d="M188.301 50.6541 188.301 28.3765 194.569 28.3765C196.348 28.3765 198.127 28.8 199.736 29.6471 201.176 30.4941 202.447 31.7647 203.209 33.2894 204.056 34.9835 204.48 36.8471 204.395 38.7106L204.395 40.1506C204.395 42.0141 204.056 43.9624 203.209 45.6565 202.447 47.1812 201.261 48.4518 199.736 49.2988 198.127 50.1459 196.348 50.6541 194.485 50.5694L188.301 50.6541ZM191.181 30.8329 191.181 48.2824 194.231 48.2824C196.179 48.3671 198.127 47.6047 199.482 46.1647 200.753 44.7247 201.346 42.7765 201.346 40.1506L201.346 38.88C201.515 36.7624 200.838 34.6447 199.567 32.9506 198.296 31.5106 196.433 30.7482 194.569 30.8329L191.181 30.8329Z" fill="#0F2535" transform="matrix(1 0 0 1.00168 833 122.212)"/><path d="M213.798 50.9082C211.765 50.9929 209.732 50.1459 208.376 48.7059 206.936 47.0965 206.174 44.9788 206.259 42.7765L206.259 42.3529C206.259 40.8282 206.513 39.3035 207.191 37.9482 207.784 36.6776 208.631 35.6612 209.816 34.8988 210.918 34.1365 212.188 33.7976 213.459 33.7976 215.322 33.7129 217.186 34.4753 218.456 35.9153 219.642 37.3553 220.235 39.3882 220.235 42.0141L220.235 43.2 209.054 43.2C209.054 44.64 209.562 46.08 210.494 47.1812 211.341 48.1976 212.612 48.7059 213.967 48.7059 214.814 48.7059 215.746 48.5365 216.508 48.1129 217.186 47.6894 217.864 47.1812 218.287 46.5035L219.981 47.8588C218.626 49.8918 216.254 51.0776 213.798 50.9082L213.798 50.9082ZM213.459 36.1694C212.358 36.1694 211.341 36.5929 210.579 37.44 209.732 38.4565 209.224 39.6424 209.139 40.9129L217.44 40.9129 217.44 40.6588C217.44 39.4729 217.016 38.2871 216.254 37.3553 215.576 36.5082 214.56 36.0847 213.459 36.1694L213.459 36.1694Z" fill="#0F2535" transform="matrix(1 0 0 1.00168 833 122.212)"/><path d="M236.075 42.5224C236.16 44.64 235.567 46.8424 234.381 48.6212 233.28 50.1459 231.586 50.9929 229.722 50.9082 227.944 50.9929 226.249 50.3153 224.979 49.0447L224.979 57.0071 222.184 57.0071 222.184 34.1365 224.725 34.1365 224.894 36C226.08 34.56 227.859 33.7976 229.638 33.8824 231.501 33.7976 233.195 34.6447 234.296 36.0847 235.482 37.6094 235.991 39.6424 235.991 42.3529L235.991 42.5224 236.075 42.5224ZM233.28 42.2682C233.365 40.7435 232.941 39.1341 232.094 37.8635 231.332 36.8471 230.146 36.1694 228.791 36.2541 227.181 36.1694 225.656 37.1012 224.979 38.5412L224.979 46.4188C225.741 47.8588 227.266 48.7059 228.875 48.7059 230.146 48.7059 231.332 48.1129 232.094 47.0965 232.941 45.5718 233.365 43.8776 233.28 42.2682Z" fill="#0F2535" transform="matrix(1 0 0 1.00168 833 122.212)"/><path d="M241.327 50.6541 238.532 50.6541 238.532 27.1906 241.327 27.1906 241.327 50.6541Z" fill="#0F2535" transform="matrix(1 0 0 1.00168 833 122.212)"/><path d="M243.784 42.1835C243.784 40.6588 244.122 39.2188 244.715 37.7788 245.308 36.5082 246.24 35.4918 247.341 34.8141 248.527 34.1365 249.882 33.7129 251.238 33.7976 253.271 33.7129 255.304 34.56 256.659 36.1694 258.099 37.8635 258.861 40.1506 258.776 42.3529L258.776 42.5224C258.776 44.0471 258.522 45.4871 257.845 46.8424 257.252 48.0282 256.32 49.1294 255.219 49.8071 254.033 50.5694 252.678 50.9082 251.322 50.9082 249.289 50.9929 247.256 50.1459 245.901 48.5365 244.461 46.8424 243.699 44.64 243.784 42.3529L243.784 42.1835ZM246.579 42.5224C246.494 44.1318 246.918 45.6565 247.849 46.9271 248.612 48.0282 249.882 48.6212 251.238 48.6212 252.593 48.6212 253.864 48.0282 254.626 46.9271 255.558 45.5718 255.981 43.8776 255.896 42.1835 255.981 40.5741 255.473 39.0494 254.626 37.7788 253.864 36.6776 252.593 36.0847 251.238 36.0847 249.882 36.0847 248.612 36.6776 247.849 37.7788 246.918 39.2188 246.494 40.9129 246.579 42.5224Z" fill="#0F2535" transform="matrix(1 0 0 1.00168 833 122.212)"/><path d="M266.061 46.5035 269.873 34.1365 272.922 34.1365 266.315 53.1953C265.299 55.9059 263.689 57.3459 261.402 57.3459L260.894 57.2612 259.878 57.0918 259.878 54.8047 260.64 54.8894C261.402 54.8894 262.249 54.72 262.842 54.2965 263.52 53.7035 263.944 53.0259 264.198 52.1788L264.791 50.4847 258.861 34.1365 261.911 34.1365 266.061 46.5035Z" fill="#0F2535" transform="matrix(1 0 0 1.00168 833 122.212)"/></g></svg>