<svg width="184" height="52" xmlns="http://www.w3.org/2000/svg" xmlns:xlink="http://www.w3.org/1999/xlink" xml:space="preserve" overflow="hidden"><g transform="translate(-255 -341)"><path d="M9.062 44.0266 10.304 39.7026C10.557 38.8516 9.913 38.2766 9.913 38.2766 8.096 36.4366 6.762 34.0446 6.141 31.4456 5.819 30.5486 4.991 30.3876 4.991 30.3876L3.197 29.8586 3.197 38.9206C3.197 42.2556 5.911 44.9696 9.246 44.9696 8.947 44.6936 9.062 44.0266 9.062 44.0266" fill="#E6E7E8" transform="matrix(1 0 0 1.01384 255 341)"/><path d="M30.245 16.2426 31.464 12.0336C31.464 12.0336 31.648 11.2516 31.234 11.0216L18.515 11.0216 17.94 12.9766C17.94 12.9766 17.733 13.7126 17.043 13.8506 14.214 14.4716 11.707 15.9436 9.752 17.9446 9.752 17.9446 9.2 18.4736 8.441 18.2436L4.278 17.0476C4.278 17.0476 3.772 16.8866 3.174 17.2316L3.174 29.8816 4.968 30.4106C4.968 30.4106 5.773 30.5946 6.118 31.4686 6.762 34.0676 8.073 36.4596 9.89 38.2996 9.89 38.2996 10.534 38.8746 10.281 39.7256L9.039 44.0496C9.039 44.0496 8.924 44.7166 9.246 45.0156L22.011 45.0156 22.54 43.1756C22.54 43.1756 22.747 42.4396 23.575 42.2096 26.128 41.6346 28.428 40.3236 30.291 38.5526 30.291 38.5526 30.889 37.8856 31.855 38.1386L36.202 39.4036C36.202 39.4036 36.731 39.5416 37.191 39.2886L37.191 26.4776 35.42 25.9716C35.42 25.9716 34.684 25.7646 34.5 24.9596 33.902 22.1306 32.476 19.6696 30.498 17.7146 30.521 17.6916 29.946 17.0016 30.245 16.2426" fill="#191D63" transform="matrix(1 0 0 1.01384 255 341)"/><path d="M14.559 10.9986C13.662 13.9196 10.948 16.0586 7.728 16.0586 6.21 16.0586 4.807 15.5756 3.657 14.7706 3.358 15.4836 3.197 16.2426 3.197 17.0476L3.197 17.1856C3.795 16.8406 4.301 17.0016 4.301 17.0016L8.464 18.1976C9.223 18.4276 9.775 17.8986 9.775 17.8986 11.707 15.8746 14.237 14.4256 17.066 13.8046 17.756 13.6666 17.963 12.9306 17.963 12.9306L18.538 10.9756 14.559 10.9986Z" fill="#F9A456" transform="matrix(1 0 0 1.01384 255 341)"/><path d="M31.464 12.0336 30.245 16.2426C29.946 17.0246 30.498 17.7146 30.498 17.7146 32.476 19.6696 33.902 22.1306 34.5 24.9596 34.707 25.7416 35.42 25.9716 35.42 25.9716L37.191 26.4776 37.191 17.0936C37.191 13.8046 34.546 11.1136 31.257 11.0446 31.648 11.2516 31.464 12.0336 31.464 12.0336" fill="#F2F3F3" transform="matrix(1 0 0 1.01384 255 341)"/><path d="M36.179 39.3806 31.832 38.1156C30.889 37.8626 30.268 38.5296 30.268 38.5296 28.428 40.2776 26.105 41.5886 23.552 42.1866 22.747 42.4166 22.517 43.1526 22.517 43.1526L21.988 44.9926 31.096 44.9926C34.316 44.9926 36.961 42.4626 37.145 39.2656 36.731 39.5186 36.179 39.3806 36.179 39.3806" fill="#797B7D" transform="matrix(1 0 0 1.01384 255 341)"/><path d="M3.657 14.7706C4.554 12.5626 6.739 10.9986 9.269 10.9986L14.559 10.9986C13.662 13.9196 10.948 16.0586 7.728 16.0586 6.21 16.0586 4.807 15.5986 3.657 14.7706L3.657 14.7706Z" fill="#FFE55E" transform="matrix(1 0 0 1.01384 255 341)"/><path d="M20.769 24.4306C20.769 24.4306 21.528 24.9136 22.057 24.3156L26.22 19.6926C26.22 19.6926 26.795 19.0716 27.485 19.5086L28.704 20.5666C28.704 20.5666 29.279 21.2106 28.75 21.8316L25.622 25.3506C25.622 25.3506 25.346 25.7876 25.415 26.0406 25.415 26.0406 25.484 26.6156 26.013 26.8686L26.818 27.2366C26.818 27.2366 27.577 27.6506 27.301 28.4096L26.726 29.6286C26.726 29.6286 26.312 30.3416 25.507 29.9966L23.414 28.9846C23.414 28.9846 22.793 28.6166 22.149 29.2606L15.226 36.9886C15.226 36.9886 14.812 37.5176 14.007 37.1726L12.719 36.0226C12.719 36.0226 12.282 35.4476 12.696 34.7806L18.63 28.1566C18.63 28.1566 19.412 27.2596 18.308 26.6156L13.915 24.5456C13.915 24.5456 13.179 24.2696 13.363 23.3726L13.961 22.1306C13.961 22.1306 14.444 21.4866 15.134 21.7856L20.769 24.4306Z" fill="#FFFFFF" transform="matrix(1 0 0 1.01384 255 341)"/><path d="M179.377 30.6406C180.32 29.9276 180.803 28.9386 180.803 27.6966 180.803 27.1216 180.688 26.6386 180.458 26.2476 180.228 25.8566 179.906 25.5116 179.469 25.2356 179.032 24.9596 178.48 24.7296 177.836 24.5226 177.192 24.3156 176.433 24.1086 175.559 23.9016 174.961 23.7636 174.455 23.6256 174.018 23.5106 173.604 23.3726 173.259 23.2346 172.983 23.0736 172.707 22.9126 172.5 22.7056 172.385 22.4986 172.27 22.2686 172.201 21.9926 172.201 21.6246 172.201 21.1876 172.293 20.8196 172.454 20.4976 172.615 20.1756 172.868 19.9226 173.167 19.7156 173.466 19.5086 173.811 19.3476 174.202 19.2556 174.593 19.1636 175.03 19.1176 175.49 19.1176 176.272 19.1176 177.008 19.2556 177.721 19.5086 178.434 19.7616 179.032 20.1526 179.538 20.6586L180.389 19.6236C179.883 19.0716 179.193 18.6346 178.342 18.2896 177.491 17.9446 176.571 17.7836 175.536 17.7836 174.846 17.7836 174.202 17.8756 173.581 18.0366 172.96 18.1976 172.431 18.4736 171.971 18.7956 171.511 19.1406 171.143 19.5546 170.89 20.0836 170.614 20.5896 170.499 21.1876 170.499 21.8546 170.499 22.3836 170.591 22.8206 170.775 23.1886 170.959 23.5336 171.235 23.8326 171.603 24.0856 171.971 24.3156 172.431 24.5456 173.006 24.7296 173.581 24.9136 174.248 25.0976 175.007 25.3046 175.674 25.4656 176.272 25.6036 176.778 25.7646 177.284 25.9026 177.698 26.0866 178.043 26.2706 178.388 26.4546 178.641 26.6846 178.802 26.9376 178.963 27.1906 179.055 27.5126 179.055 27.8806 179.055 28.6856 178.733 29.3066 178.089 29.7436 177.445 30.1806 176.571 30.4106 175.49 30.4106 174.593 30.4106 173.765 30.2496 172.983 29.9506 172.201 29.6516 171.442 29.1686 170.683 28.5476L169.878 29.7436C170.591 30.3876 171.465 30.8936 172.454 31.2386 173.443 31.5836 174.478 31.7446 175.513 31.7446 177.169 31.7216 178.434 31.3536 179.377 30.6406ZM158.01 37.1266C158.24 37.1496 158.424 37.1726 158.585 37.1956 158.746 37.1956 158.907 37.2186 159.068 37.2186 159.827 37.2186 160.425 37.0346 160.862 36.6666 161.299 36.2986 161.621 35.8616 161.805 35.3556L168.774 18.0136 167.095 18.0136 162.472 29.8356 157.504 18.0136 155.687 18.0136 161.552 31.4456C161.161 32.3656 160.862 33.1246 160.632 33.6536 160.425 34.2056 160.218 34.6196 160.057 34.9186 159.896 35.2176 159.712 35.4016 159.528 35.4936 159.344 35.5856 159.091 35.6316 158.792 35.6316 158.677 35.6316 158.539 35.6316 158.424 35.6086 158.286 35.6086 158.171 35.5856 158.033 35.5626L158.033 37.1266 158.01 37.1266ZM145.866 30.1346C145.475 29.9736 145.13 29.7666 144.854 29.5136 144.578 29.2376 144.348 28.9386 144.187 28.5706 144.026 28.2026 143.934 27.8116 143.934 27.4206 143.934 26.5696 144.325 25.9026 145.084 25.3736 145.866 24.8676 146.855 24.5916 148.097 24.5916 148.741 24.5916 149.385 24.6606 150.029 24.7756 150.65 24.8906 151.271 25.0746 151.846 25.2816L151.846 27.4666C151.846 27.6276 151.8 27.7886 151.731 27.9726 151.662 28.1566 151.547 28.3176 151.386 28.4786 150.995 29.0536 150.42 29.5136 149.638 29.8356 148.879 30.1806 148.028 30.3416 147.131 30.3416 146.694 30.3646 146.257 30.2956 145.866 30.1346ZM149.753 31.0776C150.696 30.6406 151.478 30.0196 152.099 29.2146L152.145 30.2726C152.168 30.6636 152.306 30.9856 152.536 31.1926 152.789 31.4226 153.134 31.5376 153.571 31.5376 153.732 31.5376 153.939 31.5146 154.238 31.4686L154.238 29.9276C153.801 29.9276 153.594 29.6976 153.594 29.2146L153.594 23.1426C153.594 21.4636 153.111 20.1756 152.145 19.2096 151.179 18.2666 149.868 17.7836 148.166 17.7836 146.464 17.7836 144.854 18.3586 143.106 19.5316L143.727 20.6816C144.463 20.1756 145.199 19.7616 145.912 19.4856 146.625 19.2096 147.338 19.0716 148.028 19.0716 149.224 19.0716 150.144 19.4166 150.811 20.1066 151.478 20.7966 151.823 21.7396 151.823 22.9356L151.823 24.1546C151.271 23.9246 150.65 23.7636 149.937 23.6486 149.224 23.5336 148.534 23.4646 147.844 23.4646 147.016 23.4646 146.257 23.5566 145.567 23.7636 144.877 23.9706 144.279 24.2466 143.796 24.5916 143.29 24.9596 142.899 25.3736 142.646 25.8796 142.37 26.3856 142.232 26.9146 142.232 27.5126 142.232 28.1106 142.347 28.6396 142.577 29.1456 142.807 29.6516 143.106 30.0886 143.52 30.4796 143.934 30.8476 144.394 31.1466 144.946 31.3766 145.498 31.5836 146.073 31.6986 146.717 31.6986 147.798 31.7216 148.81 31.4916 149.753 31.0776ZM134.573 29.6516 132.02 23.5106 134.32 18.0366 132.825 18.0366 131.077 22.4296 129.329 18.0366 127.857 18.0366 130.157 23.5106 127.604 29.6516 122.705 18.0136 120.98 18.0136 126.753 31.4456 128.202 31.4456 131.077 24.5916 133.975 31.4456 135.424 31.4456 141.197 18.0136 139.472 18.0136 134.573 29.6516ZM118.91 23.5796C118.91 22.7056 118.841 21.9006 118.703 21.1876 118.565 20.4746 118.335 19.8536 118.036 19.3476 117.737 18.8416 117.323 18.4506 116.794 18.1976 116.288 17.9216 115.644 17.7836 114.908 17.7836 113.712 17.7836 112.585 18.0826 111.573 18.6806 110.538 19.2786 109.756 20.0836 109.204 21.0496L109.204 18.0136 107.594 18.0136 107.594 31.4456 109.342 31.4456 109.342 23.2116C109.503 22.6596 109.756 22.1536 110.101 21.6706 110.446 21.1876 110.837 20.7966 111.274 20.4516 111.711 20.1066 112.194 19.8306 112.7 19.6466 113.206 19.4626 113.735 19.3706 114.241 19.3706 115.23 19.3706 115.943 19.7386 116.426 20.4516 116.909 21.1646 117.139 22.3376 117.139 23.9246L117.139 31.4456 118.887 31.4456 118.887 23.5796 118.91 23.5796ZM99.521 30.8476C100.533 30.2726 101.315 29.4676 101.913 28.4096L101.913 29.9506C101.913 30.4106 102.051 30.7786 102.304 31.0546 102.557 31.3306 102.902 31.4686 103.316 31.4916L103.592 31.4916C103.73 31.4916 103.891 31.4686 104.098 31.4456L104.098 29.9046C103.684 29.9046 103.477 29.6746 103.477 29.1916L103.477 18.0136 101.729 18.0136 101.729 26.4776C101.522 27.0526 101.246 27.5586 100.924 27.9956 100.579 28.4326 100.211 28.8236 99.797 29.1456 99.383 29.4676 98.923 29.7206 98.417 29.9046 97.911 30.0656 97.405 30.1576 96.899 30.1576 94.829 30.1576 93.771 28.6396 93.771 25.5806L93.771 17.9906 92.023 17.9906 92.023 25.8796C92.023 27.8116 92.391 29.2606 93.104 30.2266 93.817 31.1926 94.898 31.6756 96.37 31.6756 97.451 31.7216 98.509 31.4226 99.521 30.8476ZM77.418 14.7476 83.26 14.7476C83.766 14.7476 84.226 14.8626 84.686 15.0926 85.146 15.3226 85.537 15.6216 85.882 15.9896 86.227 16.3576 86.48 16.8176 86.687 17.3236 86.894 17.8296 86.986 18.3586 86.986 18.9106 86.986 19.4626 86.894 19.9916 86.733 20.4746 86.572 20.9806 86.319 21.4176 86.02 21.8086 85.721 22.1996 85.33 22.5216 84.893 22.7516 84.456 22.9816 83.973 23.0966 83.444 23.0966L77.464 23.0966 77.464 14.7476 77.418 14.7476ZM77.418 31.4456 77.418 24.6836 82.846 24.6836 87.147 31.4456 89.194 31.4456 84.709 24.3846C85.33 24.2696 85.882 24.0396 86.388 23.6946 86.894 23.3496 87.308 22.9356 87.676 22.4526 88.021 21.9696 88.297 21.4176 88.504 20.7966 88.711 20.1756 88.803 19.5546 88.803 18.8646 88.803 18.1746 88.665 17.4616 88.412 16.7716 88.136 16.0816 87.768 15.4606 87.285 14.9316 86.802 14.3796 86.227 13.9426 85.56 13.6206 84.893 13.2756 84.18 13.1146 83.375 13.1146L75.624 13.1146 75.624 31.4456 77.418 31.4456ZM61.249 31.4456 72.22 31.4456 72.22 30.1346 63.181 30.1346 72.243 19.1866 72.243 17.9906 61.456 17.9906 61.456 19.3016 70.334 19.3016 61.249 30.2496 61.249 31.4456 61.249 31.4456ZM44.252 19.5086C44.574 18.5886 45.011 17.7836 45.609 17.0476 46.184 16.3346 46.897 15.7366 47.748 15.2996 48.599 14.8626 49.519 14.6326 50.554 14.6326 51.589 14.6326 52.463 14.8396 53.291 15.2536 54.119 15.6676 54.832 16.2426 55.43 16.9326 56.028 17.6456 56.511 18.4506 56.833 19.3706 57.178 20.2906 57.339 21.2566 57.339 22.2456 57.339 23.2346 57.178 24.1316 56.856 25.0286 56.534 25.9486 56.097 26.7536 55.499 27.4896 54.924 28.2026 54.211 28.8006 53.36 29.2376 52.509 29.6746 51.589 29.9046 50.554 29.9046 49.519 29.9046 48.622 29.6976 47.794 29.2836 46.966 28.8696 46.253 28.2946 45.655 27.5816 45.057 26.8686 44.597 26.0406 44.252 25.1206 43.93 24.2006 43.769 23.2346 43.769 22.2456 43.769 21.3486 43.93 20.4286 44.252 19.5086ZM53.958 30.8246C55.016 30.3186 55.913 29.6286 56.672 28.7776 57.431 27.9266 58.029 26.9376 58.489 25.8336 58.926 24.7066 59.156 23.5566 59.156 22.3146 59.156 21.1646 58.949 20.0376 58.535 18.9106 58.121 17.8066 57.546 16.8176 56.787 15.9206 56.028 15.0466 55.131 14.3336 54.073 13.7816 53.015 13.2296 51.842 12.9766 50.577 12.9766 49.312 12.9766 48.231 13.2296 47.173 13.7356 46.115 14.2416 45.218 14.9316 44.436 15.7826 43.654 16.6336 43.056 17.6226 42.619 18.7496 42.182 19.8766 41.952 21.0266 41.952 22.2686 41.952 23.4416 42.159 24.5916 42.573 25.6956 42.987 26.8226 43.562 27.8116 44.321 28.6856 45.08 29.5596 45.977 30.2496 47.035 30.7786 48.093 31.3076 49.266 31.5606 50.531 31.5606 51.773 31.5836 52.923 31.3306 53.958 30.8246Z" fill="#231F20" transform="matrix(1 0 0 1.01384 255 341)"/><path d="M129.26 41.1976C129.053 41.1056 128.846 40.9676 128.685 40.7836 128.524 40.5996 128.386 40.3926 128.294 40.1626 128.202 39.9326 128.156 39.6796 128.156 39.4266 128.156 39.1966 128.202 38.9436 128.271 38.7136 128.34 38.4836 128.455 38.2766 128.616 38.0926 128.777 37.9086 128.938 37.7476 129.145 37.6556 129.352 37.5406 129.605 37.4946 129.881 37.4946 130.042 37.4946 130.226 37.5176 130.387 37.5866 130.548 37.6556 130.709 37.7246 130.87 37.8396 131.008 37.9546 131.146 38.0696 131.261 38.2076 131.376 38.3456 131.468 38.5066 131.537 38.6906L131.537 40.1856C131.514 40.3236 131.445 40.4846 131.353 40.6226 131.261 40.7606 131.123 40.8986 130.985 41.0136 130.847 41.1286 130.686 41.2206 130.502 41.2896 130.318 41.3586 130.134 41.3816 129.95 41.3816 129.72 41.3586 129.49 41.3126 129.26 41.1976ZM130.801 41.6116C131.123 41.4276 131.376 41.1976 131.56 40.8756L131.56 41.8186C131.56 42.0716 131.514 42.3016 131.422 42.5086 131.33 42.6926 131.215 42.8536 131.054 42.9916 130.893 43.1066 130.709 43.2216 130.502 43.2676 130.295 43.3366 130.065 43.3596 129.835 43.3596 129.467 43.3596 129.122 43.2906 128.823 43.1526 128.501 43.0146 128.248 42.7846 128.064 42.4626L127.673 42.7616C127.88 43.0836 128.156 43.3596 128.501 43.5666 128.846 43.7736 129.283 43.8656 129.835 43.8656 130.157 43.8656 130.456 43.8196 130.755 43.7276 131.031 43.6356 131.284 43.5206 131.514 43.3366 131.721 43.1526 131.905 42.9456 132.02 42.6926 132.135 42.4396 132.204 42.1406 132.204 41.8186L132.204 36.9886 131.629 36.9886 131.629 38.0006C131.422 37.6786 131.146 37.4256 130.847 37.2186 130.548 37.0116 130.18 36.9196 129.766 36.9196 129.444 36.9196 129.122 36.9886 128.846 37.1266 128.57 37.2646 128.34 37.4486 128.133 37.6786 127.926 37.9086 127.788 38.1616 127.673 38.4836 127.558 38.7826 127.512 39.1046 127.512 39.4496 127.512 39.7716 127.558 40.0706 127.673 40.3696 127.788 40.6686 127.949 40.9216 128.133 41.1516 128.34 41.3816 128.57 41.5656 128.846 41.7036 129.122 41.8416 129.421 41.9106 129.766 41.9106 130.134 41.8876 130.479 41.7956 130.801 41.6116ZM123.671 41.3586C123.533 41.3126 123.418 41.2206 123.303 41.1286 123.211 41.0366 123.119 40.9216 123.073 40.7836 123.004 40.6456 122.981 40.5076 122.981 40.3696 122.981 40.0706 123.119 39.8176 123.395 39.6336 123.671 39.4496 124.039 39.3576 124.476 39.3576 124.706 39.3576 124.936 39.3806 125.166 39.4266 125.396 39.4726 125.603 39.5416 125.81 39.6106L125.81 40.3926C125.81 40.4386 125.787 40.5076 125.764 40.5766 125.741 40.6456 125.695 40.6916 125.649 40.7606 125.511 40.9676 125.304 41.1286 125.028 41.2436 124.752 41.3586 124.453 41.4276 124.131 41.4276 123.947 41.4276 123.809 41.4046 123.671 41.3586ZM125.051 41.6806C125.396 41.5196 125.672 41.3126 125.879 41.0136L125.902 41.3816C125.902 41.5196 125.948 41.6346 126.04 41.7036 126.132 41.7726 126.247 41.8186 126.408 41.8186 126.454 41.8186 126.546 41.8186 126.638 41.7956L126.638 41.2436C126.477 41.2436 126.408 41.1516 126.408 40.9906L126.408 38.8286C126.408 38.2306 126.224 37.7706 125.902 37.4256 125.557 37.0806 125.074 36.9196 124.476 36.9196 123.878 36.9196 123.28 37.1266 122.659 37.5406L122.889 37.9546C123.165 37.7706 123.418 37.6326 123.671 37.5406 123.924 37.4486 124.177 37.4026 124.43 37.4026 124.844 37.4026 125.189 37.5176 125.419 37.7706 125.649 38.0236 125.787 38.3686 125.787 38.7826L125.787 39.2196C125.58 39.1506 125.373 39.0816 125.12 39.0356 124.867 38.9896 124.614 38.9666 124.361 38.9666 124.062 38.9666 123.786 39.0126 123.556 39.0816 123.303 39.1506 123.096 39.2426 122.912 39.3806 122.728 39.5186 122.59 39.6566 122.498 39.8406 122.406 40.0246 122.36 40.2086 122.36 40.4156 122.36 40.6226 122.406 40.8296 122.475 41.0136 122.544 41.1976 122.659 41.3586 122.82 41.4966 122.958 41.6346 123.142 41.7496 123.326 41.8186 123.51 41.8876 123.74 41.9336 123.97 41.9336 124.361 41.9106 124.729 41.8416 125.051 41.6806ZM119.623 35.8156C119.784 35.8156 119.922 35.8386 120.037 35.9076 120.175 35.9766 120.29 36.0686 120.382 36.1606 120.474 36.2756 120.543 36.3906 120.612 36.5516 120.658 36.6896 120.681 36.8506 120.681 37.0116 120.681 37.1726 120.658 37.3336 120.589 37.4716 120.543 37.6096 120.451 37.7476 120.359 37.8626 120.267 37.9776 120.152 38.0696 120.014 38.1386 119.876 38.2076 119.715 38.2306 119.577 38.2306L117.323 38.2306 117.323 35.8156 119.623 35.8156ZM120.865 40.4846C120.796 40.6456 120.727 40.7606 120.612 40.8756 120.497 40.9906 120.382 41.0826 120.244 41.1516 120.106 41.2206 119.945 41.2436 119.784 41.2436L117.346 41.2436 117.346 38.7596 119.83 38.7596C119.991 38.7596 120.129 38.8056 120.267 38.8746 120.405 38.9436 120.52 39.0356 120.635 39.1506 120.727 39.2656 120.819 39.4036 120.865 39.5416 120.911 39.7026 120.957 39.8406 120.957 40.0016 120.957 40.1856 120.934 40.3236 120.865 40.4846ZM121.279 39.0816C121.049 38.7826 120.773 38.5756 120.382 38.4606 120.681 38.3226 120.911 38.1156 121.072 37.8396 121.233 37.5636 121.325 37.2646 121.325 36.9196 121.325 36.7126 121.279 36.5056 121.21 36.3216 121.141 36.1146 121.049 35.9536 120.911 35.7926 120.773 35.6316 120.635 35.5166 120.451 35.4016 120.267 35.3096 120.06 35.2636 119.83 35.2636L116.679 35.2636 116.679 41.8186 119.784 41.8186C120.037 41.8186 120.267 41.7726 120.497 41.7036 120.727 41.6116 120.911 41.4966 121.072 41.3586 121.233 41.1976 121.371 41.0366 121.463 40.8296 121.555 40.6226 121.601 40.3926 121.601 40.1396 121.601 39.7256 121.486 39.3806 121.279 39.0816ZM113.114 41.0826C113.068 41.1056 112.999 41.1516 112.861 41.1976 112.723 41.2666 112.562 41.2896 112.401 41.2896 112.263 41.2896 112.125 41.2436 112.01 41.1746 111.895 41.0826 111.826 40.9676 111.826 40.7836L111.826 37.5176 112.93 37.5176 112.93 37.0116 111.826 37.0116 111.826 35.3786 111.205 35.3786 111.205 37.0116 110.538 37.0116 110.538 37.5176 111.205 37.5176 111.205 40.9676C111.205 41.1286 111.228 41.2666 111.297 41.3816 111.343 41.4966 111.435 41.5886 111.527 41.6806 111.619 41.7496 111.734 41.8186 111.849 41.8416 111.964 41.8876 112.102 41.8876 112.24 41.8876 112.378 41.8876 112.493 41.8646 112.608 41.8416 112.723 41.8186 112.838 41.7956 112.93 41.7496 113.022 41.7266 113.114 41.6806 113.183 41.6576 113.252 41.6346 113.298 41.6116 113.344 41.5886L113.114 41.0826ZM109.595 39.0126C109.595 38.7136 109.572 38.4146 109.503 38.1616 109.457 37.9086 109.365 37.6786 109.227 37.4946 109.112 37.3106 108.951 37.1726 108.767 37.0806 108.583 36.9886 108.353 36.9196 108.054 36.9196 107.663 36.9196 107.295 37.0346 106.95 37.2416 106.605 37.4486 106.352 37.7476 106.145 38.0926L106.145 35.0796 105.524 35.0796 105.524 41.8186 106.145 41.8186 106.145 38.8746C106.191 38.6676 106.283 38.5066 106.398 38.3226 106.513 38.1616 106.651 38.0006 106.789 37.8856 106.95 37.7706 107.111 37.6556 107.272 37.5866 107.456 37.5176 107.617 37.4716 107.801 37.4716 108.169 37.4716 108.445 37.6096 108.629 37.8856 108.813 38.1616 108.905 38.5756 108.905 39.1046L108.905 41.7956 109.526 41.7956 109.526 39.0126 109.595 39.0126ZM101.177 41.1976C100.97 41.1056 100.763 40.9676 100.602 40.7836 100.441 40.5996 100.303 40.3926 100.211 40.1626 100.119 39.9326 100.073 39.6796 100.073 39.4266 100.073 39.1966 100.119 38.9436 100.188 38.7136 100.257 38.4836 100.372 38.2766 100.533 38.0926 100.671 37.9086 100.855 37.7476 101.062 37.6556 101.269 37.5406 101.522 37.4946 101.798 37.4946 101.959 37.4946 102.143 37.5176 102.304 37.5866 102.465 37.6556 102.626 37.7246 102.787 37.8396 102.925 37.9546 103.063 38.0696 103.178 38.2076 103.293 38.3456 103.385 38.5066 103.454 38.6906L103.454 40.1856C103.431 40.3236 103.362 40.4846 103.27 40.6226 103.178 40.7606 103.04 40.8986 102.902 41.0136 102.764 41.1286 102.603 41.2206 102.419 41.2896 102.235 41.3586 102.051 41.3816 101.867 41.3816 101.637 41.3586 101.407 41.3126 101.177 41.1976ZM102.718 41.6116C103.04 41.4276 103.293 41.1976 103.477 40.8756L103.477 41.8186C103.477 42.0716 103.431 42.3016 103.339 42.5086 103.247 42.6926 103.132 42.8536 102.971 42.9916 102.81 43.1066 102.626 43.2216 102.419 43.2676 102.212 43.3366 101.982 43.3596 101.752 43.3596 101.384 43.3596 101.039 43.2906 100.74 43.1526 100.418 43.0146 100.165 42.7846 99.981 42.4626L99.59 42.7616C99.797 43.0836 100.073 43.3596 100.418 43.5666 100.763 43.7736 101.2 43.8656 101.752 43.8656 102.074 43.8656 102.373 43.8196 102.672 43.7276 102.948 43.6356 103.201 43.5206 103.431 43.3366 103.638 43.1526 103.822 42.9456 103.937 42.6926 104.052 42.4396 104.121 42.1406 104.121 41.8186L104.121 36.9886 103.546 36.9886 103.546 38.0006C103.339 37.6786 103.063 37.4256 102.764 37.2186 102.465 37.0116 102.097 36.9196 101.683 36.9196 101.361 36.9196 101.039 36.9886 100.763 37.1266 100.487 37.2646 100.257 37.4486 100.05 37.6786 99.843 37.9086 99.705 38.1616 99.59 38.4836 99.475 38.7826 99.429 39.1046 99.429 39.4496 99.429 39.7716 99.475 40.0706 99.59 40.3696 99.705 40.6686 99.866 40.9216 100.05 41.1516 100.257 41.3816 100.487 41.5656 100.763 41.7036 101.039 41.8416 101.338 41.9106 101.683 41.9106 102.074 41.8876 102.396 41.7956 102.718 41.6116ZM98.325 35.9996 98.325 35.0796 97.704 35.0796 97.704 35.9996 98.325 35.9996ZM98.325 41.8186 98.325 37.0116 97.704 37.0116 97.704 41.8186 98.325 41.8186ZM95.151 40.9446C95.151 41.2436 95.243 41.4736 95.404 41.6346 95.565 41.7956 95.795 41.8876 96.094 41.8876 96.209 41.8876 96.37 41.8646 96.531 41.8416 96.692 41.8186 96.853 41.7726 96.968 41.7266L96.853 41.2206C96.784 41.2436 96.692 41.2666 96.6 41.2896 96.508 41.3126 96.416 41.3126 96.37 41.3126 96.186 41.3126 96.048 41.2666 95.956 41.1516 95.864 41.0596 95.818 40.8986 95.818 40.7376L95.818 35.0796 95.197 35.0796 95.197 40.9446 95.151 40.9446ZM90.39 41.8186 90.39 38.7826 93.472 38.7826 93.472 38.2536 90.39 38.2536 90.39 35.8386 94.047 35.8386 94.047 35.2636 89.746 35.2636 89.746 41.8186 90.39 41.8186ZM81.903 40.3696C82.018 40.6686 82.202 40.9446 82.409 41.1746 82.616 41.4046 82.869 41.5886 83.168 41.7266 83.467 41.8646 83.789 41.9336 84.134 41.9336 84.364 41.9336 84.571 41.9106 84.801 41.8416 85.008 41.7726 85.215 41.7036 85.376 41.5886 85.56 41.4736 85.698 41.3586 85.836 41.2206 85.974 41.0826 86.066 40.9216 86.135 40.7376L85.514 40.5536C85.468 40.6686 85.422 40.7606 85.33 40.8756 85.238 40.9676 85.123 41.0596 85.008 41.1286 84.87 41.1976 84.732 41.2666 84.594 41.3126 84.433 41.3586 84.295 41.3816 84.134 41.3816 83.904 41.3816 83.674 41.3356 83.444 41.2206 83.237 41.1286 83.053 40.9906 82.892 40.8066 82.731 40.6226 82.616 40.4156 82.524 40.1856 82.432 39.9556 82.386 39.6796 82.386 39.4266 82.386 39.1506 82.432 38.8976 82.524 38.6676 82.616 38.4376 82.731 38.2306 82.892 38.0696 83.053 37.9086 83.237 37.7706 83.444 37.6786 83.651 37.5866 83.881 37.5406 84.134 37.5406 84.433 37.5406 84.709 37.6096 84.939 37.7476 85.192 37.8856 85.376 38.0696 85.514 38.3226L86.135 38.1386C85.951 37.7936 85.698 37.5176 85.376 37.3106 85.031 37.1036 84.64 37.0116 84.18 37.0116 83.812 37.0116 83.49 37.0806 83.191 37.1956 82.892 37.3336 82.639 37.4946 82.432 37.7246 82.225 37.9546 82.064 38.2076 81.949 38.5066 81.834 38.8056 81.765 39.1276 81.765 39.4726 81.719 39.7486 81.788 40.0706 81.903 40.3696ZM80.615 35.9996 80.615 35.0796 79.994 35.0796 79.994 35.9996 80.615 35.9996ZM80.615 41.8186 80.615 37.0116 79.994 37.0116 79.994 41.8186 80.615 41.8186ZM78.568 39.0126C78.568 38.6906 78.545 38.4146 78.499 38.1616 78.453 37.9086 78.361 37.6786 78.269 37.4946 78.154 37.3106 78.016 37.1726 77.832 37.0806 77.648 36.9886 77.418 36.9426 77.165 36.9426 76.728 36.9426 76.337 37.0576 75.969 37.2646 75.601 37.4716 75.325 37.7706 75.118 38.1156L75.118 37.0346 74.543 37.0346 74.543 41.8416 75.164 41.8416 75.164 38.8976C75.21 38.6906 75.302 38.5066 75.44 38.3456 75.555 38.1846 75.693 38.0236 75.854 37.9086 76.015 37.7936 76.176 37.6786 76.36 37.6326 76.544 37.5636 76.728 37.5406 76.912 37.5406 77.257 37.5406 77.533 37.6786 77.694 37.9316 77.855 38.1846 77.947 38.5986 77.947 39.1736L77.947 41.8646 78.568 41.8646 78.568 39.0126 78.568 39.0126ZM69.414 38.6676C69.506 38.4376 69.644 38.2306 69.782 38.0466 69.943 37.8626 70.127 37.7246 70.334 37.6326 70.541 37.5406 70.771 37.4716 71.001 37.4716 71.231 37.4716 71.461 37.5176 71.691 37.6326 71.898 37.7246 72.082 37.8626 72.243 38.0466 72.404 38.2306 72.519 38.4376 72.611 38.6676 72.703 38.8976 72.749 39.1506 72.749 39.4266 72.749 39.7026 72.703 39.9556 72.611 40.1856 72.519 40.4156 72.381 40.6226 72.243 40.8066 72.082 40.9906 71.898 41.1286 71.691 41.2206 71.484 41.3126 71.254 41.3816 71.001 41.3816 70.771 41.3816 70.541 41.3356 70.311 41.2436 70.104 41.1516 69.92 41.0136 69.759 40.8296 69.598 40.6456 69.483 40.4616 69.391 40.2086 69.299 39.9786 69.253 39.7256 69.253 39.4496 69.276 39.1736 69.322 38.9206 69.414 38.6676ZM71.99 41.7036C72.289 41.5656 72.542 41.3816 72.749 41.1746 72.956 40.9446 73.117 40.6916 73.232 40.3696 73.347 40.0706 73.416 39.7486 73.416 39.4266 73.416 39.0816 73.347 38.7596 73.232 38.4606 73.117 38.1616 72.956 37.8856 72.726 37.6556 72.519 37.4256 72.266 37.2416 71.967 37.1036 71.668 36.9656 71.346 36.8966 71.001 36.8966 70.656 36.8966 70.334 36.9656 70.058 37.1036 69.759 37.2416 69.529 37.4256 69.299 37.6556 69.092 37.8856 68.931 38.1386 68.793 38.4606 68.678 38.7596 68.609 39.0816 68.609 39.4266 68.609 39.7486 68.678 40.0706 68.793 40.3696 68.908 40.6686 69.069 40.9446 69.276 41.1746 69.483 41.4046 69.736 41.5886 70.035 41.7036 70.334 41.8416 70.656 41.9106 71.001 41.9106 71.369 41.9106 71.691 41.8416 71.99 41.7036ZM68.31 36.9886 68.195 36.9886C67.85 36.9886 67.528 37.1036 67.229 37.3106 66.93 37.5176 66.677 37.8166 66.516 38.1846L66.516 37.0346 65.918 37.0346 65.918 41.8416 66.539 41.8416 66.539 38.8516C66.677 38.4606 66.884 38.1616 67.206 37.9316 67.528 37.7016 67.896 37.5866 68.31 37.5866L68.31 36.9886 68.31 36.9886ZM64.883 41.0826C64.837 41.1056 64.768 41.1516 64.63 41.1976 64.492 41.2666 64.331 41.2896 64.17 41.2896 64.032 41.2896 63.894 41.2436 63.779 41.1746 63.664 41.0826 63.595 40.9676 63.595 40.7836L63.595 37.5176 64.699 37.5176 64.699 37.0116 63.595 37.0116 63.595 35.3786 62.974 35.3786 62.974 37.0116 62.307 37.0116 62.307 37.5176 62.974 37.5176 62.974 40.9676C62.974 41.1286 62.997 41.2666 63.066 41.3816 63.112 41.4966 63.204 41.5886 63.296 41.6806 63.388 41.7496 63.503 41.8186 63.618 41.8416 63.733 41.8876 63.871 41.8876 64.009 41.8876 64.147 41.8876 64.262 41.8646 64.377 41.8416 64.492 41.8186 64.607 41.7956 64.699 41.7496 64.791 41.7266 64.883 41.6806 64.952 41.6576 65.021 41.6346 65.067 41.6116 65.113 41.5886L64.883 41.0826ZM57.454 40.3696C57.569 40.6686 57.753 40.9446 57.96 41.1746 58.167 41.4046 58.42 41.5886 58.719 41.7266 59.018 41.8646 59.34 41.9336 59.685 41.9336 59.915 41.9336 60.122 41.9106 60.352 41.8416 60.582 41.7726 60.766 41.7036 60.927 41.5886 61.111 41.4736 61.249 41.3586 61.387 41.2206 61.525 41.0826 61.617 40.9216 61.686 40.7376L61.065 40.5536C61.019 40.6686 60.973 40.7606 60.881 40.8756 60.789 40.9676 60.674 41.0596 60.559 41.1286 60.421 41.1976 60.283 41.2666 60.145 41.3126 59.984 41.3586 59.846 41.3816 59.685 41.3816 59.455 41.3816 59.225 41.3356 58.995 41.2206 58.788 41.1286 58.604 40.9906 58.443 40.8066 58.282 40.6226 58.167 40.4156 58.075 40.1856 57.983 39.9556 57.937 39.6796 57.937 39.4266 57.937 39.1506 57.983 38.8976 58.075 38.6676 58.167 38.4376 58.282 38.2306 58.443 38.0696 58.604 37.9086 58.788 37.7706 58.995 37.6786 59.202 37.5866 59.432 37.5406 59.685 37.5406 59.984 37.5406 60.26 37.6096 60.49 37.7476 60.743 37.8856 60.927 38.0696 61.065 38.3226L61.686 38.1386C61.502 37.7936 61.249 37.5176 60.927 37.3106 60.582 37.1036 60.191 37.0116 59.731 37.0116 59.363 37.0116 59.041 37.0806 58.742 37.1956 58.443 37.3336 58.19 37.4946 57.983 37.7246 57.776 37.9546 57.615 38.2076 57.5 38.5066 57.385 38.8056 57.316 39.1276 57.316 39.4726 57.27 39.7486 57.339 40.0706 57.454 40.3696ZM52.44 39.1506C52.463 38.8976 52.509 38.6676 52.601 38.4376 52.693 38.2306 52.831 38.0466 52.969 37.8856 53.13 37.7246 53.314 37.6096 53.521 37.5176 53.728 37.4256 53.958 37.3796 54.188 37.3796 54.418 37.3796 54.648 37.4256 54.855 37.5176 55.062 37.6096 55.246 37.7246 55.407 37.8856 55.568 38.0466 55.683 38.2306 55.798 38.4376 55.89 38.6446 55.959 38.8746 55.982 39.1506L52.44 39.1506ZM54.878 41.8186C55.085 41.7496 55.292 41.6806 55.476 41.5656 55.66 41.4506 55.821 41.3356 55.936 41.1976 56.074 41.0596 56.166 40.8986 56.258 40.7146L55.706 40.5766C55.66 40.7146 55.568 40.8296 55.476 40.9216 55.361 41.0366 55.246 41.1286 55.131 41.1976 54.993 41.2666 54.855 41.3356 54.717 41.3816 54.556 41.4276 54.418 41.4506 54.257 41.4506 54.027 41.4506 53.797 41.4046 53.59 41.3126 53.383 41.2206 53.199 41.1056 53.038 40.9446 52.877 40.7836 52.739 40.5996 52.647 40.3696 52.555 40.1396 52.486 39.9096 52.463 39.6566L56.58 39.6566 56.58 39.4266C56.58 39.1046 56.511 38.7826 56.396 38.4836 56.281 38.1846 56.12 37.9316 55.913 37.7016 55.706 37.4716 55.453 37.2876 55.154 37.1726 54.855 37.0346 54.533 36.9656 54.188 36.9656 53.843 36.9656 53.521 37.0346 53.222 37.1726 52.923 37.3106 52.67 37.4946 52.463 37.7016 52.256 37.9316 52.095 38.1846 51.957 38.4836 51.842 38.7826 51.773 39.1046 51.773 39.4496 51.773 39.7946 51.842 40.1166 51.957 40.4156 52.072 40.7146 52.256 40.9906 52.463 41.2206 52.67 41.4506 52.923 41.6346 53.222 41.7726 53.521 41.9106 53.843 41.9796 54.188 41.9796 54.441 41.9106 54.648 41.8876 54.878 41.8186ZM49.565 40.9446C49.565 41.2436 49.657 41.4736 49.818 41.6346 49.979 41.7956 50.209 41.8876 50.508 41.8876 50.623 41.8876 50.784 41.8646 50.945 41.8416 51.106 41.8186 51.267 41.7726 51.382 41.7266L51.267 41.2206C51.198 41.2436 51.106 41.2666 51.014 41.2896 50.922 41.3126 50.83 41.3126 50.784 41.3126 50.6 41.3126 50.462 41.2666 50.37 41.1516 50.278 41.0596 50.232 40.8986 50.232 40.7376L50.232 35.0796 49.611 35.0796 49.611 40.9446 49.565 40.9446ZM44.62 41.2436 44.62 38.7366 47.84 38.7366 47.84 38.1846 44.62 38.1846 44.62 35.8156 48.3 35.8156 48.3 35.2406 43.976 35.2406 43.976 41.7956 48.392 41.7956 48.392 41.2206 44.62 41.2206 44.62 41.2436Z" fill="#231F20" transform="matrix(1 0 0 1.01384 255 341)"/></g></svg>