<svg id="Layer_1" enable-background="new 0 0 512 512" viewBox="0 0 512 512" xmlns="http://www.w3.org/2000/svg"><path clip-rule="evenodd" d="m229.214 473.45c4.424 9.63 16.611 16.55 30.955 16.55s26.531-6.92 30.955-16.55zm109.006-443.45v44.944c13.869-.011 14.381-6.628 26.446-6.628 14.642 0 26.513 11.87 26.513 26.514 0 14.642-11.87 26.513-26.513 26.513-12.065 0-12.577-6.618-26.446-6.629v36.944l44.911.033c-.011 13.869-6.629 14.381-6.629 26.446 0 14.642 11.87 26.513 26.513 26.513s26.513-11.87 26.513-26.513c0-12.065-6.617-12.577-6.628-26.446l44.724-.033c-4.1-67.892-60.419-121.658-129.404-121.658zm-254.079 318.436c-3.814 2.192-8.683.876-10.875-2.938s-.876-8.683 2.938-10.875l36.867-21.285c3.814-2.192 8.683-.876 10.875 2.938s.877 8.683-2.938 10.875zm168.027-318.436c0-4.418 3.582-8 8-8s8 3.582 8 8v42.571c0 4.418-3.582 8-8 8s-8-3.582-8-8zm-102.777 31.766c-2.192-3.814-.876-8.683 2.938-10.875s8.683-.876 10.875 2.938l21.285 36.867c2.192 3.814.876 8.683-2.938 10.875s-8.683.876-10.875-2.938zm-73.121 78.945c-3.814-2.192-5.129-7.061-2.938-10.875 2.192-3.814 7.061-5.129 10.875-2.938l36.868 21.285c3.814 2.192 5.129 7.061 2.938 10.875-2.192 3.814-7.061 5.129-10.875 2.938zm-23.894 104.947c-4.418 0-8-3.582-8-8s3.582-8 8-8h42.571c4.418 0 8 3.582 8 8s-3.582 8-8 8zm78.447 0c4.067 67.949 59.271 90.89 64.194 146.332.118-.005.237-.008.356-.008h56.727v-60.213c-7.288 2.917-9.501 5.23-18.446 5.23-19.059 0-34.513-15.454-34.513-34.513s15.454-34.513 34.513-34.513c8.944 0 11.159 2.314 18.446 5.231v-27.547h-36.91c-4.418 0-8-3.582-8-8 0-15.798 6.627-17.171 6.627-26.479 0-10.226-8.287-18.512-18.513-18.512s-18.513 8.286-18.513 18.512c0 9.308 6.629 10.68 6.629 26.479 0 4.418-3.582 8-8 8h-44.597zm194.488 146.332c-.115-.005-.231-.008-.348-.008h-56.863v-69.577c0-4.418-3.582-8-8-8-15.799 0-17.171 6.629-26.479 6.629-10.226 0-18.512-8.287-18.512-18.513s8.287-18.513 18.512-18.513c9.308 0 10.681 6.627 26.479 6.627 4.418 0 8-3.582 8-8v-36.91h27.546c-2.917 7.287-5.231 9.502-5.231 18.446 0 19.059 15.454 34.513 34.513 34.513s34.513-15.454 34.513-34.513c0-8.945-2.314-11.158-5.23-18.446h35.301c-4.067 68.487-59.335 90.12-64.201 146.265zm-73.143-283.668v44.657c0 4.418 3.582 8 8 8 15.799 0 17.171-6.629 26.479-6.629 10.226 0 18.513 8.287 18.513 18.513s-8.286 18.513-18.513 18.513c-9.308 0-10.681-6.627-26.479-6.627-4.418 0-8 3.582-8 8v36.91h-27.547c2.917-7.287 5.231-9.502 5.231-18.446 0-19.059-15.454-34.513-34.513-34.513s-34.513 15.454-34.513 34.513c0 8.945 2.314 11.158 5.23 18.446h-35.226c3.973-65.196 56.143-117.365 121.338-121.337zm61.441 349.128c4.999-4.331 8.686-10.142 10.357-16.734h-127.596c1.672 6.592 5.358 12.403 10.357 16.734zm11.354-32.734v-16.734h-129.59v16.734z" fill-rule="evenodd"/></svg>