<svg width="187" height="54" xmlns="http://www.w3.org/2000/svg" xmlns:xlink="http://www.w3.org/1999/xlink" xml:space="preserve" overflow="hidden"><defs><clipPath id="clip0"><rect x="61" y="450" width="187" height="54"/></clipPath></defs><g clip-path="url(#clip0)" transform="translate(-61 -450)"><path d="M20.5877 23.1429 16.9009 23.1429 16.9009 32.0009 25.7589 32.0009 25.7589 28.3141 33.1325 34.2154 25.7589 40.4939C25.7589 40.4939 25.7102 36.8071 25.7589 36.8071 25.9658 36.8071 15.1365 36.8071 15.0635 36.8071 12.8125 36.8071 11.7418 36.0649 11.7418 33.1203L11.7418 23.1672 8.05498 23.1672 14.3457 15.8544 20.5998 23.1672 20.5998 23.1672 20.5998 23.1429Z" fill="#231F20" transform="matrix(1.00908 0 0 1 62.0953 450)"/><path d="M66.1798 33.2785 66.1798 23.6052 66.119 23.6052C65.5958 24.2988 64.9022 24.8585 64.0261 25.26 63.1501 25.6616 62.2132 25.8684 61.2154 25.8684 59.9743 25.8684 58.8792 25.6251 57.9301 25.1505 56.9811 24.676 56.178 24.0311 55.521 23.228 54.8761 22.4371 54.365 21.5124 54.0243 20.4538 53.6836 19.3952 53.5011 18.3123 53.5011 17.1807 53.5011 16.0491 53.6836 14.954 54.0365 13.9198 54.4015 12.8855 54.9004 11.973 55.5696 11.1821 56.2267 10.3912 57.0297 9.77062 57.9788 9.30825 58.9279 8.84588 59.9865 8.61469 61.1546 8.61469 62.3227 8.61469 63.4178 8.85804 64.2938 9.35692 65.1699 9.85579 65.8635 10.4155 66.3623 11.0726L66.4597 11.0726 66.4597 9.07706 71.4971 9.07706 71.4971 33.2785 66.1798 33.2785ZM66.3745 17.2172C66.3745 16.694 66.2772 16.183 66.0946 15.6719 65.9121 15.1731 65.6444 14.7228 65.3159 14.3335 64.9874 13.9441 64.5737 13.6278 64.0991 13.3844 63.6246 13.1411 63.0771 13.0194 62.4687 13.0194 61.8603 13.0194 61.2884 13.1411 60.8139 13.3844 60.3393 13.6278 59.9378 13.932 59.6093 14.3213 59.2808 14.6985 59.0374 15.1487 58.8792 15.6476 58.721 16.1465 58.6359 16.6697 58.6359 17.1929 58.6359 17.7161 58.721 18.2393 58.8792 18.7503 59.0374 19.2614 59.2808 19.7116 59.6093 20.1131 59.9378 20.5025 60.3393 20.8188 60.8139 21.0622 61.2884 21.3055 61.8481 21.4272 62.4687 21.4272 63.0892 21.4272 63.6246 21.3055 64.0991 21.0622 64.5737 20.8188 64.9874 20.5025 65.3159 20.1131 65.6566 19.7237 65.9121 19.2735 66.0946 18.7747 66.2772 18.2758 66.3745 17.7526 66.3745 17.2294L66.3745 17.2294Z" fill="#231F20" transform="matrix(1.00908 0 0 1 62.0953 450)"/><path d="M85.0397 25.4182 85.0397 23.155 84.9788 23.155C84.7841 23.5322 84.5286 23.8729 84.2123 24.2014 83.8959 24.53 83.5309 24.8098 83.105 25.0532 82.6791 25.2965 82.2168 25.4912 81.7057 25.6372 81.1947 25.7832 80.6593 25.8684 80.0996 25.8684 79.0167 25.8684 78.0919 25.6737 77.3497 25.2844 76.5953 24.895 75.9869 24.384 75.5246 23.7634 75.0622 23.1429 74.7215 22.425 74.5146 21.6341 74.3078 20.8432 74.2105 20.0279 74.2105 19.1884L74.2105 9.08923 79.5764 9.08923 79.5764 17.9351C79.5764 18.3975 79.6129 18.8355 79.6737 19.2492 79.7346 19.6629 79.8684 20.0401 80.0509 20.3686 80.2334 20.6972 80.4768 20.9527 80.781 21.1352 81.0852 21.3177 81.4867 21.4151 81.9856 21.4151 82.9225 21.4151 83.6282 21.0622 84.1149 20.3686 84.6016 19.6751 84.845 18.8477 84.845 17.9108L84.845 9.08923 90.1744 9.08923 90.1744 25.4182 85.0397 25.4182 85.0397 25.4182Z" fill="#231F20" transform="matrix(1.00908 0 0 1 62.0953 450)"/><path d="M110.215 17.1929C110.215 18.5313 109.971 19.7359 109.497 20.8188 109.022 21.9018 108.365 22.8143 107.55 23.5687 106.722 24.3231 105.773 24.9072 104.69 25.3209 103.607 25.7346 102.439 25.9414 101.21 25.9414 99.9815 25.9414 98.8378 25.7346 97.7427 25.3209 96.6476 24.9072 95.6985 24.3231 94.8833 23.5687 94.068 22.8143 93.4232 21.9018 92.9486 20.8188 92.4741 19.7359 92.2307 18.5313 92.2307 17.1929 92.2307 15.8544 92.4741 14.662 92.9486 13.5913 93.4232 12.5205 94.068 11.6079 94.8833 10.8657 95.6985 10.1235 96.6476 9.5516 97.7427 9.16224 98.8378 8.77287 99.9937 8.57819 101.21 8.57819 102.427 8.57819 103.607 8.77287 104.69 9.16224 105.773 9.5516 106.735 10.1235 107.55 10.8657 108.377 11.6079 109.022 12.5205 109.497 13.5913 109.971 14.662 110.215 15.8666 110.215 17.1929ZM105.08 17.1929C105.08 16.6697 104.995 16.1586 104.812 15.6476 104.642 15.1487 104.386 14.6985 104.058 14.3213 103.729 13.9441 103.328 13.6278 102.853 13.3844 102.379 13.1411 101.819 13.0194 101.198 13.0194 100.578 13.0194 100.018 13.1411 99.5435 13.3844 99.0689 13.6278 98.6674 13.932 98.3511 14.3213 98.0347 14.6985 97.8035 15.1487 97.6332 15.6476 97.4628 16.1465 97.3898 16.6697 97.3898 17.1929 97.3898 17.7161 97.475 18.2271 97.6332 18.7382 97.7914 19.2492 98.0347 19.6994 98.3632 20.1009 98.6918 20.5025 99.0933 20.831 99.5678 21.0622 100.042 21.3055 100.602 21.4272 101.223 21.4272 101.843 21.4272 102.403 21.3055 102.877 21.0622 103.352 20.8188 103.753 20.5025 104.082 20.1009 104.411 19.6994 104.654 19.2492 104.812 18.7382 104.97 18.2393 105.055 17.7161 105.055 17.1929L105.08 17.1929Z" fill="#231F20" transform="matrix(1.00908 0 0 1 62.0953 450)"/><path d="M118.087 13.0924 118.087 19.3466C118.087 20.1131 118.233 20.685 118.525 21.0744 118.817 21.4637 119.34 21.6462 120.107 21.6462 120.374 21.6462 120.642 21.6219 120.934 21.5854 121.226 21.5489 121.47 21.4759 121.664 21.3907L121.725 25.3209C121.36 25.4547 120.898 25.5642 120.326 25.6616 119.754 25.7589 119.194 25.8076 118.635 25.8076 117.552 25.8076 116.639 25.6737 115.897 25.3939 115.155 25.1262 114.571 24.7247 114.12 24.2136 113.67 23.7026 113.354 23.082 113.159 22.3763 112.964 21.6584 112.867 20.8675 112.867 19.9914L112.867 13.0924 110.263 13.0924 110.263 9.08923 112.831 9.08923 112.831 4.79405 118.063 4.79405 118.063 9.08923 121.871 9.08923 121.871 13.0924 118.075 13.0924 118.075 13.0924Z" fill="#231F20" transform="matrix(1.00908 0 0 1 62.0953 450)"/><path d="M139.161 17.4484 139.161 18.1055C139.161 18.3245 139.161 18.5313 139.125 18.726L127.383 18.726C127.42 19.1884 127.566 19.6021 127.785 19.9671 128.016 20.3443 128.308 20.6607 128.661 20.9283 129.014 21.196 129.415 21.4151 129.865 21.5732 130.303 21.7192 130.778 21.8044 131.24 21.8044 132.092 21.8044 132.798 21.6462 133.394 21.3299 133.978 21.0135 134.452 20.5998 134.83 20.1009L138.541 22.4615C137.786 23.5809 136.776 24.4326 135.535 25.0288 134.294 25.6372 132.834 25.9292 131.192 25.9292 129.975 25.9292 128.831 25.7346 127.748 25.3574 126.665 24.9802 125.716 24.4205 124.901 23.6904 124.086 22.9603 123.441 22.0599 122.978 20.9892 122.516 19.9184 122.285 18.6895 122.285 17.3146 122.285 15.9396 122.516 14.7715 122.966 13.6886 123.416 12.6057 124.037 11.6931 124.816 10.9387 125.594 10.1843 126.519 9.60027 127.578 9.18657 128.636 8.77287 129.792 8.56602 131.021 8.56602 132.25 8.56602 133.309 8.77287 134.306 9.1744 135.304 9.57594 136.156 10.16 136.874 10.9265 137.592 11.6931 138.151 12.6178 138.553 13.7129 138.954 14.808 139.161 16.0491 139.161 17.4484L139.161 17.4484ZM134.246 15.3799C134.246 14.5282 133.978 13.7981 133.455 13.1897 132.932 12.5813 132.128 12.2772 131.07 12.2772 130.547 12.2772 130.072 12.3623 129.634 12.5205 129.196 12.6909 128.819 12.9099 128.502 13.1897 128.174 13.4696 127.918 13.8103 127.724 14.1875 127.529 14.5647 127.42 14.9662 127.395 15.3799L134.258 15.3799 134.246 15.3799Z" fill="#231F20" transform="matrix(1.00908 0 0 1 62.0953 450)"/><path d="M141.704 11.6201C141.68 10.963 141.644 10.3912 141.607 9.88013L144.503 9.88013C144.539 10.2695 144.576 10.7319 144.6 11.2429 144.625 11.7539 144.637 12.1798 144.637 12.5083L144.734 12.5083C145.172 11.5958 145.805 10.8535 146.632 10.2938 147.46 9.73411 148.409 9.45426 149.443 9.45426 149.918 9.45426 150.319 9.50293 150.648 9.5881L150.514 12.4475C150.076 12.338 149.613 12.2772 149.114 12.2772 148.372 12.2772 147.74 12.411 147.192 12.6909 146.644 12.9585 146.206 13.3357 145.841 13.7859 145.476 14.2361 145.221 14.7715 145.05 15.3677 144.88 15.9761 144.783 16.5967 144.783 17.2537L144.783 25.4182 141.729 25.4182 141.729 13.2262C141.729 12.8125 141.729 12.2772 141.692 11.6201L141.704 11.6201Z" fill="#009FDA" transform="matrix(1.00908 0 0 1 62.0953 450)"/><path d="M155.782 4.27084C155.782 4.84272 155.588 5.30509 155.186 5.68229 154.785 6.05949 154.31 6.242 153.75 6.242 153.191 6.242 152.716 6.04732 152.327 5.67012 151.937 5.29292 151.743 4.81839 151.743 4.27084 151.743 3.7233 151.937 3.22443 152.327 2.84723 152.716 2.47003 153.191 2.27535 153.75 2.27535 154.31 2.27535 154.785 2.47003 155.186 2.84723 155.588 3.22443 155.782 3.69896 155.782 4.27084L155.782 4.27084ZM155.296 25.4182 152.242 25.4182 152.242 9.88013 155.296 9.88013 155.296 25.4182Z" fill="#009FDA" transform="matrix(1.00908 0 0 1 62.0953 450)"/><path d="M166.879 12.411 162.779 12.411 162.779 20.4781C162.779 21.4151 162.949 22.0843 163.302 22.4858 163.643 22.8873 164.202 23.0942 164.957 23.0942 165.237 23.0942 165.541 23.0699 165.869 22.9968 166.198 22.936 166.49 22.8508 166.745 22.7292L166.843 25.2479C166.478 25.3817 166.064 25.479 165.626 25.5642 165.176 25.6372 164.713 25.6737 164.251 25.6737 162.791 25.6737 161.684 25.2722 160.917 24.4691 160.151 23.6539 159.761 22.4493 159.761 20.831L159.761 12.411 156.804 12.411 156.804 9.89229 159.761 9.89229 159.761 5.42677 162.779 5.42677 162.779 9.89229 166.879 9.89229 166.879 12.411 166.879 12.411Z" fill="#009FDA" transform="matrix(1.00908 0 0 1 62.0953 450)"/><path d="M183.147 17.5214 183.147 18.0446C183.147 18.215 183.147 18.3975 183.111 18.5678L170.846 18.5678C170.87 19.2249 171.016 19.8333 171.284 20.4051 171.552 20.977 171.917 21.4759 172.379 21.9018 172.841 22.3276 173.365 22.6562 173.961 22.8995 174.557 23.1429 175.19 23.2645 175.859 23.2645 176.893 23.2645 177.806 23.0333 178.56 22.571 179.315 22.1086 179.911 21.5489 180.349 20.904L182.49 22.644C181.663 23.7391 180.689 24.5543 179.582 25.0775 178.463 25.6007 177.222 25.8562 175.859 25.8562 174.691 25.8562 173.608 25.6616 172.61 25.2722 171.612 24.8828 170.761 24.3231 170.043 23.6174 169.325 22.9117 168.765 22.0478 168.352 21.05 167.938 20.0523 167.731 18.9329 167.731 17.7039 167.731 16.475 167.938 15.3921 168.339 14.3822 168.741 13.3722 169.301 12.4962 170.018 11.7783 170.736 11.0604 171.588 10.4885 172.562 10.087 173.547 9.68544 174.594 9.47859 175.725 9.47859 176.857 9.47859 177.879 9.66111 178.804 10.0383 179.728 10.4155 180.507 10.9509 181.152 11.6444 181.797 12.338 182.283 13.1897 182.636 14.1875 182.989 15.1852 183.16 16.3046 183.16 17.5457L183.16 17.5457 183.16 17.5214ZM180.02 16.2803C179.996 15.6719 179.899 15.1 179.716 14.5647 179.534 14.0293 179.266 13.5669 178.901 13.1654 178.536 12.776 178.098 12.4597 177.562 12.2285 177.027 11.9973 176.406 11.8878 175.689 11.8878 175.044 11.8878 174.423 11.9973 173.851 12.2285 173.279 12.4597 172.781 12.776 172.355 13.1654 171.929 13.5548 171.588 14.0171 171.32 14.5647 171.053 15.1 170.895 15.6719 170.846 16.2803L180.02 16.2803Z" fill="#009FDA" transform="matrix(1.00908 0 0 1 62.0953 450)"/><path d="M62.0793 40.3236C62.0793 40.8589 61.982 41.3578 61.7995 41.808 61.6169 42.2582 61.3614 42.6598 61.0207 42.9883 60.6922 43.3168 60.2907 43.5845 59.8283 43.767 59.3659 43.9617 58.8671 44.0469 58.3073 44.0469 57.7476 44.0469 57.2609 43.9495 56.7986 43.767 56.3362 43.5845 55.9468 43.3168 55.6061 42.9883 55.2654 42.6598 55.0221 42.2582 54.8274 41.808 54.6327 41.3578 54.5475 40.8589 54.5475 40.3236 54.5475 39.7882 54.6449 39.2893 54.8274 38.8391 55.0099 38.3889 55.2654 37.9874 55.6061 37.6589 55.9468 37.3303 56.3362 37.0626 56.7986 36.8801 57.2609 36.6854 57.7598 36.6003 58.3073 36.6003 58.8549 36.6003 59.3659 36.6976 59.8283 36.8801 60.2907 37.0626 60.68 37.3303 61.0207 37.6589 61.3493 37.9874 61.6048 38.3889 61.7995 38.8391 61.9941 39.2893 62.0793 39.7882 62.0793 40.3236ZM60.9964 40.3236C60.9964 39.922 60.9356 39.557 60.8017 39.2041 60.68 38.8513 60.4975 38.5471 60.2663 38.2916 60.0352 38.0361 59.7553 37.8292 59.4268 37.6832 59.0982 37.5372 58.721 37.452 58.3073 37.452 57.8937 37.452 57.5286 37.525 57.2001 37.6832 56.8716 37.8292 56.5917 38.0361 56.3605 38.2916 56.1293 38.5471 55.9468 38.8513 55.8251 39.2041 55.7035 39.557 55.6305 39.922 55.6305 40.3236 55.6305 40.7251 55.6913 41.0901 55.8251 41.443 55.9468 41.7959 56.1293 42.1 56.3605 42.3556 56.5917 42.6111 56.8716 42.8179 57.2001 42.964 57.5286 43.11 57.8937 43.183 58.3073 43.183 58.721 43.183 59.0861 43.11 59.4268 42.964 59.7675 42.8179 60.0352 42.6111 60.2663 42.3556 60.4975 42.1 60.68 41.7959 60.8017 41.443 60.9234 41.0901 60.9964 40.7251 60.9964 40.3236Z" fill="#009FDA" transform="matrix(1.00908 0 0 1 62.0953 450)"/><path d="M64.5859 36.7706C64.6102 36.9653 64.6224 37.1721 64.6345 37.4033 64.6345 37.6345 64.6345 37.8292 64.6345 37.9752L64.6589 37.9752C64.8657 37.5615 65.1821 37.2208 65.6444 36.9653 66.0946 36.7098 66.5692 36.5759 67.0802 36.5759 67.9685 36.5759 68.6498 36.8436 69.0879 37.379 69.5381 37.9144 69.7571 38.6201 69.7571 39.4962L69.7571 43.8522 68.735 43.8522 68.735 39.922C68.735 39.5448 68.7107 39.2041 68.6377 38.9 68.5768 38.5958 68.4795 38.3402 68.3335 38.1212 68.1875 37.9022 67.9928 37.7319 67.7494 37.6102 67.5061 37.4885 67.1897 37.4277 66.8247 37.4277 66.557 37.4277 66.2893 37.4885 66.0338 37.598 65.7783 37.7075 65.5471 37.8779 65.3524 38.1091 65.1577 38.3402 64.9874 38.6201 64.8657 38.973 64.744 39.3258 64.6832 39.7274 64.6832 40.2141L64.6832 43.8522 63.6611 43.8522 63.6611 38.3159C63.6611 38.1212 63.6611 37.8779 63.6611 37.5737 63.6611 37.2695 63.6368 37.0018 63.6124 36.7584L64.5859 36.7584Z" fill="#009FDA" transform="matrix(1.00908 0 0 1 62.0953 450)"/><path d="M75.5611 38.4498C75.4151 38.1577 75.1839 37.9144 74.8797 37.7319 74.5755 37.5372 74.2226 37.452 73.8333 37.452 73.6507 37.452 73.4682 37.4763 73.2857 37.5128 73.1032 37.5493 72.945 37.6224 72.799 37.7075 72.653 37.7927 72.5435 37.9144 72.4583 38.0604 72.3731 38.2064 72.3245 38.3646 72.3245 38.5593 72.3245 38.8878 72.4583 39.1433 72.726 39.3258 72.9937 39.4962 73.4196 39.6544 74.0036 39.776 74.831 39.9464 75.4516 40.2019 75.8531 40.5304 76.2546 40.8589 76.4493 41.3092 76.4493 41.8567 76.4493 42.2582 76.3763 42.5989 76.2181 42.8788 76.0599 43.1586 75.8531 43.3898 75.6097 43.5602 75.3664 43.7305 75.0744 43.8644 74.758 43.9374 74.4416 44.0104 74.1253 44.0469 73.7968 44.0469 73.2614 44.0469 72.7503 43.9374 72.2515 43.7183 71.7526 43.4993 71.3389 43.1465 71.0225 42.6719L71.8378 42.0635C72.0203 42.3799 72.288 42.6354 72.6287 42.8544 72.9694 43.0735 73.3709 43.1708 73.7846 43.1708 74.0036 43.1708 74.2226 43.1465 74.4173 43.11 74.6242 43.0735 74.7945 43.0005 74.9405 42.9031 75.0865 42.8058 75.2082 42.6719 75.3055 42.5137 75.4029 42.3556 75.4394 42.1609 75.4394 41.9297 75.4394 41.5525 75.2569 41.2726 74.904 41.0901 74.5511 40.9076 74.0401 40.7251 73.3587 40.5669 73.1519 40.5182 72.9207 40.4574 72.6895 40.3722 72.4583 40.2992 72.2393 40.1776 72.0324 40.0437 71.8256 39.8977 71.6674 39.7152 71.5336 39.4962 71.3997 39.2772 71.3389 38.9973 71.3389 38.6688 71.3389 38.3037 71.4119 37.9874 71.5457 37.7319 71.6796 37.4763 71.8743 37.2573 72.1176 37.0991 72.361 36.941 72.6287 36.8071 72.9207 36.7219 73.2127 36.6368 73.5291 36.6003 73.8576 36.6003 74.3443 36.6003 74.8188 36.7098 75.2934 36.9288 75.7557 37.1478 76.0964 37.4642 76.3276 37.8657L75.5489 38.4498 75.5489 38.4498Z" fill="#009FDA" transform="matrix(1.00908 0 0 1 62.0953 450)"/><path d="M79.1384 34.0329C79.1384 34.2397 79.0654 34.4223 78.9072 34.5561 78.749 34.69 78.5908 34.763 78.4083 34.763 78.2258 34.763 78.0676 34.69 77.9094 34.5561 77.7512 34.4223 77.6782 34.2397 77.6782 34.0329 77.6782 33.826 77.7512 33.6435 77.9094 33.5097 78.0676 33.3758 78.2258 33.3028 78.4083 33.3028 78.5908 33.3028 78.749 33.3758 78.9072 33.5097 79.0654 33.6435 79.1384 33.826 79.1384 34.0329ZM78.9315 43.8644 77.9094 43.8644 77.9094 36.7584 78.9315 36.7584 78.9315 43.8644Z" fill="#009FDA" transform="matrix(1.00908 0 0 1 62.0953 450)"/><path d="M84.2366 37.6345 82.2533 37.6345 82.2533 41.7715C82.2533 42.0392 82.2776 42.2461 82.3263 42.4286 82.3749 42.6111 82.448 42.7328 82.5453 42.8301 82.6426 42.9274 82.7521 42.9883 82.886 43.0248 83.0198 43.0613 83.1537 43.0856 83.3119 43.0856 83.4457 43.0856 83.6039 43.0613 83.7499 43.0248 83.9081 42.9883 84.0541 42.9274 84.1879 42.8544L84.2366 43.7427C84.0541 43.8157 83.8716 43.8644 83.6647 43.9009 83.47 43.9374 83.251 43.9617 83.0198 43.9617 82.8251 43.9617 82.6305 43.9374 82.4115 43.8887 82.2046 43.84 82.0099 43.7427 81.8274 43.5967 81.6449 43.4507 81.4989 43.2681 81.3894 43.0248 81.2799 42.7814 81.219 42.4651 81.219 42.0635L81.219 37.6345 79.7589 37.6345 79.7589 36.7706 81.219 36.7706 81.219 34.763 82.2411 34.763 82.2411 36.7706 84.2244 36.7706 84.2244 37.6345 84.2366 37.6345Z" fill="#009FDA" transform="matrix(1.00908 0 0 1 62.0953 450)"/><path d="M91.6345 40.1045 91.6345 40.3357C91.6345 40.4209 91.6345 40.5061 91.6224 40.5913L85.7819 40.5913C85.7819 40.9441 85.8549 41.2726 85.9887 41.589 86.1226 41.9054 86.3051 42.173 86.5363 42.4042 86.7675 42.6354 87.0351 42.8179 87.3515 42.9518 87.6679 43.0856 87.9964 43.1586 88.3614 43.1586 88.8968 43.1586 89.347 43.037 89.7364 42.7814 90.1257 42.5259 90.4178 42.2461 90.6124 41.9297L91.379 42.5381C90.9531 43.0735 90.4908 43.4628 89.9797 43.694 89.4687 43.9252 88.9333 44.0469 88.3493 44.0469 87.826 44.0469 87.3393 43.9495 86.8891 43.767 86.4389 43.5845 86.0617 43.3168 85.7332 42.9883 85.4169 42.6598 85.1613 42.2582 84.9788 41.808 84.7963 41.3578 84.699 40.8589 84.699 40.3236 84.699 39.7882 84.7963 39.2893 84.9667 38.8391 85.1492 38.3889 85.4047 37.9874 85.721 37.6589 86.0374 37.3303 86.4146 37.0626 86.8526 36.8801 87.2907 36.6854 87.753 36.6003 88.2519 36.6003 88.7995 36.6003 89.2862 36.6976 89.712 36.8801 90.1379 37.0748 90.4908 37.3182 90.7706 37.6345 91.0505 37.9509 91.2573 38.3281 91.4155 38.7539 91.5737 39.1798 91.6345 39.63 91.6345 40.1167L91.6345 40.1167ZM90.6003 39.776C90.5638 39.1068 90.3569 38.5593 89.9554 38.1091 89.5539 37.6589 88.9941 37.452 88.2641 37.452 87.9234 37.452 87.607 37.5128 87.315 37.6467 87.023 37.7805 86.7675 37.9509 86.5484 38.1577 86.3294 38.3646 86.1469 38.6201 86.0252 38.9 85.9036 39.1798 85.8184 39.4718 85.7941 39.776L90.6003 39.776Z" fill="#009FDA" transform="matrix(1.00908 0 0 1 62.0953 450)"/><path d="M103.401 40.3236C103.401 40.8589 103.303 41.3578 103.121 41.808 102.938 42.2582 102.683 42.6598 102.342 42.9883 102.014 43.3168 101.612 43.5845 101.15 43.767 100.687 43.9617 100.188 44.0469 99.6287 44.0469 99.0689 44.0469 98.5822 43.9495 98.1199 43.767 97.6575 43.5845 97.2681 43.3168 96.9275 42.9883 96.5867 42.6598 96.3434 42.2582 96.1487 41.808 95.954 41.3578 95.8689 40.8589 95.8689 40.3236 95.8689 39.7882 95.9662 39.2893 96.1487 38.8391 96.3312 38.3889 96.5867 37.9874 96.9275 37.6589 97.2681 37.3303 97.6575 37.0626 98.1199 36.8801 98.5822 36.6854 99.0811 36.6003 99.6287 36.6003 100.176 36.6003 100.687 36.6976 101.15 36.8801 101.612 37.0626 102.001 37.3303 102.342 37.6589 102.671 37.9874 102.926 38.3889 103.121 38.8391 103.315 39.2893 103.401 39.7882 103.401 40.3236ZM102.318 40.3236C102.318 39.922 102.257 39.557 102.123 39.2041 102.001 38.8513 101.819 38.5471 101.588 38.2916 101.356 38.0361 101.077 37.8292 100.748 37.6832 100.42 37.5372 100.042 37.452 99.6287 37.452 99.215 37.452 98.8499 37.525 98.5214 37.6832 98.1929 37.8292 97.913 38.0361 97.6818 38.2916 97.4507 38.5471 97.2681 38.8513 97.1465 39.2041 97.0248 39.557 96.9518 39.922 96.9518 40.3236 96.9518 40.7251 97.0126 41.0901 97.1465 41.443 97.2681 41.7959 97.4507 42.1 97.6818 42.3556 97.913 42.6111 98.1929 42.8179 98.5214 42.964 98.8499 43.11 99.215 43.183 99.6287 43.183 100.042 43.183 100.407 43.11 100.748 42.964 101.089 42.8179 101.356 42.6111 101.588 42.3556 101.819 42.1 102.001 41.7959 102.123 41.443 102.245 41.0901 102.318 40.7251 102.318 40.3236Z" fill="#009FDA" transform="matrix(1.00908 0 0 1 62.0953 450)"/><path d="M105.907 36.7706C105.932 36.9653 105.944 37.1721 105.956 37.4033 105.956 37.6345 105.968 37.8292 105.968 37.9752L105.992 37.9752C106.199 37.5615 106.516 37.2208 106.978 36.9653 107.428 36.7098 107.903 36.5759 108.414 36.5759 109.302 36.5759 109.983 36.8436 110.421 37.379 110.872 37.9144 111.091 38.6201 111.091 39.4962L111.091 43.8522 110.068 43.8522 110.068 39.922C110.068 39.5448 110.044 39.2041 109.971 38.9 109.91 38.5958 109.813 38.3402 109.667 38.1212 109.521 37.9022 109.326 37.7319 109.083 37.6102 108.84 37.4885 108.523 37.4277 108.158 37.4277 107.89 37.4277 107.623 37.4885 107.367 37.598 107.112 37.7075 106.881 37.8779 106.686 38.1091 106.491 38.3402 106.321 38.6201 106.199 38.973 106.078 39.3258 106.017 39.7274 106.017 40.2141L106.017 43.8522 104.995 43.8522 104.995 38.3159C104.995 38.1212 104.995 37.8779 104.982 37.5737 104.982 37.2695 104.958 37.0018 104.934 36.7584L105.907 36.7584Z" fill="#009FDA" transform="matrix(1.00908 0 0 1 62.0953 450)"/><path d="M114.193 43.8644 113.171 43.8644 113.171 32.3903 114.193 32.3903 114.193 43.8644Z" fill="#009FDA" transform="matrix(1.00908 0 0 1 62.0953 450)"/><path d="M117.576 34.0329C117.576 34.2397 117.503 34.4223 117.345 34.5561 117.187 34.69 117.028 34.763 116.846 34.763 116.663 34.763 116.505 34.69 116.347 34.5561 116.189 34.4223 116.116 34.2397 116.116 34.0329 116.116 33.826 116.189 33.6435 116.347 33.5097 116.505 33.3758 116.663 33.3028 116.846 33.3028 117.028 33.3028 117.187 33.3758 117.345 33.5097 117.503 33.6435 117.576 33.826 117.576 34.0329ZM117.369 43.8644 116.347 43.8644 116.347 36.7584 117.369 36.7584 117.369 43.8644Z" fill="#009FDA" transform="matrix(1.00908 0 0 1 62.0953 450)"/><path d="M120.411 36.7706C120.435 36.9653 120.448 37.1721 120.46 37.4033 120.46 37.6345 120.472 37.8292 120.472 37.9752L120.496 37.9752C120.703 37.5615 121.019 37.2208 121.482 36.9653 121.932 36.7098 122.406 36.5759 122.918 36.5759 123.806 36.5759 124.487 36.8436 124.925 37.379 125.375 37.9144 125.594 38.6201 125.594 39.4962L125.594 43.8522 124.572 43.8522 124.572 39.922C124.572 39.5448 124.536 39.2041 124.475 38.9 124.414 38.5958 124.317 38.3402 124.171 38.1212 124.025 37.9022 123.83 37.7319 123.587 37.6102 123.343 37.4885 123.027 37.4277 122.662 37.4277 122.394 37.4277 122.127 37.4885 121.871 37.598 121.616 37.7075 121.384 37.8779 121.19 38.1091 120.995 38.3402 120.825 38.6201 120.703 38.973 120.581 39.3258 120.521 39.7274 120.521 40.2141L120.521 43.8522 119.498 43.8522 119.498 38.3159C119.498 38.1212 119.498 37.8779 119.486 37.5737 119.486 37.2695 119.462 37.0018 119.438 36.7584L120.411 36.7584Z" fill="#009FDA" transform="matrix(1.00908 0 0 1 62.0953 450)"/><path d="M134.039 40.1045 134.039 40.3357C134.039 40.4209 134.039 40.5061 134.027 40.5913L128.186 40.5913C128.186 40.9441 128.259 41.2726 128.393 41.589 128.527 41.9054 128.709 42.173 128.941 42.4042 129.172 42.6354 129.439 42.8179 129.756 42.9518 130.072 43.0856 130.401 43.1586 130.766 43.1586 131.301 43.1586 131.751 43.037 132.141 42.7814 132.53 42.5259 132.822 42.2461 133.017 41.9297L133.783 42.5381C133.357 43.0735 132.895 43.4628 132.384 43.694 131.873 43.9252 131.338 44.0469 130.753 44.0469 130.23 44.0469 129.744 43.9495 129.293 43.767 128.843 43.5845 128.466 43.3168 128.137 42.9883 127.809 42.6598 127.566 42.2582 127.383 41.808 127.201 41.3578 127.103 40.8589 127.103 40.3236 127.103 39.7882 127.201 39.2893 127.371 38.8391 127.553 38.3889 127.809 37.9874 128.125 37.6589 128.442 37.3303 128.819 37.0626 129.257 36.8801 129.695 36.6854 130.157 36.6003 130.656 36.6003 131.204 36.6003 131.69 36.6976 132.116 36.8801 132.542 37.0748 132.895 37.3182 133.175 37.6345 133.455 37.9509 133.662 38.3281 133.82 38.7539 133.978 39.1798 134.039 39.63 134.039 40.1167L134.039 40.1167ZM133.005 39.776C132.968 39.1068 132.761 38.5593 132.36 38.1091 131.958 37.6589 131.398 37.452 130.668 37.452 130.328 37.452 130.011 37.5128 129.719 37.6467 129.427 37.7805 129.172 37.9509 128.953 38.1577 128.734 38.3646 128.551 38.6201 128.429 38.9 128.296 39.1798 128.223 39.4718 128.198 39.776L133.005 39.776Z" fill="#009FDA" transform="matrix(1.00908 0 0 1 62.0953 450)"/><path d="M145.805 40.3236C145.805 40.8589 145.708 41.3578 145.525 41.808 145.342 42.2582 145.087 42.6598 144.746 42.9883 144.406 43.3168 144.016 43.5845 143.554 43.767 143.091 43.9617 142.593 44.0469 142.033 44.0469 141.473 44.0469 140.986 43.9495 140.524 43.767 140.062 43.5845 139.672 43.3168 139.332 42.9883 139.003 42.6598 138.748 42.2582 138.553 41.808 138.358 41.3578 138.273 40.8589 138.273 40.3236 138.273 39.7882 138.37 39.2893 138.553 38.8391 138.735 38.3889 138.991 37.9874 139.332 37.6589 139.672 37.3303 140.062 37.0626 140.524 36.8801 140.986 36.6854 141.485 36.6003 142.033 36.6003 142.58 36.6003 143.091 36.6976 143.554 36.8801 144.016 37.0626 144.406 37.3303 144.746 37.6589 145.075 37.9874 145.33 38.3889 145.525 38.8391 145.72 39.2893 145.805 39.7882 145.805 40.3236ZM144.722 40.3236C144.722 39.922 144.661 39.557 144.527 39.2041 144.406 38.8513 144.223 38.5471 143.992 38.2916 143.761 38.0361 143.481 37.8292 143.152 37.6832 142.824 37.5372 142.447 37.452 142.033 37.452 141.619 37.452 141.254 37.525 140.926 37.6832 140.597 37.8292 140.317 38.0361 140.098 38.2916 139.867 38.5471 139.685 38.8513 139.563 39.2041 139.441 39.557 139.368 39.922 139.368 40.3236 139.368 40.7251 139.429 41.0901 139.563 41.443 139.685 41.7959 139.867 42.1 140.098 42.3556 140.329 42.6111 140.609 42.8179 140.926 42.964 141.254 43.11 141.619 43.183 142.033 43.183 142.447 43.183 142.812 43.11 143.152 42.964 143.493 42.8179 143.761 42.6111 143.992 42.3556 144.223 42.1 144.406 41.7959 144.527 41.443 144.649 41.0901 144.722 40.7251 144.722 40.3236Z" fill="#009FDA" transform="matrix(1.00908 0 0 1 62.0953 450)"/><path d="M148.311 36.7706C148.336 36.9653 148.348 37.1721 148.36 37.4033 148.36 37.6345 148.372 37.8292 148.372 37.9752L148.409 37.9752C148.616 37.5615 148.932 37.2208 149.394 36.9653 149.845 36.7098 150.319 36.5759 150.83 36.5759 151.718 36.5759 152.4 36.8436 152.838 37.379 153.288 37.9144 153.507 38.6201 153.507 39.4962L153.507 43.8522 152.485 43.8522 152.485 39.922C152.485 39.5448 152.448 39.2041 152.388 38.9 152.327 38.5958 152.217 38.3402 152.083 38.1212 151.937 37.9022 151.743 37.7319 151.499 37.6102 151.256 37.4885 150.952 37.4277 150.575 37.4277 150.307 37.4277 150.039 37.4885 149.784 37.598 149.528 37.7075 149.297 37.8779 149.102 38.1091 148.908 38.3402 148.737 38.6201 148.616 38.973 148.494 39.3258 148.433 39.7274 148.433 40.2141L148.433 43.8522 147.411 43.8522 147.411 38.3159C147.411 38.1212 147.411 37.8779 147.399 37.5737 147.399 37.2695 147.374 37.0018 147.35 36.7584L148.324 36.7584 148.311 36.7584Z" fill="#009FDA" transform="matrix(1.00908 0 0 1 62.0953 450)"/><path d="M158.715 37.6345 156.731 37.6345 156.731 41.7715C156.731 42.0392 156.756 42.2461 156.804 42.4286 156.853 42.5989 156.926 42.7328 157.023 42.8301 157.121 42.9274 157.23 42.9883 157.364 43.0248 157.498 43.0613 157.632 43.0856 157.79 43.0856 157.936 43.0856 158.082 43.0613 158.228 43.0248 158.374 42.9883 158.532 42.9274 158.666 42.8544L158.715 43.7427C158.532 43.8157 158.35 43.8644 158.143 43.9009 157.948 43.9374 157.729 43.9617 157.498 43.9617 157.303 43.9617 157.109 43.9374 156.89 43.8887 156.683 43.84 156.488 43.7427 156.306 43.5967 156.123 43.4507 155.977 43.2681 155.868 43.0248 155.758 42.7814 155.697 42.4651 155.697 42.0635L155.697 37.6345 154.237 37.6345 154.237 36.7706 155.697 36.7706 155.697 34.763 156.719 34.763 156.719 36.7706 158.703 36.7706 158.703 37.6345 158.715 37.6345Z" fill="#009FDA" transform="matrix(1.00908 0 0 1 62.0953 450)"/><path d="M160.954 34.0329C160.954 34.2397 160.881 34.4223 160.722 34.5561 160.564 34.69 160.406 34.763 160.224 34.763 160.041 34.763 159.883 34.69 159.725 34.5561 159.579 34.4223 159.493 34.2397 159.493 34.0329 159.493 33.826 159.566 33.6435 159.725 33.5097 159.883 33.3758 160.041 33.3028 160.224 33.3028 160.406 33.3028 160.564 33.3758 160.722 33.5097 160.868 33.6435 160.954 33.826 160.954 34.0329ZM160.747 43.8644 159.725 43.8644 159.725 36.7584 160.747 36.7584 160.747 43.8644Z" fill="#009FDA" transform="matrix(1.00908 0 0 1 62.0953 450)"/><path d="M164.799 36.9775C165.212 36.7219 165.675 36.5881 166.198 36.5881 166.393 36.5881 166.587 36.6124 166.794 36.6489 167.001 36.6854 167.196 36.7706 167.402 36.8801 167.609 36.9896 167.78 37.1478 167.95 37.3425 168.12 37.5372 168.254 37.7805 168.376 38.0847 168.619 37.598 168.948 37.233 169.361 36.9653 169.775 36.7098 170.274 36.5759 170.846 36.5759 171.734 36.5759 172.415 36.8436 172.854 37.379 173.304 37.9144 173.523 38.6201 173.523 39.4962L173.523 43.8522 172.501 43.8522 172.501 39.922C172.501 39.1676 172.367 38.5714 172.087 38.1212 171.807 37.671 171.345 37.4398 170.676 37.4398 170.298 37.4398 169.994 37.5128 169.739 37.671 169.483 37.817 169.276 38.0239 169.118 38.2672 168.96 38.5106 168.85 38.7904 168.777 39.1068 168.704 39.4232 168.668 39.7517 168.668 40.0802L168.668 43.8644 167.646 43.8644 167.646 39.7274C167.646 39.3867 167.621 39.0703 167.573 38.7904 167.524 38.5106 167.439 38.2672 167.305 38.0726 167.183 37.8779 167.001 37.7197 166.782 37.6224 166.563 37.5128 166.283 37.4642 165.942 37.4642 165.699 37.4642 165.456 37.525 165.212 37.6345 164.969 37.744 164.75 37.9144 164.555 38.1456 164.361 38.3767 164.202 38.6566 164.081 39.0095 163.959 39.3623 163.898 39.7639 163.898 40.2506L163.898 43.8887 162.876 43.8887 162.876 38.3524C162.876 38.1577 162.876 37.9144 162.876 37.6102 162.876 37.306 162.852 37.0383 162.827 36.795L163.813 36.795C163.837 36.9896 163.849 37.1965 163.862 37.4277 163.862 37.6589 163.862 37.8535 163.862 37.9995L163.898 37.9995C164.105 37.5858 164.409 37.2452 164.823 36.9896L164.799 36.9896Z" fill="#009FDA" transform="matrix(1.00908 0 0 1 62.0953 450)"/><path d="M181.967 40.1045 181.967 40.3357C181.967 40.4209 181.967 40.5061 181.967 40.5913L176.127 40.5913C176.127 40.9441 176.2 41.2726 176.333 41.589 176.467 41.9054 176.65 42.173 176.881 42.4042 177.112 42.6354 177.38 42.8179 177.696 42.9518 178.013 43.0856 178.341 43.1586 178.706 43.1586 179.242 43.1586 179.692 43.037 180.081 42.7814 180.47 42.5259 180.763 42.2461 180.957 41.9297L181.724 42.5381C181.298 43.0735 180.836 43.4628 180.324 43.694 179.813 43.9252 179.278 44.0469 178.694 44.0469 178.171 44.0469 177.684 43.9495 177.234 43.767 176.784 43.5845 176.406 43.3168 176.078 42.9883 175.749 42.6598 175.506 42.2582 175.324 41.808 175.141 41.3578 175.044 40.8589 175.044 40.3236 175.044 39.7882 175.141 39.2893 175.311 38.8391 175.494 38.3889 175.749 37.9874 176.066 37.6589 176.382 37.3303 176.759 37.0626 177.197 36.8801 177.635 36.6854 178.098 36.6003 178.597 36.6003 179.144 36.6003 179.631 36.6976 180.057 36.8801 180.483 37.0748 180.836 37.3182 181.115 37.6345 181.395 37.9509 181.602 38.3281 181.76 38.7539 181.918 39.1798 181.979 39.63 181.979 40.1167L181.979 40.1167ZM180.933 39.776C180.896 39.1068 180.689 38.5593 180.288 38.1091 179.886 37.6589 179.327 37.452 178.597 37.452 178.256 37.452 177.94 37.5128 177.648 37.6467 177.356 37.7805 177.1 37.9509 176.881 38.1577 176.662 38.3646 176.479 38.6201 176.358 38.9 176.224 39.1798 176.151 39.4718 176.127 39.776L180.933 39.776Z" fill="#009FDA" transform="matrix(1.00908 0 0 1 62.0953 450)"/><path d="M36.2717 41.7837 41.7837 41.7837 41.7837 7.09374 7.09374 7.09374 7.09374 41.7837 30.3583 41.7837 40.2141 54 31.1492 54 26.8175 48.8774 3.55295 48.8774C0.401532 48.8774 0 47.6972 0 44.1442L0 3.55295C0 0 2.36052 0 5.51194 0L44.5457 0C48.4881 0 48.8774 1.49662 48.8774 6.31501L48.8774 44.1564C48.8774 48.0987 48.0865 48.8896 44.1442 48.8896L42.173 48.8896" fill="#009FDA" transform="matrix(1.00908 0 0 1 62.0953 450)"/></g></svg>