<svg width="148" height="89" xmlns="http://www.w3.org/2000/svg" xmlns:xlink="http://www.w3.org/1999/xlink" xml:space="preserve" overflow="hidden"><defs><clipPath id="clip0"><rect x="458" y="412" width="148" height="89"/></clipPath><clipPath id="clip1"><path d="M474.845 438.932C474.845 438.932 472.865 438.932 472.865 440.915L472.865 453.654 483.079 453.654C483.079 453.654 485.059 453.654 485.059 451.671L485.059 438.932 474.845 438.932Z"/></clipPath><linearGradient x1="20.7149" y1="43.1129" x2="20.7149" y2="-1.60055" gradientUnits="userSpaceOnUse" spreadMethod="pad" id="fill2"><stop offset="0" stop-color="#2D9D46"/><stop offset="0.52" stop-color="#457C6F"/><stop offset="1" stop-color="#457C6F"/></linearGradient><clipPath id="clip3"><path d="M487.039 426.722C485.059 426.722 485.059 428.705 485.059 428.705L485.059 438.932 497.781 438.932C499.761 438.932 499.761 436.949 499.761 436.949L499.761 426.722 487.039 426.722Z"/></clipPath><clipPath id="clip4"><path d="M474.845 412C472.865 412 472.865 413.983 472.865 413.983L472.865 426.722 483.079 426.722C485.059 426.722 485.059 424.739 485.059 424.739L485.059 412 474.845 412Z"/></clipPath><linearGradient x1="0" y1="20.7995" x2="14.7024" y2="20.7995" gradientUnits="userSpaceOnUse" spreadMethod="pad" id="fill5"><stop offset="0" stop-color="#A5CD39"/><stop offset="1" stop-color="#2D9D46"/></linearGradient></defs><g clip-path="url(#clip0)" transform="translate(-458 -412)"><path d="M129.521 87.6204C130.37 87.6204 131.039 87.1501 131.039 86.3415L131.039 86.325C131.039 85.5577 130.329 85.302 129.669 85.104 129.1 84.9307 128.572 84.7739 128.572 84.3697L128.572 84.3531C128.572 83.9984 128.894 83.7344 129.397 83.7344 129.809 83.7344 130.263 83.8911 130.659 84.1469L130.948 83.6684C130.511 83.3796 129.933 83.1981 129.413 83.1981 128.572 83.1981 127.961 83.6849 127.961 84.4192L127.961 84.4357C127.961 85.2195 128.704 85.4505 129.372 85.6402 129.933 85.797 130.436 85.962 130.436 86.391L130.436 86.4075C130.436 86.8201 130.065 87.0841 129.554 87.0841 129.042 87.0841 128.539 86.8861 128.077 86.5395L127.755 86.9933C128.233 87.3811 128.91 87.6204 129.521 87.6204M120.263 87.5378 120.899 87.5378 120.899 85.104C120.899 84.3202 121.41 83.7591 122.087 83.7591 122.763 83.7591 123.184 84.2294 123.184 85.0297L123.184 87.5378 123.811 87.5378 123.811 85.0792C123.811 84.2376 124.347 83.7591 124.991 83.7591 125.684 83.7591 126.097 84.2211 126.097 85.0462L126.097 87.5378 126.732 87.5378 126.732 84.8977C126.732 83.8416 126.13 83.1816 125.148 83.1816 124.405 83.1816 123.951 83.5611 123.646 84.0314 123.415 83.5528 122.97 83.1816 122.277 83.1816 121.584 83.1816 121.179 83.5694 120.899 83.9901L120.899 83.2723 120.263 83.2723 120.263 87.5378ZM115.759 85.1535C115.849 84.3284 116.41 83.7179 117.145 83.7179 117.986 83.7179 118.432 84.3779 118.506 85.1535L115.759 85.1535ZM115.759 85.665 119.141 85.665C119.15 85.566 119.15 85.5 119.15 85.4422 119.15 84.1881 118.424 83.1816 117.161 83.1816 115.981 83.1816 115.115 84.1716 115.115 85.4092 115.115 86.7375 116.072 87.6369 117.244 87.6369 118.052 87.6369 118.572 87.3151 119.001 86.8366L118.605 86.4818C118.259 86.8448 117.846 87.0841 117.26 87.0841 116.509 87.0841 115.849 86.5643 115.759 85.665M113.597 87.6121C113.902 87.6121 114.142 87.5461 114.364 87.4306L114.364 86.8861C114.142 86.9933 113.96 87.0346 113.746 87.0346 113.317 87.0346 113.028 86.8448 113.028 86.325L113.028 83.8334 114.381 83.8334 114.381 83.2723 113.028 83.2723 113.028 81.9853 112.392 81.9853 112.392 83.2723 111.798 83.2723 111.798 83.8334 112.392 83.8334 112.392 86.4075C112.392 87.2738 112.912 87.6121 113.597 87.6121M109.554 87.6204C110.404 87.6204 111.072 87.1501 111.072 86.3415L111.072 86.325C111.072 85.5577 110.363 85.302 109.703 85.104 109.134 84.9307 108.606 84.7739 108.606 84.3697L108.606 84.3531C108.606 83.9984 108.927 83.7344 109.431 83.7344 109.843 83.7344 110.297 83.8911 110.693 84.1469L110.982 83.6684C110.544 83.3796 109.967 83.1981 109.447 83.1981 108.606 83.1981 107.995 83.6849 107.995 84.4192L107.995 84.4357C107.995 85.2195 108.738 85.4505 109.406 85.6402 109.967 85.797 110.47 85.962 110.47 86.391L110.47 86.4075C110.47 86.8201 110.099 87.0841 109.587 87.0841 109.076 87.0841 108.573 86.8861 108.11 86.5395L107.789 86.9933C108.267 87.3811 108.944 87.6204 109.554 87.6204M104.092 88.8827C104.736 88.8827 105.149 88.5609 105.512 87.6781L107.302 83.2723 106.625 83.2723 105.256 86.8283 103.705 83.2723 103.003 83.2723 104.942 87.5213C104.687 88.1236 104.447 88.3216 104.068 88.3216 103.795 88.3216 103.606 88.2721 103.399 88.1649L103.185 88.6682C103.474 88.8084 103.738 88.8827 104.092 88.8827M100.363 87.6204C101.51 87.6204 102.335 86.9768 102.335 85.9868L102.335 85.9703C102.335 85.0874 101.741 84.6172 100.454 84.3367 99.1834 84.0644 98.8864 83.7591 98.8864 83.2146L98.8864 83.1981C98.8864 82.6783 99.3649 82.2658 100.116 82.2658 100.71 82.2658 101.246 82.4555 101.782 82.8928L102.162 82.3895C101.576 81.9193 100.974 81.68 100.132 81.68 99.0349 81.68 98.2346 82.3483 98.2346 83.2558L98.2346 83.2723C98.2346 84.2211 98.8452 84.6502 100.174 84.9389 101.386 85.1947 101.675 85.5 101.675 86.0363L101.675 86.0528C101.675 86.622 101.164 87.0346 100.388 87.0346 99.6125 87.0346 99.0102 86.7623 98.4079 86.2178L98.0036 86.6963C98.6967 87.3151 99.4475 87.6204 100.363 87.6204M92.418 87.1171C91.8405 87.1171 91.3455 86.8036 91.3455 86.2673L91.3455 86.2508C91.3455 85.7392 91.7992 85.3927 92.5913 85.3927 93.1111 85.3927 93.5236 85.4835 93.8371 85.5742L93.8371 85.9703C93.8371 86.6468 93.2018 87.1171 92.418 87.1171M92.2943 87.6286C93.0451 87.6286 93.5318 87.2821 93.8289 86.9026L93.8289 87.5378 94.4559 87.5378 94.4559 84.9307C94.4559 84.3862 94.3074 83.9736 94.0104 83.6766 93.7051 83.3713 93.2348 83.2063 92.6325 83.2063 92.0303 83.2063 91.5517 83.3548 91.0814 83.5694L91.2712 84.0891C91.6672 83.9076 92.0632 83.7839 92.5665 83.7839 93.3668 83.7839 93.8289 84.1799 93.8289 84.9389L93.8289 85.0709C93.4493 84.9637 93.0698 84.8894 92.5253 84.8894 91.4445 84.8894 90.7019 85.368 90.7019 86.2838L90.7019 86.3003C90.7019 87.1748 91.494 87.6286 92.2943 87.6286M89.1178 87.6121C89.4231 87.6121 89.6624 87.5461 89.8851 87.4306L89.8851 86.8861C89.6624 86.9933 89.4808 87.0346 89.2663 87.0346 88.8373 87.0346 88.5485 86.8448 88.5485 86.325L88.5485 83.8334 89.9016 83.8334 89.9016 83.2723 88.5485 83.2723 88.5485 81.9853 87.9132 81.9853 87.9132 83.2723 87.3192 83.2723 87.3192 83.8334 87.9132 83.8334 87.9132 86.4075C87.9132 87.2738 88.433 87.6121 89.1178 87.6121M84.349 87.1171C83.7715 87.1171 83.2765 86.8036 83.2765 86.2673L83.2765 86.2508C83.2765 85.7392 83.7302 85.3927 84.5223 85.3927 85.0421 85.3927 85.4546 85.4835 85.7681 85.5742L85.7681 85.9703C85.7681 86.6468 85.1328 87.1171 84.349 87.1171M84.2253 87.6286C84.9761 87.6286 85.4628 87.2821 85.7599 86.9026L85.7599 87.5378 86.3869 87.5378 86.3869 84.9307C86.3869 84.3862 86.2384 83.9736 85.9414 83.6766 85.6361 83.3713 85.1658 83.2063 84.5635 83.2063 83.9613 83.2063 83.4827 83.3548 83.0124 83.5694L83.2022 84.0891C83.5982 83.9076 83.9943 83.7839 84.4975 83.7839 85.2978 83.7839 85.7599 84.1799 85.7599 84.9389L85.7599 85.0709C85.3803 84.9637 85.0008 84.8894 84.4563 84.8894 83.3755 84.8894 82.6329 85.368 82.6329 86.2838L82.6329 86.3003C82.6329 87.1748 83.425 87.6286 84.2253 87.6286M77.2618 86.9356 77.2618 82.3648 78.6149 82.3648C80.0753 82.3648 81.0076 83.3713 81.0076 84.6502L81.0076 84.6667C81.0076 85.9455 80.0753 86.9356 78.6149 86.9356L77.2618 86.9356ZM76.6101 87.5378 78.6149 87.5378C80.43 87.5378 81.6841 86.2755 81.6841 84.6502L81.6841 84.6337C81.6841 83.0083 80.43 81.7625 78.6149 81.7625L76.6101 81.7625 76.6101 87.5378ZM71.9155 87.5378 72.5508 87.5378 72.5508 81.515 71.9155 81.515 71.9155 87.5378ZM68.4751 87.1171C67.8975 87.1171 67.4025 86.8036 67.4025 86.2673L67.4025 86.2508C67.4025 85.7392 67.8563 85.3927 68.6483 85.3927 69.1681 85.3927 69.5806 85.4835 69.8941 85.5742L69.8941 85.9703C69.8941 86.6468 69.2589 87.1171 68.4751 87.1171M68.3513 87.6286C69.1021 87.6286 69.5889 87.2821 69.8859 86.9026L69.8859 87.5378 70.5129 87.5378 70.5129 84.9307C70.5129 84.3862 70.3644 83.9736 70.0674 83.6766 69.7621 83.3713 69.2919 83.2063 68.6896 83.2063 68.0873 83.2063 67.6088 83.3548 67.1385 83.5694L67.3282 84.0891C67.7243 83.9076 68.1203 83.7839 68.6236 83.7839 69.4239 83.7839 69.8859 84.1799 69.8859 84.9389L69.8859 85.0709C69.5064 84.9637 69.1269 84.8894 68.5823 84.8894 67.5015 84.8894 66.759 85.368 66.759 86.2838L66.759 86.3003C66.759 87.1748 67.551 87.6286 68.3513 87.6286M61.9984 87.5378 62.6337 87.5378 62.6337 85.0957C62.6337 84.2954 63.1782 83.7591 63.9125 83.7591 64.6468 83.7591 65.0923 84.2542 65.0923 85.0462L65.0923 87.5378 65.7276 87.5378 65.7276 84.8894C65.7276 83.8746 65.1254 83.1816 64.094 83.1816 63.3597 83.1816 62.9142 83.5528 62.6337 84.0149L62.6337 83.2723 61.9984 83.2723 61.9984 87.5378ZM58.6322 87.0676C57.7329 87.0676 57.0564 86.325 57.0564 85.4092L57.0564 85.3927C57.0564 84.4934 57.6917 83.7426 58.6157 83.7426 59.5398 83.7426 60.1998 84.4934 60.1998 85.4092L60.1998 85.4257C60.1998 86.325 59.5563 87.0676 58.6322 87.0676M58.6157 87.6369C59.9028 87.6369 60.8516 86.6138 60.8516 85.4092L60.8516 85.3927C60.8516 84.1881 59.911 83.1816 58.6322 83.1816 57.3534 83.1816 56.4046 84.2046 56.4046 85.4092L56.4046 85.4257C56.4046 86.6303 57.3369 87.6369 58.6157 87.6369M54.5565 87.5378 55.1917 87.5378 55.1917 83.2723 54.5565 83.2723 54.5565 87.5378ZM54.5152 82.34 55.2413 82.34 55.2413 81.6387 54.5152 81.6387 54.5152 82.34ZM52.5928 87.6121C52.8981 87.6121 53.1374 87.5461 53.3601 87.4306L53.3601 86.8861C53.1374 86.9933 52.9559 87.0346 52.7413 87.0346 52.3123 87.0346 52.0236 86.8448 52.0236 86.325L52.0236 83.8334 53.3766 83.8334 53.3766 83.2723 52.0236 83.2723 52.0236 81.9853 51.3883 81.9853 51.3883 83.2723 50.7942 83.2723 50.7942 83.8334 51.3883 83.8334 51.3883 86.4075C51.3883 87.2738 51.908 87.6121 52.5928 87.6121M47.824 87.1171C47.2465 87.1171 46.7515 86.8036 46.7515 86.2673L46.7515 86.2508C46.7515 85.7392 47.2053 85.3927 47.9973 85.3927 48.5171 85.3927 48.9296 85.4835 49.2431 85.5742L49.2431 85.9703C49.2431 86.6468 48.6078 87.1171 47.824 87.1171M47.7003 87.6286C48.4511 87.6286 48.9379 87.2821 49.2349 86.9026L49.2349 87.5378 49.8619 87.5378 49.8619 84.9307C49.8619 84.3862 49.7134 83.9736 49.4164 83.6766 49.1111 83.3713 48.6409 83.2063 48.0386 83.2063 47.4363 83.2063 46.9577 83.3548 46.4875 83.5694L46.6772 84.0891C47.0732 83.9076 47.4693 83.7839 47.9726 83.7839 48.7729 83.7839 49.2349 84.1799 49.2349 84.9389L49.2349 85.0709C48.8554 84.9637 48.4758 84.8894 47.9313 84.8894 46.8505 84.8894 46.1079 85.368 46.1079 86.2838L46.1079 86.3003C46.1079 87.1748 46.9 87.6286 47.7003 87.6286M44.3176 87.5378 44.9529 87.5378 44.9529 81.515 44.3176 81.515 44.3176 87.5378ZM39.7551 85.1535C39.8458 84.3284 40.4068 83.7179 41.1411 83.7179 41.9827 83.7179 42.4282 84.3779 42.5025 85.1535L39.7551 85.1535ZM39.7551 85.665 43.1378 85.665C43.146 85.566 43.146 85.5 43.146 85.4422 43.146 84.1881 42.42 83.1816 41.1576 83.1816 39.9778 83.1816 39.1115 84.1716 39.1115 85.4092 39.1115 86.7375 40.0686 87.6369 41.2401 87.6369 42.0487 87.6369 42.5685 87.3151 42.9975 86.8366L42.6015 86.4818C42.255 86.8448 41.8424 87.0841 41.2566 87.0841 40.5059 87.0841 39.8458 86.5643 39.7551 85.665M34.252 84.7079 34.252 82.3648 36.0341 82.3648C36.9664 82.3648 37.5109 82.7938 37.5109 83.5033L37.5109 83.5199C37.5109 84.2624 36.8921 84.7079 36.0258 84.7079L34.252 84.7079ZM33.6002 87.5378 34.252 87.5378 34.252 85.2937 35.9021 85.2937 37.5769 87.5378 38.3772 87.5378 36.6034 85.1782C37.5109 85.0132 38.171 84.4522 38.171 83.4951L38.171 83.4786C38.171 83.0248 38.0059 82.6205 37.7254 82.34 37.3624 81.977 36.7931 81.7625 36.0836 81.7625L33.6002 81.7625 33.6002 87.5378Z" fill="#2D9D46" transform="matrix(1 0 0 1.00132 458.162 412)"/><g clip-path="url(#clip1)"><path d="M14.7024 26.8966 26.8966 26.8966 26.8966 41.599 14.7024 41.599Z" fill="url(#fill2)" transform="matrix(1 0 0 1.00132 458.162 412)"/></g><g clip-path="url(#clip3)"><path d="M26.8966 14.7024 41.599 14.7024 41.599 26.8966 26.8966 26.8966Z" fill="#A5CD39" transform="matrix(1 0 0 1.00132 458.162 412)"/></g><path d="M16.6825 0C14.7024 0 14.7024 1.98012 14.7024 1.98012L14.7024 14.7024 24.9165 14.7024C26.8966 14.7024 26.8966 12.7223 26.8966 12.7223L26.8966 0 16.6825 0Z" fill="#2D9D46" transform="matrix(1 0 0 1.00132 458.162 412)"/><g clip-path="url(#clip4)"><path d="M14.7024 0 26.8966 0 26.8966 14.7024 14.7024 14.7024Z" fill="#219346" transform="matrix(1 0 0 1.00132 458.162 412)"/></g><path d="M1.98012 14.7024C1.98012 14.7024 0 14.7024 0 16.6825L0 26.8966 12.7223 26.8966C12.7223 26.8966 14.7024 26.8966 14.7024 24.9165L14.7024 14.7024 1.98012 14.7024Z" fill="url(#fill5)" transform="matrix(1 0 0 1.00132 458.162 412)"/><path d="M114.348 68.3142C114.422 68.7556 114.674 69.1062 115.095 69.362 115.515 69.6549 115.92 69.923 116.303 70.1623 116.687 70.4016 117.071 70.6326 117.454 70.8512 118.065 71.2184 118.7 71.5607 119.352 71.8701 120.004 72.1837 120.672 72.4683 121.365 72.7282 122.821 73.3181 124.335 73.7389 125.907 73.9988 127.553 74.3288 129.488 74.4979 131.711 74.4979 133.935 74.4979 136.175 74.2422 138.204 73.7265 140.118 73.248 141.806 72.4766 143.262 71.4081 144.677 70.4139 145.77 69.1433 146.537 67.6005 147.304 66.0205 147.688 64.1972 147.688 62.1345 147.688 60.3318 147.399 58.7848 146.826 57.4978 146.327 56.2849 145.601 55.2165 144.644 54.2966 144.413 54.0738 144.173 53.8634 143.926 53.6613 143.678 53.4591 143.398 53.2653 143.093 53.0796 142.672 52.7867 142.164 52.4897 141.57 52.1968 140.976 51.9039 140.448 51.6647 139.99 51.479 139.685 51.3676 139.368 51.2604 139.042 51.149 138.716 51.0376 138.398 50.9469 138.093 50.8726 137.519 50.687 136.942 50.5343 136.368 50.4023 135.795 50.2744 135.238 50.1713 134.702 50.0971 134.166 50.0228 133.666 49.9321 133.209 49.8207 132.746 49.7093 132.309 49.6185 131.888 49.5443 131.352 49.3958 130.808 49.2679 130.251 49.1565 129.694 49.0451 129.129 48.9172 128.555 48.7687 127.982 48.6202 127.433 48.4758 126.918 48.3273 126.402 48.1788 125.89 48.0138 125.395 47.8323 124.438 47.4651 123.65 47.0031 123.04 46.4503 122.425 45.8976 122.12 45.2169 122.12 44.4083 122.12 43.5998 122.367 42.8985 122.867 42.3086 123.135 42.0157 123.432 41.7558 123.758 41.5372 124.083 41.3185 124.438 41.1164 124.822 40.9308 125.626 40.5636 126.468 40.2872 127.351 40.1016 127.771 40.0273 128.184 39.9737 128.584 39.9366 128.988 39.8994 129.36 39.8829 129.706 39.8829 131.777 39.8829 133.708 40.2336 135.51 40.9308 136.851 41.4093 138.27 42.1106 139.764 43.0305 140.184 43.2904 140.634 43.3812 141.113 43.3069 141.591 43.2326 141.983 42.9934 142.292 42.5891L144.706 39.2765C145.011 38.8723 145.126 38.4473 145.052 38.0059 144.974 37.5645 144.726 37.1974 144.305 36.9004 143.885 36.6817 143.501 36.459 143.154 36.2362 142.808 36.0176 142.445 35.7948 142.061 35.5762 141.525 35.2833 140.968 34.9945 140.395 34.7222 139.821 34.4459 139.227 34.1983 138.613 33.9756 137.998 33.7899 137.379 33.6167 136.744 33.4517 136.113 33.2867 135.453 33.1464 134.76 33.0391 133.382 32.8164 131.81 32.7091 130.049 32.7091 128.172 32.7091 126.332 32.8948 124.533 33.2619 122.578 33.6662 120.853 34.2932 119.36 35.1389 117.788 36.096 116.526 37.3294 115.569 38.8392 114.571 40.4605 114.076 42.4282 114.076 44.7466 114.076 46.3307 114.344 47.7292 114.88 48.942 115.453 50.1919 116.2 51.2233 117.12 52.0318 118.04 52.9146 119.075 53.6324 120.222 54.1852 121.332 54.7751 122.499 55.233 123.729 55.5671 124.917 55.9714 126.064 56.2478 127.177 56.3963 127.714 56.5077 128.229 56.6067 128.728 56.7016 129.228 56.7923 129.686 56.8748 130.106 56.9491 130.758 57.0605 131.381 57.1677 131.975 57.2791 132.569 57.3905 133.155 57.5184 133.728 57.6669 134.339 57.8154 134.896 57.9639 135.395 58.1083 135.894 58.2568 136.352 58.4218 136.773 58.6075 137.651 59.0117 138.344 59.4738 138.839 59.9894 139.376 60.6165 139.644 61.3136 139.644 62.085 139.644 62.7492 139.471 63.3721 139.128 63.962 138.782 64.5891 138.266 65.1584 137.577 65.674 136.81 66.2268 135.968 66.6311 135.048 66.8868 134.05 67.2169 132.903 67.3819 131.6 67.3819 129.071 67.3819 126.715 66.8662 124.533 65.8349 122.887 65.1006 121.2 64.2178 119.476 63.1865 119.055 62.9307 118.613 62.8358 118.155 62.9101 117.698 62.9843 117.33 63.2236 117.062 63.6279L114.649 67.0518C114.381 67.4561 114.286 67.881 114.36 68.3224M81.5274 66.3836C81.2015 66.0535 81.0406 65.6493 81.0406 65.1707L81.0406 41.9868C81.0406 41.5083 81.2015 41.104 81.5274 40.774 81.8532 40.444 82.2658 40.2748 82.7608 40.2748L89.6005 40.2748C91.0154 40.2748 92.5129 40.4398 94.0846 40.774 95.6151 41.104 97.0135 41.7476 98.28 42.7046 99.5052 43.6245 100.541 44.9694 101.382 46.735 102.187 48.5006 102.591 50.786 102.591 53.5788 102.591 56.3716 102.191 58.6776 101.382 60.3689 100.541 62.1345 99.5052 63.4794 98.28 64.3993 97.0135 65.3935 95.6357 66.0535 94.1424 66.3877 92.5707 66.7177 91.0567 66.8827 89.6005 66.8827L82.7608 66.8827C82.2617 66.8827 81.8491 66.7177 81.5274 66.3877M89.5427 73.7265C92.4923 73.7265 95.2314 73.3057 97.7602 72.4559 100.211 71.6474 102.414 70.3933 104.369 68.7019 106.477 66.8621 108.028 64.6716 109.022 62.1345 109.558 60.8475 109.959 59.4944 110.231 58.0753 110.499 56.6603 110.635 55.1422 110.635 53.521 110.635 50.4683 110.099 47.5972 109.026 44.9075 107.991 42.4035 106.44 40.2336 104.373 38.3937 100.504 35.0069 95.5615 33.3155 89.5469 33.3155L74.7207 33.3155C74.2215 33.3155 73.809 33.4805 73.4831 33.8106 73.1572 34.1406 72.9963 34.549 72.9963 35.0234L72.9963 72.0104C72.9963 72.4889 73.1572 72.8932 73.4831 73.2232 73.809 73.5532 74.2215 73.7183 74.7207 73.7183L89.5469 73.7183ZM42.0528 53.521C41.7063 53.191 41.5372 52.7867 41.5372 52.3082L41.5372 41.8754C41.5372 41.3969 41.7104 40.9926 42.0528 40.6626 42.3952 40.3326 42.8201 40.1676 43.3151 40.1676L52.6258 40.1676C54.0037 40.1676 55.134 40.4233 56.0168 40.939 56.8583 41.4547 57.5101 42.0817 57.9722 42.816 58.1619 43.1831 58.3352 43.5627 58.4878 43.9463 58.6405 44.3341 58.756 44.7301 58.8343 45.1344 58.987 45.8728 59.0654 46.57 59.0654 47.2341 59.0654 48.447 58.8756 49.4411 58.4919 50.2167 58.0712 51.0624 57.572 51.7637 56.9986 52.3164 56.4252 52.8692 55.7157 53.29 54.8741 53.587 54.0697 53.884 53.323 54.0284 52.6341 54.0284L43.3234 54.0284C42.8242 54.0284 42.4035 53.8634 42.0611 53.5334M41.0463 73.2273C41.3722 72.8973 41.533 72.493 41.533 72.0145L41.533 62.576C41.533 62.0974 41.7063 61.6931 42.0487 61.3631 42.3911 61.0331 42.816 60.864 43.311 60.864L47.7374 60.864C48.2366 60.864 48.7522 60.9919 49.2885 61.2517 49.8248 61.5075 50.2456 61.8417 50.555 62.2459L54.3461 67.3777C54.9979 68.2234 55.6373 69.0608 56.2726 69.89 56.9037 70.7192 57.5473 71.5566 58.1991 72.4023 58.5043 72.7694 58.9251 73.083 59.4614 73.3429 59.9977 73.5986 60.5133 73.7306 61.0125 73.7306L66.8167 73.7306C67.3159 73.7306 67.6294 73.5285 67.7655 73.1242 67.8975 72.7199 67.8109 72.3157 67.5056 71.9114 66.1278 70.0715 64.7953 68.3348 63.5124 66.6929 62.2294 65.0552 60.8763 63.3185 59.4614 61.4745 59.1561 61.1074 59.0571 60.7278 59.1726 60.3442 59.2881 59.9564 59.5563 59.6553 59.977 59.4325 61.9324 58.4012 63.5206 57.0027 64.7458 55.2371 66.3176 53.0301 67.1013 50.3611 67.1013 47.2341 67.1013 45.2086 66.7548 43.3316 66.0659 41.6032 65.7194 40.7575 65.2986 39.9654 64.8036 39.2311 64.3044 38.4969 63.731 37.8162 63.0792 37.1891 61.8169 36.0135 60.2988 35.0564 58.5415 34.318 56.7387 33.6538 54.7668 33.3238 52.6217 33.3238L35.2668 33.3238C34.7676 33.3238 34.3469 33.4888 34.0003 33.8188 33.6579 34.1488 33.4847 34.5572 33.4847 35.0316L33.4847 72.0187C33.4847 72.4972 33.6579 72.9015 34.0003 73.2315 34.3469 73.5615 34.7676 73.7265 35.2668 73.7265L39.8046 73.7265C40.3037 73.7265 40.7162 73.5615 41.0421 73.2315" fill="#191F3B" transform="matrix(1 0 0 1.00132 458.162 412)"/></g></svg>