<svg width="240" height="54" xmlns="http://www.w3.org/2000/svg" xmlns:xlink="http://www.w3.org/1999/xlink" xml:space="preserve" overflow="hidden"><g transform="translate(-977 -334)"><path d="M9.28712 33.3918C9.41269 35.6573 9.9516 37.5095 10.8882 38.9222 12.6933 41.5801 15.8587 42.9143 20.4055 42.9143 22.4513 42.9143 24.3035 42.6318 25.9778 42.0458 29.206 40.9209 30.8228 38.896 30.8228 35.9817 30.8228 33.7946 30.1426 32.2459 28.7822 31.325 27.4061 30.4042 25.2348 29.6141 22.2891 28.9496L16.8738 27.7148C13.3264 26.9091 10.8097 26.0353 9.33944 25.0674 6.78614 23.4035 5.51995 20.9026 5.51995 17.5592 5.51995 13.9647 6.77044 11.0033 9.25572 8.69065 11.741 6.39372 15.2727 5.23741 19.8352 5.23741 24.0314 5.23741 27.6102 6.25245 30.5559 8.27731 33.4859 10.3022 34.9562 13.5513 34.9562 17.9987L29.8391 17.9987C29.5723 15.8587 29.002 14.2106 28.0968 13.0595 26.433 10.9666 23.6285 9.92544 19.673 9.92544 16.4761 9.92544 14.1792 10.5899 12.7717 11.9398 11.3591 13.2845 10.6632 14.8542 10.6632 16.6436 10.6632 18.6056 11.4846 20.0497 13.1328 20.9496 14.1949 21.5356 16.6174 22.2629 20.4003 23.1367L26.0249 24.4186C28.7351 25.036 30.8228 25.8731 32.2982 26.9509 34.8463 28.8188 36.1282 31.5448 36.1282 35.1079 36.1282 39.5396 34.5167 42.7103 31.2832 44.6252 28.0549 46.5402 24.2982 47.4925 20.0235 47.4925 15.0373 47.4925 11.1393 46.2263 8.31916 43.6782 5.49902 41.1458 4.12296 37.724 4.18574 33.4022L9.28712 33.4022ZM46.9902 17.24 51.9974 17.24 51.9974 46.3152 46.9902 46.3152C46.9902 46.3152 46.9902 17.24 46.9902 17.24ZM46.9902 6.24722 51.9974 6.24722 51.9974 11.8038 46.9902 11.8038 46.9902 6.24722ZM61.2897 17.0935 67.6416 17.0935 74.3545 27.3852 81.1511 17.0935 87.121 17.2348 77.2688 31.3303 87.5448 46.31 81.2766 46.31 74.0248 35.3538 66.9928 46.31 60.7665 46.31 71.0425 31.3303 61.2845 17.0935 61.2845 17.0935ZM97.8208 6.24722 115.856 6.24722C119.419 6.24722 122.302 7.24657 124.489 9.25572 126.661 11.2649 127.749 14.085 127.749 17.7266 127.749 20.845 126.781 23.571 124.835 25.8836 122.888 28.2119 119.895 29.3682 115.856 29.3682L103.252 29.3682 103.252 46.31 97.8208 46.31 97.8208 6.24722 97.8208 6.24722ZM118.995 11.7567C117.792 11.1864 116.144 10.8986 114.056 10.8986L103.257 10.8986 103.257 24.7848 114.056 24.7848C116.494 24.7848 118.477 24.2616 119.995 23.2309 121.512 22.2001 122.276 20.3636 122.276 17.7371 122.276 14.7914 121.182 12.7979 118.995 11.7515ZM138.569 17.2348 143.571 17.2348 143.571 46.31 138.569 46.31C138.569 46.31 138.569 17.2348 138.569 17.2348ZM138.569 6.24199 143.571 6.24199 143.571 11.7986 138.569 11.7986 138.569 6.24199 138.569 6.24199ZM158.043 17.0883 165.85 40.8738 174.007 17.0883 179.375 17.0883 168.351 46.3048 163.108 46.3048 152.34 17.0883C152.34 17.0883 158.043 17.0883 158.043 17.0883ZM208.335 31.2152C208.335 28.4892 207.89 26.276 207.022 24.5651 205.646 21.8757 203.254 20.5258 199.88 20.5258 196.887 20.5258 194.7 21.6664 193.339 23.9634 191.958 26.2603 191.278 29.0177 191.278 32.2616 191.278 35.5056 191.958 37.9438 193.339 40.0209 194.7 42.0929 196.855 43.1393 199.817 43.1393 203.077 43.1393 205.311 41.9045 206.53 39.4349 207.733 36.981 208.335 34.2394 208.335 31.2152ZM213.468 31.0896C213.468 35.7933 212.327 39.6913 210.03 42.7626 207.733 45.8339 204.186 47.3721 199.356 47.3721 195.333 47.3721 192.152 46.0118 189.792 43.2858 187.432 40.5808 186.245 36.9182 186.245 32.3401 186.245 27.4323 187.495 23.5186 189.98 20.6043 192.466 17.7057 195.825 16.2459 200.021 16.2459 203.772 16.2459 206.959 17.4964 209.57 19.9974 212.165 22.5141 213.468 26.208 213.468 31.0844L213.468 31.0844ZM224.931 8.93656 229.902 8.93656 229.902 17.0935 234.559 17.0935 234.559 21.1014 229.902 21.1014 229.902 40.1674C229.902 41.1982 230.252 41.8784 230.933 42.2289 231.33 42.433 231.963 42.5324 232.848 42.5324 233.088 42.5324 233.339 42.5324 233.606 42.5167 233.873 42.501 234.192 42.4853 234.559 42.4382L234.559 46.3152C234.004 46.4879 233.418 46.603 232.816 46.6815 232.152 46.7495 231.487 46.7809 230.823 46.7757 228.526 46.7757 226.972 46.1897 226.166 45.0177 225.339 43.8457 224.931 42.3231 224.931 40.4552L224.931 21.1014 220.986 21.1014 220.986 17.0935 224.931 17.0935 224.931 8.93656 224.931 8.93656Z" fill="#A0CC44" transform="matrix(1 0 0 1.00267 977 334.045)"/></g></svg>