<svg width="910" height="910" viewBox="0 0 910 910" fill="none" xmlns="http://www.w3.org/2000/svg">
<path d="M34.7684 82.9238L120.081 139.799C121.634 140.847 123.379 141.577 125.216 141.948C127.052 142.319 128.944 142.324 130.782 141.961C132.62 141.599 134.369 140.877 135.927 139.836C137.485 138.796 138.823 137.458 139.862 135.899C140.901 134.34 141.622 132.591 141.984 130.753C142.345 128.914 142.339 127.022 141.967 125.186C141.595 123.35 140.864 121.605 139.815 120.053C138.766 118.5 137.421 117.17 135.857 116.139L50.5441 59.2638C48.9908 58.2161 47.2458 57.4857 45.4093 57.1147C43.5728 56.7436 41.681 56.7391 39.8428 57.1016C38.0046 57.464 36.2561 58.1861 34.6979 59.2265C33.1396 60.2668 31.8024 61.6049 30.763 63.1638C29.7236 64.7227 29.0025 66.4716 28.6413 68.31C28.28 70.1485 28.2856 72.0402 28.6578 73.8765C29.03 75.7127 29.7615 77.4574 30.8102 79.01C31.8588 80.5627 33.204 81.8927 34.7684 82.9238Z" fill="black"/>
<path d="M158.795 107.419C159.826 108.984 161.156 110.329 162.709 111.377C164.261 112.426 166.006 113.158 167.842 113.53C169.679 113.902 171.57 113.908 173.409 113.546C175.247 113.185 176.996 112.464 178.555 111.425C180.114 110.385 181.452 109.048 182.492 107.49C183.533 105.932 184.255 104.183 184.617 102.345C184.98 100.507 184.975 98.6148 184.604 96.7784C184.233 94.9419 183.503 93.1968 182.455 91.6435L154.017 48.9872C152.986 47.4229 151.656 46.0777 150.104 45.029C148.551 43.9803 146.806 43.2489 144.97 42.8767C143.134 42.5045 141.242 42.4988 139.404 42.8601C137.565 43.2214 135.816 43.9424 134.257 44.9818C132.699 46.0212 131.361 47.3585 130.32 48.9167C129.28 50.4749 128.558 52.2234 128.195 54.0616C127.833 55.8999 127.837 57.7916 128.208 59.6281C128.579 61.4646 129.31 63.2096 130.358 64.7629L158.795 107.419Z" fill="black"/>
<path d="M859.456 59.2637L774.143 116.139C772.579 117.17 771.234 118.5 770.185 120.053C769.137 121.605 768.405 123.35 768.033 125.186C767.661 127.022 767.655 128.914 768.016 130.753C768.377 132.591 769.099 134.34 770.138 135.899C771.177 137.458 772.515 138.796 774.073 139.836C775.631 140.876 777.38 141.599 779.218 141.961C781.056 142.323 782.948 142.319 784.784 141.948C786.621 141.577 788.366 140.846 789.919 139.799L875.232 82.9237C878.347 80.8224 880.504 77.5731 881.231 73.8862C881.958 70.1992 881.196 66.3745 879.111 63.2478C877.026 60.1212 873.788 57.947 870.105 57.2005C866.422 56.4539 862.594 57.1957 859.456 59.2637Z" fill="black"/>
<path d="M731.487 111.361C734.625 113.453 738.465 114.213 742.163 113.474C745.86 112.734 749.113 110.557 751.205 107.419L779.643 64.7628C781.711 61.6251 782.452 57.7963 781.706 54.1133C780.959 50.4303 778.785 47.1926 775.658 45.1079C772.532 43.0231 768.707 42.2609 765.02 42.9878C761.333 43.7147 758.084 45.8716 755.983 48.9871L727.545 91.6434C725.453 94.7809 724.693 98.6209 725.432 102.319C726.172 106.017 728.35 109.269 731.487 111.361Z" fill="black"/>
<path d="M875.232 741.764L789.919 684.889C788.366 683.841 786.621 683.111 784.784 682.74C782.948 682.368 781.056 682.364 779.218 682.726C777.38 683.089 775.631 683.811 774.073 684.851C772.515 685.892 771.177 687.23 770.138 688.789C769.099 690.348 768.377 692.096 768.016 693.935C767.655 695.773 767.661 697.665 768.033 699.501C768.405 701.338 769.137 703.082 770.185 704.635C771.234 706.188 772.579 707.518 774.143 708.549L859.456 765.424C862.594 767.492 866.422 768.234 870.105 767.487C873.788 766.74 877.026 764.566 879.111 761.44C881.196 758.313 881.958 754.488 881.231 750.801C880.504 747.114 878.347 743.865 875.232 741.764Z" fill="black"/>
<path d="M731.487 713.326C728.35 715.418 726.172 718.671 725.432 722.369C724.693 726.067 725.453 729.907 727.545 733.044L755.983 775.7C758.084 778.816 761.333 780.973 765.02 781.7C768.707 782.427 772.532 781.664 775.658 779.58C778.785 777.495 780.959 774.257 781.706 770.574C782.452 766.891 781.711 763.062 779.643 759.925L751.205 717.268C749.113 714.131 745.86 711.953 742.163 711.214C738.465 710.474 734.625 711.234 731.487 713.326Z" fill="black"/>
<path d="M156.963 867.413C154.473 867.413 152.026 866.758 149.868 865.516C147.71 864.273 145.916 862.485 144.666 860.331C143.415 858.177 142.753 855.732 142.745 853.241C142.736 850.751 143.382 848.302 144.618 846.14L192.887 761.661L166.685 752.932C164.645 752.252 162.785 751.117 161.247 749.614C159.708 748.111 158.531 746.279 157.803 744.255C157.075 742.231 156.816 740.068 157.045 737.929C157.274 735.791 157.985 733.732 159.125 731.908L224.591 627.162C210.856 614.365 191.764 611.358 166.549 617.95C150.889 622.298 135.943 628.896 122.177 637.536C119.637 639.225 116.621 640.052 113.575 639.895C110.529 639.738 107.614 638.606 105.261 636.666C102.907 634.725 101.24 632.079 100.506 629.119C99.7711 626.159 100.008 623.04 101.181 620.225C123.247 567.271 125.935 522.471 109.18 487.073C87.336 440.95 39.6143 426.176 39.1344 426.032C36.075 425.115 33.4136 423.194 31.5792 420.579C29.7447 417.965 28.844 414.809 29.0222 411.62C29.2004 408.431 30.4471 405.394 32.5614 403C34.6758 400.606 37.5346 398.994 40.6772 398.423C41.1837 398.327 95.6077 387.636 123.77 341.015C144.767 306.254 146.58 259.925 129.162 203.313C128.394 200.817 128.329 198.158 128.972 195.627C129.616 193.096 130.944 190.791 132.812 188.966C134.679 187.14 137.013 185.864 139.558 185.277C142.102 184.69 144.76 184.816 147.238 185.639C170.188 192.172 194.051 194.918 217.885 193.769C270.002 191.363 312.836 170.925 345.214 133.014C346.642 131.343 348.437 130.026 350.46 129.165C352.482 128.305 354.676 127.925 356.87 128.056C359.064 128.186 361.198 128.823 363.104 129.918C365.01 131.012 366.637 132.533 367.856 134.361C368.823 135.762 393.661 170.694 455.557 170.694C517.453 170.694 542.292 135.762 543.322 134.274C544.542 132.453 546.169 130.94 548.074 129.855C549.979 128.77 552.109 128.142 554.298 128.021C556.487 127.901 558.674 128.29 560.686 129.16C562.699 130.029 564.482 131.354 565.895 133.03C598.271 170.934 641.112 191.371 693.232 193.778C717.075 194.927 740.945 192.179 763.901 185.639C766.379 184.824 769.033 184.706 771.573 185.297C774.113 185.888 776.442 187.166 778.305 188.991C780.168 190.816 781.494 193.118 782.137 195.645C782.781 198.173 782.717 200.829 781.954 203.322C764.536 259.934 766.349 306.262 787.346 341.024C815.507 387.645 869.932 398.336 870.478 398.432C873.616 399.011 876.467 400.629 878.574 403.024C880.682 405.42 881.922 408.455 882.095 411.641C882.269 414.827 881.366 417.979 879.531 420.589C877.697 423.2 875.038 425.118 871.982 426.034C871.541 426.169 823.386 441.406 801.793 487.383C785.19 522.732 787.929 567.427 809.927 620.227C811.158 623.179 811.357 626.46 810.492 629.54C809.627 632.619 807.749 635.317 805.162 637.197C802.575 639.078 799.429 640.031 796.233 639.903C793.037 639.775 789.977 638.573 787.549 636.491C787.202 636.198 749.846 604.977 712.303 613.551C688.679 618.943 668.856 639.322 653.39 674.126C652.521 676.081 651.223 677.815 649.592 679.198C647.961 680.581 646.038 681.579 643.968 682.116C641.898 682.654 639.733 682.717 637.635 682.302C635.537 681.887 633.56 681.003 631.85 679.718C631.536 679.482 597.114 654.209 555.581 654.133H555.508C530.447 654.133 498.171 677.969 466.918 719.552C465.518 721.414 463.682 722.904 461.571 723.891C459.46 724.877 457.139 725.329 454.812 725.208C452.485 725.087 450.223 724.395 448.226 723.195C446.229 721.995 444.558 720.322 443.359 718.324C433.34 701.675 398.391 654.131 370.245 654.131C324.389 654.131 290.995 688.937 276.57 707.302L307.039 727.614C308.899 728.855 310.44 730.516 311.537 732.464C312.634 734.412 313.256 736.592 313.353 738.825C313.45 741.059 313.019 743.284 312.095 745.319C311.171 747.355 309.779 749.144 308.034 750.542L165.847 864.292C163.327 866.312 160.193 867.413 156.963 867.413ZM192.811 731.666L218.335 740.174C220.331 740.84 222.154 741.939 223.673 743.394C225.192 744.849 226.37 746.623 227.12 748.588C227.871 750.553 228.177 752.66 228.015 754.758C227.853 756.855 227.227 758.89 226.184 760.717L206.297 795.517L275.08 740.487L248.598 722.836C245.558 720.809 243.415 717.69 242.613 714.125C241.812 710.56 242.413 706.824 244.293 703.691C246.213 700.506 292.001 625.694 370.245 625.694C406.558 625.694 439.693 663.702 456.535 686.904C498.695 636.71 533.316 625.6 555.639 625.694C589.231 625.756 618.157 638.643 634.575 647.87C653.114 613.192 677.156 592.329 706.188 585.776C730.077 580.382 752.864 585.885 770.627 593.508C758.363 548.509 760.221 508.729 776.242 474.904C790.19 445.448 812.22 426.382 830.705 414.695C809.087 404.686 781.934 386.847 763.214 356.053C740.808 319.196 735.867 272.983 748.44 218.435C730.157 221.694 711.574 222.965 693.017 222.224C638.737 219.965 591.414 199.675 555.19 163.321C539.638 177.849 507.921 199.131 455.557 199.131C403.193 199.131 371.476 177.849 355.926 163.321C319.699 199.675 272.377 219.965 218.097 222.224C199.54 222.96 180.958 221.69 162.674 218.435C175.247 272.983 170.306 319.196 147.901 356.053C129.18 386.847 102.028 404.686 80.4097 414.695C98.8941 426.381 120.933 445.443 134.873 474.904C151.308 509.607 152.842 550.56 139.512 596.997C145.755 594.503 152.139 592.376 158.631 590.627C199.582 579.707 232.44 588.881 253.651 617.163C255.373 619.459 256.36 622.223 256.482 625.09C256.604 627.958 255.855 630.796 254.333 633.23L192.811 731.666Z" fill="#F7DCDC"/>
<path d="M192.811 731.666L218.335 740.174C220.331 740.84 222.154 741.939 223.673 743.394C225.192 744.849 226.37 746.623 227.12 748.588C227.871 750.553 228.177 752.66 228.015 754.758C227.853 756.855 227.227 758.89 226.184 760.717L206.297 795.517L275.08 740.487L248.598 722.836C245.558 720.809 243.415 717.69 242.613 714.125C241.812 710.56 242.413 706.824 244.293 703.691C246.213 700.506 292.001 625.694 370.245 625.694C406.558 625.694 439.693 663.702 456.535 686.904C498.695 636.71 533.316 625.6 555.639 625.694C589.231 625.756 618.157 638.643 634.575 647.87C653.114 613.192 677.156 592.329 706.188 585.776C730.077 580.382 752.864 585.885 770.627 593.508C758.363 548.509 760.221 508.729 776.242 474.904C790.19 445.448 812.22 426.382 830.705 414.695C809.087 404.686 781.934 386.847 763.214 356.053C740.808 319.196 735.867 272.983 748.44 218.435C730.157 221.694 711.574 222.965 693.017 222.224C638.737 219.965 591.414 199.675 555.19 163.321C539.638 177.849 507.921 199.131 455.557 199.131C403.193 199.131 371.476 177.849 355.926 163.321C319.699 199.675 272.377 219.965 218.097 222.224C199.54 222.96 180.958 221.69 162.674 218.435C175.247 272.983 170.306 319.196 147.901 356.053C129.18 386.847 102.028 404.686 80.4097 414.695C98.8941 426.381 120.933 445.443 134.873 474.904C151.308 509.607 152.842 550.56 139.512 596.997C145.755 594.503 152.139 592.376 158.631 590.627C199.582 579.707 232.44 588.881 253.651 617.163C255.373 619.459 256.36 622.223 256.482 625.09C256.604 627.958 255.855 630.796 254.333 633.23L192.811 731.666Z" fill="#F7DCDC"/>
<path d="M156.406 867.344C153.915 867.344 151.468 866.69 149.31 865.447C147.152 864.204 145.358 862.416 144.108 860.262C142.858 858.108 142.195 855.663 142.187 853.173C142.179 850.682 142.825 848.233 144.06 846.071L192.329 761.592L166.128 752.863C164.087 752.183 162.228 751.049 160.689 749.546C159.151 748.043 157.973 746.21 157.245 744.186C156.517 742.162 156.258 739.999 156.487 737.861C156.716 735.722 157.427 733.663 158.567 731.839L224.034 627.093C210.298 614.296 191.206 611.289 165.991 617.881C150.331 622.23 135.385 628.827 121.62 637.467C119.079 639.156 116.064 639.983 113.017 639.826C109.971 639.669 107.056 638.537 104.703 636.597C102.35 634.656 100.682 632.011 99.948 629.05C99.2135 626.09 99.4504 622.971 100.624 620.156C122.69 567.202 125.377 522.402 108.622 487.005C86.7784 440.881 39.0567 426.107 38.5768 425.964C35.5174 425.046 32.856 423.125 31.0215 420.511C29.1871 417.896 28.2863 414.74 28.4645 411.551C28.6427 408.362 29.8895 405.326 32.0038 402.932C34.1182 400.538 36.977 398.925 40.1195 398.354C40.6261 398.258 95.0501 387.568 123.212 340.946C144.21 306.185 146.023 259.856 128.605 203.245C127.837 200.748 127.771 198.089 128.415 195.558C129.058 193.027 130.387 190.723 132.254 188.897C134.121 187.071 136.455 185.795 139 185.208C141.545 184.621 144.202 184.747 146.68 185.571C169.631 192.103 193.493 194.849 217.328 193.7C269.445 191.294 312.279 170.856 344.657 132.945C346.084 131.274 347.88 129.957 349.902 129.096C351.924 128.236 354.119 127.856 356.313 127.987C358.507 128.117 360.64 128.755 362.546 129.849C364.453 130.943 366.079 132.464 367.298 134.292C368.265 135.693 393.104 170.625 455 170.625C516.896 170.625 541.734 135.693 542.765 134.205C543.985 132.384 545.611 130.871 547.516 129.786C549.421 128.701 551.552 128.073 553.741 127.953C555.929 127.832 558.116 128.222 560.129 129.091C562.141 129.96 563.924 131.285 565.337 132.961C597.713 170.865 640.554 191.303 692.675 193.709C716.517 194.859 740.387 192.11 763.344 185.571C765.821 184.756 768.475 184.637 771.015 185.228C773.555 185.819 775.884 187.097 777.747 188.922C779.611 190.747 780.936 193.049 781.58 195.577C782.223 198.104 782.16 200.76 781.396 203.253C763.978 259.865 765.791 306.194 786.789 340.955C814.949 387.576 869.375 398.267 869.92 398.363C873.058 398.942 875.91 400.56 878.017 402.956C880.124 405.352 881.364 408.386 881.538 411.572C881.711 414.758 880.808 417.91 878.974 420.52C877.139 423.131 874.48 425.049 871.424 425.965C870.983 426.1 822.828 441.338 801.235 487.314C784.633 522.663 787.372 567.358 809.37 620.158C810.6 623.11 810.799 626.391 809.934 629.471C809.07 632.55 807.192 635.248 804.604 637.129C802.017 639.009 798.871 639.962 795.675 639.834C792.479 639.706 789.42 638.504 786.991 636.422C786.645 636.129 749.289 604.908 711.746 613.482C688.121 618.875 668.299 639.254 652.832 674.058C651.964 676.012 650.666 677.746 649.034 679.129C647.403 680.512 645.481 681.51 643.411 682.047C641.34 682.585 639.176 682.648 637.078 682.233C634.979 681.818 633.002 680.935 631.292 679.649C630.978 679.413 596.556 654.141 555.023 654.064H554.95C529.89 654.064 497.613 677.9 466.36 719.483C464.96 721.346 463.124 722.835 461.013 723.822C458.902 724.808 456.581 725.26 454.254 725.139C451.927 725.018 449.666 724.327 447.669 723.126C445.672 721.926 444 720.253 442.802 718.255C432.783 701.606 397.833 654.062 369.687 654.062C323.832 654.062 290.437 688.868 276.012 707.233L306.481 727.545C308.341 728.786 309.882 730.448 310.979 732.396C312.076 734.344 312.698 736.523 312.795 738.756C312.892 740.99 312.461 743.215 311.537 745.251C310.613 747.286 309.222 749.075 307.476 750.473L165.289 864.223C162.769 866.243 159.636 867.344 156.406 867.344ZM192.253 731.597L217.777 740.105C219.773 740.771 221.596 741.871 223.115 743.326C224.635 744.781 225.812 746.554 226.563 748.519C227.314 750.484 227.619 752.592 227.457 754.689C227.295 756.786 226.67 758.821 225.626 760.648L205.74 795.448L274.523 740.418L248.04 722.767C245 720.741 242.857 717.621 242.056 714.056C241.254 710.492 241.856 706.755 243.736 703.622C245.655 700.437 291.443 625.625 369.687 625.625C406 625.625 439.135 663.633 455.977 686.835C498.137 636.641 532.758 625.531 555.082 625.625C588.674 625.687 617.6 638.575 634.017 647.801C652.557 613.123 676.599 592.261 705.63 585.708C729.519 580.313 752.307 585.816 770.069 593.439C757.806 548.44 759.663 508.66 775.684 474.835C789.633 445.379 811.663 426.314 830.147 414.626C808.529 404.618 781.377 386.778 762.656 355.984C740.251 319.127 735.31 272.915 747.883 218.366C729.599 221.626 711.017 222.896 692.46 222.155C638.18 219.896 590.856 199.606 554.632 163.253C539.08 177.781 507.364 199.062 455 199.062C402.635 199.062 370.919 177.781 355.369 163.253C319.141 199.606 271.819 219.896 217.539 222.155C198.982 222.891 180.4 221.621 162.116 218.366C174.689 272.915 169.748 319.127 147.343 355.984C128.622 386.778 101.47 404.618 79.8521 414.626C98.3364 426.312 120.375 445.374 134.315 474.835C150.75 509.538 152.284 550.491 138.954 596.928C145.198 594.434 151.581 592.307 158.073 590.558C199.025 579.638 231.882 588.813 253.093 617.094C254.816 619.39 255.802 622.154 255.924 625.022C256.046 627.889 255.297 630.727 253.776 633.161L192.253 731.597Z" fill="black"/>
</svg>
