<svg width="512" height="512" viewBox="0 0 512 512" fill="none" xmlns="http://www.w3.org/2000/svg">
<path d="M44.8512 507.486C43.9183 507.484 43.0117 507.177 42.2701 506.611C41.5284 506.045 40.9927 505.252 40.7449 504.353C40.497 503.453 40.5508 502.498 40.8979 501.632C41.245 500.766 41.8663 500.038 42.6667 499.558L64.7253 486.315L30.9163 505.83C29.9437 506.372 28.7979 506.512 27.7234 506.221C26.649 505.93 25.7309 505.23 25.1652 504.271C24.5995 503.312 24.4309 502.17 24.6955 501.089C24.9601 500.008 25.6368 499.073 26.5813 498.483L91.6139 459.375L20.0789 500.676C19.1069 501.23 17.9562 501.38 16.8746 501.094C15.7931 500.808 14.8673 500.108 14.2966 499.146C13.7259 498.183 13.5561 497.035 13.8236 495.949C14.0911 494.863 14.7746 493.925 15.7269 493.338L188.715 388.011L12.5696 489.702C11.5953 490.278 10.4321 490.444 9.33588 490.162C8.23966 489.88 7.30024 489.175 6.72426 488.201C6.14828 487.226 5.98293 486.063 6.26458 484.967C6.54624 483.871 7.25182 482.931 8.22612 482.355L133.12 406.895L10.9227 477.449C9.95494 477.952 8.83111 478.066 7.78213 477.766C6.73315 477.467 5.8387 476.777 5.2826 475.839C4.72649 474.9 4.55098 473.784 4.79213 472.72C5.03328 471.657 5.67278 470.725 6.57919 470.118L185.122 361.455L10.9141 462.037C9.94209 462.617 8.77971 462.786 7.6827 462.509C6.58568 462.231 5.6439 461.529 5.06452 460.557C4.48515 459.585 4.31565 458.422 4.5933 457.325C4.87095 456.228 5.57302 455.287 6.54506 454.707L251.733 303.471L10.9141 442.487C9.95624 442.94 8.8643 443.02 7.85076 442.712C6.83721 442.404 5.97455 441.729 5.43061 440.82C4.88668 439.911 4.70037 438.832 4.90793 437.794C5.1155 436.755 5.70209 435.83 6.55359 435.2L240.683 291.157L10.9056 423.782C10.4226 424.066 9.8884 424.253 9.33347 424.33C8.77854 424.408 8.21375 424.375 7.67136 424.235C7.12897 424.094 6.61959 423.848 6.17231 423.511C5.72502 423.173 5.3486 422.751 5.06452 422.268C4.78045 421.785 4.59429 421.251 4.51666 420.696C4.43904 420.141 4.47148 419.576 4.61213 419.034C4.75278 418.491 4.99889 417.982 5.3364 417.534C5.6739 417.087 6.09621 416.711 6.57919 416.427L100.881 359.646L10.9056 411.605C9.9344 412.126 8.7996 412.25 7.73876 411.953C6.67792 411.655 5.77328 410.959 5.21423 410.009C4.65518 409.06 4.48506 407.931 4.73948 406.859C4.9939 405.787 5.65314 404.855 6.57919 404.258L37.8027 385.579L10.9056 401.067C9.93619 401.578 8.80729 401.696 7.75288 401.398C6.69847 401.099 5.79941 400.406 5.24205 399.462C4.68469 398.519 4.51176 397.397 4.75911 396.329C5.00647 395.262 5.65513 394.33 6.57066 393.728L128.905 319.846L10.9056 388.002C9.93355 388.556 8.78283 388.706 7.70129 388.42C6.61975 388.133 5.69394 387.434 5.12327 386.471C4.5526 385.509 4.38274 384.361 4.65027 383.275C4.9178 382.189 5.60131 381.251 6.55359 380.663L195.678 265.387L10.8971 372.053C9.9245 372.595 8.77872 372.735 7.70424 372.444C6.62977 372.153 5.7117 371.453 5.14599 370.494C4.58028 369.535 4.41172 368.393 4.6763 367.312C4.94088 366.231 5.61763 365.295 6.56212 364.706L152.354 276.352L10.8971 358.016C9.93628 358.488 8.8331 358.582 7.80641 358.279C6.77972 357.975 5.90454 357.297 5.35454 356.379C4.80454 355.46 4.61991 354.369 4.83728 353.321C5.05465 352.272 5.65813 351.344 6.52799 350.72L230.562 212.079L10.8971 338.893C9.92765 339.404 8.79875 339.522 7.74435 339.224C6.68994 338.925 5.79088 338.232 5.23352 337.289C4.67615 336.345 4.50323 335.223 4.75058 334.156C4.99793 333.088 5.6466 332.156 6.56212 331.554L71.68 292.25L10.8885 327.339C9.91799 327.866 8.78058 327.997 7.71559 327.703C6.6506 327.41 5.74108 326.714 5.17839 325.764C4.61569 324.813 4.4437 323.681 4.69859 322.606C4.95349 321.531 5.6154 320.597 6.54506 320L106.505 259.2L10.9312 314.402C9.95915 314.956 8.80842 315.106 7.72689 314.82C6.64535 314.533 5.71954 313.834 5.14887 312.871C4.5782 311.909 4.40834 310.761 4.67587 309.675C4.9434 308.589 5.62691 307.651 6.57919 307.063L122.88 235.81L10.8885 300.45C9.92218 300.966 8.79434 301.091 7.73861 300.798C6.68288 300.506 5.78018 299.818 5.2175 298.878C4.65482 297.938 4.47527 296.818 4.71606 295.749C4.95684 294.68 5.59951 293.745 6.51092 293.137L152.491 202.351L10.8373 284.1C9.8686 284.618 8.73753 284.742 7.67954 284.447C6.62155 284.152 5.71815 283.46 5.1574 282.516C4.59665 281.571 4.42175 280.447 4.6691 279.376C4.91645 278.306 5.567 277.373 6.48532 276.77L49.9115 250.317L10.88 272.845C9.91125 273.403 8.76194 273.559 7.67938 273.279C6.59682 272.999 5.66755 272.305 5.09156 271.346C4.51557 270.388 4.33889 269.241 4.59956 268.154C4.86022 267.067 5.53738 266.125 6.48532 265.532L132.779 186.172L10.88 256.546C9.91365 257.062 8.7858 257.187 7.73008 256.894C6.67435 256.602 5.77165 255.914 5.20897 254.974C4.64628 254.034 4.46674 252.914 4.70753 251.845C4.94831 250.776 5.59098 249.841 6.50239 249.233L69.2139 210.389L10.8715 244.053C9.89829 244.632 8.73527 244.8 7.63826 244.52C6.54125 244.241 5.6001 243.537 5.02186 242.564C4.44361 241.591 4.27564 240.428 4.5549 239.331C4.83415 238.234 5.53776 237.293 6.51092 236.715L10.4875 234.291C9.49928 234.741 8.37693 234.797 7.34899 234.447C6.32105 234.098 5.46482 233.371 4.95468 232.412C4.44455 231.454 4.31888 230.337 4.60326 229.29C4.88764 228.242 5.56068 227.342 6.48532 226.773L55.296 196.309L10.8715 221.978C9.90535 222.53 8.76178 222.683 7.68459 222.404C6.6074 222.125 5.68183 221.436 5.10524 220.484C4.52866 219.532 4.34668 218.393 4.59812 217.309C4.84956 216.225 5.51451 215.282 6.45119 214.682L77.5936 169.335L10.8715 207.846C9.90881 208.376 8.77904 208.514 7.71741 208.231C6.65578 207.948 5.74411 207.267 5.17225 206.329C4.6004 205.391 4.41242 204.268 4.64748 203.195C4.88254 202.122 5.52251 201.181 6.43412 200.567L66.5003 161.971L10.8629 194.091C9.90816 194.642 8.77682 194.803 7.70615 194.539C6.63548 194.275 5.70864 193.607 5.11999 192.674C4.52897 191.74 4.32321 190.614 4.54604 189.532C4.76886 188.449 5.40289 187.496 6.31466 186.871L91.4773 128.751L10.8629 175.283C9.91552 175.775 8.81827 175.893 7.78767 175.616C6.75707 175.338 5.86799 174.684 5.29585 173.783C4.72372 172.882 4.51008 171.799 4.69711 170.748C4.88413 169.698 5.45823 168.755 6.30612 168.107L69.12 124.587L10.8544 158.285C9.90335 158.824 8.78144 158.978 7.72026 158.715C6.65907 158.451 5.7396 157.79 5.15163 156.868C4.56367 155.946 4.35209 154.834 4.56057 153.76C4.76905 152.687 5.38167 151.735 6.27199 151.1L49.1605 121.071L10.8544 143.181C9.90468 143.714 8.78686 143.864 7.73005 143.6C6.67323 143.336 5.75747 142.678 5.17045 141.76C4.58344 140.843 4.36963 139.735 4.57285 138.665C4.77607 137.595 5.38093 136.643 6.26346 136.004L30.72 118.75L10.8544 130.193C9.93133 130.721 8.84461 130.884 7.80707 130.653C6.76954 130.421 5.85593 129.81 5.24519 128.94C4.63445 128.069 4.37058 127.003 4.50527 125.948C4.63995 124.893 5.16348 123.927 5.97332 123.238L38.2123 95.9317L10.8544 111.718C9.95381 112.213 8.90512 112.365 7.90095 112.149C6.89678 111.932 6.00456 111.36 5.38817 110.538C4.77178 109.716 4.47261 108.7 4.54562 107.675C4.61863 106.65 5.05891 105.686 5.78559 104.96L21.2651 90.2485L10.8459 96.2645C10.0441 96.7243 9.11476 96.9114 8.19758 96.7975C7.28039 96.6836 6.42497 96.275 5.76 95.6332C5.09502 94.9913 4.65645 94.1508 4.51026 93.2383C4.36406 92.3257 4.51814 91.3903 4.94932 90.5728L11.264 78.6261C10.3286 78.6127 9.42351 78.2921 8.68811 77.7139C7.95271 77.1357 7.42774 76.3317 7.19401 75.4259C6.96027 74.5201 7.03073 73.5625 7.39454 72.7006C7.75835 71.8388 8.39534 71.1204 9.20746 70.656L19.3109 64.8533C20.1134 64.3912 21.0445 64.2027 21.9636 64.3163C22.8826 64.43 23.7398 64.8395 24.4056 65.4832C25.0714 66.1268 25.5097 66.9696 25.6544 67.8843C25.799 68.799 25.6422 69.7359 25.2075 70.5536L19.4219 81.4421L48.2133 64.8533C49.1173 64.3377 50.1785 64.1703 51.1973 64.3826C52.2162 64.5948 53.1223 65.1721 53.7451 66.0057C54.368 66.8394 54.6648 67.872 54.5795 68.9092C54.4942 69.9463 54.0328 70.9166 53.2821 71.6373L37.7856 86.3317L75.0421 64.8533C75.9642 64.3279 77.0489 64.165 78.0846 64.3963C79.1203 64.6276 80.0326 65.2366 80.6435 66.1044C81.2544 66.9722 81.5199 68.0365 81.3883 69.0895C81.2567 70.1425 80.7374 71.1087 79.9317 71.7995L47.7269 99.1061L107.034 64.8533C107.983 64.3198 109.101 64.1697 110.158 64.4338C111.215 64.698 112.131 65.3563 112.718 66.2739C113.305 67.1916 113.518 68.299 113.315 69.3692C113.112 70.4394 112.507 71.3913 111.625 72.0299L87.168 89.3184L129.553 64.8533C130.504 64.3138 131.626 64.1599 132.687 64.4235C133.748 64.6872 134.668 65.3482 135.256 66.2701C135.844 67.192 136.055 68.3045 135.847 69.3778C135.638 70.4512 135.026 71.4036 134.135 72.0384L91.3067 102.016L155.716 64.8533C156.667 64.3339 157.781 64.1959 158.83 64.4673C159.879 64.7388 160.786 65.3993 161.366 66.3148C161.946 67.2303 162.155 68.3322 161.952 69.3968C161.75 70.4614 161.149 71.4089 160.273 72.0469L97.4336 115.456L185.173 64.8533C186.127 64.3228 187.248 64.1781 188.305 64.4488C189.363 64.7196 190.276 65.3853 190.858 66.3089C191.439 67.2326 191.645 68.344 191.432 69.4145C191.219 70.485 190.604 71.4332 189.713 72.064L104.567 130.193L217.762 64.8021C218.725 64.2727 219.855 64.135 220.916 64.4177C221.978 64.7004 222.889 65.3817 223.461 66.3198C224.033 67.2579 224.221 68.3804 223.986 69.4536C223.751 70.5268 223.111 71.4679 222.199 72.0811L162.202 110.635L241.562 64.7936C242.526 64.2546 243.662 64.1106 244.73 64.3919C245.798 64.6733 246.716 65.358 247.29 66.3021C247.863 67.2461 248.048 68.3759 247.806 69.4537C247.564 70.5315 246.913 71.4734 245.99 72.0811L174.839 117.444L266.069 64.7936C267.034 64.2848 268.157 64.1647 269.207 64.4581C270.258 64.7515 271.156 65.436 271.718 66.3711C272.279 67.3061 272.461 68.4207 272.226 69.4858C271.992 70.5509 271.358 71.4857 270.455 72.0981L221.551 102.622L287.095 64.7936C288.065 64.2574 289.206 64.1196 290.276 64.4093C291.345 64.6991 292.26 65.3937 292.827 66.3462C293.393 67.2987 293.567 68.4342 293.311 69.5125C293.055 70.5909 292.39 71.5273 291.456 72.1237L288.384 74.0011L304.358 64.7851C305.326 64.2523 306.462 64.1153 307.528 64.403C308.595 64.6908 309.508 65.3807 310.076 66.3278C310.644 67.2749 310.823 68.4054 310.574 69.4815C310.326 70.5577 309.67 71.4956 308.745 72.0981L246.007 110.933L325.973 64.7851C326.94 64.2434 328.08 64.0991 329.151 64.3827C330.222 64.6663 331.141 65.3555 331.713 66.3045C332.285 67.2536 332.466 68.388 332.216 69.4677C331.967 70.5474 331.307 71.4877 330.377 72.0896L204.083 151.45L354.21 64.7765C355.18 64.2403 356.321 64.1025 357.39 64.3923C358.46 64.6821 359.375 65.3767 359.941 66.3291C360.508 67.2816 360.682 68.4172 360.426 69.4955C360.17 70.5738 359.505 71.5102 358.571 72.1067L315.051 98.6624L373.76 64.7765C374.727 64.2437 375.864 64.1068 376.93 64.3945C377.996 64.6822 378.909 65.3722 379.477 66.3193C380.045 67.2664 380.224 68.3969 379.976 69.473C379.728 70.5491 379.072 71.4871 378.146 72.0896L232.226 162.842L402.048 64.768C403.018 64.2318 404.158 64.094 405.228 64.3837C406.298 64.6735 407.213 65.3681 407.779 66.3206C408.346 67.2731 408.52 68.4086 408.264 69.4869C408.008 70.5653 407.343 71.5017 406.409 72.0981L289.997 143.42L426.231 64.768C427.2 64.2502 428.331 64.126 429.389 64.4212C430.447 64.7164 431.351 65.4082 431.911 66.3527C432.472 67.2972 432.647 68.4216 432.4 69.4917C432.152 70.5619 431.502 71.4955 430.583 72.0981L330.641 132.89L448.631 64.768C449.602 64.2402 450.739 64.1094 451.804 64.4032C452.869 64.697 453.779 65.3924 454.342 66.3431C454.904 67.2938 455.076 68.4257 454.821 69.5007C454.567 70.5756 453.905 71.5098 452.975 72.1067L388.062 111.283L468.651 64.7595C469.617 64.2433 470.745 64.1187 471.801 64.4113C472.856 64.704 473.759 65.3915 474.322 66.3315C474.884 67.2715 475.064 68.3919 474.823 69.4607C474.582 70.5294 473.94 71.4646 473.028 72.0725L249.011 210.688L496 68.0875C496.974 67.5115 498.138 67.3461 499.234 67.6278C500.33 67.9094 501.269 68.615 501.845 69.5893C502.421 70.5636 502.587 71.7268 502.305 72.823C502.023 73.9192 501.318 74.8587 500.343 75.4347L354.423 163.84L501.077 79.1979C502.049 78.6439 503.2 78.494 504.282 78.7803C505.363 79.0666 506.289 79.7663 506.86 80.7286C507.43 81.6909 507.6 82.8388 507.333 83.9251C507.065 85.0115 506.382 85.9493 505.429 86.5365L316.245 201.865L501.077 95.1979C502.052 94.6219 503.215 94.4565 504.311 94.7382C505.407 95.0198 506.347 95.7254 506.923 96.6997C507.499 97.674 507.664 98.8372 507.382 99.9334C507.101 101.03 506.395 101.969 505.421 102.545L383.078 176.375L501.077 108.254C502.049 107.734 503.183 107.609 504.244 107.907C505.305 108.204 506.21 108.901 506.769 109.85C507.328 110.799 507.498 111.928 507.243 113C506.989 114.072 506.33 115.004 505.404 115.601L474.556 134.067L501.077 118.758C502.05 118.217 503.196 118.076 504.27 118.368C505.345 118.659 506.263 119.359 506.828 120.318C507.394 121.276 507.563 122.418 507.298 123.5C507.034 124.581 506.357 125.516 505.412 126.106L411.102 182.878L501.077 130.935C502.044 130.426 503.17 130.307 504.222 130.603C505.275 130.899 506.173 131.588 506.732 132.527C507.292 133.466 507.469 134.584 507.228 135.65C506.988 136.716 506.347 137.65 505.438 138.257L271.258 282.334L501.077 149.649C502.049 149.07 503.212 148.9 504.309 149.178C505.406 149.455 506.348 150.158 506.927 151.13C507.506 152.102 507.676 153.264 507.398 154.361C507.121 155.458 506.418 156.4 505.446 156.979L260.267 308.215L501.077 169.19C502.048 168.663 503.185 168.532 504.25 168.826C505.315 169.119 506.225 169.815 506.787 170.765C507.35 171.716 507.522 172.848 507.267 173.923C507.012 174.998 506.35 175.932 505.421 176.529L326.972 285.124L501.052 184.61C502.022 184.082 503.16 183.952 504.225 184.245C505.29 184.539 506.199 185.234 506.762 186.185C507.325 187.136 507.497 188.268 507.242 189.343C506.987 190.418 506.325 191.352 505.395 191.949L380.211 267.588L501.077 197.82C502.045 197.316 503.169 197.202 504.218 197.502C505.267 197.801 506.161 198.491 506.717 199.43C507.274 200.368 507.449 201.484 507.208 202.548C506.967 203.612 506.327 204.543 505.421 205.15L332.638 310.357L501.077 213.12C502.05 212.578 503.196 212.438 504.27 212.729C505.345 213.021 506.263 213.72 506.828 214.679C507.394 215.638 507.563 216.78 507.298 217.861C507.034 218.943 506.357 219.878 505.412 220.467L440.243 259.661L501.086 224.538C502.057 224.017 503.192 223.893 504.253 224.19C505.314 224.488 506.218 225.184 506.777 226.134C507.336 227.083 507.506 228.212 507.252 229.284C506.998 230.356 506.338 231.288 505.412 231.885L483.388 245.094L501.086 234.854C502.056 234.327 503.194 234.196 504.259 234.49C505.324 234.783 506.233 235.479 506.796 236.429C507.359 237.38 507.531 238.512 507.276 239.587C507.021 240.662 506.359 241.596 505.429 242.193L388.668 313.25L501.086 248.32C502.054 247.795 503.187 247.665 504.249 247.956C505.311 248.248 506.219 248.939 506.784 249.884C507.348 250.83 507.525 251.957 507.277 253.03C507.029 254.103 506.377 255.039 505.455 255.642L349.295 351.923L501.086 264.329C502.055 263.811 503.186 263.687 504.244 263.982C505.302 264.277 506.205 264.969 506.766 265.913C507.327 266.858 507.501 267.982 507.254 269.052C507.007 270.122 506.356 271.056 505.438 271.659L413.722 327.68L501.086 277.248C502.055 276.663 503.216 276.487 504.315 276.758C505.413 277.029 506.359 277.726 506.944 278.694C507.529 279.663 507.705 280.824 507.434 281.923C507.163 283.022 506.466 283.968 505.498 284.553L330.402 395.486L501.069 296.943C502.038 296.425 503.169 296.301 504.227 296.596C505.285 296.891 506.188 297.583 506.749 298.528C507.309 299.472 507.484 300.597 507.237 301.667C506.99 302.737 506.339 303.67 505.421 304.273L467.473 327.458L501.086 308.053C502.055 307.536 503.186 307.411 504.244 307.707C505.302 308.002 506.205 308.694 506.766 309.638C507.327 310.583 507.501 311.707 507.254 312.777C507.007 313.847 506.356 314.781 505.438 315.383L476.655 332.996L501.086 318.899C502.053 318.366 503.19 318.229 504.256 318.517C505.322 318.805 506.235 319.495 506.803 320.442C507.371 321.389 507.55 322.52 507.302 323.596C507.053 324.672 506.398 325.61 505.472 326.212L422.699 377.984L501.129 332.706C502.095 332.164 503.235 332.02 504.306 332.304C505.377 332.587 506.296 333.277 506.868 334.226C507.44 335.175 507.621 336.309 507.371 337.389C507.122 338.468 506.462 339.409 505.532 340.011L431.403 386.56L501.086 346.334C502.047 345.812 503.172 345.68 504.228 345.963C505.284 346.247 506.191 346.925 506.761 347.858C507.332 348.791 507.522 349.907 507.293 350.977C507.065 352.046 506.434 352.986 505.532 353.604L412.032 414.037L501.086 362.667C502.047 362.12 503.183 361.968 504.254 362.243C505.325 362.517 506.248 363.197 506.828 364.139C507.407 365.08 507.599 366.21 507.362 367.29C507.125 368.37 506.478 369.316 505.557 369.929L420.881 425.549L501.094 379.247C502.057 378.671 503.208 378.496 504.298 378.762C505.387 379.028 506.329 379.712 506.918 380.667C507.507 381.622 507.696 382.77 507.445 383.864C507.193 384.957 506.521 385.907 505.574 386.509L444.382 426.786L501.094 394.052C502.049 393.507 503.177 393.351 504.244 393.617C505.311 393.883 506.234 394.55 506.821 395.48C507.407 396.41 507.612 397.531 507.393 398.608C507.173 399.685 506.546 400.637 505.643 401.263L442.428 444.587L501.086 410.726C502.045 410.181 503.178 410.028 504.247 410.3C505.316 410.572 506.239 411.248 506.82 412.185C507.402 413.122 507.598 414.249 507.368 415.327C507.137 416.406 506.497 417.354 505.583 417.971L482.782 433.161L501.086 422.596C502.045 422.051 503.178 421.898 504.247 422.17C505.316 422.442 506.239 423.117 506.82 424.055C507.402 424.992 507.598 426.118 507.368 427.197C507.137 428.276 506.497 429.224 505.583 429.841L500.548 433.195L501.086 432.896C502.02 432.368 503.118 432.212 504.162 432.458C505.207 432.703 506.12 433.333 506.72 434.222C507.321 435.111 507.564 436.194 507.403 437.254C507.241 438.315 506.686 439.275 505.847 439.945L468.318 469.333L501.086 450.423C502.03 449.891 503.142 449.737 504.196 449.994C505.249 450.252 506.165 450.901 506.757 451.809C507.349 452.718 507.573 453.817 507.384 454.885C507.194 455.953 506.605 456.908 505.737 457.557L501.931 460.339C502.823 460.056 503.783 460.073 504.664 460.389C505.545 460.705 506.297 461.302 506.806 462.088C507.314 462.874 507.55 463.805 507.477 464.738C507.404 465.671 507.026 466.554 506.402 467.251L489.455 486.229L499.866 480.256C500.351 479.971 500.888 479.786 501.445 479.709C502.003 479.633 502.57 479.668 503.114 479.812C503.658 479.956 504.168 480.206 504.615 480.547C505.062 480.889 505.437 481.316 505.718 481.803C506 482.291 506.182 482.829 506.255 483.387C506.327 483.945 506.288 484.512 506.141 485.055C505.994 485.598 505.74 486.106 505.395 486.551C505.051 486.996 504.621 487.368 504.132 487.646L470.716 506.88C469.838 507.382 468.811 507.556 467.817 507.371C466.824 507.186 465.928 506.654 465.289 505.871C464.651 505.087 464.312 504.102 464.332 503.091C464.352 502.08 464.73 501.11 465.399 500.352L482.338 481.365L438.144 506.88C437.2 507.413 436.088 507.566 435.034 507.309C433.981 507.052 433.065 506.403 432.473 505.494C431.881 504.586 431.656 503.486 431.846 502.418C432.036 501.351 432.625 500.395 433.493 499.746L436.531 497.528L420.318 506.914C419.384 507.452 418.28 507.617 417.23 507.374C416.179 507.132 415.259 506.501 414.655 505.608C414.051 504.715 413.807 503.627 413.973 502.561C414.138 501.496 414.701 500.533 415.548 499.866L453.094 470.451L389.948 506.914C388.991 507.436 387.871 507.573 386.817 507.295C385.762 507.018 384.855 506.347 384.279 505.421C383.704 504.496 383.505 503.385 383.723 502.317C383.94 501.249 384.559 500.304 385.451 499.678L390.477 496.324L372.053 506.88C371.097 507.402 369.976 507.539 368.922 507.261C367.868 506.984 366.96 506.313 366.385 505.387C365.81 504.461 365.61 503.351 365.828 502.283C366.046 501.214 366.664 500.27 367.556 499.644L390.349 484.446L351.522 506.88C350.57 507.405 349.453 507.546 348.4 507.275C347.347 507.003 346.437 506.34 345.856 505.421C345.276 504.502 345.068 503.395 345.276 502.328C345.483 501.26 346.091 500.312 346.974 499.678L410.172 456.329L322.603 506.88C321.642 507.437 320.502 507.598 319.425 507.328C318.348 507.058 317.419 506.378 316.834 505.434C316.25 504.49 316.057 503.355 316.296 502.271C316.535 501.186 317.187 500.238 318.114 499.627L379.332 459.332L296.96 506.88C296 507.417 294.87 507.562 293.806 507.286C292.742 507.01 291.825 506.334 291.247 505.398C290.669 504.463 290.475 503.34 290.705 502.265C290.934 501.19 291.57 500.244 292.48 499.627L377.097 444.041L268.237 506.88C267.275 507.418 266.142 507.562 265.076 507.283C264.01 507.004 263.093 506.324 262.518 505.384C261.942 504.445 261.752 503.319 261.988 502.242C262.224 501.166 262.867 500.223 263.782 499.61L357.274 439.219L240.077 506.88C239.112 507.411 237.979 507.548 236.915 507.262C235.852 506.977 234.94 506.291 234.37 505.349C233.8 504.407 233.617 503.281 233.858 502.206C234.099 501.132 234.747 500.192 235.665 499.584L309.76 453.035L216.405 506.88C215.441 507.389 214.318 507.509 213.267 507.216C212.217 506.922 211.318 506.238 210.757 505.303C210.196 504.367 210.013 503.253 210.248 502.188C210.483 501.123 211.117 500.188 212.019 499.575L294.912 447.753L192.512 506.88C191.542 507.416 190.402 507.554 189.332 507.264C188.262 506.975 187.347 506.28 186.781 505.327C186.214 504.375 186.04 503.239 186.296 502.161C186.552 501.083 187.217 500.146 188.151 499.55L216.917 481.946L173.687 506.88C172.719 507.398 171.588 507.522 170.53 507.227C169.472 506.932 168.568 506.24 168.008 505.295C167.447 504.351 167.272 503.226 167.519 502.156C167.767 501.086 168.417 500.153 169.335 499.55L207.249 476.382L154.453 506.88C153.487 507.432 152.344 507.585 151.266 507.306C150.189 507.027 149.264 506.338 148.687 505.386C148.111 504.435 147.929 503.295 148.18 502.212C148.431 501.128 149.096 500.185 150.033 499.584L325.12 388.727L120.38 506.88C119.411 507.398 118.28 507.522 117.222 507.227C116.164 506.932 115.261 506.24 114.7 505.295C114.139 504.351 113.964 503.226 114.212 502.156C114.459 501.086 115.109 500.153 116.028 499.55L207.949 443.392L97.9627 506.88C96.9946 507.405 95.8611 507.535 94.7992 507.244C93.7373 506.952 92.8292 506.261 92.2649 505.316C91.7006 504.37 91.5238 503.243 91.7714 502.17C92.0191 501.097 92.672 500.161 93.5936 499.558L249.66 403.371L70.3061 506.88C69.3374 507.398 68.2063 507.522 67.1483 507.227C66.0903 506.932 65.187 506.24 64.6262 505.295C64.0655 504.351 63.8906 503.226 64.1379 502.156C64.3853 501.086 65.0358 500.153 65.9541 499.55L182.724 428.544L46.9845 506.88C46.3393 507.267 45.6033 507.476 44.8512 507.486Z" fill="#D3E3F2"/>
<path d="M26.752 81.0667C25.8662 81.0691 25.0016 80.7957 24.2782 80.2846C23.5548 79.7735 23.0084 79.0498 22.7148 78.2141C22.4212 77.3784 22.395 76.4721 22.6398 75.6208C22.8847 74.7695 23.3883 74.0155 24.081 73.4635L64.9813 40.7808L10.9226 71.9957C9.97747 72.5216 8.86788 72.6689 7.81827 72.4078C6.76865 72.1468 5.85735 71.4968 5.2687 70.5895C4.68004 69.6821 4.45796 68.585 4.64738 67.5201C4.83679 66.4552 5.42357 65.502 6.28902 64.8533L21.4869 53.8538L10.9141 59.9381C9.99566 60.4731 8.91064 60.6459 7.87144 60.4229C6.83224 60.1999 5.91369 59.5971 5.29562 58.7324C4.67754 57.8677 4.40444 56.8035 4.52978 55.7481C4.65513 54.6926 5.16988 53.722 5.97328 53.0261L26.9482 34.8842L10.9141 44.1344C10.0706 44.62 9.08644 44.8026 8.1249 44.6519C7.16335 44.5013 6.28222 44.0264 5.62767 43.3061C4.97312 42.5858 4.58451 41.6634 4.52631 40.6918C4.46811 39.7203 4.74381 38.7581 5.30768 37.9648L16.0255 22.8949C15.0274 23.3258 13.9024 23.3593 12.8804 22.9888C11.8583 22.6182 11.0163 21.8715 10.5262 20.9011C10.0361 19.9307 9.93487 18.8098 10.2433 17.7673C10.5517 16.7248 11.2464 15.8393 12.1855 15.2917L28.6805 5.76851C29.5232 5.28208 30.5069 5.09831 31.4684 5.24769C32.4299 5.39707 33.3115 5.87062 33.9669 6.5898C34.6224 7.30899 35.0123 8.2306 35.072 9.20181C35.1318 10.173 34.8578 11.1355 34.2954 11.9296L23.6117 26.9482L61.44 5.11998C62.3579 4.60163 63.4353 4.44149 64.4644 4.67042C65.4934 4.89935 66.4013 5.50115 67.0129 6.35978C67.6246 7.21842 67.8967 8.2731 67.7768 9.32048C67.6569 10.3679 67.1535 11.3338 66.3637 12.032L45.4229 30.1653L88.8576 5.11998C89.8045 4.57655 90.9237 4.41679 91.9848 4.67357C93.046 4.93035 93.9683 5.58413 94.562 6.50037C95.1557 7.4166 95.3755 8.52556 95.1763 9.599C94.9772 10.6724 94.374 11.6287 93.4912 12.2709L78.3445 23.2192L109.722 5.11998C110.653 4.58134 111.753 4.41439 112.802 4.65255C113.851 4.89071 114.772 5.51641 115.379 6.40434C115.987 7.29228 116.236 8.3769 116.078 9.44101C115.92 10.5051 115.365 11.4702 114.526 12.1429L73.6085 44.817L142.404 5.11998C143.359 4.57433 144.487 4.41824 145.554 4.68428C146.621 4.95031 147.544 5.61792 148.13 6.54789C148.717 7.47785 148.922 8.59837 148.702 9.67575C148.483 10.7531 147.856 11.7042 146.952 12.3306L140.279 16.896L160.674 5.11998C161.609 4.5783 162.716 4.41184 163.769 4.65423C164.822 4.89662 165.745 5.52979 166.349 6.42582C166.954 7.32185 167.196 8.41395 167.026 9.48149C166.857 10.549 166.288 11.5124 165.436 12.177L126.754 42.2997L191.189 5.11998C192.14 4.59371 193.255 4.44982 194.308 4.71767C195.361 4.98552 196.272 5.64493 196.855 6.56141C197.439 7.47789 197.651 8.58241 197.448 9.64971C197.245 10.717 196.642 11.6667 195.763 12.305L179.447 23.6885L211.678 5.11998C212.621 4.59142 213.73 4.44064 214.78 4.69811C215.83 4.95558 216.743 5.60209 217.335 6.50698C217.926 7.41188 218.152 8.50766 217.967 9.57286C217.782 10.6381 217.199 11.5932 216.337 12.2453L186.129 34.432L236.954 5.11998C237.897 4.59142 239.005 4.44064 240.055 4.69811C241.106 4.95558 242.019 5.60209 242.61 6.50698C243.202 7.41188 243.428 8.50766 243.243 9.57286C243.058 10.6381 242.475 11.5932 241.613 12.2453L210.679 35.0464L262.579 5.11998C263.517 4.58917 264.622 4.43308 265.67 4.68308C266.718 4.93309 267.633 5.57066 268.231 6.46766C268.829 7.36467 269.065 8.45463 268.892 9.51851C268.719 10.5824 268.149 11.5413 267.298 12.2026L231.151 39.7483L291.183 5.11998C292.122 4.58534 293.229 4.42708 294.281 4.67715C295.332 4.92721 296.25 5.56698 296.848 6.46723C297.446 7.36749 297.68 8.46113 297.502 9.52729C297.325 10.5934 296.75 11.5526 295.893 12.2112L261.12 38.5024L318.933 5.11998C319.888 4.59668 321.006 4.45805 322.06 4.73248C323.113 5.00691 324.022 5.67364 324.6 6.59618C325.178 7.51872 325.381 8.62728 325.169 9.69493C324.956 10.7626 324.343 11.7085 323.456 12.3392L321.357 13.7642L336.341 5.11998C337.283 4.5885 338.39 4.43407 339.441 4.68787C340.492 4.94167 341.407 5.5848 342.002 6.48731C342.597 7.38983 342.827 8.48447 342.646 9.5501C342.464 10.6157 341.886 11.5729 341.026 12.2282L307.959 36.9749L363.085 5.11998C364.023 4.57786 365.133 4.4132 366.188 4.65945C367.244 4.90569 368.166 5.54438 368.768 6.44584C369.369 7.34729 369.605 8.44394 369.428 9.51313C369.251 10.5823 368.673 11.5439 367.812 12.2026L331.665 39.7568L391.68 5.11998C392.63 4.59371 393.746 4.44982 394.799 4.71767C395.852 4.98552 396.763 5.64493 397.346 6.56141C397.929 7.47789 398.141 8.58241 397.938 9.64971C397.735 10.717 397.133 11.6667 396.254 12.305L381.133 22.8522L411.895 5.11998C412.825 4.59408 413.919 4.43614 414.959 4.67738C416 4.91861 416.912 5.54146 417.516 6.42283C418.12 7.3042 418.371 8.37996 418.22 9.4375C418.068 10.495 417.526 11.4574 416.7 12.1344L375.467 45.312L445.116 5.11998C446.066 4.57202 447.191 4.41112 448.257 4.67069C449.322 4.93026 450.247 5.59036 450.839 6.51392C451.431 7.43748 451.645 8.55353 451.435 9.63033C451.226 10.7071 450.61 11.662 449.715 12.2965L428.663 27.1957L466.952 5.11998C467.906 4.60215 469.02 4.46684 470.07 4.74158C471.119 5.01633 472.025 5.68048 472.602 6.59898C473.179 7.51748 473.385 8.62134 473.177 9.68607C472.969 10.7508 472.364 11.6964 471.484 12.3306L466.202 15.9317L482.568 6.46825C483.499 5.93964 484.595 5.78032 485.638 6.02191C486.681 6.26349 487.595 6.88833 488.199 7.77242C488.802 8.65652 489.052 9.73527 488.897 10.7946C488.743 11.854 488.195 12.8165 487.364 13.4912L448.444 44.5781L496.555 16.8021C497.47 16.2805 498.546 16.1159 499.575 16.34C500.604 16.5642 501.514 17.1612 502.13 18.0161C502.745 18.871 503.023 19.9234 502.909 20.9707C502.795 22.018 502.298 22.986 501.512 23.6885L469.939 51.6181L501.146 33.6042C502.076 33.0581 503.179 32.8847 504.232 33.1191C505.285 33.3534 506.21 33.9779 506.822 34.8671C507.433 35.7562 507.684 36.8438 507.526 37.911C507.367 38.9782 506.81 39.9456 505.967 40.6187L499.396 45.9434L501.205 44.9024C502.1 44.4105 503.142 44.2561 504.142 44.4672C505.141 44.6783 506.032 45.241 506.651 46.0529C507.271 46.8648 507.579 47.8721 507.519 48.8917C507.459 49.9114 507.036 50.8757 506.325 51.6096L501.205 56.7296C501.933 56.3074 502.769 56.1097 503.609 56.1613C504.448 56.2129 505.254 56.5116 505.924 57.0197C506.594 57.5279 507.099 58.2225 507.375 59.0165C507.651 59.8106 507.687 60.6685 507.477 61.4827L505.216 70.2379C505.924 70.5668 506.528 71.0835 506.962 71.7317C507.396 72.38 507.645 73.135 507.68 73.9146C507.715 74.6942 507.536 75.4685 507.162 76.1532C506.787 76.838 506.232 77.407 505.557 77.7984L501.291 80.256C500.563 80.6748 499.729 80.8699 498.891 80.8169C498.054 80.7638 497.25 80.4649 496.582 79.9576C495.913 79.4502 495.409 78.757 495.133 77.9647C494.856 77.1723 494.82 76.316 495.027 75.5029L496.648 69.1883L477.517 80.2133C476.622 80.7052 475.58 80.8596 474.58 80.6485C473.581 80.4374 472.69 79.8748 472.071 79.0629C471.451 78.251 471.143 77.2437 471.203 76.224C471.263 75.2043 471.686 74.24 472.397 73.5061L477.517 68.3861L456.977 80.2133C456.048 80.7562 454.947 80.9277 453.897 80.6936C452.846 80.4595 451.923 79.837 451.312 78.9508C450.701 78.0647 450.448 76.9804 450.603 75.9153C450.758 74.8502 451.309 73.883 452.147 73.2075L458.718 67.8827L437.325 80.273C436.41 80.7947 435.334 80.9593 434.304 80.7351C433.275 80.511 432.365 79.914 431.749 79.0591C431.134 78.2041 430.857 77.1517 430.97 76.1045C431.084 75.0572 431.582 74.0891 432.367 73.3867L463.94 45.4571L403.627 80.2901C402.695 80.8288 401.595 80.9957 400.546 80.7575C399.497 80.5194 398.576 79.8937 397.969 79.0058C397.361 78.1178 397.112 77.0332 397.27 75.9691C397.428 74.905 397.983 73.9399 398.822 73.2672L437.76 42.1888L371.729 80.3072C370.774 80.8444 369.648 80.9934 368.586 80.7233C367.524 80.4533 366.606 79.7848 366.024 78.8565C365.441 77.9282 365.238 76.8113 365.457 75.7373C365.675 74.6634 366.299 73.7147 367.198 73.088L372.497 69.4784L353.724 80.3157C352.773 80.8637 351.649 81.0246 350.583 80.765C349.517 80.5054 348.592 79.8453 348 78.9218C347.408 77.9982 347.195 76.8822 347.404 75.8054C347.613 74.7286 348.229 73.7737 349.124 73.1392L370.184 58.2059L331.87 80.3243C330.94 80.8598 329.842 81.0251 328.795 80.7872C327.748 80.5493 326.83 79.9256 326.223 79.0406C325.615 78.1556 325.364 77.0741 325.519 76.012C325.673 74.9499 326.223 73.985 327.057 73.3098L368.307 40.1066L298.615 80.3413C297.663 80.8879 296.537 81.0462 295.47 80.7834C294.404 80.5205 293.48 79.8567 292.891 78.93C292.302 78.0034 292.093 76.8852 292.307 75.8082C292.521 74.7312 293.143 73.7783 294.042 73.1477L309.205 62.5835L278.426 80.3499C277.487 80.892 276.377 81.0566 275.322 80.8104C274.266 80.5641 273.344 79.9254 272.743 79.024C272.141 78.1225 271.905 77.0259 272.082 75.9567C272.26 74.8875 272.837 73.9259 273.698 73.2672L309.854 45.6789L249.762 80.3669C248.821 80.8984 247.713 81.0528 246.662 80.799C245.612 80.5452 244.696 79.9021 244.102 78.9996C243.507 78.0971 243.277 77.0024 243.458 75.9368C243.639 74.8712 244.218 73.914 245.077 73.2587L278.118 48.512L223.002 80.384C222.045 80.9292 220.914 81.0835 219.846 80.8144C218.779 80.5453 217.856 79.8738 217.272 78.9403C216.688 78.0068 216.487 76.8836 216.712 75.8056C216.937 74.7276 217.57 73.7783 218.479 73.1563L220.587 71.68L205.576 80.3925C204.637 80.9272 203.53 81.0854 202.479 80.8354C201.427 80.5853 200.51 79.9455 199.912 79.0453C199.314 78.145 199.08 77.0514 199.257 75.9852C199.434 74.9191 200.009 73.9599 200.866 73.3013L235.674 46.9931L177.8 80.4096C176.862 80.9517 175.752 81.1164 174.697 80.8701C173.641 80.6239 172.719 79.9852 172.118 79.0837C171.516 78.1823 171.28 77.0856 171.457 76.0164C171.635 74.9472 172.212 73.9857 173.073 73.3269L209.246 45.7216L149.154 80.4181C148.211 80.9467 147.102 81.0975 146.052 80.84C145.002 80.5825 144.089 79.936 143.497 79.0311C142.906 78.1262 142.679 77.0304 142.865 75.9652C143.05 74.9 143.633 73.9449 144.495 73.2928L175.403 50.4747L123.52 80.4352C122.575 80.981 121.457 81.1441 120.396 80.8909C119.334 80.6377 118.41 79.9874 117.813 79.0738C117.217 78.1602 116.993 77.0527 117.188 75.979C117.382 74.9053 117.981 73.9471 118.861 73.3013L149.06 51.1146L98.2186 80.4523C97.2662 80.9988 96.1397 81.1572 95.0736 80.8943C94.0074 80.6314 93.0836 79.9676 92.4944 79.041C91.9052 78.1143 91.696 76.9962 91.9103 75.9192C92.1245 74.8422 92.7458 73.8892 93.6448 73.2587L110.02 61.8155L77.713 80.4608C76.775 81.0249 75.6561 81.207 74.5876 80.9694C73.5191 80.7318 72.5829 80.0926 71.9724 79.184C71.362 78.2755 71.124 77.1671 71.3078 76.088C71.4916 75.009 72.0831 74.0419 72.96 73.3867L111.633 43.264L47.1722 80.4779C46.219 80.9787 45.1116 81.1005 44.0722 80.8189C43.0329 80.5374 42.1384 79.8732 41.5683 78.9597C40.9982 78.0462 40.7945 76.9509 40.9982 75.8936C41.2019 74.8362 41.7979 73.895 42.6666 73.2587L49.3824 68.6763L28.9024 80.4864C28.251 80.8703 27.508 81.0708 26.752 81.0667Z" fill="#57BFFF"/>
<path d="M481.69 6.10984C476.066 5.87944 470.391 6.10984 464.768 6.10984H237.739C172.373 6.10984 106.931 5.70024 41.5317 6.10984C35.1393 5.59393 28.7155 6.59577 22.7838 9.03369C16.8521 11.4716 11.5804 15.2766 7.39836 20.1386C3.1331 27.2743 1.36195 35.6257 2.36369 43.8784V470.793C1.29161 479.084 3.02808 487.496 7.29596 494.686C10.733 498.797 15.1485 501.977 20.1363 503.935C25.1242 505.893 30.5243 506.565 35.84 505.89H473.83C473.958 505.89 474.189 505.822 474.359 505.805C474.53 505.788 474.795 505.847 475.153 505.805C493.329 504.823 509.082 494.123 509.645 474.854C509.85 468.028 509.645 461.201 509.645 454.374V97.4762C509.645 76.288 510.268 54.9888 509.645 33.809C509.666 30.1441 508.955 26.5118 507.554 23.125C506.153 19.7382 504.091 16.6649 501.488 14.0853C498.884 11.5057 495.792 9.47157 492.392 8.10208C488.993 6.73259 485.354 6.05528 481.69 6.10984ZM14.7114 33.3397C16 5.90504 39.7994 10.9568 58.7605 10.9568H408.047C429.21 10.9568 450.449 10.4106 471.595 10.9568C497.98 11.6309 497.289 34.7904 497.289 53.8197V73.233H14.5066C14.336 59.921 14.097 46.5664 14.7114 33.3397ZM497.289 472.388C497.289 483.797 495.983 499.994 480.887 501.043H49.6213C43.5792 501.569 37.4922 501.163 31.5733 499.84C9.28423 492.604 14.72 461.534 14.72 443.341V90.9568C14.72 87.4325 14.72 83.8997 14.6346 80.3669H497.289V472.388Z" fill="#8E8E8E"/>
<path d="M40.1067 45.6789H48.64C50.2984 45.6302 51.9344 45.2833 53.4699 44.6549C54.1788 44.4095 54.8507 44.0678 55.4667 43.6394C56 43.3519 56.4747 42.967 56.8661 42.5045C57.3184 41.873 57.7195 41.0282 56.9771 40.3968C56.0161 39.8009 54.8849 39.5398 53.76 39.6544H45.2267C43.5683 39.7031 41.9323 40.05 40.3968 40.6784C39.6938 40.9253 39.0277 41.2669 38.4171 41.6938C37.8838 41.9814 37.4091 42.3663 37.0176 42.8288C36.5653 43.4602 36.1643 44.305 36.9067 44.9365C37.8628 45.5287 38.9874 45.7896 40.1067 45.6789Z" fill="#262626"/>
<path d="M83.0548 46.6346H91.5882C93.2538 46.6875 94.9109 46.3758 96.4436 45.7216C97.1558 45.4403 97.8097 45.0294 98.3722 44.5098C98.9164 44.1353 99.3687 43.6422 99.6948 43.0677C99.9832 42.6218 100.126 42.0973 100.103 41.5668C100.08 41.0362 99.8927 40.526 99.5668 40.1066C98.6604 39.2037 97.4329 38.6974 96.1535 38.6986H87.6202C85.9545 38.6458 84.2974 38.9574 82.7647 39.6117C82.0525 39.8929 81.3986 40.3038 80.8362 40.8234C80.2919 41.1979 79.8397 41.691 79.5135 42.2656C79.2251 42.7114 79.0825 43.236 79.1054 43.7665C79.1284 44.297 79.3157 44.8073 79.6415 45.2266C80.5479 46.1295 81.7755 46.6359 83.0548 46.6346Z" fill="#262626"/>
<path d="M125.551 46.0032H134.084C135.746 45.9878 137.389 45.6517 138.923 45.0133C139.628 44.7577 140.29 44.3951 140.885 43.9381C141.423 43.6094 141.89 43.1772 142.259 42.6666C142.72 41.9242 143.061 40.96 142.259 40.2688C141.312 39.5563 140.139 39.2107 138.957 39.296H130.423C128.762 39.3113 127.119 39.6474 125.585 40.2858C124.879 40.5414 124.218 40.9041 123.622 41.361C123.091 41.7025 122.632 42.1463 122.274 42.6666C121.813 43.409 121.472 44.3733 122.274 45.0645C123.219 45.7589 124.382 46.0919 125.551 46.0032Z" fill="#262626"/>
<path d="M397.09 45.3205H465.357C468.444 45.4569 471.499 44.6374 474.103 42.9738C475.81 41.7024 475.955 40.0128 473.31 40.0128H405.043C401.956 39.8764 398.901 40.6959 396.297 42.3594C394.59 43.6309 394.445 45.3205 397.09 45.3205Z" fill="#262626"/>
<path d="M89.2245 181.683C89.8887 181.828 90.5672 181.897 91.2469 181.888C92.0694 181.872 92.8889 181.783 93.696 181.623C100.826 181.167 107.526 178.052 112.469 172.894C115.65 169.115 117.311 164.287 117.129 159.351V146.97C117.495 142.74 116.67 138.492 114.748 134.707C106.923 121.549 87.0912 123.409 76.9024 132.668C74.8985 134.496 73.3043 136.728 72.2248 139.216C71.1452 141.705 70.6048 144.394 70.6389 147.106V158.677C70.1497 163.306 70.9161 167.981 72.8576 172.211C74.5581 175.049 76.9527 177.407 79.8159 179.064C82.6792 180.721 85.9169 181.622 89.2245 181.683ZM97.7579 176.521H97.664C98.0053 176.41 98.2101 176.469 97.7579 176.521ZM83.6266 139.29C84.2675 136.997 85.4365 134.887 87.04 133.129C87.857 132.302 88.7547 131.558 89.7194 130.91C89.617 130.987 89.8901 130.85 90.0949 130.739C89.9328 130.739 89.8304 130.739 90.0949 130.739L90.2912 130.637C90.1803 130.697 90.1888 130.705 90.129 130.739H90.7349C90.8629 130.739 91.904 130.825 92.049 130.842C93.0283 131 93.9871 131.266 94.9077 131.635C97.4052 132.655 99.5997 134.297 101.282 136.405C104.815 142.84 106.061 150.283 104.815 157.517C105.055 160.779 104.909 164.059 104.38 167.287C103.736 170.038 102.348 172.559 100.369 174.575C99.5714 175.373 98.6491 176.036 97.6384 176.538H96.5461C98.2528 176.538 96.017 176.435 95.8037 176.41C95.2681 176.318 94.7382 176.195 94.2165 176.043C92.9925 175.692 91.8235 175.172 90.7434 174.498C88.4812 173.127 86.598 171.211 85.265 168.926C83.635 165.805 82.8663 162.305 83.0378 158.788V148.062C82.8226 145.125 83.0208 142.172 83.6266 139.29Z" fill="#262626"/>
<path d="M90.0693 130.731H90.0351L90.0266 130.739L90.0522 130.748L90.0693 130.731Z" fill="#262626"/>
<path d="M90.0522 130.748C90.5557 130.748 89.6 131.029 90.0522 130.748Z" fill="#262626"/>
<path d="M145.553 174.43C143.869 174.517 142.251 175.112 140.911 176.137C139.78 176.95 139.017 178.176 138.786 179.55C138.675 182.835 141.85 183.919 144.58 183.919H161.647C163.331 183.832 164.949 183.237 166.289 182.212C167.42 181.399 168.183 180.172 168.414 178.799C168.525 175.514 165.35 174.43 162.62 174.43H159.778V126.344C159.778 124.535 155.409 124.894 154.564 125.013C152.07 125.296 149.734 126.38 147.908 128.102L139.375 136.636C137.276 138.726 141.158 139.665 142.558 139.648C144.236 139.601 145.889 139.224 147.422 138.539V174.43H145.553Z" fill="#262626"/>
<path d="M200.781 181.692C213.999 181.419 228.011 174.268 228.087 159.599C228.087 155.529 228.087 151.467 228.087 147.396C228.46 143.247 227.752 139.072 226.031 135.279C218.684 121.754 198.784 123.691 188.399 132.386C186.261 134.166 184.541 136.394 183.362 138.913C182.182 141.432 181.571 144.18 181.572 146.961C181.521 150.707 181.572 154.462 181.572 158.208C181.092 162.771 181.745 167.382 183.475 171.631C185.159 174.734 187.664 177.314 190.717 179.089C193.769 180.863 197.251 181.764 200.781 181.692ZM208.973 176.734C208.913 176.734 208.887 176.734 208.819 176.734C208.964 176.683 209.101 176.64 209.058 176.734H208.973ZM200.96 130.355H201.062C200.61 130.611 200.346 130.355 200.96 130.355ZM194.321 139.861C194.878 137.528 195.942 135.346 197.436 133.47C198.181 132.56 199.042 131.751 199.996 131.063C200.346 130.816 200.721 130.594 201.096 130.381C201.455 130.441 202.052 130.534 202.197 130.543C203.196 130.665 204.178 130.899 205.124 131.243C207.676 132.182 209.948 133.753 211.729 135.808C215.596 142.152 217.01 149.691 215.706 157.005C215.916 160.229 215.828 163.465 215.441 166.673C214.912 169.475 213.636 172.081 211.746 174.217C210.86 175.192 209.829 176.026 208.691 176.691C206.222 176.572 203.82 175.852 201.693 174.592C199.566 173.332 197.779 171.572 196.488 169.463C194.662 166.314 193.774 162.708 193.928 159.07V148.523C193.725 145.63 193.857 142.724 194.321 139.861Z" fill="#262626"/>
<path d="M414.08 181.564C427.213 181.299 441.387 174.199 441.387 159.599C441.387 155.529 441.387 151.467 441.387 147.396C441.76 143.247 441.051 139.072 439.33 135.279C432.009 121.805 412.066 123.938 401.724 132.48C399.583 134.242 397.86 136.457 396.679 138.966C395.498 141.474 394.89 144.214 394.897 146.987C394.846 150.733 394.897 154.487 394.897 158.234C394.416 162.796 395.07 167.407 396.8 171.657C398.488 174.74 400.994 177.297 404.044 179.045C407.093 180.793 410.566 181.665 414.08 181.564ZM415.002 129.963C414.815 130.032 414.624 130.089 414.43 130.133C414.455 130.031 414.609 129.963 415.002 129.963ZM407.646 139.819C408.217 137.442 409.307 135.222 410.837 133.316C411.637 132.334 412.574 131.472 413.619 130.756L414.157 130.432C414.475 130.414 414.794 130.414 415.112 130.432C416.208 130.543 417.286 130.79 418.321 131.166C420.933 132.124 423.256 133.734 425.071 135.842C428.904 142.196 430.307 149.722 429.022 157.03C429.21 160.214 429.133 163.408 428.791 166.579C428.275 169.488 426.967 172.199 425.011 174.413C424.088 175.298 423.098 176.111 422.05 176.845C419.567 176.699 417.156 175.953 415.023 174.672C412.891 173.391 411.1 171.613 409.805 169.489C407.978 166.339 407.09 162.733 407.245 159.095V148.523C407.049 145.615 407.183 142.695 407.646 139.819Z" fill="#262626"/>
<path d="M253.44 139.588C255.123 139.534 256.78 139.157 258.321 138.479V175.019H258.193C256.525 174.929 254.859 175.221 253.32 175.872C251.98 176.431 250.854 177.402 250.103 178.645C249.819 179.129 249.684 179.686 249.716 180.247C249.748 180.807 249.945 181.346 250.283 181.794C250.725 182.272 251.259 182.656 251.853 182.922C252.446 183.189 253.088 183.334 253.739 183.347H270.805C272.473 183.437 274.14 183.145 275.678 182.494C277.018 181.935 278.145 180.964 278.895 179.721C279.179 179.237 279.314 178.679 279.282 178.119C279.25 177.559 279.053 177.02 278.716 176.572C278.278 176.099 277.751 175.718 277.165 175.452C276.579 175.185 275.946 175.038 275.302 175.019H270.72V126.379C270.72 124.595 266.334 124.996 265.523 125.107C263.034 125.392 260.699 126.462 258.859 128.162L250.325 136.695C248.226 138.752 252.1 139.614 253.44 139.588Z" fill="#262626"/>
<path d="M309.521 174.498H307.703C306.018 174.591 304.398 175.185 303.053 176.205C301.922 177.018 301.159 178.245 300.928 179.618C300.8 182.895 304 183.885 306.697 183.885H323.763C325.449 183.792 327.068 183.198 328.414 182.178C329.544 181.365 330.308 180.138 330.539 178.765C330.667 175.488 327.467 174.498 324.77 174.498H321.946V127.326C321.946 121.967 312.952 124.467 310.707 126.711L302.174 135.245C301.731 135.57 301.396 136.022 301.214 136.54C301.031 137.059 301.01 137.62 301.152 138.151C301.294 138.682 301.593 139.158 302.01 139.517C302.426 139.875 302.942 140.099 303.488 140.16C305.516 140.599 307.632 140.371 309.521 139.511V174.498Z" fill="#262626"/>
<path d="M360.755 176.785C359.779 176.823 358.809 176.946 357.854 177.152C356.359 177.501 354.933 178.101 353.638 178.927C353.084 179.328 351.991 180.019 352.222 180.855C352.452 181.692 353.818 181.82 354.415 181.82H371.482C373.011 181.831 374.534 181.638 376.013 181.248C377.508 180.899 378.933 180.299 380.228 179.473C380.783 179.072 381.875 178.381 381.645 177.545C381.414 176.708 380.049 176.58 379.452 176.58H373.111V126.345C373.111 123.938 362.351 127.616 361.37 128.597L352.836 137.131C350.959 138.999 354.543 138.914 355.661 138.837C357.403 138.659 359.12 138.29 360.781 137.737V176.819L360.755 176.785Z" fill="#262626"/>
<path d="M463.104 209.451H53.504C48.384 209.451 40.5675 217.216 48.896 217.216H458.496C463.633 217.216 471.433 209.451 463.104 209.451Z" fill="#262626"/>
<path d="M91.042 302.797C91.7767 302.955 92.5262 303.035 93.2778 303.036C97.0407 302.97 100.742 302.07 104.115 300.401C107.488 298.732 110.449 296.336 112.785 293.385C115.78 289.338 117.33 284.405 117.188 279.373V266.778C117.507 262.037 116.478 257.304 114.219 253.124C106.274 239.804 86.3487 240.538 76.433 250.965C72.6429 254.969 70.5351 260.275 70.545 265.788V277.888C70.1225 282.99 71.1052 288.11 73.3866 292.693C75.2721 295.699 77.8697 298.193 80.9492 299.956C84.0288 301.718 87.4954 302.694 91.042 302.797ZM89.7364 252.331C90.0351 252.177 89.9327 252.237 89.7364 252.331ZM83.0548 267.793C82.8154 264.886 83.0605 261.959 83.7802 259.132C84.4472 257.314 85.4813 255.652 86.818 254.251C87.3113 253.814 87.8361 253.415 88.3882 253.056C88.6527 252.885 88.6698 252.868 88.7637 252.8C88.593 252.928 88.5076 253.013 89.3098 252.561L89.634 252.39C90.018 252.271 92.0234 251.844 91.1871 251.955C91.6308 251.895 92.0404 251.895 92.5183 251.878C92.7828 251.878 93.5509 251.878 93.7727 251.947C94.6371 252.058 95.4833 252.282 96.2901 252.612C98.4711 253.508 100.366 254.984 101.768 256.879C104.836 263.032 105.855 270.005 104.678 276.779C104.981 280.158 104.756 283.563 104.013 286.874C103.297 288.966 102.053 290.838 100.403 292.309C99.9013 292.73 99.3646 293.106 98.7988 293.436C99.7887 292.873 96.802 294.238 98.1674 293.734C97.2818 294.137 96.3152 294.33 95.3429 294.298C95.5903 294.298 94.2335 294.238 93.9604 294.195C92.4586 293.999 94.1567 294.349 92.7146 293.956C91.6393 293.668 90.6127 293.223 89.6682 292.634C87.5751 291.34 85.8593 289.518 84.6933 287.351C83.4264 284.654 82.8628 281.681 83.0548 278.707V267.793Z" fill="#262626"/>
<path d="M159.778 245.811C159.778 243.968 155.426 244.292 154.547 244.42C152.05 244.701 149.714 245.796 147.9 247.535C145.055 250.379 142.211 253.224 139.366 256.068C137.259 258.167 141.158 259.174 142.575 259.174C144.248 259.136 145.896 258.761 147.422 258.074V296.474C146.472 296.544 145.528 296.681 144.597 296.883C143.098 297.237 141.66 297.812 140.331 298.59C139.827 298.914 138.624 299.554 138.854 300.297C139.085 301.039 140.501 301.056 140.996 301.056H147.823C148.881 302.114 152.166 302.003 155.076 301.056H158.089C159.612 301.029 161.126 300.809 162.594 300.399C164.093 300.045 165.531 299.47 166.861 298.692C167.364 298.368 168.567 297.728 168.337 296.986C168.107 296.243 166.69 296.226 166.195 296.226H159.804V245.811H159.778Z" fill="#262626"/>
<path d="M202.564 302.814C202.803 302.814 203.068 302.814 203.315 302.754C203.563 302.694 203.904 302.805 204.168 302.805C207.928 302.738 211.626 301.844 215 300.187C218.374 298.529 221.342 296.148 223.693 293.214C226.71 289.22 228.276 284.317 228.13 279.313V266.718C228.44 262.138 227.48 257.561 225.357 253.491C217.6 240.068 197.751 240.836 187.656 250.931C183.735 254.872 181.53 260.203 181.521 265.762V277.751C181.088 282.654 181.934 287.585 183.979 292.062C185.858 295.33 188.565 298.045 191.828 299.933C195.091 301.82 198.794 302.814 202.564 302.814ZM193.971 267.947C193.747 265.017 193.972 262.07 194.637 259.209C195.266 257.244 196.361 255.462 197.828 254.012C198.101 253.747 198.195 253.645 198.246 253.585C198.298 253.525 198.426 253.466 198.724 253.244C198.664 253.286 200.431 252.169 199.578 252.638C199.578 252.638 200.508 252.22 200.704 252.1C201.327 251.947 202.786 251.639 202.052 251.733L202.752 251.674H203.947C205.055 251.747 206.143 252.01 207.164 252.45C209.254 253.344 211.081 254.757 212.471 256.555C215.733 262.785 216.837 269.922 215.612 276.847C215.896 280.226 215.672 283.629 214.946 286.942C214.229 289.062 213.005 290.975 211.379 292.514C210.872 292.934 210.333 293.314 209.766 293.649C210.731 293.077 207.795 294.502 209.152 293.973C208.441 294.301 207.673 294.483 206.891 294.511C204.66 294.459 202.481 293.83 200.566 292.686C198.65 291.542 197.063 289.922 195.959 287.983C194.471 285.228 193.777 282.115 193.954 278.989L193.971 267.947Z" fill="#262626"/>
<path d="M270.839 302.822C271.07 302.822 271.334 302.78 271.582 302.771C271.829 302.763 272.171 302.822 272.435 302.822C276.194 302.752 279.89 301.856 283.264 300.199C286.638 298.541 289.607 296.163 291.959 293.231C294.971 289.228 296.533 284.32 296.388 279.313V266.718C296.698 262.138 295.738 257.561 293.615 253.491C285.85 240.051 266.01 240.819 255.915 250.931C251.99 254.877 249.785 260.214 249.779 265.779V277.769C249.346 282.671 250.193 287.602 252.237 292.079C254.119 295.347 256.83 298.062 260.096 299.948C263.362 301.834 267.068 302.826 270.839 302.822ZM262.238 267.947C262.013 265.017 262.238 262.07 262.903 259.209C263.53 257.243 264.629 255.462 266.103 254.02C266.368 253.756 266.462 253.645 266.513 253.594C266.564 253.542 266.692 253.474 266.999 253.244C266.94 253.295 268.706 252.177 267.853 252.646C267.853 252.646 268.783 252.228 268.971 252.117C269.594 251.955 271.061 251.648 270.319 251.742L271.01 251.682H272.23C273.336 251.753 274.421 252.013 275.439 252.45C277.529 253.344 279.356 254.757 280.747 256.555C284.008 262.779 285.113 269.91 283.887 276.83C284.172 280.209 283.947 283.612 283.221 286.925C282.5 289.043 281.273 290.953 279.646 292.489C279.144 292.916 278.604 293.295 278.033 293.623C279.006 293.052 276.062 294.477 277.419 293.948C276.705 294.274 275.933 294.457 275.149 294.485C272.922 294.433 270.746 293.806 268.833 292.663C266.92 291.521 265.336 289.902 264.235 287.966C262.746 285.218 262.052 282.109 262.229 278.989L262.238 267.947Z" fill="#262626"/>
<path d="M326.622 295.851C325.044 295.941 323.491 296.284 322.022 296.866C320.737 297.269 319.566 297.974 318.609 298.923C318.165 299.494 317.705 300.297 318.464 300.885C319.441 301.426 320.564 301.644 321.673 301.508H338.739C340.397 301.441 342.031 301.089 343.569 300.467C344.855 300.065 346.026 299.359 346.982 298.411C347.426 297.839 347.887 297.037 347.127 296.448C346.151 295.907 345.027 295.689 343.919 295.825H338.978V245.811C338.978 243.439 328.218 247.091 327.245 248.073L318.711 256.606C316.834 258.475 320.418 258.364 321.527 258.253C323.269 258.073 324.986 257.704 326.647 257.152V295.851H326.622Z" fill="#262626"/>
<path d="M377.822 296.235C376.843 296.266 375.869 296.386 374.912 296.593C373.417 296.94 371.994 297.544 370.705 298.377C370.142 298.778 369.058 299.477 369.288 300.322C369.519 301.167 370.884 301.303 371.49 301.303H388.557C390.085 301.317 391.609 301.127 393.088 300.74C394.583 300.393 396.006 299.79 397.295 298.957C397.858 298.556 398.942 297.856 398.711 297.011C398.481 296.166 397.116 296.03 396.51 296.03H390.178V245.811C390.178 243.328 379.418 247.057 378.436 248.038L369.903 256.572C368.008 258.458 371.61 258.415 372.736 258.278C374.479 258.11 376.196 257.744 377.856 257.186V296.209L377.822 296.235Z" fill="#262626"/>
<path d="M429.022 295.535C427.412 295.581 425.822 295.913 424.328 296.516C423.035 296.958 421.878 297.725 420.966 298.743C420.514 299.418 420.113 300.314 420.898 300.979C421.856 301.633 423.011 301.934 424.166 301.833H441.233C442.893 301.797 444.533 301.458 446.071 300.834C447.365 300.392 448.522 299.625 449.434 298.607C449.886 297.933 450.287 297.037 449.502 296.371C448.544 295.718 447.389 295.416 446.234 295.518H441.378V245.811C441.378 244.275 436.881 244.915 436.301 245.009C433.832 245.281 431.496 246.265 429.576 247.842L421.043 256.375C419.055 258.364 422.75 258.714 424.03 258.637C425.737 258.52 427.418 258.158 429.022 257.562V295.535Z" fill="#262626"/>
<path d="M461.278 328.021H51.6778C44.4415 328.021 42.3509 337.579 50.7221 337.579H460.322C467.558 337.579 469.649 328.021 461.278 328.021Z" fill="#262626"/>
<path d="M90.0607 369.51H90.018L90.001 369.519L90.0351 369.527L90.0607 369.51Z" fill="#262626"/>
<path d="M90.0352 369.493C90.3595 369.553 89.6 369.783 90.0352 369.493Z" fill="#262626"/>
<path d="M89.873 420.693C89.9839 420.693 90.0949 420.651 90.2058 420.651H91.2042C95.1604 420.65 99.0765 419.858 102.722 418.323C106.368 416.787 109.671 414.538 112.435 411.708C115.614 407.96 117.281 403.162 117.111 398.251V385.903C117.46 381.794 116.693 377.667 114.893 373.956C107.298 360.602 87.4581 362.598 77.1583 371.507C75.0864 373.31 73.4294 375.54 72.3011 378.045C71.1728 380.549 70.5999 383.267 70.6218 386.014C70.5706 389.82 70.6218 393.634 70.6218 397.44C70.1707 401.905 70.8272 406.413 72.5333 410.564C74.2204 413.677 76.7292 416.268 79.7866 418.054C82.844 419.84 86.3327 420.753 89.873 420.693ZM98.0394 415.573C97.9626 415.573 97.937 415.573 97.8602 415.573C98.0223 415.522 98.1333 415.573 98.0394 415.573ZM83.3962 378.82C83.9466 376.493 85.0108 374.317 86.5109 372.454C87.2513 371.547 88.1127 370.746 89.0709 370.074C89.355 369.846 89.6677 369.657 90.001 369.51H90.1887L91.2725 369.562C92.489 369.684 93.6832 369.971 94.8223 370.415C97.2171 371.421 99.3378 372.983 101.009 374.972C104.727 381.449 106.053 389.027 104.755 396.382C105.001 399.658 104.861 402.952 104.337 406.195C103.688 408.957 102.302 411.49 100.326 413.525C99.5431 414.302 98.6557 414.965 97.6895 415.497C95.2351 415.387 92.8447 414.679 90.7267 413.435C88.6087 412.19 86.8274 410.445 85.5381 408.354C83.7065 405.206 82.8179 401.599 82.9781 397.961V387.217C82.7837 384.414 82.9241 381.59 83.3962 378.82Z" fill="#262626"/>
<path d="M147.319 413.568H145.613C143.929 413.671 142.313 414.265 140.962 415.275C139.835 416.054 139.062 417.247 138.812 418.594C138.759 419.203 138.87 419.814 139.135 420.365C139.399 420.916 139.806 421.386 140.314 421.726C141.607 422.467 143.093 422.806 144.58 422.699H150.989C152.184 422.958 153.421 422.958 154.615 422.699H161.647C163.33 422.595 164.947 422.002 166.298 420.992C167.425 420.213 168.198 419.02 168.448 417.672C168.501 417.064 168.389 416.452 168.125 415.901C167.861 415.35 167.454 414.881 166.946 414.541C165.652 413.799 164.167 413.46 162.679 413.568H159.898V366.541C159.872 365.415 159.422 364.34 158.64 363.531C157.857 362.721 156.798 362.236 155.674 362.172C154.329 362.014 152.966 362.179 151.697 362.652C150.428 363.125 149.291 363.894 148.378 364.894L139.844 373.427C139.407 373.919 139.098 374.512 138.945 375.153C138.793 375.794 138.801 376.462 138.97 377.099C139.139 377.735 139.464 378.32 139.914 378.801C140.364 379.281 140.927 379.643 141.551 379.853C142.483 380.194 143.475 380.341 144.466 380.282C145.457 380.223 146.426 379.961 147.311 379.511L147.319 413.568Z" fill="#262626"/>
<path d="M304.461 422.4C305.178 422.56 305.911 422.64 306.645 422.639C310.411 422.574 314.114 421.671 317.487 419.996C320.86 418.321 323.817 415.915 326.144 412.954C329.126 408.879 330.669 403.929 330.53 398.882V386.278C330.842 381.523 329.807 376.776 327.543 372.582C325.419 369.646 322.668 367.219 319.49 365.476C316.312 363.734 312.786 362.719 309.168 362.507C305.55 362.295 301.93 362.89 298.57 364.248C295.21 365.607 292.194 367.696 289.741 370.364C285.955 374.393 283.855 379.718 283.87 385.246V397.338C283.441 402.457 284.417 407.597 286.694 412.203C288.591 415.23 291.204 417.744 294.303 419.523C297.401 421.301 300.89 422.289 304.461 422.4ZM303.104 371.942C303.42 371.78 303.309 371.849 303.104 371.942ZM296.397 387.302C296.156 384.406 296.404 381.489 297.131 378.675C297.794 376.866 298.835 375.22 300.186 373.845C300.905 373.129 301.75 372.551 302.677 372.139L302.993 371.968C303.377 371.857 305.399 371.422 304.555 371.533C304.99 371.473 305.408 371.473 305.86 371.456C306.074 371.456 306.893 371.456 307.14 371.507C308.005 371.592 308.851 371.811 309.649 372.156C311.825 373.019 313.717 374.473 315.11 376.354C318.163 382.488 319.176 389.436 318.003 396.186C318.265 399.383 318.093 402.601 317.491 405.752C316.804 408.026 315.495 410.062 313.711 411.631C312.269 412.929 310.386 413.628 308.446 413.585C308.446 413.5 306.099 413.321 306.022 413.304C304.95 413.018 303.925 412.581 302.976 412.006C300.886 410.73 299.174 408.918 298.018 406.758C296.764 404.097 296.206 401.161 296.397 398.225V387.302Z" fill="#262626"/>
<path d="M415.42 422.443C416.131 422.604 416.858 422.682 417.587 422.673C421.351 422.615 425.055 421.718 428.428 420.046C431.801 418.375 434.759 415.973 437.086 413.013C440.064 408.931 441.604 403.976 441.463 398.925V386.295C441.777 381.528 440.739 376.769 438.468 372.565C436.348 369.624 433.599 367.191 430.422 365.445C427.244 363.698 423.718 362.68 420.098 362.466C416.478 362.252 412.856 362.847 409.495 364.207C406.134 365.567 403.118 367.659 400.666 370.33C396.88 374.365 394.782 379.696 394.803 385.229V397.329C394.375 402.457 395.351 407.605 397.628 412.22C399.529 415.25 402.146 417.768 405.249 419.55C408.351 421.333 411.844 422.326 415.42 422.443ZM414.037 371.985C414.37 371.814 414.251 371.891 414.037 371.985ZM407.33 387.345C407.088 384.454 407.339 381.542 408.072 378.735C408.735 376.931 409.776 375.289 411.127 373.922C411.847 373.202 412.695 372.624 413.628 372.215L413.935 372.045C414.302 371.934 416.35 371.49 415.497 371.61C417.226 371.301 419.007 371.512 420.616 372.215C422.792 373.071 424.684 374.52 426.078 376.397C429.124 382.523 430.135 389.462 428.962 396.203C429.226 399.394 429.051 402.607 428.442 405.751C427.759 408.025 426.445 410.058 424.653 411.614C423.846 412.336 422.899 412.884 421.872 413.226C420.845 413.568 419.758 413.696 418.679 413.602C416.631 413.318 414.68 412.551 412.987 411.364C411.294 410.177 409.908 408.604 408.943 406.775C407.691 404.114 407.136 401.177 407.33 398.242V387.345Z" fill="#262626"/>
<path d="M198.622 413.619H196.821C195.138 413.725 193.522 414.318 192.171 415.326C191.043 416.092 190.264 417.273 190.003 418.611C189.948 419.214 190.058 419.821 190.321 420.367C190.584 420.912 190.991 421.376 191.497 421.709C192.779 422.429 194.245 422.758 195.712 422.656H212.779C214.462 422.551 216.078 421.958 217.429 420.949C218.557 420.183 219.336 419.002 219.597 417.664C219.652 417.061 219.542 416.454 219.279 415.909C219.016 415.363 218.61 414.899 218.103 414.566C216.821 413.846 215.355 413.517 213.888 413.619H210.978V365.278C210.978 363.571 207.292 363.622 206.481 363.674C204.078 363.731 201.76 364.577 199.885 366.08L191.351 374.613C189.645 376.32 189.815 378.172 192.435 378.667C194.533 378.949 196.668 378.669 198.622 377.856V413.619Z" fill="#262626"/>
<path d="M249.796 413.602H248.013C246.33 413.71 244.715 414.302 243.362 415.309C242.237 416.08 241.461 417.263 241.203 418.603C241.15 419.208 241.261 419.816 241.525 420.363C241.79 420.91 242.197 421.375 242.705 421.709C243.986 422.433 245.452 422.765 246.921 422.665H263.987C265.67 422.557 267.285 421.964 268.638 420.958C269.763 420.187 270.539 419.003 270.797 417.664C270.85 417.059 270.739 416.451 270.475 415.904C270.21 415.357 269.803 414.892 269.295 414.558C268.014 413.834 266.548 413.501 265.079 413.602H262.204V366.234C262.204 360.969 253.175 363.529 250.991 365.713C248.146 368.558 245.302 371.402 242.458 374.246C242.019 374.559 241.686 374.998 241.504 375.506C241.321 376.013 241.298 376.563 241.437 377.084C241.577 377.605 241.871 378.07 242.282 378.419C242.694 378.767 243.201 378.982 243.738 379.034C245.779 379.446 247.898 379.207 249.796 378.351V413.602Z" fill="#262626"/>
<path d="M360.755 414.72C359.114 414.734 357.492 415.064 355.976 415.693C354.671 416.159 353.521 416.98 352.657 418.065C352.196 418.833 351.872 419.772 352.657 420.548C353.598 421.291 354.78 421.662 355.976 421.589H373.043C374.707 421.583 376.353 421.253 377.89 420.617C379.195 420.144 380.344 419.32 381.21 418.236C381.67 417.468 381.995 416.529 381.21 415.753C380.268 415.012 379.086 414.644 377.89 414.72H373.111V365.278C373.111 362.419 362.359 366.387 361.335 367.403L352.802 375.936C350.865 377.882 354.509 378.035 355.72 377.95C357.439 377.807 359.132 377.44 360.755 376.858V414.72Z" fill="#262626"/>
<path d="M464.828 449.809H55.2276C52.6676 449.809 41.2756 454.724 47.1722 454.724H456.772C459.332 454.724 470.724 449.809 464.828 449.809Z" fill="#262626"/>
</svg>
