<svg width="265" height="96" xmlns="http://www.w3.org/2000/svg" xmlns:xlink="http://www.w3.org/1999/xlink" xml:space="preserve" overflow="hidden"><g transform="translate(-176 -122)"><path d="M82.7579 30.1563C82.4139 30.099 82.0985 30.056 81.7832 30.056L81.7832 30.056C81.4679 30.056 81.1526 30.099 80.8086 30.1563L80.8086 30.1563 80.6366 30.185 80.6366 30.013C80.7226 28.2644 80.8086 26.5014 80.8086 24.7528L80.8086 24.7528 80.8086 21.2556C80.8086 19.894 80.7943 18.5467 80.7513 17.1851L80.7513 17.1851C79.3753 17.1851 77.641 17.2711 76.5517 17.4001L76.5517 17.4001 76.3511 17.4287 76.4084 17.2281C76.4657 17.0418 76.5087 16.8268 76.5087 16.6118L76.5087 16.6118C76.5087 16.4254 76.4657 16.2391 76.4084 16.0098L76.4084 16.0098 76.3654 15.8378 76.5517 15.8378C78.3003 15.9095 80.0489 15.9381 81.7976 15.9381L81.7976 15.9381C83.5462 15.9381 85.2948 15.8951 87.029 15.8378L87.2154 15.8378C87.2154 15.8378 87.1724 16.0098 87.1724 16.0098 87.115 16.2248 87.072 16.4111 87.072 16.6261L87.072 16.6261C87.072 16.8124 87.115 17.0274 87.1724 17.2137L87.1724 17.2137 87.2297 17.4144 87.029 17.3857C85.9397 17.2424 84.2055 17.1707 82.8295 17.1707L82.8295 17.1707C82.7865 18.5324 82.7722 19.8797 82.7722 21.2413L82.7722 21.2413 82.7722 24.7385C82.7722 26.4871 82.8582 28.25 82.9298 29.9986L82.9298 29.9986 82.9298 30.1706C82.9298 30.1706 82.7722 30.142 82.7722 30.142L82.7722 30.142Z" transform="matrix(1 0 0 1.00028 176 122.208)"/><path d="M102.222 30.1563C101.878 30.099 101.563 30.056 101.247 30.056L101.247 30.056C100.932 30.056 100.617 30.099 100.273 30.1563L100.273 30.1563 100.101 30.185 100.101 30.013C100.187 28.2644 100.273 26.5014 100.273 24.7528L100.273 24.7528 100.273 23.0616C98.8966 23.0472 97.535 23.0186 96.1591 23.0186L96.1591 23.0186C94.7831 23.0186 93.4215 23.0329 92.0455 23.0616L92.0455 23.0616 92.0455 24.7528C92.0455 26.5014 92.1315 28.2644 92.2032 30.013L92.2032 30.013 92.2032 30.185C92.2032 30.185 92.0455 30.1563 92.0455 30.1563 91.7016 30.099 91.3862 30.056 91.0709 30.056L91.0709 30.056C90.7556 30.056 90.4403 30.099 90.0963 30.1563L90.0963 30.1563 89.9243 30.185 89.9243 30.013C90.0103 28.2644 90.0963 26.5014 90.0963 24.7528L90.0963 24.7528 90.0963 21.2556C90.0963 19.507 90.0246 17.7441 89.9386 15.9955L89.9386 15.9955 89.9386 15.8235C89.9386 15.8235 90.0963 15.8521 90.0963 15.8521 90.4403 15.9095 90.7556 15.9525 91.0709 15.9525L91.0709 15.9525C91.3862 15.9525 91.7016 15.9095 92.0455 15.8521L92.0455 15.8521 92.2175 15.8235 92.2175 15.9955C92.1315 17.7441 92.0455 19.507 92.0455 21.2556L92.0455 21.2556 92.0455 21.8289C93.4215 21.8433 94.7831 21.8863 96.1591 21.8863L96.1591 21.8863C97.535 21.8863 98.8966 21.8433 100.273 21.8289L100.273 21.8289 100.273 21.2556C100.273 19.507 100.187 17.7441 100.115 15.9955L100.115 15.9955 100.115 15.8235C100.115 15.8235 100.273 15.8521 100.273 15.8521 100.617 15.9095 100.932 15.9525 101.247 15.9525L101.247 15.9525C101.563 15.9525 101.878 15.9095 102.222 15.8521L102.222 15.8521 102.394 15.8235 102.394 15.9955C102.308 17.7441 102.222 19.507 102.222 21.2556L102.222 21.2556 102.222 24.7528C102.222 26.5014 102.308 28.2644 102.38 30.013L102.38 30.013 102.38 30.185C102.38 30.185 102.222 30.1563 102.222 30.1563L102.222 30.1563Z" transform="matrix(1 0 0 1.00028 176 122.208)"/><path d="M114.046 30.1563C112.843 30.099 111.624 30.056 110.392 30.056L110.392 30.056C109.159 30.056 107.941 30.099 106.694 30.1563L106.536 30.1563C106.536 30.1563 106.536 30.013 106.536 30.013 106.622 28.25 106.694 26.4728 106.694 24.7385L106.694 24.7385 106.694 21.2413C106.694 19.4927 106.608 17.7297 106.536 15.9955L106.536 15.9955 106.536 15.8521C106.536 15.8521 106.679 15.8521 106.679 15.8521 107.898 15.9095 109.102 15.9525 110.32 15.9525L110.32 15.9525C111.538 15.9525 112.728 15.9095 113.932 15.8521L114.104 15.8521C114.104 15.8521 114.061 16.0098 114.061 16.0098 114.018 16.2104 114.003 16.3968 114.003 16.5974L114.003 16.5974C114.003 16.7838 114.032 16.9844 114.061 17.1851L114.061 17.1851 114.104 17.3571 113.932 17.3571C112.255 17.2281 111.266 17.0848 108.729 17.0848L108.729 17.0848C108.7 17.9017 108.657 18.5897 108.657 19.5357L108.657 19.5357C108.657 20.5103 108.672 21.5279 108.686 22.0869L108.686 22.0869C110.994 22.0869 112.298 21.9866 113.473 21.8863L113.659 21.8863C113.659 21.8863 113.631 22.0439 113.631 22.0439 113.588 22.2302 113.573 22.4596 113.573 22.6459L113.573 22.6459C113.573 22.8466 113.588 23.0329 113.631 23.2335L113.631 23.2335 113.659 23.4199 113.473 23.4199C112.14 23.2622 109.732 23.2192 108.672 23.2192L108.672 23.2192C108.657 23.6779 108.657 24.2512 108.657 26.0284L108.657 26.0284C108.657 27.4474 108.672 28.4077 108.7 28.938L108.7 28.938C110.492 28.938 112.814 28.9094 114.032 28.68L114.032 28.68 114.233 28.637 114.19 28.8377C114.147 29.0097 114.132 29.2677 114.132 29.4397L114.132 29.4397C114.132 29.6117 114.147 29.8267 114.19 29.9986L114.19 29.9986 114.233 30.1706 114.061 30.1706Z" transform="matrix(1 0 0 1.00028 176 122.208)"/><path d="M134.614 16.0098 134.585 15.8091 134.786 15.8521C135.044 15.9095 135.316 15.9525 135.589 15.9525L135.589 15.9525C135.775 15.9525 135.99 15.9095 136.148 15.8521L136.148 15.8521 136.348 15.7805 136.348 15.9811C136.162 17.8731 136.004 21.4419 135.961 24.4088L135.961 24.4088C135.933 28.0494 133.768 30.4 130.056 30.4L130.028 30.4C127.992 30.4 126.502 29.927 125.513 28.938L125.513 28.938C124.524 27.9347 124.079 26.4441 124.079 24.4518L124.079 24.4518C124.079 23.1762 124.18 22.2446 124.18 21.2413L124.18 21.2413C124.18 19.0054 124.094 17.1564 124.051 15.9811L124.051 15.9811 124.051 15.8091C124.051 15.8091 124.208 15.8378 124.208 15.8378 124.524 15.8951 124.925 15.9381 125.24 15.9381L125.24 15.9381C125.513 15.9381 125.828 15.8951 126.086 15.8378L126.086 15.8378 126.272 15.7948 126.272 15.9811C126.129 17.1707 126.014 19.937 126.014 22.9469L126.014 22.9469C126.043 25.7418 126 29.1673 130.415 29.1673L130.415 29.1673C132.593 29.1673 133.639 28.164 134.184 26.8454L134.184 26.8454C134.729 25.5268 134.729 23.8499 134.729 22.5742L134.729 22.5742C134.729 18.7187 134.729 16.7551 134.614 15.9955L134.614 15.9955Z" transform="matrix(1 0 0 1.00028 176 122.208)"/><path d="M152.616 30.4143 152.329 30.4143 152.329 30.271 152.43 30.185 152.329 30.271 152.329 30.4143 152.272 30.4143 152.229 30.3713C149.219 26.8168 145.607 23.0042 142.196 19.378L142.196 19.378C142.182 20.152 142.139 21.3129 142.139 23.1762L142.139 23.1762C142.139 24.9105 142.225 29.2247 142.311 30.013L142.311 30.013 142.339 30.2136 142.139 30.1563C141.924 30.099 141.695 30.056 141.465 30.056L141.465 30.056C141.236 30.056 141.007 30.099 140.749 30.1563L140.749 30.1563 140.548 30.1993 140.591 29.9986C140.749 29.067 141.021 23.8499 141.021 21.1839L141.021 21.1839C141.021 18.6184 141.021 16.6548 140.964 15.7518L140.964 15.7518 140.964 15.6085C140.964 15.6085 141.093 15.6085 141.093 15.6085L141.48 15.6085 141.523 15.6515C144.733 19.1343 149.047 23.8499 151.57 26.4154L151.57 26.4154C151.57 22.8752 151.57 19.0484 151.412 16.0241L151.412 16.0241 151.412 15.8378C151.412 15.8378 151.584 15.8808 151.584 15.8808 151.799 15.9381 152.029 15.9811 152.243 15.9811L152.243 15.9811C152.444 15.9811 152.645 15.9381 152.86 15.8808L152.86 15.8808 153.046 15.8235 153.017 16.0241C152.903 17.2137 152.702 21.2413 152.702 22.8179L152.702 22.8179C152.702 24.8818 152.745 29.3823 152.759 30.2996L152.759 30.2996 152.759 30.443 152.616 30.443Z" transform="matrix(1 0 0 1.00028 176 122.208)"/><path d="M159.31 30.1563C158.966 30.099 158.65 30.056 158.335 30.056L158.335 30.056C158.02 30.056 157.704 30.099 157.36 30.1563L157.36 30.1563 157.188 30.185 157.188 30.013C157.274 28.2644 157.36 26.5014 157.36 24.7528L157.36 24.7528 157.36 21.2556C157.36 19.507 157.274 17.7441 157.203 15.9955L157.203 15.9955 157.203 15.8235C157.203 15.8235 157.36 15.8521 157.36 15.8521 157.704 15.9095 158.02 15.9525 158.335 15.9525L158.335 15.9525C158.65 15.9525 158.966 15.9095 159.31 15.8521L159.31 15.8521 159.482 15.8235 159.482 15.9955C159.396 17.7441 159.31 19.507 159.31 21.2556L159.31 21.2556 159.31 24.7528C159.31 26.5014 159.381 28.2644 159.467 30.013L159.467 30.013 159.467 30.185C159.467 30.185 159.31 30.1563 159.31 30.1563L159.31 30.1563Z" transform="matrix(1 0 0 1.00028 176 122.208)"/><path d="M162.319 15.9955C162.663 16.0528 163.036 16.0958 163.38 16.0958 163.724 16.0958 164.097 16.0528 164.441 15.9955 165.645 19.593 167.365 23.9072 169.07 28.0064 170.561 24.7098 172.825 18.6614 173.685 15.9955 173.929 16.0528 174.201 16.0958 174.445 16.0958 174.689 16.0958 174.947 16.0528 175.19 15.9955 173.083 20.668 171.12 25.3405 169.343 30.0273 169.113 29.97 168.898 29.927 168.669 29.927 168.44 29.927 168.182 29.97 167.995 30.0273 166.777 26.6734 164.297 20.6823 162.319 15.9955L162.319 15.9955Z" transform="matrix(1 0 0 1.00028 176 122.208)"/><path d="M185.524 30.1563C184.335 30.099 183.116 30.056 181.869 30.056L181.869 30.056C180.637 30.056 179.419 30.099 178.172 30.1563L178.028 30.1563C178.028 30.1563 178.028 30.013 178.028 30.013 178.114 28.25 178.186 26.4728 178.186 24.7385L178.186 24.7385 178.186 21.2413C178.186 19.4927 178.1 17.7297 178.028 16.0098L178.028 16.0098 178.028 15.8665C178.028 15.8665 178.172 15.8665 178.172 15.8665 179.39 15.9238 180.594 15.9668 181.812 15.9668L181.812 15.9668C183.03 15.9668 184.22 15.9238 185.424 15.8665L185.596 15.8665C185.596 15.8665 185.567 16.0241 185.567 16.0241 185.524 16.2248 185.51 16.4111 185.51 16.6118L185.51 16.6118C185.51 16.8124 185.524 16.9988 185.567 17.1994L185.567 17.1994 185.61 17.3714 185.438 17.3714C183.761 17.2424 182.772 17.0991 180.236 17.0991L180.236 17.0991C180.207 17.9161 180.164 18.604 180.164 19.55L180.164 19.55C180.164 20.5246 180.178 21.5423 180.193 22.1012L180.193 22.1012C182.5 22.1012 183.804 22.0009 184.98 21.9006L185.166 21.9006C185.166 21.9006 185.123 22.0583 185.123 22.0583 185.08 22.2446 185.066 22.4739 185.066 22.6602L185.066 22.6602C185.066 22.8609 185.08 23.0472 185.123 23.2479L185.123 23.2479 185.166 23.4342 184.98 23.4342C183.647 23.2765 181.239 23.2335 180.193 23.2335L180.193 23.2335C180.178 23.6922 180.178 24.2655 180.178 26.0428L180.178 26.0428C180.178 27.4617 180.193 28.422 180.207 28.9524L180.207 28.9524C181.998 28.9524 184.32 28.9237 185.539 28.6944L185.539 28.6944 185.739 28.6514 185.696 28.852C185.653 29.024 185.639 29.282 185.639 29.454L185.639 29.454C185.639 29.626 185.653 29.841 185.696 30.013L185.696 30.013 185.739 30.185 185.567 30.185Z" transform="matrix(1 0 0 1.00028 176 122.208)"/><path d="M201.362 29.2247 201.29 29.1673 201.333 29.0813C201.577 28.465 201.634 28.078 201.706 27.3041L201.706 27.3041 201.706 27.1751 202.093 27.1751 202.093 27.3041 202.093 27.1751 202.179 27.1751 202.222 27.2467C202.652 28.1784 203.627 29.282 205.318 29.282L205.318 29.282C207.052 29.282 208.084 28.035 208.084 26.4728L208.084 26.4728C208.084 24.7098 206.594 24.2082 204.96 23.5345L204.96 23.5345C203.354 22.8752 201.663 22.0296 201.677 19.5643L201.677 19.5643C201.677 17.2281 203.469 15.5941 206.221 15.5798L206.221 15.5798C207.525 15.5798 208.486 15.8951 209.317 16.5688L209.317 16.5688 209.403 16.6404 209.346 16.7408C209.116 17.1994 208.973 17.6437 208.815 18.4177L208.815 18.4177 208.787 18.5324 208.342 18.5324 208.314 18.4464C208.027 17.7011 207.468 16.6261 206.02 16.6261L206.02 16.6261C204.558 16.6261 203.541 17.6007 203.541 19.0054L203.541 19.0054C203.541 20.797 205.031 21.3273 206.651 21.9723L206.651 21.9723C208.242 22.6029 209.948 23.3769 209.933 25.7131L209.933 25.7131C209.933 28.2644 208.013 30.4143 204.816 30.4286L204.816 30.4286C203.096 30.4286 202.107 29.8123 201.391 29.239L201.391 29.239Z" transform="matrix(1 0 0 1.00028 176 122.208)"/><path d="M215.294 30.1563C214.95 30.099 214.634 30.056 214.319 30.056L214.319 30.056C214.004 30.056 213.688 30.099 213.344 30.1563L213.344 30.1563 213.172 30.185 213.172 30.013C213.258 28.2644 213.344 26.5014 213.344 24.7528L213.344 24.7528 213.344 21.2556C213.344 19.507 213.258 17.7441 213.187 15.9955L213.187 15.9955 213.187 15.8235C213.187 15.8235 213.344 15.8521 213.344 15.8521 213.688 15.9095 214.004 15.9525 214.319 15.9525L214.319 15.9525C214.634 15.9525 214.95 15.9095 215.294 15.8521L215.294 15.8521 215.466 15.8235 215.466 15.9955C215.38 17.7441 215.294 19.507 215.294 21.2556L215.294 21.2556 215.294 24.7528C215.294 26.5014 215.365 28.2644 215.451 30.013L215.451 30.013 215.451 30.185C215.451 30.185 215.294 30.1563 215.294 30.1563L215.294 30.1563Z" transform="matrix(1 0 0 1.00028 176 122.208)"/><path d="M224.567 30.1563C224.223 30.099 223.908 30.056 223.592 30.056L223.592 30.056C223.277 30.056 222.962 30.099 222.618 30.1563L222.618 30.1563 222.446 30.185 222.446 30.013C222.532 28.2644 222.618 26.5014 222.618 24.7528L222.618 24.7528 222.618 21.2556C222.618 19.894 222.603 18.5467 222.56 17.1851L222.56 17.1851C221.184 17.1851 219.45 17.2711 218.361 17.4144L218.361 17.4144 218.16 17.4431 218.218 17.2424C218.275 17.0561 218.318 16.8411 218.318 16.6261L218.318 16.6261C218.318 16.4398 218.275 16.2534 218.218 16.0385L218.218 16.0385 218.16 15.8665 218.347 15.8665C220.095 15.9381 221.844 15.9668 223.592 15.9668L223.592 15.9668C225.341 15.9668 227.09 15.9238 228.838 15.8665L229.025 15.8665C229.025 15.8665 228.967 16.0385 228.967 16.0385 228.91 16.2534 228.867 16.4398 228.867 16.6548L228.867 16.6548C228.867 16.8411 228.91 17.0561 228.967 17.2424L228.967 17.2424 229.025 17.4431 228.824 17.4144C227.735 17.2711 226 17.1994 224.624 17.1851L224.624 17.1851C224.581 18.5467 224.567 19.894 224.567 21.2556L224.567 21.2556 224.567 24.7528C224.567 26.5014 224.639 28.2644 224.725 30.013L224.725 30.013 224.725 30.185C224.725 30.185 224.567 30.1563 224.567 30.1563L224.567 30.1563Z" transform="matrix(1 0 0 1.00028 176 122.208)"/><path d="M230.372 16.0671 230.2 15.8091 230.501 15.8665C230.859 15.9238 231.246 15.9668 231.604 15.9668L231.604 15.9668C231.963 15.9668 232.335 15.9238 232.694 15.8665L232.794 15.8665C232.794 15.8665 232.837 15.9381 232.837 15.9381 233.984 18.1884 235.231 20.4243 236.592 22.7749L236.592 22.7749C237.825 20.8256 239.244 18.1884 240.305 15.9381L240.305 15.9381 240.348 15.8378 240.448 15.8665C240.706 15.9238 240.964 15.9668 241.207 15.9668L241.207 15.9668C241.465 15.9668 241.709 15.9238 241.967 15.8665L241.967 15.8665 242.297 15.7948 242.11 16.0815C239.545 20.023 238.083 22.3736 237.209 24.0648L237.209 24.0648C237.209 26.0571 237.266 28.7804 237.366 30.013L237.366 30.013 237.366 30.185C237.366 30.185 237.209 30.1563 237.209 30.1563L237.209 30.1563C236.865 30.099 236.549 30.056 236.234 30.056L236.234 30.056C235.919 30.056 235.603 30.099 235.259 30.1563L235.259 30.1563 235.087 30.185 235.087 29.9986C235.274 28.5797 235.274 26.4441 235.274 24.2798L235.274 24.2798C234.428 22.8322 231.203 17.3284 230.358 16.0671L230.358 16.0671Z" transform="matrix(1 0 0 1.00028 176 122.208)"/><path d="M83.9762 48.4164C83.9188 49.563 83.3168 51.5553 81.7689 53.1319 80.4789 54.4648 79.361 54.5651 78.802 54.5651 77.469 54.5651 76.5947 53.5905 76.7237 51.7989 76.8097 50.509 77.5694 48.5024 78.9883 47.1551 80.0633 46.1231 80.9949 45.8078 81.8549 45.8078 83.3312 45.8078 84.0621 46.9114 83.9762 48.4164L83.9762 48.4164ZM80.2066 47.4274C79.0026 49.047 78.2 51.5122 78.1283 52.6159 78.0854 53.3469 78.372 53.9488 78.974 53.9488 79.4326 53.9488 79.9486 53.7625 80.6079 52.8739 81.5252 51.6556 82.4999 48.9037 82.5429 47.8144 82.5572 47.1694 82.4425 46.4384 81.7116 46.4384 81.2959 46.4384 80.7943 46.6247 80.1923 47.4417L80.1923 47.4417Z" transform="matrix(1 0 0 1.00028 176 122.208)"/><path d="M88.9496 46.8541C88.8206 47.2124 88.663 47.8717 88.405 48.789 87.7744 51.1109 87.2297 53.1032 86.5561 55.3821 86.0257 57.2454 85.3378 58.306 84.9221 58.7217 84.6068 59.0083 83.6608 59.8396 82.4282 59.8396 81.3102 59.8396 80.9089 59.1373 80.9089 58.822 80.9089 58.4063 81.1526 58.048 81.3819 57.8904 81.5539 57.7614 81.7402 57.833 81.8549 57.9764 82.3565 58.4923 82.9728 58.822 83.4315 58.822 83.8472 58.822 84.2915 58.6787 84.7645 57.0734 85.7248 53.7912 86.4414 50.2223 87.4447 46.8397L85.7248 46.8397C85.5241 46.6534 85.5958 46.2521 85.8681 46.0658L87.6597 46.0658C88.2043 44.2025 88.7633 42.5829 89.9816 41.1209 91.0136 39.9026 92.1029 39.401 93.3068 39.401 94.0665 39.401 94.8978 39.9456 94.8978 40.777 94.8978 41.3216 94.3388 41.9666 94.0091 41.9666 93.8228 41.9666 93.7368 41.7802 93.7225 41.6369 93.6651 40.4903 93.0775 40.1176 92.5615 40.1176 92.1029 40.1176 91.5439 40.5333 91.0709 41.2356 90.1106 42.6259 89.7093 44.1022 89.136 46.0658L91.7302 46.0658C91.8735 46.2951 91.8305 46.6104 91.5296 46.8397L88.9496 46.8397Z" transform="matrix(1 0 0 1.00028 176 122.208)"/><path d="M99.2406 52.8595C98.5956 54.3358 97.32 57.1881 96.2594 61.2443 95.8724 61.1869 95.5571 61.0579 94.9408 61.0579 94.3245 61.0579 93.9518 61.1869 93.5362 61.2443 96.3884 55.0381 101.133 44.5895 103.397 38.8277 103.655 38.8563 103.841 38.928 104.2 38.928 104.486 38.928 104.644 38.8993 104.902 38.8277 107.367 45.5498 114.448 61.1153 114.505 61.2443 113.96 61.1439 113.416 61.0579 112.613 61.0579 111.811 61.0579 111.166 61.1583 110.564 61.2443 109.446 57.403 108.127 54.6225 107.324 52.8595L99.2263 52.8595ZM103.239 43.3139 99.8713 51.2543 106.694 51.2543 103.239 43.3139 103.239 43.3139Z" transform="matrix(1 0 0 1.00028 176 122.208)"/><path d="M125.957 61.2586C125.642 61.2586 121.7 61.1296 120.869 61.1296 120.038 61.1296 119.264 61.1583 117.443 61.2586 117.673 58.0194 117.83 55.8121 117.83 48.445 117.83 43.6722 117.773 42.4539 117.572 39.0283 119.335 39.0857 121.07 39.1287 122.818 39.1287 128.551 39.1287 131.619 39.1287 134.6 41.4936 137.395 43.7008 138.126 46.7824 138.126 49.563 138.126 57.661 132.364 61.2586 125.957 61.2586L125.957 61.2586ZM131.332 42.2962C129.096 40.605 126.373 40.605 123.807 40.605 122.274 40.605 122.016 40.6336 120.984 40.7339 120.855 43.6865 120.826 46.9401 120.826 49.8926 120.826 55.7548 120.826 56.4284 120.926 59.596 122.016 59.725 122.818 59.7823 124.352 59.7823 125.728 59.7823 128.809 59.7823 130.988 58.2487 133.969 56.1418 134.571 52.5155 134.571 49.95 134.571 47.542 134.026 44.3172 131.332 42.2962L131.332 42.2962Z" transform="matrix(1 0 0 1.00028 176 122.208)"/><path d="M152.115 48.531C152.057 48.8893 151.986 49.176 151.986 49.6203 151.986 49.9786 152.086 50.2653 152.115 50.6093 150.452 50.38 148.531 50.294 147.155 50.294 146.295 50.294 145.364 50.3226 144.561 50.3513 144.532 51.7272 144.504 53.1749 144.504 54.5508 144.504 56.2134 144.561 58.65 144.59 59.51 146.639 59.51 149.234 59.51 153.017 59.123 152.96 59.4813 152.888 59.768 152.888 60.2123 152.888 60.6566 152.946 60.9146 153.017 61.2299 151.541 61.0436 150.036 61.0436 148.574 61.0436 146.109 61.0436 143.615 61.1439 141.136 61.2299 141.322 58.822 141.494 56.7437 141.494 49.7636 141.494 46.5674 141.437 42.2389 141.236 39.1 143.472 39.2863 145.693 39.2863 147.929 39.2863 149.563 39.2863 151.169 39.2577 152.788 39.1 152.731 39.4583 152.659 39.8023 152.659 40.218 152.659 40.6623 152.716 40.9203 152.788 41.2356 151.599 41.0063 150.481 40.8199 147.7 40.8199 146.553 40.8199 145.966 40.8199 144.59 40.8773 144.532 42.1242 144.532 42.6689 144.532 44.5608 144.532 46.6391 144.532 47.0261 144.561 48.7173 147.084 48.746 149.621 48.7747 152.115 48.488L152.115 48.488Z" transform="matrix(1 0 0 1.00028 176 122.208)"/><path d="M163.968 59.4956C165.602 59.4956 168.296 59.3666 169.758 59.1087 169.701 59.3953 169.629 59.7106 169.629 60.1693 169.629 60.6853 169.687 61.0006 169.758 61.2586 167.68 61.2013 166.333 61.0723 162.835 61.0723 160.012 61.0723 159.209 61.1726 157.489 61.2586 157.747 57.1594 157.776 53.7625 157.776 49.563 157.776 45.3635 157.59 40.4616 157.518 39.0857 158.034 39.186 158.45 39.272 159.252 39.272 160.055 39.272 160.686 39.1717 161.273 39.0857 160.987 47.2841 160.987 49.4627 160.987 59.424 162.52 59.4813 163.165 59.4813 163.968 59.4813L163.968 59.4813Z" transform="matrix(1 0 0 1.00028 176 122.208)"/><path d="M176.265 52.8595C175.62 54.3358 174.345 57.1881 173.284 61.2443 172.897 61.1869 172.582 61.0579 171.965 61.0579 171.349 61.0579 170.977 61.1869 170.561 61.2443 173.413 55.0381 178.143 44.5895 180.422 38.8277 180.68 38.8563 180.866 38.928 181.225 38.928 181.511 38.928 181.669 38.8993 181.927 38.8277 184.392 45.5498 191.472 61.1153 191.53 61.2443 190.985 61.1439 190.441 61.0579 189.638 61.0579 188.835 61.0579 188.19 61.1583 187.588 61.2443 186.47 57.403 185.152 54.6225 184.349 52.8595L176.251 52.8595ZM180.264 43.3139 176.896 51.2543 183.718 51.2543 180.264 43.3139 180.264 43.3139Z" transform="matrix(1 0 0 1.00028 176 122.208)"/><path d="M195.486 39.0857C196.002 39.2147 196.389 39.272 197.249 39.272 198.109 39.272 198.567 39.2147 199.112 39.0857 198.926 42.8982 198.854 46.7107 198.854 50.5233 198.854 56.2851 198.983 58.8507 199.083 61.2586 198.481 61.1583 197.808 61.0723 197.091 61.0723 196.374 61.0723 195.901 61.1726 195.4 61.2586 195.615 57.7614 195.715 56.1274 195.715 49.864 195.715 45.2488 195.715 44.9621 195.486 39.1L195.486 39.1Z" transform="matrix(1 0 0 1.00028 176 122.208)"/><path d="M213.645 61.2586C213.33 61.2586 209.389 61.1296 208.557 61.1296 207.726 61.1296 206.952 61.1583 205.132 61.2586 205.361 58.0194 205.519 55.8121 205.519 48.445 205.519 43.6722 205.461 42.4539 205.261 39.0283 207.024 39.0857 208.758 39.1287 210.521 39.1287 216.254 39.1287 219.321 39.1287 222.302 41.4936 225.097 43.7008 225.828 46.7824 225.828 49.563 225.828 57.661 220.067 61.2586 213.66 61.2586L213.66 61.2586ZM219.035 42.2962C216.784 40.605 214.075 40.605 211.51 40.605 209.976 40.605 209.718 40.6336 208.686 40.7339 208.557 43.6865 208.529 46.9401 208.529 49.8926 208.529 55.7548 208.529 56.4284 208.629 59.596 209.718 59.725 210.521 59.7823 212.054 59.7823 213.43 59.7823 216.498 59.7823 218.676 58.2487 221.657 56.1418 222.259 52.5155 222.259 49.95 222.259 47.542 221.715 44.3172 219.02 42.2962L219.02 42.2962Z" transform="matrix(1 0 0 1.00028 176 122.208)"/><path d="M241.093 48.531C241.035 48.8893 240.964 49.176 240.964 49.6203 240.964 49.9786 241.064 50.2653 241.093 50.6093 239.43 50.38 237.51 50.294 236.134 50.294 235.274 50.294 234.342 50.3226 233.539 50.3513 233.511 51.7272 233.482 53.1749 233.482 54.5508 233.482 56.2134 233.539 58.65 233.582 59.51 235.632 59.51 238.226 59.51 242.01 59.123 241.953 59.4813 241.881 59.768 241.881 60.2123 241.881 60.6566 241.938 60.9146 242.01 61.2299 240.534 61.0436 239.029 61.0436 237.553 61.0436 235.087 61.0436 232.593 61.1439 230.128 61.2299 230.315 58.822 230.472 56.7437 230.472 49.7636 230.472 46.5674 230.415 42.2389 230.214 39.1 232.45 39.2863 234.672 39.2863 236.908 39.2863 238.542 39.2863 240.147 39.2577 241.781 39.1 241.723 39.4583 241.652 39.8023 241.652 40.218 241.652 40.6623 241.709 40.9203 241.781 41.2356 240.591 41.0063 239.473 40.8199 236.693 40.8199 235.546 40.8199 234.958 40.8199 233.582 40.8773 233.525 42.1242 233.525 42.6689 233.525 44.5608 233.525 46.6391 233.525 47.0261 233.554 48.7173 236.091 48.746 238.613 48.7747 241.107 48.488L241.107 48.488Z" transform="matrix(1 0 0 1.00028 176 122.208)"/><path d="M76.5087 34.5708 241.738 34.5708 241.738 34.2268 76.5087 34.2268 76.5087 34.5708 76.5087 34.5708Z" transform="matrix(1 0 0 1.00028 176 122.208)"/><path d="M199.528 29.927C198.41 28.68 195.256 24.6238 194.11 23.1905 195.701 22.9182 198.152 21.8146 198.166 19.206 198.166 17.9591 197.664 17.0991 196.847 16.5831 196.045 16.0671 194.955 15.8665 193.794 15.8665 193.006 15.8665 192.232 15.9668 191.472 15.9668 190.699 15.9668 189.939 15.9238 189.165 15.8665L189.007 15.8665C189.007 15.8665 189.007 16.0098 189.007 16.0098 189.093 17.7584 189.165 19.5213 189.165 21.2699L189.165 24.7672C189.165 26.5158 189.079 28.2787 189.007 30.0273L189.007 30.1993C189.007 30.1993 189.165 30.1706 189.165 30.1706 189.509 30.1133 189.824 30.0703 190.14 30.0703 190.455 30.0703 190.77 30.1133 191.114 30.1706L191.286 30.1993 191.286 30.0273C191.2 28.2787 191.114 26.5158 191.114 24.7672L191.114 23.4199 191.688 23.4199C193.422 25.1828 196.102 28.8807 196.89 30.1133L196.933 30.185 197.019 30.185C197.406 30.1133 197.808 30.0703 198.18 30.0703 198.582 30.0703 198.983 30.1133 199.384 30.1706L199.757 30.228 199.499 29.9413 199.499 29.9413ZM192.347 22.3736C191.874 22.3736 191.458 22.3592 191.114 22.3019L191.114 21.2556C191.114 19.8367 191.172 18.4177 191.229 16.9701 191.645 16.9271 192.218 16.8841 193.078 16.8841 194.439 16.8841 196.088 17.3714 196.088 19.4067 196.088 21.7143 193.995 22.3736 192.347 22.3879L192.347 22.3879Z" transform="matrix(1 0 0 1.00028 176 122.208)"/><path d="M43.7152 73.1835C28.8234 66.7194 21.2269 55.0955 21.1123 38.6127L66.3181 38.6127C66.2178 55.0955 58.607 66.7194 43.7152 73.1835L43.7152 73.1835ZM66.3181 17.8014C66.3181 19.55 66.3181 34.0118 66.3181 37.4947L21.1123 37.4947 21.1123 17.8014 66.3181 17.8014ZM68.5253 15.6085 18.8907 15.6085 18.8907 38.2687C18.8907 56.0701 27.1034 68.5683 43.2852 75.4194L43.7152 75.6058 44.1452 75.4194C60.327 68.5683 68.5253 56.0701 68.5253 38.2687L68.5253 15.6085 68.5253 15.6085Z" transform="matrix(1 0 0 1.00028 176 122.208)"/><path d="M43.7152 73.1835C28.8234 66.7194 21.2126 55.0955 21.1123 38.6127L66.3181 38.6127C66.2178 55.0955 58.607 66.7194 43.7152 73.1835L43.7152 73.1835Z" fill="#FFFFFF" transform="matrix(1 0 0 1.00028 176 122.208)"/><path d="M57.2741 42.6259 55.8551 42.6259 55.8551 40.8486 53.9488 40.8486 53.9488 39.1 53.0745 39.4153C51.8849 39.8596 50.8529 40.2466 48.4307 40.2466 45.5641 40.2466 44.2455 40.9203 43.6578 41.4076 43.0702 40.9203 41.7802 40.2466 38.9137 40.2466 36.4914 40.2466 35.4595 39.8596 34.2698 39.4153L33.3955 39.0857 33.3955 40.8343 31.4893 40.8343 31.4893 42.6116 29.583 42.6116 29.583 61.1153 42.0239 61.1153C42.0239 61.1153 42.0526 61.1153 42.0812 61.1439 42.1242 62.0039 42.7835 62.6775 43.6005 62.6775 44.4175 62.6775 45.0338 62.0326 45.1198 61.2013 45.1771 61.1726 45.2345 61.1439 45.3061 61.1009L57.7327 61.1009C57.7327 61.1009 57.7327 42.5972 57.7327 42.5972L57.2454 42.5972Z" transform="matrix(1 0 0 1.00028 176 122.208)"/><path d="M66.3181 17.8014C66.3181 19.55 66.3181 34.0118 66.3181 37.4947L21.1123 37.4947 21.1123 17.8014 66.3181 17.8014Z" fill="#005A9C" transform="matrix(1 0 0 1.00028 176 122.208)"/><path d="M73.7712 62.9499C67.9807 64.2112 63.2079 66.3611 60.2266 69.027L60.2696 69.0986 60.1263 69.07 62.2189 73.7425C58.048 75.8064 52.1859 77.3544 44.2885 77.3544L44.0162 77.3544C36.0758 77.3544 30.185 75.7921 26.0141 73.6995L27.9491 69.199 28.0494 69.027C25.0681 66.3467 20.3096 64.2112 14.4905 62.9499L14.4905 70.3599C17.2711 71.2916 19.0627 71.9796 20.582 73.3698L19.894 74.7601 18.4894 77.4977 18.5324 77.4977C18.5324 77.4977 18.26 78.0137 18.26 78.0137 23.1332 82.3709 32.8939 85.4811 44.0162 85.4811L44.2885 85.4811C55.4108 85.4811 65.1571 82.3709 70.0303 78.0137L67.7084 73.3555C69.2276 71.9939 71.0193 71.2916 73.7855 70.3599L73.7855 62.9499 73.7855 62.9499Z" fill="#D40000" transform="matrix(1 0 0 1.00028 176 122.208)"/><path d="M22.1012 77.2827C22.1012 77.2827 22.0726 77.34 22.0583 77.383 21.8863 77.7127 21.8576 77.899 22.0583 77.9993 22.2159 78.0854 22.3736 78.0137 22.4739 77.8274 22.6172 77.5694 22.4739 77.3974 22.3306 77.1107 22.1586 76.7811 22.0296 76.5374 22.0009 76.3224 21.9866 76.1074 22.0296 75.8924 22.1442 75.6631 22.4452 75.1041 22.9756 74.9608 23.5202 75.2618 24.1365 75.5914 24.2942 76.0931 23.9789 76.6664 23.9645 76.6951 23.9359 76.7381 23.9215 76.7667L23.2479 76.4084C23.2479 76.4084 23.2622 76.3797 23.2765 76.3654 23.4199 76.0788 23.4055 75.8924 23.2479 75.8064 23.1189 75.7348 22.9612 75.7778 22.8752 75.9498 22.7462 76.1791 22.8752 76.3654 23.0759 76.6951 23.2335 76.9817 23.3769 77.211 23.3912 77.469 23.4055 77.6554 23.3625 77.8704 23.2335 78.0997 22.8896 78.7447 22.3592 78.9023 21.7429 78.587 21.0979 78.243 20.9546 77.727 21.2986 77.0964 21.3273 77.039 21.3703 76.9817 21.3989 76.9244L22.0726 77.297 22.0726 77.297Z" fill="#FFFFFF" transform="matrix(1 0 0 1.00028 176 122.208)"/><path d="M25.9998 76.5087 25.1541 78.6013C24.9678 79.06 24.8818 79.3036 25.1541 79.4183 25.4121 79.5186 25.5125 79.2893 25.6845 78.8736 25.6845 78.8736 25.6845 78.845 25.6988 78.8307L26.5444 76.7381 27.3327 77.0534 26.5731 78.931C26.5301 79.017 26.5014 79.103 26.4728 79.189 26.3438 79.533 26.2148 79.8053 25.9998 79.9773 25.7131 80.2209 25.3548 80.2209 24.8962 80.0346 24.4518 79.8626 24.2225 79.6333 24.1795 79.2606 24.1365 78.931 24.2942 78.544 24.5092 77.985L25.2401 76.1934 26.0141 76.5087 26.0141 76.5087Z" fill="#FFFFFF" transform="matrix(1 0 0 1.00028 176 122.208)"/><path d="M28.6657 78.9596 28.895 78.1857C28.895 78.1857 28.9524 78.2 28.981 78.2 29.2677 78.286 29.368 78.4723 29.2963 78.7017 29.2103 78.9883 29.024 79.0743 28.7087 78.974 28.6944 78.974 28.68 78.9596 28.6657 78.9596L28.6657 78.9596ZM27.2324 80.8229 28.1927 81.1096C28.6084 81.2386 28.9237 81.2959 29.2103 81.1382 29.454 81.0092 29.6547 80.7513 29.755 80.4503 29.8697 80.0776 29.7837 79.7623 29.5257 79.5043 29.8553 79.361 30.0273 79.1746 30.1276 78.8736 30.228 78.544 30.1706 78.2573 29.97 78.028 29.7837 77.8274 29.5113 77.7414 29.153 77.6267L28.293 77.3544 27.2611 80.7943 27.2611 80.7943ZM28.2214 80.4503 28.4937 79.5616C28.4937 79.5616 28.5367 79.5616 28.551 79.5616 28.9094 79.6763 29.0383 79.8483 28.938 80.1493 28.8377 80.4646 28.637 80.5649 28.293 80.4646 28.2644 80.4646 28.25 80.4646 28.2214 80.4359L28.2214 80.4359Z" fill="#FFFFFF" transform="matrix(1 0 0 1.00028 176 122.208)"/><path d="M34.9291 81.2386C34.9291 81.2386 34.9148 81.3532 34.9005 81.4249 34.7428 82.2849 34.2985 82.6289 33.5102 82.4999 33.0515 82.4139 32.7649 82.1989 32.6072 81.8549 32.4782 81.5539 32.5499 81.0952 32.6646 80.4216 32.7936 79.748 32.8939 79.3036 33.1232 79.0743 33.3812 78.802 33.7395 78.7017 34.1838 78.7877 34.9578 78.931 35.2731 79.4326 35.1011 80.2926L35.1011 80.3213 34.2985 80.1779C34.3845 79.7193 34.3272 79.5043 34.0835 79.4613 33.7395 79.3896 33.6679 79.7336 33.5245 80.5219 33.5245 80.5363 33.5245 80.5649 33.5102 80.5793 33.3669 81.4106 33.2952 81.7832 33.6392 81.8406 33.9115 81.8836 34.0118 81.7116 34.0978 81.2672 34.0978 81.2242 34.1122 81.1669 34.1265 81.1096L34.9435 81.2529 34.9435 81.2529Z" fill="#FFFFFF" transform="matrix(1 0 0 1.00028 176 122.208)"/><path d="M35.8895 82.7865 36.7208 82.8869 36.8927 81.4536 37.0647 81.4536C37.3801 81.5109 37.4374 81.6829 37.3944 82.0842 37.3801 82.1845 37.3657 82.2992 37.3371 82.4569 37.3084 82.6432 37.3084 82.8009 37.3371 82.9585L38.326 83.0732C38.1254 82.8725 38.1827 82.5572 38.2257 82.0985 38.2544 81.6829 38.283 81.4392 37.9104 81.2242 38.24 81.0809 38.412 80.8229 38.455 80.4216 38.498 80.0919 38.4264 79.834 38.24 79.6476 38.0394 79.4613 37.7241 79.3896 37.2511 79.3323L36.3051 79.2176 35.8895 82.7865 35.8895 82.7865ZM36.9644 80.7943 37.0791 79.92C37.0791 79.92 37.1507 79.92 37.1794 79.92 37.5234 79.963 37.6524 80.0919 37.6094 80.3929 37.5664 80.7226 37.4231 80.8373 37.0791 80.7943 37.0504 80.7943 37.0074 80.7943 36.9644 80.7799L36.9644 80.7799Z" fill="#FFFFFF" transform="matrix(1 0 0 1.00028 176 122.208)"/><path d="M40.3756 79.619 40.2466 81.8692C40.218 82.3709 40.218 82.6145 40.5046 82.6432 40.777 82.6575 40.7913 82.4139 40.8199 81.9552 40.8199 81.9552 40.8199 81.9266 40.8199 81.9122L40.9489 79.662 41.7946 79.705 41.6799 81.7259C41.6799 81.8119 41.6799 81.9122 41.6656 81.9982 41.6513 82.3709 41.6226 82.6719 41.4649 82.9012 41.2643 83.2165 40.9346 83.3455 40.433 83.3168 39.96 83.2882 39.6733 83.1448 39.5157 82.8152 39.3723 82.5142 39.3867 82.0985 39.4153 81.5109L39.53 79.576 40.3613 79.6333 40.3613 79.6333Z" fill="#FFFFFF" transform="matrix(1 0 0 1.00028 176 122.208)"/><path d="M45.1341 81.9409C45.1341 81.9409 45.1341 82.0699 45.1341 82.1272 45.1341 83.0015 44.7615 83.4172 43.9588 83.4172 43.4859 83.4172 43.1705 83.2595 42.9555 82.9442 42.7835 82.6719 42.7549 82.2132 42.7549 81.5252 42.7549 80.8373 42.7835 80.3786 42.9555 80.1063 43.1562 79.791 43.4859 79.6333 43.9445 79.6476 44.7328 79.6476 45.1198 80.0919 45.1198 80.9519L45.1198 80.9806 44.3028 80.9806C44.3028 80.5219 44.2168 80.3213 43.9588 80.3213 43.6149 80.3213 43.6005 80.6653 43.6005 81.4536L43.6005 81.5252C43.6005 82.3565 43.6005 82.7292 43.9445 82.7435 44.2312 82.7435 44.2885 82.5429 44.2885 82.0985L44.2885 81.9409 45.1198 81.9409Z" fill="#FFFFFF" transform="matrix(1 0 0 1.00028 176 122.208)"/><path d="M46.1518 79.7193 48.101 79.6046 48.144 80.3069 47.0261 80.3643 47.0547 81.0236 48.0867 80.9663 48.1297 81.6972 47.0977 81.7402 47.1407 82.5285 48.2587 82.4712 48.2874 83.2022 46.3381 83.3025 46.1518 79.7193 46.1518 79.7193Z" fill="#FFFFFF" transform="matrix(1 0 0 1.00028 176 122.208)"/><path d="M51.3259 82.9012 50.8386 79.3466 51.6699 79.232 52.0569 82.0842 53.0602 81.9409 53.1605 82.6575 51.3259 82.9012 51.3259 82.9012Z" fill="#FFFFFF" transform="matrix(1 0 0 1.00028 176 122.208)"/><path d="M54.3072 78.802 54.7515 81.0092C54.8518 81.4966 54.9091 81.7546 55.1958 81.6972 55.4681 81.6399 55.4251 81.3962 55.3248 80.9519 55.3248 80.9376 55.3248 80.9232 55.3248 80.9089L54.8805 78.7017 55.6974 78.5297 56.0988 80.5219C56.1131 80.6079 56.1274 80.7083 56.1561 80.7943 56.2278 81.1526 56.2708 81.4392 56.1991 81.7259 56.0844 82.0842 55.7978 82.2849 55.3105 82.3852 54.8518 82.4712 54.5365 82.4139 54.2928 82.1415 54.0778 81.8836 53.9775 81.4822 53.8628 80.8946L53.4759 78.9883 54.3072 78.8163 54.3072 78.8163Z" fill="#FFFFFF" transform="matrix(1 0 0 1.00028 176 122.208)"/><path d="M56.6577 78.3147 57.79 77.9707 58.5353 79.3466C58.5353 79.3466 58.6787 79.6476 58.8937 80.1206 58.822 79.6046 58.779 79.318 58.7647 79.2606L58.6357 77.7127 59.7536 77.383 60.7856 80.8229 60.026 81.0522 59.295 78.372 59.5386 81.2099 58.9223 81.3962 57.5894 78.9023 58.4493 81.5396 57.6897 81.7689 56.6577 78.3147 56.6577 78.3147Z" fill="#FFFFFF" transform="matrix(1 0 0 1.00028 176 122.208)"/><path d="M60.6423 77.039 62.4339 76.2794 62.7062 76.9244 61.6742 77.3544 61.9322 77.9564 62.8925 77.555 63.1792 78.2287 62.2189 78.63 62.5199 79.3466 63.5518 78.9167 63.8385 79.5903 62.0326 80.3499 60.6423 77.039 60.6423 77.039Z" fill="#FFFFFF" transform="matrix(1 0 0 1.00028 176 122.208)"/><path d="M63.2365 75.8924 63.9962 75.4481 65.7161 77.0104C65.3148 76.4227 65.0138 75.9641 64.8131 75.6201L64.5265 75.1328 65.1715 74.7458 66.9774 77.856 66.2178 78.3003 64.4548 76.6807C64.7988 77.1537 65.1141 77.6267 65.3864 78.0854L65.7018 78.6157 65.0425 78.9883 63.2365 75.8781 63.2365 75.8781Z" fill="#FFFFFF" transform="matrix(1 0 0 1.00028 176 122.208)"/><path d="M43.2852 58.4207 43.2852 58.4207C42.1959 57.2024 41.0349 56.7867 39.9456 56.7867L38.8133 56.8871C37.5951 57.0161 35.9038 57.1881 35.0868 57.1881L33.4099 57.1881 33.4099 41.7946 32.4782 41.7946 32.4782 58.2487 35.0868 58.2487C35.8465 58.2487 37.5664 58.0767 38.713 57.9477L39.9456 57.833C40.9776 57.833 42.1529 57.6754 43.2995 58.4923L43.2995 58.4063 43.2995 58.4063Z" fill="#FFFFFF" transform="matrix(1 0 0 1.00028 176 122.208)"/><path d="M53.9345 41.8232 53.9345 57.2167 52.2576 57.2167C51.4406 57.2167 49.7636 57.0447 48.531 56.9157L47.3987 56.8154C46.3094 56.8154 45.1341 57.2311 44.0592 58.435L44.0162 58.4923 44.0162 58.564C45.1485 57.704 46.3524 57.8617 47.3987 57.8617L48.6313 57.9764C49.778 58.091 51.4979 58.2774 52.2576 58.2774L54.8518 58.2774 54.8518 41.8232 53.9202 41.8232Z" fill="#FFFFFF" transform="matrix(1 0 0 1.00028 176 122.208)"/><path d="M39.9313 55.8264 38.6987 55.9411C37.5521 56.0558 35.8321 56.2278 35.0725 56.2278L34.3702 56.2278 34.3702 40.5046C35.4595 40.8916 36.6204 41.2356 38.8993 41.2356 42.5256 41.2356 43.1992 42.3536 43.1992 42.3679L43.2709 42.4826 43.2709 56.9157C42.1242 56.0271 40.9633 55.8408 39.917 55.8408L39.917 55.8408Z" fill="#FFFFFF" transform="matrix(1 0 0 1.00028 176 122.208)"/><path d="M52.9599 56.2278 52.2719 56.2278C51.5122 56.2278 49.7923 56.0558 48.6457 55.9411L47.4131 55.8264C46.3668 55.8264 45.1771 56.0128 44.0305 56.9444L44.0305 42.4969 44.1022 42.3679C44.1022 42.3679 44.8045 41.2356 48.445 41.2356 50.7239 41.2356 51.8849 40.9059 52.9742 40.5046L52.9742 56.2278 52.9742 56.2278Z" fill="#FFFFFF" transform="matrix(1 0 0 1.00028 176 122.208)"/><path d="M39.186 45.7218C37.6381 45.7361 36.3768 45.6358 35.4308 45.4208L35.4308 45.9224C36.3911 46.1374 37.6524 46.2378 39.2003 46.2091L40.1176 46.2091C40.9776 46.2808 41.6513 46.3954 42.1816 46.5961L42.1816 46.0801C41.6369 45.9081 40.9633 45.7934 40.1463 45.7361L39.2003 45.7361Z" transform="matrix(1 0 0 1.00028 176 122.208)"/><path d="M39.229 47.671C37.5807 47.7284 36.2621 47.671 35.4165 47.542L35.4165 48.0437C36.5058 48.2014 38.0537 48.2014 39.2433 48.1727L40.0603 48.1727C40.9633 48.2157 41.6226 48.3304 42.1529 48.5453L42.1529 48.0294C41.6083 47.8287 40.9489 47.7284 40.0746 47.6854L39.2147 47.6854Z" transform="matrix(1 0 0 1.00028 176 122.208)"/><path d="M39.2863 49.649C37.9677 49.7063 36.3768 49.7636 35.4308 49.6776L35.4308 50.165C36.4198 50.251 37.9964 50.1936 39.315 50.1363L40.0316 50.1363C40.7053 50.1506 41.4649 50.2223 42.1672 50.5233L42.1672 49.993C41.4506 49.7206 40.7196 49.6633 40.046 49.6346L39.2863 49.6346Z" transform="matrix(1 0 0 1.00028 176 122.208)"/><path d="M39.3293 51.6986 38.8993 51.7272C37.7814 51.7989 36.3051 51.9136 35.4165 51.8849L35.4165 52.3722C36.3338 52.3866 37.8244 52.2862 38.928 52.2002L39.358 52.1716 39.9743 52.1429C40.6766 52.1429 41.4219 52.2289 42.1242 52.5442L42.1242 52.0139C41.4076 51.7272 40.648 51.6699 39.9886 51.6412L39.315 51.6699 39.315 51.6699Z" transform="matrix(1 0 0 1.00028 176 122.208)"/><path d="M39.96 53.7052 38.7417 53.8198C37.7384 53.9202 36.2908 54.0778 35.4165 54.1065L35.4165 54.5938C36.2908 54.5508 37.7671 54.4075 38.7847 54.3072L39.9456 54.1925C40.605 54.1925 41.3646 54.2498 42.1242 54.6081L42.1242 54.0778C41.3359 53.7482 40.562 53.7052 39.9456 53.7052L39.9456 53.7052Z" transform="matrix(1 0 0 1.00028 176 122.208)"/><path d="M39.1287 43.7582C37.853 43.7582 36.9644 43.6435 36.2764 43.5002L36.2764 42.2389C36.0041 42.1816 35.7461 42.1242 35.4308 42.0096L35.4308 43.7868C36.2621 44.0448 37.3084 44.2455 39.1287 44.2455 40.3613 44.2455 41.3789 44.3745 42.1816 44.6325L42.1816 44.1308C41.3503 43.9015 40.347 43.7725 39.1287 43.7725L39.1287 43.7725Z" transform="matrix(1 0 0 1.00028 176 122.208)"/><path d="M48.23 44.3172C50.0646 44.3172 51.1109 44.1022 51.9422 43.8585L51.9422 43.3425C51.1396 43.6005 50.1076 43.8298 48.23 43.8298 47.4417 43.8298 46.7394 43.8872 46.1088 43.9875L46.1088 42.5542C45.9224 42.5829 45.7791 42.6259 45.6214 42.6546 45.4925 42.6832 45.3491 42.7405 45.2345 42.7835L45.2345 44.6898C46.0371 44.4605 47.0261 44.3315 48.23 44.3315L48.23 44.3315Z" transform="matrix(1 0 0 1.00028 176 122.208)"/><path d="M48.187 45.7791 47.2411 45.7791C46.4528 45.8364 45.7934 45.9511 45.2488 46.1231L45.2488 46.6391C45.7791 46.4528 46.4384 46.3381 47.2841 46.2808L48.2014 46.2808C49.735 46.2808 50.9963 46.1948 51.9709 45.9798L51.9709 45.4638C51.0249 45.6931 49.7636 45.8078 48.2157 45.7791L48.2157 45.7791Z" transform="matrix(1 0 0 1.00028 176 122.208)"/><path d="M48.1297 47.7427 47.2697 47.7427C46.4241 47.7714 45.7791 47.886 45.2345 48.0724L45.2345 48.5884C45.7648 48.3877 46.4098 48.273 47.2984 48.2157L48.1154 48.2157C49.2907 48.2444 50.8529 48.2444 51.9279 48.0867L51.9279 47.5994C51.0966 47.7284 49.7636 47.7714 48.1154 47.7284L48.1154 47.7284Z" transform="matrix(1 0 0 1.00028 176 122.208)"/><path d="M48.0867 49.7206 47.3271 49.7206C46.6821 49.7206 45.9511 49.7923 45.2488 50.0503L45.2488 50.5806C45.9368 50.294 46.6964 50.2223 47.3557 50.208L48.0724 50.208C49.3767 50.2796 50.9533 50.337 51.9566 50.251L51.9566 49.7636C50.9963 49.8496 49.4197 49.7923 48.101 49.735L48.101 49.735Z" transform="matrix(1 0 0 1.00028 176 122.208)"/><path d="M48.4594 51.7989 48.0294 51.7702C48.0294 51.7702 47.3557 51.7416 47.3557 51.7416 46.6964 51.7416 45.9654 51.8132 45.2345 52.0999L45.2345 52.6302C45.9511 52.3149 46.7107 52.2432 47.3701 52.2289L47.9864 52.2576C47.9864 52.2576 48.4164 52.2862 48.4164 52.2862 49.5343 52.3579 51.0106 52.4726 51.9279 52.4439L51.9279 51.9566C51.0393 51.9709 49.563 51.8706 48.4594 51.7989L48.4594 51.7989Z" transform="matrix(1 0 0 1.00028 176 122.208)"/><path d="M48.617 53.8772 47.4131 53.7625C46.7967 53.7625 46.0228 53.8055 45.2345 54.1352L45.2345 54.6655C45.9798 54.3072 46.7537 54.2498 47.4131 54.2498L48.5597 54.3502C49.5773 54.4505 51.0536 54.6081 51.9422 54.6511L51.9422 54.1638C51.0823 54.1352 49.6203 53.9775 48.617 53.8772L48.617 53.8772Z" transform="matrix(1 0 0 1.00028 176 122.208)"/><path d="M39.9313 58.8363 38.799 58.951C37.5807 59.08 35.8895 59.252 35.0725 59.252L31.4893 59.252 31.4893 43.6005 30.5576 43.6005 30.5576 60.155 35.0725 60.155C35.8321 60.155 37.5521 59.9686 38.6987 59.854L39.9313 59.7393C40.7483 59.7393 41.6513 59.4956 42.5686 59.7823L42.5972 59.7106C41.7086 59.037 40.8056 58.8363 39.9313 58.8363L39.9313 58.8363Z" fill="#FFFFFF" transform="matrix(1 0 0 1.00028 176 122.208)"/><path d="M55.8408 43.6005 55.8408 59.252 52.2576 59.252C51.4406 59.252 49.7636 59.08 48.531 58.951L47.3987 58.8363C46.4958 58.8363 45.5355 59.037 44.6325 59.7966L44.6325 59.8253C45.5784 59.467 46.5388 59.7393 47.3987 59.7393L48.6313 59.854C49.778 59.9686 51.4979 60.155 52.2576 60.155L56.7724 60.155 56.7724 43.6005 55.8408 43.6005Z" fill="#FFFFFF" transform="matrix(1 0 0 1.00028 176 122.208)"/><path d="M47.4417 32.5356 49.09 32.5356 49.778 31.3746 50.4516 32.5356 52.0856 32.5356 51.2973 33.9115 52.0856 35.2875 50.4516 35.2875 49.778 36.4484 49.09 35.2875 47.4417 35.2875 48.2444 33.9115 47.4417 32.5356 47.4417 32.5356Z" fill="#FFFFFF" transform="matrix(1 0 0 1.00028 176 122.208)"/><path d="M53.2179 23.2192 54.2498 24.5952 55.9984 24.5092 55.4968 26.1288 56.6577 27.4187 55.0238 28.0494 54.7228 29.7263 53.2179 28.9094 51.6556 29.712 51.3689 28.0637 49.778 27.3757 50.9246 26.1144 50.4516 24.5092 52.1859 24.5808 53.2179 23.2192 53.2179 23.2192Z" fill="#FFFFFF" transform="matrix(1 0 0 1.00028 176 122.208)"/><path d="M43.8155 18.9767 44.8475 20.3526 46.5961 20.2666 46.0944 21.8863 47.2554 23.1762 45.6214 23.8069 45.3205 25.4838 43.8155 24.6668 42.2676 25.4695 41.9809 23.8212 40.3756 23.1475 41.5223 21.8719 41.0493 20.2666 42.7979 20.3383 43.8155 18.9767 43.8155 18.9767Z" fill="#FFFFFF" transform="matrix(1 0 0 1.00028 176 122.208)"/><path d="M43.8872 29.755 44.6898 30.9159 46.0801 31.3173 45.1915 32.4209 45.2201 33.7969 43.8872 33.3239 42.5112 33.8112 42.5542 32.4209 41.6943 31.3173 43.0559 30.9016 43.8872 29.755 43.8872 29.755Z" fill="#FFFFFF" transform="matrix(1 0 0 1.00028 176 122.208)"/><path d="M39.9313 31.4033 38.713 30.2136 38.713 28.422 36.8497 28.422 35.5455 27.1464 34.2412 28.422 32.4496 28.422 32.4496 30.1706 31.1739 31.3889 32.4496 32.6359 32.4496 34.3845 34.2412 34.3845 35.5455 35.6601 36.8497 34.3845 38.713 34.3845 38.713 32.5929 39.9313 31.4033 39.9313 31.4033Z" fill="#FFFFFF" transform="matrix(1 0 0 1.00028 176 122.208)"/><path d="M58.7217 55.8264 58.7217 49.047 59.1517 49.047 59.1517 46.9974 58.7217 46.9974 58.7217 44.6181 57.747 44.6181 57.747 61.1153 45.3061 61.1153C45.3061 61.1153 45.1771 61.1726 45.1198 61.2013 45.0338 62.0326 44.3888 62.6775 43.6005 62.6775 42.8122 62.6775 42.1242 61.9896 42.0812 61.1439 42.0526 61.1296 42.0382 61.1153 42.0239 61.1153L29.583 61.1153C29.583 61.1153 29.583 44.6181 29.583 44.6181L28.6514 44.6181 28.6514 46.9974 28.2787 46.9974 28.2787 49.047 28.6514 49.047 28.6514 55.8264 28.2787 55.8264 28.2787 57.876 28.6514 57.876 28.6514 62.0039 41.1639 62.0039C41.5796 62.9785 42.5542 63.6378 43.6722 63.6378 44.7901 63.6378 45.7504 62.9642 46.1804 62.0039L58.7217 62.0039 58.7217 57.876 59.1517 57.876 59.1517 55.8264 58.7217 55.8264Z" fill="#D40000" transform="matrix(1 0 0 1.00028 176 122.208)"/><path d="M21.1123 38.6127C21.2126 55.0955 28.8234 66.7194 43.7008 73.1835L43.7008 63.6522C43.7008 63.6522 43.6722 63.6522 43.6578 63.6522 42.5399 63.6522 41.5796 62.9785 41.1496 62.0182L28.637 62.0182 28.637 57.8904 28.2644 57.8904 28.2644 55.8408 28.637 55.8408 28.637 49.0613 28.2644 49.0613 28.2644 47.0117 28.637 47.0117 28.637 44.6325 29.5687 44.6325 29.5687 42.6259 31.4749 42.6259 31.4749 40.8486 33.3812 40.8486 33.3812 39.1 34.2555 39.4297C35.4451 39.874 36.4771 40.261 38.8993 40.261 41.7659 40.261 43.0702 40.9346 43.6435 41.4219 43.6578 41.4219 43.6865 41.3933 43.7008 41.3789L43.7008 38.627 21.1123 38.627Z" fill="#B38808" transform="matrix(1 0 0 1.00028 176 122.208)"/></g></svg>