<?xml version="1.0" encoding="UTF-8" standalone="no"?>
<!-- Created with Inkscape (http://www.inkscape.org/) -->

<svg
   version="1.1"
   id="svg3150"
   xml:space="preserve"
   width="682.66669"
   height="682.66669"
   viewBox="0 0 682.66669 682.66669"
   xmlns="http://www.w3.org/2000/svg"
   xmlns:svg="http://www.w3.org/2000/svg"><defs
     id="defs3154"><clipPath
       clipPathUnits="userSpaceOnUse"
       id="clipPath3164"><path
         d="M 0,512 H 512 V 0 H 0 Z"
         id="path3162" /></clipPath></defs><g
     id="g3156"
     transform="matrix(1.3333333,0,0,-1.3333333,0,682.66667)"><g
       id="g3158"><g
         id="g3160"
         clip-path="url(#clipPath3164)"><g
           id="g3166"
           transform="translate(466,436)"><path
             d="m 0,0 c 0,-33.137 -94.021,-60 -210,-60 -115.98,0 -210,26.863 -210,60 0,33.137 94.02,61 210,61 C -94.021,61 0,33.137 0,0 Z"
             style="fill:none;stroke:#000000;stroke-width:30;stroke-linecap:butt;stroke-linejoin:miter;stroke-miterlimit:10;stroke-dasharray:none;stroke-opacity:1"
             id="path3168" /></g><g
           id="g3170"
           transform="translate(466,316)"><path
             d="m 0,0 c 0,-33.137 -94.021,-60 -210,-60 -115.98,0 -210,26.863 -210,60"
             style="fill:none;stroke:#000000;stroke-width:30;stroke-linecap:butt;stroke-linejoin:miter;stroke-miterlimit:10;stroke-dasharray:none;stroke-opacity:1"
             id="path3172" /></g><g
           id="g3174"
           transform="translate(211,317.3809)"><path
             d="M 0,0 C -94.355,5.886 -165,29.896 -165,58.619"
             style="fill:none;stroke:#000000;stroke-width:30;stroke-linecap:butt;stroke-linejoin:miter;stroke-miterlimit:10;stroke-dasharray:none;stroke-opacity:1"
             id="path3176" /></g><g
           id="g3178"
           transform="translate(211,197.3809)"><path
             d="M 0,0 C -94.355,5.886 -165,29.896 -165,58.619"
             style="fill:none;stroke:#000000;stroke-width:30;stroke-linecap:butt;stroke-linejoin:miter;stroke-miterlimit:10;stroke-dasharray:none;stroke-opacity:1"
             id="path3180" /></g><g
           id="g3182"
           transform="translate(211,77.3809)"><path
             d="M 0,0 C -94.355,5.886 -165,29.896 -165,58.619"
             style="fill:none;stroke:#000000;stroke-width:30;stroke-linecap:butt;stroke-linejoin:miter;stroke-miterlimit:10;stroke-dasharray:none;stroke-opacity:1"
             id="path3184" /></g><g
           id="g3186"
           transform="translate(466,196)"><path
             d="m 0,0 c 0,-33.137 -94.021,-60 -210,-60 -115.98,0 -210,26.863 -210,60"
             style="fill:none;stroke:#000000;stroke-width:30;stroke-linecap:butt;stroke-linejoin:miter;stroke-miterlimit:10;stroke-dasharray:none;stroke-opacity:1"
             id="path3188" /></g><g
           id="g3190"
           transform="translate(466,436)"><path
             d="m 0,0 v -360 c 0,0 0,33.137 0,0 0,-33.137 -94.021,-61 -210,-61 -115.98,0 -210,27.863 -210,61 0,33.137 0,0 0,0 V 0"
             style="fill:none;stroke:#000000;stroke-width:30;stroke-linecap:butt;stroke-linejoin:miter;stroke-miterlimit:10;stroke-dasharray:none;stroke-opacity:1"
             id="path3192" /></g><g
           id="g3194"
           transform="translate(256,331)"><path
             d="M 0,0 V -30"
             style="fill:none;stroke:#000000;stroke-width:30;stroke-linecap:butt;stroke-linejoin:miter;stroke-miterlimit:10;stroke-dasharray:none;stroke-opacity:1"
             id="path3196" /></g><g
           id="g3198"
           transform="translate(256,211)"><path
             d="M 0,0 V -30"
             style="fill:none;stroke:#000000;stroke-width:30;stroke-linecap:butt;stroke-linejoin:miter;stroke-miterlimit:10;stroke-dasharray:none;stroke-opacity:1"
             id="path3200" /></g><g
           id="g3202"
           transform="translate(256,91)"><path
             d="M 0,0 V -30"
             style="fill:none;stroke:#000000;stroke-width:30;stroke-linecap:butt;stroke-linejoin:miter;stroke-miterlimit:10;stroke-dasharray:none;stroke-opacity:1"
             id="path3204" /></g></g></g></g></svg>
